<?xml version="1.0" encoding="utf-8"?>
<!DOCTYPE svg PUBLIC "-//W3C//DTD SVG 1.0//EN" "http://www.w3.org/TR/2001/REC-SVG-20010904/DTD/svg10.dtd" [
<!ENTITY ns_svg "http://www.w3.org/2000/svg">
<!ENTITY ns_xlink "http://www.w3.org/1999/xlink">
]>
<svg xmlns="&ns_svg;" xmlns:xlink="&ns_xlink;" width="240" height="120" viewBox="0 0 240 120" overflow="visible" enable-background="new 0 0 240 120" xml:space="preserve">

<g id="Layer_1">

<g id="Decal">
	<path id="template" fill="none" d="M239.5,109.5c0,5.5-4.5,10-10,10H9.5c-5.5,0-10-4.5-10-10V9.5c0-5.5,4.5-10,10-10h220
		c5.5,0,10,4.5,10,10V109.5z"/>
	
		<linearGradient id="DECAL_AREA_1_" gradientUnits="userSpaceOnUse" x1="57.7998" y1="-450" x2="57.7998" y2="-402" gradientTransform="matrix(1 0 0 -1 12 -380)">
		<stop  offset="0" style="stop-color:#58B294"/>
		<stop  offset="1" style="stop-color:#296651"/>
	</linearGradient>
	<path id="DECAL_AREA_2_" fill="url(#DECAL_AREA_1_)" d="M117.8,64c0,3.3-2.7,6-6,6h-84c-3.3,0-6-2.7-6-6V28c0-3.3,2.7-6,6-6h84
		c3.3,0,6,2.7,6,6V64z"/>
	
		<linearGradient id="Reflection_2_" gradientUnits="userSpaceOnUse" x1="57.7998" y1="-425.75" x2="57.7998" y2="-401.75" gradientTransform="matrix(1 0 0 -1 12 -380)">
		<stop  offset="0" style="stop-color:#3A9476"/>
		<stop  offset="1" style="stop-color:#90CCB8"/>
	</linearGradient>
	<path id="Reflection_1_" fill="url(#Reflection_2_)" d="M117.8,39.8c0,3.3-2.7,6-6,6h-84c-3.3,0-6-2.7-6-6v-12c0-3.3,2.7-6,6-6h84
		c3.3,0,6,2.7,6,6V39.8z"/>
	<path id="DecalBorder" fill="none" stroke="#23614C" stroke-width="2" d="M117.8,64c0,3.3-2.7,6-6,6h-84c-3.3,0-6-2.7-6-6V28
		c0-3.3,2.7-6,6-6h84c3.3,0,6,2.7,6,6V64z"/>
	<g>
		<path fill="#F2FFFA" d="M49.9,35h3.9l5.8,14.9h0.1V35h3v20h-3.9l-5.8-15.3h-0.1V55h-3V35z"/>
		<path fill="#F2FFFA" d="M65.9,35h10.7v2.7h-7.5v5.5h7v2.7h-7V55h-3.2V35z"/>
		<path fill="#F2FFFA" d="M81.4,48.8v0.5c0,2.4,1.1,3.7,3.3,3.7c2,0,3-1.4,3-2.9c0-2.1-1.1-3-2.9-3.6l-2.2-0.8
			c-2.9-1.1-4.2-2.6-4.2-5.5c0-3.6,2.5-5.7,6.2-5.7c5.1,0,5.7,3.2,5.7,5.3v0.4h-3.2v-0.4c0-1.8-0.8-2.9-2.8-2.9
			c-1.4,0-2.7,0.8-2.7,2.9c0,1.7,0.9,2.6,3,3.4l2.2,0.8c2.8,1,4.1,2.5,4.1,5.3c0,4.3-2.6,6-6.6,6c-5,0-6.1-3.3-6.1-6.1v-0.5H81.4z"
			/>
	</g>
</g>


<path id="Background" fill="none" d="M239.75,110c0,5.523-4.478,10-10,10h-220c-5.523,0-10-4.477-10-10V10c0-5.523,4.477-10,10-10
	h220c5.522,0,10,4.477,10,10V110z"/>
<g>
	<path fill="#262626" d="M222.897,33.769c-0.034-0.052-0.07-0.104-0.109-0.153l-0.854-1.086l-0.055-0.067l-0.008-0.009
		c-0.063-0.077-0.116-0.133-0.16-0.177c-0.138-0.146-0.214-0.196-0.225-0.208c-0.113-0.099-0.204-0.152-0.222-0.165v0.001
		l-0.077-0.058c-0.003,0.002-0.032-0.023-0.163-0.099c-0.017-0.006-0.116-0.071-0.309-0.152c-0.009-0.004-0.044-0.02-0.1-0.041
		l-0.024-0.01l-0.113-0.042c-0.066-0.024-0.189-0.064-0.342-0.097c-0.085-0.02-0.139-0.027-0.169-0.034l-0.002,0.002l-0.047-0.007
		l0.001-0.001c-0.005-0.001-0.022-0.004-0.05-0.009c-0.047-0.009-0.113-0.019-0.204-0.026v0c-0.095-0.009-0.206-0.013-0.331-0.013
		c-0.063,0-0.148,0-0.268,0.009v0l-2.015,0.137l0.007-1.036c0-0.008-0.002-0.017-0.002-0.017c0.012-1.591-0.935-3.099-2.466-3.648
		c-0.093-0.04-0.19-0.073-0.291-0.1l-0.951-0.247c-0.3-0.08-0.602-0.114-0.896-0.114c-0.006,0-0.013,0-0.027,0
		c-0.02-0.001-0.053-0.001-0.111,0.003c-0.058,0.002-0.099,0.006-0.114,0.008l-23.015,1.607c-0.416-0.859-1.142-1.557-2.085-1.888
		c-0.09-0.038-0.183-0.07-0.279-0.095l-0.951-0.249c-0.318-0.084-0.638-0.116-0.924-0.114c-0.123,0-0.19,0.006-0.23,0.008
		l-16.708,1.168c-0.283,0.019-0.547,0.074-0.762,0.135c-0.047,0.013-0.093,0.028-0.139,0.044c-0.234,0.077-0.421,0.167-0.558,0.238
		c-0.122,0.063-0.212,0.124-0.26,0.158c-0.053,0.03-0.169,0.102-0.317,0.216l-0.049,0.042c-0.162,0.129-0.279,0.248-0.362,0.335
		c-0.025,0.024-0.06,0.057-0.1,0.098l-0.08,0.094l-0.002-0.001c-0.144,0.169-0.229,0.3-0.281,0.38
		c-0.033,0.044-0.087,0.119-0.146,0.225l-0.007,0.009c-0.135,0.236-0.236,0.468-0.314,0.683l0.001,0l-0.022,0.048
		c-0.086,0.257-0.104,0.384-0.107,0.386l-0.004,0.016c-0.009,0.03-0.034,0.111-0.06,0.26c-0.045,0.249-0.067,0.501-0.067,0.743
		l-0.013,2.641l-0.035,8.137l-0.098,22.057c-0.004,0.682,0.186,1.284,0.401,1.736c0.022,0.055,0.043,0.098,0.059,0.128
		c0.032,0.063,0.032,0.063,0.032,0.063l0.075,0.138c0.03,0.042,0.112,0.208,0.313,0.455l0.778,0.998
		c0.056,0.071,0.115,0.138,0.179,0.2c0.609,0.651,1.505,1.018,2.357,1.018c0.021,0,0.043-0.001,0.064-0.001
		c0.104,0,0.171-0.004,0.213-0.004l44.271-3.093c1.957-0.224,3.43-1.423,3.99-3.33l6.385-25.552
		c0.073-0.291,0.109-0.587,0.107-0.869C223.454,34.941,223.261,34.298,222.897,33.769z"/>
	<linearGradient id="SVGID_1_" gradientUnits="userSpaceOnUse" x1="186.6279" y1="29.3267" x2="213.7969" y2="29.3267">
		<stop  offset="0" style="stop-color:#DAE2EE"/>
		<stop  offset="0.296" style="stop-color:#B1C4E1"/>
		<stop  offset="0.7253" style="stop-color:#789BD0"/>
		<stop  offset="0.7774" style="stop-color:#6F92C6"/>
		<stop  offset="0.8646" style="stop-color:#587AAD"/>
		<stop  offset="0.9451" style="stop-color:#3E5E8F"/>
	</linearGradient>
	<path fill="url(#SVGID_1_)" d="M212.846,28.35c-0.134-0.035-0.274-0.051-0.413-0.049c-0.03,0-0.057,0.002-0.083,0.004
		l-25.722,1.799l0.951,0.248l25.72-1.797c0.175-0.014,0.338,0.002,0.498,0.043L212.846,28.35z"/>
	<g>
		<linearGradient id="SVGID_2_" gradientUnits="userSpaceOnUse" x1="190.8232" y1="28.9756" x2="191.3255" y2="59.7002">
			<stop  offset="0" style="stop-color:#A6BFE3"/>
			<stop  offset="0.5" style="stop-color:#789BD0"/>
			<stop  offset="0.5753" style="stop-color:#7293C6"/>
			<stop  offset="0.7017" style="stop-color:#607EAC"/>
			<stop  offset="0.8625" style="stop-color:#445C82"/>
			<stop  offset="1" style="stop-color:#283A59"/>
		</linearGradient>
		<path fill="url(#SVGID_2_)" d="M185.815,27.825c0.978-0.066,1.772,0.764,1.769,1.863l-0.005,0.664l25.72-1.797
			c0.975-0.068,1.766,0.77,1.762,1.863l-0.134,30.193c-0.003,1.094-0.805,2.045-1.777,2.112l-44.212,3.092
			c-0.979,0.068-1.764-0.771-1.758-1.865l0.097-22.053l0.035-8.141l0.011-2.65c0.005-1.102,0.8-2.043,1.776-2.111L185.815,27.825z"
			/>
	</g>
	<radialGradient id="SVGID_3_" cx="166.5771" cy="29.2358" r="35.2451" gradientUnits="userSpaceOnUse">
		<stop  offset="0.1593" style="stop-color:#DAE2EE"/>
		<stop  offset="0.3791" style="stop-color:#B1C4E1"/>
		<stop  offset="0.6978" style="stop-color:#789BD0"/>
		<stop  offset="0.7408" style="stop-color:#6F92C6"/>
		<stop  offset="0.8128" style="stop-color:#587AAD"/>
		<stop  offset="0.8791" style="stop-color:#3E5E8F"/>
	</radialGradient>
	<path fill="url(#SVGID_3_)" d="M185.367,27.624c-0.133-0.035-0.272-0.051-0.42-0.051c-0.026,0-0.056,0.002-0.082,0.004
		l-16.717,1.17c-0.123,0.008-0.241,0.031-0.359,0.064c0,0,0,0-0.001,0.002c-0.111,0.031-0.215,0.078-0.316,0.131
		c-0.034,0.018-0.061,0.041-0.092,0.061c-0.06,0.035-0.116,0.066-0.171,0.109c-0.009,0.006-0.014,0.016-0.024,0.021
		c-0.077,0.061-0.144,0.129-0.213,0.203c-0.021,0.02-0.042,0.037-0.063,0.059c-0.002,0.004-0.004,0.006-0.006,0.008
		c-0.062,0.072-0.114,0.154-0.167,0.234c-0.016,0.025-0.038,0.047-0.053,0.076c0,0,0,0.002-0.002,0.002
		c-0.068,0.119-0.124,0.244-0.172,0.375c-0.004,0.006-0.007,0.012-0.009,0.016c-0.026,0.076-0.042,0.156-0.063,0.238
		c-0.009,0.039-0.022,0.074-0.028,0.115c-0.024,0.129-0.036,0.26-0.036,0.396l-0.013,2.65l-0.037,8.139l-0.097,22.055
		c-0.003,0.9,0.527,1.627,1.261,1.82l0.952,0.248c-0.734-0.193-1.266-0.92-1.26-1.82l0.097-22.053l0.035-8.141l0.011-2.65
		c0.001-0.133,0.018-0.266,0.038-0.393c0.007-0.047,0.023-0.09,0.033-0.135c0.021-0.08,0.039-0.16,0.067-0.238
		c0.046-0.131,0.105-0.256,0.17-0.373c0.025-0.039,0.057-0.074,0.083-0.111c0.044-0.068,0.088-0.139,0.139-0.201
		c0.023-0.025,0.05-0.045,0.07-0.068c0.068-0.074,0.139-0.143,0.215-0.203c0.06-0.049,0.123-0.088,0.187-0.127
		c0.033-0.021,0.064-0.045,0.1-0.064c0.101-0.055,0.206-0.098,0.314-0.131c0.116-0.035,0.239-0.059,0.36-0.066l16.717-1.17
		c0.176-0.012,0.345,0.004,0.503,0.047L185.367,27.624z"/>
	<radialGradient id="SVGID_4_" cx="173.7773" cy="36.7715" r="28.5496" gradientUnits="userSpaceOnUse">
		<stop  offset="0" style="stop-color:#DAE2EE"/>
		<stop  offset="0.2288" style="stop-color:#B1C4E1"/>
		<stop  offset="0.5604" style="stop-color:#789BD0"/>
		<stop  offset="0.6361" style="stop-color:#6F92C6"/>
		<stop  offset="0.7625" style="stop-color:#587AAD"/>
		<stop  offset="0.8791" style="stop-color:#3E5E8F"/>
	</radialGradient>
	<path fill="url(#SVGID_4_)" d="M220.45,34.428c0.099,0.016,0.191,0.037,0.277,0.07c0.007,0.002,0.013,0.006,0.02,0.008
		c0.095,0.039,0.178,0.084,0.255,0.139c0.002,0.004,0.005,0.006,0.007,0.008c0.077,0.057,0.147,0.125,0.208,0.199l-0.854-1.088
		c-0.007-0.008-0.015-0.02-0.023-0.027c-0.018-0.023-0.04-0.047-0.063-0.068c-0.02-0.023-0.046-0.045-0.069-0.064
		c-0.016-0.014-0.033-0.025-0.051-0.037c-0.003-0.002-0.007-0.006-0.011-0.01c-0.005-0.006-0.009-0.008-0.014-0.012
		c-0.028-0.018-0.057-0.037-0.088-0.055s-0.062-0.035-0.095-0.049c-0.018-0.008-0.035-0.016-0.053-0.021
		c-0.007-0.004-0.016-0.008-0.023-0.01c-0.014-0.004-0.024-0.01-0.038-0.016c-0.046-0.016-0.09-0.029-0.141-0.039
		c-0.03-0.008-0.065-0.012-0.097-0.018c-0.018-0.002-0.033-0.006-0.051-0.008c-0.017-0.002-0.032-0.008-0.046-0.008
		c-0.094-0.008-0.195-0.01-0.296-0.002l-44.201,3.037c-0.143,0.01-0.283,0.039-0.424,0.08c-0.015,0.004-0.028,0.004-0.041,0.008
		c-0.073,0.021-0.147,0.049-0.218,0.076c-0.009,0.004-0.018,0.01-0.024,0.014c-0.011,0.004-0.02,0.01-0.031,0.014
		c-0.037,0.016-0.074,0.031-0.109,0.049c-0.046,0.023-0.093,0.047-0.137,0.074l0.001,0.004v0.002l-0.003-0.006
		c-0.02,0.012-0.039,0.023-0.06,0.037c-0.008,0.004-0.015,0.008-0.02,0.012c-0.016,0.01-0.028,0.018-0.046,0.027
		c-0.037,0.023-0.074,0.051-0.11,0.076c-0.035,0.025-0.07,0.053-0.105,0.08c-0.015,0.01-0.026,0.02-0.039,0.033
		c-0.005,0.002-0.007,0.004-0.011,0.006c-0.016,0.016-0.035,0.029-0.051,0.045c-0.033,0.027-0.065,0.057-0.097,0.086
		c-0.031,0.031-0.06,0.061-0.09,0.094c-0.011,0.01-0.021,0.02-0.031,0.031c-0.004,0.004-0.007,0.006-0.009,0.012
		c-0.02,0.018-0.035,0.035-0.051,0.055c-0.03,0.035-0.059,0.07-0.087,0.107c-0.033,0.041-0.06,0.078-0.088,0.119
		c-0.001,0.004-0.003,0.008-0.005,0.01l0,0c-0.03,0.043-0.058,0.088-0.084,0.131c-0.037,0.063-0.067,0.121-0.096,0.186
		c-0.001,0-0.001,0.002-0.001,0.002c-0.053,0.111-0.094,0.229-0.125,0.344l-6.396,25.608c-0.111,0.445-0.03,0.838,0.189,1.119
		l0.854,1.09c-0.222-0.281-0.301-0.674-0.19-1.121l6.397-25.608c0.029-0.117,0.071-0.232,0.124-0.344
		c0.05-0.107,0.111-0.213,0.176-0.314c0.002,0,0.006-0.004,0.008-0.008c0.064-0.098,0.142-0.195,0.225-0.285
		c0.005-0.006,0.009-0.01,0.014-0.016c0.081-0.088,0.171-0.172,0.264-0.25c0.004-0.004,0.011-0.01,0.018-0.014
		c0.092-0.076,0.19-0.146,0.289-0.209c0.012-0.006,0.021-0.012,0.031-0.018c0.097-0.061,0.198-0.113,0.303-0.158
		c0.01-0.006,0.021-0.01,0.031-0.014c0.093-0.041,0.188-0.07,0.285-0.098c0.139-0.039,0.281-0.07,0.423-0.08l44.2-3.037
		c0.12-0.01,0.234-0.004,0.342,0.01C220.417,34.42,220.435,34.424,220.45,34.428z"/>
	<g>
		<linearGradient id="SVGID_5_" gradientUnits="userSpaceOnUse" x1="193.2305" y1="36.1025" x2="195.4071" y2="64.2329">
			<stop  offset="0" style="stop-color:#A6BFE3"/>
			<stop  offset="0.5" style="stop-color:#789BD0"/>
			<stop  offset="0.6187" style="stop-color:#6F92C6"/>
			<stop  offset="0.817" style="stop-color:#587AAD"/>
			<stop  offset="1" style="stop-color:#3E5E8F"/>
		</linearGradient>
		<path fill="url(#SVGID_5_)" d="M175.857,37.446l44.2-3.037c0.979-0.068,1.577,0.635,1.347,1.557l-6.386,25.555
			c-0.232,0.934-1.211,1.746-2.188,1.816l-44.213,3.09c-0.974,0.068-1.578-0.633-1.347-1.566l6.397-25.608
			C173.901,38.329,174.886,37.514,175.857,37.446z"/>
	</g>
	<linearGradient id="SVGID_6_" gradientUnits="userSpaceOnUse" x1="174.5391" y1="35.5557" x2="221.2168" y2="35.5557">
		<stop  offset="0" style="stop-color:#DAE2EE"/>
		<stop  offset="0.1301" style="stop-color:#B1C4E1"/>
		<stop  offset="0.3187" style="stop-color:#789BD0"/>
		<stop  offset="0.4674" style="stop-color:#6F92C6"/>
		<stop  offset="0.7158" style="stop-color:#587AAD"/>
		<stop  offset="0.9451" style="stop-color:#3E5E8F"/>
	</linearGradient>
	<path fill="url(#SVGID_6_)" d="M174.539,36.446c0.013-0.004,0.026-0.004,0.041-0.008c0.141-0.041,0.281-0.07,0.424-0.08
		l44.201-3.037c0.101-0.008,0.202-0.006,0.296,0.002c0.014,0,0.029,0.006,0.046,0.008c0.018,0.002,0.033,0.006,0.051,0.008
		c0.031,0.006,0.066,0.01,0.097,0.018c0.051,0.01,0.095,0.023,0.141,0.039c0.014,0.006,0.024,0.012,0.038,0.016
		c0.008,0.002,0.017,0.006,0.023,0.01c0.018,0.006,0.035,0.014,0.053,0.021c0.033,0.014,0.063,0.031,0.095,0.049
		s0.06,0.037,0.088,0.055c0.005,0.004,0.009,0.006,0.014,0.012c0.004,0.004,0.008,0.008,0.011,0.01
		c0.018,0.012,0.035,0.023,0.051,0.037c0.023,0.02,0.05,0.041,0.069,0.064c0.022,0.021,0.045,0.045,0.063,0.068
		c0.009,0.008,0.017,0.02,0.023,0.027l0.854,1.088c-0.061-0.074-0.131-0.143-0.208-0.199c-0.002-0.002-0.005-0.004-0.007-0.008
		c-0.077-0.055-0.16-0.1-0.255-0.139c-0.007-0.002-0.013-0.006-0.02-0.008c-0.086-0.033-0.179-0.055-0.277-0.07
		c-0.016-0.004-0.033-0.008-0.051-0.01c-0.107-0.014-0.222-0.02-0.342-0.01l-44.2,3.037c-0.142,0.01-0.284,0.041-0.423,0.08
		c-0.097,0.027-0.192,0.057-0.285,0.098c-0.011,0.004-0.021,0.008-0.031,0.014c-0.104,0.045-0.206,0.098-0.303,0.158L174.539,36.446
		z"/>
</g>
</g>

</svg>
