<?xml version="1.0" encoding="utf-8"?>
<!DOCTYPE svg PUBLIC "-//W3C//DTD SVG 1.0//EN" "http://www.w3.org/TR/2001/REC-SVG-20010904/DTD/svg10.dtd" [
<!ENTITY ns_svg "http://www.w3.org/2000/svg">
<!ENTITY ns_xlink "http://www.w3.org/1999/xlink">
]>
<svg xmlns="&ns_svg;" xmlns:xlink="&ns_xlink;" width="240" height="120" viewBox="0 0 240 120" overflow="visible" enable-background="new 0 0 240 120" xml:space="preserve">

<g id="Layer_1">

<path id="Background" fill="none" d="M239.75,110c0,5.52-4.48,10-10,10h-220c-5.52,0-10-4.48-10-10V10c0-5.52,4.48-10,10-10h220
	c5.52,0,10,4.48,10,10V110z"/>
<g>
	<path fill="#262626" d="M150.6,24.89c-0.2-2.54-2-4.84-4.32-5.83c-2.34-1.17-4.92-0.33-6.77,1.29c-0.56,0.49-1.13,0.99-1.69,1.48
		c-0.25,0.22-0.56,0.63-0.89,0.7c-0.93,0.21-1.78,0.52-2.6,1.05c-2.06,1.36-3.86,3.32-5.71,4.94c-0.83,0.73-1.66,1.46-2.49,2.19
		c-0.59,0.52-1.1,1.15-1.49,1.84c-0.31,0.57-0.55,1.18-0.69,1.81c-0.07,0.32,0.01,0.25-0.13,0.37c-1.44,1.26-2.87,2.52-4.31,3.78
		c-4.04,3.54-8.08,7.08-12.11,10.62c-0.49,0.43-1.35,0.4-1.96,0.66c-0.79,0.33-1.45,0.81-2.09,1.37c-2.1,1.84-4.19,3.68-6.29,5.51
		c-0.81,0.71-1.65,1.39-2.25,2.31c-0.33,0.51-0.59,1.06-0.78,1.64c-0.09,0.27-0.08,0.76-0.3,0.95c-0.5,0.44-1.01,0.88-1.51,1.33
		c-1.27,1.11-2.55,2.13-3.08,3.81c-0.81,2.57,0.25,5.43,2.26,7.14c1.86,1.58,4.61,2.17,6.85,1.06c1.25-0.62,2.29-1.74,3.33-2.65
		c0.4-0.35,0.79-0.7,1.19-1.05c0.21-0.19,0.99-0.19,1.29-0.28c0.7-0.21,1.37-0.54,1.95-0.98c0.64-0.47,1.22-1.02,1.82-1.54
		c2.06-1.81,4.12-3.61,6.18-5.42c1.05-0.92,1.83-2.12,2.18-3.47c0.2-0.77,0.33-0.83,0.93-1.35c4.29-3.76,8.59-7.53,12.88-11.29
		c0.76-0.66,1.51-1.33,2.27-1.99c0.17-0.15,0.34-0.3,0.51-0.45c0.41-0.36,1.44-0.33,1.97-0.56c1.03-0.43,1.82-1.14,2.64-1.86
		c1.12-0.98,2.23-1.96,3.35-2.94c2.11-1.85,4.84-3.63,5.54-6.51c0.17-0.69,0.21-0.78,0.77-1.27c0.55-0.48,1.09-0.96,1.64-1.44
		C150.09,28.64,150.79,26.72,150.6,24.89"/>
	
		<linearGradient id="SVGID_1_" gradientUnits="userSpaceOnUse" x1="155.1455" y1="35.8311" x2="157.5715" y2="44.7011" gradientTransform="matrix(0.8928 -0.4504 0.4504 0.8928 -14.9753 60.5212)">
		<stop  offset="5.618000e-003" style="stop-color:#541716"/>
		<stop  offset="0.0843" style="stop-color:#8D5026"/>
		<stop  offset="0.382" style="stop-color:#C99451"/>
		<stop  offset="0.5618" style="stop-color:#FFF3DC"/>
		<stop  offset="0.8034" style="stop-color:#D6B18A"/>
		<stop  offset="0.94" style="stop-color:#A15E2E"/>
		<stop  offset="0.9551" style="stop-color:#9B5524"/>
	</linearGradient>
	<path fill="url(#SVGID_1_)" d="M148.01,23.16c-1.44-2.6-4.72-3.46-6.99-1.47c-1.87,1.64-3.75,3.28-5.62,4.93
		c3.96-3.44,9.99,3.42,6.08,6.92c1.73-1.51,3.45-3.03,5.18-4.54c0.73-0.64,1.59-1.32,1.8-2.33C148.8,25.49,148.6,24.22,148.01,23.16
		"/>
	<g>
		<path fill="#B2B2B2" d="M136.37,26.02c4.72-1.98,9.19,6,4.15,8.11C135.81,36.11,131.34,28.12,136.37,26.02"/>
	</g>
	<g>
		
			<linearGradient id="SVGID_2_" gradientUnits="userSpaceOnUse" x1="134.2813" y1="37.9321" x2="150.8191" y2="53.8791" gradientTransform="matrix(0.8928 -0.4504 0.4504 0.8928 -14.9753 60.5212)">
			<stop  offset="0.1726" style="stop-color:#7DA6D7"/>
			<stop  offset="0.3096" style="stop-color:#36537D"/>
			<stop  offset="0.5" style="stop-color:#9EB9E0"/>
			<stop  offset="0.618" style="stop-color:#668BC5"/>
			<stop  offset="0.693" style="stop-color:#698FC8"/>
			<stop  offset="0.7675" style="stop-color:#729BD0"/>
			<stop  offset="0.809" style="stop-color:#79A5D7"/>
			<stop  offset="1" style="stop-color:#174D6B"/>
		</linearGradient>
		<path fill="url(#SVGID_2_)" d="M128.61,31.52c2.79-1.17,5.98,0.48,7.39,2.98c1.47,2.6,0.98,6.29-2.01,7.54
			c-2.79,1.17-5.98-0.48-7.4-2.97C125.12,36.47,125.62,32.78,128.61,31.52"/>
	</g>
	
		<linearGradient id="SVGID_3_" gradientUnits="userSpaceOnUse" x1="147.2813" y1="37.0918" x2="150.1491" y2="48.5595" gradientTransform="matrix(0.8928 -0.4504 0.4504 0.8928 -14.9753 60.5212)">
		<stop  offset="5.076140e-003" style="stop-color:#36537D"/>
		<stop  offset="0.5" style="stop-color:#97B2DC"/>
		<stop  offset="0.6142" style="stop-color:#A8C0E4"/>
		<stop  offset="0.6712" style="stop-color:#A4BEE3"/>
		<stop  offset="0.7279" style="stop-color:#98B7E0"/>
		<stop  offset="0.7843" style="stop-color:#84ABDA"/>
		<stop  offset="0.809" style="stop-color:#79A5D7"/>
		<stop  offset="1" style="stop-color:#174D6B"/>
	</linearGradient>
	<path fill="url(#SVGID_3_)" d="M143.69,27.83c-1.89-3.31-6.06-4.54-9.02-1.94c-2.44,2.14-4.87,4.27-7.31,6.41
		c5.09-4.44,13.06,4.53,7.87,8.96c2.05-1.8,4.1-3.59,6.15-5.39c0.88-0.77,1.89-1.5,2.47-2.53C144.8,31.67,144.66,29.48,143.69,27.83
		"/>
	
		<linearGradient id="SVGID_4_" gradientUnits="userSpaceOnUse" x1="127.2705" y1="43.4888" x2="129.6195" y2="52.2027" gradientTransform="matrix(0.8928 -0.4504 0.4504 0.8928 -14.9753 60.5212)">
		<stop  offset="5.618000e-003" style="stop-color:#541716"/>
		<stop  offset="0.0843" style="stop-color:#8D5026"/>
		<stop  offset="0.382" style="stop-color:#C99451"/>
		<stop  offset="0.5618" style="stop-color:#FFF3DC"/>
		<stop  offset="0.8034" style="stop-color:#D6B18A"/>
		<stop  offset="0.94" style="stop-color:#A15E2E"/>
		<stop  offset="0.9551" style="stop-color:#9B5524"/>
	</linearGradient>
	<path fill="url(#SVGID_4_)" d="M134.71,35.46c-1.35-2.29-4.54-3.63-6.75-1.69c-1.19,1.04-2.38,2.09-3.57,3.13
		c-4.65,4.08-9.3,8.15-13.95,12.23c-1.53,1.34-3.06,2.68-4.59,4.02c3.97-3.44,9.98,3.43,6.07,6.92c7.19-6.3,14.38-12.61,21.56-18.91
		C135.26,39.61,135.8,37.65,134.71,35.46"/>
	<g>
		<path fill="#B2B2B2" d="M106.8,52.56c4.72-1.98,9.19,6,4.15,8.12C106.24,62.66,101.78,54.67,106.8,52.56"/>
	</g>
	
		<linearGradient id="SVGID_5_" gradientUnits="userSpaceOnUse" x1="108.0366" y1="47.1016" x2="111.303" y2="58.7809" gradientTransform="matrix(0.8928 -0.4504 0.4504 0.8928 -14.9753 60.5212)">
		<stop  offset="5.076140e-003" style="stop-color:#36537D"/>
		<stop  offset="0.5" style="stop-color:#97B2DC"/>
		<stop  offset="0.6142" style="stop-color:#A8C0E4"/>
		<stop  offset="0.6712" style="stop-color:#A4BEE3"/>
		<stop  offset="0.7279" style="stop-color:#98B7E0"/>
		<stop  offset="0.7843" style="stop-color:#84ABDA"/>
		<stop  offset="0.809" style="stop-color:#79A5D7"/>
		<stop  offset="1" style="stop-color:#174D6B"/>
	</linearGradient>
	<path fill="url(#SVGID_5_)" d="M113.62,54.66c-1.88-3.31-6.07-4.53-9.02-1.94c-2.44,2.14-4.87,4.27-7.31,6.41
		c5.06-4.48,12.97,4.43,7.87,8.97c2.05-1.8,4.1-3.59,6.14-5.39c0.87-0.76,1.9-1.5,2.47-2.52C114.74,58.46,114.57,56.36,113.62,54.66
		"/>
	<g>
		
			<linearGradient id="SVGID_6_" gradientUnits="userSpaceOnUse" x1="95.3496" y1="48.3481" x2="111.8889" y2="64.2965" gradientTransform="matrix(0.8928 -0.4504 0.4504 0.8928 -14.9753 60.5212)">
			<stop  offset="0.1371" style="stop-color:#7DA6D7"/>
			<stop  offset="0.2843" style="stop-color:#36537D"/>
			<stop  offset="0.5" style="stop-color:#9EB9E0"/>
			<stop  offset="0.618" style="stop-color:#668BC5"/>
			<stop  offset="0.693" style="stop-color:#698FC8"/>
			<stop  offset="0.7675" style="stop-color:#729BD0"/>
			<stop  offset="0.809" style="stop-color:#79A5D7"/>
			<stop  offset="1" style="stop-color:#174D6B"/>
		</linearGradient>
		<path fill="url(#SVGID_6_)" d="M98.54,58.36c2.79-1.17,5.98,0.48,7.39,2.98c1.47,2.6,0.98,6.28-2.01,7.54
			c-2.79,1.17-5.98-0.48-7.4-2.97C95.05,63.3,95.55,59.61,98.54,58.36"/>
	</g>
	
		<linearGradient id="SVGID_7_" gradientUnits="userSpaceOnUse" x1="99.1143" y1="51.5181" x2="101.1605" y2="60.1579" gradientTransform="matrix(0.8928 -0.4504 0.4504 0.8928 -14.9753 60.5212)">
		<stop  offset="5.618000e-003" style="stop-color:#541716"/>
		<stop  offset="0.0843" style="stop-color:#8D5026"/>
		<stop  offset="0.382" style="stop-color:#C99451"/>
		<stop  offset="0.5618" style="stop-color:#FFF3DC"/>
		<stop  offset="0.8034" style="stop-color:#D6B18A"/>
		<stop  offset="0.94" style="stop-color:#A15E2E"/>
		<stop  offset="0.9551" style="stop-color:#9B5524"/>
	</linearGradient>
	<path fill="url(#SVGID_7_)" d="M104.7,62.23c-1.48-2.67-4.77-3.42-7.06-1.41c-1.85,1.62-3.69,3.24-5.54,4.86
		c4-3.39,10,3.43,6.08,6.92c1.7-1.49,3.4-2.98,5.1-4.47c0.77-0.68,1.55-1.32,1.87-2.35C105.51,64.61,105.31,63.29,104.7,62.23"/>
	<g>
		
			<radialGradient id="SVGID_8_" cx="94.3618" cy="52.6489" r="10.1614" gradientTransform="matrix(0.8928 -0.4504 0.4504 0.8928 -14.9753 60.5212)" gradientUnits="userSpaceOnUse">
			<stop  offset="5.076140e-003" style="stop-color:#8D5026"/>
			<stop  offset="0.382" style="stop-color:#C99451"/>
			<stop  offset="0.5618" style="stop-color:#FFF3DC"/>
			<stop  offset="0.6853" style="stop-color:#D6B18A"/>
			<stop  offset="0.8224" style="stop-color:#A15E2E"/>
			<stop  offset="0.8376" style="stop-color:#9B5524"/>
		</radialGradient>
		<path fill="url(#SVGID_8_)" d="M93.07,65.08c4.72-1.98,9.18,6.01,4.15,8.12C92.5,75.17,88.04,67.19,93.07,65.08"/>
	</g>
</g>
</g>

</svg>
