<?xml version="1.0" encoding="utf-8"?>
<!DOCTYPE svg PUBLIC "-//W3C//DTD SVG 1.0//EN" "http://www.w3.org/TR/2001/REC-SVG-20010904/DTD/svg10.dtd" [
<!ENTITY ns_svg "http://www.w3.org/2000/svg">
<!ENTITY ns_xlink "http://www.w3.org/1999/xlink">
]>
<svg xmlns="&ns_svg;" xmlns:xlink="&ns_xlink;" width="240" height="120" viewBox="0 0 240 120" overflow="visible" enable-background="new 0 0 240 120" xml:space="preserve">

<g id="Layer_1">

<path id="template" fill="none" d="M239.5,109.5c0,5.5-4.5,10-10,10H9.5c-5.5,0-10-4.5-10-10V9.5c0-5.5,4.5-10,10-10h220
	c5.5,0,10,4.5,10,10V109.5z"/>
<linearGradient id="DECAL_AREA_1_" gradientUnits="userSpaceOnUse" x1="61.7998" y1="563" x2="61.7998" y2="515" gradientTransform="matrix(1 0 0 1 8 -493)">
	<stop  offset="0" style="stop-color:#333333"/>
	<stop  offset="1" style="stop-color:#000000"/>
</linearGradient>
<path id="DECAL_AREA_2_" fill="url(#DECAL_AREA_1_)" d="M117.8,64c0,3.3-2.7,6-6,6h-84c-3.3,0-6-2.7-6-6V28c0-3.3,2.7-6,6-6h84
	c3.3,0,6,2.7,6,6V64z"/>
<linearGradient id="Reflection_2_" gradientUnits="userSpaceOnUse" x1="61.7998" y1="538.75" x2="61.7998" y2="514.75" gradientTransform="matrix(1 0 0 1 8 -493)">
	<stop  offset="0" style="stop-color:#1A1A1A"/>
	<stop  offset="1" style="stop-color:#666666"/>
</linearGradient>
<path id="Reflection_1_" fill="url(#Reflection_2_)" d="M117.8,39.8c0,3.3-2.7,6-6,6h-84c-3.3,0-6-2.7-6-6v-12c0-3.3,2.7-6,6-6h84
	c3.3,0,6,2.7,6,6V39.8z"/>
<path id="DecalBorder" fill="none" stroke="#1A1A1A" stroke-width="2" d="M117.8,64c0,3.3-2.7,6-6,6h-84c-3.3,0-6-2.7-6-6V28
	c0-3.3,2.7-6,6-6h84c3.3,0,6,2.7,6,6V64z"/>
<g id="Apache">
	<path fill="#E4E41C" d="M35.4,34.6h4.1l5.3,20h-3.3l-1.2-4.9h-5.9L33,54.6h-3.3L35.4,34.6z M39.6,47.2l-2.3-9.9h-0.1l-2.4,9.9H39.6
		z"/>
	<path fill="#E4E41C" d="M45.9,39.6h2.9v1.8h0.1c0.6-1.3,1.7-2.2,3.4-2.2c3.4,0,4.8,2.9,4.8,8.1c0,6.3-2.6,7.7-4.6,7.7
		c-1.6,0-2.9-0.8-3.4-2.2H49v6.7h-3V39.6H45.9z M51.3,52.6c1.7,0,2.5-1.3,2.5-5.5c0-3.4-0.4-5.6-2.5-5.6c-2.1,0-2.5,2.1-2.5,5.3
		C48.8,50.5,49.2,52.6,51.3,52.6z"/>
	<path fill="#E4E41C" d="M69.3,51.5c0,0.6,0.3,1.1,0.8,1.1c0.2,0,0.4,0,0.5-0.1v2c-0.4,0.2-0.9,0.4-1.5,0.4c-1.3,0-2.5-0.5-2.5-2
		h-0.1c-0.8,1.5-2,2.2-3.8,2.2c-2.4,0-3.9-1.3-3.9-4.2c0-3.4,1.5-4.1,3.5-4.7l2.4-0.6c1.1-0.3,1.8-0.6,1.8-1.9
		c0-1.4-0.5-2.2-2.1-2.2c-2,0-2.3,1.4-2.3,2.9h-2.9c0-3.2,1.3-5,5.3-5c2.7,0,4.8,1,4.8,3.7V51.5z M66.4,46.7c-0.8,0.6-2.5,1-3.4,1.4
		s-1.2,1.3-1.2,2.4c0,1.3,0.6,2.3,1.9,2.3c1.8,0,2.7-1.4,2.7-3.6V46.7z"/>
	<path fill="#E4E41C" d="M82.5,49.1c-0.2,3.6-1.4,5.9-5.2,5.9c-4.4,0-5.6-3.2-5.6-7.9c0-4.7,1.2-7.9,5.6-7.9
		c4.5-0.1,5.2,3.5,5.2,5.4h-3c0-1.4-0.4-3.2-2.2-3.2c-2.2,0-2.6,2.4-2.6,5.7c0,3.3,0.4,5.7,2.6,5.7c1.7,0,2.3-1.4,2.3-3.6h2.9V49.1z
		"/>
	<path fill="#E4E41C" d="M84.6,34.6h3v6.6l0.1,0.1c0.8-1.3,2.2-2.1,3.7-2.1c2.3,0,3.8,1,3.8,4.1v11.4h-3V44.3c0-2-0.6-2.7-2.1-2.7
		c-1.2,0-2.4,1-2.4,2.9v10.1h-3v-20H84.6z"/>
	<path fill="#E4E41C" d="M100.7,47.5v0.9c0,2,0.3,4.6,2.5,4.6c2.2,0,2.4-2.5,2.4-3.4h2.9c0,3.3-2,5.4-5.3,5.4
		c-2.5,0-5.5-0.7-5.5-7.7c0-3.9,0.8-8.1,5.6-8.1c4.2,0,5.3,2.5,5.3,6.7v1.6H100.7z M105.5,45.4v-0.8c0-1.9-0.6-3.4-2.3-3.4
		c-1.9,0-2.5,1.9-2.5,3.9v0.3H105.5z"/>
</g>

<defs>
</defs>
<path id="Background_1_" fill="none" d="M240,110c0,5.523-4.478,10-10,10H10c-5.523,0-10-4.477-10-10V10C0,4.477,4.477,0,10,0h220
	c5.522,0,10,4.477,10,10V110z"/>
<path fill="#262626" d="M205.171,17.683c-3.556-1.348-7.268-1.992-10.944-1.992c-9.521,0.003-18.858,4.312-24.906,12.062
	c-4.366,5.599-6.553,12.443-6.553,19.285c0,6.309,1.861,12.635,5.628,17.993c5.965,8.476,15.769,13.313,25.833,13.315
	c0.007,0,0.014,0,0.021,0c3.151,0,6.33-0.479,9.423-1.474c12.815-4.132,21.693-16.305,21.749-29.755
	c0.001-0.032,0.002-0.065,0.002-0.099C225.411,34.095,217.256,22.273,205.171,17.683z"/>
<radialGradient id="SVGID_1_" cx="263.8125" cy="-683.3623" r="29.2022" fx="262.8073" fy="-711.6891" gradientTransform="matrix(0.7071 -0.7071 0.7071 0.7071 490.8244 716.7756)" gradientUnits="userSpaceOnUse">
	<stop  offset="0" style="stop-color:#85B6CD"/>
	<stop  offset="0.4586" style="stop-color:#2D9ACD"/>
	<stop  offset="1" style="stop-color:#044C80"/>
</radialGradient>
<path fill="url(#SVGID_1_)" d="M214.8,26.357c9.357,9.357,11.229,24.312,4.427,35.676c-6.851,11.443-21.006,16.863-33.746,12.933
	c-12.777-3.943-21.394-16.512-20.531-29.84c0.864-13.333,11.067-24.678,24.249-26.92C198.48,16.628,208.141,19.699,214.8,26.357"/>
<linearGradient id="SVGID_2_" gradientUnits="userSpaceOnUse" x1="157.8809" y1="19.3564" x2="230.7559" y2="88.7314">
	<stop  offset="0.1044" style="stop-color:#FFFFFF"/>
	<stop  offset="0.2039" style="stop-color:#F1FBFE"/>
	<stop  offset="0.3906" style="stop-color:#CDF0FB"/>
	<stop  offset="0.4231" style="stop-color:#C6EEFB"/>
	<stop  offset="0.6633" style="stop-color:#E9F9FD"/>
	<stop  offset="0.8407" style="stop-color:#FFFFFF"/>
</linearGradient>
<path fill="url(#SVGID_2_)" d="M182.921,41.723c-1.488-0.172-2.601-0.138-2.541,0.524c0.944,0.706,1.886,0.546,2.827,0.524
	C182.603,42.312,182.463,41.953,182.921,41.723z"/>
<linearGradient id="SVGID_3_" gradientUnits="userSpaceOnUse" x1="158.8838" y1="18.3037" x2="231.7588" y2="87.6787">
	<stop  offset="0.1044" style="stop-color:#FFFFFF"/>
	<stop  offset="0.2039" style="stop-color:#F1FBFE"/>
	<stop  offset="0.3906" style="stop-color:#CDF0FB"/>
	<stop  offset="0.4231" style="stop-color:#C6EEFB"/>
	<stop  offset="0.6633" style="stop-color:#E9F9FD"/>
	<stop  offset="0.8407" style="stop-color:#FFFFFF"/>
</linearGradient>
<path fill="url(#SVGID_3_)" d="M183.731,42.247c-0.402,0.612,0.008,0.802,0.315,1.046c0.211-0.387,0.587-0.735,1.126-1.046
	C184.906,42.099,183.91,42.171,183.731,42.247z"/>
<linearGradient id="SVGID_4_" gradientUnits="userSpaceOnUse" x1="159.0225" y1="18.1572" x2="231.8975" y2="87.5322">
	<stop  offset="0.1044" style="stop-color:#FFFFFF"/>
	<stop  offset="0.2039" style="stop-color:#F1FBFE"/>
	<stop  offset="0.3906" style="stop-color:#CDF0FB"/>
	<stop  offset="0.4231" style="stop-color:#C6EEFB"/>
	<stop  offset="0.6633" style="stop-color:#E9F9FD"/>
	<stop  offset="0.8407" style="stop-color:#FFFFFF"/>
</linearGradient>
<path fill="url(#SVGID_4_)" d="M186.3,43.293c0.749,0.655,0.425,1.674,0.321,2.617c0.392-0.459,1.195-0.097,1.076-1.569
	C187.181,43.181,186.731,43.093,186.3,43.293z"/>
<linearGradient id="SVGID_5_" gradientUnits="userSpaceOnUse" x1="177.1221" y1="-0.856" x2="249.9971" y2="68.519">
	<stop  offset="0.1044" style="stop-color:#FFFFFF"/>
	<stop  offset="0.2039" style="stop-color:#F1FBFE"/>
	<stop  offset="0.3906" style="stop-color:#CDF0FB"/>
	<stop  offset="0.4231" style="stop-color:#C6EEFB"/>
	<stop  offset="0.6633" style="stop-color:#E9F9FD"/>
	<stop  offset="0.8407" style="stop-color:#FFFFFF"/>
</linearGradient>
<path fill="url(#SVGID_5_)" d="M199.209,20.731c-0.29,0.349,0.491,0.436,1.449,0.785c0.197-0.199,0.319-0.399-0.003-0.785
	C200.28,20.583,199.798,20.583,199.209,20.731z"/>
<linearGradient id="SVGID_6_" gradientUnits="userSpaceOnUse" x1="178.665" y1="-2.4766" x2="251.54" y2="66.8984">
	<stop  offset="0.1044" style="stop-color:#FFFFFF"/>
	<stop  offset="0.2039" style="stop-color:#F1FBFE"/>
	<stop  offset="0.3906" style="stop-color:#CDF0FB"/>
	<stop  offset="0.4231" style="stop-color:#C6EEFB"/>
	<stop  offset="0.6633" style="stop-color:#E9F9FD"/>
	<stop  offset="0.8407" style="stop-color:#FFFFFF"/>
</linearGradient>
<path fill="url(#SVGID_6_)" d="M207.092,23.349c-0.983-0.197-1.996-0.44-2.255,0.524c0.663,0.124,1.245,0.552,1.692,1.568
	c0.185-0.174,0.694,0.136,0.563-0.523c-0.276-0.349-0.552-0.697-0.824-1.045c0.628,0.296,1.217,0.081,1.95,1.568
	c0.083-0.174,0.165-0.347,0.253-0.523C208.13,23.985,207.791,23.76,207.092,23.349z"/>
<linearGradient id="SVGID_7_" gradientUnits="userSpaceOnUse" x1="179.374" y1="-3.2217" x2="252.249" y2="66.1533">
	<stop  offset="0.1044" style="stop-color:#FFFFFF"/>
	<stop  offset="0.2039" style="stop-color:#F1FBFE"/>
	<stop  offset="0.3906" style="stop-color:#CDF0FB"/>
	<stop  offset="0.4231" style="stop-color:#C6EEFB"/>
	<stop  offset="0.6633" style="stop-color:#E9F9FD"/>
	<stop  offset="0.8407" style="stop-color:#FFFFFF"/>
</linearGradient>
<path fill="url(#SVGID_7_)" d="M211.274,31.2c0.68-0.201,2.304,0.696,1.443-1.296c-0.417-0.982-0.434-1.782,0-2.368
	c0.391-0.126,0.537-0.55,0.563-1.046c0.955,1.059,2.631,1.743,3.941,2.617c-2.305-3.052-6.273-5.929-8.443-7.329
	c1.788,1.444,1.538,2.161,0.564,2.617c-0.164,0.556-0.213,1.147,0.889,2.095c1.251,0.998,1.1,1.463,0,1.57
	c-1.507-0.316-1.734,0.069-0.889,1.047C210.148,29.655,210.632,30.501,211.274,31.2z"/>
<linearGradient id="SVGID_8_" gradientUnits="userSpaceOnUse" x1="172.6768" y1="3.814" x2="245.5518" y2="73.189">
	<stop  offset="0.1044" style="stop-color:#FFFFFF"/>
	<stop  offset="0.2039" style="stop-color:#F1FBFE"/>
	<stop  offset="0.3906" style="stop-color:#CDF0FB"/>
	<stop  offset="0.4231" style="stop-color:#C6EEFB"/>
	<stop  offset="0.6633" style="stop-color:#E9F9FD"/>
	<stop  offset="0.8407" style="stop-color:#FFFFFF"/>
</linearGradient>
<path fill="url(#SVGID_8_)" d="M218.741,33.297c-3.014-3.168-4.939-2.639-6.938-0.2c-0.078,0.635,0.069,1.246,0.564,1.822
	c-1.306,0.738-0.703,2.328-1.379,2.89c0.057,0.69,0.13,1.39-0.31,1.791c0.644,0.081,0.996,0.56,1.124,1.35c0,1.146,0,2.293,0,3.441
	c1.864,2.312,3.814,5.105,5.067,3.885c0.582-0.721,1.257-0.628,2.087-0.545c-0.539-0.849,0.587-0.908,1.737-1.117
	c0.888,0.578,1.594,1.629,1.243,4.802c0.368,4.013-1.61,8.027-3.69,12.041c0.916-1.349,1.853-2.853,2.702-4.506
	c3.787-8.583,3.171-18.582-1.434-26.63c-0.089-0.142-0.168-0.283-0.26-0.427C219.069,32.245,218.928,32.949,218.741,33.297z"/>
<linearGradient id="SVGID_9_" gradientUnits="userSpaceOnUse" x1="156.7842" y1="20.5073" x2="229.6592" y2="89.8823">
	<stop  offset="0.1044" style="stop-color:#FFFFFF"/>
	<stop  offset="0.2039" style="stop-color:#F1FBFE"/>
	<stop  offset="0.3906" style="stop-color:#CDF0FB"/>
	<stop  offset="0.4231" style="stop-color:#C6EEFB"/>
	<stop  offset="0.6633" style="stop-color:#E9F9FD"/>
	<stop  offset="0.8407" style="stop-color:#FFFFFF"/>
</linearGradient>
<path fill="url(#SVGID_9_)" d="M176.728,39.105l-1.125,0.667c1.237,0.459,2.465,1.011,3.624,2.294l0.571-0.867
	C179.129,40.245,178.131,39.528,176.728,39.105z"/>
<linearGradient id="SVGID_10_" gradientUnits="userSpaceOnUse" x1="159.9639" y1="17.1685" x2="232.8405" y2="86.545">
	<stop  offset="0.1044" style="stop-color:#FFFFFF"/>
	<stop  offset="0.2039" style="stop-color:#F1FBFE"/>
	<stop  offset="0.3906" style="stop-color:#CDF0FB"/>
	<stop  offset="0.4231" style="stop-color:#C6EEFB"/>
	<stop  offset="0.6633" style="stop-color:#E9F9FD"/>
	<stop  offset="0.8407" style="stop-color:#FFFFFF"/>
</linearGradient>
<path fill="url(#SVGID_10_)" d="M167.069,39.459c-0.128,1.193,0.272,2.142,1.69,2.616c0.806,1.018,1.679,1.779,2.813,1.572
	c0.657,1.577,1.011,3.296,3.145,4.188c1.317-0.68,1.705,0.311,1.358,2.617c-0.756,0.604-1.373,1.397-1.688,2.616
	c-0.948,1.501,1.095,3.665,2.814,5.76c1.242,2.113,4.673,3.521,4.504,6.282c-0.073,2.572,0.116,5.045,1.357,7.111
	c1.7,2.231,2.992,3.105,3.146,0.217c0.936-1.372,1.628-2.951,3.938-3.141c2.191,0.053,3.275-1.944,4.504-3.669
	c2.078-0.563,4.077-1.27,5.068-3.661c-0.881-1.104,0.033-2.355,1.687-3.664c2.17-1.724,1.346-2.699-0.562-3.399
	c-1.185-0.266-3.36-0.767-6.755-1.551c-1.747-0.12-1.502-1.936-2.25-2.9c-0.32-0.951-2.207-1.336-4.505-1.572
	c-1.616-2.413-3.341-2.513-5.065-2.617c-1.533-1.015-3.2-1.146-5.068,0c-0.111,0.58-0.512,0.966-1.456,0
	c-1.547,0.884-2.068,0.224-2.185-1.047c0.857-3.023-0.572-2.808-1.988-2.617c0.769-0.682,1.017-1.847,1.127-3.14
	c-5.467,3.967-3.523-0.824-3.377-3.665c1.794,0.088,4.182-3.14,6.753,0.524c-0.373,0.622-0.312,1.154,0.313,1.569
	c0.194-2.782,0.859-4.296,1.941-4.71c1.263-0.07,2.245-0.988,3.065-2.396c0.431-0.62,1.481-0.951,2.563-1.268
	c-0.136-0.851,0.386-1.227,1.688-1.047c0.976,0.405,1.947,0.783,2.813-0.523c-1.057-0.209-1.859-0.616-2.251-1.339
	c-0.807-1.351,0.442-0.791,1.688-0.231c0.655-0.485,1.376-0.754,2.251-0.522c-0.934,0.684-1.351,1.293,0.565,1.57
	c1.348,0.354,0.611-1.059-0.565-2.847c-1.116-1.239-2.135-2.045-2.813-1.341c-0.73-1.134-1.439-2.374-2.814,0
	c-1.75,1.817-2.941,2.504-2.815,0.524c-0.907-0.453-1.698-0.915,0-1.571c0.62-0.536,1.224-1.091,2.815-0.522
	c1.19-0.74,2.254-0.463,3.334,0.33c1.508-0.434,2.88-0.757,2.858-1.901c-0.861-0.995-2.219-0.446-3.378-0.522
	c1.257-0.311,2.204-0.793,4.505-0.524c0.9,0.032,1.208,0.622,0.563,2.094c1.34,2.324,2.338,1.736,3.566-0.154
	c0.667-0.249,1.71-0.343,2.376-0.589c-1.334-1.11-3.434-2.403-4.029-2.72c-1.705-0.016-3.422,0.113-5.126,0.403
	c-10.634,1.81-19.328,9.521-22.789,19.426C166.088,39.823,166.067,41.431,167.069,39.459z"/>
</g>

</svg>
