<?xml version="1.0" encoding="utf-8"?>
<!DOCTYPE svg PUBLIC "-//W3C//DTD SVG 1.0//EN" "http://www.w3.org/TR/2001/REC-SVG-20010904/DTD/svg10.dtd" [
<!ENTITY ns_svg "http://www.w3.org/2000/svg">
<!ENTITY ns_xlink "http://www.w3.org/1999/xlink">
]>
<svg xmlns="&ns_svg;" xmlns:xlink="&ns_xlink;" width="240" height="120" viewBox="0 0 240 120" overflow="visible" enable-background="new 0 0 240 120" xml:space="preserve">

<g id="Layer_1">

<path id="Background" fill="none" d="M239.75,110c0,5.52-4.48,10-10,10h-220c-5.52,0-10-4.48-10-10V10c0-5.52,4.48-10,10-10h220
	c5.52,0,10,4.48,10,10V110z"/>
<g id="Layer_2">
	<path fill="#262626" d="M154.45,21.02l-4.28-1.12c-0.22-0.06-0.44-0.08-0.67-0.06l-54.38,3.92c-1.08,0.08-1.91,0.97-1.92,2.05
		L93,71.94c0,0.75,0.4,1.45,1.07,1.82l2.1,1.15c0.3,0.17,0.66,0.26,1.01,0.26c0.04,0,0.09,0,0.13,0l56.57-3.96
		c1.08-0.07,1.92-0.97,1.92-2.05l0.18-40.73c0.02-0.1,0.02-0.21,0.02-0.32v-5.1C156,22.07,155.37,21.25,154.45,21.02z"/>
	
		<linearGradient id="XMLID_7_" gradientUnits="userSpaceOnUse" x1="88.2148" y1="519.8613" x2="88.2148" y2="565.2774" gradientTransform="matrix(1 0 0 1 8 -493)">
		<stop  offset="0" style="stop-color:#CDCCCB"/>
		<stop  offset="1" style="stop-color:#A6A5A5"/>
	</linearGradient>
	<polygon fill="url(#XMLID_7_)" points="97.16,73.11 95.07,71.95 95.27,25.82 97.36,26.97 	"/>
	
		<linearGradient id="XMLID_8_" gradientUnits="userSpaceOnUse" x1="87.2461" y1="522.1201" x2="89.3628" y2="522.1201" gradientTransform="matrix(1 0 0 1 8 -493)">
		<stop  offset="0" style="stop-color:#78A9C8"/>
		<stop  offset="1" style="stop-color:#84B5D4"/>
	</linearGradient>
	<polygon fill="url(#XMLID_8_)" points="97.32,32.42 95.25,31.27 95.27,25.82 97.36,26.97 	"/>
	<polygon fill="#84B5D4" points="97.36,26.97 95.27,25.82 149.65,21.9 153.93,23.01 	"/>
	
		<linearGradient id="XMLID_9_" gradientUnits="userSpaceOnUse" x1="117.5444" y1="521.5459" x2="117.5444" y2="564.1777" gradientTransform="matrix(1 0 0 1 8 -493)">
		<stop  offset="0" style="stop-color:#FFFFFF"/>
		<stop  offset="1" style="stop-color:#E5E5E5"/>
	</linearGradient>
	<polygon fill="url(#XMLID_9_)" points="153.93,23.01 153.73,69.15 97.16,73.11 97.36,26.97 	"/>
	
		<linearGradient id="XMLID_10_" gradientUnits="userSpaceOnUse" x1="89.2695" y1="520.71" x2="145.9297" y2="520.71" gradientTransform="matrix(1 0 0 1 8 -493)">
		<stop  offset="0" style="stop-color:#78A9C8"/>
		<stop  offset="1" style="stop-color:#5C91B4"/>
	</linearGradient>
	<polygon fill="url(#XMLID_10_)" points="153.93,23.01 153.93,28.11 97.27,32.41 97.29,26.94 	"/>
	
		<linearGradient id="XMLID_11_" gradientUnits="userSpaceOnUse" x1="143.5557" y1="520.1318" x2="143.5557" y2="517.2101" gradientTransform="matrix(1 0 0 1 8 -493)">
		<stop  offset="0" style="stop-color:#BABABA"/>
		<stop  offset="1" style="stop-color:#E5E5E5"/>
	</linearGradient>
	<polygon fill="url(#XMLID_11_)" points="152.89,24.21 152.89,27.07 150.22,27.26 150.22,24.41 	"/>
	
		<linearGradient id="XMLID_12_" gradientUnits="userSpaceOnUse" x1="139.7549" y1="520.4414" x2="139.7549" y2="517.5202" gradientTransform="matrix(1 0 0 1 8 -493)">
		<stop  offset="0" style="stop-color:#BABABA"/>
		<stop  offset="1" style="stop-color:#E5E5E5"/>
	</linearGradient>
	<polygon fill="url(#XMLID_12_)" points="149.09,24.52 149.09,27.38 146.42,27.57 146.43,24.72 	"/>
	<g>
		<g>
			<path fill="#0074BC" d="M121.31,59.46c-0.06,0.04-1.18,0.83,0.85,0.94c0.98,0.05,1.77,0.06,2.54,0.01
				c1.15-0.08,2.25-0.31,3.87-0.75c0.04,0.02,0.72,0.43,1.71,0.78c-1.81,0.97-3.78,1.44-5.5,1.56
				C120.75,62.28,117.98,60.71,121.31,59.46z"/>
		</g>
		<g enable-background="new    ">
			<g>
				<path fill="#0074BC" d="M134.2,50.73c3.03-0.21,4.56,4.34-2.34,6.8l0.12-0.18c5.44-3.46,3.39-6.29,1.56-6.16
					c-0.12,0.01-0.23,0.03-0.35,0.06c-0.46,0.14-0.65,0.24-0.66,0.24c0.01-0.01,0.17-0.3,0.49-0.45
					C133.43,50.85,133.82,50.75,134.2,50.73z"/>
			</g>
			<g>
				<path fill="#EB2D2E" d="M132.25,39.54c-6.73,4.73-5.47,5.87-3.84,8.24c1.76,2.54-1.83,4.82-2.02,4.94
					c0.09-0.09,1.88-1.82,0.37-3.58C121.66,43.16,131.72,39.72,132.25,39.54z"/>
			</g>
			<g>
				<path fill="#0074BC" d="M121.63,51.92c0.14-0.01,0.21-0.01,0.21-0.01c-0.28,0.09-5.63,1.85-1.98,2.13
					c0.66,0.05,1.59,0.03,2.66-0.05c1.44-0.1,3.15-0.3,4.78-0.56c2.33-0.38,4.55-0.96,4.66-0.99c-0.04,0.02-0.82,0.44-1.41,0.92
					c-2.22,0.79-5.23,1.28-7.92,1.46c-4.23,0.3-7.62-0.15-5.68-1.31C119.15,52.2,121.01,51.97,121.63,51.92z"/>
			</g>
		</g>
		<g>
			<path fill="#0074BC" d="M120.55,55.83c-0.07,0.06-1.32,1.16,0.7,1.24c1.05,0.04,2.01,0.05,3.01-0.02
				c1.51-0.11,3.12-0.39,5.27-0.99c0.02,0.03,0.5,0.51,1.28,0.76c-2.28,0.88-4.64,1.34-6.65,1.48
				C119.7,58.61,116.94,57.38,120.55,55.83z"/>
		</g>
		<g>
			<path fill="#0074BC" d="M136.82,62.82c-0.15,2.38-6,3.61-11.18,3.97c-1.1,0.08-2.17,0.12-3.15,0.12c-3.67,0-4.36-0.56-4.39-0.59
				c1.68,0.18,3.92,0.21,6.31,0.04c2.58-0.18,5.35-0.58,7.81-1.26C136.45,63.93,136.81,62.87,136.82,62.82z"/>
		</g>
		<g>
			<path fill="#0074BC" d="M118.12,62.12c0.35-0.02,0.63,0.01,0.8,0.14c0,0-0.02,0-0.07,0c-0.14,0.01-0.48,0.05-0.99,0.21
				c-0.65,0.2-2.72,1.06-1.61,1.51c1.43,0.57,4.56,0.64,7.87,0.41c3.83-0.27,7.9-0.94,9.77-1.69c1.84-0.74,1-1.42,0.96-1.46
				c2.44,1.02-2.81,3.48-10.88,4.05c-2.58,0.18-5.44,0.17-8.44-0.15C111.64,64.73,116.02,62.27,118.12,62.12z"/>
		</g>
		<g>
			<path fill="#EB2D2E" d="M128.33,32.94c0.16,0.16,3.24,3.27-3,9.08c-5,4.67-1.11,6.86,0.05,9.59c-2.95-2.67-5.12-5.06-3.69-7.51
				C123.8,40.49,129.67,38.4,128.33,32.94z"/>
		</g>
	</g>
</g>
</g>

</svg>
