<?xml version="1.0" encoding="utf-8"?>
<!DOCTYPE svg PUBLIC "-//W3C//DTD SVG 1.0//EN" "http://www.w3.org/TR/2001/REC-SVG-20010904/DTD/svg10.dtd" [
<!ENTITY ns_svg "http://www.w3.org/2000/svg">
<!ENTITY ns_xlink "http://www.w3.org/1999/xlink">
]>
<svg xmlns="&ns_svg;" xmlns:xlink="&ns_xlink;" width="240" height="120" viewBox="0 0 240 120" overflow="visible" enable-background="new 0 0 240 120" xml:space="preserve">

<g id="Layer_1">

<path id="template" fill="none" d="M239.5,109.5c0,5.5-4.5,10-10,10H9.5c-5.5,0-10-4.5-10-10V9.5c0-5.5,4.5-10,10-10h220
	c5.5,0,10,4.5,10,10V109.5z"/>
<linearGradient id="DECAL_AREA_1_" gradientUnits="userSpaceOnUse" x1="57.7998" y1="-450" x2="57.7998" y2="-402" gradientTransform="matrix(1 0 0 -1 12 -380)">
	<stop  offset="0" style="stop-color:#333333"/>
	<stop  offset="1" style="stop-color:#000000"/>
</linearGradient>
<path id="DECAL_AREA_2_" fill="url(#DECAL_AREA_1_)" d="M117.8,64c0,3.3-2.7,6-6,6h-84c-3.3,0-6-2.7-6-6V28c0-3.3,2.7-6,6-6h84
	c3.3,0,6,2.7,6,6V64z"/>
<linearGradient id="Reflection_2_" gradientUnits="userSpaceOnUse" x1="57.7998" y1="-425.75" x2="57.7998" y2="-401.75" gradientTransform="matrix(1 0 0 -1 12 -380)">
	<stop  offset="0" style="stop-color:#1A1A1A"/>
	<stop  offset="1" style="stop-color:#666666"/>
</linearGradient>
<path id="Reflection_1_" fill="url(#Reflection_2_)" d="M117.8,39.8c0,3.3-2.7,6-6,6h-84c-3.3,0-6-2.7-6-6v-12c0-3.3,2.7-6,6-6h84
	c3.3,0,6,2.7,6,6V39.8z"/>
<path id="DecalBorder" fill="none" stroke="#1A1A1A" stroke-width="2" d="M117.8,64c0,3.3-2.7,6-6,6h-84c-3.3,0-6-2.7-6-6V28
	c0-3.3,2.7-6,6-6h84c3.3,0,6,2.7,6,6V64z"/>
<g id="Linux">
	<path fill="#E4E41C" d="M41.3,34.6h3.2v17.3h7.7v2.7H41.3V34.6z"/>
	<path fill="#E4E41C" d="M54,34.4h3v3h-3V34.4z M54,39.6h3v15.1h-3V39.6z"/>
	<path fill="#E4E41C" d="M60.1,39.6H63v1.8l0,0c0.8-1.3,2.2-2.2,3.9-2.2c2.3,0,3.8,1,3.8,4.1v11.4h-3V44.3c0-2-0.6-2.7-2.1-2.7
		c-1.2,0-2.4,1-2.4,2.9v10.1h-3v-15H60.1z"/>
	<path fill="#E4E41C" d="M81.2,52.9L81.2,52.9C80.4,54.2,79,55,77.3,55c-2.2,0-3.8-1-3.8-4.9V39.6h3v10.8c0,1.7,0.8,2.2,2,2.2
		s2.5-0.8,2.5-2.5V39.6h3v15.1h-2.9v-1.8H81.2z"/>
	<path fill="#E4E41C" d="M89.7,46.8l-3.9-7.3h3.3l2.4,5l2.5-5h3.2l-3.9,7.3l4.1,7.8h-3.3L91.5,49l-2.6,5.6h-3.2L89.7,46.8z"/>
</g>




<g id="_x3C_ICON_HERE_x3E_">
	<g>
		<g>
			<polygon fill="#404040" points="215.8,71.6 215.8,20.5 194,15.8 173.4,16.9 173.4,66.7 194.7,73.4 			"/>
			<path fill="#404040" d="M171.3,68.3l0-53.3l22.9-1.3l23.8,5.1l0,52.8v2l-23.4,2L171.3,68.3L171.3,68.3z M175.5,19l0,46.2
				l19.4,6.1l18.7-1.6l0-47.4l-19.9-4.3L175.5,19L175.5,19z"/>
		</g>
		<linearGradient id="SVGID_1_" gradientUnits="userSpaceOnUse" x1="173.1885" y1="46.9336" x2="215.6543" y2="46.9336">
			<stop  offset="0" style="stop-color:#ABABAB"/>
			<stop  offset="4.673657e-002" style="stop-color:#B8B8B8"/>
			<stop  offset="0.1204" style="stop-color:#C7C7C7"/>
			<stop  offset="0.1813" style="stop-color:#CCCCCC"/>
			<stop  offset="0.2413" style="stop-color:#C6C6C6"/>
			<stop  offset="0.3232" style="stop-color:#B4B4B4"/>
			<stop  offset="0.4173" style="stop-color:#989898"/>
			<stop  offset="0.489" style="stop-color:#7D7D7D"/>
			<stop  offset="0.5312" style="stop-color:#8B8B8B"/>
			<stop  offset="0.6093" style="stop-color:#9F9F9F"/>
			<stop  offset="0.6989" style="stop-color:#ADADAD"/>
			<stop  offset="0.8091" style="stop-color:#B5B5B5"/>
			<stop  offset="1" style="stop-color:#B8B8B8"/>
		</linearGradient>
		<polygon fill="url(#SVGID_1_)" points="215.9,20.6 215.9,71.5 194.7,73.3 194.7,21.9 		"/>
		<linearGradient id="SVGID_2_" gradientUnits="userSpaceOnUse" x1="173.3604" y1="45.1631" x2="215.8244" y2="45.1631">
			<stop  offset="0" style="stop-color:#ABABAB"/>
			<stop  offset="4.673657e-002" style="stop-color:#B8B8B8"/>
			<stop  offset="0.1204" style="stop-color:#C7C7C7"/>
			<stop  offset="0.1813" style="stop-color:#CCCCCC"/>
			<stop  offset="0.2413" style="stop-color:#C6C6C6"/>
			<stop  offset="0.3232" style="stop-color:#B4B4B4"/>
			<stop  offset="0.4173" style="stop-color:#989898"/>
			<stop  offset="0.489" style="stop-color:#7D7D7D"/>
			<stop  offset="0.5312" style="stop-color:#8B8B8B"/>
			<stop  offset="0.6093" style="stop-color:#9F9F9F"/>
			<stop  offset="0.6989" style="stop-color:#ADADAD"/>
			<stop  offset="0.8091" style="stop-color:#B5B5B5"/>
			<stop  offset="1" style="stop-color:#B8B8B8"/>
		</linearGradient>
		<polygon fill="url(#SVGID_2_)" points="194.9,73.3 173.5,66.6 173.5,17 194.9,21.8 		"/>
		<linearGradient id="SVGID_3_" gradientUnits="userSpaceOnUse" x1="203.4297" y1="22.7134" x2="174.9546" y2="10.0578">
			<stop  offset="0" style="stop-color:#FFFFFF"/>
			<stop  offset="1" style="stop-color:#A6A6A6"/>
		</linearGradient>
		<polygon fill="url(#SVGID_3_)" points="194.9,21.8 173.5,17.1 194,15.9 215.9,20.6 		"/>
		<path fill="#FFFFFF" d="M173.4,17.3l0-0.4l20.6-1.1l21.9,4.7v0.4l-21,1.2h0 M194.9,21.8l0-0.2L194.9,21.8L194.9,21.8z M175,17.2
			l19.9,4.4l19.5-1.1L194,16.1L175,17.2L175,17.2z"/>
		<linearGradient id="SVGID_4_" gradientUnits="userSpaceOnUse" x1="183.1406" y1="35.9351" x2="213.587" y2="35.9351">
			<stop  offset="0" style="stop-color:#A6A6A6"/>
			<stop  offset="1" style="stop-color:#212121"/>
		</linearGradient>
		<polygon fill="url(#SVGID_4_)" points="213.8,24.2 213.7,46.4 198.6,47.7 198.6,25.1 		"/>
		<path fill="#E8E8E8" d="M198.6,47.7c0,0,11.8,2.3,15.1-1.3"/>
		<linearGradient id="SVGID_5_" gradientUnits="userSpaceOnUse" x1="184.5586" y1="33.4385" x2="213.052" y2="33.4385">
			<stop  offset="0" style="stop-color:#A6A6A6"/>
			<stop  offset="0.1624" style="stop-color:#878787"/>
			<stop  offset="0.4266" style="stop-color:#5B5B5B"/>
			<stop  offset="0.6638" style="stop-color:#3C3C3C"/>
			<stop  offset="0.863" style="stop-color:#282828"/>
			<stop  offset="1" style="stop-color:#212121"/>
		</linearGradient>
		<polygon fill="url(#SVGID_5_)" points="213.2,30.6 213.2,35.3 199,36.3 199,31.6 		"/>
		<path fill="#3D3D3D" d="M198.8,31.4l14.4-1l0.2,0l0,5.1l-14.6,1L198.8,31.4L198.8,31.4z M199.2,31.8l0,4.2l13.8-0.9l0-4.2
			L199.2,31.8L199.2,31.8z"/>
		<path fill="#E8E8E8" d="M213.5,51.8c0,0.5-0.4,0.9-0.9,0.9c-0.5,0-0.9-0.3-0.9-0.8c0-0.5,0.4-0.9,0.9-0.9
			C213.1,51,213.5,51.3,213.5,51.8z"/>
		<linearGradient id="SVGID_6_" gradientUnits="userSpaceOnUse" x1="184.6367" y1="28.1436" x2="213.1282" y2="28.1436">
			<stop  offset="0" style="stop-color:#A6A6A6"/>
			<stop  offset="0.1624" style="stop-color:#878787"/>
			<stop  offset="0.4266" style="stop-color:#5B5B5B"/>
			<stop  offset="0.6638" style="stop-color:#3C3C3C"/>
			<stop  offset="0.863" style="stop-color:#282828"/>
			<stop  offset="1" style="stop-color:#212121"/>
		</linearGradient>
		<polygon fill="url(#SVGID_6_)" points="213.3,25.4 213.3,29.8 199.1,30.9 199.1,26.3 		"/>
		<path fill="#3D3D3D" d="M199.6,26.8l13.1-0.9l0.1,0l0,2.1L199.6,29L199.6,26.8L199.6,26.8z M199.8,26.9l0,1.5l12.9-0.9l0-1.4
			L199.8,26.9L199.8,26.9z"/>
		<g>
			<path fill="#3D3D3D" d="M198.9,26.1l14.4-0.9l0.2,0l0,4.8l-14.6,1.1L198.9,26.1L198.9,26.1z M199.3,26.5l0,4.2l13.8-1l0-4
				L199.3,26.5L199.3,26.5z"/>
			<linearGradient id="SVGID_7_" gradientUnits="userSpaceOnUse" x1="186.4219" y1="27.2617" x2="212.643" y2="27.2617">
				<stop  offset="0" style="stop-color:#757575"/>
				<stop  offset="0.2806" style="stop-color:#515151"/>
				<stop  offset="0.5772" style="stop-color:#313131"/>
				<stop  offset="0.8277" style="stop-color:#1E1E1E"/>
				<stop  offset="1" style="stop-color:#171717"/>
			</linearGradient>
			<polygon fill="url(#SVGID_7_)" points="212.8,26 212.8,27.6 199.7,28.5 199.7,26.9 			"/>
			<polygon fill="#E3E3E3" points="198.9,25.6 213.4,24.8 213.5,25.7 198.9,26.6 198.9,25.6 			"/>
		</g>
		<path fill="#565656" d="M189.6,69.5l-12.7-4c-0.9-0.3-1.7-1.3-1.7-2.3l0,0l0-40.8l0,0c0-0.9,0.6-1.5,1.4-1.5l0,0
			c0.1,0,0.2,0,0.4,0l0,0l12.7,2.8c1,0.2,1.7,1.2,1.8,2.2l0,0l0,0v0v0l0,0l0,0l0,0l0,42.2c0,0.8-0.6,1.4-1.3,1.4l0,0
			C189.9,69.6,189.7,69.6,189.6,69.5L189.6,69.5z M175.4,22.6l0,40.8c0,0.9,0.7,1.9,1.6,2.1l0,0l12.7,4c0.2,0,0.3,0.1,0.4,0.1l0,0
			c0.6,0,1.1-0.4,1.1-1.2v-0.2l0-42c0,0,0-0.2,0-0.2l0,0l0,0c0-0.9-0.7-1.6-1.6-1.8l0,0l-12.7-2.8c-0.1,0-0.2,0-0.3,0l0,0
			c-0.7,0-1.2,0.3-1.2,1l0,0l0,0V22.6z"/>
		<path fill="#FFFFFF" d="M213,51.8c0,0.2-0.2,0.4-0.4,0.4c-0.2,0-0.4-0.1-0.4-0.3c0-0.2,0.2-0.4,0.4-0.4
			C212.8,51.4,213,51.6,213,51.8z"/>
		<linearGradient id="SVGID_8_" gradientUnits="userSpaceOnUse" x1="184.5752" y1="41.1992" x2="213.0706" y2="41.1992">
			<stop  offset="0" style="stop-color:#A6A6A6"/>
			<stop  offset="0.1624" style="stop-color:#878787"/>
			<stop  offset="0.4266" style="stop-color:#5B5B5B"/>
			<stop  offset="0.6638" style="stop-color:#3C3C3C"/>
			<stop  offset="0.863" style="stop-color:#282828"/>
			<stop  offset="1" style="stop-color:#212121"/>
		</linearGradient>
		<polygon fill="url(#SVGID_8_)" points="213.2,36.2 213.2,45.2 199,46.2 199,37.2 		"/>
		<path fill="#3D3D3D" d="M198.8,36.4l14.4-1l0.2,0l0,10.1l-14.6,1.3l0-5.3V36.4z M199.2,37.3l0,8.9L213,45l0-8.7L199.2,37.3
			L199.2,37.3z"/>
		<linearGradient id="SVGID_9_" gradientUnits="userSpaceOnUse" x1="201.4717" y1="56.2173" x2="208.0646" y2="36.8847">
			<stop  offset="0" style="stop-color:#A6A6A6"/>
			<stop  offset="0.1514" style="stop-color:#8A8A8A"/>
			<stop  offset="0.4191" style="stop-color:#5E5E5E"/>
			<stop  offset="0.6594" style="stop-color:#3E3E3E"/>
			<stop  offset="0.8612" style="stop-color:#2B2B2B"/>
			<stop  offset="1" style="stop-color:#242424"/>
		</linearGradient>
		<polygon fill="url(#SVGID_9_)" points="212.9,30.9 213,35 204.2,35.7 209.2,31.1 		"/>
		<linearGradient id="SVGID_10_" gradientUnits="userSpaceOnUse" x1="201.5508" y1="56.2305" x2="208.1461" y2="36.891">
			<stop  offset="0" style="stop-color:#A6A6A6"/>
			<stop  offset="0.1514" style="stop-color:#8A8A8A"/>
			<stop  offset="0.4191" style="stop-color:#5E5E5E"/>
			<stop  offset="0.6594" style="stop-color:#3E3E3E"/>
			<stop  offset="0.8612" style="stop-color:#2B2B2B"/>
			<stop  offset="1" style="stop-color:#242424"/>
		</linearGradient>
		<polygon fill="url(#SVGID_10_)" points="213,36.4 213,45 199.2,46.3 199.2,40.8 203,37.1 		"/>
		<polygon fill="#D1D2D2" points="198.8,31.1 213.4,30.2 213.3,31 198.8,32 198.8,31.1 		"/>
	</g>
</g>
</g>

</svg>
