<?xml version="1.0" encoding="utf-8"?>
<!DOCTYPE svg PUBLIC "-//W3C//DTD SVG 1.0//EN" "http://www.w3.org/TR/2001/REC-SVG-20010904/DTD/svg10.dtd" [
<!ENTITY ns_svg "http://www.w3.org/2000/svg">
<!ENTITY ns_xlink "http://www.w3.org/1999/xlink">
]>
<svg xmlns="&ns_svg;" xmlns:xlink="&ns_xlink;" width="240" height="120" viewBox="0 0 240 120" overflow="visible" enable-background="new 0 0 240 120" xml:space="preserve">

<g id="Layer_1">

<path id="Background" fill="none" d="M239.75,110c0,5.52-4.48,10-10,10h-220c-5.52,0-10-4.48-10-10V10c0-5.52,4.48-10,10-10h220
	c5.52,0,10,4.48,10,10V110z"/>
<g>
	<path fill="#262626" d="M148.68,49.24c-1.01-2.78-3.19-4.62-5.19-5.96c-1.42-2.49-3.32-4.69-5.58-6.46
		c-3.45-2.71-7.57-4.43-11.8-5.26c0.01-0.04,0.02-0.08,0.02-0.14c0.02-0.17,0.02-0.27,0.02-0.38c0-0.64-0.21-1.25-0.58-1.74
		c-0.85-1.06-1.79-1.27-2.34-1.45c-1.15-0.33-2.31-0.45-3.42-0.45c-0.13,0-0.26,0-0.4,0.01c-1.16,0.04-2.72,0.07-4.29,0.92
		c-0.84,0.47-1.77,1.41-1.8,2.91c0,0.06,0,0.18,0.02,0.33c-3.77,0.75-7.43,2.2-10.64,4.46c-2.17,1.53-4.11,3.43-5.63,5.65
		c-0.35,0.52-0.69,1.05-0.99,1.6c-0.1,0.07-0.37,0.23-0.8,0.54c-1.25,0.95-2.42,2.1-3.35,3.49c-0.38,0.56-0.75,1.2-1.04,1.92
		c-0.42,0.55-0.8,1.17-1.08,1.86c-0.35,0.85-0.52,1.74-0.52,2.63c0,1.01,0.21,2.01,0.64,2.94c1.51,3.22,4.56,4.88,7.01,6.02
		c5.65,2.57,12.02,3.35,17.83,3.72c1.83,0.11,3.69,0.17,5.57,0.17c6.55,0,13.28-0.77,19.54-2.91c2.58-0.89,5.48-2.04,7.8-4.26
		c1.59-1.53,2.49-3.56,2.49-5.67C150.19,52.18,149.67,50.6,148.68,49.24z M146.9,50.2L146.9,50.2L146.9,50.2L146.9,50.2z"/>
	<radialGradient id="SVGID_1_" cx="104.3315" cy="61.3232" r="34.4995" fx="108.4565" fy="46.1984" gradientUnits="userSpaceOnUse">
		<stop  offset="0.1813" style="stop-color:#FFFFFF"/>
		<stop  offset="0.209" style="stop-color:#FBFBFB"/>
		<stop  offset="0.2366" style="stop-color:#EFEFEF"/>
		<stop  offset="0.2641" style="stop-color:#DBDBDB"/>
		<stop  offset="0.2917" style="stop-color:#BFBFBF"/>
		<stop  offset="0.3192" style="stop-color:#9B9B9B"/>
		<stop  offset="0.3464" style="stop-color:#6F6F6F"/>
		<stop  offset="0.3516" style="stop-color:#666666"/>
		<stop  offset="1" style="stop-color:#3D3D3D"/>
	</radialGradient>
	<path fill="url(#SVGID_1_)" d="M148.21,53.77c0-4.85-6.1-7.19-9.91-8.38c-5.15-1.6-10.61-2.24-15.98-2.4
		c-4.84-0.15-9.7,0.1-14.49,0.88c-4.8,0.78-10.34,2.01-14.11,5.28c-1.42,1.23-2.57,2.95-2.4,4.91c0.1,1.8,1.2,3.28,2.53,4.4
		c3.92,3.3,9.58,4.44,14.51,5.23c5.72,0.92,11.6,1.06,17.37,0.63c4.8-0.36,9.66-1.13,14.2-2.79
		C143.18,60.37,148.37,57.96,148.21,53.77"/>
	<radialGradient id="SVGID_2_" cx="106.8315" cy="48.9482" r="29.7498" fx="107.5815" fy="47.1983" gradientUnits="userSpaceOnUse">
		<stop  offset="0.1978" style="stop-color:#BFCDE6"/>
		<stop  offset="0.2363" style="stop-color:#BAC8E2"/>
		<stop  offset="0.2829" style="stop-color:#ABBBD7"/>
		<stop  offset="0.3336" style="stop-color:#93A5C4"/>
		<stop  offset="0.3736" style="stop-color:#7A8FB1"/>
		<stop  offset="1" style="stop-color:#3B537A"/>
	</radialGradient>
	<path fill="url(#SVGID_2_)" d="M147.02,52.95c1.09-5.08-5.23-8.82-9.17-10.35c-4.52-1.79-9.46-2.53-14.29-2.81
		c-5.57-0.33-11.24,0.01-16.7,1.24c-4.66,1.05-9.76,2.91-12.8,6.79c-6.91,8.82,9.41,12.38,15.21,13.18
		c4.87,0.67,9.82,0.87,14.73,0.59c5.54-0.31,11.19-1.05,16.4-3.05C142.98,57.55,146.31,55.89,147.02,52.95"/>
	<radialGradient id="SVGID_3_" cx="111.0815" cy="30.9492" r="37.2568" gradientUnits="userSpaceOnUse">
		<stop  offset="0" style="stop-color:#F0F0F0"/>
		<stop  offset="0.2912" style="stop-color:#EBEBEB"/>
		<stop  offset="0.7033" style="stop-color:#A6A6A6"/>
		<stop  offset="1" style="stop-color:#4D4D4D"/>
	</radialGradient>
	<path fill="url(#SVGID_3_)" d="M142.93,47.6c-0.09-1.78-1.27-3.58-2.26-5.01c-1.36-1.97-3.12-3.65-5.09-5
		c-4.05-2.79-8.96-4.29-13.84-4.57c-9.28-0.63-19.52,3.06-24.1,11.6c-1.01,1.88-1.62,3.92-0.01,5.7c1.51,1.66,3.8,2.56,5.88,3.24
		c4.76,1.58,9.88,2.06,14.87,2.18c5.04,0.11,10.15-0.29,15.06-1.47c2.31-0.56,4.67-1.29,6.7-2.56
		C141.61,50.8,143.05,49.47,142.93,47.6 M118.66,55.75c0.42,0.01,0.84,0.01,1.25,0.01C119.5,55.76,119.08,55.75,118.66,55.75"/>
	<path fill="#EDEDED" d="M101.14,51.96c-1.61-1.78-1-3.82,0.01-5.7c4.58-8.54,14.82-12.23,24.1-11.6c2.9,0.17,5.81,0.78,8.54,1.82
		c-3.66-2.07-7.86-3.21-12.04-3.46c-9.28-0.63-19.52,3.06-24.1,11.6c-1.01,1.88-1.62,3.92-0.01,5.7c1.33,1.46,3.27,2.33,5.13,2.99
		C102.17,52.92,101.62,52.48,101.14,51.96z"/>
	<linearGradient id="SVGID_4_" gradientUnits="userSpaceOnUse" x1="100.5571" y1="51.519" x2="142.8067" y2="51.519">
		<stop  offset="0" style="stop-color:#EDEDED"/>
		<stop  offset="1" style="stop-color:#808080"/>
	</linearGradient>
	<path fill="url(#SVGID_4_)" d="M140.15,50.65c-2.03,1.27-4.39,2.01-6.7,2.56c-4.91,1.18-10.02,1.57-15.06,1.47
		c-4.98-0.12-10.11-0.6-14.87-2.18c-2.08-0.68-4.37-1.58-5.88-3.24c-0.57-0.63-0.85-1.29-0.94-1.96c-0.13,1.04,0.08,2.07,0.94,3.03
		c1.51,1.66,3.8,2.56,5.88,3.24c4.76,1.58,9.88,2.06,14.87,2.18c5.04,0.11,10.15-0.29,15.06-1.47c2.31-0.56,4.67-1.29,6.7-2.56
		c1.46-0.91,2.9-2.25,2.78-4.11c0-0.11-0.03-0.22-0.04-0.33C142.65,48.76,141.41,49.86,140.15,50.65z"/>
	<linearGradient id="SVGID_5_" gradientUnits="userSpaceOnUse" x1="121.1797" y1="33.7593" x2="118.3232" y2="33.7593">
		<stop  offset="0" style="stop-color:#262626"/>
		<stop  offset="0.1868" style="stop-color:#6B6B6B"/>
		<stop  offset="0.6099" style="stop-color:#CCCCCC"/>
		<stop  offset="0.8516" style="stop-color:#CCCCCC"/>
		<stop  offset="1" style="stop-color:#424242"/>
	</linearGradient>
	<path fill="url(#SVGID_5_)" d="M121.12,32.58c0-0.63-2.09-0.35-2.29-0.29c-0.75,0.22-0.56,2.08-0.14,2.57
		c0.51,0.62,1.57,0.63,2.11,0.06C121.29,34.41,121.19,33.23,121.12,32.58"/>
	<linearGradient id="SVGID_6_" gradientUnits="userSpaceOnUse" x1="115.3413" y1="31.5518" x2="124.1719" y2="31.5518">
		<stop  offset="0" style="stop-color:#262626"/>
		<stop  offset="0.1868" style="stop-color:#303030"/>
		<stop  offset="0.6099" style="stop-color:#CCCCCC"/>
		<stop  offset="0.8516" style="stop-color:#808080"/>
		<stop  offset="1" style="stop-color:#424242"/>
	</linearGradient>
	<path fill="url(#SVGID_6_)" d="M124.17,31.42c0-1.73-4.09-1.6-5.19-1.54c-0.72,0.04-4.36,0.37-3.52,1.82
		c-0.16-0.28,0.23,0.42,0.38,0.55c0.31,0.26,0.7,0.43,1.07,0.57c0.77,0.28,1.61,0.38,2.42,0.41c0.97,0.04,1.95-0.04,2.89-0.29
		c0.38-0.1,0.75-0.24,1.09-0.43c0.23-0.13,0.47-0.3,0.62-0.52c-0.01,0.02,0.35-0.69,0.14-0.3
		C124.14,31.61,124.17,31.52,124.17,31.42 M123.72,32.06c-0.06,0.04-0.15,0.08-0.22,0.12C123.57,32.14,123.65,32.11,123.72,32.06z
		 M123.29,32.28c-0.09,0.04-0.2,0.07-0.3,0.1C123.09,32.35,123.2,32.32,123.29,32.28z M115.53,31.82c0.04,0.05,0.1,0.09,0.16,0.13
		C115.63,31.91,115.57,31.86,115.53,31.82z M115.81,32.05c0.06,0.04,0.15,0.08,0.23,0.12C115.95,32.13,115.87,32.09,115.81,32.05z
		 M116.74,32.45c0.11,0.03,0.22,0.05,0.33,0.08C116.96,32.5,116.85,32.48,116.74,32.45 M116.21,32.27c0.09,0.04,0.19,0.07,0.29,0.1
		C116.41,32.33,116.3,32.3,116.21,32.27z M122.52,32.52c0.07-0.03,0.15-0.04,0.22-0.05C122.67,32.49,122.6,32.5,122.52,32.52
		 M123.86,31.95c0.05-0.04,0.11-0.08,0.15-0.12C123.97,31.87,123.91,31.91,123.86,31.95z"/>
	<radialGradient id="SVGID_7_" cx="117.8311" cy="29.8228" r="5.5363" gradientUnits="userSpaceOnUse">
		<stop  offset="0" style="stop-color:#FFFFFF"/>
		<stop  offset="0.2912" style="stop-color:#F3F4F5"/>
		<stop  offset="0.7033" style="stop-color:#DEDEDE"/>
		<stop  offset="1" style="stop-color:#C7C7C7"/>
	</radialGradient>
	<path fill="url(#SVGID_7_)" d="M124.16,31.17c0.2-1.61-3.65-1.77-4.55-1.75c-0.99,0.02-4.23,0.18-4.23,1.73
		c0.09,1.63,3.45,1.74,4.55,1.73C121.07,32.85,123.97,32.71,124.16,31.17"/>
</g>
</g>

</svg>
