<?xml version="1.0" encoding="utf-8"?>
<!DOCTYPE svg PUBLIC "-//W3C//DTD SVG 1.0//EN" "http://www.w3.org/TR/2001/REC-SVG-20010904/DTD/svg10.dtd" [
<!ENTITY ns_svg "http://www.w3.org/2000/svg">
<!ENTITY ns_xlink "http://www.w3.org/1999/xlink">
]>
<svg xmlns="&ns_svg;" xmlns:xlink="&ns_xlink;" width="240" height="120" viewBox="0 0 240 120" overflow="visible" enable-background="new 0 0 240 120" xml:space="preserve">

<g id="Layer_1">

<g>
	<polygon fill="#262626" points="140.69,71.57 140.71,20.47 118.84,15.8 98.29,16.94 98.29,66.7 119.63,73.39 	"/>
	<path fill="#262626" d="M96.15,68.27l0-53.35l22.86-1.27l23.84,5.1l-0.02,52.82v1.96l-23.44,2.03L96.15,68.27L96.15,68.27z
		 M100.43,18.96l0,46.16l19.43,6.09l18.69-1.62l0.02-47.4l-19.89-4.25L100.43,18.96L100.43,18.96z"/>
	<linearGradient id="SVGID_1_" gradientUnits="userSpaceOnUse" x1="96.5254" y1="46.9336" x2="141.7528" y2="46.9336">
		<stop  offset="0" style="stop-color:#8EAEBD"/>
		<stop  offset="0.269" style="stop-color:#B5C7DC"/>
		<stop  offset="1" style="stop-color:#518AB3"/>
	</linearGradient>
	<polygon fill="url(#SVGID_1_)" points="140.77,20.59 140.74,71.48 119.62,73.28 119.6,21.85 	"/>
	<linearGradient id="SVGID_2_" gradientUnits="userSpaceOnUse" x1="96.5249" y1="45.1631" x2="141.7534" y2="45.1631">
		<stop  offset="0" style="stop-color:#8EAEBD"/>
		<stop  offset="0.269" style="stop-color:#B5C7DC"/>
		<stop  offset="1" style="stop-color:#518AB3"/>
	</linearGradient>
	<polygon fill="url(#SVGID_2_)" points="119.76,73.29 98.34,66.61 98.33,17.04 119.82,21.8 	"/>
	<linearGradient id="SVGID_3_" gradientUnits="userSpaceOnUse" x1="98.5605" y1="17.1421" x2="140.2285" y2="20.627">
		<stop  offset="0" style="stop-color:#8EAEBD"/>
		<stop  offset="0.269" style="stop-color:#B5C7DC"/>
		<stop  offset="1" style="stop-color:#518AB3"/>
	</linearGradient>
	<polygon fill="url(#SVGID_3_)" points="119.79,21.83 98.37,17.07 118.88,15.93 140.76,20.58 	"/>
	<g>
		<path fill="#335E8F" d="M118.26,65.05v-49c0-0.28,0.22-0.5,0.5-0.5l0,0c0.28,0,0.5,0.22,0.5,0.5l0,0v49c0,0.27-0.23,0.5-0.5,0.5
			l0,0C118.48,65.55,118.26,65.33,118.26,65.05L118.26,65.05z"/>
	</g>
	<g>
		<linearGradient id="SVGID_4_" gradientUnits="userSpaceOnUse" x1="94.519" y1="29.6406" x2="123.4169" y2="35.8574">
			<stop  offset="0" style="stop-color:#8EAEBD"/>
			<stop  offset="1" style="stop-color:#335E8F"/>
		</linearGradient>
		<polygon fill="url(#SVGID_4_)" points="123.78,47.31 107.2,42.63 107.2,20.99 123.81,24.83 		"/>
		<path fill="#26466B" d="M123.71,47.55l-16.58-4.68c-0.11-0.03-0.18-0.13-0.18-0.24l0,0l0-21.64c0-0.08,0.04-0.15,0.09-0.2l0,0
			c0.06-0.05,0.14-0.06,0.21-0.05l0,0l16.61,3.84c0.11,0.02,0.19,0.13,0.19,0.24l0,0l-0.03,22.48c0,0.08-0.04,0.15-0.1,0.2l0,0
			c-0.04,0.03-0.1,0.05-0.15,0.05l0,0C123.76,47.56,123.73,47.56,123.71,47.55L123.71,47.55z M123.78,47.31l0.07-0.24L123.78,47.31
			L123.78,47.31z M107.45,42.44l16.08,4.54l0.03-21.95l-16.11-3.73L107.45,42.44L107.45,42.44z"/>
	</g>
	<g>
		<linearGradient id="SVGID_5_" gradientUnits="userSpaceOnUse" x1="96.1216" y1="20.9214" x2="127.6154" y2="22.9568">
			<stop  offset="0" style="stop-color:#8EAEBD"/>
			<stop  offset="1" style="stop-color:#335E8F"/>
		</linearGradient>
		<polygon fill="url(#SVGID_5_)" points="123.95,25.12 107.2,20.94 121.53,20.16 138.61,24.26 		"/>
		<path fill="#26466B" d="M123.89,25.36l-16.75-4.18c-0.12-0.03-0.2-0.14-0.19-0.27l0,0c0.01-0.12,0.11-0.22,0.23-0.23l0,0
			l14.34-0.78l0.07,0.01l17.08,4.1c0.12,0.03,0.2,0.14,0.19,0.26l0,0c-0.01,0.13-0.11,0.22-0.23,0.23l0,0l-14.66,0.85L123.89,25.36
			L123.89,25.36z M123.95,25.12l0.06-0.24L123.95,25.12L123.95,25.12z M108.87,21.1l15.1,3.77l12.93-0.76l-15.4-3.69L108.87,21.1
			L108.87,21.1z"/>
	</g>
	<path fill="#335E8F" stroke="#335E8F" stroke-width="0.5" d="M98.33,66.81l0-0.56l20.51-1.53l21.83,6.26v0.57l-20.92,1.66h-0.03
		 M119.74,72.91l0.04-0.28L119.74,72.91L119.74,72.91z M99.86,66.7l19.89,5.92l19.48-1.53l-20.42-5.8L99.86,66.7L99.86,66.7z"/>
	<path fill="#C7DBF2" d="M123.7,47.52c0,0,11.76,2.33,15.14-1.29"/>
	<linearGradient id="SVGID_6_" gradientUnits="userSpaceOnUse" x1="109.3584" y1="33.4092" x2="138.0124" y2="33.4092">
		<stop  offset="0" style="stop-color:#9BB5CF"/>
		<stop  offset="1" style="stop-color:#B1C8E0"/>
	</linearGradient>
	<polygon fill="url(#SVGID_6_)" points="138.15,30.48 138.17,35.33 123.9,36.34 123.88,31.54 	"/>
	<path fill="#B5C7DC" d="M123.67,31.33l14.46-1.07l0.22-0.02l0.03,5.29l-14.69,1.04L123.67,31.33L123.67,31.33z M124.1,31.74
		l0.02,4.36l13.84-0.98l-0.02-4.41L124.1,31.74L124.1,31.74z"/>
	<path fill="#335E8F" d="M138.36,51.79c0,0.48-0.39,0.91-0.88,0.95c-0.48,0.04-0.87-0.31-0.87-0.79c0-0.47,0.39-0.89,0.87-0.94
		C137.97,50.95,138.36,51.3,138.36,51.79z"/>
	<g>
		<path fill="#FFFFFF" d="M135.93,51.98c0.01-0.84,0.68-1.56,1.52-1.65l0,0c0.05,0,0.1-0.01,0.15-0.01l0,0
			c0.79,0,1.42,0.62,1.42,1.42l0,0c-0.01,0.85-0.67,1.58-1.53,1.65l0,0c-0.04,0-0.09,0.01-0.13,0.01l0,0
			C136.57,53.41,135.94,52.78,135.93,51.98L135.93,51.98z M137.5,50.83c-0.59,0.05-1.07,0.59-1.07,1.15l0,0
			c0,0.54,0.4,0.92,0.93,0.93l0,0c0.03,0,0.06,0,0.09,0l0,0c0.59-0.04,1.07-0.57,1.07-1.16l0,0c-0.01-0.54-0.39-0.92-0.92-0.93l0,0
			C137.57,50.82,137.54,50.82,137.5,50.83L137.5,50.83z"/>
	</g>
	<polygon fill="#86A0BA" points="138.22,25.07 138.25,29.66 123.98,30.76 123.96,25.95 	"/>
	<path fill="#C7DBF2" d="M124.53,27.03l13.19-0.89l0.07,0l-0.01,2.2l-13.25,0.92V27.03L124.53,27.03z M124.66,27.16l0.02,1.52
		l13-0.92l-0.02-1.48L124.66,27.16L124.66,27.16z"/>
	<path fill="#B5C7DC" d="M123.74,25.75l14.47-0.89l0.22-0.01l0.03,5.02L123.77,31L123.74,25.75L123.74,25.75z M124.17,26.16
		l0.02,4.36l13.84-1.07l-0.02-4.15L124.17,26.16L124.17,26.16z"/>
	<linearGradient id="SVGID_7_" gradientUnits="userSpaceOnUse" x1="124.5996" y1="27.4839" x2="137.7461" y2="27.4839">
		<stop  offset="0" style="stop-color:#9BB5CF"/>
		<stop  offset="1" style="stop-color:#B1C8E0"/>
	</linearGradient>
	<polygon fill="url(#SVGID_7_)" points="137.72,26.22 137.75,27.83 124.62,28.75 124.6,27.1 	"/>
	<polygon fill="#C7DBF2" points="123.8,25.29 138.39,24.4 138.42,25.35 123.75,26.27 123.75,25.29 	"/>
	<path fill="#8EAEBD" d="M137.84,51.79c0,0.19-0.16,0.37-0.36,0.38c-0.2,0.02-0.36-0.13-0.36-0.32c0-0.2,0.16-0.37,0.36-0.38
		C137.68,51.45,137.84,51.59,137.84,51.79z"/>
	<linearGradient id="SVGID_8_" gradientUnits="userSpaceOnUse" x1="109.3779" y1="41.4634" x2="138.032" y2="41.4634">
		<stop  offset="0" style="stop-color:#9BB5CF"/>
		<stop  offset="1" style="stop-color:#B1C8E0"/>
	</linearGradient>
	<polygon fill="url(#SVGID_8_)" points="138.16,36.25 138.19,45.66 123.92,46.67 123.9,37.31 	"/>
	<path fill="#C7DBF2" d="M123.69,36.48l14.46-1.07l0.23-0.02l0.03,10.48l-14.69,1.32l-0.02-5.52V36.48z M124.12,37.45l0.02,9.27
		l13.84-1.26l-0.02-9.03l-13.84,1.08V37.45z"/>
	<polygon fill="#86A0BA" points="137.91,30.75 137.92,35.08 129.11,35.77 134.11,31.02 	"/>
	<polygon fill="#86A0BA" points="137.95,36.43 137.93,45.45 124.1,46.71 124.11,41.01 127.93,37.16 	"/>
	<polygon fill="#C7DBF2" points="123.97,30.82 138.6,29.8 138.6,30.7 123.96,31.71 123.96,30.82 	"/>
	<g>
		<path fill="#FFFFFF" d="M119.26,72.74V21.8c0-0.28,0.22-0.5,0.5-0.5l0,0c0.27,0,0.5,0.22,0.5,0.5l0,0v50.94
			c0,0.28-0.23,0.5-0.5,0.5l0,0C119.48,73.24,119.26,73.02,119.26,72.74L119.26,72.74z"/>
	</g>
	<g>
		<path fill="#FFFFFF" d="M98.09,66.58V17.19c0-0.27,0.22-0.5,0.5-0.5l0,0c0.27,0,0.5,0.22,0.5,0.5l0,0v49.39
			c0,0.28-0.23,0.5-0.5,0.5l0,0C98.31,67.08,98.09,66.85,98.09,66.58L98.09,66.58z"/>
	</g>
	<g>
		<path fill="#FFFFFF" d="M140.14,71.28V20.59c0-0.28,0.22-0.5,0.5-0.5l0,0c0.28,0,0.5,0.22,0.5,0.5l0,0v50.68
			c0,0.28-0.22,0.5-0.5,0.5l0,0C140.36,71.78,140.14,71.55,140.14,71.28L140.14,71.28z"/>
	</g>
	<g>
		<path fill="#FFFFFF" d="M123.66,47.52c-0.05-0.05-0.08-0.11-0.08-0.19l0,0l-0.13-22.24l0.25,0l0.01,0.25l-0.01-0.25l-0.25,0
			c0-0.14,0.1-0.25,0.24-0.26l0,0l14.92-0.92c0.07,0,0.14,0.02,0.19,0.07l0,0c0.05,0.05,0.08,0.11,0.08,0.19l0,0v21.84
			c0,0.13-0.1,0.24-0.23,0.25l0,0l-14.79,1.31c-0.01,0-0.01,0-0.02,0l0,0C123.77,47.58,123.71,47.56,123.66,47.52L123.66,47.52z
			 M124.08,47.06l14.29-1.27V24.44l-14.41,0.89L124.08,47.06L124.08,47.06z"/>
	</g>
	<g>
		<path fill="#FFFFFF" d="M114.83,66.47c-0.35,0-0.75-0.07-1.23-0.21l0,0c-2.81-0.83-10.03-3.2-10.07-3.21l0,0
			c-0.02-0.03-1.77-0.66-1.83-2.41l0,0c0-0.05,0-0.13,0-0.23l0,0c0-3.12,0.07-33.31,0.07-34.16l0,0c0-0.03,0-0.07,0-0.12l0,0
			c-0.04-0.41,0.19-1.95,1.9-2.19l0,0l0.19,0.01l10.27,2.47c0.04,0,2.2,0.4,2.31,2.82l0,0c0.01,0.43,0.02,2.07,0.02,4.46l0,0
			c0,9.21-0.09,29.32-0.1,30.66l0,0c0.03,0.11,0.07,0.32,0.07,0.59l0,0c0,0.29-0.05,0.66-0.31,0.99l0,0
			c-0.26,0.33-0.71,0.53-1.25,0.53l0,0C114.85,66.47,114.84,66.47,114.83,66.47L114.83,66.47z M113.88,65.31
			c0.41,0.12,0.73,0.17,0.95,0.17l0,0c0.65-0.06,0.52-0.18,0.6-0.52l0,0c0-0.2-0.05-0.37-0.05-0.37l0,0l-0.02-0.15
			c0-0.03,0.1-21.21,0.1-30.73l0,0c0-2.38-0.01-4.04-0.02-4.42l0,0c-0.04-0.87-0.4-1.28-0.76-1.54l0,0
			c-0.37-0.26-0.71-0.32-0.74-0.33l0,0l-10.2-2.45c-0.94,0.18-0.93,0.89-0.96,1.19l0,0c0,0.04,0,0.04,0,0.04l0,0l0,0.06
			c0,0.04-0.07,31.01-0.07,34.17l0,0c0,0.1,0,0.17,0,0.22l0,0c0,0.46,0.27,0.83,0.59,1.1l0,0c0.29,0.25,0.57,0.38,0.59,0.39l0,0
			C104.01,62.17,111.13,64.49,113.88,65.31L113.88,65.31z"/>
	</g>
	
	<g>
		<path fill="#FFFFFF" d="M98.33,17.28l0-0.42l20.56-1.14l21.88,4.67v0.42l-20.97,1.24h-0.03 M119.79,21.83l0.04-0.21L119.79,21.83
			L119.79,21.83z M99.87,17.2l19.94,4.42l19.52-1.14l-20.47-4.33L99.87,17.2L99.87,17.2z"/>
		<path fill="#FFFFFF" d="M119.77,22.3v-0.43l-19.96-4.42l0.03-0.42l-1.27,0.07l0,0.19l0,0l-0.5,0l0.01-0.66l20.82-1.16l22.11,4.72
			v0.2v0.66L119.8,22.3H119.77L119.77,22.3z M119.82,21.36l17.63-1.03l-18.61-3.94l-17.15,0.95L119.82,21.36L119.82,21.36z
			 M139.35,20.64l1.12-0.07l-1.1-0.23L139.35,20.64L139.35,20.64z"/>
	</g>
	<g>
		<polygon fill="#FFFFFF" points="98.33,66.4 98.33,66.81 119.72,73.19 119.75,73.19 140.67,71.54 140.67,71.18 139.24,71.09 
			119.76,72.62 99.86,66.7 		"/>
		<path fill="#FFFFFF" d="M119.68,73.44l-21.6-6.45l0-0.19l0-0.41l0-0.3l1.85,0.36l19.85,5.91l19.47-1.53l1.67,0.11v0.24v0.58
			l-21.17,1.68H119.68L119.68,73.44z M119.75,72.94l19.9-1.58l-0.39-0.03l-19.53,1.53l-19.91-5.92l-0.42-0.08L119.75,72.94
			L119.75,72.94z M98.28,66.64l0.05-0.25L98.28,66.64L98.28,66.64z"/>
	</g>
</g>
<path id="Background" fill="none" d="M239.5,109.5c0,5.52-4.48,10-10,10H9.5c-5.52,0-10-4.48-10-10V9.5c0-5.52,4.48-10,10-10h220
	c5.52,0,10,4.48,10,10V109.5z"/>
</g>

</svg>
