<?xml version="1.0" encoding="utf-8"?>
<!DOCTYPE svg PUBLIC "-//W3C//DTD SVG 1.0//EN" "http://www.w3.org/TR/2001/REC-SVG-20010904/DTD/svg10.dtd" [
<!ENTITY ns_svg "http://www.w3.org/2000/svg">
<!ENTITY ns_xlink "http://www.w3.org/1999/xlink">
]>
<svg xmlns="&ns_svg;" xmlns:xlink="&ns_xlink;" width="240" height="120" viewBox="0 0 240 120" overflow="visible" enable-background="new 0 0 240 120" xml:space="preserve">

<g id="Layer_1">

<path id="template" fill="none" d="M239.5,109.5c0,5.5-4.5,10-10,10H9.5c-5.5,0-10-4.5-10-10V9.5c0-5.5,4.5-10,10-10h220
	c5.5,0,10,4.5,10,10V109.5z"/>
<linearGradient id="DECAL_AREA_1_" gradientUnits="userSpaceOnUse" x1="57.7998" y1="-450" x2="57.7998" y2="-402" gradientTransform="matrix(1 0 0 -1 12 -380)">
	<stop  offset="0" style="stop-color:#FFDD33"/>
	<stop  offset="1" style="stop-color:#CCAE15"/>
</linearGradient>
<path id="DECAL_AREA_2_" fill="url(#DECAL_AREA_1_)" d="M117.8,64c0,3.3-2.7,6-6,6h-84c-3.3,0-6-2.7-6-6V28c0-3.3,2.7-6,6-6h84
	c3.3,0,6,2.7,6,6V64z"/>
<linearGradient id="Reflection_2_" gradientUnits="userSpaceOnUse" x1="57.7998" y1="-425.75" x2="57.7998" y2="-401.75" gradientTransform="matrix(1 0 0 -1 12 -380)">
	<stop  offset="0" style="stop-color:#E6C72E"/>
	<stop  offset="1" style="stop-color:#FFF0A6"/>
</linearGradient>
<path id="Reflection_1_" fill="url(#Reflection_2_)" d="M117.8,39.8c0,3.3-2.7,6-6,6h-84c-3.3,0-6-2.7-6-6v-12c0-3.3,2.7-6,6-6h84
	c3.3,0,6,2.7,6,6V39.8z"/>
<path id="DecalBorder" fill="none" stroke="#000000" stroke-width="2" d="M117.8,64c0,3.3-2.7,6-6,6h-84c-3.3,0-6-2.7-6-6V28
	c0-3.3,2.7-6,6-6h84c3.3,0,6,2.7,6,6V64z"/>
<g id="Layer_2">
	<g>
		<path d="M30.9,35.2h5.7c6.3,0,7.1,4.1,7.1,10c0,5.9-0.8,10-7.1,10h-5.7V35.2z M34.1,52.8h2.6c2.6,0,3.7-1.7,3.7-7.6
			c0-5.6-1-7.6-3.7-7.6h-2.6V52.8z"/>
		<path d="M51.3,39.7c4.4,0,5.6,3.2,5.6,7.9c0,4.7-1.4,7.9-5.6,7.9c-4.2,0-5.6-3.2-5.6-7.9C45.7,43,46.9,39.7,51.3,39.7z M51.3,53.3
			c2.2,0,2.6-1.8,2.6-5.7c0-3.3-0.4-5.7-2.6-5.7c-2.2,0-2.6,2.4-2.6,5.7C48.7,51.5,49.1,53.3,51.3,53.3z"/>
		<path d="M59.1,40.1H62v1.8H62c0.8-1.3,2.2-2.2,3.6-2.2c2.2,0,3.1,1,3.5,2.3c0.9-1.5,2-2.3,3.8-2.3c2.1,0,3.7,1.1,3.7,4v11.5h-3
			V44.8c0-2-0.6-2.7-1.8-2.7s-2.4,1-2.4,2.9v10.1h-3V44.8c0-2-0.6-2.7-1.8-2.7c-1.2,0-2.4,1-2.4,2.9v10.1h-3V40.1z"/>
		<path d="M79.4,34.9h3v3h-3V34.9z M79.4,40.1h3v15.1h-3V40.1z"/>
		<path d="M85.1,40.1H88v1.8h0.1c0.8-1.3,2.2-2.2,3.9-2.2c2.3,0,3.8,1,3.8,4.1v11.4h-3V44.8c0-2-0.6-2.7-2.1-2.7
			c-1.2,0-2.4,1-2.4,2.9v10.1h-3V40.1z"/>
		<path d="M103.4,39.7c4.4,0,5.6,3.2,5.6,7.9c0,4.7-1.4,7.9-5.6,7.9c-4.2,0-5.6-3.2-5.6-7.9C97.8,43,99,39.7,103.4,39.7z
			 M103.4,53.3c2.2,0,2.6-1.8,2.6-5.7c0-3.3-0.4-5.7-2.6-5.7c-2.2,0-2.6,2.4-2.6,5.7C100.8,51.5,101.2,53.3,103.4,53.3z"/>
	</g>
</g>


<polygon fill="#262626" points="222.28,31.43 222.29,27.62 218.8,26.71 218.66,26.71 218.63,26.71 213.25,27.08 196.23,18.87 
	193.74,18.22 175.16,29.73 169.56,30.11 169.55,30.14 169.48,30.15 167.14,30.32 167.11,34.71 164.21,36.51 164.07,69.88 
	167.57,70.8 225.01,66.79 225.16,32.82 "/>
<polygon fill="#A2A2A2" points="219.72,36.21 218.52,35.9 221.42,34.1 222.62,34.41 "/>
<polygon fill="#858585" points="219.72,36.21 218.52,35.9 218.53,32.71 219.73,33.02 "/>
<linearGradient id="SVGID_1_" gradientUnits="userSpaceOnUse" x1="219.7188" y1="34.6147" x2="222.6221" y2="34.6147">
	<stop  offset="0" style="stop-color:#B5C7DC"/>
	<stop  offset="0.7462" style="stop-color:#518AB3"/>
</linearGradient>
<polygon fill="url(#SVGID_1_)" points="219.73,33.02 222.62,34.41 219.72,36.21 "/>
<polygon fill="#8C8C8C" points="213.5,30.01 212.3,29.7 218.55,29.26 219.75,29.57 "/>
<linearGradient id="SVGID_2_" gradientUnits="userSpaceOnUse" x1="203.6475" y1="34.7339" x2="223.5384" y2="65.0872">
	<stop  offset="0.269" style="stop-color:#8BB0DC"/>
	<stop  offset="0.8426" style="stop-color:#276DA1"/>
</linearGradient>
<polygon fill="url(#SVGID_2_)" points="219.72,36.21 222.62,34.41 222.49,64.42 195.33,51.33 "/>
<polygon fill="#808080" points="222.49,64.42 221.29,64.11 194.13,51.01 195.33,51.33 "/>
<polygon fill="#808080" points="195.33,51.33 194.13,51.01 194.02,50.96 195.22,51.27 "/>
<linearGradient id="SVGID_3_" gradientUnits="userSpaceOnUse" x1="162.6084" y1="50.8628" x2="217.1046" y2="76.5007">
	<stop  offset="0.269" style="stop-color:#8BB0DC"/>
	<stop  offset="0.8426" style="stop-color:#276DA1"/>
</linearGradient>
<polygon fill="url(#SVGID_3_)" points="195.22,51.27 195.33,51.33 222.49,64.42 167.81,68.25 195.11,51.34 "/>
<polygon fill="#A2A2A2" points="218.52,35.9 194.16,51 195.22,51.27 195.33,51.33 194.13,51.01 194.13,51.01 195.33,51.33 
	219.72,36.21 "/>
<polygon fill="#A2A2A2" points="195.11,51.34 193.91,51.03 194.02,50.96 195.22,51.27 "/>
<polygon fill="#A2A2A2" points="167.81,68.25 166.61,67.93 193.91,51.03 195.11,51.34 "/>
<polygon fill="#9F9F9F" points="177.12,32.55 175.92,32.24 212.3,29.7 213.5,30.01 "/>
<linearGradient id="SVGID_4_" gradientUnits="userSpaceOnUse" x1="177.1152" y1="26.9082" x2="213.4961" y2="26.9082">
	<stop  offset="0.269" style="stop-color:#8BB0DC"/>
	<stop  offset="0.8426" style="stop-color:#276DA1"/>
</linearGradient>
<polygon fill="url(#SVGID_4_)" points="177.12,32.56 195.35,21.26 213.5,30.01 "/>
<polygon fill="#B2B2B2" points="177.12,32.56 175.92,32.24 194.15,20.95 195.35,21.26 "/>
<polygon fill="#808080" points="195.11,51.34 193.91,51.03 169.63,39.31 170.83,39.63 "/>
<polygon fill="#858585" points="170.83,39.63 169.63,39.31 169.65,36.12 170.85,36.44 "/>
<polygon fill="#B2B2B2" points="170.86,32.99 169.66,32.68 175.92,32.24 177.12,32.55 "/>
<polygon fill="#B2B2B2" points="170.85,36.44 169.65,36.12 169.66,32.68 170.86,32.99 "/>
<linearGradient id="SVGID_5_" gradientUnits="userSpaceOnUse" x1="189.7646" y1="24.9658" x2="207.5356" y2="55.9507">
	<stop  offset="0.3401" style="stop-color:#FFFFFF"/>
	<stop  offset="0.4157" style="stop-color:#F9F9F9"/>
	<stop  offset="0.5214" style="stop-color:#E6E6E6"/>
	<stop  offset="0.6445" style="stop-color:#C9C9C9"/>
	<stop  offset="0.7208" style="stop-color:#B2B2B2"/>
</linearGradient>
<polygon fill="url(#SVGID_5_)" points="219.75,29.57 219.73,33.02 219.72,36.21 195.33,51.33 195.22,51.27 195.11,51.34 
	170.83,39.63 170.85,36.44 170.86,32.99 177.12,32.55 213.5,30.01 "/>
<polygon fill="#B2B2B2" points="167.81,68.25 166.61,67.93 166.75,37.92 167.94,38.24 "/>
<polygon fill="#BFBFBF" points="170.83,39.63 169.63,39.32 166.75,37.92 167.94,38.24 "/>
<polygon fill="#B2B2B2" points="167.94,38.24 166.75,37.92 169.65,36.12 170.85,36.44 "/>
<linearGradient id="SVGID_6_" gradientUnits="userSpaceOnUse" x1="167.1172" y1="35.7207" x2="179.7663" y2="44.6907">
	<stop  offset="0" style="stop-color:#B5C7DC"/>
	<stop  offset="0.7462" style="stop-color:#518AB3"/>
</linearGradient>
<polygon fill="url(#SVGID_6_)" points="170.83,39.63 167.94,38.24 170.85,36.44 "/>
<linearGradient id="SVGID_7_" gradientUnits="userSpaceOnUse" x1="162.0371" y1="50.561" x2="189.8607" y2="63.3225">
	<stop  offset="0.269" style="stop-color:#8BB0DC"/>
	<stop  offset="0.8426" style="stop-color:#276DA1"/>
</linearGradient>
<polygon fill="url(#SVGID_7_)" points="170.83,39.63 195.11,51.34 167.81,68.25 167.94,38.24 "/>
<linearGradient id="SVGID_8_" gradientUnits="userSpaceOnUse" x1="169.7334" y1="31.1089" x2="219.6436" y2="31.1089">
	<stop  offset="0" style="stop-color:#B2B2B2"/>
	<stop  offset="0.3359" style="stop-color:#AFAFAF"/>
	<stop  offset="0.6419" style="stop-color:#A4A4A4"/>
	<stop  offset="0.9354" style="stop-color:#919191"/>
	<stop  offset="1" style="stop-color:#8C8C8C"/>
</linearGradient>
<polygon fill="url(#SVGID_8_)" points="170.93,32.96 169.73,32.64 218.44,29.26 219.64,29.57 "/>
</g>

</svg>
