<?xml version="1.0" encoding="utf-8"?>
<!DOCTYPE svg PUBLIC "-//W3C//DTD SVG 1.0//EN" "http://www.w3.org/TR/2001/REC-SVG-20010904/DTD/svg10.dtd" [
<!ENTITY ns_svg "http://www.w3.org/2000/svg">
<!ENTITY ns_xlink "http://www.w3.org/1999/xlink">
]>
<svg xmlns="&ns_svg;" xmlns:xlink="&ns_xlink;" width="240" height="120" viewBox="0 0 240 120" overflow="visible" enable-background="new 0 0 240 120" xml:space="preserve">

<g id="Layer_1">




<g id="_x3C_ICON_HERE_x3E_">
	<g>
		<g>
			<polygon fill="#404040" points="140.65,71.6 140.65,20.5 118.85,15.8 98.25,16.9 98.25,66.7 119.55,73.4 			"/>
			<path fill="#404040" d="M96.15,68.3V15l22.9-1.3l23.8,5.1v52.8v2l-23.4,2L96.15,68.3L96.15,68.3z M100.35,19v46.2l19.4,6.1
				l18.7-1.6V22.3l-19.9-4.3L100.35,19L100.35,19z"/>
		</g>
		
			<linearGradient id="SVGID_1_" gradientUnits="userSpaceOnUse" x1="-1017.9619" y1="719.9492" x2="-975.4951" y2="719.9492" gradientTransform="matrix(1 0 0 1 1116 -673)">
			<stop  offset="0" style="stop-color:#ABABAB"/>
			<stop  offset="0.0467" style="stop-color:#B8B8B8"/>
			<stop  offset="0.1204" style="stop-color:#C7C7C7"/>
			<stop  offset="0.1813" style="stop-color:#CCCCCC"/>
			<stop  offset="0.2413" style="stop-color:#C6C6C6"/>
			<stop  offset="0.3232" style="stop-color:#B4B4B4"/>
			<stop  offset="0.4173" style="stop-color:#989898"/>
			<stop  offset="0.489" style="stop-color:#7D7D7D"/>
			<stop  offset="0.5312" style="stop-color:#8B8B8B"/>
			<stop  offset="0.6093" style="stop-color:#9F9F9F"/>
			<stop  offset="0.6989" style="stop-color:#ADADAD"/>
			<stop  offset="0.8091" style="stop-color:#B5B5B5"/>
			<stop  offset="1" style="stop-color:#B8B8B8"/>
		</linearGradient>
		<polygon fill="url(#SVGID_1_)" points="140.75,20.6 140.75,71.5 119.55,73.3 119.55,21.9 		"/>
		
			<linearGradient id="SVGID_2_" gradientUnits="userSpaceOnUse" x1="-1017.7896" y1="718.1504" x2="-975.3237" y2="718.1504" gradientTransform="matrix(1 0 0 1 1116 -673)">
			<stop  offset="0" style="stop-color:#ABABAB"/>
			<stop  offset="0.0467" style="stop-color:#B8B8B8"/>
			<stop  offset="0.1204" style="stop-color:#C7C7C7"/>
			<stop  offset="0.1813" style="stop-color:#CCCCCC"/>
			<stop  offset="0.2413" style="stop-color:#C6C6C6"/>
			<stop  offset="0.3232" style="stop-color:#B4B4B4"/>
			<stop  offset="0.4173" style="stop-color:#989898"/>
			<stop  offset="0.489" style="stop-color:#7D7D7D"/>
			<stop  offset="0.5312" style="stop-color:#8B8B8B"/>
			<stop  offset="0.6093" style="stop-color:#9F9F9F"/>
			<stop  offset="0.6989" style="stop-color:#ADADAD"/>
			<stop  offset="0.8091" style="stop-color:#B5B5B5"/>
			<stop  offset="1" style="stop-color:#B8B8B8"/>
		</linearGradient>
		<polygon fill="url(#SVGID_2_)" points="119.75,73.3 98.35,66.6 98.35,17 119.75,21.8 		"/>
		
			<linearGradient id="SVGID_3_" gradientUnits="userSpaceOnUse" x1="-987.7256" y1="695.7275" x2="-1016.2009" y2="683.0717" gradientTransform="matrix(1 0 0 1 1116 -673)">
			<stop  offset="0" style="stop-color:#FFFFFF"/>
			<stop  offset="1" style="stop-color:#A6A6A6"/>
		</linearGradient>
		<polygon fill="url(#SVGID_3_)" points="119.75,21.8 98.35,17.1 118.85,15.9 140.75,20.6 		"/>
		<path fill="#FFFFFF" d="M98.25,17.3v-0.4l20.6-1.1l21.9,4.7v0.4l-21,1.2l0,0 M119.75,21.8v-0.2V21.8L119.75,21.8z M99.85,17.2
			l19.9,4.4l19.5-1.1l-20.4-4.4L99.85,17.2L99.85,17.2z"/>
		
			<linearGradient id="SVGID_4_" gradientUnits="userSpaceOnUse" x1="-1008.0127" y1="708.9502" x2="-977.5623" y2="708.9502" gradientTransform="matrix(1 0 0 1 1116 -673)">
			<stop  offset="0" style="stop-color:#A6A6A6"/>
			<stop  offset="1" style="stop-color:#212121"/>
		</linearGradient>
		<polygon fill="url(#SVGID_4_)" points="138.65,24.2 138.55,46.4 123.45,47.7 123.45,25.1 		"/>
		<path fill="#E8E8E8" d="M123.45,47.7c0,0,11.8,2.3,15.1-1.3"/>
		
			<linearGradient id="SVGID_5_" gradientUnits="userSpaceOnUse" x1="-1006.5928" y1="706.4492" x2="-978.0974" y2="706.4492" gradientTransform="matrix(1 0 0 1 1116 -673)">
			<stop  offset="0" style="stop-color:#A6A6A6"/>
			<stop  offset="0.1624" style="stop-color:#878787"/>
			<stop  offset="0.4266" style="stop-color:#5B5B5B"/>
			<stop  offset="0.6638" style="stop-color:#3C3C3C"/>
			<stop  offset="0.863" style="stop-color:#282828"/>
			<stop  offset="1" style="stop-color:#212121"/>
		</linearGradient>
		<polygon fill="url(#SVGID_5_)" points="138.05,30.6 138.05,35.3 123.85,36.3 123.85,31.6 		"/>
		<path fill="#3D3D3D" d="M123.65,31.4l14.4-1h0.2v5.1l-14.6,1V31.4L123.65,31.4z M124.05,31.8V36l13.8-0.9v-4.2L124.05,31.8
			L124.05,31.8z"/>
		<path fill="#E8E8E8" d="M138.35,51.8c0,0.5-0.4,0.9-0.9,0.9s-0.9-0.3-0.9-0.8s0.4-0.9,0.9-0.9S138.35,51.3,138.35,51.8z"/>
		
			<linearGradient id="SVGID_6_" gradientUnits="userSpaceOnUse" x1="-1006.5166" y1="701.1504" x2="-978.0211" y2="701.1504" gradientTransform="matrix(1 0 0 1 1116 -673)">
			<stop  offset="0" style="stop-color:#A6A6A6"/>
			<stop  offset="0.1624" style="stop-color:#878787"/>
			<stop  offset="0.4266" style="stop-color:#5B5B5B"/>
			<stop  offset="0.6638" style="stop-color:#3C3C3C"/>
			<stop  offset="0.863" style="stop-color:#282828"/>
			<stop  offset="1" style="stop-color:#212121"/>
		</linearGradient>
		<polygon fill="url(#SVGID_6_)" points="138.15,25.4 138.15,29.8 123.95,30.9 123.95,26.3 		"/>
		<path fill="#3D3D3D" d="M124.45,26.8l13.1-0.9h0.1V28l-13.2,1V26.8L124.45,26.8z M124.65,26.9v1.5l12.9-0.9v-1.4L124.65,26.9
			L124.65,26.9z"/>
		<g>
			<path fill="#3D3D3D" d="M123.75,26.1l14.4-0.9h0.2V30l-14.6,1.1V26.1L123.75,26.1z M124.15,26.5v4.2l13.8-1v-4L124.15,26.5
				L124.15,26.5z"/>
			
				<linearGradient id="SVGID_7_" gradientUnits="userSpaceOnUse" x1="-1004.7275" y1="700.25" x2="-978.5065" y2="700.25" gradientTransform="matrix(1 0 0 1 1116 -673)">
				<stop  offset="0" style="stop-color:#757575"/>
				<stop  offset="0.2806" style="stop-color:#515151"/>
				<stop  offset="0.5772" style="stop-color:#313131"/>
				<stop  offset="0.8277" style="stop-color:#1E1E1E"/>
				<stop  offset="1" style="stop-color:#171717"/>
			</linearGradient>
			<polygon fill="url(#SVGID_7_)" points="137.65,26 137.65,27.6 124.55,28.5 124.55,26.9 			"/>
			<polygon fill="#E3E3E3" points="123.75,25.6 138.25,24.8 138.35,25.7 123.75,26.6 			"/>
		</g>
		<path fill="#565656" d="M114.45,69.5l-12.7-4c-0.9-0.3-1.7-1.3-1.7-2.3l0,0V22.4l0,0c0-0.9,0.6-1.5,1.4-1.5l0,0c0.1,0,0.2,0,0.4,0
			l0,0l12.7,2.8c1,0.2,1.7,1.2,1.8,2.2l0,0l0,0l0,0l0,0l0,0l0,0l0,0v42.2c0,0.8-0.6,1.4-1.3,1.4l0,0
			C114.75,69.6,114.55,69.6,114.45,69.5L114.45,69.5z M100.25,22.6v40.8c0,0.9,0.7,1.9,1.6,2.1l0,0l12.7,4c0.2,0,0.3,0.1,0.4,0.1
			l0,0c0.6,0,1.1-0.4,1.1-1.2v-0.2v-42V26l0,0l0,0c0-0.9-0.7-1.6-1.6-1.8l0,0l-12.7-2.8c-0.1,0-0.2,0-0.3,0l0,0
			c-0.7,0-1.2,0.3-1.2,1l0,0l0,0V22.6z"/>
		<path fill="#FFFFFF" d="M137.85,51.8c0,0.2-0.2,0.4-0.4,0.4c-0.2,0-0.4-0.1-0.4-0.3c0-0.2,0.2-0.4,0.4-0.4
			C137.65,51.4,137.85,51.6,137.85,51.8z"/>
		
			<linearGradient id="SVGID_8_" gradientUnits="userSpaceOnUse" x1="-1006.5762" y1="714.2002" x2="-978.0788" y2="714.2002" gradientTransform="matrix(1 0 0 1 1116 -673)">
			<stop  offset="0" style="stop-color:#A6A6A6"/>
			<stop  offset="0.1624" style="stop-color:#878787"/>
			<stop  offset="0.4266" style="stop-color:#5B5B5B"/>
			<stop  offset="0.6638" style="stop-color:#3C3C3C"/>
			<stop  offset="0.863" style="stop-color:#282828"/>
			<stop  offset="1" style="stop-color:#212121"/>
		</linearGradient>
		<polygon fill="url(#SVGID_8_)" points="138.05,36.2 138.05,45.2 123.85,46.2 123.85,37.2 		"/>
		<path fill="#3D3D3D" d="M123.65,36.4l14.4-1h0.2v10.1l-14.6,1.3v-5.3V36.4z M124.05,37.3v8.9l13.8-1.2v-8.7L124.05,37.3
			L124.05,37.3z"/>
		
			<linearGradient id="SVGID_9_" gradientUnits="userSpaceOnUse" x1="-989.6675" y1="729.2217" x2="-983.0746" y2="709.8891" gradientTransform="matrix(1 0 0 1 1116 -673)">
			<stop  offset="0" style="stop-color:#A6A6A6"/>
			<stop  offset="0.1514" style="stop-color:#8A8A8A"/>
			<stop  offset="0.4191" style="stop-color:#5E5E5E"/>
			<stop  offset="0.6594" style="stop-color:#3E3E3E"/>
			<stop  offset="0.8612" style="stop-color:#2B2B2B"/>
			<stop  offset="1" style="stop-color:#242424"/>
		</linearGradient>
		<polygon fill="url(#SVGID_9_)" points="137.75,30.9 137.85,35 129.05,35.7 134.05,31.1 		"/>
		
			<linearGradient id="SVGID_10_" gradientUnits="userSpaceOnUse" x1="-989.5957" y1="729.2314" x2="-983.0007" y2="709.8926" gradientTransform="matrix(1 0 0 1 1116 -673)">
			<stop  offset="0" style="stop-color:#A6A6A6"/>
			<stop  offset="0.1514" style="stop-color:#8A8A8A"/>
			<stop  offset="0.4191" style="stop-color:#5E5E5E"/>
			<stop  offset="0.6594" style="stop-color:#3E3E3E"/>
			<stop  offset="0.8612" style="stop-color:#2B2B2B"/>
			<stop  offset="1" style="stop-color:#242424"/>
		</linearGradient>
		<polygon fill="url(#SVGID_10_)" points="137.85,36.4 137.85,45 124.05,46.3 124.05,40.8 127.85,37.1 		"/>
		<polygon fill="#D1D2D2" points="123.65,31.1 138.25,30.2 138.15,31 123.65,32 		"/>
	</g>
</g>
<path id="Background" fill="none" d="M239.5,109.5c0,5.52-4.48,10-10,10H9.5c-5.52,0-10-4.48-10-10V9.5c0-5.52,4.48-10,10-10h220
	c5.52,0,10,4.48,10,10V109.5z"/>
</g>

</svg>
