<?xml version="1.0" encoding="utf-8"?>
<!DOCTYPE svg PUBLIC "-//W3C//DTD SVG 1.0//EN" "http://www.w3.org/TR/2001/REC-SVG-20010904/DTD/svg10.dtd" [
<!ENTITY ns_svg "http://www.w3.org/2000/svg">
<!ENTITY ns_xlink "http://www.w3.org/1999/xlink">
]>
<svg xmlns="&ns_svg;" xmlns:xlink="&ns_xlink;" width="240" height="120" viewBox="0 0 240 120" overflow="visible" enable-background="new 0 0 240 120" xml:space="preserve">

<g id="Layer_1">

<path id="Background" fill="none" d="M239.75,110c0,5.52-4.48,10-10,10h-220c-5.52,0-10-4.48-10-10V10c0-5.52,4.48-10,10-10h220
	c5.52,0,10,4.48,10,10V110z"/>
<g>
	<path fill="#262626" d="M139.24,33.09c-0.54,0-1.04,0.05-1.51,0.12c-0.75-2.83-2.82-5.13-5.39-6.73c-3.22-2.01-7.4-3.15-11.94-3.16
		c-4.6,0.01-8.83,1.22-12.07,3.31c-3,1.92-5.3,4.77-5.61,8.24c-8.46,0.65-15.15,7.61-15.16,16.19c0,9.01,7.37,16.22,16.41,16.24
		c3.49,0,6.91-1.08,9.72-3.1c3.11,4.12,7.97,6.56,13.09,6.56c6.54,0,12.53-3.97,14.94-10.1c0.84-0.22,1.62-0.52,2.34-0.85
		c4.67-2.29,7.85-7.2,7.86-12.9C151.92,39.42,146.43,33.13,139.24,33.09z"/>
	
		<radialGradient id="SVGID_1_" cx="-453.8042" cy="574.2588" r="47.6635" gradientTransform="matrix(1 0 0 -1.08 558 657.1202)" gradientUnits="userSpaceOnUse">
		<stop  offset="5.617980e-003" style="stop-color:#E7F1FA"/>
		<stop  offset="1" style="stop-color:#8ABAE3"/>
	</radialGradient>
	<path fill="url(#SVGID_1_)" d="M149.44,46.91c0-6.31-4.58-11.32-10.2-11.32c-1.04,0-2.07,0.26-3.03,0.52l-0.69,0.26v-1.04
		c-0.09-5.27-6.91-9.51-15.12-9.51c-8.29,0-15.21,4.49-15.21,9.77c0,0.26,0.09,0.43,0.09,0.69l0.09,1.04h-0.69h-0.26
		c-0.09,0-0.35,0-0.43,0c-7.69,0-13.91,6.14-13.91,13.74c0,7.6,6.22,13.74,13.91,13.74c3.63,0,7.17-1.38,9.77-3.89l0.52-0.43
		l0.43,0.69c2.5,4.41,7.17,7.09,12.1,7.09c5.88,0,11.23-3.8,12.96-9.51l0.09-0.26h0.09c1.13-0.17,2.16-0.52,3.11-0.95
		C146.76,55.73,149.44,51.67,149.44,46.91z"/>
	
		<radialGradient id="SVGID_2_" cx="-452.2192" cy="571.5518" r="17.3559" gradientTransform="matrix(1 0 0 -1.08 558 657.1202)" gradientUnits="userSpaceOnUse">
		<stop  offset="0" style="stop-color:#F2F8FC"/>
		<stop  offset="1" style="stop-color:#D1E4F5"/>
	</radialGradient>
	<path fill="url(#SVGID_2_)" d="M92.66,54.78c0-7.6,6.22-13.74,13.91-13.74c0.09,0,0.35,0,0.43,0h0.17h0.69L107.78,40
		c0-0.26-0.09-0.43-0.09-0.69c0-5.27,6.91-9.76,15.21-9.76c5.01,0,9.51,1.56,12.27,3.98c-1.38-4.41-7.61-7.78-14.86-7.78
		c-8.29,0-15.21,4.49-15.21,9.77c0,0.26,0.09,0.43,0.09,0.69l0.09,1.04h-0.69h-0.17c-0.09,0-0.35,0-0.43,0
		c-7.69,0-13.91,6.14-13.91,13.74c0,3.72,1.47,7.09,3.89,9.59C93.18,58.84,92.66,56.85,92.66,54.78z"/>
	
		<linearGradient id="SVGID_3_" gradientUnits="userSpaceOnUse" x1="-168.2485" y1="-354.6606" x2="-168.2485" y2="-409.6613" gradientTransform="matrix(1 0 0 -1 288 -339.2002)">
		<stop  offset="0" style="stop-color:#84B7E2"/>
		<stop  offset="1" style="stop-color:#095FA6"/>
	</linearGradient>
	<path fill="url(#SVGID_3_)" d="M120.31,25.14c8.64,0,15.64,4.58,15.9,10.28c1.04-0.35,2.07-0.52,3.2-0.52
		c5.88,0,10.8,5.36,10.8,12.1c0,6.31-4.23,11.41-9.68,12.1c-1.99,5.7-7.35,9.76-13.83,9.76c-5.36,0-10.19-3.03-12.61-7.43
		c-2.59,2.59-6.22,4.15-10.2,4.15c-8.12,0-14.61-6.48-14.61-14.52c0-8.04,6.57-14.52,14.61-14.52c0.17,0,0.43,0,0.69,0
		c0-0.26-0.09-0.52-0.09-0.87C104.5,29.89,111.5,25.14,120.31,25.14 M120.31,26.86c-8.73,0-14.61,4.58-14.61,8.81
		c0,0.26,0,0.35,0,0.52l0.17,1.9l-1.55-0.09h-0.35c-0.09,0-0.34,0-0.43,0c-7.35,0-13.31,5.79-13.31,12.96s6.05,12.96,13.31,12.96
		c3.54,0,6.83-1.38,9.42-3.8L114,59.1l0.69,1.38c2.42,4.15,6.83,6.74,11.58,6.74c5.71,0,10.8-3.54,12.53-8.82l0.35-0.86l0.69-0.09
		c4.84-0.52,8.47-5.01,8.47-10.46c0-5.79-4.23-10.54-9.51-10.54c-0.95,0-1.99,0.09-2.94,0.43l-1.56,0.52l-0.09-1.99
		C134.75,31.36,128.87,26.86,120.31,26.86L120.31,26.86z"/>
</g>
</g>

</svg>
