<?xml version="1.0" encoding="utf-8"?>
<!DOCTYPE svg PUBLIC "-//W3C//DTD SVG 1.0//EN" "http://www.w3.org/TR/2001/REC-SVG-20010904/DTD/svg10.dtd" [
<!ENTITY ns_svg "http://www.w3.org/2000/svg">
<!ENTITY ns_xlink "http://www.w3.org/1999/xlink">
]>
<svg xmlns="&ns_svg;" xmlns:xlink="&ns_xlink;" width="240" height="120" viewBox="0 0 240 120" overflow="visible" enable-background="new 0 0 240 120" xml:space="preserve">

<g id="Layer_1">

<path id="Background" fill="none" d="M239.75,110c0,5.52-4.48,10-10,10h-220c-5.52,0-10-4.48-10-10V10c0-5.52,4.48-10,10-10h220
	c5.52,0,10,4.48,10,10V110z"/>
<g>
	<path fill="#272626" d="M141.18,20.87c-0.01-0.04-0.02-0.08-0.03-0.12c-0.1-0.36-0.27-0.76-0.51-1.09
		c-0.4-0.55-0.69-0.73-0.89-0.89l0,0l-0.04-0.03c-1.13-0.77-2.08-0.99-3.34-1.31c-3.66-0.83-9.65-1.3-16.62-1.31
		c-4.63,0-8.87,0.22-12.24,0.6c-1.69,0.19-3.15,0.42-4.39,0.71c-1.26,0.32-2.2,0.53-3.34,1.31l-0.04,0.03
		c-0.21,0.18-0.5,0.37-0.89,0.91c-0.28,0.37-0.46,0.86-0.54,1.24c0,0.02-0.01,0.05-0.02,0.07c0,0,0,0,0,0c0,0.01,0,0.01,0,0.02
		c-0.05,0.26-0.07,0.53-0.06,0.79v50.38c-0.01,0.18-0.01,0.35,0.01,0.53c0.04,0.49,0.2,0.95,0.46,1.35
		c0.45,0.84,1.08,1.19,1.48,1.46c1.05,0.59,2.02,0.84,3.27,1.13c3.67,0.78,9.53,1.23,16.3,1.24c5.14,0,9.79-0.27,13.31-0.74
		c1.77-0.24,3.24-0.51,4.47-0.88c0.62-0.19,1.18-0.4,1.79-0.75c0.41-0.28,1.05-0.64,1.51-1.51c0.24-0.39,0.39-0.83,0.43-1.29
		c0.02-0.18,0.03-0.37,0.01-0.55V21.83C141.29,21.51,141.26,21.18,141.18,20.87z"/>
	<path fill="#054D80" stroke="#2A4A80" stroke-width="2" stroke-linecap="round" stroke-linejoin="round" d="M138.27,21.64
		c0-0.01,0.01-0.01,0.01-0.02s-0.01-0.01-0.01-0.02v-0.01h-0.01c-0.01-0.07-0.03-0.13-0.07-0.2c-0.05-0.07-0.13-0.15-0.23-0.22
		c0,0,0,0-0.01-0.01l0,0c-1.6-1.16-9.13-2.04-18.2-2.04c-9.07,0-16.6,0.88-18.2,2.04l0,0c0,0,0,0-0.01,0.01
		c-0.1,0.07-0.18,0.15-0.23,0.22c-0.05,0.07-0.07,0.13-0.07,0.2h-0.01v0.01c0,0.01-0.01,0.01-0.01,0.02s0.01,0.01,0.01,0.02v50.72
		c0,0.01-0.01,0.02-0.01,0.02c0,0.01,0.01,0.02,0.01,0.02v0.04h0.02c0.26,1.35,8.43,2.43,18.5,2.43c10.06,0,18.23-1.08,18.5-2.43
		h0.02V72.4c0-0.01,0.01-0.01,0.01-0.02c0,0-0.01-0.01-0.01-0.02V21.64L138.27,21.64z"/>
	<path opacity="0.26" fill="#3B63AD" enable-background="new    " d="M137.95,21.16c-1.6,1.16-9.13,2.04-18.2,2.04
		c-9.07,0-16.6-0.88-18.2-2.04c-0.21,0.15-0.32,0.3-0.32,0.46c0,1.38,8.29,2.5,18.52,2.5c10.23,0,18.52-1.12,18.52-2.5
		C138.27,21.46,138.15,21.31,137.95,21.16z"/>
	
		<linearGradient id="SVGID_1_" gradientUnits="userSpaceOnUse" x1="101.2358" y1="98.4082" x2="101.2407" y2="98.4082" gradientTransform="matrix(1 0 0 -1 0 120)">
		<stop  offset="0" style="stop-color:#BFD9F1"/>
		<stop  offset="0.2253" style="stop-color:#FFFFFF"/>
		<stop  offset="1" style="stop-color:#BFD9F1"/>
	</linearGradient>
	<polygon fill="url(#SVGID_1_)" points="101.24,21.59 101.24,21.6 101.24,21.59 	"/>
	
		<linearGradient id="SVGID_2_" gradientUnits="userSpaceOnUse" x1="138.2578" y1="98.4082" x2="138.2655" y2="98.4082" gradientTransform="matrix(1 0 0 -1 0 120)">
		<stop  offset="0" style="stop-color:#BFD9F1"/>
		<stop  offset="0.2253" style="stop-color:#FFFFFF"/>
		<stop  offset="1" style="stop-color:#BFD9F1"/>
	</linearGradient>
	<polygon fill="url(#SVGID_2_)" points="138.27,21.6 138.27,21.59 138.26,21.59 	"/>
	
		<linearGradient id="SVGID_3_" gradientUnits="userSpaceOnUse" x1="101.1836" y1="71.7656" x2="138.1661" y2="71.7656" gradientTransform="matrix(1 0 0 -1 0 120)">
		<stop  offset="0" style="stop-color:#85B6CD"/>
		<stop  offset="0.2387" style="stop-color:#E8F6FD"/>
		<stop  offset="0.4279" style="stop-color:#85B6CD"/>
		<stop  offset="0.8408" style="stop-color:#1D5680"/>
		<stop  offset="1" style="stop-color:#85B6CD"/>
	</linearGradient>
	<path fill="url(#SVGID_3_)" d="M138.27,72.41c0-0.01,0.01-0.02,0.01-0.02c0,0-0.01-0.01-0.01-0.02V21.59h-37.03v50.77
		c0,0.01-0.01,0.02-0.01,0.02c0,0.01,0.01,0.02,0.01,0.02v0.04h0.02c0.27,1.35,8.43,2.43,18.5,2.43c10.06,0,18.23-1.08,18.5-2.43
		h0.02V72.41L138.27,72.41z"/>
	
		<linearGradient id="SVGID_4_" gradientUnits="userSpaceOnUse" x1="327.1865" y1="994.1465" x2="326.2167" y2="988.5208" gradientTransform="matrix(1 0 0 1 -207 -970)">
		<stop  offset="0" style="stop-color:#7D97A8"/>
		<stop  offset="0.0174" style="stop-color:#8099AA"/>
		<stop  offset="0.1824" style="stop-color:#9CB2C0"/>
		<stop  offset="0.3477" style="stop-color:#AEC2CE"/>
		<stop  offset="0.5122" style="stop-color:#BCCED8"/>
		<stop  offset="0.6751" style="stop-color:#BFD3DD"/>
		<stop  offset="0.7168" style="stop-color:#B4CCD8"/>
		<stop  offset="0.8253" style="stop-color:#9ABFD2"/>
		<stop  offset="0.923" style="stop-color:#8AB8CD"/>
		<stop  offset="1" style="stop-color:#85B6CD"/>
	</linearGradient>
	<ellipse fill="url(#SVGID_4_)" cx="119.75" cy="21.62" rx="18.52" ry="2.5"/>
	
		<linearGradient id="SVGID_5_" gradientUnits="userSpaceOnUse" x1="123.0313" y1="98.9707" x2="138.2734" y2="98.9707" gradientTransform="matrix(1 0 0 -1 0 120)">
		<stop  offset="0" style="stop-color:#4C90C2"/>
		<stop  offset="0.1758" style="stop-color:#FFFFFF"/>
		<stop  offset="1" style="stop-color:#5587AC"/>
	</linearGradient>
	<path fill="url(#SVGID_5_)" d="M123.03,19.15c2.45,0.29,7.79,1.22,5.97,3.64l-0.2,0.11c4.86-0.35,8.43-0.99,9.47-1.74
		C136.86,20.13,130.74,19.32,123.03,19.15z"/>
	
		<linearGradient id="SVGID_6_" gradientUnits="userSpaceOnUse" x1="101.228" y1="71.7383" x2="138.2734" y2="71.7383" gradientTransform="matrix(1 0 0 -1 0 120)">
		<stop  offset="0" style="stop-color:#8DADBC"/>
		<stop  offset="0.2253" style="stop-color:#FFFFFF"/>
		<stop  offset="1" style="stop-color:#528AB4"/>
	</linearGradient>
	<path fill="url(#SVGID_6_)" d="M101.23,72.38c0,0.01,0.01,0.02,0.01,0.02v0.04h0.02c0.27,1.35,8.43,2.43,18.5,2.43
		c10.06,0,18.23-1.08,18.5-2.43h0.02V72.4c0-0.01,0.01-0.01,0.01-0.02c0,0-0.01-0.01-0.01-0.02V21.64
		c-0.06,1.04-4.86,1.93-11.62,2.3l-0.04,0.02c0,0,0,22.49,0,26.31c0,5.63-0.46,16.23-25.37,17.03v5.06
		C101.24,72.37,101.23,72.38,101.23,72.38z"/>
	<path opacity="0.26" fill="#3C64AE" enable-background="new    " d="M137.95,21.16c-1.6,1.16-9.13,2.04-18.2,2.04
		c-9.07,0-16.6-0.88-18.2-2.04c-0.21,0.15-0.32,0.3-0.32,0.46c0,1.38,8.29,2.5,18.52,2.5c10.23,0,18.52-1.12,18.52-2.5
		C138.27,21.46,138.15,21.31,137.95,21.16z"/>
</g>
</g>

</svg>
