<?xml version="1.0" encoding="utf-8"?>
<!DOCTYPE svg PUBLIC "-//W3C//DTD SVG 1.0//EN" "http://www.w3.org/TR/2001/REC-SVG-20010904/DTD/svg10.dtd" [
<!ENTITY ns_svg "http://www.w3.org/2000/svg">
<!ENTITY ns_xlink "http://www.w3.org/1999/xlink">
]>
<svg xmlns="&ns_svg;" xmlns:xlink="&ns_xlink;" width="240" height="120" viewBox="0 0 240 120" overflow="visible" enable-background="new 0 0 240 120" xml:space="preserve">

<g id="Layer_1">




<g id="_x3C_ICON_HERE_x3E_">
	<g>
		<g>
			<g>
				<polygon fill="#262626" points="96.25,70.7 96.25,17.8 131.75,15.5 142.55,18.1 142.45,71 106.75,73.6 				"/>
				<path fill="#262626" d="M95.75,72.6l0.5-1.9h2h-2L95.75,72.6l-1.4-0.4V16l37.7-2.5l12.6,3.1l-0.1,56.3l-37.8,2.8L95.75,72.6
					L95.75,72.6z M106.95,71.6l33.5-2.5l0.1-49.5l-9-2.2l-33.4,2.2v49.5L106.95,71.6L106.95,71.6z"/>
			</g>
		</g>
		
			<linearGradient id="SVGID_1_" gradientUnits="userSpaceOnUse" x1="-456.3857" y1="511.7832" x2="-456.6876" y2="566.1501" gradientTransform="matrix(1 0 0 -1 558 587)">
			<stop  offset="0" style="stop-color:#065286"/>
			<stop  offset="1" style="stop-color:#9FDAFF"/>
		</linearGradient>
		<polygon fill="url(#SVGID_1_)" points="106.65,73.6 96.05,70.7 96.25,17.8 106.85,20.5 		"/>
		
			<linearGradient id="SVGID_2_" gradientUnits="userSpaceOnUse" x1="-493.6118" y1="585.6768" x2="-438.6386" y2="569.0632" gradientTransform="matrix(1 0 0 -1 558 587)">
			<stop  offset="0" style="stop-color:#065286"/>
			<stop  offset="1" style="stop-color:#9FDAFF"/>
		</linearGradient>
		<polygon fill="url(#SVGID_2_)" points="106.85,20.5 96.25,17.8 131.75,15.5 142.55,18.1 		"/>
		
			<linearGradient id="SVGID_3_" gradientUnits="userSpaceOnUse" x1="-437.3257" y1="586.5117" x2="-438.8037" y2="564.9573" gradientTransform="matrix(1 0 0 -1 558 587)">
			<stop  offset="0" style="stop-color:#002D52"/>
			<stop  offset="0.1063" style="stop-color:#053155"/>
			<stop  offset="0.23" style="stop-color:#133D5F"/>
			<stop  offset="0.3624" style="stop-color:#2A506F"/>
			<stop  offset="0.501" style="stop-color:#4B6B85"/>
			<stop  offset="0.6443" style="stop-color:#758DA1"/>
			<stop  offset="0.7917" style="stop-color:#A9B8C4"/>
			<stop  offset="0.9396" style="stop-color:#E4E9ED"/>
			<stop  offset="1" style="stop-color:#FFFFFF"/>
		</linearGradient>
		<path fill="url(#SVGID_3_)" d="M96.25,18.7v-1.1l35.6-2.6l10.9,3l-0.1,1.1l-35.7,2.6h-0.1l-10.7-3H96.25z M106.85,21.1l0.1-0.5
			L106.85,21.1L106.85,21.1z M98.65,18.2l8.3,2.4l33.9-2.4l-9.1-2.4l-32.3,2.4H98.65z"/>
		
			<linearGradient id="SVGID_4_" gradientUnits="userSpaceOnUse" x1="-418.314" y1="512.291" x2="-446.1039" y2="565.454" gradientTransform="matrix(1 0 0 -1 558 587)">
			<stop  offset="0" style="stop-color:#065286"/>
			<stop  offset="1" style="stop-color:#9FDAFF"/>
		</linearGradient>
		<polygon fill="url(#SVGID_4_)" points="142.55,18.1 142.25,71 106.65,73.6 106.85,20.5 		"/>
		
			<linearGradient id="SVGID_5_" gradientUnits="userSpaceOnUse" x1="-418.5889" y1="512.377" x2="-446.0953" y2="564.9977" gradientTransform="matrix(1 0 0 -1 558 587)">
			<stop  offset="0" style="stop-color:#065286"/>
			<stop  offset="1" style="stop-color:#9FDAFF"/>
		</linearGradient>
		<polygon fill="url(#SVGID_5_)" points="142.25,18.6 141.95,71 106.75,73.6 106.95,20.9 		"/>
		
			<linearGradient id="SVGID_6_" gradientUnits="userSpaceOnUse" x1="-442.7217" y1="544.3203" x2="-418.7449" y2="511.1467" gradientTransform="matrix(1 0 0 -1 558 587)">
			<stop  offset="0" style="stop-color:#065286"/>
			<stop  offset="0.0474" style="stop-color:#0E598D"/>
			<stop  offset="0.5088" style="stop-color:#5C9ECA"/>
			<stop  offset="0.8374" style="stop-color:#8CC9F0"/>
			<stop  offset="1" style="stop-color:#9FDAFF"/>
		</linearGradient>
		<polygon fill="url(#SVGID_6_)" points="142.45,38.1 142.15,70.6 106.85,73.2 107.05,64.4 		"/>
		
			<linearGradient id="SVGID_7_" gradientUnits="userSpaceOnUse" x1="-433.3501" y1="492.4746" x2="-433.3501" y2="560.3223" gradientTransform="matrix(1 0 0 -1 558 587)">
			<stop  offset="0" style="stop-color:#002D52"/>
			<stop  offset="0.1063" style="stop-color:#053155"/>
			<stop  offset="0.23" style="stop-color:#133D5F"/>
			<stop  offset="0.3624" style="stop-color:#2A506F"/>
			<stop  offset="0.501" style="stop-color:#4B6B85"/>
			<stop  offset="0.6443" style="stop-color:#758DA1"/>
			<stop  offset="0.7917" style="stop-color:#A9B8C4"/>
			<stop  offset="0.9396" style="stop-color:#E4E9ED"/>
			<stop  offset="1" style="stop-color:#FFFFFF"/>
		</linearGradient>
		<path fill="url(#SVGID_7_)" d="M106.75,20.5l35.5-2.3h0.5l-0.3,52.8l-35.9,2.7L106.75,20.5L106.75,20.5z M107.55,21.3l-0.2,51.4
			l34.1-2.5l0.3-51.1L107.55,21.3L107.55,21.3z"/>
		<polygon fill="#A0A0A0" points="129.65,38 127.35,37.3 127.35,37.3 129.65,37.9 		"/>
		<path fill="#A0A0A0" d="M115.75,41.5l-2.3-0.6c0.1,0,0.3,0,0.5,0l2.3,0.6C116.05,41.6,115.85,41.6,115.75,41.5z"/>
		<g>
			<path fill="#0C75AF" d="M138.95,34.7c-1.5-0.9-2-1.4-2-2.4c0-0.9,0.6-1.7,1.8-1.8c0.8-0.1,1.4,0.2,1.8,0.4l0.5-2.7
				c-0.2-0.1-0.5-0.2-0.8-0.3h0.1l-2.3-0.6c-0.4-0.1-1-0.2-1.6-0.1c-3,0.2-4.5,2.5-4.6,5.1c0,1.5,0.7,3.1,2.7,4.3
				c1.2,0.8,1.8,1.3,1.8,2.5c0,1.1-0.6,1.9-2,2c-0.2,0-0.5,0-0.7,0l-1.7-0.4l-0.4,2.7l2.3,0.6c0.5,0.3,1.6,0.5,2.7,0.5
				c2.8-0.2,4.7-2.3,4.8-5.2C141.55,37.4,140.85,35.9,138.95,34.7z M139.75,27.9c-0.1,0-0.2,0-0.2,0
				C139.65,27.8,139.75,27.8,139.75,27.9z M135.85,41.6c-0.2,0-0.3-0.1-0.5-0.1C135.45,41.5,135.65,41.6,135.85,41.6z M136.05,41.6
				c0.2,0,0.5,0,0.7,0C136.55,41.6,136.35,41.6,136.05,41.6z"/>
		</g>
		
			<linearGradient id="SVGID_8_" gradientUnits="userSpaceOnUse" x1="-421.7515" y1="551.7295" x2="-421.9978" y2="546.3091" gradientTransform="matrix(1 0 0 -1 558 587)">
			<stop  offset="0" style="stop-color:#825E26"/>
			<stop  offset="1" style="stop-color:#E2D0AC"/>
		</linearGradient>
		<path fill="url(#SVGID_8_)" d="M135.45,39.7l-2.3-0.6c0.5,0.1,1.1,0.2,1.6,0.2c1.3-0.1,2-0.9,2-2c0-1.2-0.6-1.7-1.8-2.5l2.3,0.6
			c1.2,0.8,1.8,1.3,1.8,2.5c0,1.1-0.6,1.9-2,2C136.55,39.9,135.95,39.8,135.45,39.7z"/>
		
			<linearGradient id="SVGID_9_" gradientUnits="userSpaceOnUse" x1="-424.7358" y1="545.1602" x2="-424.4895" y2="554.5197" gradientTransform="matrix(1 0 0 -1 558 587)">
			<stop  offset="0" style="stop-color:#825E26"/>
			<stop  offset="1" style="stop-color:#E2D0AC"/>
		</linearGradient>
		<polygon fill="url(#SVGID_9_)" points="134.25,42.1 131.95,41.5 132.35,38.8 134.65,39.4 		"/>
		
			<linearGradient id="SVGID_10_" gradientUnits="userSpaceOnUse" x1="-422.6396" y1="553.4463" x2="-421.3264" y2="560.3432" gradientTransform="matrix(1 0 0 -1 558 587)">
			<stop  offset="0" style="stop-color:#825E26"/>
			<stop  offset="1" style="stop-color:#E2D0AC"/>
		</linearGradient>
		<path fill="url(#SVGID_10_)" d="M139.05,26c0.6,0,1.1,0,1.6,0.1l-2.3-0.6c-0.4-0.1-1-0.2-1.6-0.1c-3,0.2-4.5,2.5-4.6,5.1
			c0,1.5,0.7,3.1,2.7,4.3l2.3,0.6c-2-1.2-2.7-2.9-2.7-4.3C134.45,28.5,136.05,26.2,139.05,26z"/>
		
			<radialGradient id="SVGID_11_" cx="-446.8291" cy="567.251" r="52.1684" gradientTransform="matrix(1 0 0 -1 558 587)" gradientUnits="userSpaceOnUse">
			<stop  offset="0.3297" style="stop-color:#EFE8B4"/>
			<stop  offset="1" style="stop-color:#D88328"/>
		</radialGradient>
		<path fill="url(#SVGID_11_)" d="M139.05,26c0.9-0.1,1.8,0.2,2.2,0.4l-0.5,2.7c-0.4-0.3-1-0.5-1.8-0.4c-1.2,0.1-1.8,0.9-1.8,1.8
			c0,1,0.4,1.4,2,2.4c1.9,1.2,2.6,2.7,2.6,4.4c0,2.9-2,5-4.8,5.2c-1.1,0.1-2.3-0.2-2.7-0.5l0.4-2.7c0.6,0.3,1.6,0.5,2.4,0.5
			c1.3-0.1,2-0.9,2-2c0-1.2-0.6-1.7-1.8-2.5c-2-1.2-2.7-2.9-2.7-4.3C134.45,28.5,136.05,26.2,139.05,26z"/>
		<g>
			<path fill="#0C75AF" d="M129.45,28l-2.4,0.2v3.6c0,0.2,0,0.4,0,0.6l-1.2-3.3l-2.3-0.6l-2.5,0.2l-0.1,16.1l2.3,0.6l2.8-0.1v-3.6
				c0-0.1,0-0.7,0-0.9l1.4,3.6l1.8,0.6l2.7-0.2l-0.1-16.1L129.45,28z M129.55,39.8L129.55,39.8L129.55,39.8L129.55,39.8z"/>
		</g>
		
			<linearGradient id="SVGID_12_" gradientUnits="userSpaceOnUse" x1="-429.6992" y1="543.9326" x2="-429.6992" y2="567.2512" gradientTransform="matrix(1 0 0 -1 558 587)">
			<stop  offset="0" style="stop-color:#825E26"/>
			<stop  offset="1" style="stop-color:#E2D0AC"/>
		</linearGradient>
		<path fill="url(#SVGID_12_)" d="M129.35,30.5v-3.6l-2.3-0.6v3.6c0,3,0.2,5.7,0.2,7.4l2.3,0.6C129.55,36.3,129.35,33.5,129.35,30.5
			z"/>
		
			<linearGradient id="SVGID_13_" gradientUnits="userSpaceOnUse" x1="-427.6035" y1="556.5928" x2="-428.6702" y2="560.9435" gradientTransform="matrix(1 0 0 -1 558 587)">
			<stop  offset="0" style="stop-color:#825E26"/>
			<stop  offset="1" style="stop-color:#E2D0AC"/>
		</linearGradient>
		<polygon fill="url(#SVGID_13_)" points="129.35,26.9 127.05,26.3 129.45,26.2 131.85,26.8 		"/>
		
			<linearGradient id="SVGID_14_" gradientUnits="userSpaceOnUse" x1="-431.7002" y1="547.5449" x2="-431.7002" y2="534.08" gradientTransform="matrix(1 0 0 -1 558 587)">
			<stop  offset="0" style="stop-color:#825E26"/>
			<stop  offset="1" style="stop-color:#E2D0AC"/>
		</linearGradient>
		<path fill="url(#SVGID_14_)" d="M127.05,37.1c-0.5-1.3-1.1-3.3-1.4-4.7l-2.3-0.6c0.3,1.4,1,3.4,1.4,4.7l2.2,6l2.3,0.6L127.05,37.1
			z"/>
		
			<linearGradient id="SVGID_15_" gradientUnits="userSpaceOnUse" x1="-433.4146" y1="555.166" x2="-434.4818" y2="559.5187" gradientTransform="matrix(1 0 0 -1 558 587)">
			<stop  offset="0" style="stop-color:#825E26"/>
			<stop  offset="1" style="stop-color:#E2D0AC"/>
		</linearGradient>
		<polygon fill="url(#SVGID_15_)" points="123.35,27.4 120.95,26.8 123.55,26.6 125.85,27.2 		"/>
		
			<linearGradient id="SVGID_16_" gradientUnits="userSpaceOnUse" x1="-435.8496" y1="543.9326" x2="-435.8496" y2="567.2508" gradientTransform="matrix(1 0 0 -1 558 587)">
			<stop  offset="0" style="stop-color:#825E26"/>
			<stop  offset="1" style="stop-color:#E2D0AC"/>
		</linearGradient>
		<polygon fill="url(#SVGID_16_)" points="123.25,43.5 120.95,42.9 120.95,26.8 123.35,27.4 		"/>
		
			<radialGradient id="SVGID_17_" cx="-446.8301" cy="567.251" r="52.169" gradientTransform="matrix(1 0 0 -1 558 587)" gradientUnits="userSpaceOnUse">
			<stop  offset="0.3297" style="stop-color:#EFE8B4"/>
			<stop  offset="1" style="stop-color:#D88328"/>
		</radialGradient>
		<path fill="url(#SVGID_17_)" d="M131.85,26.8l-0.1,16.1l-2.6,0.2l-2.2-6c-0.5-1.3-1.1-3.3-1.4-4.7l0,0c0.1,1.6,0.2,4.1,0.1,7.3
			v3.6l-2.4,0.2l0.1-16.1l2.5-0.2l2.2,6.2c0.4,1.2,1.1,3.2,1.5,4.6l0,0c-0.1-1.7-0.3-4.5-0.2-7.4V27L131.85,26.8z"/>
		<g>
			<path fill="#0C75AF" d="M118.65,31.3c-0.6-0.6-1.4-1-2.4-1.1c0.2,0,0.4,0,0.6,0.1l-2.3-0.6c-0.6-0.2-1.3-0.2-2.2-0.2
				c-1.1,0.1-2.1,0.3-2.8,0.5l-0.1,15.8l2.3,0.6c0.5,0,1.4,0.1,2.3,0c2-0.1,3.4-0.7,4.4-1.9c1.3-1.3,2-3.7,2-7
				C120.45,34.6,119.85,32.5,118.65,31.3z M114.55,33.2c0.4,0.9,0.6,2.2,0.6,3.9c0,2.1-0.3,3.5-0.7,4.5L114.55,33.2z M116.75,33.5
				c0-0.1-0.1-0.1-0.1-0.2C116.65,33.4,116.65,33.5,116.75,33.5z M115.85,30.2c-0.4,0-0.8,0-1.2,0
				C115.05,30.2,115.45,30.2,115.85,30.2z M116.35,33.1l-0.1-0.1C116.25,33,116.25,33,116.35,33.1z M115.75,32.8
				C115.75,32.7,115.75,32.7,115.75,32.8C115.75,32.7,115.75,32.7,115.75,32.8z M114.55,43.9v-0.1l0.5,0.1
				C114.85,43.9,114.65,43.9,114.55,43.9z M116.95,33.9c0,0.1,0.1,0.2,0.1,0.3C117.05,34,116.95,33.9,116.95,33.9z M117.15,34.5
				c0,0.1,0.1,0.2,0.1,0.3C117.25,34.7,117.25,34.6,117.15,34.5z M117.35,35.4c0,0.1,0,0.2,0.1,0.3
				C117.45,35.6,117.45,35.5,117.35,35.4z M117.55,36.4c0,0.1,0,0.2,0,0.3C117.55,36.6,117.55,36.5,117.55,36.4z"/>
		</g>
		
			<linearGradient id="SVGID_18_" gradientUnits="userSpaceOnUse" x1="-443.0444" y1="556.084" x2="-443.0444" y2="533.6694" gradientTransform="matrix(1 0 0 -1 558 587)">
			<stop  offset="0" style="stop-color:#825E26"/>
			<stop  offset="1" style="stop-color:#E2D0AC"/>
		</linearGradient>
		<path fill="url(#SVGID_18_)" d="M113.25,29.9l2.3,0.6c1.3,0.3,1.9,2.2,1.8,5.1c0,4.5-1.2,6-2.5,6.1l-2.3-0.6
			c1.3-0.1,2.5-1.7,2.5-6.1C115.15,32.1,114.55,30.2,113.25,29.9z"/>
		
			<linearGradient id="SVGID_19_" gradientUnits="userSpaceOnUse" x1="-435.6641" y1="557.1484" x2="-444.5309" y2="558.9548" gradientTransform="matrix(1 0 0 -1 558 587)">
			<stop  offset="0" style="stop-color:#825E26"/>
			<stop  offset="1" style="stop-color:#E2D0AC"/>
		</linearGradient>
		<path fill="url(#SVGID_19_)" d="M114.35,27.5l2.3,0.6c-0.6-0.2-1.3-0.2-2.2-0.2c-1.1,0.1-2.1,0.3-2.8,0.5l-2.3-0.6
			c0.7-0.2,1.7-0.4,2.8-0.5C113.05,27.3,113.75,27.4,114.35,27.5z"/>
		
			<linearGradient id="SVGID_20_" gradientUnits="userSpaceOnUse" x1="-447.4497" y1="540.3193" x2="-447.4497" y2="562.4889" gradientTransform="matrix(1 0 0 -1 558 587)">
			<stop  offset="0" style="stop-color:#825E26"/>
			<stop  offset="1" style="stop-color:#E2D0AC"/>
		</linearGradient>
		<polygon fill="url(#SVGID_20_)" points="111.65,44.3 109.35,43.7 109.35,27.9 111.75,28.5 		"/>
		
			<radialGradient id="SVGID_21_" cx="-446.835" cy="567.25" r="52.1745" gradientTransform="matrix(1 0 0 -1 558 587)" gradientUnits="userSpaceOnUse">
			<stop  offset="0.3297" style="stop-color:#EFE8B4"/>
			<stop  offset="1" style="stop-color:#D88328"/>
		</radialGradient>
		<path fill="url(#SVGID_21_)" d="M118.55,29.1c1.2,1.2,1.9,3.2,1.8,6.4c0,3.3-0.8,5.6-2,7c-1,1.1-2.4,1.7-4.4,1.9
			c-0.9,0.1-1.8,0-2.3,0l0.1-15.8c0.7-0.2,1.7-0.4,2.8-0.5C116.35,27.9,117.65,28.3,118.55,29.1z M114.95,41.7
			c1.3-0.1,2.5-1.7,2.5-6.1c0-3.3-0.7-5.3-2.4-5.1c-0.2,0-0.4,0-0.6,0.1v11.1C114.55,41.7,114.75,41.7,114.95,41.7"/>
	</g>
</g>
<path id="Background" fill="none" d="M239.5,109.5c0,5.52-4.48,10-10,10H9.5c-5.52,0-10-4.48-10-10V9.5c0-5.52,4.48-10,10-10h220
	c5.52,0,10,4.48,10,10V109.5z"/>
</g>

</svg>
