<?xml version="1.0" encoding="utf-8"?>
<!DOCTYPE svg PUBLIC "-//W3C//DTD SVG 1.0//EN" "http://www.w3.org/TR/2001/REC-SVG-20010904/DTD/svg10.dtd" [
<!ENTITY ns_svg "http://www.w3.org/2000/svg">
<!ENTITY ns_xlink "http://www.w3.org/1999/xlink">
]>
<svg xmlns="&ns_svg;" xmlns:xlink="&ns_xlink;" width="240" height="120" viewBox="0 0 240 120" overflow="visible" enable-background="new 0 0 240 120" xml:space="preserve">

<g id="Layer_1">

<path id="template" display="none" fill="none" d="M239.5,109.5c0,5.5-4.5,10-10,10H9.5c-5.5,0-10-4.5-10-10V9.5c0-5.5,4.5-10,10-10
	h220c5.5,0,10,4.5,10,10V109.5z"/>
<linearGradient id="DECAL_AREA_1_" gradientUnits="userSpaceOnUse" x1="57.5" y1="-450" x2="57.5" y2="-402" gradientTransform="matrix(1 0 0 -1 12 -380)">
	<stop  offset="0" style="stop-color:#6B47B3"/>
	<stop  offset="1" style="stop-color:#3E0F9A"/>
</linearGradient>
<path id="DECAL_AREA_2_" fill="url(#DECAL_AREA_1_)" d="M117.5,64c0,3.3-2.7,6-6,6h-84c-3.3,0-6-2.7-6-6V28c0-3.3,2.7-6,6-6h84
	c3.3,0,6,2.7,6,6V64z"/>
<path id="DECAL_AREA_3_" fill="#2A2433" stroke="#2F1E4C" d="M117.5,50.5v14c0,3.3-2.7,6-6,6h-84c-3.3,0-6-2.7-6-6v-14H117.5z"/>
<linearGradient id="Reflection_2_" gradientUnits="userSpaceOnUse" x1="57.5" y1="-417.7666" x2="57.5" y2="-401.7666" gradientTransform="matrix(1 0 0 -1 12 -380)">
	<stop  offset="0" style="stop-color:#512D99"/>
	<stop  offset="1" style="stop-color:#8866CC"/>
</linearGradient>
<path id="Reflection_1_" fill="url(#Reflection_2_)" d="M117.5,31.8c0,3.3-2.7,6-6,6h-84c-3.3,0-6-2.7-6-6v-4c0-3.3,2.7-6,6-6h84
	c3.3,0,6,2.7,6,6V31.8z"/>
<path id="DecalBorder" fill="none" stroke="#2D1D4C" stroke-width="2" d="M117.5,64c0,3.3-2.7,6-6,6h-84c-3.3,0-6-2.7-6-6V28
	c0-3.3,2.7-6,6-6h84c3.3,0,6,2.7,6,6V64z"/>
<g>
	<path fill="#F6F2FF" d="M25.9,29.3h2.3l1.9,11.1h0L32,29.3h2.4l1.9,11.2h0l1.9-11.2h2.3l-2.8,14.3H35l-1.8-10.8h0l-1.8,10.8h-2.6
		L25.9,29.3z"/>
	<path fill="#F6F2FF" d="M43.1,38.4V39c0,1.4,0.2,3.3,1.8,3.3c1.5,0,1.7-1.8,1.7-2.4h2c0,2.4-1.4,3.9-3.8,3.9
		c-1.8,0-3.9-0.5-3.9-5.5c0-2.8,0.6-5.8,4-5.8c3,0,3.8,1.8,3.8,4.8v1.1H43.1z M46.5,36.9v-0.6c0-1.4-0.4-2.4-1.7-2.4
		c-1.4,0-1.8,1.4-1.8,2.8v0.2H46.5z"/>
	<path fill="#F6F2FF" d="M50.3,29.3h2.2V34h0c0.4-1,1.3-1.5,2.4-1.5c1.6,0,3.3,0.7,3.3,5.5c0,3.7-1,5.8-3.5,5.8
		c-1.5,0-2.1-0.9-2.4-1.6h0v1.3h-2V29.3z M54.2,42.1c1.5,0,1.8-1.5,1.8-4c0-2.9-0.4-3.9-1.7-3.9c-1.7,0-2,1.5-2,4.1
		C52.4,40.6,52.7,42.1,54.2,42.1z"/>
	<path fill="#F6F2FF" d="M61.9,39.1v0.4c0,1.7,0.8,2.6,2.3,2.6c1.4,0,2.2-1,2.2-2.1c0-1.5-0.8-2.2-2-2.5l-1.6-0.5
		c-2.1-0.8-3-1.9-3-3.9c0-2.6,1.8-4,4.4-4c3.7,0,4,2.3,4,3.8V33H66v-0.3c0-1.3-0.6-2.1-2-2.1c-1,0-1.9,0.5-1.9,2.1
		c0,1.2,0.6,1.8,2.1,2.4l1.5,0.6c2,0.7,2.9,1.8,2.9,3.8c0,3-1.8,4.3-4.7,4.3c-3.5,0-4.3-2.4-4.3-4.4v-0.3H61.9z"/>
	<path fill="#F6F2FF" d="M70.3,32.8h2v1.3h0c0.4-1,1.2-1.6,2.4-1.6c2.5,0,3.5,2.1,3.5,5.8c0,4.5-1.8,5.5-3.3,5.5
		c-1.2,0-2-0.6-2.4-1.5h0V47h-2.2V32.8z M74.2,42.1c1.2,0,1.8-0.9,1.8-3.9c0-2.4-0.3-4-1.8-4c-1.5,0-1.8,1.5-1.8,3.8
		C72.3,40.6,72.6,42.1,74.2,42.1z"/>
	<path fill="#F6F2FF" d="M79.8,29.3H82v4.7l0.1,0c0.6-0.9,1.5-1.5,2.6-1.5c1.6,0,2.7,0.7,2.7,2.9v8.1h-2.2v-7.4
		c0-1.4-0.4-1.9-1.5-1.9c-0.9,0-1.7,0.7-1.7,2.1v7.2h-2.2V29.3z"/>
	<path fill="#F6F2FF" d="M91.1,38.4V39c0,1.4,0.2,3.3,1.8,3.3c1.5,0,1.7-1.8,1.7-2.4h2c0,2.4-1.4,3.9-3.8,3.9
		c-1.8,0-3.9-0.5-3.9-5.5c0-2.8,0.6-5.8,4-5.8c3,0,3.8,1.8,3.8,4.8v1.1H91.1z M94.6,36.9v-0.6c0-1.4-0.4-2.4-1.7-2.4
		c-1.4,0-1.8,1.4-1.8,2.8v0.2H94.6z"/>
	<path fill="#F6F2FF" d="M98.4,32.8h2.2v1.7h0c0.5-1.2,1.3-2,2.5-2c0.2,0,0.4,0,0.5,0.1v2.2c-0.2,0-0.5-0.1-0.9-0.1
		c-1,0-2.2,0.4-2.2,2.4v6.4h-2.2V32.8z"/>
	<path fill="#F6F2FF" d="M106.6,38.4V39c0,1.4,0.2,3.3,1.8,3.3c1.5,0,1.7-1.8,1.7-2.4h2c0,2.4-1.4,3.9-3.8,3.9
		c-1.8,0-3.9-0.5-3.9-5.5c0-2.8,0.6-5.8,4-5.8c3,0,3.8,1.8,3.8,4.8v1.1H106.6z M110,36.9v-0.6c0-1.4-0.4-2.4-1.7-2.4
		c-1.4,0-1.8,1.4-1.8,2.8v0.2H110z"/>
</g>
<g id="Layer_2">
	<g>
		<path fill="#B0A3CC" d="M58.7,52.5h3.9l1.8,9.1h0l1.9-9.1h3.8v12.9h-2.4V55.1h0l-2.3,10.3h-2l-2.3-10.3h0v10.3h-2.4V52.5z"/>
		<path fill="#B0A3CC" d="M79.2,66.9l-1.5-1.6c-0.2,0.1-0.5,0.2-0.8,0.2c-0.3,0-0.6,0.1-0.9,0.1c-3.9,0-4.4-2.8-4.4-6.7
			c0-3.9,0.5-6.7,4.4-6.7c3.9,0,4.4,2.8,4.4,6.7c0,2.2-0.1,4-1,5.2l1.4,1.4L79.2,66.9z M76,63.7c1.5,0,1.8-1.3,1.8-4.8
			c0-3.4-0.3-4.8-1.8-4.8c-1.5,0-1.8,1.3-1.8,4.8C74.2,62.4,74.5,63.7,76,63.7z"/>
	</g>
</g>


<polygon fill="#262626" points="222.28,31.43 222.29,27.62 218.8,26.71 218.66,26.71 218.63,26.71 213.25,27.08 196.23,18.87 
	193.74,18.22 175.16,29.73 169.56,30.11 169.55,30.14 169.48,30.15 167.14,30.32 167.11,34.71 164.21,36.51 164.07,69.88 
	167.57,70.8 225.01,66.79 225.16,32.82 "/>
<polygon fill="#A2A2A2" points="219.72,36.21 218.52,35.9 221.42,34.1 222.62,34.41 "/>
<polygon fill="#858585" points="219.72,36.21 218.52,35.9 218.53,32.71 219.73,33.02 "/>
<linearGradient id="SVGID_1_" gradientUnits="userSpaceOnUse" x1="219.7188" y1="34.6147" x2="222.6221" y2="34.6147">
	<stop  offset="0" style="stop-color:#B5C7DC"/>
	<stop  offset="0.7462" style="stop-color:#518AB3"/>
</linearGradient>
<polygon fill="url(#SVGID_1_)" points="219.73,33.02 222.62,34.41 219.72,36.21 "/>
<polygon fill="#8C8C8C" points="213.5,30.01 212.3,29.7 218.55,29.26 219.75,29.57 "/>
<linearGradient id="SVGID_2_" gradientUnits="userSpaceOnUse" x1="203.6475" y1="34.7339" x2="223.5384" y2="65.0872">
	<stop  offset="0.269" style="stop-color:#8BB0DC"/>
	<stop  offset="0.8426" style="stop-color:#276DA1"/>
</linearGradient>
<polygon fill="url(#SVGID_2_)" points="219.72,36.21 222.62,34.41 222.49,64.42 195.33,51.33 "/>
<polygon fill="#808080" points="222.49,64.42 221.29,64.11 194.13,51.01 195.33,51.33 "/>
<polygon fill="#808080" points="195.33,51.33 194.13,51.01 194.02,50.96 195.22,51.27 "/>
<linearGradient id="SVGID_3_" gradientUnits="userSpaceOnUse" x1="162.6084" y1="50.8628" x2="217.1046" y2="76.5007">
	<stop  offset="0.269" style="stop-color:#8BB0DC"/>
	<stop  offset="0.8426" style="stop-color:#276DA1"/>
</linearGradient>
<polygon fill="url(#SVGID_3_)" points="195.22,51.27 195.33,51.33 222.49,64.42 167.81,68.25 195.11,51.34 "/>
<polygon fill="#A2A2A2" points="218.52,35.9 194.16,51 195.22,51.27 195.33,51.33 194.13,51.01 194.13,51.01 195.33,51.33 
	219.72,36.21 "/>
<polygon fill="#A2A2A2" points="195.11,51.34 193.91,51.03 194.02,50.96 195.22,51.27 "/>
<polygon fill="#A2A2A2" points="167.81,68.25 166.61,67.93 193.91,51.03 195.11,51.34 "/>
<polygon fill="#9F9F9F" points="177.12,32.55 175.92,32.24 212.3,29.7 213.5,30.01 "/>
<linearGradient id="SVGID_4_" gradientUnits="userSpaceOnUse" x1="177.1152" y1="26.9082" x2="213.4961" y2="26.9082">
	<stop  offset="0.269" style="stop-color:#8BB0DC"/>
	<stop  offset="0.8426" style="stop-color:#276DA1"/>
</linearGradient>
<polygon fill="url(#SVGID_4_)" points="177.12,32.56 195.35,21.26 213.5,30.01 "/>
<polygon fill="#B2B2B2" points="177.12,32.56 175.92,32.24 194.15,20.95 195.35,21.26 "/>
<polygon fill="#808080" points="195.11,51.34 193.91,51.03 169.63,39.31 170.83,39.63 "/>
<polygon fill="#858585" points="170.83,39.63 169.63,39.31 169.65,36.12 170.85,36.44 "/>
<polygon fill="#B2B2B2" points="170.86,32.99 169.66,32.68 175.92,32.24 177.12,32.55 "/>
<polygon fill="#B2B2B2" points="170.85,36.44 169.65,36.12 169.66,32.68 170.86,32.99 "/>
<linearGradient id="SVGID_5_" gradientUnits="userSpaceOnUse" x1="189.7646" y1="24.9658" x2="207.5356" y2="55.9507">
	<stop  offset="0.3401" style="stop-color:#FFFFFF"/>
	<stop  offset="0.4157" style="stop-color:#F9F9F9"/>
	<stop  offset="0.5214" style="stop-color:#E6E6E6"/>
	<stop  offset="0.6445" style="stop-color:#C9C9C9"/>
	<stop  offset="0.7208" style="stop-color:#B2B2B2"/>
</linearGradient>
<polygon fill="url(#SVGID_5_)" points="219.75,29.57 219.73,33.02 219.72,36.21 195.33,51.33 195.22,51.27 195.11,51.34 
	170.83,39.63 170.85,36.44 170.86,32.99 177.12,32.55 213.5,30.01 "/>
<polygon fill="#B2B2B2" points="167.81,68.25 166.61,67.93 166.75,37.92 167.94,38.24 "/>
<polygon fill="#BFBFBF" points="170.83,39.63 169.63,39.32 166.75,37.92 167.94,38.24 "/>
<polygon fill="#B2B2B2" points="167.94,38.24 166.75,37.92 169.65,36.12 170.85,36.44 "/>
<linearGradient id="SVGID_6_" gradientUnits="userSpaceOnUse" x1="167.1172" y1="35.7207" x2="179.7663" y2="44.6907">
	<stop  offset="0" style="stop-color:#B5C7DC"/>
	<stop  offset="0.7462" style="stop-color:#518AB3"/>
</linearGradient>
<polygon fill="url(#SVGID_6_)" points="170.83,39.63 167.94,38.24 170.85,36.44 "/>
<linearGradient id="SVGID_7_" gradientUnits="userSpaceOnUse" x1="162.0371" y1="50.561" x2="189.8607" y2="63.3225">
	<stop  offset="0.269" style="stop-color:#8BB0DC"/>
	<stop  offset="0.8426" style="stop-color:#276DA1"/>
</linearGradient>
<polygon fill="url(#SVGID_7_)" points="170.83,39.63 195.11,51.34 167.81,68.25 167.94,38.24 "/>
<linearGradient id="SVGID_8_" gradientUnits="userSpaceOnUse" x1="169.7334" y1="31.1089" x2="219.6436" y2="31.1089">
	<stop  offset="0" style="stop-color:#B2B2B2"/>
	<stop  offset="0.3359" style="stop-color:#AFAFAF"/>
	<stop  offset="0.6419" style="stop-color:#A4A4A4"/>
	<stop  offset="0.9354" style="stop-color:#919191"/>
	<stop  offset="1" style="stop-color:#8C8C8C"/>
</linearGradient>
<polygon fill="url(#SVGID_8_)" points="170.93,32.96 169.73,32.64 218.44,29.26 219.64,29.57 "/>
</g>

</svg>
