<?xml version="1.0" encoding="utf-8"?>
<!DOCTYPE svg PUBLIC "-//W3C//DTD SVG 1.0//EN" "http://www.w3.org/TR/2001/REC-SVG-20010904/DTD/svg10.dtd" [
<!ENTITY ns_svg "http://www.w3.org/2000/svg">
<!ENTITY ns_xlink "http://www.w3.org/1999/xlink">
]>
<svg xmlns="&ns_svg;" xmlns:xlink="&ns_xlink;" width="240" height="120" viewBox="0 0 240 120" overflow="visible" enable-background="new 0 0 240 120" xml:space="preserve">

<g id="Layer_1">

<path id="template" fill="none" d="M239.5,109.5c0,5.5-4.5,10-10,10H9.5c-5.5,0-10-4.5-10-10V9.5c0-5.5,4.5-10,10-10h220
	c5.5,0,10,4.5,10,10V109.5z"/>
<linearGradient id="DECAL_AREA_1_" gradientUnits="userSpaceOnUse" x1="61.7998" y1="563" x2="61.7998" y2="515" gradientTransform="matrix(1 0 0 1 8 -493)">
	<stop  offset="0" style="stop-color:#47B149"/>
	<stop  offset="1" style="stop-color:#21813F"/>
</linearGradient>
<path id="DECAL_AREA_2_" fill="url(#DECAL_AREA_1_)" d="M117.8,64c0,3.3-2.7,6-6,6h-84c-3.3,0-6-2.7-6-6V28c0-3.3,2.7-6,6-6h84
	c3.3,0,6,2.7,6,6V64z"/>
<linearGradient id="Reflection_2_" gradientUnits="userSpaceOnUse" x1="61.7998" y1="538.75" x2="61.7998" y2="514.75" gradientTransform="matrix(1 0 0 1 8 -493)">
	<stop  offset="0" style="stop-color:#3C9946"/>
	<stop  offset="1" style="stop-color:#88C985"/>
</linearGradient>
<path id="Reflection_1_" fill="url(#Reflection_2_)" d="M117.8,39.8c0,3.3-2.7,6-6,6h-84c-3.3,0-6-2.7-6-6v-12c0-3.3,2.7-6,6-6h84
	c3.3,0,6,2.7,6,6V39.8z"/>
<path id="DecalBorder" fill="none" stroke="#1B6634" stroke-width="2" d="M117.8,64c0,3.3-2.7,6-6,6h-84c-3.3,0-6-2.7-6-6V28
	c0-3.3,2.7-6,6-6h84c3.3,0,6,2.7,6,6V64z"/>
<g id="Windows">
	<path fill="#FFFFFF" d="M27.6,36.9h2.8l2.3,13.3l0,0L35,36.9h2.9l2.3,13.4l0,0l2.2-13.4h2.7L41.7,54h-3.2l-2.2-12.9l0,0L34.1,54
		h-3.2L27.6,36.9z"/>
	<path fill="#FFFFFF" d="M46.6,36.7h2.6v2.6h-2.6V36.7z M46.6,41.1h2.6V54h-2.6V41.1z"/>
	<path fill="#FFFFFF" d="M51.8,41.1h2.4v1.5h0.1c0.6-1.2,1.9-1.8,3.3-1.8c2,0,3.2,0.9,3.2,3.5V54h-2.6v-8.9c0-1.7-0.5-2.3-1.8-2.3
		c-1.1,0-2.1,0.8-2.1,2.5V54h-2.6L51.8,41.1L51.8,41.1z"/>
	<path fill="#FFFFFF" d="M70,52.4L70,52.4c-0.4,0.8-1,1.9-2.9,1.9c-3,0-4.2-2.5-4.2-7c0-5.7,2-6.6,4-6.6c1.4,0,2.4,0.7,2.9,1.8l0,0
		v-5.7h2.6V54H70V52.4z M67.6,42.8c-1.5,0-2,1.2-2,4.7c0,2.9,0.4,4.8,2.2,4.8c1.8,0,2.2-1.8,2.2-4.6C70,44.6,69.6,42.8,67.6,42.8z"
		/>
	<path fill="#FFFFFF" d="M79.2,40.8c3.8,0,4.8,2.8,4.8,6.8s-1.2,6.8-4.8,6.8c-3.6,0-4.8-2.8-4.8-6.8S75.5,40.8,79.2,40.8z
		 M79.2,52.4c1.9,0,2.2-1.6,2.2-4.9c0-2.9-0.3-4.9-2.2-4.9c-1.9,0-2.2,2-2.2,4.9C77,50.8,77.3,52.4,79.2,52.4z"/>
	<path fill="#FFFFFF" d="M85,41.1h2.7l1.8,10.2l0,0l1.9-10.2h2.9l1.9,10.2l0,0L98,41.1h2.6l-3,12.9h-2.9l-2-10l0,0l-1.8,10h-3
		L85,41.1z"/>
	<path fill="#FFFFFF" d="M107.9,44.9v-0.3c0-1-0.4-2-1.7-2c-1,0-1.8,0.5-1.8,1.7c0,1,0.5,1.4,1.8,1.9l1.7,0.6
		c1.9,0.6,2.8,1.7,2.8,3.7c0,2.8-2,3.9-4.6,3.9c-3.3,0-4.2-1.5-4.2-4v-0.5h2.3v0.4c0,1.5,0.5,2.3,2,2.3c1.4,0,2.1-0.7,2.1-1.9
		c0-1-0.5-1.6-1.4-1.9l-2.1-0.7c-1.9-0.7-2.8-1.7-2.8-3.7c0-2.4,1.8-3.6,4.4-3.6c3.3,0,4,1.9,4,3.5v0.6H107.9z"/>
</g>

<path id="Background" fill="none" d="M239.75,110c0,5.52-4.48,10-10,10h-220c-5.52,0-10-4.48-10-10V10c0-5.52,4.48-10,10-10h220
	c5.52,0,10,4.48,10,10V110z"/>
<path fill="#272626" d="M223.38,41.92l-1.31-0.36l0.04-10.62c0-0.56-0.23-1.09-0.64-1.47c-0.2-0.19-0.43-0.33-0.68-0.42
	c-0.11-0.3-0.28-0.57-0.52-0.78c-0.41-0.38-0.96-0.57-1.52-0.53l-6.37,0.49c-0.1-0.32-0.29-0.61-0.54-0.84
	c-0.2-0.19-0.43-0.33-0.69-0.42c-0.11-0.3-0.28-0.57-0.52-0.78c-0.41-0.38-0.96-0.57-1.52-0.53l-6.37,0.49
	c-0.1-0.32-0.29-0.61-0.54-0.84c-0.2-0.18-0.43-0.33-0.68-0.42c-0.11-0.3-0.28-0.57-0.52-0.79c-0.41-0.38-0.96-0.57-1.52-0.53
	l-6.37,0.49c-0.1-0.32-0.29-0.61-0.54-0.84c-0.41-0.38-0.96-0.57-1.52-0.53l-24.59,1.89c-1.04,0.08-1.84,0.94-1.85,1.99l-0.04,9.61
	c-0.84,0.18-1.48,0.89-1.56,1.76c-0.01,0.08-0.01,0.16-0.01,0.24l-0.18,19.07l-0.03,3.13l-0.01,1.18v0.02c0,0.9,0.6,1.69,1.47,1.93
	l10.76,2.94c0.05,0.01,0.09,0.02,0.14,0.03l17.49,4.78c0.17,0.05,0.36,0.07,0.54,0.07c0.04,0,0.08,0,0.13,0l29.43-2.06
	c1.04-0.07,1.85-0.93,1.86-1.98l0.22-23.42C224.86,42.95,224.26,42.16,223.38,41.92z"/>
<polygon fill="#A67E53" points="193.43,45.9 165.04,38.15 194.47,36.09 222.86,43.85 "/>
<polygon fill="#C49A6C" points="194.14,36.09 165.04,38.13 193.43,45.88 194.14,45.83 "/>
<polygon fill="#FFFFFF" points="191.24,24.68 191.1,59.6 166.51,61.49 166.65,26.57 "/>
<polygon fill="#B2B2B2" points="199.67,25.56 199.52,60.48 174.93,62.37 175.07,27.45 "/>
<polygon fill="#FFFFFF" points="200.87,26.76 200.73,61.68 176.13,63.57 176.28,28.66 "/>
<polygon fill="#B2B2B2" points="209.29,27.65 209.15,62.57 184.56,64.46 184.7,29.54 "/>
<polygon fill="#FFFFFF" points="210.5,28.85 210.35,63.77 185.76,65.66 185.9,30.74 "/>
<polygon fill="#B2B2B2" points="218.92,29.73 218.78,64.65 194.18,66.54 194.32,31.63 "/>
<polygon fill="#FFFFFF" points="220.12,30.94 219.98,65.86 195.39,67.75 195.53,32.83 "/>
<linearGradient id="SVGID_1_" gradientUnits="userSpaceOnUse" x1="439.292" y1="1075.792" x2="467.3839" y2="1106.1448" gradientTransform="matrix(1 0 0 1 -274 -1037)">
	<stop  offset="0" style="stop-color:#C49A6C"/>
	<stop  offset="1" style="stop-color:#8B6339"/>
</linearGradient>
<polygon fill="url(#SVGID_1_)" points="193.2,69.32 164.82,61.57 165.04,38.15 193.43,45.9 "/>
<linearGradient id="SVGID_2_" gradientUnits="userSpaceOnUse" x1="496.8145" y1="1103.2246" x2="467.5912" y2="1084.1722" gradientTransform="matrix(1 0 0 1 -274 -1037)">
	<stop  offset="0" style="stop-color:#754D24"/>
	<stop  offset="1" style="stop-color:#8B6339"/>
</linearGradient>
<polygon fill="url(#SVGID_2_)" points="222.86,43.85 222.64,67.27 193.2,69.32 193.43,45.9 "/>
<linearGradient id="SVGID_3_" gradientUnits="userSpaceOnUse" x1="439.0381" y1="1075.292" x2="467.1398" y2="1106.1201" gradientTransform="matrix(1 0 0 1 -274 -1037)">
	<stop  offset="0.3096" style="stop-color:#AD8860"/>
	<stop  offset="0.6193" style="stop-color:#AB8156"/>
	<stop  offset="1" style="stop-color:#8B6339"/>
</linearGradient>
<polygon fill="url(#SVGID_3_)" points="164.86,57.26 164.82,61.57 175.58,64.51 193.34,54.92 193.43,45.91 188.01,44.43 "/>
<g>
	<polygon fill="#A67E53" points="214.42,48.52 214.34,56.72 204.05,57.43 204.13,49.24 	"/>
	<path fill="#603A17" d="M203.63,57.88c-0.12-0.12-0.19-0.28-0.19-0.45l0,0l0.08-8.19c0-0.32,0.25-0.58,0.57-0.6l0,0l10.29-0.72
		c0.17-0.01,0.34,0.05,0.46,0.17l0,0c0.12,0.12,0.19,0.28,0.19,0.45l0,0l-0.08,8.19c0,0.32-0.25,0.58-0.57,0.6l0,0l-10.29,0.72
		c-0.02,0-0.03,0-0.04,0l0,0C203.89,58.04,203.74,57.99,203.63,57.88L203.63,57.88z M204.73,49.81l-0.06,6.97l9.07-0.63l0.07-6.97
		L204.73,49.81L204.73,49.81z"/>
</g>
<circle fill="#603A17" cx="179.6" cy="53.98" r="3.16"/>
<radialGradient id="SVGID_4_" cx="452.6475" cy="1090.4922" r="3.1641" fx="451.0224" fy="1088.1147" gradientTransform="matrix(1 0 0 1 -274 -1037)" gradientUnits="userSpaceOnUse">
	<stop  offset="0" style="stop-color:#C49A6C"/>
	<stop  offset="1" style="stop-color:#8B6339"/>
</radialGradient>
<circle fill="url(#SVGID_4_)" cx="178.65" cy="53.49" r="3.16"/>
<linearGradient id="SVGID_5_" gradientUnits="userSpaceOnUse" x1="462.6777" y1="1078.8242" x2="477.7097" y2="1091.6941" gradientTransform="matrix(1 0 0 1 -274 -1037)">
	<stop  offset="0.3096" style="stop-color:#C49A6C"/>
	<stop  offset="0.6193" style="stop-color:#AB8156"/>
	<stop  offset="1" style="stop-color:#8B6339"/>
</linearGradient>
<polygon fill="url(#SVGID_5_)" points="203.13,45.23 193.43,45.91 193.34,54.79 "/>
</g>

</svg>
