<?xml version="1.0" encoding="utf-8"?>
<!DOCTYPE svg PUBLIC "-//W3C//DTD SVG 1.0//EN" "http://www.w3.org/TR/2001/REC-SVG-20010904/DTD/svg10.dtd" [
<!ENTITY ns_svg "http://www.w3.org/2000/svg">
<!ENTITY ns_xlink "http://www.w3.org/1999/xlink">
]>
<svg xmlns="&ns_svg;" xmlns:xlink="&ns_xlink;" width="240" height="120" viewBox="0 0 240 120" overflow="visible" enable-background="new 0 0 240 120" xml:space="preserve">

<g id="Layer_1">

<defs>
</defs>
<path id="Background_1_" fill="none" d="M240,110c0,5.523-4.478,10-10,10H10c-5.523,0-10-4.477-10-10V10C0,4.477,4.477,0,10,0h220
	c5.522,0,10,4.477,10,10V110z"/>
<path fill="#262626" d="M149.01,21.351l-4.148-1.083c-0.215-0.056-0.428-0.077-0.65-0.061l-52.664,3.797
	c-1.043,0.075-1.851,0.943-1.855,1.986l-0.197,44.681c-0.004,0.732,0.392,1.405,1.034,1.759l2.03,1.118
	c0.293,0.162,0.637,0.25,0.977,0.25c0.043,0,0.086-0.002,0.128-0.005l54.784-3.832c1.047-0.072,1.855-0.937,1.859-1.985
	l0.176-39.446c0.016-0.101,0.023-0.205,0.023-0.31v-4.934C150.506,22.375,149.893,21.582,149.01,21.351z"/>
<linearGradient id="SVGID_1_" gradientUnits="userSpaceOnUse" x1="92.6094" y1="27.0127" x2="92.6094" y2="70.9952">
	<stop  offset="0" style="stop-color:#CDCCCB"/>
	<stop  offset="1" style="stop-color:#A6A5A5"/>
</linearGradient>
<polygon fill="url(#SVGID_1_)" points="93.525,71.798 91.497,70.68 91.693,26 93.722,27.118 "/>
<linearGradient id="SVGID_2_" gradientUnits="userSpaceOnUse" x1="91.6724" y1="29.1963" x2="93.7222" y2="29.1963">
	<stop  offset="0" style="stop-color:#78A9C8"/>
	<stop  offset="1" style="stop-color:#84B5D4"/>
</linearGradient>
<polygon fill="url(#SVGID_2_)" points="93.683,32.393 91.672,31.278 91.693,26 93.722,27.118 "/>
<polygon fill="#84B5D4" points="93.722,27.118 91.693,26 144.359,22.203 148.506,23.287 "/>
<linearGradient id="SVGID_3_" gradientUnits="userSpaceOnUse" x1="121.0156" y1="28.6436" x2="121.0156" y2="69.9302">
	<stop  offset="0" style="stop-color:#FFFFFF"/>
	<stop  offset="1" style="stop-color:#E5E5E5"/>
</linearGradient>
<polygon fill="url(#SVGID_3_)" points="148.506,23.287 148.311,67.967 93.525,71.798 93.722,27.118 "/>
<linearGradient id="SVGID_4_" gradientUnits="userSpaceOnUse" x1="93.6323" y1="27.8345" x2="148.5078" y2="27.8345">
	<stop  offset="0" style="stop-color:#78A9C8"/>
	<stop  offset="1" style="stop-color:#5C91B4"/>
</linearGradient>
<polygon fill="url(#SVGID_4_)" points="148.506,23.287 148.508,28.221 93.632,32.382 93.654,27.091 "/>
<linearGradient id="SVGID_5_" gradientUnits="userSpaceOnUse" x1="146.2031" y1="27.2744" x2="146.2031" y2="24.4442">
	<stop  offset="0" style="stop-color:#BABABA"/>
	<stop  offset="1" style="stop-color:#E5E5E5"/>
</linearGradient>
<polygon fill="url(#SVGID_5_)" points="147.496,24.442 147.496,27.213 144.91,27.402 144.912,24.639 "/>
<linearGradient id="SVGID_6_" gradientUnits="userSpaceOnUse" x1="142.5273" y1="27.5728" x2="142.5273" y2="24.744">
	<stop  offset="0" style="stop-color:#BABABA"/>
	<stop  offset="1" style="stop-color:#E5E5E5"/>
</linearGradient>
<polygon fill="url(#SVGID_6_)" points="143.818,24.742 143.82,27.512 141.234,27.701 141.236,24.938 "/>
<path fill="#666666" d="M128.078,66.986c-0.133,0-0.256-0.027-0.373-0.072l0,0l-1.457-0.441c-0.355-0.109-0.619-0.404-0.684-0.77
	l0,0l-0.002-0.013l-0.033,0.037c-0.289,0.32-0.748,0.409-1.129,0.238l0,0l-1.531-0.457l-0.246-0.107
	c-0.348-0.219-0.658-0.451-0.943-0.702l0,0c-0.316-0.273-0.424-0.717-0.271-1.104l0,0l0.424-1.077
	c-0.049-0.063-0.098-0.126-0.145-0.192l0,0c-0.072-0.009-0.143-0.027-0.211-0.054l0,0l-1.541-0.473
	c-0.296-0.088-0.531-0.315-0.638-0.605l0,0c-0.146-0.397-0.26-0.791-0.347-1.184l0,0c-0.088-0.389,0.065-0.793,0.392-1.021l0,0
	l0.891-0.627c-0.017-0.212-0.025-0.427-0.025-0.644l0,0c0.002-0.024,0.002-0.046,0.005-0.062l0,0
	c0.001-0.206,0.01-0.399,0.026-0.587l0,0l-0.771-0.421c-0.058-0.031-0.111-0.068-0.158-0.108l0,0
	c-0.103-0.031-0.197-0.077-0.284-0.135l0,0c-0.128,0.048-0.257,0.097-0.389,0.141l0,0l-0.339,1.868
	c-0.079,0.423-0.423,0.745-0.85,0.799l0,0l-0.109,0.011c-0.297,0.048-0.582,0.074-0.862,0.095l0,0
	c-0.222,0.017-0.432,0.023-0.623,0.026l0,0l-0.161,0.004c-0.159,0.005-0.313-0.029-0.448-0.094l0,0l-2.042-0.614
	c-0.354-0.111-0.618-0.404-0.683-0.769l0,0l-0.15-0.82l-0.598,0.651c-0.293,0.321-0.76,0.409-1.146,0.226l0,0l-2.188-0.645
	l-0.237-0.108c-0.483-0.299-0.906-0.617-1.299-0.956l0,0c-0.318-0.271-0.429-0.717-0.272-1.108l0,0l0.688-1.739
	c-0.157-0.189-0.304-0.385-0.442-0.58l0,0c-0.151,0.002-0.301-0.03-0.434-0.091l0,0l-2.146-0.654
	c-0.292-0.089-0.526-0.311-0.634-0.602l0,0c-0.203-0.552-0.354-1.095-0.474-1.638l0,0c-0.088-0.39,0.067-0.792,0.393-1.02l0,0
	l1.438-1.014c-0.031-0.354-0.05-0.715-0.05-1.083l0,0c0-0.055,0.002-0.088,0.002-0.057l0,0c0.003-0.393,0.023-0.756,0.063-1.115l0,0
	l-1.319-0.723c-0.386-0.211-0.585-0.657-0.487-1.088l0,0c0.143-0.599,0.303-1.154,0.506-1.699l0,0
	c0.15-0.406,0.547-0.663,0.979-0.641l0,0l1.526,0.086c0.335-0.651,0.727-1.267,1.173-1.832l0,0l-0.684-1.594
	c-0.16-0.373-0.076-0.803,0.211-1.087l0,0c0.431-0.428,0.86-0.801,1.304-1.139l0,0c0.231-0.175,0.522-0.238,0.805-0.178l0,0
	l2.347,0.511c0.174,0.037,0.332,0.121,0.464,0.241l0,0c0.129-0.048,0.261-0.091,0.394-0.133l0,0l0.31-1.807
	c0.069-0.424,0.41-0.753,0.834-0.812l0,0c0.272-0.04,0.505-0.061,0.732-0.077l0,0c0.245-0.02,0.485-0.025,0.715-0.025l0,0
	c0.075,0,0.148,0,0.219,0.003l0,0l0.211,0.028l2.222,0.547c0.465,0.02,0.847,0.362,0.928,0.821l0,0l0.115,0.701l0.352-0.404
	c0.245-0.283,0.627-0.4,0.99-0.307l0,0l2.084,0.542c0.164,0.008,0.326,0.06,0.471,0.153l0,0l0.137,0.091
	c0.441,0.284,0.859,0.604,1.258,0.953l0,0l0.104,0.091c0.188,0.167,0.301,0.394,0.326,0.633l0,0l0.109,0.005
	c0.172-0.308,0.357-0.604,0.566-0.882l0,0l-0.365-0.848c-0.158-0.369-0.074-0.802,0.209-1.087l0,0
	c0.295-0.292,0.59-0.546,0.891-0.773l0,0c0.229-0.172,0.521-0.234,0.801-0.174l0,0l1.521,0.329c0.068,0.014,0.131,0.034,0.193,0.062
	l0,0l0.152-0.886c0.068-0.413,0.396-0.739,0.811-0.806l0,0c0.205-0.036,0.383-0.05,0.498-0.056l0,0
	c0.207-0.02,0.391-0.022,0.555-0.022l0,0c0.025,0,0.063,0,0.104,0.003l0,0l0.221,0.028l1.416,0.352
	c0.379,0.037,0.701,0.285,0.832,0.636l0,0c0.223-0.128,0.49-0.167,0.744-0.102l0,0l1.301,0.342c0.172,0.013,0.338,0.069,0.486,0.173
	l0,0l0.049,0.034c0.314,0.2,0.602,0.424,0.867,0.66l0,0l0.066,0.057c0.314,0.277,0.418,0.726,0.258,1.114l0,0l-0.383,0.926
	l1.496,0.387c0.309,0.081,0.563,0.309,0.676,0.613l0,0l0.035,0.096c0.135,0.356,0.238,0.727,0.324,1.103l0,0l0.018,0.083
	c0.082,0.392-0.078,0.794-0.408,1.023l0,0l-0.764,0.519c0.012,0.156,0.016,0.318,0.016,0.479l0,0v0.04
	c0,0.113-0.004,0.229-0.01,0.344l0,0l0.689,0.39c0.369,0.211,0.561,0.631,0.48,1.048l0,0l-0.021,0.112
	c-0.086,0.373-0.186,0.74-0.316,1.116l0,0l-0.033,0.088c-0.148,0.416-0.555,0.681-0.998,0.648l0,0l-0.734-0.052
	c-0.141,0.262-0.297,0.515-0.467,0.756l0,0l0.371,0.899c0.15,0.357,0.07,0.772-0.195,1.053l0,0l-0.063,0.065
	c-0.262,0.272-0.537,0.517-0.805,0.732l0,0l-0.088,0.071c-0.242,0.199-0.566,0.27-0.871,0.19l0,0l-1.5-0.392
	c-0.025-0.005-0.051-0.014-0.072-0.022l0,0l-0.182,0.964c-0.045,0.254-0.189,0.473-0.389,0.617l0,0l0.217,0.057
	c0.164,0.013,0.328,0.067,0.473,0.165l0,0l0.078,0.056c0.326,0.21,0.631,0.444,0.938,0.709l0,0l0.072,0.065
	c0.309,0.279,0.404,0.721,0.248,1.106l0,0l-0.445,1.075c0.008,0.014,0.016,0.024,0.027,0.037l0,0
	c0.02,0.002,0.041,0.008,0.063,0.014l0,0l1.631,0.428c0.301,0.08,0.551,0.301,0.666,0.592l0,0l0.049,0.135
	c0.139,0.378,0.25,0.77,0.346,1.184l0,0l0.02,0.089c0.082,0.393-0.08,0.794-0.41,1.019l0,0l-0.873,0.593
	c0.014,0.188,0.02,0.377,0.02,0.567l0,0v0.038c-0.002,0.146-0.006,0.29-0.014,0.434l0,0l0.803,0.46
	c0.371,0.21,0.563,0.634,0.479,1.052l0,0l-0.025,0.114c-0.088,0.394-0.197,0.792-0.328,1.167l0,0l-0.029,0.099
	c-0.141,0.436-0.559,0.719-1.014,0.686l0,0l-0.863-0.065c-0.17,0.316-0.354,0.617-0.555,0.902l0,0l0.422,1.028
	c0.154,0.367,0.068,0.791-0.213,1.075l0,0l-0.053,0.051c-0.273,0.282-0.566,0.554-0.861,0.782l0,0l-0.098,0.078
	c-0.242,0.207-0.57,0.277-0.881,0.199l0,0l-1.633-0.43c-0.059-0.016-0.115-0.037-0.172-0.063l0,0l-0.213,1.161
	c-0.078,0.419-0.42,0.742-0.844,0.798l0,0l-0.088,0.009c-0.193,0.029-0.402,0.055-0.621,0.066l0,0
	c-0.152,0.011-0.309,0.02-0.475,0.021l0,0H128.078L128.078,66.986z M126.16,62.896l0.332,0.086c0.373,0.094,0.654,0.397,0.721,0.776
	l0,0l0.182,1.003l0.84,0.254c0.059-0.002,0.119-0.006,0.182-0.009l0,0l0.186-1.016c0.068-0.377,0.354-0.678,0.721-0.774l0,0
	c0.279-0.071,0.566-0.185,0.863-0.326l0,0c0.391-0.188,0.855-0.095,1.15,0.222l0,0l0.049,0.051l0.861,0.227
	c0.01-0.006,0.016-0.011,0.021-0.017l0,0l-0.385-0.935c-0.139-0.337-0.082-0.721,0.15-1.001l0,0c0.373-0.454,0.688-0.97,0.943-1.553
	l0,0c0.17-0.386,0.561-0.623,0.979-0.592l0,0l0.174,0.013l-0.205-0.116c-0.352-0.2-0.547-0.599-0.486-0.997l0,0
	c0.041-0.27,0.059-0.553,0.063-0.834l0,0v-0.036c-0.004-0.304-0.023-0.592-0.068-0.902l0,0c-0.057-0.373,0.107-0.746,0.42-0.959l0,0
	l0.793-0.539c-0.002-0.001-0.002-0.005-0.004-0.01l0,0l-0.885-0.231l-0.047,0.013c-0.41,0.101-0.842-0.074-1.066-0.43l0,0
	c-0.182-0.285-0.365-0.536-0.568-0.753l0,0c-0.266-0.279-0.34-0.69-0.191-1.051l0,0l0.393-0.945
	c-0.051-0.037-0.104-0.072-0.156-0.108l0,0l-0.895-0.235l-0.633,0.732c-0.223,0.262-0.574,0.386-0.912,0.329l0,0
	c-0.094-0.017-0.152-0.034-0.184-0.042l0,0l0,0c-0.434-0.056-0.779-0.389-0.85-0.817l0,0l-0.172-1.044l-0.973-0.241l0,0l0,0
	c-0.033,0-0.066,0-0.1,0.001l0,0l-0.164,0.969c-0.068,0.395-0.367,0.708-0.754,0.797l0,0c-0.287,0.065-0.58,0.165-0.877,0.295l0,0
	c-0.369,0.163-0.803,0.083-1.088-0.201l0,0l-0.111-0.108l-0.955-0.21c-0.299-0.063-0.547-0.258-0.68-0.531l0,0
	c-0.133-0.271-0.133-0.587-0.002-0.858l0,0c0.104-0.206,0.17-0.311,0.186-0.351l0,0c0.164-0.386,0.559-0.627,0.977-0.596l0,0
	l1.393,0.104c0.029-0.095,0.055-0.188,0.078-0.284l0,0l-1.275-0.729c-0.352-0.199-0.545-0.592-0.486-0.989l0,0
	c0.057-0.413,0.09-0.829,0.09-1.241l0,0c-0.002-0.021-0.002-0.036,0-0.051l0,0c-0.002-0.45-0.033-0.881-0.102-1.337l0,0
	c-0.051-0.372,0.109-0.741,0.42-0.954l0,0l0.289-0.196c0.188-0.13,0.42-0.187,0.645-0.167l0,0l0.113-0.023
	c0.398-0.077,0.809,0.102,1.023,0.448l0,0c0.189,0.302,0.383,0.564,0.588,0.769l0,0c0.275,0.278,0.359,0.689,0.219,1.055l0,0
	l-0.316,0.803l0.777,0.228l0.602-0.654c0.244-0.271,0.623-0.382,0.975-0.287l0,0l0.299,0.077c0.369,0.099,0.646,0.398,0.717,0.774
	l0,0l0.16,0.871l0.709,0.219c0.027,0,0.057-0.001,0.086-0.003l0,0l0.16-0.871c0.07-0.377,0.35-0.678,0.721-0.774l0,0
	c0.25-0.065,0.51-0.165,0.777-0.295l0,0c0.389-0.183,0.855-0.096,1.146,0.222l0,0l0.027,0.028l0.639,0.167l-0.299-0.727
	c-0.141-0.335-0.08-0.727,0.154-1.004l0,0c0.334-0.403,0.623-0.87,0.85-1.397l0,0c0.145-0.339,0.461-0.56,0.816-0.591l0,0
	c-0.299-0.213-0.457-0.577-0.4-0.946l0,0c0.037-0.237,0.055-0.492,0.057-0.749l0,0v-0.03c0-0.272-0.021-0.533-0.061-0.824l0,0
	c-0.053-0.37,0.111-0.74,0.42-0.949l0,0l0.588-0.4l-0.629-0.165l-0.031,0.007c-0.41,0.099-0.84-0.077-1.063-0.436l0,0
	c-0.162-0.255-0.326-0.482-0.51-0.675l0,0c-0.262-0.282-0.338-0.694-0.191-1.05l0,0l0.334-0.809
	c-0.023-0.017-0.049-0.033-0.072-0.049l0,0l-0.76-0.2l-0.545,0.635c-0.229,0.258-0.574,0.382-0.914,0.325l0,0
	c-0.092-0.016-0.15-0.034-0.176-0.039l0,0v-0.003c-0.426-0.057-0.771-0.389-0.84-0.814l0,0l-0.15-0.908l-0.822-0.205
	c-0.006,0-0.01,0-0.016,0l0,0l-0.141,0.826c-0.066,0.395-0.371,0.712-0.762,0.797l0,0c-0.252,0.054-0.51,0.143-0.777,0.262l0,0
	c-0.373,0.166-0.807,0.084-1.096-0.203l0,0l-0.078-0.083l-0.566-0.122l0.252,0.584c0.152,0.358,0.086,0.762-0.172,1.048l0,0
	c-0.379,0.42-0.699,0.924-0.941,1.477l0,0c-0.125,0.287-0.377,0.491-0.668,0.563l0,0c0.271,0.291,0.348,0.728,0.166,1.103l0,0
	c-0.027,0.221-0.045,0.422-0.047,0.661l0,0c0,0.301-0.146,0.589-0.385,0.775l0,0c-0.238,0.181-0.555,0.247-0.848,0.168l0,0
	l-0.389-0.101l-0.172,0.042c-0.41,0.097-0.838-0.075-1.063-0.433l0,0c-0.264-0.416-0.539-0.796-0.85-1.128l0,0
	c-0.262-0.284-0.338-0.692-0.189-1.048l0,0l0.674-1.624c-0.18-0.139-0.363-0.27-0.551-0.395l0,0l-1.572-0.406l-1.063,1.223
	c-0.225,0.258-0.569,0.38-0.907,0.325l0,0c-0.218-0.041-0.273-0.066-0.273-0.061l0,0c-0.433-0.054-0.784-0.384-0.854-0.817l0,0
	l-0.29-1.738l-1.671-0.413c-0.025,0-0.048,0-0.072,0l0,0c-0.16,0-0.317,0.004-0.467,0.013l0,0l-0.288,1.693
	c-0.068,0.396-0.369,0.711-0.758,0.797l0,0c-0.448,0.098-0.886,0.246-1.313,0.436l0,0c-0.373,0.165-0.801,0.083-1.091-0.202l0,0
	l-0.229-0.229l-1.614-0.351c-0.091,0.075-0.183,0.155-0.273,0.235l0,0l0.651,1.517c0.151,0.352,0.083,0.758-0.171,1.044l0,0
	c-0.621,0.698-1.147,1.525-1.546,2.429l0,0c-0.167,0.373-0.549,0.607-0.956,0.582l0,0l-1.437-0.079
	c-0.006,0.021-0.011,0.041-0.016,0.062l0,0l1.194,0.656c0.386,0.184,0.612,0.604,0.543,1.041l0,0
	c-0.084,0.535-0.128,0.976-0.134,1.558l0,0c0,0.477,0.037,0.948,0.104,1.403l0,0c0.056,0.368-0.104,0.735-0.406,0.951l0,0
	l-1.369,0.963c0.026,0.102,0.058,0.201,0.088,0.302l0,0l1.566,0.478l0.229-0.045c0.399-0.076,0.809,0.101,1.025,0.446l0,0
	c0.305,0.491,0.627,0.926,0.981,1.282l0,0c0.275,0.278,0.359,0.691,0.216,1.055l0,0l-0.646,1.632
	c0.128,0.093,0.26,0.183,0.397,0.275l0,0l1.621,0.475l1.146-1.248c0.245-0.27,0.622-0.379,0.977-0.287l0,0l0.461,0.118
	c0.369,0.095,0.65,0.401,0.72,0.779l0,0l0.301,1.657l1.489,0.451c0.172-0.004,0.339-0.011,0.492-0.022l0,0
	c0.054-0.006,0.106-0.009,0.159-0.013l0,0l0.319-1.745c0.069-0.377,0.354-0.68,0.726-0.774l0,0c0.436-0.114,0.864-0.275,1.291-0.478
	l0,0c0.391-0.188,0.857-0.097,1.149,0.218l0,0l0.145,0.153l0.094,0.027c0.227,0.058,0.411,0.191,0.542,0.363l0,0l0.972,0.53
	c0.385,0.186,0.615,0.606,0.545,1.047l0,0c-0.063,0.374-0.094,0.658-0.094,1.016l0,0v0.021c0,0.333,0.023,0.655,0.07,0.966l0,0
	c0.041,0.279-0.041,0.571-0.227,0.787l0,0c-0.053,0.06-0.115,0.116-0.18,0.163l0,0l0,0l-0.682,0.481l0.73,0.223l0.098-0.02
	c0.402-0.076,0.807,0.103,1.023,0.449l0,0c0.207,0.333,0.424,0.626,0.654,0.861l0,0c0.273,0.275,0.357,0.688,0.217,1.051l0,0
	l-0.373,0.948c0.018,0.01,0.037,0.021,0.055,0.034l0,0l0.93,0.276l0.689-0.756c0.188-0.205,0.453-0.319,0.727-0.319l0,0
	C125.994,62.865,126.078,62.875,126.16,62.896L126.16,62.896z"/>
<path fill="#666666" d="M128.789,54.604l-0.074-0.06l-0.098,0.007c-0.195,0.013-0.389,0.052-0.57,0.108l-0.367,0.108l0.252,0.288
	c0.4,0.46,0.656,1.085,0.656,1.814c0,0-0.004,0.019,0,0.05c-0.023,1.311-0.85,2.443-1.908,2.803l-0.357,0.121l0.256,0.278
	c0.131,0.142,0.275,0.282,0.445,0.397l0.08,0.057l0.096-0.013c1.545-0.235,2.729-1.716,2.746-3.431l-0.006-0.016
	C129.945,56.066,129.492,55.161,128.789,54.604z"/>
<path fill="#666666" d="M132.424,40.581c0.004-0.975-0.414-1.818-1.064-2.331l-0.08-0.061l-0.094,0.008
	c-0.199,0.016-0.389,0.057-0.566,0.117l-0.348,0.11l0.232,0.281c0.344,0.411,0.563,0.964,0.566,1.608
	c-0.002,0.011,0,0.025,0.002,0.042c-0.016,1.188-0.752,2.219-1.705,2.554l-0.344,0.125l0.246,0.271
	c0.131,0.147,0.275,0.287,0.445,0.401l0.074,0.053l0.098-0.013c1.432-0.207,2.523-1.575,2.541-3.161
	C132.428,40.585,132.424,40.581,132.424,40.581z"/>
<path fill="#666666" d="M116.607,42.344l-0.078-0.058l-0.092,0.007c-0.207,0.016-0.391,0.064-0.56,0.104l-0.42,0.101l0.3,0.311
	c0.655,0.673,1.081,1.623,1.087,2.749c-0.002,0.014-0.002,0.031,0.003,0.051c-0.023,1.986-1.313,3.686-2.963,4.137l-0.415,0.116
	l0.31,0.301c0.142,0.135,0.293,0.264,0.461,0.38l0.078,0.054l0.098-0.014c2.125-0.316,3.768-2.366,3.784-4.747l-0.001-0.003
	C118.2,44.368,117.578,43.111,116.607,42.344z"/>
<linearGradient id="SVGID_7_" gradientUnits="userSpaceOnUse" x1="124.334" y1="41.3042" x2="125.9219" y2="41.3042">
	<stop  offset="0.0051" style="stop-color:#335E8F"/>
	<stop  offset="1" style="stop-color:#8DADBC"/>
</linearGradient>
<path fill="url(#SVGID_7_)" d="M125.9,42.569l-1.49-0.401c-0.051-0.336-0.076-0.689-0.076-1.048
	c0.002-0.386,0.037-0.712,0.098-1.081l1.49,0.393c-0.061,0.371-0.092,0.708-0.094,1.092C125.828,41.884,125.855,42.235,125.9,42.569
	z"/>
<linearGradient id="SVGID_8_" gradientUnits="userSpaceOnUse" x1="128.4951" y1="45.9487" x2="128.2654" y2="49.1845">
	<stop  offset="0" style="stop-color:#5D4098"/>
	<stop  offset="1" style="stop-color:#C6ACD2"/>
</linearGradient>
<path fill="url(#SVGID_8_)" d="M129.676,46.996l-1.498-0.392c-0.334-0.088-0.654-0.21-0.959-0.369l1.496,0.391
	C129.018,46.783,129.338,46.91,129.676,46.996z"/>
<polygon fill="#8C8E8E" points="123.809,42.093 121.512,41.491 123.699,40.967 126,41.566 "/>
<polygon fill="#8C8E8E" points="121.9,56.184 119.597,55.583 118.048,53.911 120.355,54.511 "/>
<polygon fill="#8C8E8E" points="120.353,38.321 118.048,37.721 119.634,35.895 121.938,36.494 "/>
<polygon fill="#8C8E8E" points="115.704,58.341 113.507,57.677 113.076,55.306 115.375,55.906 "/>
<linearGradient id="SVGID_9_" gradientUnits="userSpaceOnUse" x1="112.3008" y1="54.0894" x2="111.9483" y2="59.0539">
	<stop  offset="0" style="stop-color:#646767"/>
	<stop  offset="1" style="stop-color:#CDCECD"/>
</linearGradient>
<path fill="url(#SVGID_9_)" d="M114.116,55.696l-2.301-0.6c-0.517-0.133-1.009-0.327-1.474-0.566l2.299,0.602
	C113.105,55.372,113.598,55.563,114.116,55.696z"/>
<polygon fill="#8C8E8E" points="115.432,37.666 113.135,37.063 113.548,34.634 115.846,35.234 "/>
<path fill="#8C8E8E" d="M115.846,35.234l-2.298-0.6c0.25-0.036,0.457-0.056,0.668-0.071c0.282-0.02,0.563-0.024,0.837-0.02
	l2.341,0.576c-0.275-0.004-0.6,0.027-0.881,0.041C116.303,35.176,116.093,35.199,115.846,35.234z"/>
<polygon fill="#8C8E8E" points="109.878,56.06 107.577,55.46 108.489,53.156 110.787,53.756 "/>
<path fill="#8C8E8E" d="M111.078,57.009l-2.331-0.688c-0.433-0.268-0.809-0.55-1.17-0.861l2.302,0.6
	C110.236,56.37,110.648,56.738,111.078,57.009z"/>
<path fill="#8C8E8E" d="M112.79,38.773l-2.298-0.6c0.81-0.523,1.702-0.904,2.644-1.111l2.297,0.603
	C114.492,37.873,113.598,38.25,112.79,38.773z"/>
<path fill="#8C8E8E" d="M110.787,53.756l-2.298-0.6c-0.698-0.705-1.275-1.55-1.702-2.512l2.298,0.596
	C109.51,52.206,110.09,53.053,110.787,53.756z"/>
<polygon fill="#8C8E8E" points="106.488,50.196 104.189,49.591 106.105,48.241 108.404,48.838 "/>
<polygon fill="#8C8E8E" points="106.994,42.967 104.695,42.367 106.875,42.489 109.175,43.089 "/>
<polygon fill="#8C8E8E" points="108.43,45.587 106.132,44.988 104.228,43.944 106.528,44.545 "/>
<path fill="#8C8E8E" d="M109.175,43.089l-2.3-0.6c0.438-0.99,1.018-1.898,1.711-2.677l2.3,0.6
	C110.191,41.193,109.611,42.096,109.175,43.089z"/>
<path fill="#8C8E8E" d="M108.404,48.874l-2.297-0.617c-0.075-0.52-0.116-1.06-0.113-1.612c0.002-0.591,0.054-1.094,0.145-1.663
	l2.292,0.609c-0.091,0.567-0.139,1.082-0.144,1.674C108.286,47.821,108.323,48.357,108.404,48.874z"/>
<polygon fill="#8C8E8E" points="110.886,40.412 108.586,39.812 107.665,37.667 109.962,38.266 "/>
<path fill="#8C8E8E" d="M109.893,38.298l-2.229-0.631c0.401-0.398,0.794-0.741,1.204-1.05l2.341,0.509
	C110.799,37.436,110.294,37.897,109.893,38.298z"/>
<path fill="#8C8E8E" d="M106.911,51.8l-2.285-0.698c-0.186-0.505-0.324-1.001-0.437-1.511l2.299,0.556
	C106.599,50.661,106.727,51.292,106.911,51.8z"/>
<path fill="#8C8E8E" d="M106.518,44.626l-2.29-0.682c0.133-0.566,0.281-1.078,0.467-1.578l2.299,0.512
	C106.81,43.378,106.647,44.059,106.518,44.626z"/>
<linearGradient id="SVGID_10_" gradientUnits="userSpaceOnUse" x1="113.0903" y1="46.4629" x2="120.27" y2="46.4629">
	<stop  offset="0" style="stop-color:#646767"/>
	<stop  offset="1" style="stop-color:#CDCECD"/>
</linearGradient>
<path fill="url(#SVGID_10_)" d="M120.27,46.441c0.004-1.941-1.146-3.494-2.72-3.904l-2.298-0.603
	c1.571,0.413,2.712,1.966,2.711,3.908c-0.018,2.359-1.718,4.389-3.817,4.541h0.003c-0.368,0.024-0.723-0.011-1.059-0.099
	l2.297,0.603c0.339,0.088,0.696,0.121,1.066,0.099l-0.004-0.003C118.546,50.831,120.251,48.801,120.27,46.441z"/>
<linearGradient id="SVGID_11_" gradientUnits="userSpaceOnUse" x1="104.8086" y1="32.5918" x2="121.4216" y2="52.72">
	<stop  offset="0.0275" style="stop-color:#FFFFFF"/>
	<stop  offset="0.3579" style="stop-color:#D2D3D4"/>
	<stop  offset="0.7892" style="stop-color:#9E9FA0"/>
	<stop  offset="1" style="stop-color:#898B8C"/>
</linearGradient>
<path fill="url(#SVGID_11_)" d="M124.398,47.643l1.902,1.081c-0.109,0.515-0.248,1.016-0.422,1.509l-2.145-0.16
	c-0.422,1.014-0.969,1.912-1.627,2.69l0.896,2.174c-0.346,0.354-0.709,0.686-1.09,0.989l-1.565-1.555
	c-0.858,0.586-1.766,1.001-2.729,1.233l-0.446,2.438c-0.256,0.037-0.51,0.066-0.771,0.086c-0.188,0.013-0.375,0.02-0.56,0.021
	l-0.39-2.359c-1.024-0.075-1.953-0.346-2.796-0.787l-1.621,1.768c-0.369-0.238-0.72-0.501-1.055-0.788l0.934-2.264
	c-0.731-0.733-1.316-1.593-1.74-2.562l-2.166,0.424c-0.153-0.439-0.291-0.896-0.395-1.37l1.909-1.31
	c-0.085-0.544-0.125-1.071-0.12-1.614c0-0.576,0.051-1.149,0.148-1.704l-1.888-1.077c0.116-0.488,0.257-0.966,0.428-1.434
	l2.155,0.162c0.446-1.042,1.037-1.955,1.734-2.739l-0.888-2.162c0.349-0.345,0.721-0.664,1.098-0.953l1.579,1.572
	c0.852-0.555,1.751-0.938,2.701-1.139l0.448-2.424c0.194-0.027,0.39-0.05,0.584-0.063c0.267-0.017,0.529-0.021,0.791-0.02
	l0.391,2.379c0.958,0.095,1.832,0.369,2.629,0.794l1.613-1.764c0.393,0.251,0.766,0.534,1.115,0.846l-0.939,2.274
	c0.666,0.695,1.201,1.488,1.598,2.382l2.174-0.428c0.172,0.465,0.316,0.955,0.426,1.455l-1.908,1.305
	c0.086,0.546,0.123,1.07,0.123,1.613C124.512,46.664,124.475,47.157,124.398,47.643z M116.434,51.098
	c2.147-0.15,3.9-2.23,3.911-4.645c0.01-2.41-1.724-4.243-3.872-4.093c-2.142,0.148-3.887,2.229-3.899,4.636
	C112.566,49.409,114.293,51.246,116.434,51.098"/>
<radialGradient id="SVGID_12_" cx="107.5195" cy="29.4619" r="24.8131" gradientUnits="userSpaceOnUse">
	<stop  offset="0" style="stop-color:#FFFFFF"/>
	<stop  offset="0.1865" style="stop-color:#FAFBFB"/>
	<stop  offset="0.3923" style="stop-color:#EDEEEE"/>
	<stop  offset="0.6074" style="stop-color:#D7D8D9"/>
	<stop  offset="0.8274" style="stop-color:#B8BABC"/>
	<stop  offset="1" style="stop-color:#9B9DA0"/>
</radialGradient>
<path fill="url(#SVGID_12_)" d="M115.287,55.968c-0.936-0.082-1.798-0.333-2.584-0.728l0,0l-1.631,1.78l-0.137-0.086
	c-0.377-0.246-0.735-0.512-1.082-0.803l0,0l-0.104-0.092l0.941-2.278c-0.674-0.689-1.219-1.491-1.631-2.388l0,0l-2.175,0.427
	l-0.053-0.158c-0.163-0.442-0.299-0.903-0.404-1.39l0,0l-0.028-0.127l1.918-1.315c-0.072-0.498-0.11-0.985-0.11-1.479l0,0
	c0-0.013,0-0.031,0-0.044l0,0c0.003-0.541,0.049-1.08,0.133-1.604l0,0l-1.896-1.081l0.034-0.139
	c0.115-0.497,0.259-0.982,0.433-1.458l0,0l0.049-0.135l2.164,0.159c0.431-0.966,0.986-1.824,1.635-2.57l0,0l-0.89-2.172l0.094-0.092
	c0.352-0.349,0.728-0.672,1.115-0.966l0,0l0.132-0.102l1.587,1.581c0.793-0.5,1.629-0.852,2.514-1.056l0,0l0.45-2.433l0.138-0.023
	c0.195-0.028,0.393-0.045,0.596-0.06l0,0c0.223-0.017,0.451-0.024,0.671-0.024l0,0c0.041,0,0.088,0,0.133,0l0,0l0.159,0.004
	l0.397,2.392c0.872,0.106,1.677,0.356,2.42,0.733l0,0l1.623-1.776l0.139,0.089c0.398,0.257,0.777,0.543,1.139,0.864l0,0l0.102,0.089
	l-0.947,2.288c0.607,0.649,1.104,1.384,1.488,2.2l0,0l2.184-0.43l0.057,0.155c0.172,0.474,0.32,0.97,0.432,1.479l0,0l0.029,0.131
	l-1.918,1.308c0.072,0.497,0.107,0.976,0.107,1.473l0,0c0,0.017,0,0.033,0,0.051l0,0c0,0.465-0.035,0.924-0.1,1.375l0,0l1.91,1.089
	l-0.029,0.135c-0.111,0.523-0.254,1.033-0.426,1.535l0,0l-0.049,0.139l-2.16-0.159c-0.4,0.94-0.914,1.783-1.523,2.521l0,0
	l0.898,2.182l-0.086,0.091c-0.354,0.363-0.721,0.697-1.107,1.006l0,0l-0.135,0.108l-1.574-1.569c-0.8,0.532-1.648,0.917-2.539,1.146
	l0,0l-0.45,2.453l-0.139,0.019c-0.259,0.04-0.517,0.065-0.782,0.085l0,0c-0.191,0.014-0.384,0.02-0.573,0.023l0,0l-0.163,0.004
	L115.287,55.968L115.287,55.968z M112.747,54.832c0.819,0.434,1.721,0.695,2.723,0.763l0,0l0.147,0.013l0.389,2.347
	c0.131-0.004,0.256-0.01,0.385-0.019l0,0c0.208-0.016,0.411-0.04,0.617-0.064l0,0l0.446-2.429l0.122-0.024
	c0.934-0.23,1.823-0.634,2.663-1.207l0,0l0.133-0.094l1.554,1.549c0.297-0.242,0.58-0.5,0.854-0.774l0,0l-0.895-2.165l0.078-0.089
	c0.643-0.766,1.18-1.642,1.594-2.64l0,0l0.055-0.127l2.135,0.157c0.133-0.396,0.244-0.799,0.336-1.21l0,0l-1.777-1.013l-0.113-0.061
	l0.02-0.132c0.072-0.476,0.109-0.96,0.113-1.446l0,0c0-0.024,0-0.042,0-0.055l0,0c0-0.517-0.041-1.013-0.123-1.534l0,0l-0.02-0.122
	l1.9-1.296c-0.088-0.393-0.203-0.782-0.33-1.152l0,0l-2.164,0.428l-0.061-0.142c-0.389-0.871-0.914-1.648-1.563-2.324l0,0
	l-0.086-0.092l0.934-2.264c-0.271-0.231-0.559-0.448-0.855-0.648l0,0l-1.602,1.756l-0.131-0.072
	c-0.777-0.416-1.623-0.681-2.558-0.774l0,0l-0.145-0.019l-0.393-2.359c-0.203,0-0.407,0.006-0.61,0.019l0,0
	c-0.145,0.013-0.286,0.024-0.43,0.044l0,0l-0.448,2.416l-0.126,0.027c-0.929,0.194-1.805,0.569-2.639,1.108l0,0l-0.13,0.085
	l-1.57-1.559c-0.29,0.229-0.58,0.481-0.853,0.743l0,0l0.884,2.151l-0.082,0.093c-0.685,0.768-1.264,1.663-1.702,2.684l0,0
	l-0.054,0.126l-2.146-0.161c-0.132,0.371-0.243,0.752-0.34,1.138l0,0l1.879,1.071l-0.021,0.132c-0.097,0.543-0.146,1.109-0.15,1.68
	l0,0c0,0.008,0,0.024,0,0.037l0,0c0,0.514,0.042,1.017,0.123,1.541l0,0l0.019,0.121l-1.9,1.304c0.085,0.365,0.187,0.721,0.303,1.063
	l0,0l2.15-0.424l0.065,0.143c0.415,0.949,0.984,1.789,1.698,2.504l0,0l0.093,0.094l-0.933,2.252c0.26,0.211,0.522,0.41,0.798,0.593
	l0,0l1.609-1.76L112.747,54.832L112.747,54.832z M112.384,47.018c0-0.013,0-0.02,0-0.021l0,0c0.011-2.501,1.813-4.666,4.071-4.831
	l0,0c0.088-0.008,0.179-0.008,0.261-0.008l0,0c2.146,0,3.817,1.879,3.82,4.271l0,0c0,0.004,0,0.011,0,0.025l0,0
	c-0.015,2.501-1.824,4.667-4.089,4.834l0,0l0,0l-0.008-0.128l0.007,0.128c-0.087,0.004-0.173,0.004-0.254,0.004l0,0
	C114.052,51.294,112.388,49.414,112.384,47.018L112.384,47.018z M116.488,42.55c-2.021,0.135-3.713,2.125-3.718,4.451l0,0
	c0,0.009,0,0.016,0,0.016v0.001c0.001,2.225,1.521,3.888,3.423,3.893l0,0c0.075,0,0.15,0,0.231-0.004l0,0v-0.002
	c2.02-0.135,3.718-2.126,3.728-4.45l0,0c0-0.004,0-0.013,0-0.024l0,0c-0.006-2.22-1.53-3.884-3.436-3.889l0,0
	C116.642,42.541,116.563,42.544,116.488,42.55L116.488,42.55z"/>
<linearGradient id="SVGID_13_" gradientUnits="userSpaceOnUse" x1="114.9771" y1="52.6235" x2="114.9771" y2="38.6693">
	<stop  offset="0" style="stop-color:#805F26"/>
	<stop  offset="1" style="stop-color:#E2D0AC"/>
</linearGradient>
<path fill="url(#SVGID_13_)" d="M117.838,41.162c-0.45-0.116-0.93-0.166-1.422-0.127c-2.78,0.191-5.046,2.881-5.06,6.006
	c-0.009,2.57,1.502,4.636,3.585,5.178l0.762,0.199c-2.084-0.545-3.598-2.607-3.587-5.177c0.015-3.126,2.277-5.816,5.057-6.01
	c0.496-0.036,0.973,0.011,1.424,0.13L117.838,41.162z"/>
<radialGradient id="SVGID_14_" cx="113.5049" cy="41.689" r="11.917" gradientUnits="userSpaceOnUse">
	<stop  offset="0.3297" style="stop-color:#EFE8B2"/>
	<stop  offset="1" style="stop-color:#D78329"/>
</radialGradient>
<path fill="url(#SVGID_14_)" d="M117.173,41.23c2.786-0.194,5.03,2.18,5.012,5.304c-0.014,3.126-2.276,5.819-5.061,6.013
	c-2.776,0.191-5.021-2.181-5.008-5.307C112.131,44.114,114.394,41.425,117.173,41.23z M117.139,49.567
	c1.313-0.094,2.388-1.366,2.396-2.844c0.005-1.484-1.058-2.606-2.372-2.514c-1.319,0.091-2.392,1.366-2.396,2.844
	C114.758,48.535,115.824,49.657,117.139,49.567"/>
<path fill="#666666" d="M126.436,42.446c-0.008-0.048-0.039-0.081-0.063-0.124c-0.025-0.261-0.053-0.523-0.053-0.799
	c0.002-0.359,0.027-0.662,0.088-1.014c0.039-0.25-0.117-0.491-0.361-0.553l-1.492-0.395c-0.135-0.037-0.277-0.013-0.393,0.063
	s-0.197,0.196-0.217,0.335c-0.063,0.383-0.104,0.743-0.104,1.158c0,0.281,0.029,0.55,0.059,0.82l-0.975,0.684
	c-0.01,0.007-0.014,0.02-0.021,0.028c-0.012,0.009-0.025,0.011-0.037,0.021c-0.031,0.03-0.045,0.069-0.064,0.106
	c-0.018,0.028-0.041,0.051-0.051,0.082c-0.023,0.063-0.025,0.128-0.02,0.196c0,0.02-0.012,0.037-0.006,0.055
	c0,0.001,0.002,0.004,0.002,0.007c0.002,0.003,0,0.006,0,0.008c0.074,0.355,0.176,0.698,0.303,1.047
	c0.051,0.146,0.17,0.26,0.318,0.304l1.488,0.456c0.047,0.013,0.094,0.021,0.143,0.021c0.131,0,0.262-0.054,0.355-0.153
	c0.129-0.135,0.172-0.33,0.109-0.502c-0.07-0.193-0.127-0.433-0.18-0.672l0.973-0.691C126.393,42.825,126.473,42.632,126.436,42.446
	z"/>
<path fill="#684F8D" d="M125.859,42.572l-1.486-0.401c-0.053-0.335-0.078-0.687-0.078-1.045c0-0.384,0.037-0.711,0.096-1.08
	l1.488,0.393c-0.061,0.37-0.092,0.707-0.092,1.089C125.787,41.889,125.813,42.238,125.859,42.572z"/>
<path fill="#684F8D" d="M130.779,33.712l-1.492-0.389c0.162-0.027,0.297-0.038,0.434-0.047c0.182-0.016,0.363-0.017,0.543-0.016
	l1.521,0.377c-0.182-0.004-0.389,0.016-0.57,0.027C131.074,33.678,130.939,33.689,130.779,33.712z"/>
<polygon fill="#684F8D" points="135.947,38.168 134.453,37.78 135.877,37.438 137.367,37.826 "/>
<polygon fill="#684F8D" points="134.707,47.316 133.211,46.926 132.209,45.842 133.701,46.231 "/>
<polygon fill="#684F8D" points="133.701,35.719 132.209,35.331 133.238,34.142 134.73,34.532 "/>
<polygon fill="#684F8D" points="130.686,48.719 129.26,48.287 128.98,46.747 130.473,47.136 "/>
<linearGradient id="SVGID_15_" gradientUnits="userSpaceOnUse" x1="128.4766" y1="45.9556" x2="128.2472" y2="49.1859">
	<stop  offset="0" style="stop-color:#5D4098"/>
	<stop  offset="1" style="stop-color:#C6ACD2"/>
</linearGradient>
<path fill="url(#SVGID_15_)" d="M129.654,47.001l-1.494-0.391c-0.334-0.088-0.652-0.208-0.957-0.368l1.492,0.39
	C128.998,46.789,129.318,46.915,129.654,47.001z"/>
<polygon fill="#684F8D" points="130.51,35.291 129.018,34.901 129.287,33.323 130.779,33.712 "/>
<polygon fill="#684F8D" points="126.902,47.237 125.41,46.847 126,45.35 127.494,45.742 "/>
<path fill="#684F8D" d="M127.682,47.855l-1.516-0.448c-0.279-0.174-0.525-0.357-0.756-0.56l1.492,0.39
	C127.135,47.438,127.402,47.678,127.682,47.855z"/>
<path fill="#684F8D" d="M128.793,36.013l-1.492-0.389c0.527-0.342,1.107-0.591,1.717-0.723l1.492,0.39
	C129.9,35.429,129.318,35.675,128.793,36.013z"/>
<path fill="#684F8D" d="M127.494,45.742L126,45.35c-0.455-0.457-0.83-1.003-1.105-1.634l1.494,0.39
	C126.664,44.733,127.039,45.286,127.494,45.742z"/>
<polygon fill="#684F8D" points="124.701,43.428 123.205,43.038 124.451,42.163 125.941,42.55 "/>
<polygon fill="#684F8D" points="125.029,38.738 123.531,38.345 124.953,38.426 126.445,38.814 "/>
<polygon fill="#684F8D" points="125.961,40.439 124.471,40.05 123.229,39.371 124.73,39.764 "/>
<path fill="#684F8D" d="M126.445,38.814l-1.492-0.389c0.283-0.644,0.658-1.235,1.109-1.738l1.492,0.387
	C127.105,37.583,126.727,38.17,126.445,38.814z"/>
<polygon fill="#684F8D" points="127.555,37.075 126.063,36.688 125.463,35.294 126.957,35.684 "/>
<path fill="#684F8D" d="M126.912,35.704l-1.449-0.41c0.262-0.261,0.518-0.481,0.785-0.683l1.52,0.329
	C127.5,35.144,127.172,35.445,126.912,35.704z"/>
<path fill="#684F8D" d="M124.973,44.47l-1.484-0.452c-0.121-0.332-0.213-0.65-0.283-0.98l1.496,0.362
	C124.773,43.729,124.855,44.139,124.973,44.47z"/>
<path fill="#684F8D" d="M124.721,39.814l-1.492-0.444c0.088-0.369,0.186-0.701,0.303-1.025l1.498,0.334
	C124.912,39.002,124.805,39.446,124.721,39.814z"/>
<linearGradient id="SVGID_16_" gradientUnits="userSpaceOnUse" x1="128.9883" y1="41.0059" x2="133.6465" y2="41.0059">
	<stop  offset="0" style="stop-color:#442871"/>
	<stop  offset="1" style="stop-color:#A996BF"/>
</linearGradient>
<path fill="url(#SVGID_16_)" d="M133.646,40.991c0.002-1.258-0.738-2.267-1.76-2.534l-1.496-0.39
	c1.025,0.267,1.766,1.275,1.764,2.538c-0.012,1.533-1.117,2.846-2.479,2.94v0.001c-0.24,0.019-0.469-0.004-0.688-0.061l1.49,0.389
	c0.223,0.06,0.455,0.081,0.699,0.064h-0.006C132.531,43.839,133.635,42.524,133.646,40.991z"/>
<linearGradient id="SVGID_17_" gradientUnits="userSpaceOnUse" x1="136.8154" y1="48.748" x2="128.729" y2="37.8712">
	<stop  offset="0" style="stop-color:#442871"/>
	<stop  offset="1" style="stop-color:#CCBFD7"/>
</linearGradient>
<path fill="url(#SVGID_17_)" d="M136.334,41.774l1.232,0.702c-0.074,0.332-0.162,0.66-0.275,0.975l-1.393-0.1
	c-0.275,0.655-0.631,1.239-1.055,1.744l0.58,1.414c-0.225,0.23-0.461,0.445-0.709,0.641l-1.018-1.011
	c-0.549,0.382-1.141,0.65-1.77,0.8l-0.289,1.586c-0.164,0.027-0.33,0.045-0.496,0.055c-0.125,0.007-0.248,0.011-0.369,0.014
	l-0.25-1.532c-0.664-0.048-1.271-0.223-1.814-0.512l-1.053,1.147c-0.24-0.152-0.469-0.324-0.688-0.509l0.605-1.473
	c-0.475-0.477-0.854-1.031-1.129-1.663l-1.406,0.275c-0.102-0.287-0.189-0.583-0.258-0.89l1.242-0.847
	c-0.055-0.354-0.082-0.698-0.082-1.048c0.002-0.375,0.035-0.748,0.1-1.108l-1.227-0.699c0.076-0.319,0.166-0.628,0.277-0.931
	l1.4,0.101c0.291-0.674,0.674-1.265,1.127-1.773l-0.578-1.406c0.229-0.223,0.467-0.433,0.717-0.621l1.021,1.021
	c0.557-0.356,1.141-0.604,1.758-0.739l0.291-1.576c0.127-0.017,0.252-0.032,0.379-0.04c0.174-0.013,0.344-0.016,0.51-0.016
	l0.258,1.549c0.621,0.063,1.188,0.241,1.703,0.516l1.049-1.147c0.252,0.162,0.494,0.346,0.723,0.55l-0.609,1.478
	c0.432,0.45,0.779,0.966,1.039,1.543l1.41-0.278c0.113,0.303,0.207,0.623,0.277,0.949l-1.242,0.846
	c0.057,0.354,0.084,0.695,0.08,1.048C136.404,41.135,136.377,41.459,136.334,41.774z M131.162,44.014
	c1.391-0.099,2.527-1.445,2.533-3.012c0.006-1.564-1.115-2.759-2.51-2.66c-1.391,0.098-2.525,1.445-2.531,3.012
	C128.646,42.918,129.771,44.11,131.162,44.014"/>
<linearGradient id="SVGID_18_" gradientUnits="userSpaceOnUse" x1="132.1016" y1="42.9092" x2="128.8554" y2="36.8155">
	<stop  offset="0" style="stop-color:#7D5F9C"/>
	<stop  offset="1" style="stop-color:#FFFFFF"/>
</linearGradient>
<path fill="url(#SVGID_18_)" d="M130.416,47.18c-0.609-0.055-1.17-0.221-1.68-0.475l0,0l-1.059,1.156l-0.09-0.06
	c-0.242-0.155-0.477-0.326-0.699-0.518l0,0l-0.07-0.06l0.609-1.481c-0.436-0.448-0.791-0.97-1.057-1.549l0,0l-1.412,0.276
	l-0.035-0.102c-0.105-0.289-0.193-0.593-0.262-0.902l0,0l-0.02-0.083l1.244-0.854c-0.045-0.322-0.068-0.637-0.068-0.959l0,0
	c0-0.008,0-0.02,0-0.027l0,0c0-0.354,0.031-0.704,0.084-1.044l0,0l-1.229-0.701l0.02-0.091c0.078-0.322,0.172-0.637,0.279-0.946l0,0
	l0.033-0.088l1.408,0.104c0.281-0.627,0.639-1.186,1.061-1.671l0,0l-0.578-1.41l0.059-0.06c0.23-0.224,0.473-0.438,0.725-0.63l0,0
	l0.088-0.067l1.031,1.028c0.516-0.32,1.057-0.552,1.631-0.684l0,0l0.295-1.584l0.086-0.011c0.129-0.02,0.258-0.033,0.389-0.042l0,0
	c0.145-0.01,0.291-0.013,0.436-0.013l0,0c0.025,0,0.057,0,0.086,0l0,0l0.105,0.003l0.254,1.553c0.57,0.068,1.092,0.236,1.568,0.478
	l0,0l1.059-1.157l0.086,0.06c0.26,0.165,0.506,0.354,0.74,0.562l0,0l0.066,0.058l-0.613,1.487c0.395,0.421,0.717,0.898,0.963,1.43
	l0,0l1.418-0.281l0.039,0.103c0.113,0.306,0.209,0.631,0.281,0.961l0,0l0.02,0.084l-1.248,0.85c0.047,0.325,0.072,0.636,0.072,0.958
	l0,0c0,0.011,0,0.017,0,0.031l0,0c-0.002,0.302-0.021,0.602-0.066,0.894l0,0l1.242,0.705l-0.02,0.091
	c-0.072,0.336-0.166,0.667-0.277,0.992l0,0l-0.033,0.089l-1.398-0.101c-0.262,0.609-0.598,1.156-0.992,1.634l0,0l0.584,1.419
	l-0.057,0.06c-0.227,0.237-0.469,0.452-0.721,0.651l0,0l-0.086,0.071l-1.023-1.017c-0.516,0.345-1.064,0.593-1.645,0.744l0,0
	l-0.293,1.593l-0.088,0.011c-0.17,0.027-0.336,0.047-0.508,0.057l0,0c-0.127,0.01-0.25,0.014-0.375,0.014l0,0l-0.105,0.001
	L130.416,47.18L130.416,47.18z M128.766,46.441c0.531,0.279,1.117,0.45,1.768,0.498l0,0l0.098,0.002l0.25,1.522
	c0.084,0,0.168-0.003,0.25-0.009l0,0c0.135-0.011,0.27-0.022,0.402-0.04l0,0l0.287-1.578l0.082-0.019
	c0.607-0.147,1.184-0.413,1.725-0.783l0,0l0.086-0.057l1.012,1.001c0.191-0.158,0.377-0.328,0.553-0.504l0,0l-0.58-1.406
	l0.049-0.055c0.418-0.497,0.768-1.07,1.035-1.714l0,0l0.035-0.086l1.389,0.102c0.086-0.254,0.156-0.515,0.219-0.781l0,0
	l-1.156-0.656l-0.072-0.044l0.014-0.081c0.045-0.312,0.07-0.63,0.07-0.94l0,0c0-0.019,0-0.031,0-0.036l0,0
	c0-0.335-0.025-0.66-0.078-1l0,0l-0.012-0.074l1.234-0.846c-0.059-0.257-0.133-0.505-0.217-0.748l0,0l-1.406,0.278l-0.039-0.091
	c-0.25-0.57-0.592-1.071-1.012-1.512l0,0l-0.059-0.06l0.611-1.47c-0.18-0.153-0.363-0.292-0.559-0.423l0,0l-1.041,1.142
	l-0.084-0.045c-0.502-0.267-1.051-0.441-1.658-0.504l0,0l-0.096-0.008l-0.254-1.538c-0.131,0-0.262,0.004-0.395,0.011l0,0
	c-0.094,0.008-0.189,0.014-0.283,0.03l0,0l-0.289,1.572l-0.08,0.017c-0.605,0.124-1.174,0.369-1.715,0.718l0,0l-0.084,0.057
	l-1.021-1.014c-0.189,0.152-0.375,0.313-0.553,0.485l0,0l0.574,1.395l-0.051,0.06c-0.449,0.501-0.824,1.081-1.107,1.745l0,0
	l-0.035,0.082l-1.396-0.102c-0.082,0.238-0.156,0.485-0.217,0.738l0,0l1.221,0.695l-0.016,0.088
	c-0.061,0.353-0.096,0.716-0.098,1.088l0,0c0,0.004,0,0.016,0,0.024l0,0c0,0.335,0.027,0.661,0.08,1.001l0,0l0.012,0.075
	l-1.234,0.846c0.053,0.235,0.123,0.467,0.197,0.689l0,0l1.396-0.275l0.043,0.095c0.27,0.616,0.641,1.16,1.104,1.625l0,0l0.059,0.06
	l-0.604,1.462c0.166,0.138,0.338,0.27,0.516,0.388l0,0l1.049-1.144L128.766,46.441L128.766,46.441z M128.529,41.365
	c0-0.004,0-0.011,0-0.011l0,0c0.008-1.626,1.178-3.032,2.648-3.137l0,0c0.057-0.007,0.111-0.007,0.166-0.01l0,0
	c1.395,0.003,2.473,1.223,2.477,2.779l0,0c0,0.001,0,0.006,0,0.016l0,0c-0.008,1.623-1.178,3.027-2.65,3.135l0,0l0,0l-0.006-0.08
	l0.006,0.08c-0.059,0.004-0.115,0.004-0.168,0.004l0,0C129.613,44.141,128.531,42.923,128.529,41.365L128.529,41.365z
	 M131.193,38.466c-1.311,0.089-2.408,1.381-2.414,2.888l0,0c0,0.01,0,0.011,0,0.011l0,0c0,1.445,0.988,2.522,2.223,2.526l0,0
	c0.051,0,0.102-0.001,0.15-0.004l0,0l0,0c1.314-0.088,2.412-1.378,2.418-2.885l0,0c0-0.005,0-0.011,0-0.016l0,0
	c-0.004-1.441-0.99-2.525-2.227-2.526l0,0C131.295,38.46,131.244,38.461,131.193,38.466L131.193,38.466z"/>
<linearGradient id="SVGID_19_" gradientUnits="userSpaceOnUse" x1="130.2158" y1="44.9629" x2="130.2158" y2="35.902">
	<stop  offset="0" style="stop-color:#805F26"/>
	<stop  offset="1" style="stop-color:#E2D0AC"/>
</linearGradient>
<path fill="url(#SVGID_19_)" d="M132.072,37.522c-0.293-0.078-0.604-0.109-0.922-0.084c-1.805,0.124-3.279,1.873-3.285,3.902
	c-0.008,1.666,0.975,3.008,2.328,3.358l0.492,0.13c-1.354-0.353-2.336-1.692-2.328-3.357c0.01-2.034,1.479-3.781,3.283-3.904
	c0.324-0.024,0.631,0.007,0.926,0.083L132.072,37.522z"/>
<radialGradient id="SVGID_20_" cx="129.2588" cy="37.8652" r="7.7357" gradientUnits="userSpaceOnUse">
	<stop  offset="0.3297" style="stop-color:#EFE8B2"/>
	<stop  offset="1" style="stop-color:#D78329"/>
</radialGradient>
<path fill="url(#SVGID_20_)" d="M131.641,37.568c1.807-0.128,3.26,1.414,3.254,3.443c-0.01,2.03-1.479,3.774-3.285,3.902
	c-1.805,0.126-3.262-1.415-3.252-3.441C128.367,39.438,129.836,37.691,131.641,37.568z M131.619,42.981
	c0.854-0.063,1.549-0.888,1.553-1.85c0.006-0.962-0.684-1.692-1.537-1.633c-0.855,0.062-1.551,0.889-1.557,1.85
	C130.072,42.31,130.766,43.041,131.619,42.981"/>
<path fill="#666666" d="M125.381,50.835c-0.043-0.188-0.189-0.336-0.375-0.376l-1.66-0.362c-0.139-0.029-0.287,0.003-0.4,0.088
	c-0.313,0.234-0.609,0.492-0.91,0.795c-0.143,0.142-0.184,0.358-0.104,0.542l0.535,1.24c-0.408,0.497-0.748,1.059-1.025,1.654
	l-1.063-0.235c-0.243-0.054-0.49,0.079-0.572,0.315c-0.134,0.375-0.246,0.753-0.344,1.173c-0.063,0.255,0.085,0.514,0.338,0.587
	l1.631,0.482c0.043,0.014,0.09,0.021,0.137,0.021c0.088,0,0.176-0.025,0.252-0.069c0.119-0.069,0.199-0.185,0.23-0.316
	c0.072-0.322,0.164-0.695,0.256-0.99l1.025,0.268c0.041,0.01,0.082,0.016,0.123,0.016c0.191,0,0.371-0.112,0.451-0.292
	c0.291-0.657,0.674-1.258,1.133-1.773c0.127-0.143,0.16-0.346,0.086-0.522l-0.531-1.23c0.209-0.193,0.428-0.383,0.605-0.516
	C125.352,51.217,125.424,51.024,125.381,50.835z"/>
<path fill="#397DA5" d="M128.178,49.597l-1.629-0.426c0.176-0.025,0.322-0.04,0.473-0.051c0.201-0.014,0.4-0.017,0.594-0.014
	l1.66,0.408c-0.195-0.002-0.426,0.017-0.625,0.029C128.502,49.555,128.354,49.572,128.178,49.597z"/>
<polygon fill="#397DA5" points="133.811,54.456 132.188,54.033 133.738,53.656 135.365,54.084 "/>
<polygon fill="#397DA5" points="132.461,64.437 130.834,64.009 129.736,62.822 131.365,63.248 "/>
<polygon fill="#397DA5" points="131.365,51.785 129.736,51.362 130.859,50.063 132.486,50.488 "/>
<polygon fill="#397DA5" points="128.074,65.963 126.521,65.492 126.217,63.813 127.844,64.238 "/>
<linearGradient id="SVGID_21_" gradientUnits="userSpaceOnUse" x1="125.665" y1="62.9541" x2="125.4163" y2="66.4577">
	<stop  offset="0" style="stop-color:#646767"/>
	<stop  offset="1" style="stop-color:#CDCECD"/>
</linearGradient>
<path fill="url(#SVGID_21_)" d="M126.949,64.088l-1.629-0.423c-0.361-0.097-0.711-0.229-1.041-0.4l1.627,0.42
	C126.236,63.861,126.586,63.994,126.949,64.088z"/>
<polygon fill="#397DA5" points="127.885,51.319 126.256,50.891 126.549,49.171 128.178,49.597 "/>
<polygon fill="#397DA5" points="123.951,64.346 122.322,63.923 122.963,62.292 124.596,62.718 "/>
<path fill="#397DA5" d="M124.799,65.021l-1.654-0.488c-0.305-0.192-0.57-0.392-0.822-0.61l1.629,0.423
	C124.201,64.567,124.496,64.828,124.799,65.021z"/>
<path fill="#397DA5" d="M126.01,52.105l-1.627-0.425c0.576-0.372,1.207-0.639,1.873-0.789l1.629,0.428
	C127.219,51.467,126.586,51.736,126.01,52.105z"/>
<path fill="#397DA5" d="M124.596,62.718l-1.633-0.426c-0.492-0.499-0.906-1.101-1.203-1.785l1.629,0.426
	C123.688,61.614,124.098,62.218,124.596,62.718z"/>
<polygon fill="#397DA5" points="121.551,60.192 119.916,59.77 121.275,58.811 122.902,59.233 "/>
<polygon fill="#397DA5" points="121.906,55.077 120.273,54.648 121.822,54.737 123.451,55.162 "/>
<polygon fill="#397DA5" points="122.926,56.933 121.297,56.507 119.944,55.77 121.578,56.198 "/>
<path fill="#397DA5" d="M123.451,55.162l-1.629-0.425c0.309-0.704,0.719-1.344,1.213-1.897l1.627,0.426
	C124.17,53.82,123.76,54.461,123.451,55.162z"/>
<path fill="#397DA5" d="M122.902,59.262l-1.625-0.442c-0.053-0.366-0.082-0.746-0.082-1.138c0-0.42,0.041-0.774,0.105-1.177
	l1.625,0.428c-0.066,0.403-0.104,0.769-0.104,1.188C122.822,58.513,122.85,58.893,122.902,59.262z"/>
<polygon fill="#397DA5" points="124.662,53.266 123.035,52.84 122.381,51.322 124.01,51.748 "/>
<path fill="#397DA5" d="M123.959,51.765l-1.578-0.442c0.283-0.287,0.563-0.528,0.855-0.746l1.656,0.36
	C124.602,51.158,124.242,51.487,123.959,51.765z"/>
<path fill="#397DA5" d="M121.844,61.327l-1.62-0.494c-0.13-0.36-0.229-0.707-0.309-1.064l1.635,0.392
	C121.629,60.519,121.715,60.97,121.844,61.327z"/>
<path fill="#397DA5" d="M121.57,56.251l-1.626-0.482c0.096-0.403,0.201-0.763,0.329-1.121l1.633,0.366
	C121.775,55.367,121.66,55.849,121.57,56.251z"/>
<linearGradient id="SVGID_22_" gradientUnits="userSpaceOnUse" x1="126.2246" y1="57.5498" x2="131.3047" y2="57.5498">
	<stop  offset="0" style="stop-color:#025386"/>
	<stop  offset="1" style="stop-color:#83B5CE"/>
</linearGradient>
<path fill="url(#SVGID_22_)" d="M131.305,57.537c0.004-1.374-0.807-2.474-1.92-2.769l-1.631-0.426
	c1.117,0.295,1.926,1.393,1.922,2.769c-0.012,1.671-1.219,3.106-2.703,3.214h0.004c-0.262,0.02-0.516-0.008-0.752-0.068l1.629,0.423
	c0.24,0.062,0.492,0.091,0.758,0.071l-0.004-0.003C130.09,60.638,131.293,59.205,131.305,57.537z"/>
<linearGradient id="SVGID_23_" gradientUnits="userSpaceOnUse" x1="134.7607" y1="65.9971" x2="125.9409" y2="54.1338">
	<stop  offset="0" style="stop-color:#025386"/>
	<stop  offset="1" style="stop-color:#A3D7F4"/>
</linearGradient>
<path fill="url(#SVGID_23_)" d="M134.234,58.391l1.348,0.764c-0.082,0.36-0.18,0.715-0.301,1.066l-1.52-0.113
	c-0.299,0.718-0.689,1.354-1.152,1.903l0.633,1.541c-0.244,0.25-0.5,0.488-0.77,0.7l-1.111-1.104
	c-0.604,0.417-1.246,0.713-1.928,0.877l-0.318,1.725c-0.178,0.026-0.359,0.046-0.541,0.063c-0.135,0.009-0.27,0.012-0.4,0.015
	l-0.275-1.671c-0.723-0.055-1.381-0.241-1.98-0.56l-1.146,1.254c-0.26-0.167-0.51-0.354-0.752-0.553l0.664-1.608
	c-0.52-0.52-0.932-1.127-1.232-1.816l-1.533,0.3c-0.111-0.312-0.205-0.635-0.281-0.967l1.352-0.928
	c-0.059-0.386-0.086-0.757-0.086-1.138c0.004-0.411,0.039-0.82,0.109-1.211l-1.34-0.76c0.084-0.349,0.182-0.689,0.301-1.019
	l1.527,0.113c0.32-0.735,0.736-1.381,1.23-1.939l-0.629-1.529c0.246-0.244,0.51-0.471,0.781-0.678L126,52.233
	c0.604-0.392,1.24-0.667,1.916-0.806l0.316-1.722c0.135-0.02,0.273-0.034,0.41-0.042c0.188-0.014,0.375-0.02,0.559-0.017
	l0.281,1.688c0.676,0.074,1.295,0.264,1.855,0.564l1.146-1.254c0.275,0.182,0.539,0.377,0.787,0.602l-0.666,1.611
	c0.473,0.494,0.85,1.057,1.133,1.687l1.539-0.304c0.123,0.329,0.225,0.678,0.305,1.036l-1.355,0.922
	c0.061,0.386,0.09,0.757,0.088,1.141C134.314,57.693,134.287,58.045,134.234,58.391z M128.598,60.831
	c1.516-0.105,2.754-1.578,2.762-3.283c0.006-1.708-1.219-3.007-2.738-2.902c-1.516,0.105-2.756,1.577-2.762,3.282
	C125.852,59.636,127.078,60.938,128.598,60.831"/>
<linearGradient id="SVGID_24_" gradientUnits="userSpaceOnUse" x1="129.623" y1="59.6279" x2="126.0819" y2="52.9805">
	<stop  offset="0" style="stop-color:#5387AC"/>
	<stop  offset="1" style="stop-color:#FFFFFF"/>
</linearGradient>
<path fill="url(#SVGID_24_)" d="M127.783,64.283c-0.664-0.06-1.275-0.235-1.834-0.519l0,0l-1.154,1.265l-0.098-0.062
	c-0.268-0.174-0.521-0.363-0.764-0.57l0,0l-0.076-0.065l0.666-1.614c-0.475-0.488-0.863-1.056-1.152-1.688l0,0l-1.539,0.298
	l-0.045-0.107c-0.111-0.318-0.205-0.644-0.281-0.985l0,0l-0.02-0.093l1.357-0.928c-0.053-0.349-0.078-0.692-0.078-1.047l0,0
	c0-0.009,0-0.023,0-0.029l0,0c0.004-0.383,0.037-0.766,0.094-1.138l0,0l-1.342-0.763l0.023-0.099
	c0.082-0.354,0.184-0.698,0.303-1.033l0,0l0.037-0.099l1.535,0.113c0.307-0.681,0.697-1.294,1.158-1.82l0,0l-0.631-1.535
	l0.061-0.068c0.254-0.247,0.52-0.477,0.793-0.687l0,0l0.096-0.074l1.127,1.121c0.561-0.349,1.152-0.599,1.775-0.749l0,0l0.324-1.725
	l0.094-0.014c0.141-0.02,0.281-0.034,0.422-0.045l0,0c0.16-0.011,0.32-0.014,0.477-0.014l0,0c0.025,0,0.061,0,0.092,0l0,0
	l0.117,0.003l0.277,1.696c0.621,0.074,1.189,0.255,1.711,0.522l0,0l1.152-1.265l0.096,0.065c0.281,0.184,0.549,0.386,0.809,0.613
	l0,0l0.07,0.065l-0.672,1.62c0.432,0.459,0.785,0.98,1.053,1.559l0,0l1.549-0.304l0.043,0.108c0.121,0.337,0.223,0.689,0.305,1.053
	l0,0l0.02,0.091l-1.359,0.925c0.053,0.354,0.078,0.692,0.078,1.044l0,0c0,0.011,0,0.023,0,0.034l0,0
	c-0.002,0.329-0.023,0.655-0.07,0.976l0,0l1.354,0.771l-0.021,0.097c-0.082,0.366-0.18,0.726-0.305,1.083l0,0l-0.031,0.1
	l-1.527-0.114c-0.289,0.661-0.65,1.257-1.086,1.782l0,0l0.641,1.549l-0.064,0.063c-0.248,0.255-0.508,0.496-0.783,0.712l0,0
	l-0.096,0.079l-1.115-1.112c-0.563,0.375-1.162,0.647-1.795,0.812l0,0l-0.318,1.739l-0.098,0.012
	c-0.182,0.025-0.367,0.048-0.553,0.06l0,0c-0.137,0.009-0.273,0.014-0.406,0.017l0,0h-0.115L127.783,64.283L127.783,64.283z
	 M125.984,63.475c0.576,0.31,1.213,0.494,1.926,0.545l0,0l0.105,0.009l0.271,1.657c0.094,0,0.186-0.003,0.273-0.012l0,0
	c0.15-0.012,0.297-0.025,0.441-0.045l0,0l0.313-1.72l0.09-0.02c0.662-0.159,1.287-0.446,1.881-0.852l0,0l0.094-0.063l1.102,1.093
	c0.211-0.171,0.408-0.355,0.604-0.548l0,0l-0.633-1.535l0.055-0.065c0.455-0.539,0.834-1.16,1.129-1.864l0,0l0.037-0.093
	l1.516,0.113c0.094-0.281,0.17-0.564,0.236-0.854l0,0l-1.258-0.718l-0.08-0.045l0.012-0.091c0.053-0.337,0.078-0.681,0.082-1.024
	l0,0c0-0.02,0-0.031,0-0.04l0,0c0-0.363-0.029-0.718-0.088-1.086l0,0l-0.016-0.085l1.348-0.922c-0.063-0.275-0.143-0.55-0.234-0.814
	l0,0l-1.531,0.304l-0.045-0.102c-0.273-0.619-0.645-1.165-1.107-1.644l0,0l-0.061-0.065l0.666-1.603
	c-0.195-0.167-0.396-0.32-0.607-0.462l0,0l-1.137,1.243l-0.094-0.048c-0.547-0.292-1.145-0.479-1.807-0.547l0,0l-0.105-0.009
	l-0.273-1.679c-0.145,0-0.289,0.005-0.434,0.014l0,0c-0.104,0.008-0.205,0.017-0.307,0.031l0,0l-0.316,1.713l-0.088,0.02
	c-0.658,0.136-1.279,0.403-1.871,0.786l0,0l-0.094,0.057l-1.109-1.104c-0.207,0.167-0.412,0.34-0.605,0.528l0,0l0.629,1.523
	l-0.059,0.065c-0.486,0.543-0.896,1.179-1.207,1.902l0,0l-0.037,0.088l-1.521-0.111c-0.09,0.261-0.172,0.531-0.236,0.806l0,0
	l1.328,0.755l-0.016,0.097c-0.068,0.386-0.104,0.783-0.107,1.188l0,0c0,0.006,0,0.017,0,0.026l0,0c0,0.363,0.031,0.72,0.09,1.092
	l0,0l0.012,0.085l-1.348,0.922c0.059,0.252,0.135,0.505,0.215,0.751l0,0l1.527-0.3l0.043,0.099c0.293,0.676,0.697,1.266,1.203,1.776
	l0,0l0.066,0.065l-0.662,1.594c0.184,0.153,0.373,0.293,0.566,0.42l0,0l1.141-1.245L125.984,63.475L125.984,63.475z M125.725,57.945
	c0-0.008,0-0.011,0-0.017l0,0c0.008-1.77,1.285-3.302,2.887-3.418l0,0c0.063-0.009,0.123-0.009,0.182-0.009l0,0
	c1.521,0,2.697,1.333,2.701,3.027l0,0c0,0.003,0,0.011,0,0.02l0,0c-0.008,1.77-1.285,3.299-2.889,3.418l0,0v0.003l-0.006-0.091
	l0.006,0.088c-0.066,0.006-0.125,0.006-0.184,0.006l0,0C126.904,60.973,125.727,59.642,125.725,57.945L125.725,57.945z
	 M128.633,54.782c-1.436,0.096-2.629,1.503-2.637,3.152l0,0c0,0.006,0,0.011,0,0.011l0,0c0.004,1.575,1.08,2.752,2.426,2.752l0,0
	c0.053,0,0.109,0,0.162-0.002l0,0l0,0c1.436-0.1,2.633-1.504,2.637-3.146l0,0c0-0.006,0-0.011,0-0.02l0,0
	c-0.002-1.572-1.078-2.752-2.428-2.755l0,0C128.742,54.773,128.686,54.776,128.633,54.782L128.633,54.782z"/>
<linearGradient id="SVGID_25_" gradientUnits="userSpaceOnUse" x1="127.5615" y1="61.9121" x2="127.5615" y2="52.0309">
	<stop  offset="0" style="stop-color:#805F26"/>
	<stop  offset="1" style="stop-color:#E2D0AC"/>
</linearGradient>
<path fill="url(#SVGID_25_)" d="M129.586,53.797c-0.316-0.085-0.656-0.119-1.004-0.091c-1.971,0.136-3.572,2.043-3.584,4.256
	c-0.008,1.819,1.063,3.277,2.541,3.663l0.535,0.142c-1.475-0.386-2.545-1.844-2.539-3.662c0.012-2.216,1.615-4.12,3.582-4.259
	c0.352-0.022,0.689,0.009,1.008,0.094L129.586,53.797z"/>
<radialGradient id="SVGID_26_" cx="126.5176" cy="54.1704" r="8.438" gradientUnits="userSpaceOnUse">
	<stop  offset="0.3297" style="stop-color:#EFE8B2"/>
	<stop  offset="1" style="stop-color:#D78329"/>
</radialGradient>
<path fill="url(#SVGID_26_)" d="M129.117,53.846c1.967-0.139,3.555,1.546,3.549,3.759c-0.012,2.21-1.613,4.114-3.584,4.252
	c-1.965,0.137-3.559-1.54-3.547-3.753C125.547,55.889,127.15,53.985,129.117,53.846z M129.094,59.75
	c0.93-0.068,1.689-0.968,1.695-2.015c0.006-1.05-0.746-1.847-1.68-1.779c-0.932,0.063-1.693,0.965-1.699,2.015
	C127.406,59.021,128.16,59.813,129.094,59.75"/>
</g>

</svg>
