<?xml version="1.0" encoding="utf-8"?>
<!DOCTYPE svg PUBLIC "-//W3C//DTD SVG 1.0//EN" "http://www.w3.org/TR/2001/REC-SVG-20010904/DTD/svg10.dtd" [
<!ENTITY ns_svg "http://www.w3.org/2000/svg">
<!ENTITY ns_xlink "http://www.w3.org/1999/xlink">
]>
<svg xmlns="&ns_svg;" xmlns:xlink="&ns_xlink;" width="240" height="120" viewBox="0 0 240 120" overflow="visible" enable-background="new 0 0 240 120" xml:space="preserve">

<g id="Layer_1">
<path id="template" fill="none" d="M239.5,109.5c0,5.5-4.5,10-10,10H9.5c-5.5,0-10-4.5-10-10V9.5c0-5.5,4.5-10,10-10h220
	c5.5,0,10,4.5,10,10V109.5z"/>
<linearGradient id="DECAL_AREA_1_" gradientUnits="userSpaceOnUse" x1="61.7998" y1="563" x2="61.7998" y2="515" gradientTransform="matrix(1 0 0 1 8 -493)">
	<stop  offset="0" style="stop-color:#333333"/>
	<stop  offset="1" style="stop-color:#000000"/>
</linearGradient>
<path id="DECAL_AREA_2_" fill="url(#DECAL_AREA_1_)" d="M117.8,64c0,3.3-2.7,6-6,6h-84c-3.3,0-6-2.7-6-6V28c0-3.3,2.7-6,6-6h84
	c3.3,0,6,2.7,6,6V64z"/>
<linearGradient id="Reflection_2_" gradientUnits="userSpaceOnUse" x1="61.7998" y1="538.75" x2="61.7998" y2="514.75" gradientTransform="matrix(1 0 0 1 8 -493)">
	<stop  offset="0" style="stop-color:#1A1A1A"/>
	<stop  offset="1" style="stop-color:#666666"/>
</linearGradient>
<path id="Reflection_1_" fill="url(#Reflection_2_)" d="M117.8,39.8c0,3.3-2.7,6-6,6h-84c-3.3,0-6-2.7-6-6v-12c0-3.3,2.7-6,6-6h84
	c3.3,0,6,2.7,6,6V39.8z"/>
<path id="DecalBorder" fill="none" stroke="#1A1A1A" stroke-width="2" d="M117.8,64c0,3.3-2.7,6-6,6h-84c-3.3,0-6-2.7-6-6V28
	c0-3.3,2.7-6,6-6h84c3.3,0,6,2.7,6,6V64z"/>
<g id="HP_UX">
	<path fill="#FBFCFC" d="M37.2,35.6h3.2v8h5.9v-8h3.2v20h-3.2v-9.3h-5.9v9.3h-3.2V35.6z"/>
	<path fill="#FBFCFC" d="M52.7,35.6H59c3.8,0,5.5,2.4,5.5,5.8c0,3.6-2.1,5.9-5.9,5.9h-2.8v8.3h-3.2v-20H52.7z M55.9,44.9h2.3
		c1.7,0,3.2-0.9,3.2-3.4c0-2.2-0.9-3.5-3.4-3.5h-2v6.9H55.9z"/>
	<path fill="#FBFCFC" d="M66.3,46.1h7.3V49h-7.3V46.1z"/>
	<path fill="#FBFCFC" d="M79.5,35.6V50c0,2.5,1,3.6,2.9,3.6s2.9-1.1,2.9-3.6V35.6h3.2v14.1c0,4.6-2.3,6.3-6.1,6.3
		c-3.8,0-6.1-1.7-6.1-6.3V35.6H79.5z"/>
	<path fill="#FBFCFC" d="M95.2,45.5l-4.8-9.8H94l3.2,6.6l3.1-6.6h3.4l-4.8,9.8l5.1,10.2h-3.5L97,48.4l-3.6,7.2H90L95.2,45.5z"/>
</g>
<polygon fill="#262626" points="215.81,71.57 215.83,20.47 193.96,15.8 173.41,16.94 173.41,66.7 194.75,73.39 "/>
<path fill="#262626" d="M171.27,68.27l0-53.35l22.86-1.27l23.84,5.1l-0.02,52.82v1.96l-23.44,2.03L171.27,68.27L171.27,68.27z
	 M175.54,18.96l0,46.16l19.43,6.09l18.69-1.62l0.02-47.4l-19.89-4.25L175.54,18.96L175.54,18.96z"/>
<linearGradient id="SVGID_1_" gradientUnits="userSpaceOnUse" x1="171.6436" y1="46.9336" x2="216.872" y2="46.9336">
	<stop  offset="0" style="stop-color:#8EAEBD"/>
	<stop  offset="0.269" style="stop-color:#B5C7DC"/>
	<stop  offset="1" style="stop-color:#518AB3"/>
</linearGradient>
<polygon fill="url(#SVGID_1_)" points="215.88,20.59 215.86,71.48 194.74,73.28 194.71,21.85 "/>
<linearGradient id="SVGID_2_" gradientUnits="userSpaceOnUse" x1="171.6436" y1="45.1631" x2="216.8721" y2="45.1631">
	<stop  offset="0" style="stop-color:#8EAEBD"/>
	<stop  offset="0.269" style="stop-color:#B5C7DC"/>
	<stop  offset="1" style="stop-color:#518AB3"/>
</linearGradient>
<polygon fill="url(#SVGID_2_)" points="194.88,73.29 173.46,66.61 173.45,17.04 194.94,21.8 "/>
<linearGradient id="SVGID_3_" gradientUnits="userSpaceOnUse" x1="173.6797" y1="17.1421" x2="215.3477" y2="20.627">
	<stop  offset="0" style="stop-color:#8EAEBD"/>
	<stop  offset="0.269" style="stop-color:#B5C7DC"/>
	<stop  offset="1" style="stop-color:#518AB3"/>
</linearGradient>
<polygon fill="url(#SVGID_3_)" points="194.91,21.83 173.49,17.07 194,15.93 215.88,20.58 "/>
<g>
	<path fill="#335E8F" d="M193.38,65.05v-49c0-0.28,0.22-0.5,0.5-0.5l0,0c0.28,0,0.5,0.22,0.5,0.5l0,0v49c0,0.27-0.23,0.5-0.5,0.5
		l0,0C193.6,65.55,193.38,65.33,193.38,65.05L193.38,65.05z"/>
</g>
<g>
	<linearGradient id="SVGID_4_" gradientUnits="userSpaceOnUse" x1="169.6367" y1="29.6401" x2="198.5359" y2="35.8572">
		<stop  offset="0" style="stop-color:#8EAEBD"/>
		<stop  offset="1" style="stop-color:#335E8F"/>
	</linearGradient>
	<polygon fill="url(#SVGID_4_)" points="198.9,47.31 182.32,42.63 182.32,20.99 198.93,24.83 	"/>
	<path fill="#26466B" d="M198.83,47.55l-16.58-4.68c-0.11-0.03-0.18-0.13-0.18-0.24l0,0l0-21.64c0-0.08,0.04-0.15,0.09-0.2l0,0
		c0.06-0.05,0.14-0.06,0.21-0.05l0,0l16.61,3.84c0.11,0.02,0.19,0.13,0.19,0.24l0,0l-0.03,22.48c0,0.08-0.04,0.15-0.1,0.2l0,0
		c-0.04,0.03-0.1,0.05-0.15,0.05l0,0C198.88,47.56,198.85,47.56,198.83,47.55L198.83,47.55z M198.9,47.31l0.07-0.24L198.9,47.31
		L198.9,47.31z M182.57,42.44l16.08,4.54l0.03-21.95l-16.11-3.73L182.57,42.44L182.57,42.44z"/>
</g>
<g>
	<linearGradient id="SVGID_5_" gradientUnits="userSpaceOnUse" x1="171.2383" y1="20.9209" x2="202.7331" y2="22.9564">
		<stop  offset="0" style="stop-color:#8EAEBD"/>
		<stop  offset="1" style="stop-color:#335E8F"/>
	</linearGradient>
	<polygon fill="url(#SVGID_5_)" points="199.07,25.12 182.32,20.94 196.65,20.16 213.73,24.26 	"/>
	<path fill="#26466B" d="M199,25.36l-16.75-4.18c-0.12-0.03-0.2-0.14-0.19-0.27l0,0c0.01-0.12,0.11-0.22,0.23-0.23l0,0l14.34-0.78
		l0.07,0.01l17.08,4.1c0.12,0.03,0.2,0.14,0.19,0.26l0,0c-0.01,0.13-0.11,0.22-0.24,0.23l0,0l-14.66,0.85L199,25.36L199,25.36z
		 M199.06,25.12l0.06-0.24L199.06,25.12L199.06,25.12z M183.99,21.1l15.1,3.77l12.93-0.76l-15.4-3.69L183.99,21.1L183.99,21.1z"/>
</g>
<path fill="#335E8F" stroke="#335E8F" stroke-width="0.5" d="M173.45,66.81l0-0.56l20.51-1.53l21.83,6.26v0.57l-20.92,1.66h-0.03
	 M194.86,72.91l0.04-0.28L194.86,72.91L194.86,72.91z M174.98,66.7l19.89,5.92l19.48-1.53l-20.42-5.8L174.98,66.7L174.98,66.7z"/>
<path fill="#C7DBF2" d="M198.82,47.52c0,0,11.76,2.33,15.14-1.29"/>
<linearGradient id="SVGID_6_" gradientUnits="userSpaceOnUse" x1="184.4775" y1="33.4092" x2="213.1316" y2="33.4092">
	<stop  offset="0" style="stop-color:#9BB5CF"/>
	<stop  offset="1" style="stop-color:#B1C8E0"/>
</linearGradient>
<polygon fill="url(#SVGID_6_)" points="213.26,30.48 213.29,35.33 199.02,36.34 199,31.54 "/>
<path fill="#B5C7DC" d="M198.79,31.33l14.46-1.07l0.23-0.02l0.03,5.29l-14.69,1.04L198.79,31.33L198.79,31.33z M199.21,31.74
	l0.02,4.36l13.84-0.98l-0.02-4.41L199.21,31.74L199.21,31.74z"/>
<path fill="#335E8F" d="M213.47,51.79c0,0.48-0.39,0.91-0.88,0.95c-0.48,0.04-0.87-0.31-0.87-0.79c0-0.47,0.39-0.89,0.87-0.94
	C213.09,50.95,213.47,51.3,213.47,51.79z"/>
<g>
	<path fill="#FFFFFF" d="M211.05,51.98c0.01-0.84,0.68-1.56,1.52-1.65l0,0c0.05,0,0.1-0.01,0.15-0.01l0,0
		c0.79,0,1.42,0.62,1.42,1.42l0,0c0,0.85-0.67,1.58-1.53,1.65l0,0c-0.04,0-0.09,0.01-0.13,0.01l0,0
		C211.69,53.41,211.05,52.78,211.05,51.98L211.05,51.98z M212.62,50.83c-0.59,0.05-1.08,0.59-1.07,1.15l0,0
		c0,0.54,0.4,0.92,0.93,0.93l0,0c0.03,0,0.06,0,0.09,0l0,0c0.59-0.04,1.08-0.57,1.07-1.16l0,0c-0.01-0.54-0.39-0.92-0.92-0.93l0,0
		C212.69,50.82,212.66,50.82,212.62,50.83L212.62,50.83z"/>
</g>
<polygon fill="#86A0BA" points="213.34,25.07 213.36,29.66 199.1,30.76 199.08,25.95 "/>
<path fill="#C7DBF2" d="M199.65,27.03l13.19-0.89l0.07,0l-0.01,2.2l-13.25,0.92L199.65,27.03L199.65,27.03z M199.78,27.16l0.02,1.52
	l13-0.92l-0.02-1.48L199.78,27.16L199.78,27.16z"/>
<path fill="#B5C7DC" d="M198.86,25.75l14.47-0.89l0.22-0.01l0.03,5.02L198.88,31L198.86,25.75L198.86,25.75z M199.29,26.16
	l0.02,4.36l13.84-1.07l-0.02-4.15L199.29,26.16L199.29,26.16z"/>
<linearGradient id="SVGID_7_" gradientUnits="userSpaceOnUse" x1="199.7178" y1="27.4839" x2="212.8643" y2="27.4839">
	<stop  offset="0" style="stop-color:#9BB5CF"/>
	<stop  offset="1" style="stop-color:#B1C8E0"/>
</linearGradient>
<polygon fill="url(#SVGID_7_)" points="212.84,26.22 212.86,27.83 199.74,28.75 199.72,27.1 "/>
<polygon fill="#C7DBF2" points="198.92,25.29 213.51,24.4 213.54,25.35 198.87,26.27 198.86,25.29 "/>
<path fill="#8EAEBD" d="M212.96,51.79c0,0.19-0.16,0.37-0.36,0.38c-0.2,0.02-0.35-0.13-0.35-0.32c0-0.2,0.16-0.37,0.35-0.38
	C212.8,51.45,212.96,51.59,212.96,51.79z"/>
<linearGradient id="SVGID_8_" gradientUnits="userSpaceOnUse" x1="184.4951" y1="41.4634" x2="213.1511" y2="41.4634">
	<stop  offset="0" style="stop-color:#9BB5CF"/>
	<stop  offset="1" style="stop-color:#B1C8E0"/>
</linearGradient>
<polygon fill="url(#SVGID_8_)" points="213.28,36.25 213.31,45.66 199.04,46.67 199.02,37.31 "/>
<path fill="#C7DBF2" d="M198.81,36.48l14.46-1.07l0.23-0.02l0.03,10.48l-14.69,1.32l-0.02-5.52V36.48z M199.23,37.45l0.02,9.27
	l13.84-1.26l-0.02-9.03l-13.84,1.08V37.45z"/>
<polygon fill="#86A0BA" points="213.03,30.75 213.04,35.08 204.23,35.77 209.22,31.02 "/>
<polygon fill="#86A0BA" points="213.07,36.43 213.05,45.45 199.22,46.71 199.23,41.01 203.05,37.16 "/>
<polygon fill="#C7DBF2" points="199.09,30.82 213.72,29.8 213.71,30.7 199.08,31.71 199.08,30.82 "/>
<g>
	<path fill="#FFFFFF" d="M194.38,72.74V21.8c0-0.28,0.22-0.5,0.5-0.5l0,0c0.27,0,0.5,0.22,0.5,0.5l0,0v50.94
		c0,0.28-0.23,0.5-0.5,0.5l0,0C194.6,73.24,194.38,73.02,194.38,72.74L194.38,72.74z"/>
</g>
<g>
	<path fill="#FFFFFF" d="M173.21,66.58V17.19c0-0.27,0.22-0.5,0.5-0.5l0,0c0.27,0,0.5,0.22,0.5,0.5l0,0v49.39
		c0,0.28-0.23,0.5-0.5,0.5l0,0C173.43,67.08,173.21,66.85,173.21,66.58L173.21,66.58z"/>
</g>
<g>
	<path fill="#FFFFFF" d="M215.26,71.28V20.59c0-0.28,0.22-0.5,0.5-0.5l0,0c0.28,0,0.5,0.22,0.5,0.5l0,0v50.68
		c0,0.28-0.22,0.5-0.5,0.5l0,0C215.48,71.78,215.26,71.55,215.26,71.28L215.26,71.28z"/>
</g>
<g>
	<path fill="#FFFFFF" d="M198.78,47.52c-0.05-0.05-0.08-0.11-0.08-0.19l0,0l-0.13-22.24l0.25,0l0.01,0.25l-0.01-0.25l-0.25,0
		c0-0.14,0.1-0.25,0.24-0.26l0,0l14.92-0.92c0.07,0,0.14,0.02,0.19,0.07l0,0c0.05,0.05,0.08,0.11,0.08,0.19l0,0v21.84
		c0,0.13-0.1,0.24-0.23,0.25l0,0l-14.79,1.31c-0.01,0-0.01,0-0.02,0l0,0C198.89,47.58,198.83,47.56,198.78,47.52L198.78,47.52z
		 M199.2,47.06l14.29-1.27V24.44l-14.41,0.89L199.2,47.06L199.2,47.06z"/>
</g>
<g>
	<path fill="#FFFFFF" d="M189.95,66.47c-0.35,0-0.75-0.07-1.23-0.21l0,0c-2.81-0.83-10.03-3.2-10.07-3.21l0,0
		c-0.02-0.03-1.77-0.66-1.83-2.41l0,0c0-0.05,0-0.13,0-0.23l0,0c0-3.12,0.07-33.31,0.07-34.16l0,0c0-0.03,0-0.07,0-0.12l0,0
		c-0.04-0.41,0.19-1.95,1.9-2.19l0,0l0.19,0.01l10.27,2.47c0.04,0,2.2,0.4,2.31,2.82l0,0c0.01,0.43,0.02,2.07,0.02,4.46l0,0
		c0,9.21-0.09,29.32-0.1,30.66l0,0c0.03,0.11,0.07,0.32,0.07,0.59l0,0c0,0.29-0.05,0.66-0.31,0.99l0,0
		c-0.26,0.33-0.71,0.53-1.25,0.53l0,0C189.97,66.47,189.96,66.47,189.95,66.47L189.95,66.47z M189,65.31
		c0.41,0.12,0.73,0.17,0.95,0.17l0,0c0.65-0.06,0.52-0.18,0.6-0.52l0,0c0-0.2-0.05-0.37-0.05-0.37l0,0l-0.02-0.15
		c0-0.03,0.1-21.21,0.1-30.73l0,0c0-2.38-0.01-4.04-0.02-4.42l0,0c-0.04-0.87-0.4-1.28-0.76-1.54l0,0
		c-0.37-0.26-0.71-0.32-0.74-0.33l0,0l-10.2-2.45c-0.94,0.18-0.93,0.89-0.96,1.19l0,0c0,0.04,0,0.04,0,0.04l0,0l0,0.06
		c0,0.04-0.07,31.01-0.07,34.17l0,0c0,0.1,0,0.17,0,0.22l0,0c0,0.46,0.27,0.83,0.59,1.1l0,0c0.29,0.25,0.57,0.38,0.59,0.39l0,0
		C179.13,62.17,186.25,64.49,189,65.31L189,65.31z"/>
</g>

<g>
	<path fill="#FFFFFF" d="M173.45,17.28l0-0.42l20.56-1.14l21.88,4.67v0.42l-20.97,1.24h-0.03 M194.91,21.83l0.04-0.21L194.91,21.83
		L194.91,21.83z M174.99,17.2l19.94,4.42l19.52-1.14l-20.47-4.33L174.99,17.2L174.99,17.2z"/>
	<path fill="#FFFFFF" d="M194.89,22.3v-0.43l-19.96-4.42l0.03-0.42l-1.27,0.07l0,0.19l0,0l-0.5,0l0.01-0.66l20.82-1.16l22.11,4.72
		v0.2v0.66l-21.22,1.25H194.89L194.89,22.3z M194.94,21.36l17.63-1.03l-18.61-3.94l-17.15,0.95L194.94,21.36L194.94,21.36z
		 M214.47,20.64l1.12-0.07l-1.09-0.23L214.47,20.64L214.47,20.64z"/>
</g>
<g>
	<polygon fill="#FFFFFF" points="173.45,66.4 173.45,66.81 194.84,73.19 194.87,73.19 215.79,71.54 215.79,71.18 214.35,71.09 
		194.87,72.62 174.98,66.7 	"/>
	<path fill="#FFFFFF" d="M194.8,73.44l-21.6-6.45l0-0.19l0-0.41l0-0.3l1.85,0.36l19.85,5.91l19.47-1.53l1.67,0.11v0.24v0.58
		l-21.17,1.68H194.8L194.8,73.44z M194.87,72.94l19.9-1.58l-0.4-0.03l-19.53,1.53l-19.91-5.92l-0.42-0.08L194.87,72.94L194.87,72.94
		z M173.4,66.64l0.05-0.25L173.4,66.64L173.4,66.64z"/>
</g>
</g>

</svg>
