<?xml version="1.0" encoding="utf-8"?>
<!DOCTYPE svg PUBLIC "-//W3C//DTD SVG 1.0//EN" "http://www.w3.org/TR/2001/REC-SVG-20010904/DTD/svg10.dtd" [
<!ENTITY ns_svg "http://www.w3.org/2000/svg">
<!ENTITY ns_xlink "http://www.w3.org/1999/xlink">
]>
<svg xmlns="&ns_svg;" xmlns:xlink="&ns_xlink;" width="240" height="120" viewBox="0 0 240 120" overflow="visible" enable-background="new 0 0 240 120" xml:space="preserve">

<g id="Layer_1">

<path id="template" fill="none" d="M239.5,109.5c0,5.5-4.5,10-10,10H9.5c-5.5,0-10-4.5-10-10V9.5c0-5.5,4.5-10,10-10h220
	c5.5,0,10,4.5,10,10V109.5z"/>
<linearGradient id="DECAL_AREA_1_" gradientUnits="userSpaceOnUse" x1="61.7998" y1="563" x2="61.7998" y2="515" gradientTransform="matrix(1 0 0 1 8 -493)">
	<stop  offset="0" style="stop-color:#5051A2"/>
	<stop  offset="1" style="stop-color:#292865"/>
</linearGradient>
<path id="DECAL_AREA_2_" fill="url(#DECAL_AREA_1_)" d="M117.8,64c0,3.3-2.7,6-6,6h-84c-3.3,0-6-2.7-6-6V28c0-3.3,2.7-6,6-6h84
	c3.3,0,6,2.7,6,6V64z"/>
<linearGradient id="Reflection_2_" gradientUnits="userSpaceOnUse" x1="61.7998" y1="538.75" x2="61.7998" y2="514.75" gradientTransform="matrix(1 0 0 1 8 -493)">
	<stop  offset="0" style="stop-color:#3A3D82"/>
	<stop  offset="1" style="stop-color:#8A8AC3"/>
</linearGradient>
<path id="Reflection_1_" fill="url(#Reflection_2_)" d="M117.8,39.8c0,3.3-2.7,6-6,6h-84c-3.3,0-6-2.7-6-6v-12c0-3.3,2.7-6,6-6h84
	c3.3,0,6,2.7,6,6V39.8z"/>
<path id="DecalBorder" fill="none" stroke="#262361" stroke-width="2" d="M117.8,64c0,3.3-2.7,6-6,6h-84c-3.3,0-6-2.7-6-6V28
	c0-3.3,2.7-6,6-6h84c3.3,0,6,2.7,6,6V64z"/>
<g id="Sun_Web">
	<path fill="#E6E6FF" d="M32.7,47.7v0.4c0,2.1,0.9,3.1,2.8,3.1c1.7,0,2.6-1.2,2.6-2.5c0-1.8-0.9-2.6-2.4-3l-1.9-0.6
		c-2.5-1-3.6-2.3-3.6-4.7c0-3.1,2.1-4.8,5.3-4.8c4.4,0,4.8,2.7,4.8,4.5v0.4h-2.7v-0.4c0-1.6-0.7-2.5-2.4-2.5c-1.2,0-2.3,0.6-2.3,2.5
		c0,1.5,0.7,2.2,2.6,2.9l1.8,0.7c2.4,0.9,3.5,2.2,3.5,4.5c0,3.6-2.2,5.2-5.7,5.2c-4.2,0-5.2-2.8-5.2-5.2v-0.4L32.7,47.7L32.7,47.7z"
		/>
	<path fill="#E6E6FF" d="M49.5,51.5L49.5,51.5c-0.7,1.2-1.9,1.8-3.4,1.8c-1.9,0-3.2-0.9-3.2-4.2v-9h2.6v9.3c0,1.4,0.6,1.9,1.8,1.9
		c1.2,0,2.1-0.7,2.1-2.2v-9H52V53h-2.4v-1.5H49.5z"/>
	<path fill="#E6E6FF" d="M54.4,40.1h2.4v1.5h0.1c0.6-1.2,1.9-1.8,3.3-1.8c2,0,3.2,0.9,3.2,3.5V53h-2.6v-8.9c0-1.7-0.5-2.3-1.8-2.3
		c-1.1,0-2.1,0.8-2.1,2.5V53h-2.6V40.1H54.4z"/>
	<path fill="#E6E6FF" d="M69.7,35.9h2.8l2.3,13.3l0,0L77,35.9h2.9l2.3,13.4l0,0l2.2-13.4h2.7L83.8,53h-3.2l-2.2-12.9l0,0L76.2,53H73
		L69.7,35.9z"/>
	<path fill="#E6E6FF" d="M90.4,46.9v0.7c0,1.7,0.2,3.9,2.2,3.9c1.8,0,2.1-2.1,2.1-2.9h2.4c0,2.9-1.7,4.7-4.5,4.7
		c-2.1,0-4.7-0.6-4.7-6.6c0-3.4,0.7-7,4.8-7c3.6,0,4.6,2.2,4.6,5.8v1.4H90.4z M94.6,45.1v-0.7c0-1.6-0.5-2.9-2-2.9
		c-1.7,0-2.2,1.6-2.2,3.3v0.3H94.6z"/>
	<path fill="#E6E6FF" d="M99.3,35.9h2.6v5.7l0,0c0.5-1.2,1.5-1.8,2.9-1.8c2,0,4,0.9,4,6.6c0,4.4-1.2,7-4.2,7c-1.8,0-2.5-1.1-2.8-1.9
		l0,0V53h-2.4V35.9H99.3z M103.9,51.3c1.8,0,2.2-1.8,2.2-4.8c0-3.5-0.5-4.7-2-4.7c-2,0-2.4,1.8-2.4,4.9
		C101.7,49.4,102.1,51.3,103.9,51.3z"/>
</g>

<defs>
</defs>
<path id="Background_1_" fill="none" d="M240,110c0,5.523-4.478,10-10,10H10c-5.523,0-10-4.477-10-10V10C0,4.477,4.477,0,10,0h220
	c5.522,0,10,4.477,10,10V110z"/>
<path fill="#262626" d="M221.678,37.948l-2.894-0.755c-0.216-0.057-0.428-0.076-0.649-0.059l-10.901,0.791
	c-0.767-4.737-2.937-9.259-6.474-12.798c-4.422-4.416-10.449-6.847-16.61-6.849c-1.29,0-2.587,0.107-3.873,0.327
	c-10.581,1.815-18.695,10.836-19.405,21.542c-0.033,0.49-0.047,0.987-0.047,1.473c0.012,10.131,6.691,19.367,16.477,22.402
	c0.684,0.211,1.372,0.377,2.063,0.521l-0.036,8.413c-0.005,0.76,0.42,1.45,1.098,1.791l1.496,0.758
	c0.281,0.142,0.593,0.216,0.906,0.216c0.045,0,0.09-0.002,0.135-0.005l38.213-2.674c1.048-0.072,1.855-0.938,1.862-1.985
	l0.119-27.474c0.011-0.084,0.017-0.17,0.017-0.257v-3.442C223.174,38.972,222.561,38.178,221.678,37.948z"/>
<radialGradient id="SVGID_1_" cx="260.5576" cy="-694.2041" r="21.5044" fx="259.8174" fy="-715.0639" gradientTransform="matrix(0.7071 -0.7071 0.7071 0.7071 490.8244 716.7756)" gradientUnits="userSpaceOnUse">
	<stop  offset="0" style="stop-color:#85B6CD"/>
	<stop  offset="0.4586" style="stop-color:#2D9ACD"/>
	<stop  offset="1" style="stop-color:#044C80"/>
</radialGradient>
<path fill="url(#SVGID_1_)" d="M199.392,26.441c6.89,6.891,8.268,17.903,3.26,26.272c-5.045,8.427-15.469,12.418-24.852,9.524
	c-9.409-2.904-15.754-12.16-15.119-21.975c0.637-9.819,8.149-18.173,17.857-19.824C187.373,19.277,194.487,21.538,199.392,26.441"/>
<linearGradient id="SVGID_2_" gradientUnits="userSpaceOnUse" x1="143.2852" y1="16.1538" x2="229.8407" y2="75.6487">
	<stop  offset="0.1044" style="stop-color:#FFFFFF"/>
	<stop  offset="0.2039" style="stop-color:#F1FBFE"/>
	<stop  offset="0.3906" style="stop-color:#CDF0FB"/>
	<stop  offset="0.4231" style="stop-color:#C6EEFB"/>
	<stop  offset="0.6633" style="stop-color:#E9F9FD"/>
	<stop  offset="0.8407" style="stop-color:#FFFFFF"/>
</linearGradient>
<path fill="url(#SVGID_2_)" d="M175.951,37.773c-1.092-0.126-1.907-0.102-1.864,0.384c0.692,0.518,1.383,0.4,2.073,0.384
	C175.717,38.205,175.614,37.943,175.951,37.773z"/>
<linearGradient id="SVGID_3_" gradientUnits="userSpaceOnUse" x1="143.1885" y1="15.1704" x2="231.1788" y2="75.6515">
	<stop  offset="0.1044" style="stop-color:#FFFFFF"/>
	<stop  offset="0.2039" style="stop-color:#F1FBFE"/>
	<stop  offset="0.3906" style="stop-color:#CDF0FB"/>
	<stop  offset="0.4231" style="stop-color:#C6EEFB"/>
	<stop  offset="0.6633" style="stop-color:#E9F9FD"/>
	<stop  offset="0.8407" style="stop-color:#FFFFFF"/>
</linearGradient>
<path fill="url(#SVGID_3_)" d="M176.545,38.158c-0.295,0.448,0.006,0.588,0.231,0.767c0.154-0.284,0.43-0.539,0.825-0.767
	C177.407,38.049,176.676,38.102,176.545,38.158z"/>
<linearGradient id="SVGID_4_" gradientUnits="userSpaceOnUse" x1="144.751" y1="16.4912" x2="228.4423" y2="74.0173">
	<stop  offset="0.1044" style="stop-color:#FFFFFF"/>
	<stop  offset="0.2039" style="stop-color:#F1FBFE"/>
	<stop  offset="0.3906" style="stop-color:#CDF0FB"/>
	<stop  offset="0.4231" style="stop-color:#C6EEFB"/>
	<stop  offset="0.6633" style="stop-color:#E9F9FD"/>
	<stop  offset="0.8407" style="stop-color:#FFFFFF"/>
</linearGradient>
<path fill="url(#SVGID_4_)" d="M178.428,38.925c0.55,0.48,0.312,1.228,0.235,1.918c0.288-0.336,0.877-0.071,0.79-1.15
	C179.074,38.842,178.744,38.778,178.428,38.925z"/>
<linearGradient id="SVGID_5_" gradientUnits="userSpaceOnUse" x1="155.7197" y1="-0.0034" x2="241.8022" y2="59.1663">
	<stop  offset="0.1044" style="stop-color:#FFFFFF"/>
	<stop  offset="0.2039" style="stop-color:#F1FBFE"/>
	<stop  offset="0.3906" style="stop-color:#CDF0FB"/>
	<stop  offset="0.4231" style="stop-color:#C6EEFB"/>
	<stop  offset="0.6633" style="stop-color:#E9F9FD"/>
	<stop  offset="0.8407" style="stop-color:#FFFFFF"/>
</linearGradient>
<path fill="url(#SVGID_5_)" d="M187.894,22.381c-0.213,0.256,0.361,0.319,1.063,0.575c0.145-0.146,0.234-0.292-0.003-0.575
	C188.68,22.271,188.326,22.272,187.894,22.381z"/>
<linearGradient id="SVGID_6_" gradientUnits="userSpaceOnUse" x1="156.3076" y1="-0.4868" x2="241.9599" y2="58.3872">
	<stop  offset="0.1044" style="stop-color:#FFFFFF"/>
	<stop  offset="0.2039" style="stop-color:#F1FBFE"/>
	<stop  offset="0.3906" style="stop-color:#CDF0FB"/>
	<stop  offset="0.4231" style="stop-color:#C6EEFB"/>
	<stop  offset="0.6633" style="stop-color:#E9F9FD"/>
	<stop  offset="0.8407" style="stop-color:#FFFFFF"/>
</linearGradient>
<path fill="url(#SVGID_6_)" d="M193.675,24.3c-0.722-0.145-1.465-0.323-1.654,0.384c0.486,0.091,0.914,0.406,1.241,1.15
	c0.135-0.128,0.51,0.1,0.413-0.384c-0.204-0.255-0.404-0.511-0.604-0.766c0.46,0.217,0.892,0.06,1.43,1.15
	c0.062-0.128,0.12-0.255,0.186-0.384C194.436,24.767,194.187,24.601,193.675,24.3z"/>
<linearGradient id="SVGID_7_" gradientUnits="userSpaceOnUse" x1="156.7598" y1="-0.2578" x2="241.6684" y2="58.1051">
	<stop  offset="0.1044" style="stop-color:#FFFFFF"/>
	<stop  offset="0.2039" style="stop-color:#F1FBFE"/>
	<stop  offset="0.3906" style="stop-color:#CDF0FB"/>
	<stop  offset="0.4231" style="stop-color:#C6EEFB"/>
	<stop  offset="0.6633" style="stop-color:#E9F9FD"/>
	<stop  offset="0.8407" style="stop-color:#FFFFFF"/>
</linearGradient>
<path fill="url(#SVGID_7_)" d="M196.741,30.058c0.499-0.148,1.688,0.51,1.059-0.951c-0.306-0.72-0.318-1.307,0-1.736
	c0.286-0.093,0.394-0.403,0.413-0.767c0.7,0.776,1.929,1.278,2.89,1.919c-1.689-2.238-4.6-4.347-6.19-5.374
	c1.31,1.059,1.128,1.584,0.413,1.919c-0.119,0.408-0.156,0.841,0.652,1.536c0.917,0.732,0.806,1.072,0,1.151
	c-1.105-0.232-1.272,0.051-0.652,0.768C195.916,28.924,196.27,29.545,196.741,30.058z"/>
<linearGradient id="SVGID_8_" gradientUnits="userSpaceOnUse" x1="152.8682" y1="8.2134" x2="234.7995" y2="64.5297">
	<stop  offset="0.1044" style="stop-color:#FFFFFF"/>
	<stop  offset="0.2039" style="stop-color:#F1FBFE"/>
	<stop  offset="0.3906" style="stop-color:#CDF0FB"/>
	<stop  offset="0.4231" style="stop-color:#C6EEFB"/>
	<stop  offset="0.6633" style="stop-color:#E9F9FD"/>
	<stop  offset="0.8407" style="stop-color:#FFFFFF"/>
</linearGradient>
<path fill="url(#SVGID_8_)" d="M202.216,31.595c-2.209-2.324-3.621-1.936-5.087-0.147c-0.058,0.465,0.051,0.913,0.414,1.336
	c-0.957,0.541-0.517,1.707-1.012,2.119c0.042,0.505,0.095,1.019-0.228,1.313c0.473,0.059,0.731,0.411,0.825,0.989
	c0,0.841,0,1.683,0,2.524c1.367,1.695,2.796,3.744,3.716,2.848c0.427-0.528,0.921-0.46,1.53-0.399
	c-0.395-0.622,0.431-0.666,1.274-0.818c0.649,0.424,1.168,1.195,0.911,3.521c0.27,2.942-1.181,5.886-2.707,8.829
	c0.673-0.988,1.359-2.092,1.982-3.304c2.776-6.293,2.324-13.626-1.052-19.526c-0.065-0.104-0.123-0.208-0.19-0.313
	C202.457,30.824,202.354,31.34,202.216,31.595z"/>
<linearGradient id="SVGID_9_" gradientUnits="userSpaceOnUse" x1="143.3027" y1="16.9185" x2="228.7749" y2="75.6687">
	<stop  offset="0.1044" style="stop-color:#FFFFFF"/>
	<stop  offset="0.2039" style="stop-color:#F1FBFE"/>
	<stop  offset="0.3906" style="stop-color:#CDF0FB"/>
	<stop  offset="0.4231" style="stop-color:#C6EEFB"/>
	<stop  offset="0.6633" style="stop-color:#E9F9FD"/>
	<stop  offset="0.8407" style="stop-color:#FFFFFF"/>
</linearGradient>
<path fill="url(#SVGID_9_)" d="M171.409,35.854l-0.826,0.489c0.908,0.337,1.809,0.741,2.657,1.682l0.42-0.636
	C173.169,36.689,172.438,36.164,171.409,35.854z"/>
<linearGradient id="SVGID_10_" gradientUnits="userSpaceOnUse" x1="144.6094" y1="15.8701" x2="229.0264" y2="73.8951">
	<stop  offset="0.1044" style="stop-color:#FFFFFF"/>
	<stop  offset="0.2039" style="stop-color:#F1FBFE"/>
	<stop  offset="0.3906" style="stop-color:#CDF0FB"/>
	<stop  offset="0.4231" style="stop-color:#C6EEFB"/>
	<stop  offset="0.6633" style="stop-color:#E9F9FD"/>
	<stop  offset="0.8407" style="stop-color:#FFFFFF"/>
</linearGradient>
<path fill="url(#SVGID_10_)" d="M164.327,36.113c-0.094,0.875,0.199,1.572,1.239,1.919c0.591,0.746,1.231,1.305,2.063,1.152
	c0.482,1.156,0.742,2.417,2.308,3.071c0.966-0.499,1.249,0.228,0.995,1.919c-0.555,0.442-1.007,1.025-1.238,1.918
	c-0.694,1.101,0.803,2.687,2.063,4.223c0.911,1.549,3.427,2.582,3.303,4.605c-0.053,1.888,0.084,3.7,0.995,5.216
	c1.247,1.636,2.194,2.278,2.308,0.159c0.686-1.007,1.193-2.165,2.888-2.303c1.607,0.039,2.402-1.426,3.303-2.69
	c1.523-0.414,2.99-0.931,3.716-2.685c-0.646-0.811,0.025-1.728,1.237-2.688c1.592-1.264,0.986-1.979-0.412-2.492
	c-0.868-0.195-2.463-0.563-4.953-1.137c-1.28-0.087-1.101-1.419-1.649-2.126c-0.234-0.698-1.618-0.98-3.303-1.152
	c-1.187-1.77-2.45-1.842-3.715-1.919c-1.124-0.745-2.347-0.841-3.717,0c-0.081,0.425-0.375,0.708-1.066,0
	c-1.136,0.648-1.518,0.164-1.602-0.768c0.627-2.216-0.422-2.059-1.46-1.918c0.563-0.5,0.746-1.354,0.826-2.303
	c-4.008,2.909-2.583-0.604-2.475-2.687c1.315,0.065,3.065-2.303,4.951,0.385c-0.273,0.456-0.229,0.846,0.229,1.15
	c0.144-2.04,0.631-3.151,1.424-3.454c0.926-0.051,1.646-0.724,2.248-1.757c0.314-0.454,1.087-0.697,1.88-0.929
	c-0.1-0.624,0.282-0.899,1.238-0.769c0.714,0.298,1.428,0.575,2.062-0.383c-0.773-0.153-1.362-0.452-1.649-0.982
	c-0.592-0.99,0.324-0.58,1.237-0.17c0.479-0.356,1.009-0.553,1.65-0.383c-0.684,0.502-0.991,0.949,0.414,1.152
	c0.988,0.26,0.449-0.776-0.414-2.087c-0.818-0.908-1.565-1.5-2.062-0.984c-0.535-0.831-1.056-1.74-2.063,0
	c-1.283,1.333-2.158,1.837-2.065,0.385c-0.665-0.333-1.245-0.671,0-1.152c0.455-0.393,0.897-0.8,2.065-0.383
	c0.873-0.543,1.651-0.339,2.443,0.242c1.106-0.318,2.112-0.555,2.096-1.394c-0.63-0.73-1.627-0.327-2.476-0.383
	c0.921-0.228,1.615-0.582,3.303-0.385c0.661,0.024,0.886,0.457,0.412,1.536c0.983,1.704,1.714,1.273,2.615-0.113
	c0.489-0.183,1.254-0.251,1.742-0.432c-0.979-0.814-2.517-1.762-2.955-1.995c-1.25-0.011-2.508,0.083-3.758,0.296
	c-7.797,1.327-14.173,6.981-16.711,14.244C163.606,36.38,163.593,37.56,164.327,36.113z"/>
<path fill="#666666" d="M205.636,38.917l-2.893,0.244l-0.332-0.028l-21.026,1.671c-0.517,0.042-0.919,0.473-0.921,0.991
	l-0.104,20.727c-0.002,0.279,0.114,0.548,0.316,0.737c0.186,0.173,0.429,0.269,0.681,0.269c0.025,0,0.052-0.001,0.078-0.003
	l36.924,0.224c0.519-0.04,0.921-0.473,0.925-0.994l-12.915-19.26c0.01-0.055,0.015-0.11,0.015-0.167v-3.442
	C206.384,39.428,206.076,39.031,205.636,38.917z"/>
<linearGradient id="SVGID_11_" gradientUnits="userSpaceOnUse" x1="182.1455" y1="42.5068" x2="182.1455" y2="73.1635">
	<stop  offset="0" style="stop-color:#CDCCCB"/>
	<stop  offset="1" style="stop-color:#A6A5A5"/>
</linearGradient>
<polygon fill="url(#SVGID_11_)" points="182.825,73.723 181.328,72.966 181.465,41.801 182.963,42.559 "/>
<linearGradient id="SVGID_12_" gradientUnits="userSpaceOnUse" x1="181.4512" y1="44.02" x2="182.9629" y2="44.02">
	<stop  offset="0" style="stop-color:#78A9C8"/>
	<stop  offset="1" style="stop-color:#84B5D4"/>
</linearGradient>
<polygon fill="url(#SVGID_12_)" points="182.936,46.239 181.451,45.484 181.465,41.801 182.963,42.559 "/>
<polygon fill="#84B5D4" points="182.963,42.559 181.465,41.801 218.281,39.13 221.174,39.885 "/>
<linearGradient id="SVGID_13_" gradientUnits="userSpaceOnUse" x1="202" y1="43.6216" x2="202" y2="72.4202">
	<stop  offset="0" style="stop-color:#FFFFFF"/>
	<stop  offset="1" style="stop-color:#E5E5E5"/>
</linearGradient>
<polygon fill="url(#SVGID_13_)" points="221.174,39.885 221.038,71.049 182.825,73.723 182.963,42.559 "/>
<linearGradient id="SVGID_14_" gradientUnits="userSpaceOnUse" x1="182.9004" y1="43.0571" x2="221.1748" y2="43.0571">
	<stop  offset="0" style="stop-color:#78A9C8"/>
	<stop  offset="1" style="stop-color:#5C91B4"/>
</linearGradient>
<polygon fill="url(#SVGID_14_)" points="221.174,39.885 221.175,43.327 182.9,46.229 182.915,42.54 "/>
<linearGradient id="SVGID_15_" gradientUnits="userSpaceOnUse" x1="219.5684" y1="42.6665" x2="219.5684" y2="40.6926">
	<stop  offset="0" style="stop-color:#BABABA"/>
	<stop  offset="1" style="stop-color:#E5E5E5"/>
</linearGradient>
<polygon fill="url(#SVGID_15_)" points="220.471,40.691 220.471,42.624 218.667,42.756 218.669,40.83 "/>
<linearGradient id="SVGID_16_" gradientUnits="userSpaceOnUse" x1="217.0039" y1="42.875" x2="217.0039" y2="40.9029">
	<stop  offset="0" style="stop-color:#BABABA"/>
	<stop  offset="1" style="stop-color:#E5E5E5"/>
</linearGradient>
<polygon fill="url(#SVGID_16_)" points="217.904,40.901 217.905,42.832 216.102,42.964 216.104,41.038 "/>
<path fill="#666666" d="M206.979,70.185c-0.091,0-0.176-0.019-0.256-0.05l0,0l-1.004-0.304c-0.244-0.075-0.426-0.278-0.471-0.529
	l0,0l-0.001-0.009l-0.022,0.025c-0.199,0.221-0.515,0.281-0.777,0.164l0,0l-1.055-0.314l-0.169-0.074
	c-0.239-0.15-0.453-0.311-0.649-0.483l0,0c-0.218-0.188-0.292-0.493-0.187-0.76l0,0l0.292-0.741c-0.034-0.043-0.067-0.087-0.1-0.133
	l0,0c-0.05-0.006-0.099-0.019-0.146-0.037l0,0l-1.061-0.325c-0.204-0.061-0.366-0.217-0.439-0.417l0,0
	c-0.101-0.273-0.179-0.544-0.238-0.814l0,0c-0.061-0.268,0.045-0.546,0.27-0.703l0,0l0.613-0.432
	c-0.012-0.146-0.018-0.294-0.018-0.443l0,0c0.001-0.017,0.001-0.032,0.003-0.043l0,0c0.001-0.142,0.007-0.274,0.019-0.404l0,0
	l-0.53-0.29c-0.04-0.021-0.077-0.047-0.109-0.074l0,0c-0.07-0.021-0.136-0.053-0.195-0.093l0,0
	c-0.088,0.033-0.177,0.066-0.268,0.097l0,0l-0.233,1.286c-0.055,0.291-0.291,0.513-0.585,0.55l0,0l-0.075,0.008
	c-0.204,0.033-0.4,0.051-0.594,0.065l0,0c-0.152,0.012-0.297,0.016-0.429,0.018l0,0l-0.111,0.003
	c-0.109,0.004-0.216-0.02-0.309-0.064l0,0l-1.405-0.423c-0.244-0.076-0.426-0.278-0.47-0.529l0,0l-0.104-0.564l-0.412,0.448
	c-0.201,0.221-0.522,0.281-0.788,0.155l0,0l-1.507-0.444l-0.163-0.074c-0.333-0.206-0.624-0.425-0.895-0.658l0,0
	c-0.219-0.187-0.295-0.493-0.188-0.763l0,0l0.474-1.197c-0.108-0.13-0.209-0.265-0.305-0.399l0,0
	c-0.104,0.002-0.207-0.021-0.299-0.063l0,0l-1.477-0.45c-0.201-0.062-0.362-0.214-0.437-0.414l0,0
	c-0.14-0.38-0.243-0.754-0.326-1.128l0,0c-0.061-0.269,0.047-0.545,0.271-0.702l0,0l0.99-0.698
	c-0.021-0.243-0.034-0.492-0.034-0.745l0,0c0-0.038,0.001-0.061,0.001-0.039l0,0c0.002-0.271,0.017-0.521,0.043-0.768l0,0
	l-0.908-0.498c-0.266-0.146-0.402-0.452-0.335-0.749l0,0c0.098-0.412,0.208-0.795,0.348-1.17l0,0
	c0.104-0.279,0.377-0.456,0.674-0.441l0,0l1.051,0.06c0.23-0.448,0.5-0.872,0.808-1.261l0,0l-0.471-1.098
	c-0.11-0.257-0.053-0.553,0.146-0.748l0,0c0.296-0.295,0.592-0.552,0.897-0.784l0,0c0.159-0.12,0.359-0.164,0.554-0.122l0,0
	l1.615,0.352c0.12,0.025,0.229,0.083,0.319,0.166l0,0c0.089-0.033,0.18-0.063,0.271-0.092l0,0l0.213-1.244
	c0.048-0.292,0.282-0.519,0.574-0.559l0,0c0.188-0.027,0.348-0.042,0.504-0.053l0,0c0.169-0.014,0.334-0.018,0.492-0.018l0,0
	c0.052,0,0.103,0,0.15,0.002l0,0l0.146,0.02l1.529,0.377c0.32,0.014,0.583,0.249,0.639,0.565l0,0l0.079,0.482l0.242-0.278
	c0.169-0.194,0.432-0.275,0.682-0.211l0,0l1.436,0.373c0.112,0.006,0.224,0.041,0.323,0.105l0,0l0.095,0.063
	c0.304,0.195,0.592,0.416,0.865,0.656l0,0l0.072,0.063c0.128,0.115,0.206,0.271,0.225,0.436l0,0l0.075,0.004
	c0.117-0.212,0.246-0.416,0.39-0.607l0,0l-0.252-0.584c-0.108-0.254-0.051-0.552,0.144-0.748l0,0
	c0.203-0.201,0.407-0.376,0.614-0.532l0,0c0.157-0.118,0.358-0.161,0.551-0.12l0,0l1.048,0.227c0.046,0.01,0.09,0.023,0.133,0.043
	l0,0l0.104-0.61c0.048-0.284,0.272-0.509,0.558-0.555l0,0c0.142-0.024,0.264-0.034,0.343-0.038l0,0
	c0.143-0.014,0.27-0.016,0.382-0.016l0,0c0.019,0,0.044,0,0.071,0.002l0,0l0.152,0.02l0.976,0.242
	c0.261,0.025,0.482,0.196,0.572,0.438l0,0c0.153-0.088,0.337-0.115,0.512-0.07l0,0l0.896,0.235c0.117,0.009,0.232,0.048,0.334,0.119
	l0,0l0.034,0.023c0.217,0.138,0.414,0.292,0.597,0.454l0,0l0.046,0.039c0.217,0.19,0.287,0.5,0.178,0.767l0,0l-0.264,0.638
	l1.029,0.267c0.213,0.056,0.388,0.213,0.466,0.422l0,0l0.023,0.066c0.093,0.245,0.165,0.5,0.224,0.759l0,0l0.013,0.058
	c0.057,0.27-0.055,0.547-0.281,0.704l0,0l-0.525,0.357c0.007,0.107,0.01,0.219,0.01,0.33l0,0v0.027c0,0.078-0.002,0.158-0.006,0.237
	l0,0l0.474,0.269c0.255,0.146,0.387,0.435,0.331,0.722l0,0l-0.015,0.077c-0.059,0.257-0.128,0.51-0.218,0.769l0,0l-0.023,0.061
	c-0.102,0.286-0.381,0.469-0.687,0.446l0,0l-0.506-0.036c-0.097,0.181-0.204,0.354-0.321,0.521l0,0l0.256,0.619
	c0.104,0.246,0.049,0.531-0.135,0.725l0,0l-0.043,0.045c-0.18,0.188-0.37,0.355-0.554,0.504l0,0l-0.061,0.049
	c-0.167,0.137-0.39,0.186-0.6,0.131l0,0l-1.033-0.27c-0.018-0.004-0.034-0.01-0.05-0.016l0,0l-0.124,0.664
	c-0.031,0.175-0.131,0.325-0.268,0.425l0,0l0.148,0.039c0.113,0.009,0.226,0.046,0.326,0.113l0,0l0.054,0.038
	c0.225,0.145,0.435,0.306,0.646,0.488l0,0l0.049,0.045c0.213,0.192,0.279,0.496,0.171,0.762l0,0l-0.307,0.74
	c0.006,0.01,0.012,0.017,0.019,0.025l0,0c0.015,0.002,0.029,0.006,0.044,0.01l0,0l1.122,0.295c0.208,0.055,0.379,0.207,0.459,0.407
	l0,0l0.033,0.093c0.096,0.261,0.173,0.53,0.238,0.815l0,0l0.014,0.062c0.057,0.271-0.055,0.547-0.283,0.701l0,0l-0.601,0.408
	c0.01,0.13,0.014,0.26,0.014,0.391l0,0v0.026c-0.001,0.101-0.004,0.199-0.01,0.299l0,0l0.553,0.316
	c0.256,0.145,0.388,0.437,0.329,0.725l0,0l-0.017,0.078c-0.062,0.271-0.136,0.545-0.227,0.804l0,0l-0.021,0.068
	c-0.096,0.3-0.384,0.495-0.697,0.472l0,0l-0.595-0.045c-0.116,0.218-0.243,0.425-0.382,0.621l0,0l0.291,0.708
	c0.105,0.253,0.047,0.545-0.146,0.74l0,0l-0.037,0.035c-0.188,0.194-0.39,0.381-0.592,0.538l0,0l-0.067,0.054
	c-0.167,0.143-0.394,0.191-0.606,0.138l0,0l-1.124-0.296c-0.04-0.011-0.08-0.025-0.118-0.044l0,0l-0.147,0.8
	c-0.053,0.288-0.288,0.511-0.58,0.549l0,0l-0.061,0.006c-0.133,0.021-0.277,0.038-0.428,0.046l0,0
	c-0.105,0.008-0.213,0.014-0.327,0.015l0,0H206.979L206.979,70.185z M205.659,67.369l0.229,0.06
	c0.257,0.064,0.451,0.273,0.497,0.534l0,0l0.124,0.69l0.579,0.175c0.04-0.001,0.082-0.004,0.125-0.006l0,0l0.128-0.699
	c0.047-0.26,0.242-0.467,0.496-0.533l0,0c0.191-0.049,0.39-0.127,0.594-0.225l0,0c0.269-0.129,0.589-0.065,0.792,0.152l0,0
	l0.034,0.035l0.593,0.156c0.006-0.004,0.011-0.008,0.015-0.012l0,0l-0.265-0.644c-0.096-0.231-0.057-0.496,0.103-0.688l0,0
	c0.258-0.313,0.474-0.668,0.65-1.069l0,0c0.116-0.266,0.386-0.429,0.673-0.407l0,0l0.12,0.009l-0.142-0.08
	c-0.242-0.138-0.376-0.412-0.334-0.687l0,0c0.027-0.186,0.04-0.381,0.043-0.574l0,0v-0.024c-0.003-0.209-0.017-0.407-0.048-0.621
	l0,0c-0.039-0.257,0.074-0.514,0.289-0.66l0,0l0.546-0.371c-0.001-0.001-0.001-0.004-0.003-0.007l0,0l-0.608-0.159l-0.032,0.009
	c-0.283,0.069-0.579-0.051-0.734-0.296l0,0c-0.125-0.196-0.252-0.369-0.392-0.519l0,0c-0.183-0.192-0.233-0.476-0.131-0.724l0,0
	l0.27-0.65c-0.035-0.025-0.071-0.05-0.107-0.074l0,0l-0.616-0.162l-0.435,0.504c-0.154,0.181-0.396,0.266-0.628,0.227l0,0
	c-0.064-0.012-0.105-0.023-0.127-0.029l0,0l0,0c-0.298-0.038-0.536-0.268-0.585-0.563l0,0l-0.118-0.719l-0.67-0.166l0,0l0,0
	c-0.022,0-0.046,0-0.068,0.001l0,0l-0.113,0.667c-0.047,0.271-0.252,0.487-0.519,0.549l0,0c-0.198,0.045-0.399,0.113-0.604,0.203
	l0,0c-0.255,0.112-0.553,0.057-0.749-0.139l0,0l-0.076-0.074l-0.658-0.145c-0.206-0.043-0.376-0.178-0.468-0.365l0,0
	c-0.092-0.187-0.092-0.404-0.001-0.591l0,0c0.071-0.142,0.117-0.214,0.127-0.241l0,0c0.113-0.266,0.385-0.432,0.673-0.41l0,0
	l0.958,0.071c0.021-0.065,0.038-0.13,0.055-0.195l0,0l-0.878-0.502c-0.242-0.137-0.375-0.407-0.335-0.681l0,0
	c0.039-0.284,0.062-0.57,0.062-0.854l0,0c-0.001-0.015-0.001-0.024,0-0.035l0,0c-0.001-0.31-0.022-0.606-0.069-0.921l0,0
	c-0.036-0.256,0.074-0.51,0.288-0.656l0,0l0.199-0.135c0.13-0.09,0.289-0.129,0.444-0.115l0,0l0.077-0.016
	c0.274-0.053,0.557,0.07,0.705,0.309l0,0c0.13,0.208,0.264,0.389,0.404,0.529l0,0c0.189,0.191,0.247,0.475,0.15,0.727l0,0
	l-0.218,0.553l0.536,0.157l0.413-0.45c0.169-0.187,0.429-0.263,0.672-0.197l0,0l0.205,0.053c0.254,0.068,0.445,0.274,0.493,0.533
	l0,0l0.111,0.6l0.487,0.15c0.019,0,0.039-0.001,0.06-0.002l0,0l0.11-0.6c0.048-0.26,0.24-0.467,0.496-0.533l0,0
	c0.172-0.045,0.351-0.113,0.535-0.203l0,0c0.268-0.126,0.589-0.066,0.789,0.152l0,0l0.019,0.02l0.44,0.115l-0.206-0.5
	c-0.097-0.23-0.056-0.5,0.105-0.691l0,0c0.23-0.277,0.429-0.599,0.585-0.962l0,0c0.1-0.233,0.317-0.386,0.563-0.407l0,0
	c-0.206-0.146-0.314-0.397-0.275-0.651l0,0c0.025-0.163,0.037-0.339,0.039-0.516l0,0v-0.021c0-0.188-0.016-0.367-0.042-0.567l0,0
	c-0.036-0.255,0.076-0.51,0.289-0.653l0,0l0.404-0.275l-0.433-0.113l-0.021,0.005c-0.282,0.068-0.578-0.053-0.731-0.3l0,0
	c-0.111-0.176-0.225-0.332-0.351-0.465l0,0c-0.181-0.194-0.233-0.478-0.132-0.723l0,0l0.229-0.557
	c-0.017-0.012-0.033-0.022-0.05-0.034l0,0l-0.522-0.138l-0.376,0.438c-0.156,0.178-0.395,0.263-0.629,0.224l0,0
	c-0.063-0.011-0.104-0.023-0.121-0.026l0,0v-0.002c-0.293-0.039-0.53-0.268-0.578-0.561l0,0l-0.104-0.625l-0.565-0.141
	c-0.005,0-0.007,0-0.011,0l0,0l-0.098,0.568c-0.045,0.271-0.255,0.49-0.523,0.549l0,0c-0.174,0.037-0.352,0.099-0.535,0.181l0,0
	c-0.257,0.114-0.556,0.058-0.755-0.14l0,0l-0.054-0.057l-0.39-0.084l0.173,0.402c0.105,0.246,0.06,0.524-0.118,0.722l0,0
	c-0.261,0.289-0.481,0.636-0.647,1.017l0,0c-0.087,0.197-0.26,0.338-0.461,0.388l0,0c0.188,0.2,0.239,0.501,0.114,0.759l0,0
	c-0.019,0.152-0.03,0.291-0.031,0.455l0,0c-0.001,0.207-0.101,0.405-0.265,0.533l0,0c-0.165,0.125-0.383,0.17-0.584,0.116l0,0
	l-0.268-0.069l-0.119,0.029c-0.282,0.066-0.576-0.052-0.73-0.298l0,0c-0.182-0.286-0.372-0.548-0.585-0.776l0,0
	c-0.181-0.195-0.232-0.477-0.131-0.722l0,0l0.464-1.118c-0.124-0.096-0.25-0.186-0.379-0.271l0,0l-1.082-0.279l-0.732,0.842
	c-0.154,0.178-0.392,0.262-0.624,0.224l0,0c-0.15-0.028-0.188-0.046-0.188-0.042l0,0c-0.298-0.037-0.54-0.265-0.588-0.563l0,0
	l-0.199-1.196l-1.15-0.284c-0.018,0-0.033,0-0.05,0l0,0c-0.11,0-0.219,0.003-0.321,0.009l0,0l-0.198,1.166
	c-0.047,0.272-0.254,0.489-0.521,0.549l0,0c-0.309,0.067-0.61,0.169-0.904,0.3l0,0c-0.257,0.113-0.552,0.058-0.751-0.139l0,0
	l-0.157-0.158l-1.111-0.241c-0.063,0.052-0.126,0.106-0.188,0.162l0,0l0.448,1.044c0.104,0.242,0.058,0.521-0.117,0.719l0,0
	c-0.428,0.48-0.79,1.05-1.064,1.672l0,0c-0.115,0.257-0.378,0.418-0.658,0.4l0,0l-0.989-0.055c-0.004,0.015-0.007,0.028-0.011,0.043
	l0,0l0.822,0.451c0.266,0.127,0.422,0.416,0.374,0.717l0,0c-0.058,0.368-0.088,0.672-0.092,1.072l0,0
	c0,0.328,0.025,0.652,0.071,0.966l0,0c0.038,0.253-0.071,0.506-0.28,0.654l0,0l-0.942,0.663c0.019,0.07,0.04,0.139,0.061,0.208l0,0
	l1.078,0.329l0.158-0.031c0.275-0.053,0.557,0.069,0.706,0.307l0,0c0.21,0.338,0.432,0.638,0.676,0.883l0,0
	c0.189,0.191,0.247,0.476,0.148,0.727l0,0l-0.444,1.123c0.088,0.064,0.179,0.126,0.273,0.189l0,0l1.116,0.327l0.788-0.859
	c0.169-0.186,0.429-0.261,0.673-0.197l0,0l0.317,0.081c0.254,0.065,0.447,0.276,0.495,0.536l0,0l0.207,1.141l1.025,0.311
	c0.118-0.003,0.233-0.008,0.339-0.016l0,0c0.037-0.004,0.073-0.006,0.109-0.009l0,0l0.22-1.201c0.048-0.26,0.244-0.468,0.5-0.533
	l0,0c0.3-0.078,0.595-0.189,0.889-0.329l0,0c0.269-0.129,0.59-0.066,0.791,0.15l0,0l0.1,0.105l0.064,0.019
	c0.156,0.04,0.283,0.132,0.373,0.25l0,0l0.67,0.365c0.265,0.128,0.423,0.417,0.374,0.721l0,0c-0.043,0.258-0.063,0.453-0.063,0.699
	l0,0l-0.001,0.015c0,0.229,0.017,0.451,0.049,0.665l0,0c0.028,0.192-0.028,0.394-0.156,0.542l0,0
	c-0.036,0.041-0.079,0.08-0.124,0.112l0,0l0,0l-0.469,0.331l0.503,0.153l0.067-0.014c0.276-0.053,0.556,0.07,0.704,0.309l0,0
	c0.143,0.229,0.292,0.432,0.451,0.593l0,0c0.188,0.189,0.245,0.474,0.148,0.724l0,0l-0.256,0.652
	c0.012,0.007,0.024,0.015,0.037,0.023l0,0l0.641,0.19l0.474-0.521c0.13-0.141,0.313-0.22,0.5-0.22l0,0
	C205.546,67.348,205.603,67.354,205.659,67.369L205.659,67.369z"/>
<path fill="#666666" d="M207.47,61.661l-0.052-0.041l-0.066,0.005c-0.135,0.009-0.268,0.036-0.394,0.074l-0.253,0.074l0.174,0.198
	c0.275,0.316,0.452,0.747,0.452,1.249c0,0-0.003,0.013,0,0.034c-0.017,0.902-0.585,1.682-1.313,1.93l-0.246,0.083l0.176,0.191
	c0.09,0.098,0.189,0.194,0.307,0.273l0.056,0.039l0.065-0.009c1.063-0.162,1.878-1.182,1.89-2.362l-0.003-0.011
	C208.265,62.667,207.953,62.044,207.47,61.661z"/>
<path fill="#666666" d="M209.972,52.007c0.002-0.671-0.285-1.252-0.733-1.604l-0.055-0.042l-0.064,0.006
	c-0.137,0.011-0.268,0.039-0.391,0.08l-0.239,0.076l0.16,0.193c0.237,0.283,0.388,0.664,0.391,1.107
	c-0.001,0.008,0,0.018,0.001,0.029c-0.011,0.817-0.518,1.527-1.174,1.758l-0.236,0.086l0.169,0.187
	c0.091,0.102,0.189,0.197,0.307,0.276l0.052,0.036l0.067-0.009c0.984-0.143,1.736-1.084,1.748-2.176
	C209.974,52.01,209.972,52.007,209.972,52.007z"/>
<path fill="#666666" d="M199.083,53.221l-0.054-0.04l-0.063,0.005c-0.143,0.011-0.269,0.044-0.385,0.071l-0.289,0.069l0.206,0.214
	c0.451,0.464,0.744,1.117,0.748,1.893c-0.001,0.01-0.001,0.021,0.002,0.035c-0.016,1.367-0.903,2.537-2.039,2.848l-0.286,0.08
	l0.213,0.207c0.098,0.093,0.202,0.182,0.317,0.262l0.054,0.037l0.067-0.01c1.463-0.218,2.594-1.629,2.605-3.268l-0.001-0.002
	C200.18,54.614,199.751,53.749,199.083,53.221z"/>
<linearGradient id="SVGID_17_" gradientUnits="userSpaceOnUse" x1="204.4023" y1="52.5049" x2="205.4961" y2="52.5049">
	<stop  offset="0.0051" style="stop-color:#335E8F"/>
	<stop  offset="1" style="stop-color:#8DADBC"/>
</linearGradient>
<path fill="url(#SVGID_17_)" d="M205.48,53.376l-1.025-0.276c-0.035-0.231-0.053-0.475-0.053-0.722
	c0.002-0.266,0.025-0.49,0.067-0.744l1.026,0.271c-0.042,0.255-0.063,0.487-0.064,0.752
	C205.432,52.904,205.449,53.146,205.48,53.376z"/>
<linearGradient id="SVGID_18_" gradientUnits="userSpaceOnUse" x1="207.2656" y1="55.7012" x2="207.1072" y2="57.9332">
	<stop  offset="0" style="stop-color:#5D4098"/>
	<stop  offset="1" style="stop-color:#C6ACD2"/>
</linearGradient>
<path fill="url(#SVGID_18_)" d="M208.079,56.423l-1.03-0.27c-0.23-0.061-0.451-0.145-0.66-0.254l1.029,0.27
	C207.627,56.276,207.848,56.364,208.079,56.423z"/>
<polygon fill="#8C8E8E" points="204.041,53.048 202.459,52.634 203.966,52.272 205.549,52.686 "/>
<polygon fill="#8C8E8E" points="202.727,62.748 201.142,62.335 200.075,61.184 201.663,61.597 "/>
<polygon fill="#8C8E8E" points="201.662,50.451 200.075,50.038 201.167,48.781 202.752,49.193 "/>
<polygon fill="#8C8E8E" points="198.461,64.233 196.949,63.776 196.652,62.144 198.235,62.557 "/>
<linearGradient id="SVGID_19_" gradientUnits="userSpaceOnUse" x1="196.1182" y1="61.3066" x2="195.8756" y2="64.7237">
	<stop  offset="0" style="stop-color:#646767"/>
	<stop  offset="1" style="stop-color:#CDCECD"/>
</linearGradient>
<path fill="url(#SVGID_19_)" d="M197.368,62.412l-1.584-0.413c-0.355-0.092-0.694-0.225-1.015-0.39l1.583,0.414
	C196.672,62.189,197.012,62.32,197.368,62.412z"/>
<polygon fill="#8C8E8E" points="198.274,50 196.693,49.585 196.978,47.913 198.56,48.326 "/>
<path fill="#8C8E8E" d="M198.56,48.326l-1.582-0.413c0.172-0.024,0.314-0.038,0.46-0.049c0.194-0.014,0.388-0.017,0.576-0.014
	l1.611,0.396c-0.189-0.003-0.413,0.019-0.606,0.028C198.874,48.286,198.729,48.302,198.56,48.326z"/>
<polygon fill="#8C8E8E" points="194.451,62.663 192.866,62.25 193.494,60.664 195.076,61.077 "/>
<path fill="#8C8E8E" d="M195.276,63.316l-1.604-0.474c-0.298-0.185-0.557-0.379-0.806-0.593l1.585,0.413
	C194.697,62.876,194.98,63.13,195.276,63.316z"/>
<path fill="#8C8E8E" d="M196.455,50.763l-1.582-0.413c0.558-0.36,1.172-0.622,1.82-0.765L198.274,50
	C197.627,50.143,197.012,50.402,196.455,50.763z"/>
<path fill="#8C8E8E" d="M195.076,61.077l-1.582-0.413c-0.48-0.485-0.878-1.067-1.172-1.729l1.582,0.41
	C194.197,60.01,194.597,60.593,195.076,61.077z"/>
<polygon fill="#8C8E8E" points="192.117,58.626 190.534,58.21 191.854,57.28 193.436,57.691 "/>
<polygon fill="#8C8E8E" points="192.465,53.649 190.883,53.236 192.384,53.32 193.967,53.733 "/>
<polygon fill="#8C8E8E" points="193.454,55.453 191.872,55.041 190.562,54.322 192.145,54.736 "/>
<path fill="#8C8E8E" d="M193.967,53.733l-1.583-0.413c0.302-0.682,0.7-1.307,1.178-1.843l1.583,0.413
	C194.666,52.429,194.267,53.05,193.967,53.733z"/>
<path fill="#8C8E8E" d="M193.436,57.716l-1.581-0.425c-0.052-0.357-0.08-0.729-0.078-1.109c0.002-0.407,0.037-0.753,0.1-1.145
	l1.578,0.419c-0.063,0.391-0.096,0.745-0.099,1.152C193.354,56.991,193.38,57.36,193.436,57.716z"/>
<polygon fill="#8C8E8E" points="195.145,51.891 193.562,51.478 192.927,50.001 194.509,50.413 "/>
<path fill="#8C8E8E" d="M194.461,50.436l-1.534-0.435c0.276-0.274,0.547-0.51,0.829-0.723l1.611,0.351
	C195.085,49.842,194.737,50.159,194.461,50.436z"/>
<path fill="#8C8E8E" d="M192.408,59.73l-1.573-0.48c-0.128-0.348-0.224-0.689-0.301-1.04l1.583,0.383
	C192.193,58.946,192.281,59.381,192.408,59.73z"/>
<path fill="#8C8E8E" d="M192.138,54.792l-1.576-0.47c0.091-0.39,0.193-0.742,0.321-1.086l1.582,0.353
	C192.339,53.933,192.227,54.401,192.138,54.792z"/>
<linearGradient id="SVGID_20_" gradientUnits="userSpaceOnUse" x1="196.6621" y1="56.0566" x2="201.6045" y2="56.0566">
	<stop  offset="0" style="stop-color:#646767"/>
	<stop  offset="1" style="stop-color:#CDCECD"/>
</linearGradient>
<path fill="url(#SVGID_20_)" d="M201.604,56.041c0.003-1.336-0.789-2.405-1.872-2.688l-1.582-0.415
	c1.082,0.284,1.867,1.354,1.866,2.69c-0.012,1.624-1.183,3.021-2.628,3.126h0.002c-0.253,0.017-0.497-0.008-0.729-0.068l1.581,0.415
	c0.233,0.061,0.479,0.083,0.734,0.068l-0.003-0.002C200.418,59.063,201.592,57.666,201.604,56.041z"/>
<linearGradient id="SVGID_21_" gradientUnits="userSpaceOnUse" x1="190.9609" y1="46.5073" x2="202.3975" y2="60.3638">
	<stop  offset="0.0275" style="stop-color:#FFFFFF"/>
	<stop  offset="0.3579" style="stop-color:#D2D3D4"/>
	<stop  offset="0.7892" style="stop-color:#9E9FA0"/>
	<stop  offset="1" style="stop-color:#898B8C"/>
</linearGradient>
<path fill="url(#SVGID_21_)" d="M204.447,56.868l1.309,0.744c-0.075,0.354-0.171,0.699-0.29,1.039l-1.477-0.11
	c-0.29,0.698-0.667,1.316-1.119,1.852l0.617,1.497c-0.238,0.243-0.488,0.472-0.751,0.681l-1.077-1.07
	c-0.591,0.403-1.216,0.689-1.879,0.849l-0.308,1.679c-0.176,0.025-0.351,0.046-0.53,0.06c-0.129,0.009-0.258,0.014-0.385,0.015
	l-0.269-1.624c-0.705-0.052-1.345-0.238-1.925-0.542l-1.116,1.217c-0.254-0.164-0.495-0.345-0.726-0.542l0.643-1.559
	c-0.504-0.505-0.906-1.097-1.198-1.764l-1.491,0.292c-0.105-0.303-0.2-0.617-0.271-0.943l1.314-0.901
	c-0.059-0.375-0.086-0.737-0.083-1.111c0-0.396,0.035-0.791,0.103-1.173l-1.3-0.741c0.08-0.336,0.177-0.665,0.295-0.987l1.483,0.111
	c0.308-0.718,0.714-1.346,1.194-1.886L194.6,50.46c0.24-0.237,0.496-0.457,0.756-0.656l1.087,1.082
	c0.586-0.382,1.205-0.646,1.859-0.784l0.309-1.669c0.134-0.019,0.269-0.034,0.402-0.043c0.184-0.012,0.364-0.015,0.544-0.014
	l0.27,1.638c0.659,0.065,1.261,0.254,1.81,0.547l1.11-1.214c0.27,0.173,0.526,0.367,0.768,0.582l-0.646,1.565
	c0.458,0.479,0.827,1.024,1.1,1.64l1.496-0.295c0.118,0.32,0.218,0.657,0.293,1.002l-1.313,0.898c0.06,0.376,0.085,0.736,0.085,1.11
	C204.524,56.194,204.499,56.534,204.447,56.868z M198.964,59.247c1.479-0.104,2.686-1.535,2.692-3.197
	c0.007-1.659-1.187-2.921-2.665-2.817c-1.475,0.102-2.676,1.534-2.685,3.191C196.301,58.084,197.49,59.349,198.964,59.247"/>
<radialGradient id="SVGID_22_" cx="192.8271" cy="44.3521" r="17.0821" gradientUnits="userSpaceOnUse">
	<stop  offset="0" style="stop-color:#FFFFFF"/>
	<stop  offset="0.1865" style="stop-color:#FAFBFB"/>
	<stop  offset="0.3923" style="stop-color:#EDEEEE"/>
	<stop  offset="0.6074" style="stop-color:#D7D8D9"/>
	<stop  offset="0.8274" style="stop-color:#B8BABC"/>
	<stop  offset="1" style="stop-color:#9B9DA0"/>
</radialGradient>
<path fill="url(#SVGID_22_)" d="M198.174,62.6c-0.644-0.057-1.237-0.229-1.778-0.501l0,0l-1.123,1.226l-0.094-0.06
	c-0.26-0.169-0.507-0.353-0.745-0.553l0,0l-0.072-0.063l0.648-1.568c-0.464-0.475-0.839-1.026-1.123-1.644l0,0l-1.497,0.294
	l-0.036-0.108c-0.112-0.305-0.206-0.622-0.278-0.957l0,0l-0.02-0.088l1.32-0.905c-0.05-0.343-0.076-0.678-0.076-1.018l0,0
	c0-0.009,0-0.021,0-0.03l0,0c0.002-0.372,0.034-0.743,0.092-1.104l0,0l-1.305-0.744l0.023-0.096
	c0.079-0.342,0.178-0.676,0.298-1.004l0,0l0.033-0.093l1.49,0.109c0.296-0.665,0.679-1.256,1.125-1.77l0,0l-0.612-1.495l0.064-0.063
	c0.242-0.24,0.501-0.463,0.768-0.665l0,0l0.091-0.07l1.093,1.088c0.546-0.344,1.121-0.586,1.73-0.727l0,0l0.31-1.675l0.095-0.016
	c0.135-0.02,0.271-0.031,0.41-0.041l0,0c0.153-0.012,0.311-0.017,0.462-0.017l0,0c0.028,0,0.061,0,0.092,0l0,0l0.109,0.003
	l0.273,1.646c0.601,0.073,1.154,0.245,1.666,0.505l0,0l1.117-1.223l0.096,0.062c0.273,0.177,0.534,0.374,0.783,0.595l0,0l0.07,0.062
	l-0.652,1.575c0.418,0.447,0.76,0.953,1.024,1.515l0,0l1.503-0.296l0.039,0.106c0.119,0.326,0.221,0.668,0.298,1.019l0,0l0.021,0.09
	l-1.321,0.9c0.05,0.342,0.074,0.672,0.074,1.014l0,0c0,0.012,0,0.022,0,0.035l0,0c0,0.32-0.024,0.636-0.068,0.946l0,0l1.315,0.75
	l-0.021,0.093c-0.077,0.36-0.175,0.711-0.293,1.057l0,0l-0.034,0.096l-1.486-0.109c-0.276,0.647-0.63,1.228-1.05,1.735l0,0
	l0.619,1.502l-0.06,0.063c-0.243,0.25-0.496,0.479-0.762,0.692l0,0l-0.094,0.074l-1.083-1.08c-0.551,0.366-1.135,0.632-1.748,0.789
	l0,0l-0.31,1.688l-0.096,0.013c-0.178,0.027-0.355,0.045-0.538,0.059l0,0c-0.132,0.01-0.265,0.014-0.395,0.016l0,0l-0.112,0.003
	L198.174,62.6L198.174,62.6z M196.426,61.817c0.563,0.299,1.185,0.479,1.874,0.525l0,0l0.102,0.009l0.268,1.615
	c0.09-0.003,0.176-0.007,0.265-0.013l0,0c0.144-0.011,0.283-0.027,0.425-0.044l0,0l0.308-1.672l0.084-0.017
	c0.643-0.158,1.255-0.437,1.833-0.831l0,0l0.092-0.064l1.069,1.066c0.205-0.167,0.4-0.345,0.588-0.533l0,0l-0.616-1.49l0.054-0.062
	c0.442-0.527,0.813-1.13,1.098-1.817l0,0l0.037-0.088l1.471,0.108c0.091-0.272,0.167-0.55,0.231-0.833l0,0l-1.224-0.697
	l-0.079-0.042l0.014-0.091c0.05-0.327,0.075-0.661,0.078-0.995l0,0c0-0.017,0-0.029,0-0.038l0,0c0-0.355-0.028-0.697-0.085-1.056
	l0,0l-0.014-0.084l1.31-0.893c-0.062-0.271-0.141-0.538-0.228-0.793l0,0l-1.49,0.295l-0.042-0.098c-0.267-0.6-0.629-1.135-1.075-1.6
	l0,0l-0.06-0.063l0.643-1.559c-0.187-0.159-0.384-0.309-0.588-0.446l0,0l-1.104,1.209l-0.09-0.05
	c-0.535-0.286-1.117-0.469-1.761-0.533l0,0l-0.1-0.013l-0.271-1.624c-0.14,0-0.28,0.004-0.42,0.013l0,0
	c-0.1,0.009-0.197,0.017-0.296,0.03l0,0l-0.309,1.663l-0.087,0.019c-0.639,0.134-1.242,0.392-1.816,0.763l0,0l-0.089,0.059
	l-1.081-1.073c-0.2,0.157-0.399,0.331-0.587,0.512l0,0l0.608,1.48l-0.057,0.064c-0.472,0.528-0.87,1.145-1.172,1.848l0,0
	l-0.037,0.087l-1.477-0.11c-0.091,0.255-0.168,0.518-0.234,0.783l0,0l1.294,0.737l-0.015,0.091
	c-0.066,0.374-0.101,0.764-0.104,1.156l0,0c0,0.006,0,0.017,0,0.025l0,0c0,0.354,0.029,0.7,0.085,1.061l0,0l0.013,0.083
	l-1.309,0.897c0.059,0.251,0.129,0.496,0.209,0.731l0,0l1.48-0.292l0.045,0.099c0.285,0.653,0.678,1.231,1.169,1.724l0,0
	l0.063,0.064l-0.642,1.551c0.179,0.146,0.359,0.282,0.549,0.408l0,0l1.108-1.212L196.426,61.817L196.426,61.817z M196.176,56.438
	c0-0.009,0-0.014,0-0.015l0,0c0.008-1.722,1.249-3.212,2.803-3.325l0,0c0.061-0.006,0.123-0.006,0.18-0.006l0,0
	c1.478,0,2.628,1.294,2.63,2.94l0,0c0,0.003,0,0.008,0,0.018l0,0c-0.01,1.722-1.256,3.213-2.814,3.328l0,0l0,0l-0.006-0.088
	l0.005,0.088c-0.06,0.003-0.119,0.003-0.175,0.003l0,0C197.324,59.382,196.179,58.088,196.176,56.438L196.176,56.438z
	 M199.001,53.362c-1.391,0.093-2.556,1.463-2.56,3.064l0,0c0,0.006,0,0.011,0,0.011v0.001c0.001,1.531,1.047,2.677,2.356,2.68l0,0
	c0.052,0,0.104,0,0.159-0.003l0,0v-0.002c1.391-0.093,2.56-1.464,2.566-3.063l0,0c0-0.003,0-0.009,0-0.017l0,0
	c-0.004-1.528-1.054-2.674-2.365-2.677l0,0C199.107,53.356,199.053,53.358,199.001,53.362L199.001,53.362z"/>
<linearGradient id="SVGID_23_" gradientUnits="userSpaceOnUse" x1="197.9609" y1="60.2974" x2="197.9609" y2="50.6912">
	<stop  offset="0" style="stop-color:#805F26"/>
	<stop  offset="1" style="stop-color:#E2D0AC"/>
</linearGradient>
<path fill="url(#SVGID_23_)" d="M199.931,52.407c-0.31-0.08-0.64-0.114-0.979-0.088c-1.914,0.132-3.474,1.983-3.483,4.135
	c-0.006,1.77,1.034,3.191,2.468,3.564l0.524,0.137c-1.435-0.375-2.477-1.795-2.469-3.563c0.01-2.152,1.567-4.004,3.48-4.138
	c0.342-0.024,0.67,0.008,0.98,0.09L199.931,52.407z"/>
<radialGradient id="SVGID_24_" cx="196.9473" cy="52.77" r="8.2039" gradientUnits="userSpaceOnUse">
	<stop  offset="0.3297" style="stop-color:#EFE8B2"/>
	<stop  offset="1" style="stop-color:#D78329"/>
</radialGradient>
<path fill="url(#SVGID_24_)" d="M199.473,52.454c1.918-0.134,3.463,1.501,3.451,3.651c-0.01,2.152-1.567,4.006-3.484,4.14
	c-1.911,0.132-3.456-1.501-3.447-3.653C196.002,54.439,197.56,52.588,199.473,52.454z M199.449,58.193
	c0.904-0.064,1.644-0.94,1.649-1.958c0.003-1.021-0.729-1.794-1.633-1.73c-0.908,0.063-1.646,0.94-1.649,1.958
	C197.811,57.482,198.544,58.255,199.449,58.193"/>
<path fill="#666666" d="M205.85,53.291c-0.006-0.033-0.027-0.056-0.043-0.085c-0.019-0.18-0.037-0.36-0.037-0.55
	c0.002-0.247,0.02-0.456,0.061-0.698c0.027-0.172-0.08-0.338-0.248-0.381l-1.027-0.271c-0.093-0.025-0.191-0.009-0.271,0.043
	c-0.08,0.052-0.136,0.135-0.149,0.23c-0.043,0.264-0.071,0.512-0.071,0.797c0,0.193,0.021,0.379,0.041,0.564l-0.672,0.471
	c-0.006,0.005-0.009,0.014-0.015,0.02c-0.008,0.006-0.018,0.008-0.025,0.015c-0.021,0.021-0.03,0.048-0.045,0.073
	c-0.012,0.02-0.027,0.035-0.034,0.057c-0.017,0.043-0.018,0.088-0.014,0.135c0,0.014-0.008,0.025-0.004,0.038
	c0,0.001,0.001,0.003,0.001,0.005c0.001,0.002,0,0.004,0,0.006c0.052,0.244,0.121,0.48,0.209,0.721
	c0.035,0.101,0.117,0.179,0.219,0.209l1.024,0.313c0.033,0.009,0.065,0.015,0.099,0.015c0.09,0,0.18-0.037,0.245-0.105
	c0.088-0.093,0.117-0.227,0.074-0.346c-0.048-0.133-0.087-0.298-0.123-0.463l0.669-0.476
	C205.819,53.552,205.874,53.419,205.85,53.291z"/>
<path fill="#684F8D" d="M205.452,53.378l-1.023-0.276c-0.035-0.23-0.054-0.473-0.054-0.72c0.001-0.265,0.025-0.489,0.066-0.743
	l1.024,0.271c-0.041,0.255-0.063,0.486-0.063,0.75C205.402,52.907,205.42,53.147,205.452,53.378z"/>
<path fill="#684F8D" d="M208.839,47.278l-1.027-0.268c0.112-0.019,0.205-0.026,0.299-0.032c0.125-0.011,0.251-0.012,0.374-0.011
	l1.047,0.26c-0.124-0.003-0.268,0.011-0.393,0.019C209.043,47.255,208.949,47.263,208.839,47.278z"/>
<polygon fill="#684F8D" points="212.396,50.346 211.368,50.079 212.349,49.844 213.375,50.11 "/>
<polygon fill="#684F8D" points="211.543,56.644 210.514,56.375 209.824,55.629 210.851,55.896 "/>
<polygon fill="#684F8D" points="210.851,48.66 209.824,48.393 210.532,47.574 211.56,47.843 "/>
<polygon fill="#684F8D" points="208.775,57.609 207.794,57.312 207.601,56.252 208.628,56.52 "/>
<linearGradient id="SVGID_25_" gradientUnits="userSpaceOnUse" x1="207.2539" y1="55.7065" x2="207.0958" y2="57.9332">
	<stop  offset="0" style="stop-color:#5D4098"/>
	<stop  offset="1" style="stop-color:#C6ACD2"/>
</linearGradient>
<path fill="url(#SVGID_25_)" d="M208.064,56.427l-1.028-0.27c-0.229-0.061-0.449-0.144-0.659-0.253l1.028,0.269
	C207.613,56.28,207.834,56.367,208.064,56.427z"/>
<polygon fill="#684F8D" points="208.654,48.365 207.627,48.097 207.812,47.011 208.839,47.278 "/>
<polygon fill="#684F8D" points="206.17,56.589 205.143,56.32 205.549,55.29 206.578,55.56 "/>
<path fill="#684F8D" d="M206.707,57.015l-1.044-0.309c-0.191-0.12-0.361-0.246-0.521-0.386l1.027,0.269
	C206.33,56.728,206.515,56.893,206.707,57.015z"/>
<path fill="#684F8D" d="M207.473,48.862l-1.028-0.268c0.363-0.235,0.763-0.407,1.183-0.498l1.027,0.269
	C208.234,48.46,207.834,48.63,207.473,48.862z"/>
<path fill="#684F8D" d="M206.578,55.56l-1.029-0.27c-0.313-0.314-0.57-0.69-0.761-1.125l1.028,0.269
	C206.006,54.865,206.265,55.246,206.578,55.56z"/>
<polygon fill="#684F8D" points="204.655,53.967 203.625,53.698 204.482,53.096 205.509,53.362 "/>
<polygon fill="#684F8D" points="204.881,50.738 203.85,50.468 204.829,50.523 205.855,50.791 "/>
<polygon fill="#684F8D" points="205.522,51.909 204.496,51.642 203.642,51.174 204.675,51.444 "/>
<path fill="#684F8D" d="M205.855,50.791l-1.026-0.268c0.194-0.443,0.452-0.851,0.764-1.196l1.027,0.267
	C206.311,49.943,206.05,50.348,205.855,50.791z"/>
<polygon fill="#684F8D" points="206.62,49.594 205.593,49.327 205.18,48.367 206.208,48.636 "/>
<path fill="#684F8D" d="M206.177,48.649l-0.997-0.282c0.18-0.18,0.356-0.331,0.54-0.47l1.047,0.227
	C206.582,48.264,206.356,48.472,206.177,48.649z"/>
<path fill="#684F8D" d="M204.842,54.685l-1.021-0.312c-0.083-0.229-0.146-0.447-0.195-0.675l1.03,0.249
	C204.705,54.174,204.761,54.456,204.842,54.685z"/>
<path fill="#684F8D" d="M204.669,51.479l-1.027-0.306c0.061-0.254,0.128-0.482,0.208-0.706l1.031,0.23
	C204.8,50.92,204.727,51.226,204.669,51.479z"/>
<linearGradient id="SVGID_26_" gradientUnits="userSpaceOnUse" x1="207.6064" y1="52.2993" x2="210.8135" y2="52.2993">
	<stop  offset="0" style="stop-color:#442871"/>
	<stop  offset="1" style="stop-color:#A996BF"/>
</linearGradient>
<path fill="url(#SVGID_26_)" d="M210.813,52.289c0.001-0.866-0.509-1.561-1.212-1.744l-1.029-0.269
	c0.705,0.184,1.215,0.878,1.214,1.747c-0.009,1.056-0.77,1.959-1.707,2.024l0.001,0.001c-0.165,0.013-0.323-0.003-0.474-0.042
	l1.026,0.268c0.152,0.041,0.313,0.056,0.48,0.044h-0.004C210.046,54.25,210.805,53.345,210.813,52.289z"/>
<linearGradient id="SVGID_27_" gradientUnits="userSpaceOnUse" x1="212.9951" y1="57.6304" x2="207.4277" y2="50.1418">
	<stop  offset="0" style="stop-color:#442871"/>
	<stop  offset="1" style="stop-color:#CCBFD7"/>
</linearGradient>
<path fill="url(#SVGID_27_)" d="M212.663,52.828l0.849,0.483c-0.051,0.229-0.111,0.454-0.189,0.671l-0.959-0.068
	c-0.189,0.451-0.434,0.853-0.726,1.2l0.398,0.974c-0.154,0.158-0.316,0.307-0.487,0.441l-0.7-0.696
	c-0.379,0.263-0.786,0.447-1.219,0.551l-0.198,1.092c-0.113,0.019-0.228,0.031-0.342,0.038c-0.086,0.005-0.171,0.008-0.254,0.01
	l-0.173-1.055c-0.457-0.033-0.875-0.153-1.249-0.353l-0.725,0.79c-0.165-0.104-0.322-0.223-0.474-0.351l0.417-1.014
	c-0.326-0.328-0.587-0.71-0.777-1.145l-0.968,0.189c-0.069-0.197-0.13-0.401-0.177-0.612l0.854-0.583
	c-0.038-0.244-0.057-0.48-0.057-0.722c0.002-0.258,0.024-0.515,0.068-0.763l-0.844-0.481c0.052-0.22,0.114-0.433,0.19-0.641
	l0.965,0.069c0.2-0.464,0.463-0.871,0.775-1.221l-0.398-0.968c0.158-0.153,0.322-0.298,0.494-0.428l0.703,0.703
	c0.383-0.245,0.785-0.416,1.21-0.509l0.2-1.085c0.087-0.012,0.174-0.022,0.261-0.027c0.119-0.009,0.236-0.011,0.352-0.011
	l0.177,1.066c0.428,0.043,0.817,0.166,1.173,0.355l0.722-0.79c0.174,0.111,0.341,0.238,0.497,0.379l-0.419,1.018
	c0.297,0.31,0.536,0.665,0.715,1.063l0.972-0.191c0.077,0.209,0.142,0.429,0.19,0.653l-0.855,0.582
	c0.039,0.244,0.058,0.479,0.056,0.722C212.712,52.389,212.693,52.611,212.663,52.828z M209.104,54.37
	c0.957-0.068,1.739-0.995,1.743-2.073c0.004-1.077-0.768-1.899-1.728-1.831c-0.957,0.067-1.738,0.995-1.742,2.073
	C207.371,53.616,208.146,54.437,209.104,54.37"/>
<linearGradient id="SVGID_28_" gradientUnits="userSpaceOnUse" x1="209.749" y1="53.6099" x2="207.5144" y2="49.415">
	<stop  offset="0" style="stop-color:#7D5F9C"/>
	<stop  offset="1" style="stop-color:#FFFFFF"/>
</linearGradient>
<path fill="url(#SVGID_28_)" d="M208.59,56.55c-0.42-0.038-0.806-0.152-1.157-0.327l0,0l-0.729,0.796l-0.062-0.041
	c-0.167-0.106-0.328-0.225-0.481-0.356l0,0l-0.048-0.041l0.419-1.02c-0.3-0.309-0.545-0.668-0.728-1.066l0,0l-0.973,0.19
	l-0.023-0.07c-0.072-0.199-0.133-0.408-0.181-0.621l0,0l-0.013-0.057l0.856-0.588c-0.031-0.222-0.048-0.438-0.048-0.66l0,0
	c0-0.006,0-0.014,0-0.019l0,0c0.001-0.244,0.021-0.484,0.058-0.719l0,0l-0.845-0.482l0.014-0.063
	c0.053-0.222,0.117-0.438,0.191-0.651l0,0l0.022-0.061l0.97,0.071c0.193-0.432,0.44-0.816,0.73-1.15l0,0l-0.398-0.971l0.041-0.041
	c0.158-0.154,0.325-0.302,0.499-0.434l0,0l0.061-0.046l0.71,0.708c0.354-0.221,0.728-0.38,1.122-0.471l0,0l0.203-1.091l0.06-0.008
	c0.088-0.014,0.178-0.022,0.268-0.029l0,0c0.1-0.007,0.2-0.009,0.299-0.009l0,0c0.019,0,0.039,0,0.06,0l0,0l0.072,0.002l0.176,1.069
	c0.392,0.047,0.751,0.162,1.079,0.329l0,0l0.729-0.797l0.06,0.041c0.179,0.113,0.348,0.244,0.51,0.387l0,0l0.045,0.04l-0.422,1.023
	c0.271,0.29,0.493,0.618,0.663,0.984l0,0l0.977-0.193l0.026,0.07c0.078,0.211,0.144,0.435,0.194,0.662l0,0l0.013,0.058l-0.858,0.585
	c0.032,0.224,0.05,0.438,0.05,0.659l0,0c0,0.008,0,0.012,0,0.021l0,0c-0.002,0.208-0.016,0.414-0.046,0.615l0,0l0.854,0.485
	l-0.013,0.063c-0.051,0.231-0.114,0.459-0.191,0.683l0,0l-0.022,0.062l-0.963-0.069c-0.181,0.419-0.411,0.796-0.684,1.125l0,0
	l0.402,0.977l-0.039,0.041c-0.156,0.163-0.323,0.312-0.496,0.448l0,0l-0.06,0.049l-0.704-0.7c-0.355,0.237-0.733,0.408-1.132,0.512
	l0,0l-0.202,1.097l-0.061,0.008c-0.116,0.019-0.231,0.032-0.35,0.039l0,0c-0.087,0.007-0.172,0.01-0.258,0.01l0,0l-0.072,0.001
	L208.59,56.55L208.59,56.55z M207.453,56.041c0.365,0.192,0.769,0.31,1.217,0.343l0,0l0.067,0.002l0.172,1.048
	c0.059,0,0.116-0.002,0.173-0.006l0,0c0.093-0.008,0.185-0.016,0.276-0.027l0,0l0.198-1.086l0.056-0.013
	c0.419-0.102,0.814-0.284,1.188-0.539l0,0l0.06-0.039l0.696,0.689c0.132-0.108,0.259-0.226,0.381-0.347l0,0l-0.4-0.968l0.034-0.038
	c0.287-0.342,0.528-0.736,0.713-1.18l0,0l0.024-0.06l0.956,0.07c0.059-0.175,0.107-0.354,0.15-0.538l0,0l-0.796-0.451l-0.051-0.03
	l0.01-0.056c0.031-0.215,0.049-0.434,0.049-0.647l0,0c0-0.013,0-0.021,0-0.024l0,0c0-0.23-0.018-0.454-0.055-0.688l0,0l-0.008-0.051
	l0.851-0.582c-0.041-0.177-0.092-0.348-0.149-0.515l0,0l-0.968,0.191l-0.027-0.063c-0.172-0.393-0.407-0.737-0.696-1.041l0,0
	l-0.04-0.041l0.42-1.012c-0.124-0.105-0.25-0.201-0.384-0.291l0,0l-0.717,0.786l-0.059-0.031c-0.345-0.184-0.723-0.304-1.142-0.347
	l0,0l-0.065-0.006l-0.175-1.059c-0.09,0-0.181,0.003-0.271,0.008l0,0c-0.064,0.006-0.13,0.01-0.194,0.021l0,0l-0.199,1.082
	l-0.056,0.012c-0.416,0.085-0.809,0.254-1.181,0.494l0,0l-0.058,0.039l-0.703-0.698c-0.13,0.104-0.258,0.216-0.381,0.334l0,0
	l0.396,0.96l-0.035,0.041c-0.309,0.345-0.566,0.744-0.763,1.201l0,0l-0.023,0.057l-0.961-0.07c-0.058,0.164-0.108,0.334-0.15,0.508
	l0,0l0.841,0.479l-0.011,0.061c-0.042,0.243-0.065,0.493-0.067,0.749l0,0c0,0.003,0,0.011,0,0.017l0,0
	c0,0.23,0.02,0.455,0.056,0.689l0,0l0.008,0.052l-0.85,0.582c0.036,0.162,0.084,0.321,0.136,0.475l0,0l0.962-0.189l0.028,0.065
	c0.187,0.424,0.441,0.799,0.76,1.119l0,0l0.041,0.041l-0.415,1.007c0.114,0.095,0.231,0.186,0.354,0.267l0,0l0.722-0.787
	L207.453,56.041L207.453,56.041z M207.29,52.547c0-0.003,0-0.008,0-0.008l0,0c0.006-1.119,0.812-2.087,1.823-2.159l0,0
	c0.039-0.005,0.077-0.005,0.115-0.007l0,0c0.96,0.002,1.702,0.842,1.704,1.913l0,0c0,0.001,0,0.004,0,0.011l0,0
	c-0.005,1.117-0.811,2.084-1.824,2.158l0,0l0,0l-0.004-0.055l0.004,0.055c-0.041,0.003-0.079,0.003-0.115,0.003l0,0
	C208.036,54.458,207.292,53.619,207.29,52.547L207.29,52.547z M209.125,50.551c-0.903,0.062-1.658,0.951-1.662,1.988l0,0
	c0,0.007,0,0.008,0,0.008l0,0c0,0.995,0.681,1.736,1.53,1.739l0,0c0.034,0,0.069-0.001,0.103-0.003l0,0l0,0
	c0.905-0.061,1.661-0.949,1.665-1.986l0,0c0-0.004,0-0.008,0-0.011l0,0c-0.002-0.992-0.682-1.738-1.532-1.739l0,0
	C209.194,50.547,209.159,50.548,209.125,50.551L209.125,50.551z"/>
<linearGradient id="SVGID_29_" gradientUnits="userSpaceOnUse" x1="208.4512" y1="55.0239" x2="208.4512" y2="48.7864">
	<stop  offset="0" style="stop-color:#805F26"/>
	<stop  offset="1" style="stop-color:#E2D0AC"/>
</linearGradient>
<path fill="url(#SVGID_29_)" d="M209.729,49.901c-0.201-0.054-0.415-0.075-0.635-0.058c-1.242,0.085-2.257,1.289-2.262,2.687
	c-0.005,1.146,0.672,2.07,1.603,2.312l0.34,0.09c-0.933-0.243-1.608-1.165-1.604-2.312c0.007-1.4,1.019-2.603,2.261-2.688
	c0.223-0.017,0.435,0.005,0.637,0.058L209.729,49.901z"/>
<radialGradient id="SVGID_30_" cx="207.792" cy="50.1377" r="5.3252" gradientUnits="userSpaceOnUse">
	<stop  offset="0.3297" style="stop-color:#EFE8B2"/>
	<stop  offset="1" style="stop-color:#D78329"/>
</radialGradient>
<path fill="url(#SVGID_30_)" d="M209.433,49.933c1.243-0.088,2.244,0.974,2.239,2.37c-0.007,1.397-1.018,2.599-2.261,2.687
	c-1.242,0.087-2.245-0.974-2.239-2.369C207.179,51.22,208.19,50.018,209.433,49.933z M209.417,53.659
	c0.588-0.043,1.066-0.611,1.069-1.273c0.004-0.662-0.471-1.165-1.059-1.124c-0.588,0.043-1.067,0.612-1.071,1.273
	C208.353,53.197,208.83,53.7,209.417,53.659"/>
<path fill="#666666" d="M205.123,59.066c-0.029-0.13-0.13-0.231-0.258-0.259l-1.143-0.249c-0.097-0.021-0.198,0.002-0.276,0.061
	c-0.215,0.161-0.42,0.339-0.627,0.548c-0.098,0.098-0.126,0.246-0.07,0.373l0.368,0.854c-0.281,0.342-0.516,0.729-0.706,1.139
	l-0.731-0.162c-0.168-0.037-0.338,0.055-0.395,0.217c-0.092,0.258-0.169,0.519-0.236,0.808c-0.043,0.176,0.059,0.354,0.232,0.404
	l1.123,0.332c0.03,0.01,0.063,0.015,0.094,0.015c0.061,0,0.121-0.018,0.174-0.048c0.082-0.048,0.138-0.127,0.159-0.218
	c0.049-0.222,0.112-0.479,0.176-0.682l0.706,0.185c0.027,0.007,0.057,0.011,0.084,0.011c0.132,0,0.256-0.077,0.312-0.201
	c0.2-0.452,0.463-0.866,0.779-1.221c0.088-0.099,0.11-0.238,0.06-0.359l-0.366-0.847c0.144-0.133,0.295-0.264,0.417-0.355
	C205.103,59.329,205.153,59.196,205.123,59.066z"/>
<path fill="#397DA5" d="M207.048,58.214l-1.121-0.293c0.121-0.018,0.223-0.027,0.326-0.035c0.138-0.01,0.275-0.012,0.408-0.01
	l1.143,0.281c-0.134-0.002-0.293,0.012-0.43,0.02C207.271,58.185,207.169,58.196,207.048,58.214z"/>
<polygon fill="#397DA5" points="210.927,61.559 209.809,61.268 210.877,61.008 211.996,61.303 "/>
<polygon fill="#397DA5" points="209.997,68.43 208.877,68.135 208.122,67.318 209.243,67.611 "/>
<polygon fill="#397DA5" points="209.243,59.72 208.122,59.429 208.895,58.534 210.015,58.827 "/>
<polygon fill="#397DA5" points="206.978,69.48 205.908,69.156 205.699,68 206.818,68.293 "/>
<linearGradient id="SVGID_31_" gradientUnits="userSpaceOnUse" x1="205.3184" y1="67.4102" x2="205.1474" y2="69.818">
	<stop  offset="0" style="stop-color:#646767"/>
	<stop  offset="1" style="stop-color:#CDCECD"/>
</linearGradient>
<path fill="url(#SVGID_31_)" d="M206.203,68.189l-1.121-0.291c-0.25-0.066-0.49-0.158-0.718-0.275l1.12,0.289
	C205.712,68.033,205.953,68.125,206.203,68.189z"/>
<polygon fill="#397DA5" points="206.847,59.399 205.726,59.104 205.927,57.921 207.048,58.214 "/>
<polygon fill="#397DA5" points="204.139,68.367 203.018,68.076 203.459,66.953 204.582,67.246 "/>
<path fill="#397DA5" d="M204.723,68.832l-1.14-0.336c-0.209-0.133-0.393-0.27-0.565-0.42l1.121,0.291
	C204.311,68.52,204.514,68.699,204.723,68.832z"/>
<path fill="#397DA5" d="M205.557,59.94l-1.12-0.293c0.396-0.256,0.83-0.439,1.289-0.543l1.121,0.295
	C206.388,59.501,205.953,59.687,205.557,59.94z"/>
<path fill="#397DA5" d="M204.582,67.246l-1.123-0.293c-0.34-0.344-0.624-0.758-0.828-1.229l1.121,0.293
	C203.957,66.486,204.24,66.902,204.582,67.246z"/>
<polygon fill="#397DA5" points="202.486,65.508 201.36,65.217 202.297,64.557 203.417,64.848 "/>
<polygon fill="#397DA5" points="202.73,61.986 201.606,61.691 202.673,61.752 203.795,62.045 "/>
<polygon fill="#397DA5" points="203.434,63.264 202.312,62.971 201.38,62.463 202.506,62.758 "/>
<path fill="#397DA5" d="M203.795,62.045l-1.122-0.293c0.213-0.484,0.495-0.925,0.835-1.306l1.121,0.293
	C204.289,61.121,204.007,61.563,203.795,62.045z"/>
<path fill="#397DA5" d="M203.417,64.867l-1.118-0.305c-0.037-0.252-0.058-0.514-0.057-0.783c0-0.289,0.027-0.533,0.072-0.811
	l1.119,0.295c-0.046,0.277-0.071,0.529-0.072,0.818C203.361,64.352,203.38,64.613,203.417,64.867z"/>
<polygon fill="#397DA5" points="204.629,60.739 203.508,60.446 203.058,59.401 204.179,59.694 "/>
<path fill="#397DA5" d="M204.145,59.706l-1.087-0.305c0.195-0.197,0.388-0.363,0.589-0.514l1.141,0.248
	C204.587,59.288,204.34,59.515,204.145,59.706z"/>
<path fill="#397DA5" d="M202.688,66.289l-1.115-0.34c-0.09-0.248-0.158-0.486-0.213-0.732l1.126,0.27
	C202.54,65.732,202.6,66.043,202.688,66.289z"/>
<path fill="#397DA5" d="M202.5,62.795l-1.12-0.332c0.066-0.277,0.139-0.525,0.227-0.771l1.124,0.252
	C202.642,62.186,202.562,62.518,202.5,62.795z"/>
<linearGradient id="SVGID_32_" gradientUnits="userSpaceOnUse" x1="205.7041" y1="63.6885" x2="209.2012" y2="63.6885">
	<stop  offset="0" style="stop-color:#025386"/>
	<stop  offset="1" style="stop-color:#83B5CE"/>
</linearGradient>
<path fill="url(#SVGID_32_)" d="M209.201,63.68c0.003-0.945-0.555-1.703-1.322-1.906l-1.122-0.293
	c0.769,0.203,1.326,0.959,1.323,1.906c-0.009,1.15-0.84,2.139-1.861,2.213h0.003c-0.181,0.014-0.354-0.006-0.518-0.047l1.121,0.291
	c0.165,0.043,0.339,0.063,0.521,0.049l-0.003-0.002C208.364,65.814,209.193,64.828,209.201,63.68z"/>
<linearGradient id="SVGID_33_" gradientUnits="userSpaceOnUse" x1="211.5811" y1="69.5049" x2="205.5089" y2="61.3374">
	<stop  offset="0" style="stop-color:#025386"/>
	<stop  offset="1" style="stop-color:#A3D7F4"/>
</linearGradient>
<path fill="url(#SVGID_33_)" d="M211.218,64.268l0.928,0.525c-0.057,0.248-0.123,0.492-0.207,0.734l-1.046-0.078
	c-0.206,0.494-0.475,0.932-0.794,1.311l0.437,1.061c-0.168,0.172-0.345,0.336-0.53,0.482l-0.765-0.76
	c-0.415,0.287-0.858,0.49-1.327,0.604l-0.219,1.188c-0.123,0.018-0.248,0.031-0.373,0.043c-0.093,0.006-0.186,0.008-0.275,0.01
	l-0.189-1.15c-0.498-0.037-0.951-0.166-1.363-0.385l-0.789,0.863c-0.18-0.115-0.352-0.244-0.518-0.381l0.456-1.107
	c-0.357-0.357-0.641-0.775-0.848-1.25l-1.056,0.207c-0.076-0.215-0.142-0.438-0.194-0.666l0.932-0.639
	c-0.041-0.266-0.06-0.521-0.06-0.783c0.003-0.283,0.026-0.564,0.075-0.834l-0.922-0.523c0.057-0.24,0.124-0.475,0.207-0.701
	l1.051,0.078c0.221-0.506,0.507-0.951,0.848-1.335l-0.434-1.053c0.17-0.168,0.352-0.324,0.538-0.467l0.769,0.768
	c0.416-0.27,0.854-0.459,1.319-0.555l0.218-1.186c0.093-0.014,0.188-0.023,0.283-0.029c0.129-0.01,0.257-0.014,0.384-0.012
	l0.193,1.162c0.466,0.051,0.892,0.182,1.278,0.389l0.788-0.863c0.189,0.125,0.371,0.26,0.542,0.414l-0.458,1.109
	c0.325,0.34,0.585,0.728,0.78,1.161l1.059-0.209c0.085,0.227,0.155,0.467,0.21,0.713l-0.933,0.635
	c0.042,0.266,0.062,0.521,0.061,0.785C211.273,63.787,211.254,64.029,211.218,64.268z M207.337,65.947
	c1.044-0.072,1.896-1.086,1.902-2.26c0.004-1.176-0.839-2.07-1.886-1.998c-1.043,0.072-1.896,1.086-1.901,2.26
	C205.447,65.125,206.291,66.021,207.337,65.947"/>
<linearGradient id="SVGID_34_" gradientUnits="userSpaceOnUse" x1="208.043" y1="65.1191" x2="205.6052" y2="60.5429">
	<stop  offset="0" style="stop-color:#5387AC"/>
	<stop  offset="1" style="stop-color:#FFFFFF"/>
</linearGradient>
<path fill="url(#SVGID_34_)" d="M206.776,68.324c-0.457-0.041-0.878-0.162-1.262-0.357l0,0l-0.795,0.871l-0.067-0.043
	c-0.184-0.119-0.358-0.25-0.525-0.393l0,0l-0.053-0.045l0.458-1.111c-0.326-0.336-0.594-0.727-0.793-1.162l0,0l-1.06,0.205
	l-0.03-0.074c-0.077-0.219-0.142-0.443-0.193-0.678l0,0l-0.015-0.064l0.935-0.639c-0.036-0.24-0.054-0.477-0.054-0.721l0,0
	c0-0.006,0-0.016,0-0.02l0,0c0.003-0.264,0.025-0.527,0.065-0.783l0,0l-0.924-0.525l0.016-0.068c0.057-0.244,0.127-0.48,0.209-0.711
	l0,0l0.025-0.068l1.057,0.078c0.211-0.469,0.48-0.891,0.797-1.253l0,0l-0.434-1.057l0.042-0.047c0.175-0.17,0.356-0.328,0.546-0.473
	l0,0l0.065-0.051l0.775,0.771c0.386-0.24,0.793-0.412,1.223-0.516l0,0l0.223-1.188l0.065-0.01c0.096-0.014,0.193-0.023,0.29-0.031
	l0,0c0.11-0.008,0.22-0.01,0.328-0.01l0,0c0.018,0,0.042,0,0.063,0l0,0l0.08,0.002l0.191,1.168c0.427,0.051,0.818,0.176,1.178,0.359
	l0,0l0.793-0.871l0.065,0.045c0.194,0.127,0.379,0.266,0.557,0.422l0,0l0.049,0.045l-0.462,1.115
	c0.297,0.316,0.54,0.675,0.725,1.073l0,0l1.065-0.209l0.029,0.074c0.084,0.232,0.154,0.475,0.211,0.725l0,0l0.013,0.063
	l-0.936,0.637c0.036,0.244,0.054,0.477,0.054,0.719l0,0c0,0.008,0,0.016,0,0.023l0,0c-0.001,0.227-0.017,0.451-0.048,0.672l0,0
	l0.931,0.531l-0.014,0.066c-0.057,0.252-0.124,0.5-0.21,0.746l0,0l-0.021,0.068l-1.052-0.078c-0.199,0.455-0.447,0.865-0.747,1.227
	l0,0l0.44,1.066l-0.044,0.043c-0.171,0.176-0.35,0.342-0.54,0.49l0,0l-0.065,0.055l-0.768-0.766c-0.388,0.258-0.8,0.445-1.235,0.559
	l0,0l-0.22,1.197l-0.067,0.008c-0.125,0.018-0.252,0.033-0.381,0.041l0,0c-0.094,0.006-0.188,0.01-0.279,0.012l0,0h-0.079
	L206.776,68.324L206.776,68.324z M205.538,67.768c0.397,0.213,0.836,0.34,1.326,0.375l0,0l0.073,0.006l0.187,1.141
	c0.064,0,0.128-0.002,0.188-0.008l0,0c0.103-0.008,0.204-0.018,0.303-0.031l0,0l0.216-1.184l0.062-0.014
	c0.456-0.109,0.886-0.307,1.295-0.586l0,0l0.064-0.043l0.759,0.752c0.145-0.117,0.281-0.244,0.415-0.377l0,0l-0.436-1.057
	l0.038-0.045c0.313-0.371,0.574-0.799,0.776-1.283l0,0l0.026-0.064l1.043,0.078c0.064-0.193,0.117-0.389,0.163-0.588l0,0
	l-0.866-0.494l-0.056-0.031l0.009-0.063c0.036-0.232,0.054-0.469,0.056-0.705l0,0c0-0.014,0-0.021,0-0.027l0,0
	c0-0.25-0.02-0.494-0.06-0.748l0,0l-0.011-0.059l0.928-0.635c-0.043-0.189-0.099-0.379-0.162-0.561l0,0l-1.054,0.209l-0.03-0.07
	c-0.189-0.426-0.444-0.802-0.763-1.132l0,0l-0.042-0.045l0.459-1.104c-0.135-0.115-0.273-0.221-0.419-0.318l0,0l-0.782,0.855
	l-0.064-0.033c-0.376-0.201-0.788-0.33-1.244-0.377l0,0l-0.072-0.006l-0.188-1.156c-0.1,0-0.198,0.004-0.299,0.01l0,0
	c-0.07,0.006-0.141,0.012-0.211,0.021l0,0l-0.217,1.18l-0.062,0.014c-0.452,0.094-0.881,0.277-1.287,0.541l0,0l-0.064,0.039
	l-0.765-0.76c-0.142,0.115-0.283,0.234-0.417,0.363l0,0l0.434,1.049l-0.04,0.045c-0.335,0.374-0.618,0.812-0.831,1.31l0,0
	l-0.026,0.061l-1.047-0.076c-0.063,0.18-0.118,0.365-0.163,0.555l0,0l0.914,0.52l-0.011,0.066c-0.046,0.266-0.07,0.539-0.073,0.818
	l0,0c0,0.004,0,0.012,0,0.018l0,0c0,0.25,0.021,0.496,0.062,0.752l0,0l0.008,0.059l-0.927,0.635c0.04,0.174,0.092,0.348,0.147,0.518
	l0,0l1.051-0.207l0.03,0.068c0.202,0.465,0.479,0.871,0.828,1.223l0,0l0.046,0.045l-0.456,1.098c0.126,0.105,0.257,0.201,0.39,0.289
	l0,0l0.786-0.857L205.538,67.768L205.538,67.768z M205.359,63.961c0-0.006,0-0.008,0-0.012l0,0c0.006-1.219,0.885-2.273,1.987-2.354
	l0,0c0.043-0.006,0.085-0.006,0.125-0.006l0,0c1.048,0,1.857,0.918,1.86,2.084l0,0c0,0.002,0,0.008,0,0.014l0,0
	c-0.006,1.219-0.886,2.271-1.989,2.354l0,0v0.002l-0.004-0.063l0.004,0.061c-0.045,0.004-0.086,0.004-0.126,0.004l0,0
	C206.172,66.045,205.361,65.129,205.359,63.961L205.359,63.961z M207.361,61.783c-0.987,0.066-1.81,1.035-1.814,2.17l0,0
	c0,0.004,0,0.008,0,0.008l0,0c0.002,1.084,0.743,1.895,1.67,1.895l0,0c0.036,0,0.075,0,0.111-0.002l0,0l0,0
	c0.988-0.068,1.813-1.035,1.815-2.166l0,0c0-0.004,0-0.008,0-0.014l0,0c-0.001-1.082-0.742-1.895-1.672-1.896l0,0
	C207.437,61.777,207.398,61.779,207.361,61.783L207.361,61.783z"/>
<linearGradient id="SVGID_35_" gradientUnits="userSpaceOnUse" x1="206.625" y1="66.6924" x2="206.625" y2="59.8893">
	<stop  offset="0" style="stop-color:#805F26"/>
	<stop  offset="1" style="stop-color:#E2D0AC"/>
</linearGradient>
<path fill="url(#SVGID_35_)" d="M208.019,61.105c-0.219-0.059-0.452-0.082-0.692-0.063c-1.355,0.094-2.459,1.406-2.467,2.93
	c-0.006,1.252,0.731,2.256,1.749,2.521l0.369,0.098c-1.016-0.266-1.753-1.27-1.748-2.521c0.008-1.525,1.112-2.836,2.466-2.932
	c0.242-0.016,0.475,0.006,0.694,0.064L208.019,61.105z"/>
<radialGradient id="SVGID_36_" cx="205.9063" cy="61.3623" r="5.8079" gradientUnits="userSpaceOnUse">
	<stop  offset="0.3297" style="stop-color:#EFE8B2"/>
	<stop  offset="1" style="stop-color:#D78329"/>
</radialGradient>
<path fill="url(#SVGID_36_)" d="M207.695,61.139c1.354-0.096,2.447,1.064,2.442,2.588c-0.007,1.521-1.109,2.832-2.467,2.928
	c-1.353,0.094-2.449-1.061-2.441-2.584C205.237,62.545,206.342,61.234,207.695,61.139z M207.679,65.203
	c0.641-0.047,1.163-0.666,1.168-1.387c0.003-0.723-0.515-1.271-1.156-1.225c-0.643,0.043-1.166,0.664-1.17,1.387
	C206.518,64.701,207.036,65.246,207.679,65.203"/>
</g>

</svg>
