<?xml version="1.0" encoding="utf-8"?>
<!DOCTYPE svg PUBLIC "-//W3C//DTD SVG 1.0//EN" "http://www.w3.org/TR/2001/REC-SVG-20010904/DTD/svg10.dtd" [
<!ENTITY ns_svg "http://www.w3.org/2000/svg">
<!ENTITY ns_xlink "http://www.w3.org/1999/xlink">
]>
<svg xmlns="&ns_svg;" xmlns:xlink="&ns_xlink;" width="240" height="120" viewBox="0 0 240 120" overflow="visible" enable-background="new 0 0 240 120" xml:space="preserve">

<g id="Layer_1">

<g id="_x3C_ICON_x3E_">
	<g>
		<g>
			<polygon fill="#262626" points="144.5,55.9 144.6,37.8 147.4,34.9 147.3,34.9 147.3,34.8 144.6,32.5 144.6,21.9 134.9,19.4 
				91,22.5 90.8,71.8 100.5,74.4 144.4,71.3 144.5,61.1 147.2,58.3 147.2,58.3 147.2,58.3 			"/>
			<path fill="#262626" d="M88.8,73.4L89,20.6l46.1-3.2l11.6,3l-0.1,11.2l3.6,3.2l0,0l0,0l-3.7,3.8V55l3.6,3.1l0,0h0.1l-3.6,3.8
				l-0.1,11.2l-46.1,3.2L88.8,73.4L88.8,73.4z M93,24.3l-0.2,45.9l7.9,2.1l41.7-2.9v-9.1l1.9-1.9l-1.2-1l1.3-1.5h2h-2l-1.3,1.5
				l-0.7-0.6l0.1-19.8l1.9-2l0,0l0,0l-1.9-1.6v-9.9l-7.9-2.1L93,24.3L93,24.3z"/>
		</g>
		
			<linearGradient id="SVGID_1_" gradientUnits="userSpaceOnUse" x1="-462.4199" y1="504.4609" x2="-462.119" y2="564.7953" gradientTransform="matrix(1 0 0 -1 558 587)">
			<stop  offset="0" style="stop-color:#656768"/>
			<stop  offset="1" style="stop-color:#CDCECE"/>
		</linearGradient>
		<polygon fill="url(#SVGID_1_)" points="100.5,74.4 90.8,71.8 91,22.5 100.7,25 		"/>
		
			<linearGradient id="SVGID_2_" gradientUnits="userSpaceOnUse" x1="-387.2988" y1="567.7646" x2="-459.821" y2="563.702" gradientTransform="matrix(1 0 0 -1 558 587)">
			<stop  offset="0" style="stop-color:#656768"/>
			<stop  offset="1" style="stop-color:#CDCECE"/>
		</linearGradient>
		<polygon fill="url(#SVGID_2_)" points="100.7,25 91,22.5 134.9,19.4 144.6,21.9 		"/>
		
			<linearGradient id="SVGID_3_" gradientUnits="userSpaceOnUse" x1="-440.6709" y1="565.4512" x2="-428.0325" y2="501.0554" gradientTransform="matrix(1 0 0 -1 558 587)">
			<stop  offset="0.0275" style="stop-color:#FFFFFF"/>
			<stop  offset="0.3579" style="stop-color:#D2D3D4"/>
			<stop  offset="0.7892" style="stop-color:#9E9FA1"/>
			<stop  offset="1" style="stop-color:#898B8D"/>
		</linearGradient>
		<polygon fill="url(#SVGID_3_)" points="144.6,21.9 144.4,71.3 100.5,74.4 100.7,25 		"/>
		<polygon fill="#949294" points="143.8,34.7 143.6,71.1 100.2,74.1 		"/>
		
			<radialGradient id="SVGID_4_" cx="-453.0996" cy="579.7217" r="63.2342" gradientTransform="matrix(1.0115 0 0 -1.0019 568.2207 589.0134)" gradientUnits="userSpaceOnUse">
			<stop  offset="0" style="stop-color:#FFFFFF"/>
			<stop  offset="0.1407" style="stop-color:#FAFAFA"/>
			<stop  offset="0.296" style="stop-color:#EDEDED"/>
			<stop  offset="0.4583" style="stop-color:#D7D7D7"/>
			<stop  offset="0.6255" style="stop-color:#B8B8B8"/>
			<stop  offset="0.7965" style="stop-color:#909090"/>
			<stop  offset="0.9682" style="stop-color:#606060"/>
			<stop  offset="1" style="stop-color:#575757"/>
		</radialGradient>
		<path fill="url(#SVGID_4_)" d="M100.7,25l43-3l1-0.1l0.1,49.2l-44.3,3L100.7,25L100.7,25z M102.5,26.8l-0.2,45.6l40.4-2.8
			l0.1-45.6L102.5,26.8L102.5,26.8z"/>
		
			<radialGradient id="SVGID_5_" cx="-433.8037" cy="519.9082" r="22.7821" gradientTransform="matrix(1 0 0 -1 558 587)" gradientUnits="userSpaceOnUse">
			<stop  offset="0" style="stop-color:#525252"/>
			<stop  offset="0.3031" style="stop-color:#565656"/>
			<stop  offset="0.6376" style="stop-color:#636363"/>
			<stop  offset="0.9859" style="stop-color:#797979"/>
			<stop  offset="1" style="stop-color:#7A7A7A"/>
		</radialGradient>
		<polygon fill="url(#SVGID_5_)" points="116.1,44.6 118.2,44.5 121.5,50.1 116.2,57.8 119.4,58.6 115.2,58.9 113,58 112,52.6 
			101,60.8 105.2,64.5 113.4,71.5 116.7,71.3 116.4,67.4 119.4,67.2 126.5,57.7 132.4,66.1 134.2,66.2 134.2,66.2 134.2,70 
			140.4,69.8 144.7,64.6 144.8,57.5 138.4,51.9 135.2,51 135.1,56.4 133.5,56.5 129.8,50.7 134.3,44.2 134.3,42.8 134.3,47.1 
			138.4,47.9 144.8,41.1 144.8,34.1 138.5,28.5 135.3,27.6 135.2,33 131,33.3 124.8,43.1 119.5,35.2 116.3,34.3 115.3,34.4 
			112.1,34.6 112.1,29.2 101.3,37.4 104.4,40.2 116.1,50.5 		"/>
		
			<linearGradient id="SVGID_6_" gradientUnits="userSpaceOnUse" x1="-422.1465" y1="519.0352" x2="-421.6949" y2="540.5564" gradientTransform="matrix(1 0 0 -1 558 587)">
			<stop  offset="0" style="stop-color:#825F27"/>
			<stop  offset="1" style="stop-color:#E3D1AD"/>
		</linearGradient>
		<polygon fill="url(#SVGID_6_)" points="137.5,68.9 134.3,68 134.3,62.6 137.5,63.5 		"/>
		
			<linearGradient id="SVGID_7_" gradientUnits="userSpaceOnUse" x1="-421.7871" y1="533.5186" x2="-423.8939" y2="547.8151" gradientTransform="matrix(1 0 0 -1 558 587)">
			<stop  offset="0" style="stop-color:#825F27"/>
			<stop  offset="1" style="stop-color:#E3D1AD"/>
		</linearGradient>
		<polygon fill="url(#SVGID_7_)" points="137.6,54.8 134.3,54 134.3,48.6 137.6,49.4 		"/>
		
			<linearGradient id="SVGID_8_" gradientUnits="userSpaceOnUse" x1="-422" y1="547.6895" x2="-422" y2="528.1332" gradientTransform="matrix(1 0 0 -1 558 587)">
			<stop  offset="0" style="stop-color:#825F27"/>
			<stop  offset="1" style="stop-color:#E3D1AD"/>
		</linearGradient>
		<polygon fill="url(#SVGID_8_)" points="137.6,45.7 134.4,44.9 134.4,39.5 137.6,40.3 		"/>
		
			<linearGradient id="SVGID_9_" gradientUnits="userSpaceOnUse" x1="-427.8853" y1="532.4502" x2="-420.4243" y2="532.4502" gradientTransform="matrix(1 0 0 -1 558 587)">
			<stop  offset="0" style="stop-color:#825F27"/>
			<stop  offset="1" style="stop-color:#E3D1AD"/>
		</linearGradient>
		<polygon fill="url(#SVGID_9_)" points="133.4,55.1 130.1,54.3 134.3,54 137.6,54.8 		"/>
		
			<linearGradient id="SVGID_10_" gradientUnits="userSpaceOnUse" x1="-421.9497" y1="554.251" x2="-421.9497" y2="572.3061" gradientTransform="matrix(1 0 0 -1 558 587)">
			<stop  offset="0" style="stop-color:#825F27"/>
			<stop  offset="1" style="stop-color:#E3D1AD"/>
		</linearGradient>
		<polygon fill="url(#SVGID_10_)" points="137.7,31.4 134.4,30.6 134.4,25.2 137.7,26 		"/>
		
			<linearGradient id="SVGID_11_" gradientUnits="userSpaceOnUse" x1="-413.3071" y1="558.9688" x2="-441.2917" y2="550.8442" gradientTransform="matrix(1 0 0 -1 558 587)">
			<stop  offset="0" style="stop-color:#825F27"/>
			<stop  offset="1" style="stop-color:#E3D1AD"/>
		</linearGradient>
		<polygon fill="url(#SVGID_11_)" points="133.5,31.7 130.2,30.9 134.4,30.6 137.7,31.4 		"/>
		
			<linearGradient id="SVGID_12_" gradientUnits="userSpaceOnUse" x1="-433.6895" y1="534.1924" x2="-407.5085" y2="497.9809" gradientTransform="matrix(1 0 0 -1 558 587)">
			<stop  offset="0" style="stop-color:#825F27"/>
			<stop  offset="1" style="stop-color:#E3D1AD"/>
		</linearGradient>
		<polygon fill="url(#SVGID_12_)" points="133.4,63.8 130.2,62.9 122.7,52.4 126,53.2 		"/>
		
			<linearGradient id="SVGID_13_" gradientUnits="userSpaceOnUse" x1="-434.5054" y1="542.3818" x2="-421.7151" y2="562.8461" gradientTransform="matrix(1 0 0 -1 558 587)">
			<stop  offset="0" style="stop-color:#825F27"/>
			<stop  offset="1" style="stop-color:#E3D1AD"/>
		</linearGradient>
		<polygon fill="url(#SVGID_13_)" points="126,43.6 122.7,42.8 130.2,30.9 133.5,31.7 		"/>
		
			<linearGradient id="SVGID_14_" gradientUnits="userSpaceOnUse" x1="-436.0771" y1="540.127" x2="-446.7587" y2="520.5691" gradientTransform="matrix(1 0 0 -1 558 587)">
			<stop  offset="0" style="stop-color:#825F27"/>
			<stop  offset="1" style="stop-color:#E3D1AD"/>
		</linearGradient>
		<polygon fill="url(#SVGID_14_)" points="118.6,56.2 115.4,55.3 119.7,47.8 122.9,48.6 		"/>
		
			<linearGradient id="SVGID_15_" gradientUnits="userSpaceOnUse" x1="-440.7568" y1="545.8125" x2="-429.3224" y2="525.3509" gradientTransform="matrix(1 0 0 -1 558 587)">
			<stop  offset="0" style="stop-color:#825F27"/>
			<stop  offset="1" style="stop-color:#E3D1AD"/>
		</linearGradient>
		<polygon fill="url(#SVGID_15_)" points="122.9,48.6 119.7,47.8 115.4,40.6 118.7,41.4 		"/>
		
			<linearGradient id="SVGID_16_" gradientUnits="userSpaceOnUse" x1="-443.4976" y1="531.2588" x2="-435.6744" y2="527.6481" gradientTransform="matrix(1 0 0 -1 558 587)">
			<stop  offset="0" style="stop-color:#825F27"/>
			<stop  offset="1" style="stop-color:#E3D1AD"/>
		</linearGradient>
		<polygon fill="url(#SVGID_16_)" points="114.4,56.5 111.1,55.6 115.4,55.3 118.6,56.2 		"/>
		
			<linearGradient id="SVGID_17_" gradientUnits="userSpaceOnUse" x1="-446.748" y1="554.5498" x2="-439.2773" y2="554.5498" gradientTransform="matrix(1 0 0 -1 558 587)">
			<stop  offset="0" style="stop-color:#825F27"/>
			<stop  offset="1" style="stop-color:#E3D1AD"/>
		</linearGradient>
		<polygon fill="url(#SVGID_17_)" points="114.5,33 111.3,32.2 115.5,31.9 118.7,32.8 		"/>
		
			<linearGradient id="SVGID_18_" gradientUnits="userSpaceOnUse" x1="-444.8286" y1="536.4307" x2="-463.1848" y2="518.3754" gradientTransform="matrix(1 0 0 -1 558 587)">
			<stop  offset="0" style="stop-color:#825F27"/>
			<stop  offset="1" style="stop-color:#E3D1AD"/>
		</linearGradient>
		<polygon fill="url(#SVGID_18_)" points="104.2,61.7 101,60.8 111.2,50.2 114.4,51 		"/>
		
			<linearGradient id="SVGID_19_" gradientUnits="userSpaceOnUse" x1="-454.3945" y1="525.752" x2="-430.6196" y2="499.8705" gradientTransform="matrix(1 0 0 -1 558 587)">
			<stop  offset="0" style="stop-color:#825F27"/>
			<stop  offset="1" style="stop-color:#E3D1AD"/>
		</linearGradient>
		<polygon fill="url(#SVGID_19_)" points="114.3,70.5 111.1,69.6 101,60.8 104.2,61.7 		"/>
		
			<linearGradient id="SVGID_20_" gradientUnits="userSpaceOnUse" x1="-466.667" y1="538.2471" x2="-438.5325" y2="565.9302" gradientTransform="matrix(1 0 0 -1 558 587)">
			<stop  offset="0" style="stop-color:#825F27"/>
			<stop  offset="1" style="stop-color:#E3D1AD"/>
		</linearGradient>
		<polygon fill="url(#SVGID_20_)" points="104.3,38.3 101.1,37.4 111.3,26.8 114.5,27.6 		"/>
		
			<radialGradient id="SVGID_21_" cx="-440.1992" cy="565.2773" r="48.4204" gradientTransform="matrix(1 0 0 -1 558 587)" gradientUnits="userSpaceOnUse">
			<stop  offset="0.3297" style="stop-color:#EFE8B3"/>
			<stop  offset="1" style="stop-color:#D88429"/>
		</radialGradient>
		<polygon fill="url(#SVGID_21_)" points="137.7,26 147.8,34.9 137.6,45.5 137.6,40.1 133.5,40.4 129,48.2 133.4,55.1 137.6,54.8 
			137.6,49.4 147.7,58.3 137.5,68.9 137.5,63.5 133.4,63.8 126,53.2 118.6,64.8 114.4,65.1 114.3,70.5 104.2,61.7 114.4,51 
			114.4,56.5 118.6,56.2 122.9,48.6 118.7,41.4 114.5,41.7 114.5,47.1 104.3,38.3 114.5,27.6 114.5,33 118.7,32.8 126,43.6 
			133.5,31.7 137.7,31.4 		"/>
		
			<linearGradient id="SVGID_22_" gradientUnits="userSpaceOnUse" x1="-454.6099" y1="548.8936" x2="-432.1906" y2="527.8285" gradientTransform="matrix(1 0 0 -1 558 587)">
			<stop  offset="0" style="stop-color:#825F27"/>
			<stop  offset="1" style="stop-color:#E3D1AD"/>
		</linearGradient>
		<polygon fill="url(#SVGID_22_)" points="114.5,47.1 111.2,46.2 101.1,37.4 104.3,38.3 		"/>
		
			<radialGradient id="SVGID_23_" cx="-463.5439" cy="604.8057" r="72.2223" gradientTransform="matrix(1 0 0 -1 558 587)" gradientUnits="userSpaceOnUse">
			<stop  offset="0" style="stop-color:#FFEFC1"/>
			<stop  offset="1" style="stop-color:#9E712F"/>
		</radialGradient>
		<path fill="url(#SVGID_23_)" d="M104.2,61.7L114.6,51v5.5l3.9-0.4l4.6-7.5l-5.4-7.1l-3,0.2v5.5l-10.4-9l10.4-10.7l0.1,5.4l4-0.1
			l7.4,10.6l7.4-11.7l3.9-0.3v-4.3v-1.2l10.4,9l-10.5,11v-5.7l-3.8,0.1l-4.5,7.8l4.5,7l3.9-0.3v-5.6l10.2,9L137.4,69l0.2-5.6
			l-4.2,0.3l-7.5-10.4l-7.3,11.6l-4.1,0.4l0.1,5.4L104.2,61.7L104.2,61.7z M105.8,61.6l7.7,6.7l-0.1-3.9l4.5-0.5l7.9-12.5l8.1,11.3
			l4.8-0.3l-0.1,3.9l7.6-7.9l-7.5-6.7v4.2l-5.6,0.4l-5.3-8.1l5.2-8.9l5.5-0.2v4.1l7.8-8.2l-7.8-6.7v4.1l-4.3,0.4l-8,12.6l-8-11.4
			l-4.5,0.2l-0.1-3.9l-7.8,8l7.8,6.7v-4.2l4.6-0.3l6.2,8.1l-5.2,8.6l-5.6,0.6v-4L105.8,61.6L105.8,61.6z"/>
	</g>
</g>

<path id="Background" fill="none" d="M239.5,109.5c0,5.52-4.48,10-10,10H9.5c-5.52,0-10-4.48-10-10V9.5c0-5.52,4.48-10,10-10h220
	c5.52,0,10,4.48,10,10V109.5z"/>
</g>

</svg>
