<?xml version="1.0" encoding="utf-8"?>
<!DOCTYPE svg PUBLIC "-//W3C//DTD SVG 1.0//EN" "http://www.w3.org/TR/2001/REC-SVG-20010904/DTD/svg10.dtd" [
<!ENTITY ns_svg "http://www.w3.org/2000/svg">
<!ENTITY ns_xlink "http://www.w3.org/1999/xlink">
]>
<svg xmlns="&ns_svg;" xmlns:xlink="&ns_xlink;" width="240" height="120" viewBox="0 0 240 120" overflow="visible" enable-background="new 0 0 240 120" xml:space="preserve">

<g id="Layer_1">




<g id="_x3C_ICON_HERE_x3E_">
	<g>
		<g>
			<g>
				<path fill="#262626" d="M147.75,44.7c0-0.2,0-0.3,0-0.5c0-5.2-1-10-3-14.2l0.3-4.3l0,0v-0.1l-2.5-0.6l-0.8,0.1l-0.1-0.1
					c-3.3-3.9-7.8-6.6-13.6-7.6c0.1,0,0.3,0,0.4,0c0.5,0.1,1.1,0.2,1.6,0.3c-2.2-0.5-4.4-1.1-6.6-1.6c-0.1,0-0.2-0.1-0.3-0.1
					c-0.5-0.1-1.1-0.2-1.6-0.3c-0.5-0.1-1.1-0.2-1.6-0.2s-1.1-0.1-1.7-0.1c-0.6,0-1.1,0-1.7,0c-3.5,0.2-6.7,1.2-9.8,2.8
					c-3,1.6-5.7,3.9-8,6.6c-2.3,2.7-4.1,5.9-5.4,9.3c-1.3,3.5-2,7.2-2,11.1c0,3.2,0.4,6.1,1.3,8.9c0.8,2.8,2.1,5.3,3.6,7.5
					c1.5,2.2,3.4,4.1,5.5,5.7c2.1,1.5,4.5,2.7,7,3.4c1.1,0.3,2.3,0.6,3.4,1l3.5,1c-0.7-0.2-1.3-0.4-1.9-0.6c2,0.7,4.1,1,6.3,1.1
					c0.2,0,0.4,0,0.6,0c7.1,0,13-2.5,17.5-6.5l2.4,0.6c1.2-1,2.4-2.2,3.5-3.5c0.3-0.3,0.5-0.7,0.8-1c0.1-0.1,0.2-0.3,0.3-0.4
					c0.2-0.3,0.4-0.5,0.6-0.8c0.4-0.6,0.8-1.2,1.2-1.8l0.2-0.3l-2.1-2.1C146.65,53.5,147.65,49.1,147.75,44.7h-0.5l0,0H147.75z"/>
				<path fill="#262626" d="M120.45,75.4c-0.2,0-0.4,0-0.6,0l0,0c-1.6,0-3.2-0.2-4.8-0.6l0,0v0.1l-3.5-1c-1.1-0.3-2.3-0.6-3.4-1l0,0
					c-2.8-0.8-5.3-2-7.6-3.7l0,0c-2.3-1.7-4.3-3.8-6-6.2l0,0c-1.7-2.4-3-5.1-3.9-8.1l0,0c-0.9-2.9-1.4-6.1-1.4-9.4l0,0
					c0-0.1,0-0.1,0-0.1l0,0c0-4.1,0.8-8.1,2.1-11.8l0,0c1.4-3.7,3.3-7,5.8-9.9l0,0c2.4-2.9,5.3-5.3,8.6-7l0,0
					c3.2-1.7,6.8-2.8,10.5-3.1l0,0c0.5,0,1.1-0.1,1.6-0.1l0,0c0.1,0,0.2,0,0.3,0l0,0c0.6,0,1.2,0,1.8,0.1l0,0
					c0.6,0.1,1.2,0.1,1.8,0.2l0,0c0.6,0.1,1.2,0.2,1.7,0.3l0,0c0.1,0,0.3,0.1,0.4,0.1l0,0c2.2,0.5,4.4,1.1,6.6,1.6l0,0l0,0
					c4.8,1.2,8.9,3.7,12,7.1l0,0h0.2l2.6,0.7l1.9,0.5l-0.4,5.4c1.8,3.9,2.8,8.3,3,13.1l0,0l0,0v2v2h-0.1c-0.3,3.6-1.1,7.1-2.5,10.4
					l0,0l2.2,2.3l-0.8,1.3l-0.2,0.3c-0.4,0.7-0.8,1.3-1.3,1.9l0,0c-0.2,0.3-0.5,0.6-0.7,0.9l0,0c-0.1,0.1-0.2,0.3-0.3,0.4l0,0
					c-0.2,0.3-0.5,0.7-0.9,1.1l0,0c-1.2,1.4-2.4,2.6-3.7,3.7l0,0l-0.8,0.6l-2.4-0.6C133.75,72.9,127.65,75.4,120.45,75.4
					L120.45,75.4L120.45,75.4L120.45,75.4z M119.95,71.5c0.2,0,0.4,0,0.5,0l0,0c6.6,0,12-2.4,16.2-6l0,0l0.8-0.7l2.4,0.6
					c0.9-0.8,1.7-1.6,2.5-2.6l0,0c0.2-0.2,0.4-0.6,0.8-1l0,0c0.1-0.1,0.2-0.2,0.3-0.3l0,0c0.2-0.3,0.4-0.6,0.6-0.8l0,0
					c0.2-0.2,0.3-0.5,0.5-0.7l0,0l-1.9-2l0.6-1.2c1.7-3.8,2.7-7.9,2.7-12l0,0v-0.1l0,0c0-0.1,0-0.2,0-0.3l0,0c0-4.9-1-9.5-2.8-13.3
					l0,0l-0.2-0.5l0.2-2.4l0,0l0.1-0.9l-0.5-0.1l-1.6,0.3l-0.7-0.9c-0.1-0.1-0.1-0.1-0.1-0.1l0,0c-3-3.5-7-6-12.3-6.8l0,0l0,0l0,0
					l0,0l0,0l0,0v-0.1c-1.6-0.4-3.2-0.8-4.8-1.2l0,0c-0.1,0-0.2-0.1-0.3-0.1l0,0c-0.5-0.1-1-0.2-1.4-0.3l0,0c-0.5-0.1-1-0.1-1.5-0.2
					l0,0c-0.5,0-1-0.1-1.5-0.1l0,0c-0.1,0-0.1,0-0.2,0l0,0c-0.4,0-0.9,0-1.3,0l0,0c-3.2,0.2-6.2,1.1-8.9,2.6l0,0
					c-2.8,1.5-5.3,3.6-7.4,6.1l0,0c-2.1,2.5-3.9,5.5-5.1,8.7l0,0c-1.2,3.3-1.9,6.8-1.9,10.5l0,0l0,0l0,0c0,2.9,0.4,5.7,1.2,8.2l0,0
					c0.8,2.6,1.9,4.9,3.4,7l0,0c1.4,2.1,3.1,3.8,5.1,5.2l0,0c1.9,1.4,4.1,2.5,6.4,3.1l0,0c1.2,0.3,2.3,0.6,3.4,1l0,0l1.6,0.4v-0.1
					C116.05,71.1,117.95,71.4,119.95,71.5L119.95,71.5z M147.75,42.7L147.75,42.7L147.75,42.7L147.75,42.7z"/>
			</g>
		</g>
		<g>
			
				<linearGradient id="SVGID_1_" gradientUnits="userSpaceOnUse" x1="-454.5605" y1="525.9834" x2="-448.31" y2="553.2357" gradientTransform="matrix(1 0 0 -1 558 587)">
				<stop  offset="0" style="stop-color:#646667"/>
				<stop  offset="1" style="stop-color:#CCCECE"/>
			</linearGradient>
			<path fill="url(#SVGID_1_)" d="M123.35,16.3c-0.1,0-0.2-0.1-0.3-0.1c-0.5-0.1-1.1-0.2-1.6-0.3s-1.1-0.2-1.6-0.2s-1.1-0.1-1.7-0.1
				s-1.1,0-1.7,0c-3.5,0.2-6.7,1.2-9.8,2.8c-3,1.6-5.7,3.9-8,6.6s-4.1,5.9-5.4,9.3c-1.3,3.5-2,7.2-2,11.1c0,3.2,0.4,6.1,1.3,8.9
				c0.8,2.8,2.1,5.3,3.6,7.5c1.5,2.2,3.4,4.1,5.5,5.7c2.1,1.5,4.5,2.7,7,3.4c1.1,0.3,2.3,0.6,3.4,1c1.2,0.3,2.3,0.6,3.5,1
				c-2.5-0.7-4.9-1.9-7-3.4c-2.1-1.5-4-3.5-5.5-5.7c-1.6-2.2-2.8-4.8-3.6-7.6c-0.8-2.8-1.3-5.8-1.3-8.9c0-3.9,0.7-7.7,2-11.2
				s3.1-6.7,5.4-9.4c2.3-2.7,5-5,8-6.6s6.3-2.6,9.8-2.9c0.6,0,1.1-0.1,1.7,0c0.6,0,1.1,0,1.7,0.1c0.6,0,1.1,0.1,1.6,0.2
				s1.1,0.2,1.6,0.3C127.85,17.4,125.55,16.9,123.35,16.3z"/>
		</g>
		
			<linearGradient id="SVGID_2_" gradientUnits="userSpaceOnUse" x1="-447.3818" y1="559.875" x2="-428.1437" y2="531.0178" gradientTransform="matrix(1 0 0 -1 558 587)">
			<stop  offset="0.0275" style="stop-color:#FFFFFF"/>
			<stop  offset="0.3579" style="stop-color:#D2D3D4"/>
			<stop  offset="0.7892" style="stop-color:#9E9FA1"/>
			<stop  offset="1" style="stop-color:#898B8D"/>
		</linearGradient>
		<path fill="url(#SVGID_2_)" d="M147.25,44.7c-0.2,14.1-10.3,28.6-27.3,28.2c-12.4-0.2-22.1-11.4-21.9-26.8
			c0.2-15.2,12.3-28.1,24.7-28.5C138.95,17.3,147.45,29.5,147.25,44.7z"/>
		<g>
			<path fill="#949294" d="M146.15,36l-8.9,6.7l8.7-6.6c-26.5,5-38.8,27.6-40.2,30.3l-0.2,0.2l0.1,0.1l0,0l0,0
				c3.8,3.7,8.7,5.9,14.1,6c17,0.3,27.2-14.1,27.3-28.3C147.05,41.5,146.75,38.7,146.15,36z"/>
		</g>
		<polygon fill="#828282" points="120.05,46.4 128.05,55.1 122.15,62 125.75,65.8 109.75,68.6 105.95,65.5 112.75,55.1 		"/>
		<polygon fill="#828282" points="146.55,35.6 145.45,46.8 143.05,44.4 141.15,42.7 135.55,49.2 131.55,45.5 144.55,31.9 		"/>
		
			<radialGradient id="SVGID_3_" cx="-446.8857" cy="564.7998" r="29.1362" gradientTransform="matrix(1 0 0 -1 558 587)" gradientUnits="userSpaceOnUse">
			<stop  offset="0" style="stop-color:#FFFFFF"/>
			<stop  offset="0.1407" style="stop-color:#FAFAFA"/>
			<stop  offset="0.296" style="stop-color:#EDEDED"/>
			<stop  offset="0.4583" style="stop-color:#D7D7D7"/>
			<stop  offset="0.6255" style="stop-color:#B8B8B8"/>
			<stop  offset="0.7965" style="stop-color:#909090"/>
			<stop  offset="0.9682" style="stop-color:#606060"/>
			<stop  offset="1" style="stop-color:#575757"/>
		</radialGradient>
		<path fill="url(#SVGID_3_)" d="M119.95,73.4c-12.5-0.2-22.4-11.4-22.3-26.7l0,0c0-0.2,0-0.4,0-0.6l0,0
			c0.3-15.5,12.4-28.6,25.2-28.9l0,0c0.3,0,0.5,0,0.8,0l0,0c7.9,0,14,3,18.1,7.9l0,0c4.1,4.9,6.2,11.7,6.2,19.1l0,0
			c0,0.1,0,0.3,0,0.5l0,0h-0.5h0.5c-0.1,14.2-10.3,28.7-27.3,28.7l0,0C120.25,73.4,120.15,73.4,119.95,73.4L119.95,73.4z
			 M122.75,18.2c-12.1,0.3-24,13-24.2,28l0,0c0,0.2,0,0.4,0,0.5l0,0c0,14.9,9.5,25.5,21.4,25.8l0,0c0.2,0,0.4,0,0.5,0l0,0
			c16.3,0,26.1-14,26.3-27.8l0,0c0-0.1,0-0.3,0-0.5l0,0c0-14.6-8-26.1-23.3-26.1l0,0C123.25,18.2,123.05,18.2,122.75,18.2
			L122.75,18.2z"/>
		<polyline fill="#828282" points="127.95,63.9 132.05,67 139.45,59.3 145.85,51.5 143.35,49 		"/>
		
			<linearGradient id="SVGID_4_" gradientUnits="userSpaceOnUse" x1="-425.9771" y1="527.0059" x2="-405.1867" y2="506.3378" gradientTransform="matrix(1 0 0 -1 558 587)">
			<stop  offset="0" style="stop-color:#825E26"/>
			<stop  offset="1" style="stop-color:#E2D0AC"/>
		</linearGradient>
		<polygon fill="url(#SVGID_4_)" points="140.35,67.5 137.85,66.9 131.25,59.9 133.75,60.6 		"/>
		
			<linearGradient id="SVGID_5_" gradientUnits="userSpaceOnUse" x1="-429.6597" y1="537.9258" x2="-428.3258" y2="506.6776" gradientTransform="matrix(1 0 0 -1 558 587)">
			<stop  offset="0" style="stop-color:#825E26"/>
			<stop  offset="0.1369" style="stop-color:#87642D"/>
			<stop  offset="0.3313" style="stop-color:#94733F"/>
			<stop  offset="0.5599" style="stop-color:#AA8D5E"/>
			<stop  offset="0.8125" style="stop-color:#C8B188"/>
			<stop  offset="1" style="stop-color:#E2D0AC"/>
		</linearGradient>
		<polygon fill="url(#SVGID_5_)" points="130.45,64.5 127.95,63.8 126.85,48.2 129.25,48.8 		"/>
		
			<linearGradient id="SVGID_6_" gradientUnits="userSpaceOnUse" x1="-429.8862" y1="538.4805" x2="-393.3873" y2="538.1475" gradientTransform="matrix(1 0 0 -1 558 587)">
			<stop  offset="0" style="stop-color:#825E26"/>
			<stop  offset="1" style="stop-color:#E2D0AC"/>
		</linearGradient>
		<polygon fill="url(#SVGID_6_)" points="129.25,48.8 126.85,48.2 141.05,48.3 143.55,49 		"/>
		
			<radialGradient id="SVGID_7_" cx="-449.3857" cy="568.1699" r="59.3499" gradientTransform="matrix(1 0 0 -1 558 587)" gradientUnits="userSpaceOnUse">
			<stop  offset="0.3297" style="stop-color:#EFE8B4"/>
			<stop  offset="1" style="stop-color:#D88328"/>
		</radialGradient>
		<path fill="url(#SVGID_7_)" d="M140.25,52.9l6.6,6.9c-0.9,1.5-1.8,2.9-3,4.2c-1.1,1.3-2.3,2.4-3.5,3.5l-6.6-7l-3.3,3.9l-1.2-15.6
			l14.2,0.1L140.25,52.9z"/>
		<polyline fill="#828282" points="107.55,42.3 111.85,45.7 126.95,45.7 125.65,30.2 122.95,27.3 		"/>
		
			<linearGradient id="SVGID_8_" gradientUnits="userSpaceOnUse" x1="-441.603" y1="552.6875" x2="-437.8511" y2="557.9086" gradientTransform="matrix(1 0 0 -1 558 587)">
			<stop  offset="0" style="stop-color:#825E26"/>
			<stop  offset="1" style="stop-color:#E2D0AC"/>
		</linearGradient>
		<polygon fill="url(#SVGID_8_)" points="119.85,31.2 117.35,30.6 120.65,26.7 123.15,27.3 		"/>
		
			<linearGradient id="SVGID_9_" gradientUnits="userSpaceOnUse" x1="-442.1855" y1="552.7402" x2="-451.1544" y2="542.2225" gradientTransform="matrix(1 0 0 -1 558 587)">
			<stop  offset="0" style="stop-color:#825E26"/>
			<stop  offset="1" style="stop-color:#E2D0AC"/>
		</linearGradient>
		<polygon fill="url(#SVGID_9_)" points="110.05,42.8 107.55,42.2 110.85,38.3 113.35,38.9 		"/>
		
			<linearGradient id="SVGID_10_" gradientUnits="userSpaceOnUse" x1="-446.9766" y1="549.2246" x2="-454.9261" y2="559.0087" gradientTransform="matrix(1 0 0 -1 558 587)">
			<stop  offset="0" style="stop-color:#825E26"/>
			<stop  offset="1" style="stop-color:#E2D0AC"/>
		</linearGradient>
		<polygon fill="url(#SVGID_10_)" points="113.35,38.9 110.85,38.3 104.35,31.3 106.85,32 		"/>
		
			<linearGradient id="SVGID_11_" gradientUnits="userSpaceOnUse" x1="-460.7983" y1="542.3369" x2="-447.463" y2="561.6724" gradientTransform="matrix(1 0 0 -1 558 587)">
			<stop  offset="0" style="stop-color:#825E26"/>
			<stop  offset="1" style="stop-color:#E2D0AC"/>
		</linearGradient>
		<path fill="url(#SVGID_11_)" d="M106.85,32l-2.5-0.6c0.8-1.4,1.8-2.8,2.9-4.1c1.1-1.3,2.3-2.5,3.6-3.6l2.5,0.6
			c-1.3,1-2.5,2.2-3.6,3.6C108.65,29.2,107.65,30.5,106.85,32z"/>
		
			<radialGradient id="SVGID_12_" cx="-449.3857" cy="568.1758" r="59.3506" gradientTransform="matrix(1 0 0 -1 558 587)" gradientUnits="userSpaceOnUse">
			<stop  offset="0.3297" style="stop-color:#EFE8B4"/>
			<stop  offset="1" style="stop-color:#D88328"/>
		</radialGradient>
		<path fill="url(#SVGID_12_)" d="M119.85,31.2l3.3-3.9l1.2,15.6l-14.2-0.1l3.3-3.9l-6.6-7c0.8-1.4,1.8-2.8,2.9-4.1
			c1.1-1.3,2.3-2.5,3.6-3.6L119.85,31.2z"/>
		
			<linearGradient id="SVGID_13_" gradientUnits="userSpaceOnUse" x1="-418.6597" y1="549.1289" x2="-409.9774" y2="539.5906" gradientTransform="matrix(1 0 0 -1 558 587)">
			<stop  offset="0" style="stop-color:#825E26"/>
			<stop  offset="1" style="stop-color:#E2D0AC"/>
		</linearGradient>
		<polygon fill="url(#SVGID_13_)" points="143.95,41.8 141.45,41.2 138.15,37.7 140.65,38.3 		"/>
		
			<linearGradient id="SVGID_14_" gradientUnits="userSpaceOnUse" x1="-426.9419" y1="557.7852" x2="-422.4423" y2="553.3691" gradientTransform="matrix(1 0 0 -1 558 587)">
			<stop  offset="0" style="stop-color:#825E26"/>
			<stop  offset="1" style="stop-color:#E2D0AC"/>
		</linearGradient>
		<polygon fill="url(#SVGID_14_)" points="134.25,31.6 131.75,30.9 128.55,27.5 130.95,28.1 		"/>
		
			<linearGradient id="SVGID_15_" gradientUnits="userSpaceOnUse" x1="-411.7324" y1="562.3584" x2="-428.9763" y2="558.8117" gradientTransform="matrix(1 0 0 -1 558 587)">
			<stop  offset="0" style="stop-color:#825E26"/>
			<stop  offset="1" style="stop-color:#E2D0AC"/>
		</linearGradient>
		<polygon fill="url(#SVGID_15_)" points="130.95,28.1 128.55,27.5 142.55,25.1 144.95,25.7 		"/>
		
			<linearGradient id="SVGID_16_" gradientUnits="userSpaceOnUse" x1="-431.7017" y1="547.9609" x2="-422.1615" y2="558.8464" gradientTransform="matrix(1 0 0 -1 558 587)">
			<stop  offset="0" style="stop-color:#825E26"/>
			<stop  offset="1" style="stop-color:#E2D0AC"/>
		</linearGradient>
		<polygon fill="url(#SVGID_16_)" points="127.75,39.3 125.25,38.7 131.75,30.9 134.25,31.6 		"/>
		
			<linearGradient id="SVGID_17_" gradientUnits="userSpaceOnUse" x1="-428.5825" y1="544.8887" x2="-439.0865" y2="555.6428" gradientTransform="matrix(1 0 0 -1 558 587)">
			<stop  offset="0" style="stop-color:#825E26"/>
			<stop  offset="1" style="stop-color:#E2D0AC"/>
		</linearGradient>
		<polygon fill="url(#SVGID_17_)" points="134.15,46.1 131.65,45.5 125.25,38.7 127.75,39.3 		"/>
		
			<radialGradient id="SVGID_18_" cx="-449.3867" cy="568.1768" r="59.357" gradientTransform="matrix(1 0 0 -1 558 587)" gradientUnits="userSpaceOnUse">
			<stop  offset="0.3297" style="stop-color:#EFE8B4"/>
			<stop  offset="1" style="stop-color:#D88328"/>
		</radialGradient>
		<polygon fill="url(#SVGID_18_)" points="144.95,25.7 143.95,41.8 140.65,38.3 134.15,46.1 127.75,39.3 134.25,31.6 130.95,28.1 		
			"/>
		
			<linearGradient id="SVGID_19_" gradientUnits="userSpaceOnUse" x1="-439.6704" y1="541.4014" x2="-448.1496" y2="532.2695" gradientTransform="matrix(1 0 0 -1 558 587)">
			<stop  offset="0" style="stop-color:#825E26"/>
			<stop  offset="1" style="stop-color:#E2D0AC"/>
		</linearGradient>
		<polygon fill="url(#SVGID_19_)" points="112.75,53.6 110.35,52.9 116.85,45.2 119.35,45.8 		"/>
		
			<linearGradient id="SVGID_20_" gradientUnits="userSpaceOnUse" x1="-450.7979" y1="520.6992" x2="-449.3302" y2="543.446" gradientTransform="matrix(1 0 0 -1 558 587)">
			<stop  offset="0" style="stop-color:#825E26"/>
			<stop  offset="1" style="stop-color:#E2D0AC"/>
		</linearGradient>
		<polygon fill="url(#SVGID_20_)" points="108.45,66.2 105.95,65.5 107.05,49.5 109.55,50.1 		"/>
		
			<radialGradient id="SVGID_21_" cx="-449.3862" cy="568.1699" r="59.3497" gradientTransform="matrix(1 0 0 -1 558 587)" gradientUnits="userSpaceOnUse">
			<stop  offset="0.3297" style="stop-color:#EFE8B4"/>
			<stop  offset="1" style="stop-color:#D88328"/>
		</radialGradient>
		<polygon fill="url(#SVGID_21_)" points="119.35,45.8 125.75,52.6 119.15,60.3 122.45,63.8 108.45,66.2 109.55,50.1 112.75,53.6 		
			"/>
		<path fill="#9E702F" d="M109.55,50.2l3.3,3.5l6.2-7.4l0.4-0.4l6.7,7.1l-6.5,7.8l3.4,3.6l-14.4,1.9L109.55,50.2L109.55,50.2z
			 M109.45,65l11.4-1.4l-2.7-2.8l6.5-7.8l-5.2-5.5l-6.5,7.8l-2.6-2.8L109.45,65z"/>
		<path fill="#9E702F" d="M140.15,52.8l6.6,7l-0.2,0.3c-0.8,1.3-1.3,2.1-2.3,3.3l-0.5,0.6c-1,1.2-1.6,1.8-2.7,2.7l-0.3,0.3l-0.4,0.4
			l-6.8-6.6l-3.1,3.6l-1.3-15.6l14.3,0.2L140.15,52.8z M138.65,53l2.4-2.9l-10.6-0.1l1,11.5l1.6-1.9l0.5-0.6l6.8,7
			c1-0.8,1.7-1.7,2.6-2.7l0,0c0.9-1,1.7-2.2,2.4-3.3l0,0L138.65,53L138.65,53z"/>
		
			<radialGradient id="SVGID_22_" cx="-419.7598" cy="562.3008" r="13.6341" gradientTransform="matrix(1 0 0 -1 558 587)" gradientUnits="userSpaceOnUse">
			<stop  offset="0" style="stop-color:#FFEEC0"/>
			<stop  offset="1" style="stop-color:#9E702F"/>
		</radialGradient>
		<path fill="url(#SVGID_22_)" d="M143.95,41.8l-3.3-3.5l-6.5,7.7l-6.4-6.6l6.5-7.8l-3.4-3.6l14.2-2.3L143.95,41.8z M144.25,27
			l-11.3,1.7l2.7,2.8l-6.5,7.8l4.9,5.1l6.5-7.8l2.9,3.2L144.25,27L144.25,27z"/>
		
			<radialGradient id="SVGID_23_" cx="-446.6357" cy="563.3008" r="19.7635" gradientTransform="matrix(1 0 0 -1 558 587)" gradientUnits="userSpaceOnUse">
			<stop  offset="0" style="stop-color:#FFEEC0"/>
			<stop  offset="1" style="stop-color:#9E702F"/>
		</radialGradient>
		<path fill="url(#SVGID_23_)" d="M110.05,42.8l3.2-3.8l-6.6-7l0.2-0.2c0.8-1.3,1.7-2.6,2.7-3.8l0,0c1-1.2,2.1-2.3,3.2-3.2l0,0
			l0.5-0.4l6.6,6.8l3.2-3.9l1.2,15.6L110.05,42.8L110.05,42.8z M114.55,38.9l-2.4,2.9l11.1,0.1l-0.9-12.1l-2.1,2.6l-0.4,0.4l-6.8-7
			c-1,0.8-1.9,1.8-2.8,2.8l0,0c-0.9,1-1.7,2.2-2.4,3.3l0,0L114.55,38.9L114.55,38.9z"/>
	</g>
</g>
<path id="Background" fill="none" d="M239.5,109.5c0,5.52-4.48,10-10,10H9.5c-5.52,0-10-4.48-10-10V9.5c0-5.52,4.48-10,10-10h220
	c5.52,0,10,4.48,10,10V109.5z"/>
</g>

</svg>
