<?xml version="1.0" encoding="utf-8"?>
<!DOCTYPE svg PUBLIC "-//W3C//DTD SVG 1.0//EN" "http://www.w3.org/TR/2001/REC-SVG-20010904/DTD/svg10.dtd" [
<!ENTITY ns_svg "http://www.w3.org/2000/svg">
<!ENTITY ns_xlink "http://www.w3.org/1999/xlink">
]>
<svg xmlns="&ns_svg;" xmlns:xlink="&ns_xlink;" width="240" height="120" viewBox="0 0 240 120" overflow="visible" enable-background="new 0 0 240 120" xml:space="preserve">

<g id="Layer_1">

<path id="template" fill="none" d="M239.5,109.5c0,5.5-4.5,10-10,10H9.5c-5.5,0-10-4.5-10-10V9.5c0-5.5,4.5-10,10-10h220
	c5.5,0,10,4.5,10,10V109.5z"/>
<linearGradient id="DECAL_AREA_1_" gradientUnits="userSpaceOnUse" x1="57.7998" y1="-450" x2="57.7998" y2="-402" gradientTransform="matrix(1 0 0 -1 12 -380)">
	<stop  offset="0" style="stop-color:#5776BA"/>
	<stop  offset="1" style="stop-color:#2C5299"/>
</linearGradient>
<path id="DECAL_AREA_2_" fill="url(#DECAL_AREA_1_)" d="M117.8,64c0,3.3-2.7,6-6,6h-84c-3.3,0-6-2.7-6-6V28c0-3.3,2.7-6,6-6h84
	c3.3,0,6,2.7,6,6V64z"/>
<linearGradient id="Reflection_2_" gradientUnits="userSpaceOnUse" x1="57.7998" y1="-425.75" x2="57.7998" y2="-401.75" gradientTransform="matrix(1 0 0 -1 12 -380)">
	<stop  offset="0" style="stop-color:#3F64AF"/>
	<stop  offset="1" style="stop-color:#8DA7D7"/>
</linearGradient>
<path id="Reflection_1_" fill="url(#Reflection_2_)" d="M117.8,39.8c0,3.3-2.7,6-6,6h-84c-3.3,0-6-2.7-6-6v-12c0-3.3,2.7-6,6-6h84
	c3.3,0,6,2.7,6,6V39.8z"/>
<path id="DecalBorder" fill="none" stroke="#233861" stroke-width="2" d="M117.8,64c0,3.3-2.7,6-6,6h-84c-3.3,0-6-2.7-6-6V28
	c0-3.3,2.7-6,6-6h84c3.3,0,6,2.7,6,6V64z"/>
<g>
	<path fill="#F2F6FF" d="M34.2,49v0.5c0,2.4,1.1,3.7,3.3,3.7c2,0,3-1.4,3-2.9c0-2.1-1.1-3-2.9-3.6l-2.2-0.8
		c-2.9-1.1-4.2-2.6-4.2-5.5c0-3.6,2.5-5.7,6.2-5.7c5.1,0,5.7,3.2,5.7,5.3v0.4H40v-0.4c0-1.8-0.8-2.9-2.8-2.9c-1.4,0-2.7,0.8-2.7,2.9
		c0,1.7,0.9,2.6,3,3.4l2.2,0.8c2.8,1,4.1,2.5,4.1,5.3c0,4.3-2.6,6-6.6,6c-5,0-6.1-3.3-6.1-6.1V49H34.2z"/>
	<path fill="#F2F6FF" d="M48.1,40.1l2.6,11.3h0.1l2.4-11.3h3.2l-4.1,15.6c-1.2,4.1-2.2,4.6-5.3,4.6c-0.4,0-0.8-0.1-1.2-0.1v-2.4
		c0.3,0.1,0.6,0.1,1,0.1c1,0,1.7-0.2,2-1.2l0.4-1.2l-4.3-15.4H48.1z"/>
	<path fill="#F2F6FF" d="M58,35.2h3v6.7h0.1c0.6-1.3,1.8-2.2,3.4-2.2c2.3,0,4.6,1,4.6,7.7c0,5.2-1.4,8.1-4.9,8.1
		c-2.2,0-2.9-1.3-3.3-2.2h-0.1v1.8H58V35.2z M63.4,53.1c2.1,0,2.5-2.2,2.5-5.6c0-4.1-0.6-5.5-2.4-5.5c-2.3,0-2.7,2.1-2.7,5.7
		C60.9,51,61.4,53.1,63.4,53.1z"/>
	<path fill="#F2F6FF" d="M81.4,52c0,0.6,0.3,1.1,0.8,1.1c0.2,0,0.4,0,0.5-0.1v2c-0.4,0.2-0.9,0.4-1.5,0.4c-1.3,0-2.5-0.5-2.5-2h-0.1
		c-0.8,1.5-2,2.2-3.8,2.2c-2.4,0-3.9-1.3-3.9-4.2c0-3.4,1.5-4.1,3.5-4.7l2.4-0.6c1.1-0.3,1.8-0.6,1.8-1.9c0-1.4-0.5-2.2-2.1-2.2
		c-2,0-2.3,1.4-2.3,2.9h-2.9c0-3.2,1.3-5,5.3-5c2.7,0,4.8,1,4.8,3.7V52z M78.5,47.2c-0.8,0.6-2.5,1-3.4,1.4
		c-0.9,0.4-1.2,1.3-1.2,2.4c0,1.3,0.6,2.3,1.9,2.3c1.8,0,2.7-1.4,2.7-3.6V47.2z"/>
	<path fill="#F2F6FF" d="M91,44.5v-0.4c0-1.2-0.4-2.3-2-2.3c-1.2,0-2.2,0.6-2.2,2c0,1.2,0.5,1.7,2.1,2.2l1.9,0.7
		c2.2,0.8,3.3,2,3.3,4.3c0,3.2-2.4,4.6-5.4,4.6c-3.8,0-5-1.8-5-4.7v-0.6h2.7v0.5c0,1.7,0.6,2.7,2.4,2.7c1.7,0,2.5-0.8,2.5-2.2
		c0-1.1-0.6-1.8-1.7-2.2l-2.5-0.9c-2.3-0.8-3.2-1.9-3.2-4.3c0-2.8,2-4.1,5.2-4.1c3.8,0,4.7,2.2,4.7,4.1v0.7H91z"/>
	<path fill="#F2F6FF" d="M99,48v0.9c0,2,0.3,4.6,2.5,4.6c2.2,0,2.4-2.5,2.4-3.4h2.9c0,3.3-2,5.4-5.3,5.4c-2.5,0-5.5-0.7-5.5-7.7
		c0-3.9,0.8-8.1,5.6-8.1c4.2,0,5.3,2.5,5.3,6.7V48H99z M103.8,45.9v-0.8c0-1.9-0.6-3.4-2.3-3.4c-1.9,0-2.5,1.9-2.5,3.9v0.3H103.8z"
		/>
</g>

<path id="Background" fill="none" d="M239.75,110c0,5.52-4.48,10-10,10h-220c-5.52,0-10-4.48-10-10V10c0-5.52,4.48-10,10-10h220
	c5.52,0,10,4.48,10,10V110z"/>
<path fill="#272626" d="M215.26,20.87c-0.01-0.04-0.02-0.08-0.03-0.12c-0.1-0.36-0.27-0.76-0.51-1.09c-0.4-0.55-0.69-0.73-0.89-0.89
	l0,0l-0.04-0.03c-1.14-0.77-2.08-0.99-3.34-1.31c-3.66-0.83-9.65-1.3-16.62-1.31c-4.63,0-8.87,0.22-12.24,0.6
	c-1.69,0.19-3.15,0.42-4.39,0.71c-1.26,0.32-2.2,0.53-3.34,1.31l-0.04,0.03c-0.21,0.18-0.5,0.37-0.89,0.91
	c-0.28,0.37-0.46,0.86-0.54,1.24c0,0.02-0.01,0.05-0.02,0.07c0,0,0,0,0,0c0,0.01,0,0.01,0,0.02c-0.05,0.26-0.07,0.53-0.06,0.79
	v50.38c-0.01,0.18-0.01,0.35,0.01,0.53c0.04,0.49,0.2,0.95,0.46,1.35c0.45,0.84,1.08,1.19,1.48,1.46c1.05,0.59,2.02,0.84,3.27,1.13
	c3.67,0.78,9.53,1.23,16.3,1.24c5.14,0,9.79-0.27,13.31-0.74c1.77-0.24,3.24-0.51,4.47-0.88c0.62-0.19,1.18-0.4,1.79-0.75
	c0.41-0.28,1.05-0.64,1.51-1.51c0.24-0.39,0.39-0.83,0.43-1.29c0.02-0.18,0.03-0.37,0.01-0.55V21.83
	C215.37,21.51,215.34,21.18,215.26,20.87z"/>
<path fill="#054D80" stroke="#2A4A80" stroke-width="2" stroke-linecap="round" stroke-linejoin="round" d="M212.35,21.64
	c0-0.01,0.01-0.01,0.01-0.02s-0.01-0.01-0.01-0.02v-0.01h-0.01c-0.01-0.07-0.03-0.13-0.07-0.2c-0.05-0.07-0.13-0.15-0.23-0.22
	c0,0,0,0-0.01-0.01l0,0c-1.6-1.16-9.13-2.04-18.2-2.04c-9.07,0-16.6,0.88-18.2,2.04l0,0c0,0,0,0-0.01,0.01
	c-0.1,0.07-0.18,0.15-0.23,0.22c-0.05,0.07-0.07,0.13-0.07,0.2h-0.01v0.01c0,0.01-0.01,0.01-0.01,0.02s0.01,0.01,0.01,0.02v50.72
	c0,0.01-0.01,0.02-0.01,0.02c0,0.01,0.01,0.02,0.01,0.02v0.04h0.02c0.26,1.35,8.43,2.43,18.5,2.43c10.06,0,18.23-1.08,18.5-2.43
	h0.02V72.4c0-0.01,0.01-0.01,0.01-0.02c0,0-0.01-0.01-0.01-0.02L212.35,21.64L212.35,21.64z"/>
<path opacity="0.26" fill="#3B63AD" enable-background="new    " d="M212.03,21.16c-1.6,1.16-9.13,2.04-18.2,2.04
	c-9.07,0-16.6-0.88-18.2-2.04c-0.21,0.15-0.32,0.3-0.32,0.46c0,1.38,8.29,2.5,18.52,2.5c10.23,0,18.52-1.12,18.52-2.5
	C212.36,21.46,212.24,21.31,212.03,21.16z"/>
<linearGradient id="SVGID_1_" gradientUnits="userSpaceOnUse" x1="175.3213" y1="98.4082" x2="175.3262" y2="98.4082" gradientTransform="matrix(1 0 0 -1 0 120)">
	<stop  offset="0" style="stop-color:#BFD9F1"/>
	<stop  offset="0.2253" style="stop-color:#FFFFFF"/>
	<stop  offset="1" style="stop-color:#BFD9F1"/>
</linearGradient>
<polygon fill="url(#SVGID_1_)" points="175.32,21.59 175.32,21.6 175.33,21.59 "/>
<linearGradient id="SVGID_2_" gradientUnits="userSpaceOnUse" x1="212.3438" y1="98.4082" x2="212.3505" y2="98.4082" gradientTransform="matrix(1 0 0 -1 0 120)">
	<stop  offset="0" style="stop-color:#BFD9F1"/>
	<stop  offset="0.2253" style="stop-color:#FFFFFF"/>
	<stop  offset="1" style="stop-color:#BFD9F1"/>
</linearGradient>
<polygon fill="url(#SVGID_2_)" points="212.35,21.6 212.35,21.59 212.34,21.59 "/>
<linearGradient id="SVGID_3_" gradientUnits="userSpaceOnUse" x1="175.2695" y1="71.7656" x2="212.2516" y2="71.7656" gradientTransform="matrix(1 0 0 -1 0 120)">
	<stop  offset="0" style="stop-color:#85B6CD"/>
	<stop  offset="0.2387" style="stop-color:#E8F6FD"/>
	<stop  offset="0.4279" style="stop-color:#85B6CD"/>
	<stop  offset="0.8408" style="stop-color:#1D5680"/>
	<stop  offset="1" style="stop-color:#85B6CD"/>
</linearGradient>
<path fill="url(#SVGID_3_)" d="M212.35,72.41c0-0.01,0.01-0.02,0.01-0.02c0,0-0.01-0.01-0.01-0.02V21.59h-37.03v50.77
	c0,0.01-0.01,0.02-0.01,0.02c0,0.01,0.01,0.02,0.01,0.02v0.04h0.02c0.27,1.35,8.43,2.43,18.5,2.43c10.06,0,18.23-1.08,18.5-2.43
	h0.02V72.41L212.35,72.41z"/>
<linearGradient id="SVGID_4_" gradientUnits="userSpaceOnUse" x1="401.2715" y1="994.1465" x2="400.3016" y2="988.5208" gradientTransform="matrix(1 0 0 1 -207 -970)">
	<stop  offset="0" style="stop-color:#7D97A8"/>
	<stop  offset="0.0174" style="stop-color:#8099AA"/>
	<stop  offset="0.1824" style="stop-color:#9CB2C0"/>
	<stop  offset="0.3477" style="stop-color:#AEC2CE"/>
	<stop  offset="0.5122" style="stop-color:#BCCED8"/>
	<stop  offset="0.6751" style="stop-color:#BFD3DD"/>
	<stop  offset="0.7168" style="stop-color:#B4CCD8"/>
	<stop  offset="0.8253" style="stop-color:#9ABFD2"/>
	<stop  offset="0.923" style="stop-color:#8AB8CD"/>
	<stop  offset="1" style="stop-color:#85B6CD"/>
</linearGradient>
<ellipse fill="url(#SVGID_4_)" cx="193.84" cy="21.62" rx="18.52" ry="2.5"/>
<linearGradient id="SVGID_5_" gradientUnits="userSpaceOnUse" x1="197.1162" y1="98.9707" x2="212.3584" y2="98.9707" gradientTransform="matrix(1 0 0 -1 0 120)">
	<stop  offset="0" style="stop-color:#4C90C2"/>
	<stop  offset="0.1758" style="stop-color:#FFFFFF"/>
	<stop  offset="1" style="stop-color:#5587AC"/>
</linearGradient>
<path fill="url(#SVGID_5_)" d="M197.12,19.15c2.45,0.29,7.79,1.22,5.97,3.64l-0.2,0.11c4.86-0.35,8.43-0.99,9.47-1.74
	C210.94,20.13,204.83,19.32,197.12,19.15z"/>
<linearGradient id="SVGID_6_" gradientUnits="userSpaceOnUse" x1="175.3135" y1="71.7383" x2="212.3584" y2="71.7383" gradientTransform="matrix(1 0 0 -1 0 120)">
	<stop  offset="0" style="stop-color:#8DADBC"/>
	<stop  offset="0.2253" style="stop-color:#FFFFFF"/>
	<stop  offset="1" style="stop-color:#528AB4"/>
</linearGradient>
<path fill="url(#SVGID_6_)" d="M175.31,72.38c0,0.01,0.01,0.02,0.01,0.02v0.04h0.02c0.27,1.35,8.43,2.43,18.5,2.43
	c10.06,0,18.23-1.08,18.5-2.43h0.02V72.4c0-0.01,0.01-0.01,0.01-0.02c0,0-0.01-0.01-0.01-0.02V21.64c-0.06,1.04-4.86,1.93-11.62,2.3
	l-0.04,0.02c0,0,0,22.49,0,26.31c0,5.63-0.46,16.23-25.37,17.03v5.06C175.32,72.37,175.31,72.38,175.31,72.38z"/>
<path opacity="0.26" fill="#3C64AE" enable-background="new    " d="M212.03,21.16c-1.6,1.16-9.13,2.04-18.2,2.04
	c-9.07,0-16.6-0.88-18.2-2.04c-0.21,0.15-0.32,0.3-0.32,0.46c0,1.38,8.29,2.5,18.52,2.5c10.23,0,18.52-1.12,18.52-2.5
	C212.36,21.46,212.24,21.31,212.03,21.16z"/>
</g>

</svg>
