<?xml version="1.0" encoding="utf-8"?>
<!DOCTYPE svg PUBLIC "-//W3C//DTD SVG 1.0//EN" "http://www.w3.org/TR/2001/REC-SVG-20010904/DTD/svg10.dtd" [
<!ENTITY ns_svg "http://www.w3.org/2000/svg">
<!ENTITY ns_xlink "http://www.w3.org/1999/xlink">
]>
<svg xmlns="&ns_svg;" xmlns:xlink="&ns_xlink;" width="240" height="120" viewBox="0 0 240 120" overflow="visible" enable-background="new 0 0 240 120" xml:space="preserve">

<g id="Layer_1">

<path id="template" fill="none" d="M239.5,109.5c0,5.5-4.5,10-10,10H9.5c-5.5,0-10-4.5-10-10V9.5c0-5.5,4.5-10,10-10h220
	c5.5,0,10,4.5,10,10V109.5z"/>
<linearGradient id="DECAL_AREA_1_" gradientUnits="userSpaceOnUse" x1="57.7998" y1="-450" x2="57.7998" y2="-402" gradientTransform="matrix(1 0 0 -1 12 -380)">
	<stop  offset="0" style="stop-color:#FFDD33"/>
	<stop  offset="1" style="stop-color:#CCAE15"/>
</linearGradient>
<path id="DECAL_AREA_2_" fill="url(#DECAL_AREA_1_)" d="M117.8,64c0,3.3-2.7,6-6,6h-84c-3.3,0-6-2.7-6-6V28c0-3.3,2.7-6,6-6h84
	c3.3,0,6,2.7,6,6V64z"/>
<linearGradient id="Reflection_2_" gradientUnits="userSpaceOnUse" x1="57.7998" y1="-425.75" x2="57.7998" y2="-401.75" gradientTransform="matrix(1 0 0 -1 12 -380)">
	<stop  offset="0" style="stop-color:#E6C72E"/>
	<stop  offset="1" style="stop-color:#FFF0A6"/>
</linearGradient>
<path id="Reflection_1_" fill="url(#Reflection_2_)" d="M117.8,39.8c0,3.3-2.7,6-6,6h-84c-3.3,0-6-2.7-6-6v-12c0-3.3,2.7-6,6-6h84
	c3.3,0,6,2.7,6,6V39.8z"/>
<path id="DecalBorder" fill="none" stroke="#000000" stroke-width="2" d="M117.8,64c0,3.3-2.7,6-6,6h-84c-3.3,0-6-2.7-6-6V28
	c0-3.3,2.7-6,6-6h84c3.3,0,6,2.7,6,6V64z"/>
<g id="Layer_2">
	<g>
		<path d="M30.9,35.2h5.7c6.3,0,7.1,4.1,7.1,10c0,5.9-0.8,10-7.1,10h-5.7V35.2z M34.1,52.8h2.6c2.6,0,3.7-1.7,3.7-7.6
			c0-5.6-1-7.6-3.7-7.6h-2.6V52.8z"/>
		<path d="M51.3,39.7c4.4,0,5.6,3.2,5.6,7.9c0,4.7-1.4,7.9-5.6,7.9c-4.2,0-5.6-3.2-5.6-7.9C45.7,43,46.9,39.7,51.3,39.7z M51.3,53.3
			c2.2,0,2.6-1.8,2.6-5.7c0-3.3-0.4-5.7-2.6-5.7c-2.2,0-2.6,2.4-2.6,5.7C48.7,51.5,49.1,53.3,51.3,53.3z"/>
		<path d="M59.1,40.1H62v1.8H62c0.8-1.3,2.2-2.2,3.6-2.2c2.2,0,3.1,1,3.5,2.3c0.9-1.5,2-2.3,3.8-2.3c2.1,0,3.7,1.1,3.7,4v11.5h-3
			V44.8c0-2-0.6-2.7-1.8-2.7s-2.4,1-2.4,2.9v10.1h-3V44.8c0-2-0.6-2.7-1.8-2.7c-1.2,0-2.4,1-2.4,2.9v10.1h-3V40.1z"/>
		<path d="M79.4,34.9h3v3h-3V34.9z M79.4,40.1h3v15.1h-3V40.1z"/>
		<path d="M85.1,40.1H88v1.8h0.1c0.8-1.3,2.2-2.2,3.9-2.2c2.3,0,3.8,1,3.8,4.1v11.4h-3V44.8c0-2-0.6-2.7-2.1-2.7
			c-1.2,0-2.4,1-2.4,2.9v10.1h-3V40.1z"/>
		<path d="M103.4,39.7c4.4,0,5.6,3.2,5.6,7.9c0,4.7-1.4,7.9-5.6,7.9c-4.2,0-5.6-3.2-5.6-7.9C97.8,43,99,39.7,103.4,39.7z
			 M103.4,53.3c2.2,0,2.6-1.8,2.6-5.7c0-3.3-0.4-5.7-2.6-5.7c-2.2,0-2.6,2.4-2.6,5.7C100.8,51.5,101.2,53.3,103.4,53.3z"/>
	</g>
</g>

<defs>
</defs>
<path id="Background_1_" fill="none" d="M240,110c0,5.523-4.478,10-10,10H10c-5.523,0-10-4.477-10-10V10C0,4.477,4.477,0,10,0h220
	c5.522,0,10,4.477,10,10V110z"/>
<path fill="#262626" d="M223.798,28.896l-3.721-0.97c-0.216-0.056-0.429-0.075-0.649-0.059l-1.341,0.097l0.012-2.622
	c0.013-0.093,0.02-0.188,0.02-0.283v-4.427c0-0.911-0.613-1.704-1.495-1.935l-3.72-0.973c-0.217-0.056-0.431-0.075-0.651-0.059
	L164.913,21.1c-1.042,0.075-1.852,0.942-1.855,1.987l-0.177,40.072c-0.002,0.76,0.422,1.454,1.101,1.796l1.926,0.971
	c0.284,0.142,0.595,0.215,0.911,0.215c0.043,0,0.086-0.002,0.129-0.004l3.142-0.22l-0.033,7.441
	c-0.003,0.76,0.422,1.453,1.099,1.795l1.926,0.975c0.281,0.14,0.59,0.213,0.902,0.213c0.047,0,0.093-0.002,0.14-0.005l49.135-3.438
	c1.048-0.073,1.855-0.938,1.859-1.986l0.157-35.37c0.013-0.093,0.02-0.188,0.02-0.284v-4.427
	C225.293,29.92,224.681,29.126,223.798,28.896z"/>
<linearGradient id="SVGID_1_" gradientUnits="userSpaceOnUse" x1="165.9326" y1="24.0034" x2="165.9326" y2="63.4214">
	<stop  offset="0" style="stop-color:#CDCCCB"/>
	<stop  offset="1" style="stop-color:#A6A5A5"/>
</linearGradient>
<polygon fill="url(#SVGID_1_)" points="166.807,64.141 164.882,63.17 165.058,23.096 166.983,24.07 "/>
<linearGradient id="SVGID_2_" gradientUnits="userSpaceOnUse" x1="165.0391" y1="25.9482" x2="166.9834" y2="25.9482">
	<stop  offset="0" style="stop-color:#78A9C8"/>
	<stop  offset="1" style="stop-color:#84B5D4"/>
</linearGradient>
<polygon fill="url(#SVGID_2_)" points="166.949,28.801 165.039,27.83 165.058,23.096 166.983,24.07 "/>
<polygon fill="#84B5D4" points="166.983,24.07 165.058,23.096 212.398,19.66 216.117,20.633 "/>
<linearGradient id="SVGID_3_" gradientUnits="userSpaceOnUse" x1="191.4619" y1="25.4375" x2="191.4619" y2="62.4659">
	<stop  offset="0" style="stop-color:#FFFFFF"/>
	<stop  offset="1" style="stop-color:#E5E5E5"/>
</linearGradient>
<polygon fill="url(#SVGID_3_)" points="216.117,20.633 215.943,60.705 166.807,64.141 166.983,24.07 "/>
<linearGradient id="SVGID_4_" gradientUnits="userSpaceOnUse" x1="166.9033" y1="24.7119" x2="216.1191" y2="24.7119">
	<stop  offset="0" style="stop-color:#78A9C8"/>
	<stop  offset="1" style="stop-color:#5C91B4"/>
</linearGradient>
<polygon fill="url(#SVGID_4_)" points="216.117,20.633 216.119,25.059 166.903,28.791 166.923,24.045 "/>
<linearGradient id="SVGID_5_" gradientUnits="userSpaceOnUse" x1="214.0547" y1="24.2095" x2="214.0547" y2="21.6716">
	<stop  offset="0" style="stop-color:#BABABA"/>
	<stop  offset="1" style="stop-color:#E5E5E5"/>
</linearGradient>
<polygon fill="url(#SVGID_5_)" points="215.214,21.67 215.214,24.154 212.895,24.324 212.896,21.848 "/>
<linearGradient id="SVGID_6_" gradientUnits="userSpaceOnUse" x1="210.7559" y1="24.4771" x2="210.7559" y2="21.9391">
	<stop  offset="0" style="stop-color:#BABABA"/>
	<stop  offset="1" style="stop-color:#E5E5E5"/>
</linearGradient>
<polygon fill="url(#SVGID_6_)" points="211.913,21.938 211.915,24.422 209.596,24.592 209.598,22.115 "/>
<polygon fill="#666666" stroke="#666666" stroke-width="2" stroke-linecap="round" stroke-linejoin="round" points="219.578,60.234 
	219.688,35.26 219.706,35.258 219.706,30.832 215.985,29.861 172.233,33.295 172.099,63.805 "/>
<linearGradient id="SVGID_7_" gradientUnits="userSpaceOnUse" x1="173.1074" y1="34.2026" x2="173.1074" y2="73.6225">
	<stop  offset="0" style="stop-color:#CDCCCB"/>
	<stop  offset="1" style="stop-color:#A6A5A5"/>
</linearGradient>
<polygon fill="url(#SVGID_7_)" points="173.981,74.342 172.057,73.369 172.232,33.295 174.159,34.27 "/>
<linearGradient id="SVGID_8_" gradientUnits="userSpaceOnUse" x1="172.2148" y1="36.1484" x2="174.1592" y2="36.1484">
	<stop  offset="0" style="stop-color:#78A9C8"/>
	<stop  offset="1" style="stop-color:#84B5D4"/>
</linearGradient>
<polygon fill="url(#SVGID_8_)" points="174.124,39.002 172.215,38.031 172.232,33.295 174.159,34.27 "/>
<polygon fill="#84B5D4" points="174.159,34.27 172.232,33.295 219.573,29.861 223.292,30.832 "/>
<linearGradient id="SVGID_9_" gradientUnits="userSpaceOnUse" x1="198.6367" y1="35.6367" x2="198.6367" y2="72.6668">
	<stop  offset="0" style="stop-color:#FFFFFF"/>
	<stop  offset="1" style="stop-color:#E5E5E5"/>
</linearGradient>
<polygon fill="url(#SVGID_9_)" points="223.292,30.832 223.118,70.904 173.981,74.342 174.159,34.27 "/>
<linearGradient id="SVGID_10_" gradientUnits="userSpaceOnUse" x1="174.0781" y1="34.9111" x2="223.2939" y2="34.9111">
	<stop  offset="0" style="stop-color:#78A9C8"/>
	<stop  offset="1" style="stop-color:#5C91B4"/>
</linearGradient>
<polygon fill="url(#SVGID_10_)" points="223.292,30.832 223.294,35.258 174.078,38.99 174.098,34.246 "/>
<linearGradient id="SVGID_11_" gradientUnits="userSpaceOnUse" x1="221.2285" y1="34.4087" x2="221.2285" y2="31.8708">
	<stop  offset="0" style="stop-color:#BABABA"/>
	<stop  offset="1" style="stop-color:#E5E5E5"/>
</linearGradient>
<polygon fill="url(#SVGID_11_)" points="222.389,31.869 222.389,34.354 220.069,34.523 220.071,32.047 "/>
<linearGradient id="SVGID_12_" gradientUnits="userSpaceOnUse" x1="217.9297" y1="34.6763" x2="217.9297" y2="32.1402">
	<stop  offset="0" style="stop-color:#BABABA"/>
	<stop  offset="1" style="stop-color:#E5E5E5"/>
</linearGradient>
<polygon fill="url(#SVGID_12_)" points="219.088,32.139 219.09,34.621 216.771,34.791 216.772,32.314 "/>
<path fill="#666666" d="M204.994,69.85c-0.117,0-0.228-0.023-0.332-0.063l0,0l-1.293-0.393c-0.315-0.097-0.548-0.358-0.606-0.684
	l0,0l-0.003-0.009l-0.029,0.031c-0.257,0.284-0.663,0.362-1.002,0.212l0,0l-1.36-0.406l-0.218-0.095
	c-0.309-0.193-0.584-0.401-0.837-0.623l0,0c-0.281-0.243-0.378-0.637-0.241-0.981l0,0l0.376-0.954
	c-0.042-0.058-0.087-0.113-0.128-0.172l0,0c-0.063-0.009-0.127-0.023-0.187-0.048l0,0l-1.368-0.42
	c-0.263-0.078-0.472-0.279-0.568-0.537l0,0c-0.128-0.354-0.23-0.702-0.305-1.051l0,0c-0.079-0.346,0.056-0.705,0.348-0.908l0,0
	l0.789-0.557c-0.016-0.188-0.023-0.377-0.023-0.57l0,0c0.003-0.021,0.003-0.041,0.004-0.057l0,0
	c0.003-0.181,0.011-0.354,0.024-0.521l0,0l-0.684-0.373c-0.051-0.028-0.099-0.06-0.141-0.097l0,0
	c-0.092-0.028-0.175-0.067-0.252-0.12l0,0c-0.113,0.044-0.228,0.086-0.346,0.125l0,0l-0.301,1.657
	c-0.071,0.377-0.375,0.662-0.754,0.711l0,0l-0.099,0.01c-0.262,0.043-0.517,0.065-0.765,0.084l0,0
	c-0.196,0.016-0.381,0.02-0.552,0.021l0,0l-0.144,0.006c-0.143,0.004-0.279-0.027-0.399-0.084l0,0l-1.813-0.545
	c-0.315-0.099-0.548-0.359-0.606-0.684l0,0l-0.133-0.727l-0.53,0.576c-0.26,0.287-0.675,0.363-1.017,0.201l0,0l-1.944-0.572
	l-0.21-0.096c-0.429-0.265-0.806-0.548-1.153-0.849l0,0c-0.282-0.241-0.38-0.637-0.242-0.983l0,0l0.61-1.544
	c-0.139-0.168-0.269-0.342-0.393-0.515l0,0c-0.134,0.001-0.267-0.027-0.384-0.081l0,0l-1.906-0.582
	c-0.259-0.08-0.466-0.276-0.562-0.534l0,0c-0.182-0.49-0.315-0.971-0.421-1.455l0,0c-0.077-0.346,0.06-0.701,0.349-0.904l0,0
	l1.277-0.902c-0.028-0.313-0.045-0.635-0.045-0.96l0,0c0-0.05,0.003-0.078,0.003-0.05l0,0c0.002-0.35,0.021-0.672,0.054-0.99l0,0
	l-1.171-0.643c-0.341-0.188-0.519-0.582-0.434-0.965l0,0c0.127-0.531,0.269-1.025,0.45-1.509l0,0c0.134-0.361,0.486-0.589,0.87-0.57
	l0,0l1.354,0.078c0.299-0.579,0.645-1.125,1.041-1.626l0,0l-0.606-1.416c-0.142-0.331-0.066-0.712,0.187-0.965l0,0
	c0.384-0.38,0.766-0.711,1.158-1.01l0,0c0.205-0.156,0.465-0.212,0.715-0.158l0,0l2.083,0.453c0.154,0.034,0.295,0.106,0.412,0.214
	l0,0c0.114-0.043,0.231-0.081,0.349-0.119l0,0l0.275-1.604c0.062-0.377,0.365-0.669,0.74-0.721l0,0
	c0.241-0.035,0.449-0.054,0.65-0.068l0,0c0.219-0.018,0.431-0.023,0.636-0.023l0,0c0.065,0,0.132,0,0.194,0.003l0,0l0.188,0.025
	l1.973,0.486c0.411,0.017,0.751,0.32,0.823,0.729l0,0l0.102,0.623l0.312-0.359c0.219-0.252,0.558-0.355,0.879-0.273l0,0l1.852,0.482
	c0.145,0.007,0.289,0.053,0.417,0.137l0,0l0.122,0.08c0.392,0.251,0.764,0.536,1.117,0.846l0,0L201.313,43
	c0.165,0.148,0.264,0.35,0.289,0.562l0,0l0.097,0.005c0.152-0.274,0.316-0.536,0.503-0.784l0,0l-0.326-0.753
	c-0.139-0.328-0.063-0.711,0.187-0.964l0,0c0.262-0.26,0.523-0.485,0.792-0.687l0,0c0.202-0.153,0.461-0.208,0.711-0.155l0,0
	l1.351,0.292c0.061,0.013,0.116,0.03,0.171,0.056l0,0l0.135-0.788c0.063-0.367,0.353-0.656,0.721-0.715l0,0
	c0.181-0.031,0.34-0.044,0.442-0.049l0,0c0.183-0.017,0.346-0.02,0.491-0.02l0,0c0.023,0,0.057,0,0.092,0.003l0,0l0.196,0.024
	l1.258,0.313c0.337,0.033,0.622,0.252,0.738,0.563l0,0c0.198-0.113,0.436-0.148,0.661-0.09l0,0l1.155,0.303
	c0.15,0.012,0.299,0.062,0.432,0.153l0,0l0.043,0.03c0.281,0.178,0.536,0.378,0.77,0.586l0,0l0.06,0.049
	c0.279,0.248,0.371,0.646,0.229,0.991l0,0l-0.341,0.821l1.328,0.345c0.275,0.071,0.502,0.274,0.602,0.543l0,0l0.031,0.086
	c0.118,0.316,0.211,0.646,0.287,0.979l0,0l0.017,0.073c0.072,0.348-0.069,0.706-0.362,0.909l0,0l-0.679,0.46
	c0.011,0.139,0.014,0.283,0.014,0.427l0,0v0.035c0,0.101-0.003,0.204-0.007,0.307l0,0l0.61,0.345
	c0.328,0.188,0.499,0.562,0.426,0.932l0,0l-0.019,0.1c-0.076,0.33-0.165,0.656-0.282,0.99l0,0l-0.029,0.079
	c-0.131,0.369-0.489,0.604-0.885,0.576l0,0l-0.653-0.047c-0.124,0.232-0.263,0.458-0.413,0.67l0,0l0.33,0.799
	c0.134,0.318,0.062,0.686-0.173,0.936l0,0l-0.057,0.057c-0.232,0.242-0.477,0.46-0.714,0.651l0,0l-0.079,0.062
	c-0.216,0.177-0.502,0.24-0.773,0.17l0,0l-1.331-0.348c-0.023-0.006-0.045-0.014-0.065-0.021l0,0l-0.158,0.856
	c-0.043,0.225-0.169,0.42-0.347,0.547l0,0l0.191,0.05c0.146,0.012,0.293,0.061,0.42,0.146l0,0l0.07,0.049
	c0.289,0.188,0.561,0.394,0.832,0.63l0,0l0.063,0.058c0.275,0.248,0.361,0.639,0.221,0.982l0,0l-0.396,0.955
	c0.009,0.013,0.016,0.021,0.024,0.033l0,0c0.018,0.001,0.038,0.007,0.057,0.012l0,0l1.447,0.38c0.268,0.07,0.488,0.267,0.592,0.525
	l0,0l0.042,0.119c0.123,0.336,0.224,0.684,0.309,1.051l0,0l0.018,0.08c0.072,0.35-0.071,0.706-0.365,0.905l0,0l-0.774,0.526
	c0.014,0.167,0.018,0.336,0.018,0.504l0,0v0.033c-0.001,0.131-0.004,0.258-0.013,0.387l0,0l0.713,0.408
	c0.329,0.186,0.499,0.563,0.425,0.934l0,0l-0.021,0.102c-0.081,0.348-0.176,0.702-0.293,1.036l0,0l-0.026,0.087
	c-0.125,0.387-0.496,0.64-0.899,0.609l0,0l-0.768-0.059c-0.15,0.282-0.313,0.549-0.492,0.802l0,0l0.375,0.913
	c0.138,0.327,0.061,0.702-0.189,0.955l0,0l-0.047,0.046c-0.242,0.249-0.504,0.49-0.765,0.692l0,0l-0.086,0.07
	c-0.215,0.185-0.509,0.247-0.784,0.176l0,0l-1.448-0.38c-0.052-0.014-0.103-0.034-0.151-0.058l0,0l-0.189,1.032
	c-0.07,0.371-0.373,0.657-0.75,0.709l0,0l-0.076,0.007c-0.172,0.025-0.358,0.049-0.553,0.059l0,0
	c-0.136,0.011-0.273,0.018-0.422,0.018l0,0H204.994L204.994,69.85z M203.29,66.221l0.296,0.076c0.33,0.082,0.582,0.352,0.641,0.688
	l0,0l0.159,0.892l0.747,0.226c0.052-0.001,0.105-0.005,0.161-0.008l0,0l0.165-0.902c0.061-0.334,0.313-0.602,0.639-0.688l0,0
	c0.248-0.063,0.503-0.163,0.767-0.289l0,0c0.346-0.166,0.759-0.084,1.021,0.198l0,0l0.044,0.045l0.767,0.2
	c0.007-0.005,0.014-0.01,0.018-0.015l0,0l-0.341-0.83c-0.123-0.299-0.074-0.64,0.134-0.89l0,0c0.331-0.401,0.609-0.861,0.837-1.376
	l0,0c0.151-0.345,0.497-0.556,0.868-0.528l0,0l0.154,0.012l-0.183-0.104c-0.312-0.178-0.484-0.531-0.432-0.885l0,0
	c0.036-0.237,0.053-0.49,0.057-0.74l0,0v-0.031c-0.004-0.27-0.021-0.525-0.062-0.802l0,0c-0.051-0.33,0.096-0.662,0.373-0.851l0,0
	l0.704-0.479c-0.002,0-0.002-0.005-0.005-0.009l0,0l-0.783-0.205l-0.042,0.012c-0.364,0.09-0.747-0.067-0.948-0.383l0,0
	c-0.16-0.252-0.324-0.474-0.506-0.668l0,0c-0.234-0.248-0.298-0.613-0.167-0.932l0,0l0.348-0.839
	c-0.045-0.033-0.092-0.064-0.138-0.095l0,0l-0.796-0.209l-0.561,0.648c-0.198,0.234-0.51,0.343-0.81,0.293l0,0
	c-0.084-0.014-0.137-0.031-0.164-0.037l0,0l0,0c-0.385-0.05-0.691-0.346-0.754-0.726l0,0l-0.152-0.926l-0.864-0.215l0,0l0,0
	c-0.029,0-0.059,0-0.089,0.002l0,0l-0.145,0.859c-0.062,0.351-0.326,0.628-0.669,0.708l0,0c-0.255,0.059-0.516,0.145-0.778,0.262
	l0,0c-0.329,0.145-0.713,0.073-0.966-0.179l0,0l-0.1-0.096l-0.848-0.186c-0.267-0.056-0.486-0.229-0.604-0.471l0,0
	c-0.117-0.242-0.117-0.521-0.002-0.763l0,0c0.093-0.182,0.151-0.275,0.164-0.311l0,0c0.146-0.342,0.495-0.556,0.868-0.529l0,0
	l1.235,0.091c0.025-0.084,0.048-0.167,0.069-0.251l0,0l-1.132-0.647c-0.312-0.176-0.483-0.525-0.432-0.876l0,0
	c0.05-0.368,0.079-0.737,0.079-1.103l0,0c-0.002-0.019-0.002-0.032,0-0.045l0,0c-0.002-0.399-0.029-0.783-0.089-1.188l0,0
	c-0.046-0.331,0.097-0.659,0.371-0.847l0,0l0.258-0.172c0.166-0.118,0.372-0.167,0.572-0.149l0,0l0.1-0.021
	c0.354-0.069,0.718,0.091,0.909,0.398l0,0c0.168,0.269,0.339,0.501,0.521,0.683l0,0c0.244,0.247,0.319,0.612,0.194,0.937l0,0
	l-0.279,0.713l0.689,0.203l0.533-0.581c0.218-0.241,0.553-0.339,0.867-0.256l0,0l0.264,0.07c0.327,0.086,0.574,0.353,0.636,0.687
	l0,0l0.143,0.773l0.63,0.195c0.023,0,0.051-0.002,0.077-0.003l0,0l0.142-0.772c0.062-0.336,0.31-0.604,0.641-0.688l0,0
	c0.221-0.058,0.451-0.146,0.689-0.263l0,0c0.347-0.162,0.76-0.084,1.017,0.198l0,0l0.025,0.025l0.568,0.148l-0.266-0.645
	c-0.126-0.298-0.072-0.646,0.136-0.892l0,0c0.297-0.358,0.554-0.771,0.754-1.241l0,0c0.13-0.3,0.409-0.497,0.726-0.525l0,0
	c-0.267-0.188-0.405-0.512-0.356-0.84l0,0c0.033-0.21,0.05-0.437,0.051-0.665l0,0v-0.026c0-0.243-0.02-0.474-0.053-0.732l0,0
	c-0.047-0.33,0.098-0.658,0.373-0.842l0,0l0.521-0.356l-0.559-0.147l-0.027,0.008c-0.362,0.088-0.744-0.069-0.943-0.387l0,0
	c-0.144-0.227-0.29-0.427-0.452-0.6l0,0c-0.233-0.25-0.3-0.615-0.169-0.932l0,0l0.294-0.718c-0.021-0.015-0.042-0.028-0.063-0.043
	l0,0l-0.674-0.178l-0.486,0.563c-0.2,0.23-0.507,0.339-0.81,0.289l0,0c-0.082-0.014-0.135-0.03-0.155-0.034l0,0v-0.002
	c-0.38-0.05-0.685-0.344-0.747-0.723l0,0l-0.134-0.807l-0.729-0.181c-0.007,0-0.008,0-0.014,0l0,0l-0.125,0.733
	c-0.059,0.351-0.329,0.633-0.675,0.708l0,0c-0.226,0.048-0.454,0.127-0.691,0.233l0,0c-0.331,0.147-0.716,0.074-0.972-0.181l0,0
	l-0.07-0.072l-0.503-0.108l0.223,0.518c0.136,0.318,0.079,0.677-0.153,0.931l0,0c-0.336,0.373-0.62,0.82-0.834,1.311l0,0
	c-0.111,0.255-0.335,0.437-0.594,0.501l0,0c0.241,0.258,0.309,0.646,0.148,0.979l0,0c-0.024,0.196-0.04,0.375-0.043,0.586l0,0
	c0,0.267-0.131,0.523-0.341,0.689l0,0c-0.212,0.16-0.494,0.218-0.752,0.148l0,0l-0.345-0.089l-0.154,0.039
	c-0.362,0.086-0.744-0.067-0.942-0.384l0,0c-0.234-0.37-0.479-0.707-0.754-1.002l0,0c-0.232-0.252-0.301-0.614-0.169-0.931l0,0
	l0.598-1.442c-0.16-0.123-0.322-0.239-0.488-0.35l0,0l-1.396-0.36l-0.943,1.085c-0.201,0.229-0.506,0.337-0.806,0.289l0,0
	c-0.194-0.036-0.243-0.059-0.243-0.055l0,0c-0.385-0.047-0.696-0.34-0.758-0.725l0,0l-0.258-1.543l-1.483-0.367
	c-0.022,0-0.042,0-0.063,0l0,0c-0.144,0-0.284,0.005-0.415,0.012l0,0l-0.256,1.503c-0.061,0.352-0.327,0.631-0.672,0.708l0,0
	c-0.398,0.087-0.788,0.217-1.167,0.386l0,0c-0.331,0.146-0.71,0.074-0.97-0.179l0,0l-0.203-0.205l-1.431-0.311
	c-0.081,0.067-0.163,0.137-0.243,0.208l0,0l0.578,1.347c0.135,0.312,0.073,0.672-0.152,0.926l0,0
	c-0.553,0.62-1.019,1.354-1.372,2.156l0,0c-0.148,0.332-0.487,0.54-0.849,0.517l0,0l-1.275-0.07
	c-0.005,0.018-0.011,0.035-0.014,0.054l0,0l1.06,0.582c0.343,0.165,0.544,0.537,0.482,0.924l0,0
	c-0.075,0.476-0.113,0.868-0.12,1.384l0,0c0,0.423,0.033,0.841,0.093,1.245l0,0c0.05,0.327-0.093,0.652-0.359,0.844l0,0
	l-1.218,0.855c0.024,0.091,0.052,0.179,0.079,0.268l0,0l1.391,0.424l0.204-0.04c0.354-0.068,0.718,0.09,0.911,0.395l0,0
	c0.27,0.438,0.556,0.824,0.871,1.139l0,0c0.244,0.248,0.317,0.614,0.19,0.937l0,0l-0.572,1.449c0.114,0.083,0.23,0.162,0.352,0.243
	l0,0l1.439,0.423l1.018-1.109c0.218-0.239,0.553-0.336,0.867-0.255l0,0l0.41,0.105c0.327,0.083,0.578,0.356,0.638,0.69l0,0
	l0.268,1.472l1.322,0.4c0.152-0.004,0.301-0.009,0.436-0.02l0,0c0.05-0.005,0.096-0.008,0.143-0.012l0,0l0.283-1.549
	c0.063-0.335,0.314-0.604,0.645-0.687l0,0c0.388-0.102,0.767-0.246,1.146-0.426l0,0c0.345-0.166,0.761-0.086,1.02,0.194l0,0
	l0.129,0.136l0.084,0.024c0.2,0.052,0.362,0.169,0.479,0.322l0,0l0.864,0.472c0.341,0.165,0.546,0.538,0.483,0.931l0,0
	c-0.057,0.331-0.082,0.583-0.082,0.899l0,0l-0.002,0.02c0,0.298,0.021,0.582,0.063,0.857l0,0c0.036,0.248-0.036,0.508-0.2,0.699l0,0
	c-0.048,0.053-0.104,0.104-0.161,0.145l0,0l0,0l-0.604,0.429l0.647,0.196l0.088-0.018c0.357-0.068,0.717,0.093,0.907,0.399l0,0
	c0.185,0.294,0.377,0.556,0.583,0.763l0,0c0.242,0.244,0.315,0.611,0.191,0.935l0,0l-0.331,0.841
	c0.017,0.008,0.033,0.021,0.049,0.03l0,0l0.825,0.245l0.61-0.672c0.168-0.182,0.404-0.282,0.646-0.282l0,0
	C203.144,66.192,203.218,66.201,203.29,66.221L203.29,66.221z"/>
<path fill="#666666" d="M205.625,58.858l-0.066-0.052l-0.086,0.006c-0.174,0.012-0.346,0.046-0.506,0.096l-0.327,0.096l0.224,0.255
	c0.354,0.408,0.583,0.962,0.583,1.611c0,0-0.004,0.017,0,0.043c-0.021,1.163-0.755,2.169-1.694,2.49l-0.317,0.104l0.226,0.248
	c0.117,0.126,0.246,0.251,0.397,0.354l0.072,0.049l0.084-0.01c1.372-0.208,2.421-1.525,2.438-3.047l-0.005-0.014
	C206.651,60.155,206.249,59.352,205.625,58.858z"/>
<path fill="#666666" d="M208.854,46.407c0.001-0.865-0.37-1.615-0.946-2.068l-0.072-0.054l-0.082,0.007
	c-0.177,0.014-0.345,0.05-0.504,0.104l-0.309,0.097l0.206,0.25c0.306,0.365,0.5,0.856,0.504,1.428c-0.001,0.011,0,0.023,0.002,0.038
	c-0.014,1.055-0.668,1.97-1.515,2.268l-0.304,0.11l0.217,0.24c0.117,0.131,0.245,0.255,0.395,0.357l0.067,0.047l0.086-0.012
	c1.271-0.183,2.241-1.398,2.256-2.807C208.854,46.412,208.854,46.407,208.854,46.407z"/>
<path fill="#666666" d="M194.81,47.974l-0.07-0.053l-0.081,0.007c-0.185,0.014-0.345,0.056-0.496,0.092l-0.374,0.089l0.266,0.275
	c0.582,0.598,0.961,1.441,0.966,2.441c0,0.012,0,0.027,0.002,0.045c-0.021,1.763-1.165,3.272-2.629,3.672l-0.37,0.104l0.275,0.267
	c0.126,0.119,0.261,0.234,0.411,0.338l0.067,0.048l0.088-0.014c1.887-0.28,3.344-2.099,3.36-4.213l-0.003-0.003
	C196.225,49.77,195.672,48.655,194.81,47.974z"/>
<linearGradient id="SVGID_13_" gradientUnits="userSpaceOnUse" x1="201.6689" y1="47.0503" x2="203.0801" y2="47.0503">
	<stop  offset="0.0051" style="stop-color:#335E8F"/>
	<stop  offset="1" style="stop-color:#8DADBC"/>
</linearGradient>
<path fill="url(#SVGID_13_)" d="M203.06,48.174l-1.322-0.356c-0.045-0.298-0.068-0.613-0.068-0.932
	c0.001-0.342,0.032-0.632,0.087-0.959l1.324,0.35c-0.055,0.328-0.083,0.627-0.083,0.968
	C202.997,47.565,203.021,47.876,203.06,48.174z"/>
<linearGradient id="SVGID_14_" gradientUnits="userSpaceOnUse" x1="205.3633" y1="51.1748" x2="205.1597" y2="54.0426">
	<stop  offset="0" style="stop-color:#5D4098"/>
	<stop  offset="1" style="stop-color:#C6ACD2"/>
</linearGradient>
<path fill="url(#SVGID_14_)" d="M206.411,52.102l-1.329-0.348c-0.297-0.078-0.582-0.186-0.851-0.326l1.327,0.346
	C205.828,51.914,206.113,52.028,206.411,52.102z"/>
<polygon fill="#8C8E8E" points="201.203,47.75 199.163,47.216 201.105,46.75 203.148,47.284 "/>
<polygon fill="#8C8E8E" points="199.508,60.261 197.464,59.727 196.089,58.243 198.137,58.775 "/>
<polygon fill="#8C8E8E" points="198.136,44.401 196.089,43.869 197.496,42.248 199.542,42.779 "/>
<polygon fill="#8C8E8E" points="194.008,62.176 192.059,61.587 191.675,59.481 193.716,60.013 "/>
<linearGradient id="SVGID_15_" gradientUnits="userSpaceOnUse" x1="190.9873" y1="58.4019" x2="190.6746" y2="62.8064">
	<stop  offset="0" style="stop-color:#646767"/>
	<stop  offset="1" style="stop-color:#CDCECD"/>
</linearGradient>
<path fill="url(#SVGID_15_)" d="M192.598,59.827l-2.043-0.532c-0.459-0.119-0.896-0.291-1.309-0.503l2.042,0.533
	C191.7,59.54,192.139,59.71,192.598,59.827z"/>
<polygon fill="#8C8E8E" points="193.767,43.82 191.727,43.285 192.094,41.129 194.133,41.662 "/>
<path fill="#8C8E8E" d="M194.133,41.662l-2.039-0.533c0.222-0.032,0.406-0.05,0.593-0.063c0.251-0.018,0.5-0.021,0.743-0.018
	l2.077,0.512c-0.243-0.005-0.531,0.023-0.78,0.036C194.539,41.609,194.353,41.63,194.133,41.662z"/>
<polygon fill="#8C8E8E" points="188.834,60.151 186.792,59.618 187.602,57.573 189.642,58.105 "/>
<path fill="#8C8E8E" d="M189.9,60.993l-2.069-0.61c-0.385-0.239-0.719-0.489-1.039-0.765l2.042,0.533
	C189.153,60.424,189.519,60.753,189.9,60.993z"/>
<path fill="#8C8E8E" d="M191.42,44.803l-2.039-0.533c0.719-0.465,1.509-0.801,2.346-0.985l2.04,0.535
	C192.931,44.004,192.139,44.339,191.42,44.803z"/>
<path fill="#8C8E8E" d="M189.642,58.105l-2.04-0.532c-0.62-0.627-1.133-1.377-1.512-2.231l2.041,0.528
	C188.509,56.729,189.023,57.481,189.642,58.105z"/>
<polygon fill="#8C8E8E" points="185.825,54.944 183.783,54.407 185.486,53.209 187.527,53.739 "/>
<polygon fill="#8C8E8E" points="186.274,48.526 184.233,47.993 186.169,48.101 188.211,48.635 "/>
<polygon fill="#8C8E8E" points="187.549,50.853 185.51,50.321 183.819,49.395 185.861,49.928 "/>
<path fill="#8C8E8E" d="M188.211,48.635l-2.042-0.534c0.39-0.878,0.902-1.683,1.519-2.376l2.042,0.533
	C189.113,46.952,188.597,47.753,188.211,48.635z"/>
<path fill="#8C8E8E" d="M187.527,53.771l-2.04-0.547c-0.068-0.461-0.104-0.942-0.101-1.431c0.001-0.524,0.046-0.972,0.128-1.476
	l2.034,0.54c-0.079,0.504-0.123,0.961-0.126,1.486C187.421,52.837,187.453,53.313,187.527,53.771z"/>
<polygon fill="#8C8E8E" points="189.729,46.258 187.688,45.725 186.868,43.822 188.91,44.353 "/>
<path fill="#8C8E8E" d="M188.848,44.381l-1.979-0.56c0.357-0.354,0.706-0.659,1.07-0.933l2.078,0.452
	C189.653,43.616,189.205,44.025,188.848,44.381z"/>
<path fill="#8C8E8E" d="M186.2,56.368l-2.028-0.62c-0.165-0.448-0.287-0.888-0.389-1.341l2.042,0.494
	C185.925,55.358,186.038,55.917,186.2,56.368z"/>
<path fill="#8C8E8E" d="M185.853,50l-2.033-0.605c0.118-0.503,0.249-0.958,0.414-1.401l2.041,0.455
	C186.11,48.892,185.966,49.496,185.853,50z"/>
<linearGradient id="SVGID_16_" gradientUnits="userSpaceOnUse" x1="191.6875" y1="51.6299" x2="198.0615" y2="51.6299">
	<stop  offset="0" style="stop-color:#646767"/>
	<stop  offset="1" style="stop-color:#CDCECD"/>
</linearGradient>
<path fill="url(#SVGID_16_)" d="M198.062,51.61c0.003-1.723-1.018-3.102-2.415-3.465l-2.04-0.536
	c1.395,0.367,2.408,1.748,2.408,3.47c-0.019,2.096-1.525,3.897-3.391,4.031h0.003c-0.327,0.022-0.643-0.01-0.939-0.088l2.039,0.536
	c0.3,0.078,0.618,0.107,0.947,0.087l-0.004-0.001C196.531,55.509,198.046,53.706,198.062,51.61z"/>
<linearGradient id="SVGID_17_" gradientUnits="userSpaceOnUse" x1="184.335" y1="39.3159" x2="199.0836" y2="57.1852">
	<stop  offset="0.0275" style="stop-color:#FFFFFF"/>
	<stop  offset="0.3579" style="stop-color:#D2D3D4"/>
	<stop  offset="0.7892" style="stop-color:#9E9FA0"/>
	<stop  offset="1" style="stop-color:#898B8C"/>
</linearGradient>
<path fill="url(#SVGID_17_)" d="M201.727,52.677l1.688,0.96c-0.097,0.457-0.22,0.901-0.373,1.339l-1.904-0.143
	c-0.375,0.9-0.862,1.697-1.445,2.388l0.798,1.931c-0.308,0.314-0.632,0.609-0.97,0.877l-1.389-1.38
	c-0.763,0.521-1.566,0.89-2.424,1.095l-0.396,2.166c-0.228,0.031-0.453,0.059-0.685,0.076c-0.166,0.012-0.333,0.018-0.498,0.02
	l-0.345-2.095c-0.91-0.067-1.735-0.307-2.482-0.699l-1.439,1.57c-0.327-0.212-0.639-0.446-0.935-0.699l0.827-2.01
	c-0.649-0.65-1.168-1.415-1.545-2.275l-1.922,0.377c-0.138-0.39-0.259-0.796-0.351-1.216l1.694-1.162
	c-0.076-0.483-0.11-0.952-0.105-1.434c0-0.511,0.045-1.02,0.131-1.512l-1.677-0.957c0.104-0.433,0.229-0.857,0.381-1.272
	l1.913,0.143c0.396-0.925,0.92-1.735,1.54-2.432l-0.789-1.92c0.311-0.306,0.641-0.588,0.977-0.845l1.401,1.395
	c0.756-0.493,1.554-0.832,2.398-1.011l0.396-2.152c0.174-0.025,0.348-0.044,0.52-0.056c0.237-0.015,0.471-0.019,0.703-0.017
	l0.346,2.112c0.851,0.083,1.627,0.326,2.335,0.704l1.432-1.565c0.349,0.224,0.68,0.474,0.99,0.751l-0.835,2.02
	c0.592,0.617,1.067,1.321,1.42,2.115l1.929-0.381c0.153,0.415,0.281,0.848,0.378,1.292l-1.694,1.16
	c0.078,0.485,0.11,0.95,0.11,1.431C201.827,51.808,201.794,52.247,201.727,52.677z M194.656,55.745
	c1.904-0.133,3.463-1.98,3.471-4.123c0.01-2.141-1.529-3.767-3.437-3.634c-1.901,0.132-3.451,1.979-3.462,4.116
	C191.222,54.245,192.755,55.876,194.656,55.745"/>
<radialGradient id="SVGID_18_" cx="186.7412" cy="36.5366" r="22.029" gradientUnits="userSpaceOnUse">
	<stop  offset="0" style="stop-color:#FFFFFF"/>
	<stop  offset="0.1865" style="stop-color:#FAFBFB"/>
	<stop  offset="0.3923" style="stop-color:#EDEEEE"/>
	<stop  offset="0.6074" style="stop-color:#D7D8D9"/>
	<stop  offset="0.8274" style="stop-color:#B8BABC"/>
	<stop  offset="1" style="stop-color:#9B9DA0"/>
</radialGradient>
<path fill="url(#SVGID_18_)" d="M193.639,60.069c-0.832-0.074-1.598-0.296-2.295-0.647l0,0l-1.449,1.58l-0.121-0.075
	c-0.335-0.219-0.653-0.456-0.96-0.713l0,0l-0.094-0.082l0.837-2.021c-0.599-0.613-1.084-1.324-1.449-2.121l0,0l-1.932,0.378
	l-0.046-0.139c-0.145-0.393-0.265-0.802-0.358-1.234l0,0l-0.025-0.113l1.703-1.167c-0.064-0.441-0.098-0.875-0.098-1.313l0,0
	c0-0.012,0-0.027,0-0.039l0,0c0.002-0.479,0.043-0.958,0.118-1.424l0,0l-1.684-0.959l0.031-0.125
	c0.101-0.439,0.229-0.871,0.383-1.294l0,0l0.044-0.12l1.921,0.141c0.382-0.858,0.875-1.619,1.452-2.282l0,0l-0.79-1.928l0.083-0.083
	c0.312-0.309,0.646-0.597,0.99-0.856l0,0l0.116-0.091l1.409,1.403c0.703-0.444,1.447-0.756,2.232-0.937l0,0l0.399-2.16l0.123-0.021
	c0.172-0.025,0.347-0.04,0.527-0.053l0,0c0.199-0.014,0.401-0.021,0.596-0.021l0,0c0.037,0,0.079,0,0.117,0l0,0l0.143,0.003
	l0.353,2.124c0.775,0.095,1.488,0.316,2.148,0.651l0,0l1.442-1.578l0.123,0.08c0.352,0.228,0.688,0.482,1.009,0.768l0,0l0.093,0.079
	l-0.845,2.031c0.54,0.577,0.982,1.229,1.323,1.954l0,0l1.938-0.381l0.05,0.137c0.153,0.421,0.285,0.862,0.383,1.313l0,0l0.027,0.116
	l-1.704,1.162c0.064,0.441,0.098,0.867,0.098,1.307l0,0c0,0.016,0,0.03,0,0.045l0,0c0,0.414-0.033,0.82-0.091,1.221l0,0l1.697,0.967
	l-0.027,0.119c-0.098,0.465-0.225,0.917-0.377,1.362l0,0l-0.044,0.124l-1.917-0.14c-0.355,0.833-0.813,1.582-1.354,2.237l0,0
	l0.799,1.937l-0.077,0.081c-0.313,0.322-0.64,0.62-0.981,0.894l0,0l-0.122,0.096l-1.396-1.394c-0.709,0.473-1.463,0.816-2.252,1.019
	l0,0l-0.402,2.177l-0.123,0.016c-0.229,0.035-0.458,0.059-0.693,0.076l0,0c-0.17,0.013-0.341,0.018-0.511,0.02l0,0l-0.144,0.004
	L193.639,60.069L193.639,60.069z M191.382,59.059c0.727,0.387,1.527,0.618,2.417,0.678l0,0l0.133,0.012l0.343,2.083
	c0.116-0.004,0.229-0.01,0.341-0.016l0,0c0.186-0.016,0.366-0.037,0.549-0.059l0,0l0.397-2.155l0.107-0.021
	c0.829-0.205,1.618-0.564,2.365-1.072l0,0l0.117-0.083l1.379,1.375c0.266-0.215,0.517-0.444,0.759-0.687l0,0l-0.795-1.922
	l0.07-0.079c0.569-0.682,1.047-1.458,1.415-2.345l0,0l0.048-0.112l1.897,0.138c0.117-0.352,0.215-0.708,0.297-1.074l0,0
	l-1.579-0.898l-0.099-0.055l0.016-0.117c0.064-0.423,0.097-0.853,0.102-1.284l0,0c0-0.021,0-0.039,0-0.05l0,0
	c0-0.458-0.037-0.899-0.11-1.36l0,0l-0.017-0.109l1.688-1.151c-0.078-0.35-0.18-0.694-0.293-1.022l0,0l-1.922,0.379l-0.054-0.125
	c-0.345-0.773-0.811-1.463-1.387-2.063l0,0l-0.076-0.083l0.828-2.009c-0.241-0.206-0.495-0.399-0.759-0.576l0,0l-1.423,1.559
	l-0.116-0.065c-0.69-0.368-1.441-0.604-2.271-0.687l0,0l-0.128-0.017l-0.35-2.094c-0.179,0-0.361,0.005-0.542,0.016l0,0
	c-0.129,0.011-0.254,0.021-0.379,0.039l0,0l-0.399,2.145l-0.11,0.024c-0.826,0.172-1.605,0.505-2.345,0.985l0,0l-0.115,0.075
	l-1.393-1.385c-0.26,0.203-0.517,0.427-0.759,0.66l0,0l0.786,1.91l-0.074,0.083c-0.607,0.682-1.122,1.476-1.511,2.383l0,0
	l-0.049,0.112l-1.904-0.143c-0.116,0.328-0.215,0.668-0.303,1.01l0,0l1.67,0.951l-0.019,0.118c-0.085,0.482-0.13,0.984-0.134,1.492
	l0,0c0,0.006,0,0.02,0,0.032l0,0c0,0.455,0.037,0.903,0.109,1.368l0,0l0.016,0.106l-1.686,1.157
	c0.074,0.325,0.164,0.641,0.269,0.943l0,0l1.909-0.375l0.058,0.127c0.368,0.844,0.874,1.589,1.508,2.223l0,0l0.083,0.083
	l-0.829,1.999c0.231,0.188,0.465,0.364,0.708,0.526l0,0l1.43-1.562L191.382,59.059L191.382,59.059z M191.061,52.123
	c0-0.012,0-0.017,0-0.019l0,0c0.008-2.219,1.609-4.142,3.613-4.289l0,0c0.079-0.007,0.158-0.007,0.233-0.007l0,0
	c1.904,0,3.388,1.668,3.391,3.792l0,0c0,0.004,0,0.01,0,0.023l0,0c-0.013,2.22-1.62,4.143-3.629,4.292l0,0l0,0l-0.009-0.113
	l0.007,0.113c-0.077,0.004-0.153,0.004-0.226,0.004l0,0C192.541,55.919,191.063,54.251,191.061,52.123L191.061,52.123z
	 M194.704,48.156c-1.795,0.12-3.298,1.887-3.3,3.952l0,0c0,0.008,0,0.014,0,0.014v0.001c0,1.975,1.348,3.452,3.037,3.456l0,0
	c0.068,0,0.134,0,0.206-0.004l0,0v-0.002c1.794-0.12,3.301-1.888,3.31-3.951l0,0c0-0.004,0-0.012,0-0.022l0,0
	c-0.006-1.97-1.359-3.448-3.05-3.452l0,0C194.841,48.148,194.77,48.151,194.704,48.156L194.704,48.156z"/>
<linearGradient id="SVGID_19_" gradientUnits="userSpaceOnUse" x1="193.3623" y1="57.1001" x2="193.3623" y2="44.7106">
	<stop  offset="0" style="stop-color:#805F26"/>
	<stop  offset="1" style="stop-color:#E2D0AC"/>
</linearGradient>
<path fill="url(#SVGID_19_)" d="M195.902,46.924c-0.399-0.103-0.824-0.146-1.262-0.114c-2.469,0.17-4.48,2.559-4.492,5.333
	c-0.008,2.282,1.333,4.115,3.183,4.597l0.677,0.176c-1.85-0.485-3.194-2.315-3.186-4.596c0.014-2.775,2.022-5.163,4.49-5.336
	c0.44-0.031,0.862,0.01,1.264,0.116L195.902,46.924z"/>
<radialGradient id="SVGID_20_" cx="192.0547" cy="47.3921" r="10.5808" gradientUnits="userSpaceOnUse">
	<stop  offset="0.3297" style="stop-color:#EFE8B2"/>
	<stop  offset="1" style="stop-color:#D78329"/>
</radialGradient>
<path fill="url(#SVGID_20_)" d="M195.313,46.984c2.473-0.172,4.464,1.937,4.45,4.708c-0.013,2.777-2.021,5.167-4.494,5.34
	c-2.463,0.17-4.458-1.937-4.446-4.712C190.836,49.546,192.845,47.158,195.313,46.984z M195.282,54.387
	c1.166-0.083,2.12-1.212,2.127-2.527c0.004-1.316-0.94-2.313-2.106-2.23c-1.173,0.08-2.123,1.212-2.127,2.525
	C193.168,53.469,194.114,54.466,195.282,54.387"/>
<path fill="#666666" d="M203.535,48.065c-0.008-0.044-0.035-0.072-0.055-0.111c-0.024-0.231-0.048-0.465-0.048-0.709
	c0.002-0.317,0.024-0.587,0.077-0.899c0.038-0.222-0.103-0.437-0.319-0.492l-1.324-0.35c-0.119-0.032-0.246-0.011-0.349,0.055
	c-0.104,0.066-0.175,0.174-0.195,0.298c-0.054,0.339-0.09,0.659-0.09,1.028c0,0.249,0.026,0.488,0.052,0.728l-0.866,0.606
	c-0.007,0.007-0.01,0.019-0.019,0.026c-0.009,0.007-0.021,0.01-0.034,0.018c-0.025,0.027-0.038,0.063-0.057,0.096
	c-0.016,0.024-0.035,0.045-0.044,0.072c-0.021,0.055-0.021,0.114-0.018,0.174c0,0.018-0.008,0.033-0.004,0.049
	c0,0.002,0,0.004,0,0.007c0.003,0.003,0,0.005,0,0.007c0.068,0.316,0.156,0.62,0.271,0.93c0.045,0.13,0.149,0.23,0.28,0.27
	l1.321,0.405c0.044,0.011,0.084,0.018,0.128,0.018c0.116,0,0.23-0.048,0.315-0.135c0.112-0.12,0.15-0.293,0.097-0.446
	c-0.063-0.172-0.112-0.385-0.158-0.597l0.862-0.614C203.497,48.4,203.568,48.229,203.535,48.065z"/>
<path fill="#684F8D" d="M203.022,48.177l-1.318-0.357c-0.048-0.297-0.07-0.609-0.07-0.928c0.002-0.341,0.034-0.632,0.086-0.958
	l1.322,0.349c-0.055,0.329-0.083,0.627-0.083,0.967C202.959,47.569,202.981,47.878,203.022,48.177z"/>
<path fill="#684F8D" d="M207.392,40.31l-1.325-0.345c0.145-0.025,0.265-0.035,0.386-0.042c0.161-0.014,0.323-0.016,0.481-0.014
	l1.351,0.335c-0.16-0.003-0.345,0.014-0.505,0.023C207.655,40.279,207.533,40.29,207.392,40.31z"/>
<polygon fill="#684F8D" points="211.98,44.266 210.654,43.921 211.918,43.619 213.241,43.961 "/>
<polygon fill="#684F8D" points="210.878,52.388 209.551,52.042 208.661,51.079 209.984,51.424 "/>
<polygon fill="#684F8D" points="209.984,42.091 208.661,41.747 209.574,40.691 210.9,41.037 "/>
<polygon fill="#684F8D" points="207.31,53.633 206.044,53.249 205.794,51.884 207.119,52.228 "/>
<linearGradient id="SVGID_21_" gradientUnits="userSpaceOnUse" x1="205.3457" y1="51.1792" x2="205.1419" y2="54.0497">
	<stop  offset="0" style="stop-color:#5D4098"/>
	<stop  offset="1" style="stop-color:#C6ACD2"/>
</linearGradient>
<path fill="url(#SVGID_21_)" d="M206.393,52.108l-1.326-0.348c-0.296-0.078-0.58-0.185-0.851-0.326l1.324,0.346
	C205.811,51.918,206.096,52.03,206.393,52.108z"/>
<polygon fill="#684F8D" points="207.153,41.712 205.828,41.364 206.066,39.965 207.392,40.31 "/>
<polygon fill="#684F8D" points="203.948,52.317 202.625,51.971 203.148,50.643 204.475,50.989 "/>
<path fill="#684F8D" d="M204.643,52.866l-1.346-0.399c-0.248-0.154-0.468-0.316-0.672-0.496l1.323,0.346
	C204.155,52.495,204.393,52.71,204.643,52.866z"/>
<path fill="#684F8D" d="M205.629,42.352l-1.326-0.345c0.469-0.303,0.984-0.525,1.525-0.643l1.325,0.348
	C206.61,41.834,206.096,42.052,205.629,42.352z"/>
<path fill="#684F8D" d="M204.475,50.989l-1.326-0.346c-0.402-0.407-0.738-0.892-0.982-1.451l1.327,0.346
	C203.738,50.095,204.071,50.585,204.475,50.989z"/>
<polygon fill="#684F8D" points="201.996,48.937 200.667,48.588 201.772,47.812 203.097,48.156 "/>
<polygon fill="#684F8D" points="202.286,44.771 200.956,44.423 202.219,44.495 203.543,44.839 "/>
<polygon fill="#684F8D" points="203.114,46.282 201.79,45.937 200.688,45.333 202.022,45.683 "/>
<path fill="#684F8D" d="M203.543,44.839l-1.324-0.345c0.25-0.572,0.584-1.097,0.985-1.543l1.325,0.344
	C204.13,43.747,203.794,44.268,203.543,44.839z"/>
<polygon fill="#684F8D" points="204.529,43.295 203.204,42.951 202.672,41.714 203.999,42.061 "/>
<path fill="#684F8D" d="M203.956,42.078l-1.284-0.363c0.232-0.232,0.46-0.427,0.697-0.606l1.35,0.292
	C204.481,41.581,204.189,41.849,203.956,42.078z"/>
<path fill="#684F8D" d="M202.236,49.861l-1.317-0.401c-0.107-0.295-0.188-0.577-0.252-0.872l1.329,0.322
	C202.061,49.203,202.133,49.567,202.236,49.861z"/>
<path fill="#684F8D" d="M202.014,45.728l-1.325-0.395c0.078-0.327,0.165-0.622,0.268-0.91l1.33,0.297
	C202.182,45.006,202.088,45.4,202.014,45.728z"/>
<linearGradient id="SVGID_22_" gradientUnits="userSpaceOnUse" x1="205.8018" y1="46.7852" x2="209.9385" y2="46.7852">
	<stop  offset="0" style="stop-color:#442871"/>
	<stop  offset="1" style="stop-color:#A996BF"/>
</linearGradient>
<path fill="url(#SVGID_22_)" d="M209.938,46.771c0-1.116-0.657-2.012-1.563-2.249l-1.328-0.346c0.909,0.236,1.567,1.132,1.564,2.253
	c-0.009,1.36-0.99,2.526-2.2,2.61v0.002c-0.212,0.017-0.415-0.003-0.609-0.055l1.323,0.346c0.196,0.052,0.403,0.07,0.62,0.057
	h-0.005C208.947,49.3,209.928,48.134,209.938,46.771z"/>
<linearGradient id="SVGID_23_" gradientUnits="userSpaceOnUse" x1="212.75" y1="53.6592" x2="205.5701" y2="44.0017">
	<stop  offset="0" style="stop-color:#442871"/>
	<stop  offset="1" style="stop-color:#CCBFD7"/>
</linearGradient>
<path fill="url(#SVGID_23_)" d="M212.324,47.466l1.092,0.625c-0.064,0.294-0.142,0.585-0.243,0.865l-1.236-0.088
	c-0.245,0.582-0.559,1.1-0.935,1.548l0.514,1.255c-0.2,0.205-0.41,0.396-0.629,0.569l-0.903-0.897
	c-0.489,0.338-1.015,0.576-1.572,0.711l-0.256,1.407c-0.146,0.024-0.293,0.04-0.44,0.05c-0.111,0.006-0.221,0.009-0.328,0.012
	l-0.223-1.36c-0.589-0.042-1.127-0.199-1.611-0.454l-0.934,1.018c-0.213-0.133-0.416-0.287-0.611-0.452l0.537-1.307
	c-0.42-0.424-0.756-0.916-1.002-1.477l-1.248,0.245c-0.089-0.254-0.167-0.518-0.228-0.789l1.101-0.753
	c-0.047-0.314-0.071-0.618-0.071-0.93c0.002-0.333,0.031-0.664,0.087-0.984l-1.088-0.621c0.068-0.284,0.148-0.558,0.247-0.826
	l1.243,0.09c0.259-0.599,0.598-1.124,1.002-1.574l-0.515-1.249c0.202-0.198,0.415-0.384,0.636-0.552l0.908,0.908
	c0.492-0.316,1.013-0.537,1.56-0.656l0.259-1.399c0.113-0.016,0.224-0.029,0.335-0.036c0.155-0.011,0.306-0.014,0.454-0.014
	l0.229,1.376c0.549,0.055,1.054,0.214,1.512,0.458l0.93-1.019c0.225,0.144,0.44,0.307,0.642,0.488l-0.542,1.313
	c0.386,0.399,0.692,0.858,0.924,1.371l1.253-0.248c0.1,0.27,0.183,0.553,0.244,0.843l-1.102,0.75
	c0.051,0.315,0.073,0.617,0.072,0.93C212.387,46.9,212.362,47.188,212.324,47.466z M207.731,49.456
	c1.236-0.088,2.243-1.284,2.248-2.674c0.005-1.388-0.99-2.449-2.227-2.362c-1.235,0.087-2.242,1.283-2.246,2.674
	C205.498,48.483,206.496,49.542,207.731,49.456"/>
<linearGradient id="SVGID_24_" gradientUnits="userSpaceOnUse" x1="208.5654" y1="48.4751" x2="205.6833" y2="43.0649">
	<stop  offset="0" style="stop-color:#7D5F9C"/>
	<stop  offset="1" style="stop-color:#FFFFFF"/>
</linearGradient>
<path fill="url(#SVGID_24_)" d="M207.07,52.266c-0.541-0.048-1.039-0.196-1.493-0.422l0,0l-0.94,1.026l-0.078-0.052
	c-0.217-0.137-0.424-0.291-0.62-0.46l0,0l-0.063-0.053l0.542-1.315c-0.387-0.397-0.704-0.861-0.94-1.374l0,0l-1.253,0.245
	l-0.03-0.091c-0.094-0.255-0.171-0.525-0.232-0.801l0,0l-0.018-0.072l1.105-0.759c-0.04-0.286-0.062-0.565-0.062-0.851l0,0
	c0-0.008,0-0.018,0-0.024l0,0c0-0.315,0.025-0.625,0.073-0.927l0,0l-1.089-0.622l0.018-0.081c0.068-0.286,0.151-0.565,0.247-0.84
	l0,0l0.029-0.078l1.25,0.092c0.25-0.557,0.567-1.052,0.941-1.482l0,0l-0.515-1.253l0.055-0.052c0.205-0.199,0.42-0.389,0.643-0.56
	l0,0l0.079-0.059l0.916,0.913c0.456-0.284,0.938-0.49,1.446-0.607l0,0l0.26-1.407l0.078-0.01c0.114-0.018,0.23-0.029,0.347-0.038
	l0,0c0.128-0.009,0.259-0.011,0.386-0.011l0,0c0.022,0,0.049,0,0.076,0l0,0l0.094,0.002l0.225,1.379
	c0.508,0.061,0.97,0.21,1.393,0.425l0,0l0.939-1.028l0.077,0.053c0.229,0.145,0.45,0.314,0.658,0.498l0,0l0.057,0.051l-0.544,1.32
	c0.352,0.374,0.636,0.797,0.854,1.27l0,0l1.261-0.25l0.033,0.091c0.102,0.272,0.187,0.561,0.252,0.854l0,0l0.017,0.074l-1.108,0.755
	c0.041,0.288,0.063,0.564,0.063,0.849l0,0c0,0.01,0,0.015,0,0.028l0,0c-0.001,0.269-0.019,0.535-0.059,0.793l0,0l1.104,0.626
	l-0.017,0.081c-0.065,0.298-0.148,0.591-0.247,0.88l0,0l-0.03,0.08l-1.241-0.09c-0.233,0.541-0.53,1.028-0.882,1.451l0,0
	l0.521,1.259l-0.052,0.054c-0.2,0.211-0.417,0.402-0.64,0.578l0,0l-0.077,0.063l-0.907-0.903c-0.459,0.306-0.946,0.526-1.461,0.659
	l0,0l-0.259,1.415l-0.079,0.01c-0.15,0.024-0.299,0.042-0.451,0.05l0,0c-0.112,0.008-0.222,0.014-0.332,0.014l0,0l-0.094,0
	L207.07,52.266L207.07,52.266z M205.604,51.61c0.472,0.248,0.99,0.399,1.568,0.444l0,0l0.088,0.002l0.222,1.352
	c0.075,0,0.15-0.003,0.224-0.008l0,0c0.119-0.009,0.238-0.019,0.354-0.035l0,0l0.257-1.401l0.072-0.016
	c0.541-0.132,1.051-0.368,1.53-0.697l0,0l0.078-0.048l0.898,0.888c0.169-0.141,0.334-0.291,0.489-0.447l0,0l-0.514-1.248
	l0.042-0.049c0.37-0.441,0.682-0.95,0.919-1.521l0,0l0.032-0.078l1.232,0.091c0.076-0.226,0.14-0.457,0.195-0.693l0,0l-1.026-0.583
	l-0.065-0.04l0.012-0.071c0.04-0.277,0.064-0.559,0.064-0.835l0,0c0-0.017,0-0.027,0-0.032l0,0c0-0.297-0.024-0.585-0.072-0.888l0,0
	l-0.01-0.064l1.098-0.751c-0.055-0.229-0.119-0.449-0.194-0.665l0,0l-1.247,0.248l-0.034-0.081
	c-0.224-0.507-0.525-0.951-0.899-1.343l0,0l-0.052-0.052l0.543-1.305c-0.16-0.137-0.323-0.26-0.495-0.375l0,0l-0.926,1.014
	l-0.075-0.041c-0.444-0.236-0.931-0.392-1.472-0.447l0,0l-0.085-0.008l-0.225-1.365c-0.116,0-0.233,0.004-0.352,0.01l0,0
	c-0.082,0.008-0.167,0.013-0.251,0.027l0,0l-0.255,1.395l-0.072,0.016c-0.537,0.109-1.045,0.327-1.523,0.637l0,0l-0.074,0.05
	l-0.907-0.901c-0.167,0.136-0.332,0.278-0.49,0.432l0,0l0.51,1.238l-0.047,0.053c-0.397,0.445-0.729,0.96-0.981,1.549l0,0
	l-0.029,0.074l-1.241-0.091c-0.074,0.211-0.14,0.431-0.193,0.655l0,0l1.083,0.617l-0.013,0.079
	c-0.055,0.313-0.085,0.636-0.087,0.966l0,0c0,0.004,0,0.014,0,0.021l0,0c0,0.297,0.025,0.587,0.072,0.89l0,0l0.009,0.066
	l-1.095,0.75c0.045,0.21,0.108,0.415,0.175,0.613l0,0l1.24-0.245l0.037,0.084c0.241,0.547,0.57,1.03,0.98,1.443l0,0l0.052,0.053
	l-0.534,1.298c0.146,0.123,0.298,0.24,0.458,0.345l0,0l0.93-1.016L205.604,51.61L205.604,51.61z M205.394,47.104
	c0-0.004,0-0.01,0-0.01l0,0c0.007-1.444,1.047-2.691,2.352-2.785l0,0c0.05-0.005,0.1-0.005,0.148-0.008l0,0
	c1.239,0.003,2.196,1.086,2.198,2.467l0,0c0,0.001,0,0.006,0,0.014l0,0c-0.006,1.442-1.047,2.688-2.353,2.783l0,0l0,0l-0.005-0.07
	l0.005,0.07c-0.053,0.004-0.103,0.004-0.149,0.004l0,0C206.355,49.569,205.396,48.487,205.394,47.104L205.394,47.104z
	 M207.759,44.531c-1.165,0.079-2.138,1.225-2.142,2.563l0,0c0,0.009,0,0.01,0,0.01l0,0c0,1.283,0.878,2.238,1.973,2.243l0,0
	c0.045,0,0.09-0.001,0.133-0.005l0,0l0,0c1.167-0.079,2.142-1.223,2.146-2.561l0,0c0-0.004,0-0.01,0-0.014l0,0
	c-0.002-1.279-0.88-2.242-1.976-2.243l0,0C207.85,44.525,207.804,44.526,207.759,44.531L207.759,44.531z"/>
<linearGradient id="SVGID_25_" gradientUnits="userSpaceOnUse" x1="206.8906" y1="50.2993" x2="206.8906" y2="42.2543">
	<stop  offset="0" style="stop-color:#805F26"/>
	<stop  offset="1" style="stop-color:#E2D0AC"/>
</linearGradient>
<path fill="url(#SVGID_25_)" d="M208.539,43.692c-0.26-0.069-0.535-0.096-0.818-0.074c-1.603,0.109-2.911,1.662-2.916,3.464
	c-0.007,1.478,0.866,2.669,2.064,2.98l0.44,0.118c-1.203-0.314-2.074-1.504-2.067-2.981c0.008-1.806,1.313-3.358,2.914-3.467
	c0.288-0.021,0.561,0.006,0.821,0.075L208.539,43.692z"/>
<radialGradient id="SVGID_26_" cx="206.042" cy="43.9971" r="6.8679" gradientUnits="userSpaceOnUse">
	<stop  offset="0.3297" style="stop-color:#EFE8B2"/>
	<stop  offset="1" style="stop-color:#D78329"/>
</radialGradient>
<path fill="url(#SVGID_26_)" d="M208.156,43.732c1.602-0.113,2.896,1.255,2.889,3.058c-0.008,1.802-1.313,3.35-2.917,3.465
	c-1.602,0.111-2.895-1.257-2.886-3.056C205.25,45.394,206.555,43.841,208.156,43.732z M208.138,48.539
	c0.756-0.055,1.374-0.788,1.378-1.642c0.006-0.854-0.606-1.503-1.364-1.45c-0.76,0.055-1.377,0.79-1.383,1.642
	C206.764,47.943,207.38,48.592,208.138,48.539"/>
<path fill="#666666" d="M202.598,55.511c-0.036-0.167-0.167-0.298-0.332-0.333l-1.474-0.322c-0.124-0.026-0.256,0.003-0.356,0.079
	c-0.275,0.208-0.54,0.436-0.808,0.706c-0.127,0.126-0.163,0.318-0.091,0.481l0.476,1.101c-0.364,0.441-0.667,0.939-0.911,1.469
	l-0.944-0.209c-0.216-0.047-0.437,0.07-0.509,0.28c-0.118,0.333-0.218,0.668-0.305,1.042c-0.057,0.226,0.076,0.456,0.301,0.52
	l1.448,0.429c0.038,0.013,0.08,0.02,0.121,0.02c0.077,0,0.155-0.022,0.224-0.062c0.104-0.063,0.179-0.164,0.206-0.281
	c0.061-0.287,0.145-0.617,0.226-0.879l0.912,0.237c0.036,0.01,0.072,0.014,0.107,0.014c0.17,0,0.33-0.099,0.402-0.259
	c0.257-0.583,0.598-1.117,1.004-1.575c0.114-0.126,0.142-0.307,0.077-0.463l-0.473-1.093c0.184-0.17,0.38-0.34,0.537-0.458
	C202.572,55.85,202.639,55.68,202.598,55.511z"/>
<path fill="#397DA5" d="M205.081,54.413l-1.445-0.379c0.155-0.021,0.286-0.033,0.422-0.044c0.176-0.012,0.354-0.014,0.526-0.012
	l1.473,0.363c-0.173-0.003-0.379,0.014-0.555,0.024C205.369,54.376,205.238,54.389,205.081,54.413z"/>
<polygon fill="#397DA5" points="210.084,58.725 208.642,58.35 210.02,58.016 211.462,58.397 "/>
<polygon fill="#397DA5" points="208.885,67.587 207.439,67.208 206.466,66.155 207.914,66.531 "/>
<polygon fill="#397DA5" points="207.914,56.354 206.466,55.979 207.463,54.827 208.907,55.203 "/>
<polygon fill="#397DA5" points="204.991,68.941 203.611,68.523 203.34,67.033 204.785,67.412 "/>
<linearGradient id="SVGID_27_" gradientUnits="userSpaceOnUse" x1="202.8516" y1="66.2734" x2="202.6314" y2="69.3739">
	<stop  offset="0" style="stop-color:#646767"/>
	<stop  offset="1" style="stop-color:#CDCECD"/>
</linearGradient>
<path fill="url(#SVGID_27_)" d="M203.992,67.277l-1.446-0.375c-0.322-0.086-0.633-0.203-0.926-0.354l1.444,0.372
	C203.358,67.077,203.67,67.195,203.992,67.277z"/>
<polygon fill="#397DA5" points="204.82,55.942 203.377,55.561 203.636,54.034 205.081,54.413 "/>
<polygon fill="#397DA5" points="201.329,67.506 199.883,67.131 200.451,65.684 201.902,66.062 "/>
<path fill="#397DA5" d="M202.082,68.106l-1.468-0.433c-0.271-0.172-0.508-0.349-0.731-0.543l1.446,0.375
	C201.551,67.704,201.813,67.935,202.082,68.106z"/>
<path fill="#397DA5" d="M203.157,56.639l-1.444-0.377c0.511-0.331,1.071-0.567,1.664-0.701l1.443,0.381
	C204.23,56.073,203.67,56.312,203.157,56.639z"/>
<path fill="#397DA5" d="M201.902,66.062l-1.451-0.378c-0.438-0.443-0.803-0.979-1.067-1.585l1.446,0.379
	C201.097,65.082,201.46,65.618,201.902,66.062z"/>
<polygon fill="#397DA5" points="199.199,63.818 197.746,63.443 198.955,62.592 200.399,62.968 "/>
<polygon fill="#397DA5" points="199.514,59.278 198.064,58.897 199.44,58.975 200.887,59.354 "/>
<polygon fill="#397DA5" points="200.419,60.925 198.973,60.548 197.771,59.894 199.224,60.272 "/>
<path fill="#397DA5" d="M200.887,59.354l-1.446-0.378c0.272-0.625,0.637-1.193,1.075-1.684l1.446,0.379
	C201.523,58.162,201.159,58.731,200.887,59.354z"/>
<path fill="#397DA5" d="M200.399,62.992l-1.443-0.393c-0.048-0.324-0.073-0.662-0.072-1.01c0-0.373,0.035-0.687,0.094-1.045
	l1.441,0.38c-0.058,0.358-0.092,0.682-0.092,1.056C200.327,62.329,200.351,62.666,200.399,62.992z"/>
<polygon fill="#397DA5" points="201.962,57.67 200.516,57.292 199.935,55.944 201.381,56.321 "/>
<path fill="#397DA5" d="M201.336,56.337l-1.401-0.393c0.253-0.254,0.501-0.469,0.76-0.662l1.472,0.32
	C201.907,55.797,201.589,56.091,201.336,56.337z"/>
<path fill="#397DA5" d="M199.459,64.826l-1.438-0.439c-0.117-0.318-0.203-0.625-0.274-0.943l1.453,0.348
	C199.267,64.109,199.344,64.51,199.459,64.826z"/>
<path fill="#397DA5" d="M199.215,60.321l-1.443-0.427c0.085-0.359,0.179-0.679,0.293-0.996l1.449,0.326
	C199.397,59.535,199.296,59.963,199.215,60.321z"/>
<linearGradient id="SVGID_28_" gradientUnits="userSpaceOnUse" x1="203.3486" y1="61.4727" x2="207.8584" y2="61.4727">
	<stop  offset="0" style="stop-color:#025386"/>
	<stop  offset="1" style="stop-color:#83B5CE"/>
</linearGradient>
<path fill="url(#SVGID_28_)" d="M207.858,61.461c0.004-1.218-0.716-2.195-1.706-2.457l-1.446-0.378
	c0.991,0.262,1.71,1.236,1.705,2.458c-0.009,1.482-1.082,2.758-2.398,2.854h0.004c-0.234,0.018-0.458-0.007-0.668-0.061l1.444,0.375
	c0.215,0.055,0.438,0.081,0.674,0.063l-0.004-0.002C206.779,64.216,207.849,62.943,207.858,61.461z"/>
<linearGradient id="SVGID_29_" gradientUnits="userSpaceOnUse" x1="210.9268" y1="68.9727" x2="203.0958" y2="58.4395">
	<stop  offset="0" style="stop-color:#025386"/>
	<stop  offset="1" style="stop-color:#A3D7F4"/>
</linearGradient>
<path fill="url(#SVGID_29_)" d="M210.459,62.219l1.197,0.678c-0.072,0.32-0.16,0.636-0.269,0.948l-1.349-0.1
	c-0.266,0.637-0.61,1.201-1.023,1.689l0.564,1.367c-0.217,0.222-0.446,0.434-0.687,0.623l-0.983-0.98
	c-0.537,0.368-1.108,0.633-1.713,0.777l-0.283,1.53c-0.158,0.026-0.319,0.044-0.479,0.058c-0.12,0.007-0.24,0.01-0.356,0.014
	l-0.244-1.484c-0.642-0.05-1.227-0.213-1.758-0.496l-1.019,1.113c-0.23-0.148-0.453-0.314-0.667-0.49l0.589-1.431
	c-0.462-0.461-0.826-0.999-1.093-1.611l-1.36,0.268c-0.1-0.278-0.185-0.564-0.251-0.859l1.201-0.824
	c-0.055-0.342-0.077-0.672-0.077-1.01c0.002-0.365,0.031-0.729,0.096-1.076l-1.19-0.675c0.075-0.309,0.163-0.611,0.269-0.904
	l1.354,0.101c0.286-0.652,0.654-1.227,1.095-1.722l-0.56-1.358c0.22-0.217,0.453-0.418,0.694-0.603l0.991,0.99
	c0.537-0.348,1.102-0.592,1.701-0.715l0.282-1.529c0.118-0.018,0.242-0.031,0.362-0.038c0.168-0.012,0.333-0.017,0.496-0.015
	l0.25,1.498c0.601,0.067,1.148,0.234,1.647,0.502l1.018-1.114c0.243,0.162,0.479,0.334,0.699,0.534l-0.591,1.431
	c0.417,0.438,0.754,0.939,1.006,1.499l1.365-0.271c0.11,0.292,0.2,0.602,0.271,0.918l-1.203,0.819
	c0.054,0.343,0.078,0.674,0.077,1.013C210.53,61.6,210.505,61.912,210.459,62.219z M205.455,64.387
	c1.345-0.094,2.443-1.402,2.452-2.915c0.007-1.516-1.083-2.67-2.433-2.576c-1.345,0.093-2.445,1.4-2.452,2.913
	C203.018,63.324,204.105,64.481,205.455,64.387"/>
<linearGradient id="SVGID_30_" gradientUnits="userSpaceOnUse" x1="206.3643" y1="63.3184" x2="203.2207" y2="57.4173">
	<stop  offset="0" style="stop-color:#5387AC"/>
	<stop  offset="1" style="stop-color:#FFFFFF"/>
</linearGradient>
<path fill="url(#SVGID_30_)" d="M204.732,67.452c-0.591-0.054-1.133-0.209-1.628-0.461l0,0l-1.026,1.123l-0.086-0.056
	c-0.237-0.154-0.462-0.322-0.678-0.506l0,0l-0.068-0.059l0.591-1.433c-0.422-0.434-0.765-0.938-1.024-1.498l0,0l-1.364,0.263
	l-0.039-0.096c-0.1-0.28-0.184-0.572-0.25-0.875l0,0l-0.018-0.082l1.204-0.824c-0.047-0.309-0.07-0.613-0.07-0.927l0,0
	c0-0.009,0-0.022,0-0.027l0,0c0.005-0.341,0.033-0.681,0.086-1.01l0,0l-1.192-0.677l0.021-0.089c0.072-0.315,0.163-0.62,0.27-0.916
	l0,0l0.033-0.089l1.363,0.101c0.271-0.604,0.618-1.148,1.027-1.615l0,0l-0.561-1.363l0.055-0.061
	c0.226-0.219,0.46-0.422,0.704-0.609l0,0l0.085-0.064l1,0.994c0.497-0.309,1.022-0.531,1.575-0.665l0,0l0.288-1.531l0.084-0.013
	c0.125-0.018,0.251-0.03,0.375-0.04l0,0c0.143-0.01,0.284-0.012,0.423-0.012l0,0c0.021,0,0.054,0,0.082,0l0,0l0.103,0.002
	l0.248,1.506c0.551,0.065,1.054,0.227,1.519,0.464l0,0l1.022-1.124l0.084,0.057c0.251,0.164,0.488,0.343,0.719,0.545l0,0
	l0.062,0.057l-0.595,1.439c0.383,0.408,0.696,0.87,0.936,1.384l0,0l1.372-0.269l0.038,0.095c0.108,0.3,0.199,0.612,0.271,0.934l0,0
	l0.017,0.081l-1.206,0.821c0.047,0.314,0.069,0.615,0.069,0.927l0,0c0,0.011,0,0.021,0,0.03l0,0c0,0.293-0.021,0.582-0.062,0.868
	l0,0l1.201,0.684l-0.02,0.086c-0.072,0.323-0.158,0.644-0.27,0.963l0,0l-0.028,0.087l-1.355-0.101
	c-0.258,0.587-0.577,1.116-0.964,1.581l0,0l0.567,1.377l-0.056,0.055c-0.222,0.228-0.452,0.44-0.697,0.631l0,0l-0.084,0.071
	l-0.99-0.987c-0.5,0.333-1.031,0.574-1.594,0.722l0,0l-0.282,1.543l-0.088,0.011c-0.161,0.021-0.325,0.044-0.491,0.053l0,0
	c-0.12,0.009-0.24,0.013-0.359,0.014l0,0h-0.104L204.732,67.452L204.732,67.452z M203.135,66.733
	c0.512,0.275,1.078,0.438,1.709,0.483l0,0l0.094,0.009l0.242,1.471c0.083,0,0.164-0.003,0.242-0.011l0,0
	c0.134-0.01,0.263-0.023,0.392-0.038l0,0l0.277-1.528l0.079-0.018c0.589-0.141,1.143-0.396,1.672-0.756l0,0l0.082-0.057l0.979,0.971
	c0.186-0.151,0.362-0.313,0.534-0.485l0,0l-0.562-1.363l0.051-0.059c0.403-0.478,0.74-1.029,1.002-1.655l0,0l0.032-0.082
	l1.346,0.102c0.082-0.25,0.151-0.502,0.21-0.76l0,0l-1.116-0.637l-0.072-0.041l0.012-0.08c0.045-0.301,0.068-0.604,0.071-0.91l0,0
	c0-0.016,0-0.027,0-0.034l0,0c0-0.323-0.026-0.637-0.078-0.964l0,0l-0.012-0.076l1.195-0.819c-0.056-0.244-0.128-0.487-0.209-0.722
	l0,0l-1.36,0.27l-0.039-0.09c-0.243-0.549-0.571-1.035-0.981-1.46l0,0l-0.055-0.058l0.592-1.422c-0.174-0.15-0.354-0.284-0.54-0.412
	l0,0l-1.009,1.104l-0.083-0.043c-0.485-0.26-1.018-0.425-1.604-0.486l0,0l-0.095-0.008l-0.242-1.49
	c-0.128,0-0.255,0.004-0.385,0.012l0,0c-0.091,0.008-0.183,0.016-0.273,0.029l0,0l-0.28,1.521l-0.079,0.019
	c-0.582,0.12-1.134,0.357-1.658,0.697l0,0l-0.085,0.05l-0.985-0.98c-0.182,0.149-0.365,0.302-0.537,0.47l0,0l0.56,1.352
	l-0.053,0.059c-0.431,0.482-0.796,1.047-1.071,1.689l0,0l-0.034,0.077l-1.35-0.099c-0.08,0.232-0.151,0.472-0.21,0.715l0,0
	l1.179,0.67l-0.013,0.086c-0.062,0.342-0.092,0.694-0.096,1.055l0,0c0,0.004,0,0.016,0,0.024l0,0c0,0.32,0.027,0.639,0.077,0.968
	l0,0l0.013,0.074l-1.197,0.821c0.054,0.224,0.119,0.447,0.191,0.665l0,0l1.356-0.266l0.036,0.089c0.262,0.6,0.621,1.123,1.07,1.575
	l0,0l0.059,0.059l-0.589,1.417c0.164,0.135,0.331,0.259,0.505,0.372l0,0l1.011-1.107L203.135,66.733L203.135,66.733z
	 M202.904,61.824c0-0.008,0-0.01,0-0.016l0,0c0.007-1.57,1.141-2.931,2.563-3.034l0,0c0.056-0.008,0.109-0.008,0.161-0.008l0,0
	c1.353,0,2.396,1.183,2.399,2.687l0,0c0,0.005,0,0.01,0,0.019l0,0c-0.007,1.571-1.143,2.929-2.566,3.034l0,0v0.004l-0.005-0.082
	l0.005,0.078c-0.059,0.007-0.111,0.007-0.162,0.007l0,0C203.951,64.513,202.906,63.331,202.904,61.824L202.904,61.824z
	 M205.486,59.016c-1.273,0.085-2.334,1.334-2.341,2.798l0,0c0,0.005,0,0.01,0,0.01l0,0c0.003,1.396,0.958,2.444,2.153,2.444l0,0
	c0.047,0,0.097,0,0.144-0.004l0,0l0,0c1.274-0.089,2.337-1.335,2.341-2.793l0,0c0-0.007,0-0.011,0-0.019l0,0
	c0-1.395-0.956-2.442-2.155-2.444l0,0C205.583,59.009,205.533,59.011,205.486,59.016L205.486,59.016z"/>
<linearGradient id="SVGID_31_" gradientUnits="userSpaceOnUse" x1="204.5342" y1="65.3477" x2="204.5342" y2="56.5738">
	<stop  offset="0" style="stop-color:#805F26"/>
	<stop  offset="1" style="stop-color:#E2D0AC"/>
</linearGradient>
<path fill="url(#SVGID_31_)" d="M206.332,58.142c-0.281-0.076-0.583-0.105-0.893-0.081c-1.747,0.122-3.171,1.814-3.182,3.777
	c-0.006,1.615,0.944,2.91,2.258,3.253l0.476,0.127c-1.312-0.343-2.262-1.638-2.255-3.252c0.01-1.967,1.435-3.659,3.181-3.781
	c0.312-0.02,0.612,0.007,0.894,0.084L206.332,58.142z"/>
<radialGradient id="SVGID_32_" cx="203.6094" cy="58.4727" r="7.4913" gradientUnits="userSpaceOnUse">
	<stop  offset="0.3297" style="stop-color:#EFE8B2"/>
	<stop  offset="1" style="stop-color:#D78329"/>
</radialGradient>
<path fill="url(#SVGID_32_)" d="M205.917,58.185c1.746-0.124,3.154,1.373,3.15,3.337c-0.011,1.961-1.433,3.652-3.184,3.776
	c-1.745,0.12-3.157-1.367-3.147-3.332C202.746,59.999,204.171,58.307,205.917,58.185z M205.896,63.426
	c0.824-0.061,1.498-0.859,1.504-1.789c0.005-0.931-0.663-1.638-1.49-1.579c-0.829,0.056-1.504,0.857-1.51,1.791
	C204.398,62.78,205.066,63.482,205.896,63.426"/>
</g>

</svg>
