<?xml version="1.0" encoding="utf-8"?>
<!DOCTYPE svg PUBLIC "-//W3C//DTD SVG 1.0//EN" "http://www.w3.org/TR/2001/REC-SVG-20010904/DTD/svg10.dtd" [
<!ENTITY ns_svg "http://www.w3.org/2000/svg">
<!ENTITY ns_xlink "http://www.w3.org/1999/xlink">
]>
<svg xmlns="&ns_svg;" xmlns:xlink="&ns_xlink;" width="240" height="120" viewBox="0 0 240 120" overflow="visible" enable-background="new 0 0 240 120" xml:space="preserve">

<g id="Layer_1">

<defs>
</defs>
<path id="Background_1_" fill="none" d="M240,110c0,5.523-4.478,10-10,10H10c-5.523,0-10-4.477-10-10V10C0,4.477,4.477,0,10,0h220
	c5.522,0,10,4.477,10,10V110z"/>
<path fill="#262626" d="M150.35,40.225l-2.813-0.732c-0.213-0.058-0.422-0.078-0.643-0.06l-0.881,0.064l0.008-2.065
	c0.012-0.083,0.018-0.168,0.018-0.254v-3.344c0-0.902-0.606-1.688-1.479-1.916l-2.809-0.732c-0.213-0.058-0.427-0.075-0.645-0.06
	l-4.561,0.331c-1.207-2.543-2.843-4.91-4.901-6.97v-0.001c-0.001,0-0.001,0-0.002-0.001c0,0,0,0-0.001-0.001
	c-4.811-4.807-11.373-7.455-18.078-7.457c-1.406,0-2.818,0.119-4.215,0.358c-11.515,1.974-20.352,11.8-21.123,23.446
	c-0.037,0.533-0.053,1.072-0.053,1.602c0.01,10.054,6.076,19.291,15.22,23.345l-0.001,0.165c-0.004,0.752,0.416,1.438,1.089,1.776
	l1.452,0.734c0.277,0.141,0.586,0.213,0.897,0.213c0.044,0,0.089-0.001,0.134-0.004l2.241-0.156l-0.024,5.741
	c-0.003,0.752,0.417,1.438,1.088,1.777l1.457,0.734c0.276,0.142,0.584,0.214,0.896,0.214c0.044,0,0.089-0.001,0.134-0.004
	l37.1-2.597c1.035-0.072,1.837-0.931,1.841-1.969l0.118-26.684c0.009-0.078,0.014-0.157,0.014-0.238v-3.342
	C151.827,41.237,151.221,40.451,150.35,40.225z"/>
<radialGradient id="SVGID_1_" cx="210.1035" cy="-743.4907" r="23.4556" fx="209.2961" fy="-766.2432" gradientTransform="matrix(0.7071 -0.7071 0.7071 0.7071 490.8244 716.7756)" gradientUnits="userSpaceOnUse">
	<stop  offset="0" style="stop-color:#85B6CD"/>
	<stop  offset="0.4586" style="stop-color:#2D9ACD"/>
	<stop  offset="1" style="stop-color:#044C80"/>
</radialGradient>
<path fill="url(#SVGID_1_)" d="M130.244,25.886c7.516,7.516,9.019,19.527,3.556,28.655c-5.503,9.191-16.872,13.545-27.105,10.388
	c-10.263-3.167-17.184-13.263-16.491-23.968c0.694-10.71,8.89-19.822,19.478-21.623C117.136,18.071,124.896,20.538,130.244,25.886"
	/>
<linearGradient id="SVGID_2_" gradientUnits="userSpaceOnUse" x1="69.0503" y1="14.6665" x2="163.4515" y2="79.5542">
	<stop  offset="0.1044" style="stop-color:#FFFFFF"/>
	<stop  offset="0.2039" style="stop-color:#F1FBFE"/>
	<stop  offset="0.3906" style="stop-color:#CDF0FB"/>
	<stop  offset="0.4231" style="stop-color:#C6EEFB"/>
	<stop  offset="0.6633" style="stop-color:#E9F9FD"/>
	<stop  offset="0.8407" style="stop-color:#FFFFFF"/>
</linearGradient>
<path fill="url(#SVGID_2_)" d="M104.677,38.246c-1.19-0.137-2.08-0.11-2.032,0.419c0.755,0.565,1.508,0.437,2.261,0.419
	C104.422,38.717,104.311,38.43,104.677,38.246z"/>
<linearGradient id="SVGID_3_" gradientUnits="userSpaceOnUse" x1="68.9385" y1="13.5898" x2="164.919" y2="79.5631">
	<stop  offset="0.1044" style="stop-color:#FFFFFF"/>
	<stop  offset="0.2039" style="stop-color:#F1FBFE"/>
	<stop  offset="0.3906" style="stop-color:#CDF0FB"/>
	<stop  offset="0.4231" style="stop-color:#C6EEFB"/>
	<stop  offset="0.6633" style="stop-color:#E9F9FD"/>
	<stop  offset="0.8407" style="stop-color:#FFFFFF"/>
</linearGradient>
<path fill="url(#SVGID_3_)" d="M105.325,38.665c-0.322,0.49,0.006,0.642,0.252,0.837c0.169-0.309,0.47-0.588,0.9-0.837
	C106.265,38.546,105.468,38.604,105.325,38.665z"/>
<linearGradient id="SVGID_4_" gradientUnits="userSpaceOnUse" x1="70.6494" y1="15.0352" x2="161.9258" y2="77.7749">
	<stop  offset="0.1044" style="stop-color:#FFFFFF"/>
	<stop  offset="0.2039" style="stop-color:#F1FBFE"/>
	<stop  offset="0.3906" style="stop-color:#CDF0FB"/>
	<stop  offset="0.4231" style="stop-color:#C6EEFB"/>
	<stop  offset="0.6633" style="stop-color:#E9F9FD"/>
	<stop  offset="0.8407" style="stop-color:#FFFFFF"/>
</linearGradient>
<path fill="url(#SVGID_4_)" d="M107.379,39.501c0.6,0.524,0.34,1.339,0.257,2.093c0.313-0.367,0.956-0.078,0.861-1.255
	C108.084,39.412,107.725,39.342,107.379,39.501z"/>
<linearGradient id="SVGID_5_" gradientUnits="userSpaceOnUse" x1="82.5859" y1="-2.9756" x2="176.5443" y2="61.6077">
	<stop  offset="0.1044" style="stop-color:#FFFFFF"/>
	<stop  offset="0.2039" style="stop-color:#F1FBFE"/>
	<stop  offset="0.3906" style="stop-color:#CDF0FB"/>
	<stop  offset="0.4231" style="stop-color:#C6EEFB"/>
	<stop  offset="0.6633" style="stop-color:#E9F9FD"/>
	<stop  offset="0.8407" style="stop-color:#FFFFFF"/>
</linearGradient>
<path fill="url(#SVGID_5_)" d="M117.704,21.457c-0.232,0.279,0.393,0.349,1.159,0.628c0.157-0.159,0.255-0.319-0.003-0.628
	C118.561,21.338,118.175,21.339,117.704,21.457z"/>
<linearGradient id="SVGID_6_" gradientUnits="userSpaceOnUse" x1="83.2637" y1="-3.4771" x2="176.6582" y2="60.7187">
	<stop  offset="0.1044" style="stop-color:#FFFFFF"/>
	<stop  offset="0.2039" style="stop-color:#F1FBFE"/>
	<stop  offset="0.3906" style="stop-color:#CDF0FB"/>
	<stop  offset="0.4231" style="stop-color:#C6EEFB"/>
	<stop  offset="0.6633" style="stop-color:#E9F9FD"/>
	<stop  offset="0.8407" style="stop-color:#FFFFFF"/>
</linearGradient>
<path fill="url(#SVGID_6_)" d="M124.009,23.55c-0.787-0.158-1.597-0.352-1.804,0.419c0.53,0.099,0.996,0.442,1.354,1.254
	c0.147-0.139,0.556,0.109,0.45-0.418c-0.222-0.279-0.441-0.558-0.659-0.836c0.502,0.237,0.973,0.065,1.56,1.254
	c0.066-0.139,0.132-0.278,0.202-0.418C124.839,24.059,124.567,23.879,124.009,23.55z"/>
<linearGradient id="SVGID_7_" gradientUnits="userSpaceOnUse" x1="83.7393" y1="-3.2397" x2="176.3641" y2="60.4269">
	<stop  offset="0.1044" style="stop-color:#FFFFFF"/>
	<stop  offset="0.2039" style="stop-color:#F1FBFE"/>
	<stop  offset="0.3906" style="stop-color:#CDF0FB"/>
	<stop  offset="0.4231" style="stop-color:#C6EEFB"/>
	<stop  offset="0.6633" style="stop-color:#E9F9FD"/>
	<stop  offset="0.8407" style="stop-color:#FFFFFF"/>
</linearGradient>
<path fill="url(#SVGID_7_)" d="M127.354,29.83c0.544-0.161,1.843,0.557,1.154-1.037c-0.333-0.785-0.347-1.425,0-1.894
	c0.313-0.101,0.43-0.44,0.451-0.837c0.764,0.847,2.104,1.394,3.152,2.093c-1.844-2.441-5.018-4.742-6.753-5.861
	c1.43,1.155,1.229,1.728,0.451,2.093c-0.131,0.445-0.17,0.917,0.711,1.676c1,0.798,0.879,1.17,0,1.255
	c-1.205-0.253-1.388,0.056-0.711,0.837C126.453,28.594,126.84,29.271,127.354,29.83z"/>
<linearGradient id="SVGID_8_" gradientUnits="userSpaceOnUse" x1="79.499" y1="6.0029" x2="168.8672" y2="67.4311">
	<stop  offset="0.1044" style="stop-color:#FFFFFF"/>
	<stop  offset="0.2039" style="stop-color:#F1FBFE"/>
	<stop  offset="0.3906" style="stop-color:#CDF0FB"/>
	<stop  offset="0.4231" style="stop-color:#C6EEFB"/>
	<stop  offset="0.6633" style="stop-color:#E9F9FD"/>
	<stop  offset="0.8407" style="stop-color:#FFFFFF"/>
</linearGradient>
<path fill="url(#SVGID_8_)" d="M133.325,31.507c-2.41-2.534-3.95-2.111-5.549-0.16c-0.063,0.508,0.056,0.996,0.451,1.457
	c-1.044,0.59-0.563,1.862-1.103,2.311c0.045,0.552,0.104,1.112-0.248,1.433c0.515,0.064,0.797,0.448,0.899,1.08
	c0,0.917,0,1.834,0,2.752c1.491,1.849,3.051,4.083,4.053,3.107c0.466-0.577,1.005-0.502,1.669-0.436
	c-0.431-0.679,0.47-0.727,1.39-0.893c0.71,0.462,1.274,1.303,0.994,3.841c0.295,3.209-1.288,6.42-2.951,9.63
	c0.732-1.078,1.481-2.281,2.161-3.604c3.028-6.864,2.536-14.862-1.146-21.298c-0.071-0.113-0.135-0.226-0.208-0.341
	C133.588,30.666,133.475,31.229,133.325,31.507z"/>
<linearGradient id="SVGID_9_" gradientUnits="userSpaceOnUse" x1="69.0684" y1="15.499" x2="162.2963" y2="79.5802">
	<stop  offset="0.1044" style="stop-color:#FFFFFF"/>
	<stop  offset="0.2039" style="stop-color:#F1FBFE"/>
	<stop  offset="0.3906" style="stop-color:#CDF0FB"/>
	<stop  offset="0.4231" style="stop-color:#C6EEFB"/>
	<stop  offset="0.6633" style="stop-color:#E9F9FD"/>
	<stop  offset="0.8407" style="stop-color:#FFFFFF"/>
</linearGradient>
<path fill="url(#SVGID_9_)" d="M99.724,36.152l-0.9,0.534c0.99,0.367,1.972,0.808,2.898,1.834l0.457-0.693
	C101.644,37.063,100.846,36.491,99.724,36.152z"/>
<linearGradient id="SVGID_10_" gradientUnits="userSpaceOnUse" x1="70.4932" y1="14.356" x2="162.5696" y2="77.6457">
	<stop  offset="0.1044" style="stop-color:#FFFFFF"/>
	<stop  offset="0.2039" style="stop-color:#F1FBFE"/>
	<stop  offset="0.3906" style="stop-color:#CDF0FB"/>
	<stop  offset="0.4231" style="stop-color:#C6EEFB"/>
	<stop  offset="0.6633" style="stop-color:#E9F9FD"/>
	<stop  offset="0.8407" style="stop-color:#FFFFFF"/>
</linearGradient>
<path fill="url(#SVGID_10_)" d="M91.999,36.435c-0.103,0.955,0.218,1.713,1.352,2.093c0.645,0.813,1.343,1.423,2.25,1.257
	c0.526,1.261,0.809,2.636,2.516,3.349c1.054-0.544,1.363,0.249,1.086,2.093c-0.604,0.483-1.098,1.118-1.351,2.092
	c-0.758,1.2,0.876,2.931,2.251,4.606c0.994,1.689,3.737,2.816,3.603,5.023c-0.059,2.059,0.093,4.036,1.086,5.688
	c1.359,1.785,2.393,2.484,2.517,0.174c0.748-1.098,1.302-2.36,3.149-2.512c1.753,0.042,2.62-1.555,3.603-2.934
	c1.662-0.451,3.261-1.016,4.054-2.929c-0.705-0.884,0.026-1.884,1.349-2.931c1.735-1.379,1.076-2.158-0.449-2.719
	c-0.947-0.213-2.688-0.613-5.402-1.24c-1.397-0.096-1.201-1.548-1.8-2.32c-0.256-0.761-1.765-1.068-3.603-1.257
	c-1.293-1.93-2.672-2.01-4.052-2.093c-1.226-0.812-2.56-0.917-4.054,0c-0.089,0.463-0.409,0.772-1.164,0
	c-1.237,0.707-1.654,0.179-1.747-0.837c0.686-2.418-0.458-2.246-1.591-2.093c0.615-0.545,0.813-1.477,0.901-2.512
	c-4.372,3.173-2.817-0.659-2.7-2.931c1.435,0.071,3.344-2.512,5.4,0.419c-0.298,0.497-0.249,0.923,0.25,1.255
	c0.155-2.225,0.688-3.437,1.553-3.767c1.01-0.056,1.796-0.791,2.452-1.917c0.344-0.496,1.185-0.76,2.05-1.014
	c-0.108-0.681,0.309-0.981,1.351-0.838c0.78,0.324,1.558,0.626,2.25-0.418c-0.845-0.167-1.487-0.493-1.8-1.071
	c-0.646-1.08,0.354-0.632,1.35-0.185c0.523-0.388,1.101-0.604,1.8-0.418c-0.746,0.547-1.08,1.035,0.452,1.256
	c1.078,0.283,0.489-0.847-0.452-2.277c-0.893-0.991-1.707-1.636-2.249-1.073c-0.584-0.907-1.151-1.898-2.251,0
	c-1.399,1.453-2.353,2.003-2.252,0.419c-0.726-0.362-1.358-0.732,0-1.256c0.496-0.428,0.979-0.873,2.252-0.418
	c0.952-0.592,1.803-0.37,2.666,0.264c1.206-0.347,2.304-0.605,2.286-1.521c-0.688-0.796-1.774-0.357-2.701-0.418
	c1.005-0.249,1.763-0.635,3.603-0.419c0.721,0.025,0.967,0.498,0.45,1.675c1.071,1.859,1.87,1.388,2.853-0.124
	c0.533-0.199,1.367-0.274,1.9-0.471c-1.067-0.888-2.746-1.922-3.223-2.176c-1.364-0.013-2.737,0.091-4.1,0.323
	c-8.505,1.447-15.459,7.615-18.227,15.537C91.214,36.727,91.197,38.013,91.999,36.435z"/>
<path fill="#666666" d="M134.977,32.611l-3.443,0.255l-26.106,1.841c-0.512,0.042-0.909,0.47-0.911,0.984l-0.102,28.321
	c-0.002,0.299,0.134,0.585,0.367,0.773c0.178,0.145,0.398,0.219,0.623,0.219c0.071,0,0.143-0.008,0.214-0.022l35.852-7.979
	c0.45-0.102,0.771-0.501,0.773-0.963l0.082-18.697c0.01-0.055,0.015-0.109,0.015-0.166l-6.625-3.607
	C135.715,33.116,135.411,32.724,134.977,32.611z"/>
<linearGradient id="SVGID_11_" gradientUnits="userSpaceOnUse" x1="106.1665" y1="36.3809" x2="106.1665" y2="66.1456">
	<stop  offset="0" style="stop-color:#CDCCCB"/>
	<stop  offset="1" style="stop-color:#A6A5A5"/>
</linearGradient>
<polygon fill="url(#SVGID_11_)" points="106.826,66.688 105.373,65.954 105.506,35.695 106.96,36.431 "/>
<linearGradient id="SVGID_12_" gradientUnits="userSpaceOnUse" x1="105.4922" y1="37.8496" x2="106.96" y2="37.8496">
	<stop  offset="0" style="stop-color:#78A9C8"/>
	<stop  offset="1" style="stop-color:#84B5D4"/>
</linearGradient>
<polygon fill="url(#SVGID_12_)" points="106.934,40.004 105.492,39.271 105.506,35.695 106.96,36.431 "/>
<polygon fill="#84B5D4" points="106.96,36.431 105.506,35.695 141.251,33.103 144.059,33.835 "/>
<linearGradient id="SVGID_13_" gradientUnits="userSpaceOnUse" x1="125.4424" y1="37.4629" x2="125.4424" y2="65.4238">
	<stop  offset="0" style="stop-color:#FFFFFF"/>
	<stop  offset="1" style="stop-color:#E5E5E5"/>
</linearGradient>
<polygon fill="url(#SVGID_13_)" points="144.059,33.835 143.927,64.093 106.826,66.688 106.96,36.431 "/>
<linearGradient id="SVGID_14_" gradientUnits="userSpaceOnUse" x1="106.8994" y1="36.915" x2="144.0596" y2="36.915">
	<stop  offset="0" style="stop-color:#78A9C8"/>
	<stop  offset="1" style="stop-color:#5C91B4"/>
</linearGradient>
<polygon fill="url(#SVGID_14_)" points="144.059,33.835 144.06,37.178 106.899,39.995 106.914,36.414 "/>
<linearGradient id="SVGID_15_" gradientUnits="userSpaceOnUse" x1="142.501" y1="36.5356" x2="142.501" y2="34.6196">
	<stop  offset="0" style="stop-color:#BABABA"/>
	<stop  offset="1" style="stop-color:#E5E5E5"/>
</linearGradient>
<polygon fill="url(#SVGID_15_)" points="143.377,34.618 143.377,36.495 141.625,36.622 141.627,34.753 "/>
<linearGradient id="SVGID_16_" gradientUnits="userSpaceOnUse" x1="140.0098" y1="36.7378" x2="140.0098" y2="34.8227">
	<stop  offset="0" style="stop-color:#BABABA"/>
	<stop  offset="1" style="stop-color:#E5E5E5"/>
</linearGradient>
<polygon fill="url(#SVGID_16_)" points="140.885,34.821 140.886,36.697 139.135,36.824 139.137,34.955 "/>
<path fill="#666666" d="M147.388,41.183l-2.809-0.734l-0.327-0.028l-33.037,2.593c-0.512,0.04-0.91,0.468-0.91,0.982l-0.103,23.038
	c-0.003,0.274,0.114,0.54,0.314,0.727c0.185,0.173,0.427,0.268,0.678,0.268c0.022,0,0.047-0.001,0.071-0.003l35.853-2.697
	c0.515-0.037,0.912-0.469,0.914-0.981l0.081-18.685c0.011-0.058,0.016-0.117,0.016-0.178v-3.343
	C148.129,41.688,147.826,41.295,147.388,41.183z"/>
<linearGradient id="SVGID_17_" gradientUnits="userSpaceOnUse" x1="111.9556" y1="44.6855" x2="111.9556" y2="74.4503">
	<stop  offset="0" style="stop-color:#CDCCCB"/>
	<stop  offset="1" style="stop-color:#A6A5A5"/>
</linearGradient>
<polygon fill="url(#SVGID_17_)" points="112.615,74.993 111.161,74.259 111.294,44 112.75,44.736 "/>
<linearGradient id="SVGID_18_" gradientUnits="userSpaceOnUse" x1="111.2813" y1="46.1543" x2="112.75" y2="46.1543">
	<stop  offset="0" style="stop-color:#78A9C8"/>
	<stop  offset="1" style="stop-color:#84B5D4"/>
</linearGradient>
<polygon fill="url(#SVGID_18_)" points="112.723,48.309 111.281,47.577 111.294,44 112.75,44.736 "/>
<polygon fill="#84B5D4" points="112.75,44.736 111.294,44 147.04,41.408 149.848,42.141 "/>
<linearGradient id="SVGID_19_" gradientUnits="userSpaceOnUse" x1="131.2314" y1="45.7686" x2="131.2314" y2="73.7286">
	<stop  offset="0" style="stop-color:#FFFFFF"/>
	<stop  offset="1" style="stop-color:#E5E5E5"/>
</linearGradient>
<polygon fill="url(#SVGID_19_)" points="149.848,42.141 149.717,72.397 112.615,74.993 112.75,44.736 "/>
<linearGradient id="SVGID_20_" gradientUnits="userSpaceOnUse" x1="112.6875" y1="45.2212" x2="149.8496" y2="45.2212">
	<stop  offset="0" style="stop-color:#78A9C8"/>
	<stop  offset="1" style="stop-color:#5C91B4"/>
</linearGradient>
<polygon fill="url(#SVGID_20_)" points="149.848,42.141 149.85,45.483 112.688,48.302 112.702,44.719 "/>
<linearGradient id="SVGID_21_" gradientUnits="userSpaceOnUse" x1="148.29" y1="44.8423" x2="148.29" y2="42.9253">
	<stop  offset="0" style="stop-color:#BABABA"/>
	<stop  offset="1" style="stop-color:#E5E5E5"/>
</linearGradient>
<polygon fill="url(#SVGID_21_)" points="149.166,42.924 149.166,44.8 147.414,44.929 147.416,43.059 "/>
<linearGradient id="SVGID_22_" gradientUnits="userSpaceOnUse" x1="145.7988" y1="45.0444" x2="145.7988" y2="43.1293">
	<stop  offset="0" style="stop-color:#BABABA"/>
	<stop  offset="1" style="stop-color:#E5E5E5"/>
</linearGradient>
<polygon fill="url(#SVGID_22_)" points="146.674,43.128 146.675,45.002 144.923,45.131 144.925,43.261 "/>
<path fill="#666666" d="M136.167,71.875c-0.091,0-0.176-0.019-0.256-0.05l0,0l-1.004-0.304c-0.244-0.075-0.426-0.278-0.471-0.529
	l0,0l-0.001-0.009l-0.022,0.025c-0.199,0.221-0.515,0.281-0.777,0.164l0,0l-1.055-0.314l-0.169-0.074
	c-0.239-0.15-0.453-0.311-0.649-0.483l0,0c-0.218-0.188-0.292-0.493-0.187-0.76l0,0l0.292-0.741c-0.034-0.043-0.067-0.087-0.1-0.133
	l0,0c-0.05-0.006-0.099-0.019-0.146-0.037l0,0l-1.061-0.325c-0.204-0.061-0.366-0.217-0.439-0.417l0,0
	c-0.101-0.273-0.179-0.544-0.238-0.814l0,0c-0.061-0.268,0.045-0.546,0.27-0.703l0,0l0.613-0.432
	c-0.012-0.146-0.018-0.294-0.018-0.443l0,0c0.001-0.017,0.001-0.032,0.003-0.043l0,0c0.001-0.142,0.007-0.274,0.019-0.404l0,0
	l-0.53-0.29c-0.04-0.021-0.077-0.047-0.109-0.074l0,0c-0.07-0.021-0.136-0.053-0.195-0.093l0,0
	c-0.088,0.033-0.177,0.066-0.268,0.097l0,0l-0.233,1.286c-0.055,0.291-0.291,0.513-0.585,0.55l0,0l-0.075,0.008
	c-0.204,0.033-0.4,0.051-0.594,0.065l0,0c-0.152,0.012-0.297,0.016-0.429,0.018l0,0l-0.111,0.003
	c-0.109,0.004-0.216-0.02-0.309-0.064l0,0l-1.405-0.423c-0.244-0.076-0.426-0.278-0.47-0.529l0,0l-0.104-0.564l-0.412,0.448
	c-0.201,0.221-0.522,0.281-0.788,0.155l0,0l-1.507-0.444l-0.163-0.074c-0.333-0.206-0.624-0.425-0.895-0.658l0,0
	c-0.219-0.187-0.295-0.493-0.188-0.763l0,0l0.474-1.197c-0.108-0.13-0.209-0.265-0.305-0.399l0,0
	c-0.104,0.002-0.207-0.021-0.299-0.063l0,0l-1.477-0.45c-0.201-0.062-0.362-0.214-0.437-0.414l0,0
	c-0.14-0.38-0.243-0.754-0.326-1.128l0,0c-0.061-0.268,0.047-0.544,0.271-0.702l0,0l0.99-0.698
	c-0.021-0.244-0.034-0.493-0.034-0.746l0,0c0-0.038,0.001-0.061,0.001-0.039l0,0c0.002-0.27,0.017-0.52,0.043-0.768l0,0
	l-0.908-0.498c-0.266-0.145-0.402-0.452-0.335-0.749l0,0c0.098-0.412,0.208-0.795,0.348-1.17l0,0
	c0.104-0.279,0.377-0.456,0.674-0.441l0,0l1.051,0.059c0.23-0.448,0.5-0.872,0.808-1.261l0,0l-0.471-1.098
	c-0.11-0.256-0.053-0.552,0.146-0.748l0,0c0.296-0.294,0.592-0.551,0.897-0.784l0,0c0.159-0.12,0.359-0.164,0.554-0.123l0,0
	l1.615,0.353c0.12,0.025,0.229,0.083,0.319,0.165l0,0c0.089-0.032,0.18-0.063,0.271-0.091l0,0l0.213-1.245
	c0.048-0.292,0.282-0.519,0.574-0.559l0,0c0.188-0.027,0.348-0.042,0.504-0.053l0,0c0.169-0.013,0.334-0.017,0.492-0.017l0,0
	c0.052,0,0.103,0,0.15,0.001l0,0l0.146,0.02l1.529,0.377c0.32,0.014,0.583,0.249,0.639,0.565l0,0l0.079,0.482l0.242-0.278
	c0.169-0.195,0.432-0.276,0.682-0.211l0,0l1.436,0.373c0.112,0.007,0.224,0.042,0.323,0.106l0,0l0.095,0.062
	c0.304,0.196,0.592,0.416,0.865,0.657l0,0l0.072,0.062c0.128,0.115,0.206,0.271,0.225,0.436l0,0l0.075,0.004
	c0.117-0.212,0.246-0.416,0.39-0.607l0,0l-0.252-0.584c-0.108-0.254-0.051-0.551,0.144-0.747l0,0
	c0.203-0.201,0.407-0.376,0.614-0.533l0,0c0.157-0.118,0.358-0.162,0.551-0.121l0,0l1.048,0.227c0.046,0.01,0.09,0.024,0.133,0.043
	l0,0l0.104-0.61c0.048-0.285,0.272-0.508,0.558-0.555l0,0c0.142-0.024,0.264-0.034,0.343-0.039l0,0
	c0.143-0.014,0.27-0.015,0.382-0.015l0,0c0.019,0,0.044,0,0.071,0.001l0,0l0.152,0.02l0.976,0.243
	c0.261,0.025,0.482,0.196,0.572,0.437l0,0c0.153-0.088,0.337-0.115,0.512-0.069l0,0l0.896,0.235
	c0.117,0.009,0.232,0.048,0.334,0.119l0,0l0.034,0.023c0.217,0.138,0.414,0.292,0.597,0.454l0,0l0.046,0.04
	c0.217,0.19,0.287,0.5,0.178,0.767l0,0l-0.264,0.637l1.029,0.267c0.213,0.055,0.388,0.213,0.466,0.422l0,0l0.023,0.066
	c0.093,0.245,0.165,0.5,0.224,0.759l0,0l0.013,0.057c0.057,0.27-0.055,0.547-0.281,0.704l0,0l-0.525,0.357
	c0.007,0.108,0.01,0.219,0.01,0.33l0,0v0.028c0,0.079-0.002,0.158-0.006,0.237l0,0l0.474,0.269c0.255,0.145,0.387,0.434,0.331,0.721
	l0,0l-0.015,0.077c-0.059,0.257-0.128,0.51-0.218,0.769l0,0l-0.023,0.061c-0.102,0.286-0.381,0.469-0.687,0.446l0,0l-0.506-0.036
	c-0.097,0.181-0.204,0.354-0.321,0.521l0,0l0.256,0.619c0.104,0.247,0.049,0.532-0.135,0.726l0,0l-0.043,0.044
	c-0.18,0.188-0.37,0.356-0.554,0.504l0,0l-0.061,0.048c-0.167,0.138-0.39,0.186-0.6,0.131l0,0l-1.033-0.269
	c-0.018-0.004-0.034-0.01-0.05-0.016l0,0l-0.124,0.664c-0.031,0.175-0.131,0.326-0.268,0.425l0,0l0.148,0.039
	c0.113,0.009,0.226,0.046,0.326,0.113l0,0l0.054,0.039c0.225,0.145,0.435,0.305,0.646,0.488l0,0l0.049,0.045
	c0.213,0.192,0.279,0.496,0.171,0.761l0,0l-0.307,0.74c0.006,0.01,0.012,0.017,0.019,0.025l0,0c0.015,0.002,0.029,0.006,0.044,0.01
	l0,0l1.122,0.295c0.208,0.055,0.379,0.207,0.459,0.407l0,0l0.033,0.093c0.096,0.261,0.173,0.53,0.238,0.815l0,0l0.014,0.062
	c0.057,0.271-0.055,0.547-0.283,0.701l0,0l-0.601,0.408c0.01,0.13,0.014,0.26,0.014,0.391l0,0v0.026
	c-0.001,0.101-0.004,0.199-0.01,0.299l0,0l0.553,0.316c0.256,0.145,0.388,0.437,0.329,0.725l0,0l-0.017,0.078
	c-0.062,0.271-0.136,0.545-0.227,0.804l0,0l-0.021,0.068c-0.096,0.3-0.384,0.495-0.697,0.472l0,0l-0.595-0.045
	c-0.116,0.218-0.243,0.425-0.382,0.621l0,0l0.291,0.708c0.105,0.253,0.047,0.545-0.146,0.74l0,0l-0.037,0.035
	c-0.188,0.194-0.39,0.381-0.592,0.538l0,0l-0.067,0.054c-0.167,0.143-0.394,0.191-0.606,0.138l0,0l-1.124-0.296
	c-0.04-0.011-0.08-0.025-0.118-0.044l0,0l-0.147,0.8c-0.053,0.288-0.288,0.511-0.58,0.549l0,0L137,71.814
	c-0.133,0.021-0.277,0.038-0.428,0.046l0,0c-0.105,0.008-0.213,0.014-0.327,0.015l0,0H136.167L136.167,71.875z M134.847,69.06
	l0.229,0.06c0.257,0.064,0.451,0.273,0.497,0.534l0,0l0.124,0.69l0.579,0.175c0.04-0.001,0.082-0.004,0.125-0.006l0,0l0.128-0.699
	c0.047-0.26,0.242-0.467,0.496-0.533l0,0c0.191-0.049,0.39-0.127,0.594-0.225l0,0c0.269-0.129,0.589-0.065,0.792,0.152l0,0
	l0.034,0.035l0.593,0.156c0.006-0.004,0.011-0.008,0.015-0.012l0,0l-0.265-0.644c-0.096-0.231-0.057-0.496,0.103-0.688l0,0
	c0.258-0.313,0.474-0.668,0.65-1.069l0,0c0.116-0.266,0.386-0.429,0.673-0.407l0,0l0.12,0.009l-0.142-0.08
	c-0.242-0.138-0.376-0.412-0.334-0.687l0,0c0.027-0.186,0.04-0.381,0.043-0.574l0,0v-0.024c-0.003-0.209-0.017-0.407-0.048-0.621
	l0,0c-0.039-0.257,0.074-0.514,0.289-0.66l0,0l0.546-0.371c-0.001-0.001-0.001-0.004-0.003-0.007l0,0l-0.608-0.159l-0.032,0.009
	c-0.283,0.069-0.579-0.051-0.734-0.296l0,0c-0.125-0.196-0.252-0.369-0.392-0.519l0,0c-0.183-0.192-0.233-0.476-0.131-0.724l0,0
	l0.27-0.65c-0.035-0.025-0.071-0.05-0.107-0.074l0,0l-0.616-0.163l-0.435,0.504c-0.154,0.181-0.396,0.266-0.628,0.227l0,0
	c-0.064-0.012-0.105-0.023-0.127-0.029l0,0l0,0c-0.298-0.038-0.536-0.268-0.585-0.563l0,0l-0.118-0.719l-0.67-0.165l0,0l0,0
	c-0.022,0-0.046,0-0.068,0l0,0l-0.113,0.667c-0.047,0.271-0.252,0.487-0.519,0.549l0,0c-0.198,0.045-0.399,0.113-0.604,0.203l0,0
	c-0.255,0.112-0.553,0.057-0.749-0.139l0,0l-0.076-0.074l-0.658-0.145c-0.206-0.043-0.376-0.178-0.468-0.365l0,0
	c-0.092-0.187-0.092-0.404-0.001-0.591l0,0c0.071-0.141,0.117-0.214,0.127-0.241l0,0c0.113-0.265,0.385-0.432,0.673-0.41l0,0
	l0.958,0.071c0.021-0.065,0.038-0.13,0.055-0.195l0,0l-0.878-0.502c-0.242-0.137-0.375-0.407-0.335-0.68l0,0
	c0.039-0.285,0.062-0.57,0.062-0.855l0,0c-0.001-0.015-0.001-0.024,0-0.035l0,0c-0.001-0.31-0.022-0.606-0.069-0.92l0,0
	c-0.036-0.257,0.074-0.51,0.288-0.657l0,0l0.199-0.135c0.13-0.09,0.289-0.129,0.444-0.115l0,0l0.077-0.015
	c0.274-0.053,0.557,0.069,0.705,0.308l0,0c0.13,0.208,0.264,0.389,0.404,0.53l0,0c0.189,0.191,0.247,0.475,0.15,0.727l0,0
	l-0.218,0.552l0.536,0.158l0.413-0.45c0.169-0.187,0.429-0.263,0.672-0.198l0,0l0.205,0.054c0.254,0.068,0.445,0.274,0.493,0.533
	l0,0l0.111,0.6l0.487,0.149c0.019,0,0.039,0,0.06-0.002l0,0l0.11-0.6c0.048-0.259,0.24-0.467,0.496-0.533l0,0
	c0.172-0.045,0.351-0.114,0.535-0.203l0,0c0.268-0.126,0.589-0.066,0.789,0.152l0,0l0.019,0.02l0.44,0.115l-0.206-0.5
	c-0.097-0.23-0.056-0.5,0.105-0.691l0,0c0.23-0.278,0.429-0.599,0.585-0.962l0,0c0.1-0.233,0.317-0.386,0.563-0.407l0,0
	c-0.206-0.147-0.314-0.398-0.275-0.652l0,0c0.025-0.163,0.037-0.339,0.039-0.516l0,0v-0.021c0-0.187-0.016-0.366-0.042-0.567l0,0
	c-0.036-0.255,0.076-0.51,0.289-0.653l0,0l0.404-0.276l-0.433-0.113l-0.021,0.005c-0.282,0.068-0.578-0.053-0.731-0.3l0,0
	c-0.111-0.176-0.225-0.333-0.351-0.465l0,0c-0.181-0.194-0.233-0.477-0.132-0.722l0,0l0.229-0.557
	c-0.017-0.011-0.033-0.022-0.05-0.034l0,0l-0.522-0.138l-0.376,0.437c-0.156,0.179-0.395,0.263-0.629,0.224l0,0
	c-0.063-0.011-0.104-0.023-0.121-0.027l0,0v-0.002c-0.293-0.039-0.53-0.267-0.578-0.561l0,0l-0.104-0.624l-0.565-0.141
	c-0.005,0-0.007,0-0.011,0l0,0l-0.098,0.568c-0.045,0.271-0.255,0.49-0.523,0.549l0,0c-0.174,0.037-0.352,0.099-0.535,0.181l0,0
	c-0.257,0.114-0.556,0.058-0.755-0.139l0,0l-0.054-0.057l-0.39-0.084l0.173,0.403c0.105,0.245,0.06,0.524-0.118,0.721l0,0
	c-0.261,0.289-0.481,0.636-0.647,1.017l0,0c-0.087,0.197-0.26,0.337-0.461,0.387l0,0c0.188,0.2,0.239,0.501,0.114,0.758l0,0
	c-0.019,0.153-0.03,0.292-0.031,0.456l0,0c-0.001,0.207-0.101,0.405-0.265,0.533l0,0c-0.165,0.125-0.383,0.17-0.584,0.117l0,0
	l-0.268-0.069l-0.119,0.028c-0.282,0.067-0.576-0.051-0.73-0.297l0,0c-0.182-0.286-0.372-0.548-0.585-0.776l0,0
	c-0.181-0.195-0.232-0.476-0.131-0.722l0,0l0.464-1.118c-0.124-0.096-0.25-0.186-0.379-0.271l0,0l-1.082-0.28l-0.732,0.842
	c-0.154,0.178-0.392,0.262-0.624,0.224l0,0c-0.15-0.029-0.188-0.046-0.188-0.042l0,0c-0.298-0.037-0.54-0.265-0.588-0.563l0,0
	l-0.199-1.197l-1.15-0.284c-0.018,0-0.033,0-0.05,0l0,0c-0.11,0-0.219,0.003-0.321,0.009l0,0l-0.198,1.166
	c-0.047,0.272-0.254,0.49-0.521,0.549l0,0c-0.309,0.067-0.61,0.169-0.904,0.3l0,0c-0.257,0.113-0.552,0.058-0.751-0.139l0,0
	l-0.157-0.158l-1.111-0.241c-0.063,0.052-0.126,0.106-0.188,0.162l0,0l0.448,1.044c0.104,0.243,0.058,0.521-0.117,0.719l0,0
	c-0.428,0.48-0.79,1.05-1.064,1.671l0,0c-0.115,0.257-0.378,0.418-0.658,0.401l0,0l-0.989-0.054
	c-0.004,0.014-0.007,0.028-0.011,0.042l0,0l0.822,0.451c0.266,0.127,0.422,0.417,0.374,0.717l0,0
	c-0.058,0.369-0.088,0.672-0.092,1.073l0,0c0,0.328,0.025,0.652,0.071,0.966l0,0c0.038,0.252-0.071,0.506-0.28,0.654l0,0
	l-0.942,0.664c0.019,0.07,0.04,0.139,0.061,0.208l0,0l1.078,0.33l0.158-0.032c0.275-0.053,0.557,0.069,0.706,0.307l0,0
	c0.21,0.338,0.432,0.638,0.676,0.883l0,0c0.189,0.191,0.247,0.476,0.148,0.727l0,0l-0.444,1.123
	c0.088,0.064,0.179,0.126,0.273,0.189l0,0l1.116,0.327l0.788-0.859c0.169-0.186,0.429-0.261,0.673-0.197l0,0l0.317,0.081
	c0.254,0.065,0.447,0.276,0.495,0.536l0,0l0.207,1.141l1.025,0.311c0.118-0.003,0.233-0.008,0.339-0.016l0,0
	c0.037-0.004,0.073-0.006,0.109-0.009l0,0l0.22-1.201c0.048-0.26,0.244-0.468,0.5-0.533l0,0c0.3-0.078,0.595-0.189,0.889-0.329l0,0
	c0.269-0.129,0.59-0.066,0.791,0.15l0,0l0.1,0.105l0.064,0.019c0.156,0.04,0.283,0.132,0.373,0.25l0,0l0.67,0.365
	c0.265,0.128,0.423,0.417,0.374,0.721l0,0c-0.043,0.258-0.063,0.453-0.063,0.699l0,0l-0.001,0.015c0,0.229,0.017,0.451,0.049,0.665
	l0,0c0.028,0.192-0.028,0.394-0.156,0.542l0,0c-0.036,0.041-0.079,0.08-0.124,0.112l0,0l0,0l-0.469,0.331l0.503,0.153l0.067-0.014
	c0.276-0.053,0.556,0.07,0.704,0.309l0,0c0.143,0.229,0.292,0.432,0.451,0.593l0,0c0.188,0.189,0.245,0.474,0.148,0.724l0,0
	l-0.256,0.652c0.012,0.007,0.024,0.015,0.037,0.023l0,0l0.641,0.19l0.474-0.521c0.13-0.141,0.313-0.22,0.5-0.22l0,0
	C134.733,69.038,134.79,69.045,134.847,69.06L134.847,69.06z"/>
<path fill="#666666" d="M136.657,63.352l-0.052-0.041l-0.066,0.005c-0.135,0.009-0.268,0.036-0.394,0.074l-0.253,0.074l0.174,0.198
	c0.275,0.316,0.452,0.747,0.452,1.249c0,0-0.003,0.013,0,0.034c-0.017,0.902-0.585,1.682-1.313,1.93l-0.246,0.083l0.176,0.191
	c0.09,0.098,0.189,0.194,0.307,0.273l0.056,0.039l0.065-0.009c1.063-0.162,1.878-1.182,1.89-2.362l-0.003-0.011
	C137.452,64.357,137.141,63.734,136.657,63.352z"/>
<path fill="#666666" d="M139.159,53.698c0.002-0.671-0.285-1.252-0.733-1.605l-0.055-0.042l-0.064,0.006
	c-0.137,0.011-0.268,0.04-0.391,0.08l-0.239,0.076l0.16,0.193c0.237,0.284,0.388,0.664,0.391,1.107
	c-0.001,0.008,0,0.019,0.001,0.029c-0.011,0.818-0.518,1.527-1.174,1.759l-0.236,0.085l0.169,0.187
	c0.091,0.102,0.189,0.197,0.307,0.276l0.052,0.037l0.067-0.008c0.984-0.144,1.736-1.084,1.748-2.176
	C139.161,53.7,139.159,53.698,139.159,53.698z"/>
<path fill="#666666" d="M128.271,54.911l-0.054-0.041l-0.063,0.005c-0.143,0.01-0.269,0.043-0.385,0.071l-0.289,0.07l0.206,0.214
	c0.451,0.464,0.744,1.117,0.748,1.892c-0.001,0.01-0.001,0.022,0.002,0.036c-0.016,1.367-0.903,2.536-2.039,2.847l-0.286,0.08
	l0.213,0.207c0.098,0.093,0.202,0.183,0.317,0.262l0.054,0.038l0.067-0.01c1.463-0.218,2.594-1.628,2.605-3.268l-0.001-0.002
	C129.367,56.304,128.938,55.439,128.271,54.911z"/>
<linearGradient id="SVGID_23_" gradientUnits="userSpaceOnUse" x1="133.5898" y1="54.1953" x2="134.6836" y2="54.1953">
	<stop  offset="0.0051" style="stop-color:#335E8F"/>
	<stop  offset="1" style="stop-color:#8DADBC"/>
</linearGradient>
<path fill="url(#SVGID_23_)" d="M134.668,55.067l-1.025-0.277c-0.035-0.231-0.053-0.475-0.053-0.722
	c0.002-0.266,0.025-0.491,0.067-0.745l1.026,0.271c-0.042,0.255-0.063,0.487-0.064,0.752
	C134.619,54.595,134.637,54.836,134.668,55.067z"/>
<linearGradient id="SVGID_24_" gradientUnits="userSpaceOnUse" x1="136.4551" y1="57.3926" x2="136.2968" y2="59.6219">
	<stop  offset="0" style="stop-color:#5D4098"/>
	<stop  offset="1" style="stop-color:#C6ACD2"/>
</linearGradient>
<path fill="url(#SVGID_24_)" d="M137.267,58.114l-1.03-0.271c-0.23-0.06-0.451-0.144-0.66-0.253l1.029,0.269
	C136.814,57.967,137.035,58.054,137.267,58.114z"/>
<polygon fill="#8C8E8E" points="133.229,54.738 131.646,54.324 133.153,53.963 134.736,54.376 "/>
<polygon fill="#8C8E8E" points="131.914,64.438 130.329,64.025 129.263,62.874 130.851,63.287 "/>
<polygon fill="#8C8E8E" points="130.85,52.142 129.263,51.729 130.354,50.472 131.939,50.884 "/>
<polygon fill="#8C8E8E" points="127.648,65.924 126.137,65.467 125.84,63.834 127.423,64.247 "/>
<linearGradient id="SVGID_25_" gradientUnits="userSpaceOnUse" x1="125.3066" y1="62.9971" x2="125.064" y2="66.4141">
	<stop  offset="0" style="stop-color:#646767"/>
	<stop  offset="1" style="stop-color:#CDCECD"/>
</linearGradient>
<path fill="url(#SVGID_25_)" d="M126.556,64.103l-1.584-0.413c-0.355-0.092-0.694-0.225-1.015-0.39l1.583,0.414
	C125.859,63.88,126.199,64.011,126.556,64.103z"/>
<polygon fill="#8C8E8E" points="127.462,51.69 125.881,51.275 126.165,49.604 127.747,50.017 "/>
<path fill="#8C8E8E" d="M127.747,50.017l-1.582-0.413c0.172-0.024,0.314-0.038,0.46-0.049c0.194-0.014,0.388-0.017,0.576-0.014
	l1.611,0.396c-0.189-0.003-0.413,0.019-0.606,0.028C128.062,49.977,127.917,49.992,127.747,50.017z"/>
<polygon fill="#8C8E8E" points="123.639,64.354 122.054,63.94 122.682,62.354 124.264,62.768 "/>
<path fill="#8C8E8E" d="M124.464,65.007l-1.604-0.474c-0.298-0.185-0.557-0.379-0.806-0.593l1.585,0.413
	C123.885,64.566,124.168,64.82,124.464,65.007z"/>
<path fill="#8C8E8E" d="M125.643,52.453l-1.582-0.413c0.558-0.36,1.172-0.622,1.82-0.765l1.581,0.415
	C126.814,51.833,126.199,52.093,125.643,52.453z"/>
<path fill="#8C8E8E" d="M124.264,62.768l-1.582-0.413c-0.48-0.485-0.878-1.067-1.172-1.729l1.582,0.41
	C123.385,61.7,123.784,62.283,124.264,62.768z"/>
<polygon fill="#8C8E8E" points="121.305,60.316 119.722,59.9 121.041,58.971 122.623,59.382 "/>
<polygon fill="#8C8E8E" points="121.652,55.34 120.07,54.927 121.571,55.011 123.154,55.424 "/>
<polygon fill="#8C8E8E" points="122.642,57.144 121.06,56.731 119.749,56.013 121.332,56.427 "/>
<path fill="#8C8E8E" d="M123.154,55.424l-1.583-0.413c0.302-0.682,0.7-1.307,1.178-1.843l1.583,0.413
	C123.854,54.119,123.454,54.74,123.154,55.424z"/>
<path fill="#8C8E8E" d="M122.623,59.406l-1.581-0.425c-0.052-0.357-0.08-0.729-0.078-1.109c0.002-0.407,0.037-0.753,0.1-1.145
	l1.578,0.419c-0.063,0.391-0.096,0.745-0.099,1.152C122.542,58.682,122.567,59.051,122.623,59.406z"/>
<polygon fill="#8C8E8E" points="124.332,53.581 122.749,53.168 122.114,51.691 123.696,52.104 "/>
<path fill="#8C8E8E" d="M123.648,52.126l-1.534-0.435c0.276-0.274,0.547-0.51,0.829-0.723l1.611,0.351
	C124.272,51.532,123.925,51.85,123.648,52.126z"/>
<path fill="#8C8E8E" d="M121.596,61.421l-1.573-0.48c-0.128-0.348-0.224-0.689-0.301-1.04l1.583,0.383
	C121.381,60.637,121.469,61.071,121.596,61.421z"/>
<path fill="#8C8E8E" d="M121.325,56.482l-1.576-0.47c0.091-0.39,0.193-0.742,0.321-1.086l1.582,0.353
	C121.526,55.623,121.414,56.092,121.325,56.482z"/>
<linearGradient id="SVGID_26_" gradientUnits="userSpaceOnUse" x1="125.8496" y1="57.7471" x2="130.792" y2="57.7471">
	<stop  offset="0" style="stop-color:#646767"/>
	<stop  offset="1" style="stop-color:#CDCECD"/>
</linearGradient>
<path fill="url(#SVGID_26_)" d="M130.792,57.731c0.003-1.336-0.789-2.405-1.872-2.688l-1.582-0.415
	c1.082,0.284,1.867,1.354,1.866,2.69c-0.012,1.624-1.183,3.021-2.628,3.126h0.002c-0.253,0.017-0.497-0.008-0.729-0.068l1.581,0.415
	c0.233,0.061,0.479,0.083,0.734,0.068l-0.003-0.002C129.605,60.754,130.779,59.356,130.792,57.731z"/>
<linearGradient id="SVGID_27_" gradientUnits="userSpaceOnUse" x1="120.1484" y1="48.1982" x2="131.585" y2="62.0547">
	<stop  offset="0.0275" style="stop-color:#FFFFFF"/>
	<stop  offset="0.3579" style="stop-color:#D2D3D4"/>
	<stop  offset="0.7892" style="stop-color:#9E9FA0"/>
	<stop  offset="1" style="stop-color:#898B8C"/>
</linearGradient>
<path fill="url(#SVGID_27_)" d="M133.635,58.559l1.309,0.744c-0.075,0.354-0.171,0.699-0.29,1.039l-1.477-0.11
	c-0.29,0.698-0.667,1.316-1.119,1.852l0.617,1.497c-0.238,0.243-0.488,0.472-0.751,0.681l-1.077-1.07
	c-0.591,0.403-1.216,0.689-1.879,0.849l-0.308,1.679c-0.176,0.025-0.351,0.046-0.53,0.06c-0.129,0.009-0.258,0.014-0.385,0.015
	l-0.269-1.624c-0.705-0.052-1.345-0.238-1.925-0.542l-1.116,1.217c-0.254-0.164-0.495-0.345-0.726-0.542l0.643-1.559
	c-0.504-0.505-0.906-1.097-1.198-1.764l-1.491,0.292c-0.105-0.303-0.2-0.617-0.271-0.943l1.314-0.901
	c-0.059-0.375-0.086-0.737-0.083-1.111c0-0.396,0.035-0.791,0.103-1.173l-1.3-0.741c0.08-0.336,0.177-0.665,0.295-0.987l1.483,0.111
	c0.308-0.718,0.714-1.346,1.194-1.886l-0.611-1.488c0.24-0.237,0.496-0.457,0.756-0.656l1.087,1.082
	c0.586-0.382,1.205-0.646,1.859-0.784l0.309-1.669c0.134-0.019,0.269-0.034,0.402-0.043c0.184-0.012,0.364-0.015,0.544-0.014
	l0.27,1.638c0.659,0.065,1.261,0.254,1.81,0.547l1.11-1.214c0.27,0.173,0.526,0.367,0.768,0.582l-0.646,1.565
	c0.458,0.479,0.827,1.024,1.1,1.64l1.496-0.295c0.118,0.32,0.218,0.657,0.293,1.002l-1.313,0.898c0.06,0.376,0.085,0.736,0.085,1.11
	C133.712,57.885,133.687,58.225,133.635,58.559z M128.151,60.938c1.479-0.104,2.686-1.535,2.692-3.197
	c0.007-1.659-1.187-2.921-2.665-2.817c-1.475,0.102-2.676,1.534-2.685,3.191C125.488,59.774,126.678,61.039,128.151,60.938"/>
<radialGradient id="SVGID_28_" cx="122.0146" cy="46.0425" r="17.0821" gradientUnits="userSpaceOnUse">
	<stop  offset="0" style="stop-color:#FFFFFF"/>
	<stop  offset="0.1865" style="stop-color:#FAFBFB"/>
	<stop  offset="0.3923" style="stop-color:#EDEEEE"/>
	<stop  offset="0.6074" style="stop-color:#D7D8D9"/>
	<stop  offset="0.8274" style="stop-color:#B8BABC"/>
	<stop  offset="1" style="stop-color:#9B9DA0"/>
</radialGradient>
<path fill="url(#SVGID_28_)" d="M127.361,64.29c-0.644-0.057-1.237-0.229-1.778-0.501l0,0l-1.123,1.226l-0.094-0.06
	c-0.26-0.169-0.507-0.353-0.745-0.553l0,0l-0.072-0.063l0.648-1.568c-0.464-0.475-0.839-1.026-1.123-1.644l0,0l-1.497,0.294
	l-0.036-0.108c-0.112-0.305-0.206-0.622-0.278-0.957l0,0l-0.02-0.088l1.32-0.905c-0.05-0.343-0.076-0.678-0.076-1.018l0,0
	c0-0.009,0-0.021,0-0.03l0,0c0.002-0.372,0.034-0.743,0.092-1.104l0,0l-1.305-0.744l0.023-0.096
	c0.079-0.342,0.178-0.676,0.298-1.004l0,0l0.033-0.093l1.49,0.109c0.296-0.665,0.679-1.256,1.125-1.77l0,0l-0.612-1.495l0.064-0.063
	c0.242-0.24,0.501-0.463,0.768-0.665l0,0l0.091-0.07l1.093,1.088c0.546-0.344,1.121-0.586,1.73-0.727l0,0l0.31-1.675l0.095-0.016
	c0.135-0.02,0.271-0.031,0.41-0.041l0,0c0.153-0.012,0.311-0.017,0.462-0.017l0,0c0.028,0,0.061,0,0.092,0l0,0l0.109,0.003
	l0.273,1.646c0.601,0.073,1.154,0.245,1.666,0.505l0,0l1.117-1.223l0.096,0.062c0.273,0.177,0.534,0.374,0.783,0.595l0,0l0.07,0.062
	l-0.652,1.575c0.418,0.447,0.76,0.953,1.024,1.515l0,0l1.503-0.296l0.039,0.106c0.119,0.326,0.221,0.668,0.298,1.019l0,0l0.021,0.09
	l-1.321,0.9c0.05,0.342,0.074,0.672,0.074,1.014l0,0c0,0.012,0,0.022,0,0.035l0,0c0,0.32-0.024,0.636-0.068,0.946l0,0l1.315,0.75
	l-0.021,0.093c-0.077,0.36-0.175,0.711-0.293,1.057l0,0l-0.034,0.096l-1.486-0.109c-0.276,0.647-0.63,1.228-1.05,1.735l0,0
	l0.619,1.502l-0.06,0.063c-0.243,0.25-0.496,0.479-0.762,0.692l0,0l-0.094,0.074l-1.083-1.08c-0.551,0.366-1.135,0.632-1.748,0.789
	l0,0l-0.31,1.688l-0.096,0.013c-0.178,0.027-0.355,0.045-0.538,0.059l0,0c-0.132,0.01-0.265,0.014-0.395,0.016l0,0l-0.112,0.003
	L127.361,64.29L127.361,64.29z M125.613,63.508c0.563,0.299,1.185,0.479,1.874,0.525l0,0l0.102,0.009l0.268,1.615
	c0.09-0.003,0.176-0.007,0.265-0.013l0,0c0.144-0.011,0.283-0.027,0.425-0.044l0,0l0.308-1.672l0.084-0.017
	c0.643-0.158,1.255-0.437,1.833-0.831l0,0l0.092-0.064l1.069,1.066c0.205-0.167,0.4-0.345,0.588-0.533l0,0l-0.616-1.49l0.054-0.062
	c0.442-0.527,0.813-1.13,1.098-1.817l0,0l0.037-0.088l1.471,0.108c0.091-0.272,0.167-0.55,0.231-0.833l0,0l-1.224-0.697
	l-0.079-0.042l0.014-0.091c0.05-0.327,0.075-0.661,0.078-0.995l0,0c0-0.017,0-0.029,0-0.038l0,0c0-0.355-0.028-0.697-0.085-1.056
	l0,0l-0.014-0.084l1.31-0.893c-0.062-0.271-0.141-0.538-0.228-0.793l0,0l-1.49,0.295l-0.042-0.098c-0.267-0.6-0.629-1.135-1.075-1.6
	l0,0l-0.06-0.063l0.643-1.559c-0.187-0.159-0.384-0.309-0.588-0.446l0,0l-1.104,1.209l-0.09-0.05
	c-0.535-0.286-1.117-0.469-1.761-0.533l0,0l-0.1-0.013l-0.271-1.624c-0.14,0-0.28,0.004-0.42,0.013l0,0
	c-0.1,0.009-0.197,0.017-0.296,0.03l0,0l-0.309,1.663l-0.087,0.019c-0.639,0.134-1.242,0.392-1.816,0.763l0,0l-0.089,0.059
	l-1.081-1.073c-0.2,0.157-0.399,0.331-0.587,0.512l0,0l0.608,1.48l-0.057,0.064c-0.472,0.528-0.87,1.145-1.172,1.848l0,0
	l-0.037,0.087l-1.477-0.11c-0.091,0.255-0.168,0.518-0.234,0.783l0,0l1.294,0.737l-0.015,0.091
	c-0.066,0.374-0.101,0.764-0.104,1.156l0,0c0,0.006,0,0.017,0,0.025l0,0c0,0.354,0.029,0.7,0.085,1.061l0,0l0.013,0.083
	l-1.309,0.897c0.059,0.251,0.129,0.496,0.209,0.731l0,0l1.48-0.292l0.045,0.099c0.285,0.653,0.678,1.231,1.169,1.724l0,0
	l0.063,0.064l-0.642,1.551c0.179,0.146,0.359,0.282,0.549,0.408l0,0l1.108-1.212L125.613,63.508L125.613,63.508z M125.363,58.129
	c0-0.009,0-0.014,0-0.015l0,0c0.008-1.722,1.249-3.212,2.803-3.325l0,0c0.061-0.006,0.123-0.006,0.18-0.006l0,0
	c1.478,0,2.628,1.294,2.63,2.94l0,0c0,0.003,0,0.008,0,0.018l0,0c-0.01,1.722-1.256,3.213-2.814,3.328l0,0l0,0l-0.006-0.088
	l0.005,0.088c-0.06,0.003-0.119,0.003-0.175,0.003l0,0C126.512,61.072,125.366,59.778,125.363,58.129L125.363,58.129z
	 M128.188,55.053c-1.391,0.093-2.556,1.463-2.56,3.064l0,0c0,0.006,0,0.011,0,0.011v0.001c0.001,1.531,1.047,2.677,2.356,2.68l0,0
	c0.052,0,0.104,0,0.159-0.003l0,0v-0.002c1.391-0.093,2.56-1.464,2.566-3.063l0,0c0-0.003,0-0.009,0-0.017l0,0
	c-0.004-1.528-1.054-2.674-2.365-2.677l0,0C128.295,55.047,128.24,55.049,128.188,55.053L128.188,55.053z"/>
<linearGradient id="SVGID_29_" gradientUnits="userSpaceOnUse" x1="127.1484" y1="61.9873" x2="127.1484" y2="52.3817">
	<stop  offset="0" style="stop-color:#805F26"/>
	<stop  offset="1" style="stop-color:#E2D0AC"/>
</linearGradient>
<path fill="url(#SVGID_29_)" d="M129.118,54.098c-0.31-0.08-0.64-0.114-0.979-0.088c-1.914,0.132-3.474,1.983-3.483,4.135
	c-0.006,1.77,1.034,3.191,2.468,3.564l0.524,0.137c-1.435-0.375-2.477-1.795-2.469-3.563c0.01-2.152,1.567-4.004,3.48-4.138
	c0.342-0.024,0.67,0.008,0.98,0.09L129.118,54.098z"/>
<radialGradient id="SVGID_30_" cx="126.1348" cy="54.46" r="8.2046" gradientUnits="userSpaceOnUse">
	<stop  offset="0.3297" style="stop-color:#EFE8B2"/>
	<stop  offset="1" style="stop-color:#D78329"/>
</radialGradient>
<path fill="url(#SVGID_30_)" d="M128.66,54.145c1.918-0.134,3.463,1.501,3.451,3.651c-0.01,2.152-1.567,4.006-3.484,4.14
	c-1.911,0.132-3.456-1.501-3.447-3.653C125.189,56.13,126.747,54.278,128.66,54.145z M128.637,59.884
	c0.904-0.064,1.644-0.94,1.649-1.958c0.003-1.021-0.729-1.794-1.633-1.73c-0.908,0.063-1.646,0.94-1.649,1.958
	C126.998,59.173,127.731,59.945,128.637,59.884"/>
<path fill="#666666" d="M135.037,54.981c-0.006-0.033-0.027-0.056-0.043-0.084c-0.019-0.18-0.037-0.361-0.037-0.55
	c0.002-0.247,0.02-0.456,0.061-0.698c0.027-0.172-0.08-0.338-0.248-0.382l-1.027-0.271c-0.093-0.025-0.191-0.008-0.271,0.043
	c-0.08,0.052-0.136,0.135-0.149,0.23c-0.043,0.263-0.071,0.512-0.071,0.797c0,0.193,0.021,0.378,0.041,0.563l-0.672,0.471
	c-0.006,0.005-0.009,0.014-0.015,0.02c-0.008,0.006-0.018,0.007-0.025,0.015c-0.021,0.021-0.03,0.048-0.045,0.073
	c-0.012,0.019-0.027,0.035-0.034,0.056c-0.017,0.043-0.018,0.089-0.014,0.135c0,0.014-0.008,0.025-0.004,0.038
	c0,0.001,0.001,0.002,0.001,0.004c0.001,0.002,0,0.004,0,0.007c0.052,0.243,0.121,0.479,0.209,0.72
	c0.035,0.101,0.117,0.179,0.219,0.21l1.024,0.313c0.033,0.009,0.065,0.014,0.099,0.014c0.09,0,0.18-0.036,0.245-0.105
	c0.088-0.093,0.117-0.227,0.074-0.346c-0.048-0.132-0.087-0.297-0.123-0.463l0.669-0.475
	C135.007,55.243,135.062,55.11,135.037,54.981z"/>
<path fill="#684F8D" d="M134.64,55.068l-1.023-0.276c-0.035-0.23-0.054-0.473-0.054-0.72c0.001-0.265,0.025-0.489,0.066-0.743
	l1.024,0.271c-0.041,0.255-0.063,0.486-0.063,0.75C134.59,54.598,134.607,54.838,134.64,55.068z"/>
<path fill="#684F8D" d="M138.026,48.969l-1.027-0.268c0.112-0.019,0.205-0.026,0.299-0.032c0.125-0.011,0.251-0.012,0.374-0.011
	l1.047,0.26c-0.124-0.003-0.268,0.011-0.393,0.019C138.23,48.945,138.137,48.953,138.026,48.969z"/>
<polygon fill="#684F8D" points="141.584,52.036 140.556,51.77 141.536,51.534 142.563,51.801 "/>
<polygon fill="#684F8D" points="140.73,58.334 139.701,58.065 139.012,57.319 140.038,57.587 "/>
<polygon fill="#684F8D" points="140.038,50.351 139.012,50.083 139.72,49.265 140.747,49.533 "/>
<polygon fill="#684F8D" points="137.963,59.3 136.981,59.002 136.788,57.942 137.815,58.21 "/>
<linearGradient id="SVGID_31_" gradientUnits="userSpaceOnUse" x1="136.4404" y1="57.3975" x2="136.2825" y2="59.6214">
	<stop  offset="0" style="stop-color:#5D4098"/>
	<stop  offset="1" style="stop-color:#C6ACD2"/>
</linearGradient>
<path fill="url(#SVGID_31_)" d="M137.252,58.117l-1.028-0.27c-0.229-0.061-0.449-0.144-0.659-0.253l1.028,0.269
	C136.801,57.971,137.021,58.058,137.252,58.117z"/>
<polygon fill="#684F8D" points="137.842,50.056 136.814,49.787 136.999,48.701 138.026,48.969 "/>
<polygon fill="#684F8D" points="135.357,58.279 134.33,58.011 134.736,56.98 135.766,57.25 "/>
<path fill="#684F8D" d="M135.895,58.705l-1.044-0.309c-0.191-0.12-0.361-0.246-0.521-0.386l1.027,0.269
	C135.518,58.418,135.702,58.583,135.895,58.705z"/>
<path fill="#684F8D" d="M136.66,50.553l-1.028-0.268c0.363-0.235,0.763-0.407,1.183-0.498l1.027,0.269
	C137.422,50.15,137.021,50.32,136.66,50.553z"/>
<path fill="#684F8D" d="M135.766,57.25l-1.029-0.27c-0.313-0.314-0.57-0.69-0.761-1.125l1.028,0.269
	C135.193,56.556,135.452,56.937,135.766,57.25z"/>
<polygon fill="#684F8D" points="133.843,55.657 132.813,55.389 133.67,54.786 134.696,55.053 "/>
<polygon fill="#684F8D" points="134.068,52.429 133.037,52.158 134.017,52.214 135.043,52.481 "/>
<polygon fill="#684F8D" points="134.71,53.6 133.684,53.332 132.829,52.864 133.862,53.135 "/>
<path fill="#684F8D" d="M135.043,52.481l-1.026-0.268c0.194-0.443,0.452-0.851,0.764-1.196l1.027,0.267
	C135.498,51.634,135.237,52.038,135.043,52.481z"/>
<polygon fill="#684F8D" points="135.808,51.284 134.78,51.018 134.367,50.058 135.396,50.326 "/>
<path fill="#684F8D" d="M135.364,50.34l-0.997-0.282c0.18-0.18,0.356-0.331,0.54-0.47l1.047,0.227
	C135.77,49.954,135.544,50.162,135.364,50.34z"/>
<path fill="#684F8D" d="M134.029,56.375l-1.021-0.312c-0.083-0.229-0.146-0.447-0.195-0.675l1.03,0.249
	C133.893,55.864,133.948,56.146,134.029,56.375z"/>
<path fill="#684F8D" d="M133.856,53.17l-1.027-0.306c0.061-0.254,0.128-0.482,0.208-0.706l1.031,0.23
	C133.987,52.61,133.914,52.916,133.856,53.17z"/>
<linearGradient id="SVGID_32_" gradientUnits="userSpaceOnUse" x1="136.7939" y1="53.9897" x2="140.001" y2="53.9897">
	<stop  offset="0" style="stop-color:#442871"/>
	<stop  offset="1" style="stop-color:#A996BF"/>
</linearGradient>
<path fill="url(#SVGID_32_)" d="M140.001,53.979c0.001-0.866-0.509-1.561-1.212-1.744l-1.029-0.269
	c0.705,0.184,1.215,0.878,1.214,1.747c-0.009,1.056-0.77,1.959-1.707,2.024l0.001,0.001c-0.165,0.013-0.323-0.003-0.474-0.042
	l1.026,0.268c0.152,0.041,0.313,0.056,0.48,0.044h-0.004C139.233,55.94,139.992,55.035,140.001,53.979z"/>
<linearGradient id="SVGID_33_" gradientUnits="userSpaceOnUse" x1="142.1826" y1="59.3208" x2="136.6152" y2="51.8322">
	<stop  offset="0" style="stop-color:#442871"/>
	<stop  offset="1" style="stop-color:#CCBFD7"/>
</linearGradient>
<path fill="url(#SVGID_33_)" d="M141.851,54.519l0.849,0.483c-0.051,0.229-0.111,0.454-0.189,0.671l-0.959-0.068
	c-0.189,0.451-0.434,0.853-0.726,1.2l0.398,0.974c-0.154,0.158-0.316,0.307-0.487,0.441l-0.7-0.696
	c-0.379,0.263-0.786,0.447-1.219,0.551l-0.198,1.092c-0.113,0.019-0.228,0.031-0.342,0.038c-0.086,0.005-0.171,0.008-0.254,0.01
	l-0.173-1.055c-0.457-0.033-0.875-0.153-1.249-0.353l-0.725,0.79c-0.165-0.104-0.322-0.223-0.474-0.351l0.417-1.014
	c-0.326-0.328-0.587-0.71-0.777-1.145l-0.968,0.189c-0.069-0.197-0.13-0.401-0.177-0.612l0.854-0.583
	c-0.038-0.244-0.057-0.48-0.057-0.722c0.002-0.258,0.024-0.515,0.068-0.763l-0.844-0.481c0.052-0.22,0.114-0.433,0.19-0.641
	l0.965,0.069c0.2-0.464,0.463-0.871,0.775-1.221l-0.398-0.968c0.158-0.153,0.322-0.298,0.494-0.428l0.703,0.703
	c0.383-0.245,0.785-0.416,1.21-0.509l0.2-1.085c0.087-0.012,0.174-0.022,0.261-0.027c0.119-0.009,0.236-0.011,0.352-0.011
	l0.177,1.066c0.428,0.043,0.817,0.166,1.173,0.355l0.722-0.79c0.174,0.111,0.341,0.238,0.497,0.379l-0.419,1.018
	c0.297,0.31,0.536,0.665,0.715,1.063l0.972-0.191c0.077,0.209,0.142,0.429,0.19,0.653l-0.855,0.582
	c0.039,0.244,0.058,0.479,0.056,0.722C141.899,54.079,141.881,54.302,141.851,54.519z M138.291,56.061
	c0.957-0.068,1.739-0.995,1.743-2.073c0.004-1.077-0.768-1.899-1.728-1.831c-0.957,0.067-1.738,0.995-1.742,2.073
	C136.559,55.307,137.333,56.127,138.291,56.061"/>
<linearGradient id="SVGID_34_" gradientUnits="userSpaceOnUse" x1="138.9365" y1="55.2998" x2="136.7016" y2="51.1045">
	<stop  offset="0" style="stop-color:#7D5F9C"/>
	<stop  offset="1" style="stop-color:#FFFFFF"/>
</linearGradient>
<path fill="url(#SVGID_34_)" d="M137.777,58.24c-0.42-0.038-0.806-0.152-1.157-0.327l0,0l-0.729,0.796l-0.062-0.041
	c-0.167-0.106-0.328-0.225-0.481-0.356l0,0l-0.048-0.041l0.419-1.02c-0.3-0.309-0.545-0.668-0.728-1.066l0,0l-0.973,0.19
	l-0.023-0.07c-0.072-0.199-0.133-0.408-0.181-0.621l0,0l-0.013-0.057l0.856-0.588c-0.031-0.222-0.048-0.438-0.048-0.66l0,0
	c0-0.006,0-0.014,0-0.019l0,0c0.001-0.244,0.021-0.484,0.058-0.719l0,0l-0.845-0.482l0.014-0.063
	c0.053-0.222,0.117-0.438,0.191-0.651l0,0l0.022-0.061l0.97,0.071c0.193-0.432,0.44-0.816,0.73-1.15l0,0l-0.398-0.971l0.041-0.041
	c0.158-0.154,0.325-0.302,0.499-0.434l0,0l0.061-0.046l0.71,0.708c0.354-0.221,0.728-0.38,1.122-0.471l0,0l0.203-1.091l0.06-0.008
	c0.088-0.014,0.178-0.022,0.268-0.029l0,0c0.1-0.007,0.2-0.009,0.299-0.009l0,0c0.019,0,0.039,0,0.06,0l0,0l0.072,0.002l0.176,1.069
	c0.392,0.047,0.751,0.162,1.079,0.329l0,0l0.729-0.797l0.06,0.041c0.179,0.113,0.348,0.244,0.51,0.387l0,0l0.045,0.04l-0.422,1.023
	c0.271,0.29,0.493,0.618,0.663,0.984l0,0l0.977-0.193l0.026,0.07c0.078,0.211,0.144,0.435,0.194,0.662l0,0l0.013,0.058l-0.858,0.585
	c0.032,0.224,0.05,0.438,0.05,0.659l0,0c0,0.008,0,0.012,0,0.021l0,0c-0.002,0.208-0.016,0.414-0.046,0.615l0,0l0.854,0.485
	l-0.013,0.063c-0.051,0.231-0.114,0.459-0.191,0.683l0,0l-0.022,0.062l-0.963-0.069c-0.181,0.419-0.411,0.796-0.684,1.125l0,0
	l0.402,0.977l-0.039,0.041c-0.156,0.163-0.323,0.312-0.496,0.448l0,0l-0.06,0.049l-0.704-0.7c-0.355,0.237-0.733,0.408-1.132,0.512
	l0,0l-0.202,1.097l-0.061,0.008c-0.116,0.019-0.231,0.032-0.35,0.039l0,0c-0.087,0.007-0.172,0.01-0.258,0.01l0,0l-0.072,0.001
	L137.777,58.24L137.777,58.24z M136.641,57.731c0.365,0.192,0.769,0.31,1.217,0.343l0,0l0.067,0.002l0.172,1.048
	c0.059,0,0.116-0.002,0.173-0.006l0,0c0.093-0.008,0.185-0.016,0.276-0.027l0,0l0.198-1.086l0.056-0.013
	c0.419-0.102,0.814-0.284,1.188-0.539l0,0l0.06-0.039l0.696,0.689c0.132-0.108,0.259-0.226,0.381-0.347l0,0l-0.4-0.968l0.034-0.038
	c0.287-0.342,0.528-0.736,0.713-1.18l0,0l0.024-0.06l0.956,0.07c0.059-0.175,0.107-0.354,0.15-0.538l0,0l-0.796-0.451l-0.051-0.03
	l0.01-0.056c0.031-0.215,0.049-0.434,0.049-0.647l0,0c0-0.013,0-0.021,0-0.024l0,0c0-0.23-0.018-0.454-0.055-0.688l0,0l-0.008-0.051
	l0.851-0.582c-0.041-0.177-0.092-0.348-0.149-0.515l0,0l-0.968,0.191l-0.027-0.063c-0.172-0.393-0.407-0.737-0.696-1.041l0,0
	l-0.04-0.041l0.42-1.012c-0.124-0.105-0.25-0.201-0.384-0.291l0,0l-0.717,0.786l-0.059-0.031c-0.345-0.184-0.723-0.304-1.142-0.347
	l0,0l-0.065-0.006l-0.175-1.059c-0.09,0-0.181,0.003-0.271,0.008l0,0c-0.064,0.006-0.13,0.01-0.194,0.021l0,0l-0.199,1.082
	l-0.056,0.012c-0.416,0.085-0.809,0.254-1.181,0.494l0,0l-0.058,0.039l-0.703-0.698c-0.13,0.104-0.258,0.216-0.381,0.334l0,0
	l0.396,0.96l-0.035,0.041c-0.309,0.345-0.566,0.744-0.763,1.201l0,0l-0.023,0.057l-0.961-0.07c-0.058,0.164-0.108,0.334-0.15,0.508
	l0,0l0.841,0.479l-0.011,0.061c-0.042,0.243-0.065,0.493-0.067,0.749l0,0c0,0.003,0,0.011,0,0.017l0,0
	c0,0.23,0.02,0.455,0.056,0.689l0,0l0.008,0.052l-0.85,0.582c0.036,0.162,0.084,0.321,0.136,0.475l0,0l0.962-0.189l0.028,0.065
	c0.187,0.424,0.441,0.799,0.76,1.119l0,0l0.041,0.041l-0.415,1.007c0.114,0.095,0.231,0.186,0.354,0.267l0,0l0.722-0.787
	L136.641,57.731L136.641,57.731z M136.478,54.237c0-0.003,0-0.008,0-0.008l0,0c0.006-1.119,0.812-2.087,1.823-2.159l0,0
	c0.039-0.005,0.077-0.005,0.115-0.007l0,0c0.96,0.002,1.702,0.842,1.704,1.913l0,0c0,0.001,0,0.004,0,0.011l0,0
	c-0.005,1.117-0.811,2.084-1.824,2.158l0,0l0,0l-0.004-0.055l0.004,0.055c-0.041,0.003-0.079,0.003-0.115,0.003l0,0
	C137.224,56.148,136.479,55.31,136.478,54.237L136.478,54.237z M138.313,52.241c-0.903,0.062-1.658,0.951-1.662,1.988l0,0
	c0,0.007,0,0.008,0,0.008l0,0c0,0.995,0.681,1.736,1.53,1.739l0,0c0.034,0,0.069-0.001,0.103-0.003l0,0l0,0
	c0.905-0.061,1.661-0.949,1.665-1.986l0,0c0-0.004,0-0.008,0-0.011l0,0c-0.002-0.992-0.682-1.738-1.532-1.739l0,0
	C138.382,52.237,138.347,52.238,138.313,52.241L138.313,52.241z"/>
<linearGradient id="SVGID_35_" gradientUnits="userSpaceOnUse" x1="137.6387" y1="56.7144" x2="137.6387" y2="50.4769">
	<stop  offset="0" style="stop-color:#805F26"/>
	<stop  offset="1" style="stop-color:#E2D0AC"/>
</linearGradient>
<path fill="url(#SVGID_35_)" d="M138.917,51.592c-0.201-0.054-0.415-0.075-0.635-0.058c-1.242,0.085-2.257,1.289-2.262,2.687
	c-0.005,1.146,0.672,2.07,1.603,2.312l0.34,0.09c-0.933-0.243-1.608-1.165-1.604-2.312c0.007-1.4,1.019-2.603,2.261-2.688
	c0.223-0.017,0.435,0.005,0.637,0.058L138.917,51.592z"/>
<radialGradient id="SVGID_36_" cx="136.9795" cy="51.8281" r="5.3252" gradientUnits="userSpaceOnUse">
	<stop  offset="0.3297" style="stop-color:#EFE8B2"/>
	<stop  offset="1" style="stop-color:#D78329"/>
</radialGradient>
<path fill="url(#SVGID_36_)" d="M138.62,51.623c1.243-0.088,2.244,0.974,2.239,2.37c-0.007,1.397-1.018,2.599-2.261,2.687
	c-1.242,0.087-2.245-0.974-2.239-2.369C136.366,52.91,137.378,51.708,138.62,51.623z M138.604,55.35
	c0.588-0.043,1.066-0.611,1.069-1.273c0.004-0.662-0.471-1.165-1.059-1.124c-0.588,0.043-1.067,0.612-1.071,1.273
	C137.54,54.888,138.018,55.391,138.604,55.35"/>
<path fill="#666666" d="M134.311,60.757c-0.029-0.13-0.13-0.231-0.258-0.259l-1.143-0.249c-0.097-0.021-0.198,0.002-0.276,0.061
	c-0.215,0.161-0.42,0.339-0.627,0.548c-0.098,0.098-0.126,0.246-0.07,0.373l0.368,0.854c-0.281,0.342-0.516,0.729-0.706,1.139
	l-0.731-0.162c-0.168-0.037-0.338,0.055-0.395,0.217c-0.092,0.258-0.169,0.519-0.236,0.808c-0.043,0.176,0.059,0.354,0.232,0.404
	l1.123,0.332c0.03,0.01,0.063,0.015,0.094,0.015c0.061,0,0.121-0.018,0.174-0.048c0.082-0.048,0.138-0.127,0.159-0.218
	c0.049-0.222,0.112-0.479,0.176-0.682l0.706,0.185c0.027,0.007,0.057,0.011,0.084,0.011c0.132,0,0.256-0.077,0.312-0.201
	c0.2-0.452,0.463-0.866,0.779-1.221c0.088-0.099,0.11-0.238,0.06-0.359l-0.366-0.847c0.144-0.133,0.295-0.264,0.417-0.355
	C134.29,61.02,134.341,60.886,134.311,60.757z"/>
<path fill="#397DA5" d="M136.235,59.904l-1.121-0.293c0.121-0.018,0.223-0.027,0.326-0.034c0.138-0.011,0.275-0.013,0.408-0.011
	l1.143,0.282c-0.134-0.003-0.293,0.012-0.43,0.02C136.459,59.875,136.356,59.887,136.235,59.904z"/>
<polygon fill="#397DA5" points="140.114,63.249 138.996,62.958 140.064,62.698 141.184,62.993 "/>
<polygon fill="#397DA5" points="139.185,70.12 138.064,69.825 137.31,69.009 138.431,69.302 "/>
<polygon fill="#397DA5" points="138.431,61.41 137.31,61.119 138.082,60.225 139.202,60.518 "/>
<polygon fill="#397DA5" points="136.165,71.171 135.096,70.847 134.887,69.69 136.006,69.983 "/>
<linearGradient id="SVGID_37_" gradientUnits="userSpaceOnUse" x1="134.5068" y1="69.1006" x2="134.3357" y2="71.5112">
	<stop  offset="0" style="stop-color:#646767"/>
	<stop  offset="1" style="stop-color:#CDCECD"/>
</linearGradient>
<path fill="url(#SVGID_37_)" d="M135.391,69.88l-1.121-0.291c-0.25-0.066-0.49-0.158-0.718-0.275l1.12,0.289
	C134.899,69.724,135.141,69.815,135.391,69.88z"/>
<polygon fill="#397DA5" points="136.034,61.09 134.913,60.794 135.114,59.611 136.235,59.904 "/>
<polygon fill="#397DA5" points="133.326,70.058 132.205,69.767 132.646,68.644 133.77,68.937 "/>
<path fill="#397DA5" d="M133.91,70.522l-1.14-0.336c-0.209-0.133-0.393-0.27-0.565-0.42l1.121,0.291
	C133.498,70.21,133.701,70.39,133.91,70.522z"/>
<path fill="#397DA5" d="M134.744,61.631l-1.12-0.293c0.396-0.256,0.83-0.44,1.289-0.543l1.121,0.295
	C135.575,61.191,135.141,61.377,134.744,61.631z"/>
<path fill="#397DA5" d="M133.77,68.937l-1.123-0.293c-0.34-0.344-0.624-0.758-0.828-1.229l1.121,0.293
	C133.145,68.177,133.428,68.593,133.77,68.937z"/>
<polygon fill="#397DA5" points="131.674,67.198 130.548,66.907 131.484,66.247 132.604,66.538 "/>
<polygon fill="#397DA5" points="131.918,63.677 130.794,63.382 131.86,63.442 132.982,63.735 "/>
<polygon fill="#397DA5" points="132.621,64.954 131.499,64.661 130.567,64.153 131.693,64.448 "/>
<path fill="#397DA5" d="M132.982,63.735l-1.122-0.293c0.213-0.484,0.495-0.925,0.835-1.306l1.121,0.293
	C133.477,62.812,133.194,63.253,132.982,63.735z"/>
<path fill="#397DA5" d="M132.604,66.558l-1.118-0.305c-0.037-0.252-0.058-0.514-0.057-0.783c0-0.289,0.027-0.533,0.072-0.811
	l1.119,0.295c-0.046,0.277-0.071,0.529-0.072,0.818C132.549,66.042,132.567,66.304,132.604,66.558z"/>
<polygon fill="#397DA5" points="133.816,62.43 132.695,62.137 132.245,61.092 133.366,61.385 "/>
<path fill="#397DA5" d="M133.332,61.396l-1.087-0.305c0.195-0.197,0.388-0.363,0.589-0.513l1.141,0.248
	C133.774,60.978,133.527,61.205,133.332,61.396z"/>
<path fill="#397DA5" d="M131.876,67.979l-1.115-0.34c-0.09-0.248-0.158-0.486-0.213-0.732l1.126,0.27
	C131.728,67.423,131.787,67.733,131.876,67.979z"/>
<path fill="#397DA5" d="M131.688,64.485l-1.12-0.332c0.066-0.277,0.139-0.525,0.227-0.771l1.124,0.252
	C131.829,63.876,131.749,64.208,131.688,64.485z"/>
<linearGradient id="SVGID_38_" gradientUnits="userSpaceOnUse" x1="134.8916" y1="65.3789" x2="138.3887" y2="65.3789">
	<stop  offset="0" style="stop-color:#025386"/>
	<stop  offset="1" style="stop-color:#83B5CE"/>
</linearGradient>
<path fill="url(#SVGID_38_)" d="M138.389,65.37c0.003-0.945-0.555-1.703-1.322-1.906l-1.122-0.293
	c0.769,0.203,1.326,0.959,1.323,1.906c-0.009,1.15-0.84,2.139-1.861,2.213h0.003c-0.181,0.014-0.354-0.006-0.518-0.047l1.121,0.291
	c0.165,0.043,0.339,0.063,0.521,0.049l-0.003-0.002C137.552,67.505,138.381,66.519,138.389,65.37z"/>
<linearGradient id="SVGID_39_" gradientUnits="userSpaceOnUse" x1="140.7686" y1="71.1953" x2="134.6964" y2="63.0279">
	<stop  offset="0" style="stop-color:#025386"/>
	<stop  offset="1" style="stop-color:#A3D7F4"/>
</linearGradient>
<path fill="url(#SVGID_39_)" d="M140.405,65.958l0.928,0.525c-0.057,0.248-0.123,0.492-0.207,0.734l-1.046-0.078
	c-0.206,0.494-0.475,0.932-0.794,1.311l0.437,1.061c-0.168,0.172-0.345,0.336-0.53,0.482l-0.765-0.76
	c-0.415,0.287-0.858,0.49-1.327,0.604l-0.219,1.188c-0.123,0.018-0.248,0.031-0.373,0.043c-0.093,0.006-0.186,0.008-0.275,0.01
	l-0.189-1.15c-0.498-0.037-0.951-0.166-1.363-0.385l-0.789,0.863c-0.18-0.115-0.352-0.244-0.518-0.381l0.456-1.107
	c-0.357-0.357-0.641-0.775-0.848-1.25l-1.056,0.207c-0.076-0.215-0.142-0.438-0.194-0.666l0.932-0.639
	c-0.041-0.266-0.06-0.521-0.06-0.783c0.003-0.283,0.026-0.564,0.075-0.834l-0.922-0.523c0.057-0.24,0.124-0.475,0.207-0.701
	l1.051,0.078c0.221-0.506,0.507-0.951,0.848-1.335l-0.434-1.053c0.17-0.168,0.352-0.324,0.538-0.467l0.769,0.768
	c0.416-0.27,0.854-0.459,1.319-0.555l0.218-1.185c0.093-0.014,0.188-0.024,0.283-0.03c0.129-0.01,0.257-0.013,0.384-0.011
	l0.193,1.162c0.466,0.051,0.892,0.182,1.278,0.389l0.788-0.863c0.189,0.125,0.371,0.26,0.542,0.414l-0.458,1.109
	c0.325,0.34,0.585,0.728,0.78,1.161l1.059-0.209c0.085,0.227,0.155,0.467,0.21,0.713l-0.933,0.635
	c0.042,0.266,0.062,0.521,0.061,0.785C140.461,65.478,140.441,65.72,140.405,65.958z M136.524,67.638
	c1.044-0.072,1.896-1.086,1.902-2.26c0.004-1.176-0.839-2.07-1.886-1.998c-1.043,0.072-1.896,1.086-1.901,2.26
	C134.635,66.815,135.479,67.712,136.524,67.638"/>
<linearGradient id="SVGID_40_" gradientUnits="userSpaceOnUse" x1="137.2305" y1="66.8096" x2="134.7929" y2="62.2338">
	<stop  offset="0" style="stop-color:#5387AC"/>
	<stop  offset="1" style="stop-color:#FFFFFF"/>
</linearGradient>
<path fill="url(#SVGID_40_)" d="M135.964,70.015c-0.457-0.041-0.878-0.162-1.262-0.357l0,0l-0.795,0.871l-0.067-0.043
	c-0.184-0.119-0.358-0.25-0.525-0.393l0,0l-0.053-0.045l0.458-1.111c-0.326-0.336-0.594-0.727-0.793-1.162l0,0l-1.06,0.205
	l-0.03-0.074c-0.077-0.219-0.142-0.443-0.193-0.678l0,0l-0.015-0.064l0.935-0.639c-0.036-0.24-0.054-0.477-0.054-0.721l0,0
	c0-0.006,0-0.016,0-0.02l0,0c0.003-0.264,0.025-0.527,0.065-0.783l0,0l-0.924-0.525l0.016-0.068c0.057-0.244,0.127-0.48,0.209-0.711
	l0,0l0.025-0.068l1.057,0.078c0.211-0.469,0.48-0.891,0.797-1.253l0,0l-0.434-1.057l0.042-0.047c0.175-0.17,0.356-0.328,0.546-0.473
	l0,0l0.065-0.05l0.775,0.771c0.386-0.24,0.793-0.412,1.223-0.516l0,0l0.223-1.187l0.065-0.011c0.096-0.014,0.193-0.022,0.29-0.03
	l0,0c0.11-0.008,0.22-0.011,0.328-0.011l0,0c0.018,0,0.042,0,0.063,0l0,0l0.08,0.002l0.191,1.168
	c0.427,0.051,0.818,0.176,1.178,0.359l0,0l0.793-0.871l0.065,0.044c0.194,0.127,0.379,0.267,0.557,0.423l0,0l0.049,0.044
	l-0.462,1.115c0.297,0.316,0.54,0.675,0.725,1.073l0,0l1.065-0.209l0.029,0.074c0.084,0.232,0.154,0.475,0.211,0.725l0,0
	l0.013,0.063l-0.936,0.637c0.036,0.244,0.054,0.477,0.054,0.719l0,0c0,0.008,0,0.016,0,0.023l0,0
	c-0.001,0.227-0.017,0.451-0.048,0.672l0,0l0.931,0.531l-0.014,0.066c-0.057,0.252-0.124,0.5-0.21,0.746l0,0l-0.021,0.068
	l-1.052-0.078c-0.199,0.455-0.447,0.865-0.747,1.227l0,0l0.44,1.066l-0.044,0.043c-0.171,0.176-0.35,0.342-0.54,0.49l0,0
	l-0.065,0.055l-0.768-0.766c-0.388,0.258-0.8,0.445-1.235,0.559l0,0l-0.22,1.197l-0.067,0.008c-0.125,0.018-0.252,0.033-0.381,0.041
	l0,0c-0.094,0.006-0.188,0.01-0.279,0.012l0,0h-0.079L135.964,70.015L135.964,70.015z M134.726,69.458
	c0.397,0.213,0.836,0.34,1.326,0.375l0,0l0.073,0.006l0.187,1.141c0.064,0,0.128-0.002,0.188-0.008l0,0
	c0.103-0.008,0.204-0.018,0.303-0.031l0,0l0.216-1.184l0.062-0.014c0.456-0.109,0.886-0.307,1.295-0.586l0,0l0.064-0.043
	l0.759,0.752c0.145-0.117,0.281-0.244,0.415-0.377l0,0l-0.436-1.057l0.038-0.045c0.313-0.371,0.574-0.799,0.776-1.283l0,0
	l0.026-0.064l1.043,0.078c0.064-0.193,0.117-0.389,0.163-0.588l0,0l-0.866-0.494l-0.056-0.031l0.009-0.063
	c0.036-0.232,0.054-0.469,0.056-0.705l0,0c0-0.014,0-0.021,0-0.027l0,0c0-0.25-0.02-0.494-0.06-0.748l0,0l-0.011-0.059l0.928-0.635
	c-0.043-0.189-0.099-0.379-0.162-0.561l0,0l-1.054,0.209l-0.03-0.07c-0.189-0.426-0.444-0.802-0.763-1.132l0,0l-0.042-0.045
	l0.459-1.104c-0.135-0.116-0.273-0.22-0.419-0.318l0,0l-0.782,0.855l-0.064-0.033c-0.376-0.201-0.788-0.33-1.244-0.377l0,0
	l-0.072-0.006l-0.188-1.156c-0.1,0-0.198,0.003-0.299,0.009l0,0c-0.07,0.007-0.141,0.013-0.211,0.021l0,0l-0.217,1.18l-0.062,0.014
	c-0.452,0.094-0.881,0.277-1.287,0.541l0,0l-0.064,0.039l-0.765-0.76c-0.142,0.115-0.283,0.234-0.417,0.363l0,0l0.434,1.049
	l-0.04,0.045c-0.335,0.374-0.618,0.812-0.831,1.31l0,0l-0.026,0.061l-1.047-0.076c-0.063,0.18-0.118,0.365-0.163,0.555l0,0
	l0.914,0.52l-0.011,0.066c-0.046,0.266-0.07,0.539-0.073,0.818l0,0c0,0.004,0,0.012,0,0.018l0,0c0,0.25,0.021,0.496,0.062,0.752l0,0
	l0.008,0.059l-0.927,0.635c0.04,0.174,0.092,0.348,0.147,0.518l0,0l1.051-0.207l0.03,0.068c0.202,0.465,0.479,0.871,0.828,1.223l0,0
	l0.046,0.045l-0.456,1.098c0.126,0.105,0.257,0.201,0.39,0.289l0,0l0.786-0.857L134.726,69.458L134.726,69.458z M134.547,65.651
	c0-0.006,0-0.008,0-0.012l0,0c0.006-1.219,0.885-2.273,1.987-2.354l0,0c0.043-0.006,0.085-0.006,0.125-0.006l0,0
	c1.048,0,1.857,0.918,1.86,2.084l0,0c0,0.002,0,0.008,0,0.014l0,0c-0.006,1.219-0.886,2.271-1.989,2.354l0,0v0.002l-0.004-0.063
	l0.004,0.061c-0.045,0.004-0.086,0.004-0.126,0.004l0,0C135.359,67.735,134.549,66.819,134.547,65.651L134.547,65.651z
	 M136.549,63.474c-0.987,0.066-1.81,1.035-1.814,2.17l0,0c0,0.004,0,0.008,0,0.008l0,0c0.002,1.084,0.743,1.895,1.67,1.895l0,0
	c0.036,0,0.075,0,0.111-0.002l0,0l0,0c0.988-0.068,1.813-1.035,1.815-2.166l0,0c0-0.004,0-0.008,0-0.014l0,0
	c-0.001-1.082-0.742-1.895-1.672-1.896l0,0C136.624,63.468,136.586,63.47,136.549,63.474L136.549,63.474z"/>
<linearGradient id="SVGID_41_" gradientUnits="userSpaceOnUse" x1="135.8125" y1="68.3828" x2="135.8125" y2="61.5797">
	<stop  offset="0" style="stop-color:#805F26"/>
	<stop  offset="1" style="stop-color:#E2D0AC"/>
</linearGradient>
<path fill="url(#SVGID_41_)" d="M137.206,62.796c-0.219-0.059-0.452-0.082-0.692-0.063c-1.355,0.094-2.459,1.406-2.467,2.93
	c-0.006,1.252,0.731,2.256,1.749,2.521l0.369,0.098c-1.016-0.266-1.753-1.27-1.748-2.521c0.008-1.525,1.112-2.836,2.466-2.932
	c0.242-0.016,0.475,0.006,0.694,0.064L137.206,62.796z"/>
<radialGradient id="SVGID_42_" cx="135.0938" cy="63.0518" r="5.8086" gradientUnits="userSpaceOnUse">
	<stop  offset="0.3297" style="stop-color:#EFE8B2"/>
	<stop  offset="1" style="stop-color:#D78329"/>
</radialGradient>
<path fill="url(#SVGID_42_)" d="M136.883,62.829c1.354-0.096,2.447,1.064,2.442,2.588c-0.007,1.521-1.109,2.832-2.467,2.928
	c-1.353,0.094-2.449-1.061-2.441-2.584C134.425,64.235,135.529,62.925,136.883,62.829z M136.866,66.894
	c0.641-0.047,1.163-0.666,1.168-1.387c0.003-0.723-0.515-1.271-1.156-1.225c-0.643,0.043-1.166,0.664-1.17,1.387
	C135.705,66.392,136.224,66.937,136.866,66.894"/>
</g>

</svg>
