<?xml version="1.0" encoding="utf-8"?>
<!DOCTYPE svg PUBLIC "-//W3C//DTD SVG 1.0//EN" "http://www.w3.org/TR/2001/REC-SVG-20010904/DTD/svg10.dtd" [
<!ENTITY ns_svg "http://www.w3.org/2000/svg">
<!ENTITY ns_xlink "http://www.w3.org/1999/xlink">
]>
<svg xmlns="&ns_svg;" xmlns:xlink="&ns_xlink;" width="240" height="120" viewBox="0 0 240 120" overflow="visible" enable-background="new 0 0 240 120" xml:space="preserve">

<g id="Layer_1">

<path id="template" fill="none" d="M239.8,110c0,5.5-4.5,10-10,10H9.8c-5.5,0-10-4.5-10-10V10c0-5.5,4.5-10,10-10h220
	c5.5,0,10,4.5,10,10V110z"/>
<linearGradient id="DECAL_AREA_1_" gradientUnits="userSpaceOnUse" x1="69.75" y1="70" x2="69.75" y2="22.0005">
	<stop  offset="0" style="stop-color:#333333"/>
	<stop  offset="1" style="stop-color:#000000"/>
</linearGradient>
<path id="DECAL_AREA_2_" fill="url(#DECAL_AREA_1_)" d="M117.8,64c0,3.3-2.7,6-6,6h-84c-3.3,0-6-2.7-6-6V28c0-3.3,2.7-6,6-6h84
	c3.3,0,6,2.7,6,6V64z"/>
<linearGradient id="Reflection_2_" gradientUnits="userSpaceOnUse" x1="69.75" y1="45.75" x2="69.75" y2="21.75">
	<stop  offset="0" style="stop-color:#1A1A1A"/>
	<stop  offset="1" style="stop-color:#666666"/>
</linearGradient>
<path id="Reflection_1_" fill="url(#Reflection_2_)" d="M117.8,39.8c0,3.3-2.7,6-6,6h-84c-3.3,0-6-2.7-6-6v-12c0-3.3,2.7-6,6-6h84
	c3.3,0,6,2.7,6,6V39.8z"/>
<path id="DecalBorder" fill="none" stroke="#1A1A1A" stroke-width="2" d="M117.8,64c0,3.3-2.7,6-6,6h-84c-3.3,0-6-2.7-6-6V28
	c0-3.3,2.7-6,6-6h84c3.3,0,6,2.7,6,6V64z"/>
<g id="Borland">
	<path fill="#E5E5E5" d="M29.9,35.6h6.5c3,0,5.4,1.3,5.4,4.8c0,2.4-1,3.9-2.9,4.5v0.1c2.2,0.4,3.6,1.7,3.6,5.1
		c0,3.3-2.4,5.5-6.2,5.5h-6.3V35.6z M35.6,44.1c1.9,0,2.9-1.3,2.9-3.2c0-2.4-1.4-2.9-3.2-2.9h-2.2v6H35.6z M36.3,53.2
		c1.9,0,2.9-1.2,2.9-3.5c0-2.2-1.3-3.4-3.1-3.4h-3v6.9H36.3z"/>
	<path fill="#E5E5E5" d="M49.8,40.2c4.4,0,5.6,3.2,5.6,7.9c0,4.7-1.4,7.9-5.6,7.9c-4.2,0-5.6-3.2-5.6-7.9
		C44.2,43.4,45.4,40.2,49.8,40.2z M49.8,53.8c2.2,0,2.6-1.8,2.6-5.7c0-3.3-0.4-5.7-2.6-5.7c-2.2,0-2.6,2.4-2.6,5.7
		C47.2,51.9,47.6,53.8,49.8,53.8z"/>
	<path fill="#E5E5E5" d="M57.7,40.6h3v2.4h0.1c0.7-1.7,1.8-2.7,3.5-2.7c0.3,0,0.5,0.1,0.7,0.1v3.1c-0.2-0.1-0.8-0.2-1.3-0.2
		c-1.4,0-3,0.6-3,3.4v9h-3V40.6z"/>
	<path fill="#E5E5E5" d="M66.7,35.6h3v20h-3V35.6z"/>
	<path fill="#E5E5E5" d="M82.7,52.5c0,0.6,0.3,1.1,0.8,1.1c0.2,0,0.4,0,0.5-0.1v2c-0.4,0.2-0.9,0.4-1.5,0.4c-1.3,0-2.5-0.5-2.5-2
		h-0.1c-0.8,1.5-2,2.2-3.8,2.2c-2.4,0-3.9-1.3-3.9-4.2c0-3.4,1.5-4.1,3.5-4.7l2.4-0.6c1.1-0.3,1.8-0.6,1.8-1.9
		c0-1.4-0.5-2.2-2.1-2.2c-2,0-2.3,1.4-2.3,2.9h-2.9c0-3.2,1.3-5,5.3-5c2.7,0,4.8,1,4.8,3.7V52.5z M79.8,47.7c-0.8,0.6-2.5,1-3.4,1.4
		c-0.9,0.4-1.2,1.3-1.2,2.4c0,1.3,0.6,2.3,1.9,2.3c1.8,0,2.7-1.4,2.7-3.6V47.7z"/>
	<path fill="#E5E5E5" d="M85.7,40.6h2.9v1.8h0.1c0.8-1.3,2.2-2.2,3.9-2.2c2.3,0,3.8,1,3.8,4.1v11.4h-3V45.3c0-2-0.6-2.7-2.1-2.7
		c-1.2,0-2.4,1-2.4,2.9v10.1h-3V40.6z"/>
	<path fill="#E5E5E5" d="M106.9,53.8L106.9,53.8c-0.4,1-1.2,2.2-3.4,2.2c-3.5,0-4.9-2.9-4.9-8.1c0-6.7,2.4-7.7,4.6-7.7
		c1.6,0,2.9,0.8,3.4,2.2h0.1v-6.7h3v20h-2.9V53.8z M104.2,42.6c-1.7,0-2.4,1.4-2.4,5.5c0,3.4,0.4,5.6,2.5,5.6c2.1,0,2.5-2.1,2.5-5.3
		C106.9,44.6,106.5,42.6,104.2,42.6z"/>
</g>

<defs>
</defs>
<path id="Background_1_" fill="none" d="M240,110c0,5.523-4.478,10-10,10H10c-5.523,0-10-4.477-10-10V10C0,4.477,4.477,0,10,0h220
	c5.522,0,10,4.477,10,10V110z"/>
<path fill="#262626" d="M222.066,21.351l-4.148-1.083c-0.215-0.056-0.427-0.077-0.65-0.061l-52.663,3.797
	c-1.043,0.075-1.851,0.943-1.855,1.986l-0.197,44.681c-0.004,0.732,0.392,1.405,1.034,1.759l2.03,1.118
	c0.293,0.162,0.637,0.25,0.977,0.25c0.043,0,0.086-0.002,0.128-0.005l54.783-3.832c1.048-0.072,1.855-0.937,1.859-1.985
	l0.176-39.446c0.016-0.101,0.023-0.205,0.023-0.31v-4.934C223.563,22.375,222.949,21.582,222.066,21.351z"/>
<linearGradient id="SVGID_1_" gradientUnits="userSpaceOnUse" x1="165.666" y1="27.0127" x2="165.666" y2="70.9952">
	<stop  offset="0" style="stop-color:#CDCCCB"/>
	<stop  offset="1" style="stop-color:#A6A5A5"/>
</linearGradient>
<polygon fill="url(#SVGID_1_)" points="166.582,71.798 164.554,70.68 164.75,26 166.779,27.118 "/>
<linearGradient id="SVGID_2_" gradientUnits="userSpaceOnUse" x1="164.7295" y1="29.1963" x2="166.7793" y2="29.1963">
	<stop  offset="0" style="stop-color:#78A9C8"/>
	<stop  offset="1" style="stop-color:#84B5D4"/>
</linearGradient>
<polygon fill="url(#SVGID_2_)" points="166.74,32.393 164.729,31.278 164.75,26 166.779,27.118 "/>
<polygon fill="#84B5D4" points="166.779,27.118 164.75,26 217.416,22.203 221.563,23.287 "/>
<linearGradient id="SVGID_3_" gradientUnits="userSpaceOnUse" x1="194.0723" y1="28.6436" x2="194.0723" y2="69.9302">
	<stop  offset="0" style="stop-color:#FFFFFF"/>
	<stop  offset="1" style="stop-color:#E5E5E5"/>
</linearGradient>
<polygon fill="url(#SVGID_3_)" points="221.563,23.287 221.367,67.967 166.582,71.798 166.779,27.118 "/>
<linearGradient id="SVGID_4_" gradientUnits="userSpaceOnUse" x1="166.6895" y1="27.8345" x2="221.5645" y2="27.8345">
	<stop  offset="0" style="stop-color:#78A9C8"/>
	<stop  offset="1" style="stop-color:#5C91B4"/>
</linearGradient>
<polygon fill="url(#SVGID_4_)" points="221.563,23.287 221.564,28.221 166.689,32.382 166.711,27.091 "/>
<linearGradient id="SVGID_5_" gradientUnits="userSpaceOnUse" x1="219.2607" y1="27.2744" x2="219.2607" y2="24.4442">
	<stop  offset="0" style="stop-color:#BABABA"/>
	<stop  offset="1" style="stop-color:#E5E5E5"/>
</linearGradient>
<polygon fill="url(#SVGID_5_)" points="220.554,24.442 220.554,27.213 217.968,27.402 217.97,24.639 "/>
<linearGradient id="SVGID_6_" gradientUnits="userSpaceOnUse" x1="215.584" y1="27.5728" x2="215.584" y2="24.744">
	<stop  offset="0" style="stop-color:#BABABA"/>
	<stop  offset="1" style="stop-color:#E5E5E5"/>
</linearGradient>
<polygon fill="url(#SVGID_6_)" points="216.875,24.742 216.877,27.512 214.291,27.701 214.293,24.938 "/>
<path fill="#666666" d="M201.135,66.986c-0.132,0-0.256-0.027-0.372-0.072l0,0l-1.458-0.441c-0.354-0.109-0.618-0.404-0.684-0.77
	l0,0l-0.002-0.013l-0.032,0.037c-0.289,0.32-0.748,0.409-1.129,0.238l0,0l-1.532-0.457l-0.245-0.107
	c-0.348-0.219-0.658-0.451-0.943-0.702l0,0c-0.316-0.273-0.425-0.717-0.271-1.104l0,0l0.424-1.077
	c-0.049-0.063-0.098-0.126-0.145-0.192l0,0c-0.072-0.009-0.143-0.027-0.211-0.054l0,0l-1.541-0.473
	c-0.296-0.088-0.531-0.315-0.638-0.605l0,0c-0.146-0.397-0.26-0.791-0.347-1.184l0,0c-0.088-0.389,0.065-0.793,0.392-1.021l0,0
	l0.891-0.627c-0.017-0.212-0.025-0.427-0.025-0.644l0,0c0.002-0.024,0.002-0.046,0.005-0.062l0,0
	c0.001-0.206,0.01-0.399,0.026-0.587l0,0l-0.771-0.421c-0.058-0.031-0.111-0.068-0.158-0.108l0,0
	c-0.103-0.031-0.197-0.077-0.284-0.135l0,0c-0.128,0.048-0.257,0.097-0.389,0.141l0,0l-0.339,1.868
	c-0.079,0.423-0.423,0.745-0.85,0.799l0,0l-0.109,0.011c-0.297,0.048-0.582,0.074-0.862,0.095l0,0
	c-0.222,0.017-0.432,0.023-0.623,0.026l0,0l-0.161,0.004c-0.159,0.005-0.313-0.029-0.448-0.094l0,0l-2.042-0.614
	c-0.354-0.111-0.618-0.404-0.683-0.769l0,0l-0.15-0.82l-0.598,0.651c-0.293,0.321-0.76,0.409-1.146,0.226l0,0l-2.188-0.645
	l-0.237-0.108c-0.483-0.299-0.906-0.617-1.299-0.956l0,0c-0.318-0.271-0.429-0.717-0.272-1.108l0,0l0.688-1.739
	c-0.157-0.189-0.304-0.385-0.442-0.58l0,0c-0.151,0.002-0.301-0.03-0.434-0.091l0,0l-2.146-0.654
	c-0.292-0.089-0.526-0.311-0.634-0.602l0,0c-0.203-0.552-0.354-1.095-0.474-1.638l0,0c-0.088-0.39,0.067-0.792,0.393-1.02l0,0
	l1.438-1.014c-0.031-0.354-0.05-0.715-0.05-1.083l0,0c0-0.055,0.002-0.088,0.002-0.057l0,0c0.003-0.393,0.023-0.756,0.063-1.115l0,0
	l-1.319-0.723c-0.386-0.211-0.585-0.657-0.487-1.088l0,0c0.143-0.599,0.303-1.154,0.506-1.699l0,0
	c0.15-0.406,0.547-0.663,0.979-0.641l0,0l1.526,0.086c0.335-0.651,0.727-1.267,1.173-1.832l0,0l-0.684-1.594
	c-0.16-0.373-0.076-0.803,0.211-1.087l0,0c0.431-0.428,0.86-0.801,1.304-1.139l0,0c0.231-0.175,0.522-0.238,0.805-0.178l0,0
	l2.347,0.511c0.174,0.037,0.332,0.121,0.464,0.241l0,0c0.129-0.048,0.261-0.091,0.394-0.133l0,0l0.31-1.807
	c0.069-0.424,0.41-0.753,0.834-0.812l0,0c0.272-0.04,0.505-0.061,0.732-0.077l0,0c0.245-0.02,0.485-0.025,0.715-0.025l0,0
	c0.075,0,0.148,0,0.219,0.003l0,0l0.211,0.028l2.222,0.547c0.465,0.02,0.847,0.362,0.928,0.821l0,0l0.115,0.701l0.352-0.404
	c0.245-0.283,0.627-0.4,0.99-0.307l0,0l2.085,0.542c0.163,0.008,0.325,0.06,0.47,0.153l0,0l0.138,0.091
	c0.441,0.284,0.859,0.604,1.257,0.953l0,0l0.104,0.091c0.187,0.167,0.3,0.394,0.326,0.633l0,0l0.109,0.005
	c0.171-0.308,0.357-0.604,0.566-0.882l0,0l-0.366-0.848c-0.157-0.369-0.073-0.802,0.209-1.087l0,0
	c0.295-0.292,0.591-0.546,0.892-0.773l0,0c0.229-0.172,0.521-0.234,0.801-0.174l0,0l1.521,0.329
	c0.067,0.014,0.131,0.034,0.193,0.062l0,0l0.151-0.886c0.069-0.413,0.396-0.739,0.811-0.806l0,0c0.205-0.036,0.383-0.05,0.498-0.056
	l0,0c0.207-0.02,0.391-0.022,0.555-0.022l0,0c0.026,0,0.063,0,0.104,0.003l0,0l0.221,0.028l1.417,0.352
	c0.379,0.037,0.701,0.285,0.832,0.636l0,0c0.223-0.128,0.489-0.167,0.743-0.102l0,0l1.302,0.342
	c0.171,0.013,0.338,0.069,0.485,0.173l0,0l0.05,0.034c0.314,0.2,0.602,0.424,0.866,0.66l0,0l0.067,0.057
	c0.314,0.277,0.417,0.726,0.258,1.114l0,0l-0.383,0.926l1.495,0.387c0.31,0.081,0.563,0.309,0.677,0.613l0,0l0.034,0.096
	c0.135,0.356,0.239,0.727,0.324,1.103l0,0l0.019,0.083c0.082,0.392-0.079,0.794-0.408,1.023l0,0l-0.764,0.519
	c0.011,0.156,0.015,0.318,0.015,0.479l0,0v0.04c0,0.113-0.003,0.229-0.009,0.344l0,0l0.688,0.39c0.37,0.211,0.562,0.631,0.48,1.048
	l0,0l-0.021,0.112c-0.085,0.373-0.186,0.74-0.316,1.116l0,0l-0.033,0.088c-0.148,0.416-0.554,0.681-0.998,0.648l0,0l-0.734-0.052
	c-0.141,0.262-0.297,0.515-0.467,0.756l0,0l0.372,0.899c0.15,0.357,0.07,0.772-0.196,1.053l0,0l-0.063,0.065
	c-0.261,0.272-0.537,0.517-0.804,0.732l0,0l-0.089,0.071c-0.242,0.199-0.565,0.27-0.87,0.19l0,0l-1.501-0.392
	c-0.025-0.005-0.05-0.014-0.072-0.022l0,0l-0.181,0.964c-0.045,0.254-0.19,0.473-0.389,0.617l0,0l0.216,0.057
	c0.164,0.013,0.328,0.067,0.474,0.165l0,0l0.078,0.056c0.326,0.21,0.631,0.444,0.938,0.709l0,0l0.071,0.065
	c0.309,0.279,0.405,0.721,0.248,1.106l0,0l-0.445,1.075c0.009,0.014,0.017,0.024,0.027,0.037l0,0
	c0.021,0.002,0.042,0.008,0.063,0.014l0,0l1.63,0.428c0.302,0.08,0.551,0.301,0.667,0.592l0,0l0.048,0.135
	c0.139,0.378,0.251,0.77,0.346,1.184l0,0l0.021,0.089c0.082,0.393-0.08,0.794-0.411,1.019l0,0l-0.873,0.593
	c0.015,0.188,0.021,0.377,0.021,0.567l0,0v0.038c-0.002,0.146-0.006,0.29-0.015,0.434l0,0l0.803,0.46
	c0.372,0.21,0.563,0.634,0.479,1.052l0,0l-0.024,0.114c-0.089,0.394-0.197,0.792-0.329,1.167l0,0l-0.029,0.099
	c-0.14,0.436-0.558,0.719-1.014,0.686l0,0l-0.863-0.065c-0.169,0.316-0.354,0.617-0.555,0.902l0,0l0.423,1.028
	c0.153,0.367,0.067,0.791-0.213,1.075l0,0l-0.054,0.051c-0.272,0.282-0.566,0.554-0.86,0.782l0,0l-0.098,0.078
	c-0.242,0.207-0.571,0.277-0.881,0.199l0,0l-1.633-0.43c-0.059-0.016-0.116-0.037-0.172-0.063l0,0l-0.214,1.161
	c-0.077,0.419-0.419,0.742-0.843,0.798l0,0l-0.088,0.009c-0.193,0.029-0.403,0.055-0.621,0.066l0,0
	c-0.153,0.011-0.31,0.02-0.476,0.021l0,0H201.135L201.135,66.986z M199.217,62.896l0.332,0.086c0.373,0.094,0.655,0.397,0.722,0.776
	l0,0l0.181,1.003l0.841,0.254c0.059-0.002,0.119-0.006,0.182-0.009l0,0l0.186-1.016c0.068-0.377,0.353-0.678,0.721-0.774l0,0
	c0.278-0.071,0.566-0.185,0.862-0.326l0,0c0.391-0.188,0.855-0.095,1.151,0.222l0,0l0.049,0.051l0.861,0.227
	c0.009-0.006,0.016-0.011,0.021-0.017l0,0l-0.385-0.935c-0.139-0.337-0.082-0.721,0.149-1.001l0,0
	c0.374-0.454,0.688-0.97,0.944-1.553l0,0c0.169-0.386,0.561-0.623,0.978-0.592l0,0l0.175,0.013l-0.206-0.116
	c-0.352-0.2-0.546-0.599-0.485-0.997l0,0c0.04-0.27,0.059-0.553,0.063-0.834l0,0v-0.036c-0.004-0.304-0.024-0.592-0.069-0.902l0,0
	c-0.057-0.373,0.107-0.746,0.42-0.959l0,0l0.793-0.539c-0.001-0.001-0.001-0.005-0.004-0.01l0,0l-0.884-0.231l-0.047,0.013
	c-0.411,0.101-0.842-0.074-1.067-0.43l0,0c-0.182-0.285-0.365-0.536-0.568-0.753l0,0c-0.266-0.279-0.339-0.69-0.19-1.051l0,0
	l0.392-0.945c-0.051-0.037-0.104-0.072-0.156-0.108l0,0l-0.895-0.235l-0.632,0.732c-0.224,0.262-0.574,0.386-0.912,0.329l0,0
	c-0.094-0.017-0.153-0.034-0.185-0.042l0,0l0,0c-0.433-0.056-0.778-0.389-0.85-0.817l0,0l-0.171-1.044l-0.974-0.241l0,0l0,0
	c-0.032,0-0.066,0-0.1,0.001l0,0l-0.164,0.969c-0.068,0.395-0.366,0.708-0.753,0.797l0,0c-0.288,0.065-0.581,0.165-0.877,0.295l0,0
	c-0.37,0.163-0.803,0.083-1.088-0.201l0,0l-0.111-0.108l-0.956-0.21c-0.299-0.063-0.546-0.258-0.679-0.531l0,0
	c-0.134-0.271-0.134-0.587-0.002-0.858l0,0c0.104-0.206,0.17-0.311,0.185-0.351l0,0c0.164-0.386,0.559-0.627,0.978-0.596l0,0
	l1.392,0.104c0.029-0.095,0.055-0.188,0.079-0.284l0,0l-1.275-0.729c-0.352-0.199-0.545-0.592-0.486-0.989l0,0
	c0.057-0.413,0.089-0.829,0.089-1.241l0,0c-0.001-0.021-0.001-0.036,0-0.051l0,0c-0.001-0.45-0.032-0.881-0.101-1.337l0,0
	c-0.052-0.372,0.108-0.741,0.419-0.954l0,0l0.289-0.196c0.188-0.13,0.42-0.187,0.646-0.167l0,0l0.112-0.023
	c0.398-0.077,0.809,0.102,1.024,0.448l0,0c0.188,0.302,0.383,0.564,0.587,0.769l0,0c0.275,0.278,0.359,0.689,0.219,1.055l0,0
	l-0.316,0.803l0.778,0.228l0.601-0.654c0.245-0.271,0.623-0.382,0.976-0.287l0,0l0.298,0.077c0.369,0.099,0.647,0.398,0.717,0.774
	l0,0l0.161,0.871l0.708,0.219c0.027,0,0.057-0.001,0.087-0.003l0,0l0.16-0.871c0.069-0.377,0.349-0.678,0.721-0.774l0,0
	c0.25-0.065,0.509-0.165,0.777-0.295l0,0c0.389-0.183,0.855-0.096,1.146,0.222l0,0l0.026,0.028l0.64,0.167l-0.299-0.727
	c-0.141-0.335-0.081-0.727,0.153-1.004l0,0c0.335-0.403,0.623-0.87,0.85-1.397l0,0c0.145-0.339,0.461-0.56,0.817-0.591l0,0
	c-0.3-0.213-0.457-0.577-0.4-0.946l0,0c0.037-0.237,0.054-0.492,0.057-0.749l0,0v-0.03c0-0.272-0.022-0.533-0.061-0.824l0,0
	c-0.053-0.37,0.11-0.74,0.42-0.949l0,0l0.587-0.4l-0.629-0.165l-0.03,0.007c-0.41,0.099-0.84-0.077-1.063-0.436l0,0
	c-0.162-0.255-0.327-0.482-0.51-0.675l0,0c-0.263-0.282-0.339-0.694-0.191-1.05l0,0l0.333-0.809
	c-0.023-0.017-0.048-0.033-0.072-0.049l0,0l-0.759-0.2l-0.546,0.635c-0.228,0.258-0.573,0.382-0.914,0.325l0,0
	c-0.091-0.016-0.15-0.034-0.176-0.039l0,0v-0.003c-0.426-0.057-0.771-0.389-0.84-0.814l0,0l-0.15-0.908l-0.821-0.205
	c-0.007,0-0.01,0-0.016,0l0,0l-0.142,0.826c-0.065,0.395-0.37,0.712-0.761,0.797l0,0c-0.252,0.054-0.511,0.143-0.777,0.262l0,0
	c-0.373,0.166-0.807,0.084-1.097-0.203l0,0l-0.077-0.083l-0.566-0.122l0.251,0.584c0.153,0.358,0.087,0.762-0.172,1.048l0,0
	c-0.379,0.42-0.699,0.924-0.94,1.477l0,0c-0.126,0.287-0.377,0.491-0.669,0.563l0,0c0.271,0.291,0.348,0.728,0.166,1.103l0,0
	c-0.027,0.221-0.044,0.422-0.046,0.661l0,0c-0.001,0.301-0.146,0.589-0.385,0.775l0,0c-0.239,0.181-0.556,0.247-0.848,0.168l0,0
	l-0.389-0.101l-0.173,0.042c-0.41,0.097-0.838-0.075-1.062-0.433l0,0c-0.264-0.416-0.54-0.796-0.85-1.128l0,0
	c-0.263-0.284-0.338-0.692-0.19-1.048l0,0l0.674-1.624c-0.18-0.139-0.363-0.27-0.55-0.395l0,0l-1.572-0.406l-1.063,1.223
	c-0.225,0.258-0.569,0.38-0.907,0.325l0,0c-0.218-0.041-0.273-0.066-0.273-0.061l0,0c-0.433-0.054-0.784-0.384-0.854-0.817l0,0
	l-0.29-1.738l-1.671-0.413c-0.025,0-0.048,0-0.072,0l0,0c-0.16,0-0.317,0.004-0.467,0.013l0,0l-0.288,1.693
	c-0.068,0.396-0.369,0.711-0.758,0.797l0,0c-0.448,0.098-0.886,0.246-1.313,0.436l0,0c-0.373,0.165-0.801,0.083-1.091-0.202l0,0
	l-0.229-0.229l-1.614-0.351c-0.091,0.075-0.183,0.155-0.273,0.235l0,0l0.651,1.517c0.151,0.352,0.083,0.758-0.171,1.044l0,0
	c-0.621,0.698-1.147,1.525-1.546,2.429l0,0c-0.167,0.373-0.549,0.607-0.956,0.582l0,0l-1.437-0.079
	c-0.006,0.021-0.011,0.041-0.016,0.062l0,0l1.194,0.656c0.386,0.184,0.612,0.604,0.543,1.041l0,0
	c-0.084,0.535-0.128,0.976-0.134,1.558l0,0c0,0.477,0.037,0.948,0.104,1.403l0,0c0.056,0.368-0.104,0.735-0.406,0.951l0,0
	l-1.369,0.963c0.026,0.102,0.058,0.201,0.088,0.302l0,0l1.566,0.478l0.229-0.045c0.399-0.076,0.809,0.101,1.025,0.446l0,0
	c0.305,0.491,0.627,0.926,0.981,1.282l0,0c0.275,0.278,0.359,0.691,0.216,1.055l0,0l-0.646,1.632
	c0.128,0.093,0.26,0.183,0.397,0.275l0,0l1.621,0.475l1.146-1.248c0.245-0.27,0.622-0.379,0.977-0.287l0,0l0.461,0.118
	c0.369,0.095,0.65,0.401,0.72,0.779l0,0l0.301,1.657l1.489,0.451c0.172-0.004,0.339-0.011,0.492-0.022l0,0
	c0.054-0.006,0.106-0.009,0.159-0.013l0,0l0.319-1.745c0.069-0.377,0.354-0.68,0.726-0.774l0,0c0.436-0.114,0.864-0.275,1.291-0.478
	l0,0c0.391-0.188,0.857-0.097,1.149,0.218l0,0l0.145,0.153l0.094,0.027c0.227,0.058,0.411,0.191,0.542,0.363l0,0l0.973,0.53
	c0.385,0.186,0.614,0.606,0.544,1.047l0,0c-0.063,0.374-0.093,0.658-0.093,1.016l0,0l-0.001,0.021c0,0.333,0.024,0.655,0.07,0.966
	l0,0c0.042,0.279-0.041,0.571-0.227,0.787l0,0c-0.053,0.06-0.115,0.116-0.18,0.163l0,0l0,0l-0.682,0.481l0.73,0.223l0.099-0.02
	c0.401-0.076,0.807,0.103,1.022,0.449l0,0c0.207,0.333,0.424,0.626,0.655,0.861l0,0c0.272,0.275,0.356,0.688,0.216,1.051l0,0
	l-0.372,0.948c0.018,0.01,0.036,0.021,0.055,0.034l0,0l0.93,0.276l0.688-0.756c0.188-0.205,0.454-0.319,0.727-0.319l0,0
	C199.052,62.865,199.135,62.875,199.217,62.896L199.217,62.896z"/>
<path fill="#666666" d="M201.847,54.604l-0.075-0.06l-0.097,0.007c-0.195,0.013-0.389,0.052-0.571,0.108l-0.367,0.108l0.252,0.288
	c0.4,0.46,0.657,1.085,0.657,1.814c0,0-0.005,0.019,0,0.05c-0.024,1.311-0.85,2.443-1.908,2.803l-0.357,0.121l0.255,0.278
	c0.131,0.142,0.275,0.282,0.446,0.397l0.08,0.057l0.096-0.013c1.545-0.235,2.728-1.716,2.745-3.431l-0.005-0.016
	C203.002,56.066,202.549,55.161,201.847,54.604z"/>
<path fill="#666666" d="M205.481,40.581c0.003-0.975-0.415-1.818-1.065-2.331l-0.08-0.061l-0.093,0.008
	c-0.199,0.016-0.389,0.057-0.567,0.117l-0.348,0.11l0.232,0.281c0.345,0.411,0.563,0.964,0.567,1.608
	c-0.002,0.011,0,0.025,0.001,0.042c-0.016,1.188-0.752,2.219-1.705,2.554l-0.343,0.125l0.245,0.271
	c0.132,0.147,0.275,0.287,0.445,0.401l0.075,0.053l0.098-0.013c1.431-0.207,2.522-1.575,2.54-3.161
	C205.484,40.585,205.481,40.581,205.481,40.581z"/>
<path fill="#666666" d="M189.664,42.344l-0.078-0.058l-0.092,0.007c-0.207,0.016-0.391,0.064-0.56,0.104l-0.42,0.101l0.3,0.311
	c0.655,0.673,1.081,1.623,1.087,2.749c-0.002,0.014-0.002,0.031,0.003,0.051c-0.023,1.986-1.313,3.686-2.963,4.137l-0.415,0.116
	l0.31,0.301c0.142,0.135,0.293,0.264,0.461,0.38l0.078,0.054l0.098-0.014c2.125-0.316,3.768-2.366,3.784-4.747l-0.001-0.003
	C191.257,44.368,190.635,43.111,189.664,42.344z"/>
<linearGradient id="SVGID_7_" gradientUnits="userSpaceOnUse" x1="197.3906" y1="41.3042" x2="198.9795" y2="41.3042">
	<stop  offset="0.0051" style="stop-color:#335E8F"/>
	<stop  offset="1" style="stop-color:#8DADBC"/>
</linearGradient>
<path fill="url(#SVGID_7_)" d="M198.957,42.569l-1.489-0.401c-0.051-0.336-0.077-0.689-0.077-1.048
	c0.003-0.386,0.037-0.712,0.099-1.081l1.49,0.393c-0.061,0.371-0.092,0.708-0.094,1.092
	C198.886,41.884,198.912,42.235,198.957,42.569z"/>
<linearGradient id="SVGID_8_" gradientUnits="userSpaceOnUse" x1="201.5518" y1="45.9487" x2="201.322" y2="49.1845">
	<stop  offset="0" style="stop-color:#5D4098"/>
	<stop  offset="1" style="stop-color:#C6ACD2"/>
</linearGradient>
<path fill="url(#SVGID_8_)" d="M202.732,46.996l-1.497-0.392c-0.335-0.088-0.655-0.21-0.959-0.369l1.495,0.391
	C202.075,46.783,202.396,46.91,202.732,46.996z"/>
<polygon fill="#8C8E8E" points="196.866,42.093 194.568,41.491 196.757,40.967 199.057,41.566 "/>
<polygon fill="#8C8E8E" points="194.957,56.184 192.654,55.583 191.105,53.911 193.412,54.511 "/>
<polygon fill="#8C8E8E" points="193.41,38.321 191.105,37.721 192.691,35.895 194.994,36.494 "/>
<polygon fill="#8C8E8E" points="188.761,58.341 186.564,57.677 186.133,55.306 188.433,55.906 "/>
<linearGradient id="SVGID_9_" gradientUnits="userSpaceOnUse" x1="185.3584" y1="54.0894" x2="185.0059" y2="59.0539">
	<stop  offset="0" style="stop-color:#646767"/>
	<stop  offset="1" style="stop-color:#CDCECD"/>
</linearGradient>
<path fill="url(#SVGID_9_)" d="M187.173,55.696l-2.301-0.6c-0.517-0.133-1.009-0.327-1.474-0.566l2.299,0.602
	C186.162,55.372,186.655,55.563,187.173,55.696z"/>
<polygon fill="#8C8E8E" points="188.489,37.666 186.192,37.063 186.605,34.634 188.903,35.234 "/>
<path fill="#8C8E8E" d="M188.903,35.234l-2.298-0.6c0.25-0.036,0.457-0.056,0.668-0.071c0.282-0.02,0.563-0.024,0.837-0.02
	l2.341,0.576c-0.275-0.004-0.6,0.027-0.881,0.041C189.36,35.176,189.15,35.199,188.903,35.234z"/>
<polygon fill="#8C8E8E" points="182.936,56.06 180.634,55.46 181.546,53.156 183.844,53.756 "/>
<path fill="#8C8E8E" d="M184.135,57.009l-2.331-0.688c-0.433-0.268-0.809-0.55-1.17-0.861l2.302,0.6
	C183.293,56.37,183.705,56.738,184.135,57.009z"/>
<path fill="#8C8E8E" d="M185.847,38.773l-2.298-0.6c0.81-0.523,1.702-0.904,2.644-1.111l2.297,0.603
	C187.549,37.873,186.655,38.25,185.847,38.773z"/>
<path fill="#8C8E8E" d="M183.844,53.756l-2.298-0.6c-0.698-0.705-1.275-1.55-1.702-2.512l2.298,0.596
	C182.567,52.206,183.147,53.053,183.844,53.756z"/>
<polygon fill="#8C8E8E" points="179.545,50.196 177.246,49.591 179.162,48.241 181.461,48.838 "/>
<polygon fill="#8C8E8E" points="180.051,42.967 177.752,42.367 179.933,42.489 182.232,43.089 "/>
<polygon fill="#8C8E8E" points="181.487,45.587 179.189,44.988 177.285,43.944 179.585,44.545 "/>
<path fill="#8C8E8E" d="M182.232,43.089l-2.3-0.6c0.438-0.99,1.018-1.898,1.711-2.677l2.3,0.6
	C183.248,41.193,182.668,42.096,182.232,43.089z"/>
<path fill="#8C8E8E" d="M181.461,48.874l-2.297-0.617c-0.075-0.52-0.116-1.06-0.113-1.612c0.002-0.591,0.054-1.094,0.145-1.663
	l2.292,0.609c-0.091,0.567-0.139,1.082-0.144,1.674C181.343,47.821,181.38,48.357,181.461,48.874z"/>
<polygon fill="#8C8E8E" points="183.943,40.412 181.644,39.812 180.722,37.667 183.02,38.266 "/>
<path fill="#8C8E8E" d="M182.95,38.298l-2.229-0.631c0.401-0.398,0.794-0.741,1.204-1.05l2.341,0.509
	C183.856,37.436,183.352,37.897,182.95,38.298z"/>
<path fill="#8C8E8E" d="M179.968,51.8l-2.285-0.698c-0.186-0.505-0.324-1.001-0.437-1.511l2.299,0.556
	C179.656,50.661,179.784,51.292,179.968,51.8z"/>
<path fill="#8C8E8E" d="M179.575,44.626l-2.29-0.682c0.133-0.566,0.281-1.078,0.467-1.578l2.299,0.512
	C179.867,43.378,179.704,44.059,179.575,44.626z"/>
<linearGradient id="SVGID_10_" gradientUnits="userSpaceOnUse" x1="186.1475" y1="46.4629" x2="193.3271" y2="46.4629">
	<stop  offset="0" style="stop-color:#646767"/>
	<stop  offset="1" style="stop-color:#CDCECD"/>
</linearGradient>
<path fill="url(#SVGID_10_)" d="M193.327,46.441c0.004-1.941-1.146-3.494-2.72-3.904l-2.298-0.603
	c1.571,0.413,2.712,1.966,2.711,3.908c-0.018,2.359-1.718,4.389-3.817,4.541h0.003c-0.368,0.024-0.723-0.011-1.059-0.099
	l2.297,0.603c0.339,0.088,0.696,0.121,1.066,0.099l-0.004-0.003C191.604,50.831,193.309,48.801,193.327,46.441z"/>
<linearGradient id="SVGID_11_" gradientUnits="userSpaceOnUse" x1="177.8652" y1="32.5913" x2="194.479" y2="52.7204">
	<stop  offset="0.0275" style="stop-color:#FFFFFF"/>
	<stop  offset="0.3579" style="stop-color:#D2D3D4"/>
	<stop  offset="0.7892" style="stop-color:#9E9FA0"/>
	<stop  offset="1" style="stop-color:#898B8C"/>
</linearGradient>
<path fill="url(#SVGID_11_)" d="M197.456,47.643l1.901,1.081c-0.109,0.515-0.248,1.016-0.422,1.509l-2.145-0.16
	c-0.421,1.014-0.969,1.912-1.626,2.69l0.896,2.174c-0.346,0.354-0.709,0.686-1.091,0.989l-1.564-1.555
	c-0.858,0.586-1.766,1.001-2.729,1.233l-0.446,2.438c-0.256,0.037-0.51,0.066-0.771,0.086c-0.188,0.013-0.375,0.02-0.56,0.021
	l-0.39-2.359c-1.024-0.075-1.953-0.346-2.796-0.787l-1.621,1.768c-0.369-0.238-0.72-0.501-1.055-0.788l0.934-2.264
	c-0.731-0.733-1.316-1.593-1.74-2.562l-2.166,0.424c-0.153-0.439-0.291-0.896-0.395-1.37l1.909-1.31
	c-0.085-0.544-0.125-1.071-0.12-1.614c0-0.576,0.051-1.149,0.148-1.704l-1.888-1.077c0.116-0.488,0.257-0.966,0.428-1.434
	l2.155,0.162c0.446-1.042,1.037-1.955,1.734-2.739l-0.888-2.162c0.349-0.345,0.721-0.664,1.098-0.953l1.579,1.572
	c0.852-0.555,1.751-0.938,2.701-1.139l0.448-2.424c0.194-0.027,0.39-0.05,0.584-0.063c0.267-0.017,0.529-0.021,0.791-0.02
	l0.391,2.379c0.958,0.095,1.832,0.369,2.629,0.794l1.613-1.764c0.392,0.251,0.765,0.534,1.115,0.846l-0.939,2.274
	c0.665,0.695,1.201,1.488,1.598,2.382l2.173-0.428c0.172,0.465,0.316,0.955,0.426,1.455l-1.908,1.305
	c0.087,0.546,0.123,1.07,0.123,1.613C197.568,46.664,197.531,47.157,197.456,47.643z M189.491,51.098
	c2.147-0.15,3.9-2.23,3.911-4.645c0.01-2.41-1.724-4.243-3.872-4.093c-2.142,0.148-3.887,2.229-3.899,4.636
	C185.623,49.409,187.351,51.246,189.491,51.098"/>
<radialGradient id="SVGID_12_" cx="180.5771" cy="29.4619" r="24.8131" gradientUnits="userSpaceOnUse">
	<stop  offset="0" style="stop-color:#FFFFFF"/>
	<stop  offset="0.1865" style="stop-color:#FAFBFB"/>
	<stop  offset="0.3923" style="stop-color:#EDEEEE"/>
	<stop  offset="0.6074" style="stop-color:#D7D8D9"/>
	<stop  offset="0.8274" style="stop-color:#B8BABC"/>
	<stop  offset="1" style="stop-color:#9B9DA0"/>
</radialGradient>
<path fill="url(#SVGID_12_)" d="M188.344,55.968c-0.936-0.082-1.798-0.333-2.584-0.728l0,0l-1.631,1.78l-0.137-0.086
	c-0.377-0.246-0.735-0.512-1.082-0.803l0,0l-0.104-0.092l0.941-2.278c-0.674-0.689-1.219-1.491-1.631-2.388l0,0l-2.175,0.427
	l-0.053-0.158c-0.163-0.442-0.299-0.903-0.404-1.39l0,0l-0.028-0.127l1.918-1.315c-0.072-0.498-0.11-0.985-0.11-1.479l0,0
	c0-0.013,0-0.031,0-0.044l0,0c0.003-0.541,0.049-1.08,0.133-1.604l0,0l-1.896-1.081l0.034-0.139
	c0.115-0.497,0.259-0.982,0.433-1.458l0,0l0.049-0.135l2.164,0.159c0.431-0.966,0.986-1.824,1.635-2.57l0,0l-0.89-2.172l0.094-0.092
	c0.352-0.349,0.728-0.672,1.115-0.966l0,0l0.132-0.102l1.587,1.581c0.793-0.5,1.629-0.852,2.514-1.056l0,0l0.45-2.433l0.138-0.023
	c0.195-0.028,0.393-0.045,0.596-0.06l0,0c0.223-0.017,0.451-0.024,0.671-0.024l0,0c0.041,0,0.088,0,0.133,0l0,0l0.159,0.004
	l0.397,2.392c0.872,0.106,1.677,0.356,2.42,0.733l0,0l1.623-1.776l0.139,0.089c0.397,0.257,0.776,0.543,1.138,0.864l0,0l0.103,0.089
	l-0.948,2.288c0.607,0.649,1.104,1.384,1.488,2.2l0,0l2.184-0.43l0.057,0.155c0.173,0.474,0.32,0.97,0.433,1.479l0,0l0.029,0.131
	l-1.919,1.308c0.072,0.497,0.107,0.976,0.107,1.473l0,0c0,0.017,0,0.033,0,0.051l0,0c0,0.465-0.035,0.924-0.099,1.375l0,0
	l1.91,1.089l-0.029,0.135c-0.112,0.523-0.254,1.033-0.426,1.535l0,0l-0.05,0.139l-2.159-0.159c-0.401,0.94-0.915,1.783-1.524,2.521
	l0,0l0.899,2.182l-0.087,0.091c-0.354,0.363-0.721,0.697-1.106,1.006l0,0l-0.136,0.108l-1.573-1.569
	c-0.8,0.532-1.648,0.917-2.539,1.146l0,0l-0.45,2.453l-0.139,0.019c-0.259,0.04-0.517,0.065-0.782,0.085l0,0
	c-0.191,0.014-0.384,0.02-0.573,0.023l0,0l-0.163,0.004L188.344,55.968L188.344,55.968z M185.804,54.832
	c0.819,0.434,1.721,0.695,2.723,0.763l0,0l0.147,0.013l0.389,2.347c0.131-0.004,0.256-0.01,0.385-0.019l0,0
	c0.208-0.016,0.411-0.04,0.617-0.064l0,0l0.446-2.429l0.122-0.024c0.934-0.23,1.823-0.634,2.663-1.207l0,0l0.133-0.094l1.554,1.549
	c0.298-0.242,0.581-0.5,0.854-0.774l0,0l-0.895-2.165l0.078-0.089c0.643-0.766,1.18-1.642,1.594-2.64l0,0l0.055-0.127l2.136,0.157
	c0.132-0.396,0.243-0.799,0.336-1.21l0,0l-1.777-1.013l-0.114-0.061l0.02-0.132c0.072-0.476,0.109-0.96,0.113-1.446l0,0
	c0-0.024,0-0.042,0-0.055l0,0c0-0.517-0.041-1.013-0.123-1.534l0,0l-0.02-0.122l1.901-1.296c-0.089-0.393-0.204-0.782-0.33-1.152
	l0,0l-2.165,0.428l-0.061-0.142c-0.388-0.871-0.914-1.648-1.562-2.324l0,0l-0.087-0.092l0.934-2.264
	c-0.271-0.231-0.558-0.448-0.854-0.648l0,0l-1.603,1.756l-0.131-0.072c-0.777-0.416-1.623-0.681-2.558-0.774l0,0l-0.145-0.019
	l-0.393-2.359c-0.203,0-0.407,0.006-0.61,0.019l0,0c-0.145,0.013-0.286,0.024-0.43,0.044l0,0l-0.448,2.416l-0.126,0.027
	c-0.929,0.194-1.805,0.569-2.639,1.108l0,0l-0.13,0.085l-1.57-1.559c-0.29,0.229-0.58,0.481-0.853,0.743l0,0l0.884,2.151
	l-0.082,0.093c-0.685,0.768-1.264,1.663-1.702,2.684l0,0l-0.054,0.126l-2.146-0.161c-0.132,0.371-0.243,0.752-0.34,1.138l0,0
	l1.879,1.071l-0.021,0.132c-0.097,0.543-0.146,1.109-0.15,1.68l0,0c0,0.008,0,0.024,0,0.037l0,0c0,0.514,0.042,1.017,0.123,1.541
	l0,0l0.019,0.121l-1.9,1.304c0.085,0.365,0.187,0.721,0.303,1.063l0,0l2.15-0.424l0.065,0.143c0.415,0.949,0.984,1.789,1.698,2.504
	l0,0l0.093,0.094l-0.933,2.252c0.26,0.211,0.522,0.41,0.798,0.593l0,0l1.609-1.76L185.804,54.832L185.804,54.832z M185.441,47.018
	c0-0.013,0-0.02,0-0.021l0,0c0.011-2.501,1.813-4.666,4.071-4.831l0,0c0.088-0.008,0.179-0.008,0.261-0.008l0,0
	c2.146,0,3.817,1.879,3.82,4.271l0,0c0,0.004,0,0.011,0,0.025l0,0c-0.015,2.501-1.824,4.667-4.089,4.834l0,0l0,0l-0.008-0.128
	l0.007,0.128c-0.087,0.004-0.173,0.004-0.254,0.004l0,0C187.109,51.294,185.445,49.414,185.441,47.018L185.441,47.018z
	 M189.545,42.55c-2.021,0.135-3.713,2.125-3.718,4.451l0,0c0,0.009,0,0.016,0,0.016v0.001c0.001,2.225,1.521,3.888,3.423,3.893l0,0
	c0.075,0,0.15,0,0.231-0.004l0,0v-0.002c2.02-0.135,3.718-2.126,3.728-4.45l0,0c0-0.004,0-0.013,0-0.024l0,0
	c-0.006-2.22-1.53-3.884-3.436-3.889l0,0C189.699,42.541,189.62,42.544,189.545,42.55L189.545,42.55z"/>
<linearGradient id="SVGID_13_" gradientUnits="userSpaceOnUse" x1="188.0342" y1="52.6235" x2="188.0342" y2="38.6693">
	<stop  offset="0" style="stop-color:#805F26"/>
	<stop  offset="1" style="stop-color:#E2D0AC"/>
</linearGradient>
<path fill="url(#SVGID_13_)" d="M190.896,41.162c-0.45-0.116-0.93-0.166-1.422-0.127c-2.78,0.191-5.046,2.881-5.06,6.006
	c-0.009,2.57,1.502,4.636,3.585,5.178l0.762,0.199c-2.084-0.545-3.598-2.607-3.587-5.177c0.015-3.126,2.277-5.816,5.057-6.01
	c0.496-0.036,0.973,0.011,1.424,0.13L190.896,41.162z"/>
<radialGradient id="SVGID_14_" cx="186.5625" cy="41.689" r="11.917" gradientUnits="userSpaceOnUse">
	<stop  offset="0.3297" style="stop-color:#EFE8B2"/>
	<stop  offset="1" style="stop-color:#D78329"/>
</radialGradient>
<path fill="url(#SVGID_14_)" d="M190.23,41.23c2.786-0.194,5.03,2.18,5.013,5.304c-0.014,3.126-2.276,5.819-5.062,6.013
	c-2.776,0.191-5.021-2.181-5.008-5.307C185.188,44.114,187.451,41.425,190.23,41.23z M190.196,49.567
	c1.313-0.094,2.388-1.366,2.396-2.844c0.005-1.484-1.058-2.606-2.372-2.514c-1.319,0.091-2.392,1.366-2.396,2.844
	C187.815,48.535,188.881,49.657,190.196,49.567"/>
<path fill="#666666" d="M199.493,42.446c-0.009-0.048-0.04-0.081-0.063-0.124c-0.026-0.261-0.054-0.523-0.054-0.799
	c0.003-0.359,0.028-0.662,0.088-1.014c0.04-0.25-0.116-0.491-0.36-0.553l-1.492-0.395c-0.135-0.037-0.278-0.013-0.393,0.063
	c-0.116,0.075-0.197,0.196-0.218,0.335c-0.063,0.383-0.104,0.743-0.104,1.158c0,0.281,0.03,0.55,0.06,0.82l-0.976,0.684
	c-0.009,0.007-0.013,0.02-0.021,0.028c-0.011,0.009-0.025,0.011-0.037,0.021c-0.031,0.03-0.044,0.069-0.064,0.106
	c-0.018,0.028-0.04,0.051-0.05,0.082c-0.024,0.063-0.025,0.128-0.021,0.196c0,0.02-0.011,0.037-0.005,0.055
	c0,0.001,0.001,0.004,0.001,0.007c0.002,0.003,0,0.006,0,0.008c0.075,0.355,0.176,0.698,0.304,1.047
	c0.051,0.146,0.17,0.26,0.317,0.304l1.488,0.456c0.048,0.013,0.095,0.021,0.144,0.021c0.13,0,0.261-0.054,0.355-0.153
	c0.128-0.135,0.171-0.33,0.108-0.502c-0.069-0.193-0.126-0.433-0.179-0.672l0.972-0.691
	C199.449,42.825,199.529,42.632,199.493,42.446z"/>
<path fill="#684F8D" d="M198.916,42.572l-1.486-0.401c-0.052-0.335-0.078-0.687-0.078-1.045c0.001-0.384,0.037-0.711,0.096-1.08
	l1.488,0.393c-0.06,0.37-0.091,0.707-0.092,1.089C198.844,41.889,198.869,42.238,198.916,42.572z"/>
<path fill="#684F8D" d="M203.836,33.712l-1.492-0.389c0.163-0.027,0.298-0.038,0.434-0.047c0.182-0.016,0.364-0.017,0.543-0.016
	l1.521,0.377c-0.181-0.004-0.389,0.016-0.57,0.027C204.132,33.678,203.996,33.689,203.836,33.712z"/>
<polygon fill="#684F8D" points="209.004,38.168 207.51,37.78 208.934,37.438 210.425,37.826 "/>
<polygon fill="#684F8D" points="207.764,47.316 206.269,46.926 205.267,45.842 206.758,46.231 "/>
<polygon fill="#684F8D" points="206.758,35.719 205.267,35.331 206.295,34.142 207.788,34.532 "/>
<polygon fill="#684F8D" points="203.743,48.719 202.317,48.287 202.037,46.747 203.529,47.136 "/>
<linearGradient id="SVGID_15_" gradientUnits="userSpaceOnUse" x1="201.5322" y1="45.9556" x2="201.3027" y2="49.1886">
	<stop  offset="0" style="stop-color:#5D4098"/>
	<stop  offset="1" style="stop-color:#C6ACD2"/>
</linearGradient>
<path fill="url(#SVGID_15_)" d="M202.711,47.001l-1.494-0.391c-0.333-0.088-0.652-0.208-0.957-0.368l1.493,0.39
	C202.056,46.789,202.376,46.915,202.711,47.001z"/>
<polygon fill="#684F8D" points="203.567,35.291 202.075,34.901 202.344,33.323 203.836,33.712 "/>
<polygon fill="#684F8D" points="199.959,47.237 198.467,46.847 199.057,45.35 200.552,45.742 "/>
<path fill="#684F8D" d="M200.739,47.855l-1.517-0.448c-0.278-0.174-0.525-0.357-0.756-0.56l1.492,0.39
	C200.191,47.438,200.459,47.678,200.739,47.855z"/>
<path fill="#684F8D" d="M201.851,36.013l-1.493-0.389c0.527-0.342,1.107-0.591,1.718-0.723l1.492,0.39
	C202.957,35.429,202.376,35.675,201.851,36.013z"/>
<path fill="#684F8D" d="M200.552,45.742l-1.495-0.392c-0.454-0.457-0.829-1.003-1.105-1.634l1.494,0.39
	C199.721,44.733,200.097,45.286,200.552,45.742z"/>
<polygon fill="#684F8D" points="197.759,43.428 196.262,43.038 197.508,42.163 198.998,42.55 "/>
<polygon fill="#684F8D" points="198.086,38.738 196.588,38.345 198.011,38.426 199.502,38.814 "/>
<polygon fill="#684F8D" points="199.019,40.439 197.527,40.05 196.286,39.371 197.787,39.764 "/>
<path fill="#684F8D" d="M199.502,38.814l-1.491-0.389c0.282-0.644,0.657-1.235,1.109-1.738l1.492,0.387
	C200.163,37.583,199.784,38.17,199.502,38.814z"/>
<polygon fill="#684F8D" points="200.612,37.075 199.12,36.688 198.521,35.294 200.014,35.684 "/>
<path fill="#684F8D" d="M199.969,35.704l-1.448-0.41c0.261-0.261,0.518-0.481,0.784-0.683l1.521,0.329
	C200.558,35.144,200.229,35.445,199.969,35.704z"/>
<path fill="#684F8D" d="M198.029,44.47l-1.483-0.452c-0.121-0.332-0.213-0.65-0.284-0.98l1.497,0.362
	C197.831,43.729,197.912,44.139,198.029,44.47z"/>
<path fill="#684F8D" d="M197.778,39.814l-1.492-0.444c0.088-0.369,0.186-0.701,0.302-1.025l1.498,0.334
	C197.969,39.002,197.862,39.446,197.778,39.814z"/>
<linearGradient id="SVGID_16_" gradientUnits="userSpaceOnUse" x1="202.0449" y1="41.0059" x2="206.7041" y2="41.0059">
	<stop  offset="0" style="stop-color:#442871"/>
	<stop  offset="1" style="stop-color:#A996BF"/>
</linearGradient>
<path fill="url(#SVGID_16_)" d="M206.704,40.991c0.001-1.258-0.739-2.267-1.761-2.534l-1.495-0.39
	c1.024,0.267,1.765,1.275,1.764,2.538c-0.013,1.533-1.118,2.846-2.479,2.94l0.001,0.001c-0.24,0.019-0.47-0.004-0.688-0.061
	l1.491,0.389c0.222,0.06,0.454,0.081,0.698,0.064h-0.006C205.589,43.839,206.691,42.524,206.704,40.991z"/>
<linearGradient id="SVGID_17_" gradientUnits="userSpaceOnUse" x1="209.873" y1="48.749" x2="201.786" y2="37.8714">
	<stop  offset="0" style="stop-color:#442871"/>
	<stop  offset="1" style="stop-color:#CCBFD7"/>
</linearGradient>
<path fill="url(#SVGID_17_)" d="M209.391,41.774l1.232,0.702c-0.073,0.332-0.161,0.66-0.274,0.975l-1.394-0.1
	c-0.275,0.655-0.63,1.239-1.054,1.744l0.579,1.414c-0.225,0.23-0.46,0.445-0.708,0.641l-1.018-1.011
	c-0.55,0.382-1.142,0.65-1.771,0.8l-0.288,1.586c-0.164,0.027-0.33,0.045-0.496,0.055c-0.125,0.007-0.248,0.011-0.369,0.014
	l-0.251-1.532c-0.664-0.048-1.271-0.223-1.814-0.512l-1.053,1.147c-0.239-0.152-0.468-0.324-0.688-0.509l0.605-1.473
	c-0.474-0.477-0.853-1.031-1.129-1.663l-1.406,0.275c-0.101-0.287-0.188-0.583-0.257-0.89l1.241-0.847
	c-0.055-0.354-0.082-0.698-0.082-1.048c0.003-0.375,0.036-0.748,0.1-1.108l-1.226-0.699c0.075-0.319,0.166-0.628,0.276-0.931
	l1.401,0.101c0.291-0.674,0.673-1.265,1.127-1.773l-0.579-1.406c0.229-0.223,0.468-0.433,0.718-0.621l1.021,1.021
	c0.556-0.356,1.141-0.604,1.758-0.739l0.29-1.576c0.127-0.017,0.253-0.032,0.379-0.04c0.174-0.013,0.344-0.016,0.511-0.016
	l0.257,1.549c0.621,0.063,1.188,0.241,1.704,0.516l1.048-1.147c0.253,0.162,0.495,0.346,0.723,0.55l-0.609,1.478
	c0.432,0.45,0.779,0.966,1.039,1.543l1.411-0.278c0.112,0.303,0.206,0.623,0.276,0.949l-1.242,0.846
	c0.057,0.354,0.084,0.695,0.081,1.048C209.462,41.135,209.435,41.459,209.391,41.774z M204.22,44.014
	c1.391-0.099,2.526-1.445,2.532-3.012c0.006-1.564-1.115-2.759-2.509-2.66c-1.391,0.098-2.525,1.445-2.531,3.012
	C201.703,42.918,202.828,44.11,204.22,44.014"/>
<linearGradient id="SVGID_18_" gradientUnits="userSpaceOnUse" x1="205.1582" y1="42.9097" x2="201.912" y2="36.816">
	<stop  offset="0" style="stop-color:#7D5F9C"/>
	<stop  offset="1" style="stop-color:#FFFFFF"/>
</linearGradient>
<path fill="url(#SVGID_18_)" d="M203.474,47.18c-0.609-0.055-1.17-0.221-1.681-0.475l0,0l-1.059,1.156l-0.089-0.06
	c-0.243-0.155-0.477-0.326-0.699-0.518l0,0l-0.07-0.06l0.609-1.481c-0.436-0.448-0.792-0.97-1.058-1.549l0,0l-1.412,0.276
	l-0.034-0.102c-0.105-0.289-0.193-0.593-0.263-0.902l0,0l-0.019-0.083l1.244-0.854c-0.045-0.322-0.069-0.637-0.069-0.959l0,0
	c0-0.008,0-0.02,0-0.027l0,0c0.001-0.354,0.031-0.704,0.084-1.044l0,0l-1.228-0.701l0.02-0.091c0.077-0.322,0.171-0.637,0.278-0.946
	l0,0l0.033-0.088l1.408,0.104c0.281-0.627,0.64-1.186,1.061-1.671l0,0l-0.578-1.41l0.06-0.06c0.229-0.224,0.473-0.438,0.725-0.63
	l0,0l0.088-0.067l1.031,1.028c0.516-0.32,1.057-0.552,1.63-0.684l0,0l0.295-1.584l0.087-0.011c0.128-0.02,0.258-0.033,0.389-0.042
	l0,0c0.145-0.01,0.291-0.013,0.435-0.013l0,0c0.026,0,0.057,0,0.086,0l0,0l0.105,0.003l0.255,1.553
	c0.569,0.068,1.091,0.236,1.567,0.478l0,0l1.059-1.157l0.087,0.06c0.259,0.165,0.505,0.354,0.74,0.562l0,0l0.065,0.058l-0.613,1.487
	c0.395,0.421,0.717,0.898,0.963,1.43l0,0l1.419-0.281l0.038,0.103c0.113,0.306,0.209,0.631,0.282,0.961l0,0l0.019,0.084l-1.247,0.85
	c0.047,0.325,0.072,0.636,0.072,0.958l0,0c0,0.011,0,0.017,0,0.031l0,0c-0.002,0.302-0.022,0.602-0.066,0.894l0,0l1.241,0.705
	l-0.019,0.091c-0.073,0.336-0.166,0.667-0.277,0.992l0,0l-0.033,0.089l-1.398-0.101c-0.263,0.609-0.598,1.156-0.993,1.634l0,0
	l0.585,1.419l-0.058,0.06c-0.227,0.237-0.469,0.452-0.72,0.651l0,0l-0.087,0.071l-1.022-1.017c-0.517,0.345-1.065,0.593-1.645,0.744
	l0,0l-0.294,1.593l-0.088,0.011c-0.169,0.027-0.336,0.047-0.508,0.057l0,0c-0.126,0.01-0.249,0.014-0.374,0.014l0,0l-0.105,0.001
	L203.474,47.18L203.474,47.18z M201.822,46.441c0.531,0.279,1.117,0.45,1.768,0.498l0,0l0.099,0.002l0.249,1.522
	c0.085,0,0.169-0.003,0.251-0.009l0,0c0.135-0.011,0.269-0.022,0.401-0.04l0,0l0.288-1.578l0.081-0.019
	c0.608-0.147,1.184-0.413,1.725-0.783l0,0l0.087-0.057l1.012,1.001c0.191-0.158,0.376-0.328,0.553-0.504l0,0l-0.581-1.406
	l0.05-0.055c0.417-0.497,0.767-1.07,1.035-1.714l0,0l0.035-0.086l1.389,0.102c0.086-0.254,0.156-0.515,0.219-0.781l0,0l-1.156-0.656
	l-0.073-0.044l0.014-0.081c0.046-0.312,0.071-0.63,0.071-0.94l0,0c0-0.019,0-0.031,0-0.036l0,0c0-0.335-0.025-0.66-0.079-1l0,0
	l-0.012-0.074l1.235-0.846c-0.06-0.257-0.133-0.505-0.217-0.748l0,0l-1.406,0.278l-0.039-0.091c-0.25-0.57-0.592-1.071-1.012-1.512
	l0,0l-0.059-0.06l0.61-1.47c-0.18-0.153-0.363-0.292-0.558-0.423l0,0l-1.041,1.142l-0.085-0.045
	c-0.501-0.267-1.05-0.441-1.658-0.504l0,0l-0.096-0.008l-0.254-1.538c-0.13,0-0.262,0.004-0.395,0.011l0,0
	c-0.093,0.008-0.188,0.014-0.282,0.03l0,0l-0.289,1.572l-0.081,0.017c-0.604,0.124-1.174,0.369-1.715,0.718l0,0l-0.084,0.057
	l-1.021-1.014c-0.188,0.152-0.374,0.313-0.553,0.485l0,0l0.574,1.395l-0.051,0.06c-0.448,0.501-0.823,1.081-1.107,1.745l0,0
	l-0.034,0.082l-1.396-0.102c-0.083,0.238-0.157,0.485-0.218,0.738l0,0l1.221,0.695l-0.016,0.088
	c-0.061,0.353-0.095,0.716-0.098,1.088l0,0c0,0.004,0,0.016,0,0.024l0,0c0,0.335,0.028,0.661,0.081,1.001l0,0l0.011,0.075
	l-1.233,0.846c0.052,0.235,0.122,0.467,0.197,0.689l0,0l1.396-0.275l0.042,0.095c0.271,0.616,0.641,1.16,1.104,1.625l0,0l0.06,0.06
	l-0.604,1.462c0.166,0.138,0.337,0.27,0.516,0.388l0,0l1.048-1.144L201.822,46.441L201.822,46.441z M201.586,41.365
	c0-0.004,0-0.011,0-0.011l0,0c0.008-1.626,1.179-3.032,2.648-3.137l0,0c0.057-0.007,0.112-0.007,0.167-0.01l0,0
	c1.395,0.003,2.473,1.223,2.476,2.779l0,0c0,0.001,0,0.006,0,0.016l0,0c-0.007,1.623-1.178,3.027-2.649,3.135l0,0l0,0l-0.006-0.08
	l0.006,0.08c-0.06,0.004-0.115,0.004-0.168,0.004l0,0C202.67,44.141,201.589,42.923,201.586,41.365L201.586,41.365z M204.251,38.466
	c-1.312,0.089-2.408,1.381-2.414,2.888l0,0c0,0.01,0,0.011,0,0.011l0,0c0,1.445,0.988,2.522,2.223,2.526l0,0
	c0.05,0,0.101-0.001,0.149-0.004l0,0l0,0c1.314-0.088,2.413-1.378,2.418-2.885l0,0c0-0.005,0-0.011,0-0.016l0,0
	c-0.003-1.441-0.99-2.525-2.226-2.526l0,0C204.352,38.46,204.301,38.461,204.251,38.466L204.251,38.466z"/>
<linearGradient id="SVGID_19_" gradientUnits="userSpaceOnUse" x1="203.2725" y1="44.9629" x2="203.2725" y2="35.902">
	<stop  offset="0" style="stop-color:#805F26"/>
	<stop  offset="1" style="stop-color:#E2D0AC"/>
</linearGradient>
<path fill="url(#SVGID_19_)" d="M205.129,37.522c-0.292-0.078-0.603-0.109-0.922-0.084c-1.805,0.124-3.278,1.873-3.285,3.902
	c-0.007,1.666,0.976,3.008,2.328,3.358l0.493,0.13c-1.354-0.353-2.336-1.692-2.329-3.357c0.01-2.034,1.479-3.781,3.284-3.904
	c0.323-0.024,0.631,0.007,0.925,0.083L205.129,37.522z"/>
<radialGradient id="SVGID_20_" cx="202.3154" cy="37.8652" r="7.7357" gradientUnits="userSpaceOnUse">
	<stop  offset="0.3297" style="stop-color:#EFE8B2"/>
	<stop  offset="1" style="stop-color:#D78329"/>
</radialGradient>
<path fill="url(#SVGID_20_)" d="M204.698,37.568c1.806-0.128,3.26,1.414,3.253,3.443c-0.01,2.03-1.479,3.774-3.284,3.902
	c-1.805,0.126-3.262-1.415-3.253-3.441C201.424,39.438,202.894,37.691,204.698,37.568z M204.676,42.981
	c0.854-0.063,1.549-0.888,1.553-1.85c0.006-0.962-0.684-1.692-1.537-1.633c-0.854,0.062-1.551,0.889-1.557,1.85
	C203.129,42.31,203.823,43.041,204.676,42.981"/>
<path fill="#666666" d="M198.438,50.835c-0.042-0.188-0.188-0.336-0.374-0.376l-1.66-0.362c-0.14-0.029-0.288,0.003-0.401,0.088
	c-0.312,0.234-0.609,0.492-0.91,0.795c-0.143,0.142-0.184,0.358-0.103,0.542l0.535,1.24c-0.409,0.497-0.749,1.059-1.025,1.654
	l-1.063-0.235c-0.243-0.054-0.49,0.079-0.572,0.315c-0.134,0.375-0.246,0.753-0.344,1.173c-0.063,0.255,0.085,0.514,0.338,0.587
	l1.631,0.482c0.044,0.014,0.091,0.021,0.137,0.021c0.088,0,0.176-0.025,0.252-0.069c0.119-0.069,0.2-0.185,0.231-0.316
	c0.071-0.322,0.163-0.695,0.256-0.99l1.025,0.268c0.04,0.01,0.082,0.016,0.122,0.016c0.191,0,0.371-0.112,0.452-0.292
	c0.291-0.657,0.673-1.258,1.132-1.773c0.128-0.143,0.16-0.346,0.087-0.522l-0.532-1.23c0.209-0.193,0.429-0.383,0.605-0.516
	C198.408,51.217,198.481,51.024,198.438,50.835z"/>
<path fill="#397DA5" d="M201.234,49.597l-1.629-0.426c0.176-0.025,0.323-0.04,0.474-0.051c0.2-0.014,0.4-0.017,0.593-0.014
	l1.66,0.408c-0.194-0.002-0.426,0.017-0.624,0.029C201.559,49.555,201.41,49.572,201.234,49.597z"/>
<polygon fill="#397DA5" points="206.868,54.456 205.244,54.033 206.796,53.656 208.422,54.084 "/>
<polygon fill="#397DA5" points="205.518,64.437 203.891,64.009 202.794,62.822 204.423,63.248 "/>
<polygon fill="#397DA5" points="204.423,51.785 202.794,51.362 203.916,50.063 205.544,50.488 "/>
<polygon fill="#397DA5" points="201.132,65.963 199.578,65.492 199.274,63.813 200.9,64.238 "/>
<linearGradient id="SVGID_21_" gradientUnits="userSpaceOnUse" x1="198.7236" y1="62.9541" x2="198.4749" y2="66.4577">
	<stop  offset="0" style="stop-color:#646767"/>
	<stop  offset="1" style="stop-color:#CDCECD"/>
</linearGradient>
<path fill="url(#SVGID_21_)" d="M200.007,64.088l-1.629-0.423c-0.362-0.097-0.712-0.229-1.042-0.4l1.627,0.42
	C199.293,63.861,199.644,63.994,200.007,64.088z"/>
<polygon fill="#397DA5" points="200.941,51.319 199.313,50.891 199.605,49.171 201.234,49.597 "/>
<polygon fill="#397DA5" points="197.008,64.346 195.38,63.923 196.021,62.292 197.652,62.718 "/>
<path fill="#397DA5" d="M197.856,65.021l-1.655-0.488c-0.304-0.192-0.57-0.392-0.821-0.61l1.628,0.423
	C197.258,64.567,197.553,64.828,197.856,65.021z"/>
<path fill="#397DA5" d="M199.067,52.105l-1.627-0.425c0.575-0.372,1.206-0.639,1.873-0.789l1.628,0.428
	C200.275,51.467,199.644,51.736,199.067,52.105z"/>
<path fill="#397DA5" d="M197.652,62.718l-1.632-0.426c-0.493-0.499-0.906-1.101-1.203-1.785l1.629,0.426
	C196.744,61.614,197.155,62.218,197.652,62.718z"/>
<polygon fill="#397DA5" points="194.607,60.192 192.973,59.77 194.333,58.811 195.96,59.233 "/>
<polygon fill="#397DA5" points="194.963,55.077 193.33,54.648 194.879,54.737 196.509,55.162 "/>
<polygon fill="#397DA5" points="195.983,56.933 194.354,56.507 193.001,55.77 194.636,56.198 "/>
<path fill="#397DA5" d="M196.509,55.162l-1.63-0.425c0.309-0.704,0.719-1.344,1.213-1.897l1.628,0.426
	C197.227,53.82,196.816,54.461,196.509,55.162z"/>
<path fill="#397DA5" d="M195.96,59.262l-1.625-0.442c-0.054-0.366-0.083-0.746-0.082-1.138c0-0.42,0.04-0.774,0.105-1.177
	l1.625,0.428c-0.066,0.403-0.104,0.769-0.104,1.188C195.879,58.513,195.906,58.893,195.96,59.262z"/>
<polygon fill="#397DA5" points="197.72,53.266 196.092,52.84 195.438,51.322 197.066,51.748 "/>
<path fill="#397DA5" d="M197.017,51.765l-1.579-0.442c0.284-0.287,0.563-0.528,0.855-0.746l1.657,0.36
	C197.659,51.158,197.3,51.487,197.017,51.765z"/>
<path fill="#397DA5" d="M194.901,61.327l-1.62-0.494c-0.13-0.36-0.229-0.707-0.309-1.064l1.635,0.392
	C194.686,60.519,194.772,60.97,194.901,61.327z"/>
<path fill="#397DA5" d="M194.628,56.251l-1.627-0.482c0.096-0.403,0.201-0.763,0.329-1.121l1.633,0.366
	C194.833,55.367,194.717,55.849,194.628,56.251z"/>
<linearGradient id="SVGID_22_" gradientUnits="userSpaceOnUse" x1="199.2822" y1="57.5498" x2="204.3623" y2="57.5498">
	<stop  offset="0" style="stop-color:#025386"/>
	<stop  offset="1" style="stop-color:#83B5CE"/>
</linearGradient>
<path fill="url(#SVGID_22_)" d="M204.362,57.537c0.004-1.374-0.807-2.474-1.921-2.769l-1.63-0.426
	c1.116,0.295,1.926,1.393,1.922,2.769c-0.013,1.671-1.22,3.106-2.704,3.214h0.005c-0.263,0.02-0.516-0.008-0.752-0.068l1.628,0.423
	c0.24,0.062,0.492,0.091,0.758,0.071l-0.004-0.003C203.146,60.638,204.351,59.205,204.362,57.537z"/>
<linearGradient id="SVGID_23_" gradientUnits="userSpaceOnUse" x1="207.8174" y1="65.9971" x2="198.9975" y2="54.1338">
	<stop  offset="0" style="stop-color:#025386"/>
	<stop  offset="1" style="stop-color:#A3D7F4"/>
</linearGradient>
<path fill="url(#SVGID_23_)" d="M207.291,58.391l1.348,0.764c-0.082,0.36-0.179,0.715-0.301,1.066l-1.52-0.113
	c-0.299,0.718-0.688,1.354-1.152,1.903l0.634,1.541c-0.244,0.25-0.501,0.488-0.771,0.7l-1.11-1.104
	c-0.604,0.417-1.247,0.713-1.928,0.877l-0.318,1.725c-0.179,0.026-0.36,0.046-0.542,0.063c-0.135,0.009-0.27,0.012-0.399,0.015
	l-0.275-1.671c-0.724-0.055-1.382-0.241-1.98-0.56l-1.146,1.254c-0.261-0.167-0.511-0.354-0.752-0.553l0.663-1.608
	c-0.52-0.52-0.931-1.127-1.231-1.816l-1.533,0.3c-0.111-0.312-0.206-0.635-0.282-0.967l1.353-0.928
	c-0.06-0.386-0.086-0.757-0.086-1.138c0.004-0.411,0.038-0.82,0.109-1.211l-1.34-0.76c0.083-0.349,0.181-0.689,0.301-1.019
	l1.526,0.113c0.321-0.735,0.736-1.381,1.231-1.939l-0.63-1.529c0.247-0.244,0.511-0.471,0.782-0.678l1.116,1.115
	c0.604-0.392,1.241-0.667,1.916-0.806l0.316-1.722c0.135-0.02,0.274-0.034,0.411-0.042c0.188-0.014,0.374-0.02,0.558-0.017
	l0.281,1.688c0.677,0.074,1.295,0.264,1.856,0.564l1.146-1.254c0.275,0.182,0.539,0.377,0.787,0.602l-0.665,1.611
	c0.472,0.494,0.85,1.057,1.133,1.687l1.538-0.304c0.123,0.329,0.226,0.678,0.305,1.036l-1.354,0.922
	c0.061,0.386,0.089,0.757,0.088,1.141C207.372,57.693,207.344,58.045,207.291,58.391z M201.654,60.831
	c1.516-0.105,2.754-1.578,2.763-3.283c0.006-1.708-1.219-3.007-2.739-2.902c-1.515,0.105-2.755,1.577-2.762,3.282
	C198.909,59.636,200.135,60.938,201.654,60.831"/>
<linearGradient id="SVGID_24_" gradientUnits="userSpaceOnUse" x1="202.6787" y1="59.6274" x2="199.1378" y2="52.9804">
	<stop  offset="0" style="stop-color:#5387AC"/>
	<stop  offset="1" style="stop-color:#FFFFFF"/>
</linearGradient>
<path fill="url(#SVGID_24_)" d="M200.84,64.283c-0.664-0.06-1.275-0.235-1.833-0.519l0,0l-1.155,1.265l-0.098-0.062
	c-0.267-0.174-0.521-0.363-0.763-0.57l0,0l-0.077-0.065l0.666-1.614c-0.475-0.488-0.863-1.056-1.152-1.688l0,0l-1.539,0.298
	l-0.044-0.107c-0.112-0.318-0.206-0.644-0.281-0.985l0,0l-0.021-0.093l1.357-0.928c-0.053-0.349-0.078-0.692-0.078-1.047l0,0
	c0-0.009,0-0.023,0-0.029l0,0c0.004-0.383,0.037-0.766,0.095-1.138l0,0l-1.342-0.763l0.022-0.099
	c0.082-0.354,0.185-0.698,0.304-1.033l0,0l0.037-0.099l1.535,0.113c0.306-0.681,0.697-1.294,1.157-1.82l0,0l-0.63-1.535l0.061-0.068
	c0.254-0.247,0.519-0.477,0.793-0.687l0,0l0.096-0.074l1.126,1.121c0.561-0.349,1.152-0.599,1.776-0.749l0,0l0.323-1.725
	l0.095-0.014c0.14-0.02,0.281-0.034,0.422-0.045l0,0c0.16-0.011,0.319-0.014,0.477-0.014l0,0c0.025,0,0.061,0,0.092,0l0,0
	l0.116,0.003l0.278,1.696c0.62,0.074,1.188,0.255,1.711,0.522l0,0l1.151-1.265l0.096,0.065c0.282,0.184,0.55,0.386,0.809,0.613l0,0
	l0.07,0.065l-0.671,1.62c0.432,0.459,0.785,0.98,1.053,1.559l0,0l1.548-0.304l0.043,0.108c0.121,0.337,0.224,0.689,0.306,1.053l0,0
	l0.019,0.091l-1.358,0.925c0.052,0.354,0.077,0.692,0.077,1.044l0,0c0,0.011,0,0.023,0,0.034l0,0
	c-0.001,0.329-0.023,0.655-0.069,0.976l0,0l1.353,0.771l-0.021,0.097c-0.082,0.366-0.18,0.726-0.305,1.083l0,0l-0.031,0.1
	l-1.527-0.114c-0.29,0.661-0.65,1.257-1.086,1.782l0,0l0.64,1.549l-0.063,0.063c-0.248,0.255-0.508,0.496-0.784,0.712l0,0
	l-0.096,0.079l-1.114-1.112c-0.563,0.375-1.162,0.647-1.795,0.812l0,0l-0.319,1.739l-0.098,0.012
	c-0.182,0.025-0.366,0.048-0.553,0.06l0,0c-0.137,0.009-0.272,0.014-0.406,0.017l0,0h-0.115L200.84,64.283L200.84,64.283z
	 M199.041,63.475c0.577,0.31,1.214,0.494,1.926,0.545l0,0l0.106,0.009l0.271,1.657c0.094,0,0.186-0.003,0.273-0.012l0,0
	c0.149-0.012,0.297-0.025,0.44-0.045l0,0l0.313-1.72l0.089-0.02c0.662-0.159,1.287-0.446,1.881-0.852l0,0l0.094-0.063l1.103,1.093
	c0.21-0.171,0.408-0.355,0.603-0.548l0,0l-0.633-1.535l0.056-0.065c0.454-0.539,0.834-1.16,1.128-1.864l0,0l0.038-0.093l1.515,0.113
	c0.094-0.281,0.171-0.564,0.237-0.854l0,0l-1.259-0.718l-0.08-0.045l0.013-0.091c0.052-0.337,0.078-0.681,0.081-1.024l0,0
	c0-0.02,0-0.031,0-0.04l0,0c0-0.363-0.029-0.718-0.087-1.086l0,0l-0.016-0.085l1.348-0.922c-0.063-0.275-0.144-0.55-0.235-0.814l0,0
	l-1.531,0.304l-0.044-0.102c-0.274-0.619-0.646-1.165-1.107-1.644l0,0l-0.062-0.065l0.667-1.603
	c-0.195-0.167-0.397-0.32-0.608-0.462l0,0l-1.137,1.243l-0.093-0.048c-0.547-0.292-1.146-0.479-1.808-0.547l0,0l-0.105-0.009
	l-0.273-1.679c-0.145,0-0.288,0.005-0.434,0.014l0,0c-0.103,0.008-0.205,0.017-0.307,0.031l0,0l-0.315,1.713L201,51.561
	c-0.657,0.136-1.279,0.403-1.87,0.786l0,0l-0.094,0.057l-1.11-1.104c-0.206,0.167-0.411,0.34-0.605,0.528l0,0l0.63,1.523
	l-0.059,0.065c-0.486,0.543-0.897,1.179-1.207,1.902l0,0l-0.038,0.088l-1.521-0.111c-0.091,0.261-0.172,0.531-0.237,0.806l0,0
	l1.328,0.755l-0.016,0.097c-0.067,0.386-0.103,0.783-0.106,1.188l0,0c0,0.006,0,0.017,0,0.026l0,0c0,0.363,0.031,0.72,0.089,1.092
	l0,0l0.012,0.085l-1.347,0.922c0.059,0.252,0.134,0.505,0.215,0.751l0,0l1.526-0.3l0.044,0.099c0.293,0.676,0.696,1.266,1.203,1.776
	l0,0l0.066,0.065l-0.663,1.594c0.184,0.153,0.373,0.293,0.566,0.42l0,0l1.142-1.245L199.041,63.475L199.041,63.475z M198.781,57.945
	c0-0.008,0-0.011,0-0.017l0,0c0.009-1.77,1.285-3.302,2.887-3.418l0,0c0.063-0.009,0.123-0.009,0.182-0.009l0,0
	c1.522,0,2.698,1.333,2.702,3.027l0,0c0,0.003,0,0.011,0,0.02l0,0c-0.009,1.77-1.286,3.299-2.89,3.418l0,0v0.003l-0.006-0.091
	l0.006,0.088c-0.065,0.006-0.125,0.006-0.183,0.006l0,0C199.962,60.973,198.784,59.642,198.781,57.945L198.781,57.945z
	 M201.689,54.782c-1.435,0.096-2.629,1.503-2.636,3.152l0,0c0,0.006,0,0.011,0,0.011l0,0c0.003,1.575,1.079,2.752,2.426,2.752l0,0
	c0.053,0,0.109,0,0.161-0.002l0,0l0,0c1.436-0.1,2.633-1.504,2.638-3.146l0,0c0-0.006,0-0.011,0-0.02l0,0
	c-0.002-1.572-1.078-2.752-2.429-2.755l0,0C201.799,54.773,201.743,54.776,201.689,54.782L201.689,54.782z"/>
<linearGradient id="SVGID_25_" gradientUnits="userSpaceOnUse" x1="200.6191" y1="61.9121" x2="200.6191" y2="52.0309">
	<stop  offset="0" style="stop-color:#805F26"/>
	<stop  offset="1" style="stop-color:#E2D0AC"/>
</linearGradient>
<path fill="url(#SVGID_25_)" d="M202.644,53.797c-0.317-0.085-0.656-0.119-1.005-0.091c-1.97,0.136-3.572,2.043-3.584,4.256
	c-0.008,1.819,1.063,3.277,2.541,3.663l0.536,0.142c-1.476-0.386-2.546-1.844-2.539-3.662c0.011-2.216,1.615-4.12,3.582-4.259
	c0.352-0.022,0.689,0.009,1.008,0.094L202.644,53.797z"/>
<radialGradient id="SVGID_26_" cx="199.5762" cy="54.1704" r="8.4369" gradientUnits="userSpaceOnUse">
	<stop  offset="0.3297" style="stop-color:#EFE8B2"/>
	<stop  offset="1" style="stop-color:#D78329"/>
</radialGradient>
<path fill="url(#SVGID_26_)" d="M202.175,53.846c1.967-0.139,3.555,1.546,3.548,3.759c-0.011,2.21-1.612,4.114-3.584,4.252
	c-1.965,0.137-3.558-1.54-3.546-3.753C198.604,55.889,200.208,53.985,202.175,53.846z M202.15,59.75
	c0.931-0.068,1.689-0.968,1.696-2.015c0.005-1.05-0.747-1.847-1.68-1.779c-0.933,0.063-1.693,0.965-1.699,2.015
	C200.464,59.021,201.217,59.813,202.15,59.75"/>
</g>

</svg>
