<?xml version="1.0" encoding="utf-8"?>
<!DOCTYPE svg PUBLIC "-//W3C//DTD SVG 1.0//EN" "http://www.w3.org/TR/2001/REC-SVG-20010904/DTD/svg10.dtd" [
<!ENTITY ns_svg "http://www.w3.org/2000/svg">
<!ENTITY ns_xlink "http://www.w3.org/1999/xlink">
]>
<svg xmlns="&ns_svg;" xmlns:xlink="&ns_xlink;" width="240" height="120" viewBox="0 0 240 120" overflow="visible" enable-background="new 0 0 240 120" xml:space="preserve">

<g id="Layer_1">

<g id="_x3C_ICON_x3E_">
	<g>
		<g>
			<g>
				<polygon fill="#262626" points="142.15,60.3 143.05,58.5 141.25,58.6 140.45,56.9 140.55,54.5 132.05,37.9 126.45,27.1 
					125.65,26.9 123.45,22.4 115.65,20.4 115.45,20.8 91.45,72 99.25,74 147.25,70.6 				"/>
				<path fill="#262626" d="M88.75,73.2l25-53.2l0.9-1.9l10.2,2.7l1.2,2.6l0.7,0.2l7.1,13.5l8.6,17.1v2.4l0,0l3.1-0.1l-1.4,3.5
					l6.1,12.3l-51.2,3.6L88.75,73.2L88.75,73.2z M94.15,70.7l5.2,1.4l44.8-3.1l-3.8-7.7l1.5-0.7l-1.5,0.7l-0.3-0.6l0,0l-1.6-3.2
					v-2.4l-8.2-16.2l-5.3-10l-0.8-0.2l-2.2-4.5l-5.4-1.4L94.15,70.7L94.15,70.7z M143.85,61.2l-1.5-0.7L143.85,61.2L143.85,61.2z"/>
			</g>
		</g>
		<g>
			<g>
				<g>
					<g>
						
							<linearGradient id="SVGID_1_" gradientUnits="userSpaceOnUse" x1="-442.4995" y1="541.0996" x2="-411.6646" y2="541.0996" gradientTransform="matrix(1 0 0 -1 558 587)">
							<stop  offset="0" style="stop-color:#656768"/>
							<stop  offset="1" style="stop-color:#CDCECE"/>
						</linearGradient>
						<polygon fill="url(#SVGID_1_)" points="146.35,70.3 138.55,68.3 115.55,21.5 123.25,23.6 						"/>
					</g>
					<g>
						
							<linearGradient id="SVGID_2_" gradientUnits="userSpaceOnUse" x1="-465.9502" y1="516.0996" x2="-411.6494" y2="516.0996" gradientTransform="matrix(1 0 0 -1 558 587)">
							<stop  offset="0" style="stop-color:#656768"/>
							<stop  offset="1" style="stop-color:#CDCECE"/>
						</linearGradient>
						<polygon fill="url(#SVGID_2_)" points="99.75,73.5 92.05,71.5 138.55,68.3 146.35,70.3 						"/>
					</g>
					<g>
						
							<linearGradient id="SVGID_3_" gradientUnits="userSpaceOnUse" x1="-465.9839" y1="539.5" x2="-434.7235" y2="539.5" gradientTransform="matrix(1 0 0 -1 558 587)">
							<stop  offset="0" style="stop-color:#656768"/>
							<stop  offset="1" style="stop-color:#CDCECE"/>
						</linearGradient>
						<polygon fill="url(#SVGID_3_)" points="99.75,73.5 92.05,71.5 115.55,21.5 123.25,23.6 						"/>
					</g>
					<g>
						
							<linearGradient id="SVGID_4_" gradientUnits="userSpaceOnUse" x1="-458.9502" y1="538.7002" x2="-410.9502" y2="538.7002" gradientTransform="matrix(1 0 0 -1 558 587)">
							<stop  offset="0" style="stop-color:#656768"/>
							<stop  offset="1" style="stop-color:#CDCECE"/>
						</linearGradient>
						<path fill="url(#SVGID_4_)" d="M123.25,22.5l23.8,48.2l-48,3.4l24-51.1L123.25,22.5z M123.25,23.6l-23.5,50l46.5-3.3
							L123.25,23.6"/>
					</g>
					<g>
						
							<linearGradient id="SVGID_5_" gradientUnits="userSpaceOnUse" x1="-431.6045" y1="496.2139" x2="-439.8154" y2="542.5811" gradientTransform="matrix(1 0 0 -1 558 587)">
							<stop  offset="0" style="stop-color:#656768"/>
							<stop  offset="1" style="stop-color:#CDCECE"/>
						</linearGradient>
						<polygon fill="url(#SVGID_5_)" points="123.25,23.6 146.35,70.3 99.75,73.5 						"/>
					</g>
					<g>
						
							<linearGradient id="SVGID_6_" gradientUnits="userSpaceOnUse" x1="-463.7905" y1="504.9248" x2="-447.8515" y2="547.4289" gradientTransform="matrix(1 0 0 -1 558 587)">
							<stop  offset="0" style="stop-color:#656768"/>
							<stop  offset="1" style="stop-color:#DEDEDE"/>
						</linearGradient>
						<polygon fill="url(#SVGID_6_)" points="115.55,20.5 115.35,20.9 91.25,72.1 99.05,74.1 123.05,22.9 123.25,22.5 						"/>
					</g>
				</g>
			</g>
		</g>
		<g>
			
				<radialGradient id="SVGID_7_" cx="-431.709" cy="564.0361" r="36.1945" gradientTransform="matrix(1 0 0 -1 558 587)" gradientUnits="userSpaceOnUse">
				<stop  offset="0" style="stop-color:#FFEFC1"/>
				<stop  offset="1" style="stop-color:#9E712F"/>
			</radialGradient>
			<polygon fill="url(#SVGID_7_)" points="134.95,58.5 132.75,58 132.85,55.6 134.95,56.1 			"/>
			
				<radialGradient id="SVGID_8_" cx="-431.7153" cy="564.0566" r="36.2159" gradientTransform="matrix(1 0 0 -1 558 587)" gradientUnits="userSpaceOnUse">
				<stop  offset="0" style="stop-color:#FFEFC1"/>
				<stop  offset="1" style="stop-color:#9E712F"/>
			</radialGradient>
			<polygon fill="url(#SVGID_8_)" points="132.25,58.7 130.05,58.2 132.75,58 134.95,58.5 			"/>
			
				<radialGradient id="SVGID_9_" cx="-431.7168" cy="564.043" r="36.2042" gradientTransform="matrix(1 0 0 -1 558 587)" gradientUnits="userSpaceOnUse">
				<stop  offset="0" style="stop-color:#FFEFC1"/>
				<stop  offset="1" style="stop-color:#9E712F"/>
			</radialGradient>
			<polygon fill="url(#SVGID_9_)" points="137.65,68.8 135.45,68.3 130.05,58.2 132.25,58.7 			"/>
			
				<radialGradient id="SVGID_10_" cx="-429.4351" cy="536.3359" r="8.7557" gradientTransform="matrix(1 0 0 -1 558 587)" gradientUnits="userSpaceOnUse">
				<stop  offset="0" style="stop-color:#FFEFC1"/>
				<stop  offset="1" style="stop-color:#9E712F"/>
			</radialGradient>
			<polygon fill="url(#SVGID_10_)" points="127.95,59 125.85,58.5 128.55,58.3 130.65,58.8 			"/>
			
				<radialGradient id="SVGID_11_" cx="-431.7148" cy="564.0449" r="36.2051" gradientTransform="matrix(1 0 0 -1 558 587)" gradientUnits="userSpaceOnUse">
				<stop  offset="0" style="stop-color:#FFEFC1"/>
				<stop  offset="1" style="stop-color:#9E712F"/>
			</radialGradient>
			<polygon fill="url(#SVGID_11_)" points="134.95,56.1 132.85,55.6 125.85,41.6 128.05,42.1 			"/>
			
				<radialGradient id="SVGID_12_" cx="-431.7129" cy="564.0566" r="36.2167" gradientTransform="matrix(1 0 0 -1 558 587)" gradientUnits="userSpaceOnUse">
				<stop  offset="0" style="stop-color:#FFEFC1"/>
				<stop  offset="1" style="stop-color:#9E712F"/>
			</radialGradient>
			<polygon fill="url(#SVGID_12_)" points="119.95,59.6 117.85,59 120.55,58.8 122.65,59.4 			"/>
			
				<radialGradient id="SVGID_13_" cx="-431.7134" cy="564.0449" r="36.2054" gradientTransform="matrix(1 0 0 -1 558 587)" gradientUnits="userSpaceOnUse">
				<stop  offset="0" style="stop-color:#FFEFC1"/>
				<stop  offset="1" style="stop-color:#9E712F"/>
			</radialGradient>
			<polygon fill="url(#SVGID_13_)" points="125.35,69.7 123.25,69.1 117.85,59 119.95,59.6 			"/>
			
				<radialGradient id="SVGID_14_" cx="-431.7153" cy="564.0459" r="36.2056" gradientTransform="matrix(1 0 0 -1 558 587)" gradientUnits="userSpaceOnUse">
				<stop  offset="0" style="stop-color:#FFEFC1"/>
				<stop  offset="1" style="stop-color:#9E712F"/>
			</radialGradient>
			<polygon fill="url(#SVGID_14_)" points="122.65,59.4 120.55,58.8 120.65,41.9 122.75,42.5 			"/>
			
				<radialGradient id="SVGID_15_" cx="-431.7163" cy="564.0781" r="36.2365" gradientTransform="matrix(1 0 0 -1 558 587)" gradientUnits="userSpaceOnUse">
				<stop  offset="0" style="stop-color:#FFEFC1"/>
				<stop  offset="1" style="stop-color:#9E712F"/>
			</radialGradient>
			<polygon fill="url(#SVGID_15_)" points="115.95,59.8 113.85,59.2 116.65,59 118.75,59.6 			"/>
			
				<radialGradient id="SVGID_16_" cx="-431.7148" cy="564.0469" r="36.2057" gradientTransform="matrix(1 0 0 -1 558 587)" gradientUnits="userSpaceOnUse">
				<stop  offset="0" style="stop-color:#FFEFC1"/>
				<stop  offset="1" style="stop-color:#9E712F"/>
			</radialGradient>
			<polygon fill="url(#SVGID_16_)" points="119.75,37.2 117.65,36.6 123.35,24.6 125.45,25.1 			"/>
			
				<radialGradient id="SVGID_17_" cx="-431.7158" cy="564.0488" r="36.2089" gradientTransform="matrix(1 0 0 -1 558 587)" gradientUnits="userSpaceOnUse">
				<stop  offset="0" style="stop-color:#FFEFC1"/>
				<stop  offset="1" style="stop-color:#9E712F"/>
			</radialGradient>
			<polygon fill="url(#SVGID_17_)" points="110.75,60.1 108.65,59.6 108.65,55.3 110.75,55.8 			"/>
			
				<radialGradient id="SVGID_18_" cx="-431.7148" cy="564.0449" r="36.2052" gradientTransform="matrix(1 0 0 -1 558 587)" gradientUnits="userSpaceOnUse">
				<stop  offset="0" style="stop-color:#FFEFC1"/>
				<stop  offset="1" style="stop-color:#9E712F"/>
			</radialGradient>
			<polygon fill="url(#SVGID_18_)" points="110.75,55.8 108.65,55.3 117.65,36.6 119.75,37.2 			"/>
			
				<radialGradient id="SVGID_19_" cx="-460.9629" cy="531.8789" r="21.0942" gradientTransform="matrix(1 0 0 -1 558 587)" gradientUnits="userSpaceOnUse">
				<stop  offset="0" style="stop-color:#FFEFC1"/>
				<stop  offset="1" style="stop-color:#9E712F"/>
			</radialGradient>
			<polygon fill="url(#SVGID_19_)" points="108.05,60.3 105.95,59.8 108.65,59.6 110.75,60.1 			"/>
			
				<radialGradient id="SVGID_20_" cx="-436.4004" cy="554.7188" r="34.7837" gradientTransform="matrix(1 0 0 -1 558 587)" gradientUnits="userSpaceOnUse">
				<stop  offset="0.3297" style="stop-color:#EFE8B3"/>
				<stop  offset="1" style="stop-color:#D88429"/>
			</radialGradient>
			<polygon fill="url(#SVGID_20_)" points="140.15,58.2 142.95,58 137.65,68.8 132.25,58.7 134.95,58.5 134.95,56.1 128.05,42.1 
				127.95,59 130.65,58.8 125.35,69.7 119.95,59.6 122.65,59.4 122.75,42.5 116.05,57.4 115.95,59.8 118.75,59.6 113.25,70.5 
				108.05,60.3 110.75,60.1 110.75,55.8 119.75,37.2 125.45,25.1 131.45,36.4 140.25,53.8 			"/>
			
				<radialGradient id="SVGID_21_" cx="-431.7158" cy="564.0459" r="36.2059" gradientTransform="matrix(1 0 0 -1 558 587)" gradientUnits="userSpaceOnUse">
				<stop  offset="0" style="stop-color:#FFEFC1"/>
				<stop  offset="1" style="stop-color:#9E712F"/>
			</radialGradient>
			<polygon fill="url(#SVGID_21_)" points="113.25,70.5 111.15,69.9 105.95,59.8 108.05,60.3 			"/>
			<polygon fill="none" stroke="#9E712F" stroke-width="1.0486" points="140.25,58.4 142.95,58.2 137.65,67.8 132.35,59 
				135.05,58.8 135.05,56.4 128.15,40.7 128.05,59.3 130.75,59.1 125.45,68.7 120.05,59.8 122.75,59.6 122.85,41.1 116.05,57.6 
				116.05,60 118.85,59.8 113.25,69.4 108.15,60.6 110.85,60.4 110.85,56.1 119.85,38.2 125.55,26.1 131.45,37.4 140.35,54.1 			"/>
		</g>
		<g>
			
				<radialGradient id="SVGID_22_" cx="-435.1748" cy="569.4561" r="54.9999" gradientTransform="matrix(1 0 0 -1 558 587)" gradientUnits="userSpaceOnUse">
				<stop  offset="0" style="stop-color:#FFFFFF"/>
				<stop  offset="0.1407" style="stop-color:#FAFAFA"/>
				<stop  offset="0.296" style="stop-color:#EDEDED"/>
				<stop  offset="0.4583" style="stop-color:#D7D7D7"/>
				<stop  offset="0.6255" style="stop-color:#B8B8B8"/>
				<stop  offset="0.7965" style="stop-color:#909090"/>
				<stop  offset="0.9682" style="stop-color:#606060"/>
				<stop  offset="1" style="stop-color:#575757"/>
			</radialGradient>
			<path fill="url(#SVGID_22_)" d="M122.55,24.3l0.9-1.9l23.7,48.2l-48.2,3.6L122.55,24.3L122.55,24.3z M102.25,72l41.7-3
				l-20.5-41.8L102.25,72L102.25,72z"/>
		</g>
		<polygon fill="#949294" points="134.95,50.1 143.75,68.9 102.15,71.9 		"/>
		<g>
			
				<linearGradient id="SVGID_23_" gradientUnits="userSpaceOnUse" x1="-433.6001" y1="567.8398" x2="-433.6001" y2="521.1082" gradientTransform="matrix(1 0 0 -1 558 587)">
				<stop  offset="0" style="stop-color:#969696"/>
				<stop  offset="1" style="stop-color:#575757"/>
			</linearGradient>
			<path fill="url(#SVGID_23_)" d="M142.15,60.8l-1.7,0.1l0.1-4l-0.1-0.2v-0.1l-8.8-17.4l-6-11.3l-2.1-0.6l-5.7,12l-9,18.7v4.3
				l-2.8-2.4l0.1,2.6l4.6,8.9l3.8-0.4l2.8-5.5l1.4-2.5l4,7.5l3.9-0.3l2.7-5.4l1.6-2.8l4.1,7.7l4-0.3l2.5-5.4l1.2-2.2L142.15,60.8
				 M129.45,59.5l-0.7,1.5h-0.5V48.7l4.7,9.5l-0.1,2.4l-1.8-1.6L129.45,59.5z M118.25,62.1l-1.4-0.4h-0.5l0.5-1.4l1.8-4.5l2.7-5.9
				l-0.5,11.6l-2.4-2L118.25,62.1z M130.75,61.8L130.75,61.8L130.75,61.8L130.75,61.8z"/>
		</g>
		<g>
			
				<radialGradient id="SVGID_24_" cx="-431.709" cy="564.0361" r="36.1945" gradientTransform="matrix(1 0 0 -1 558 587)" gradientUnits="userSpaceOnUse">
				<stop  offset="0" style="stop-color:#FFEFC1"/>
				<stop  offset="1" style="stop-color:#9E712F"/>
			</radialGradient>
			<polygon fill="url(#SVGID_24_)" points="134.95,58.5 132.75,58 132.85,55.6 134.95,56.1 			"/>
			
				<radialGradient id="SVGID_25_" cx="-431.7153" cy="564.0566" r="36.2159" gradientTransform="matrix(1 0 0 -1 558 587)" gradientUnits="userSpaceOnUse">
				<stop  offset="0" style="stop-color:#FFEFC1"/>
				<stop  offset="1" style="stop-color:#9E712F"/>
			</radialGradient>
			<polygon fill="url(#SVGID_25_)" points="132.25,58.7 130.05,58.2 132.75,58 134.95,58.5 			"/>
			
				<radialGradient id="SVGID_26_" cx="-431.7168" cy="564.043" r="36.2042" gradientTransform="matrix(1 0 0 -1 558 587)" gradientUnits="userSpaceOnUse">
				<stop  offset="0" style="stop-color:#FFEFC1"/>
				<stop  offset="1" style="stop-color:#9E712F"/>
			</radialGradient>
			<polygon fill="url(#SVGID_26_)" points="137.65,68.8 135.45,68.3 130.05,58.2 132.25,58.7 			"/>
			
				<radialGradient id="SVGID_27_" cx="-429.4351" cy="536.3359" r="8.7557" gradientTransform="matrix(1 0 0 -1 558 587)" gradientUnits="userSpaceOnUse">
				<stop  offset="0" style="stop-color:#FFEFC1"/>
				<stop  offset="1" style="stop-color:#9E712F"/>
			</radialGradient>
			<polygon fill="url(#SVGID_27_)" points="127.95,59 125.85,58.5 128.55,58.3 130.65,58.8 			"/>
			
				<radialGradient id="SVGID_28_" cx="-431.7148" cy="564.0449" r="36.2051" gradientTransform="matrix(1 0 0 -1 558 587)" gradientUnits="userSpaceOnUse">
				<stop  offset="0" style="stop-color:#FFEFC1"/>
				<stop  offset="0.1392" style="stop-color:#E4CC99"/>
				<stop  offset="0.3454" style="stop-color:#C8A66E"/>
				<stop  offset="0.5412" style="stop-color:#B58D50"/>
				<stop  offset="0.7212" style="stop-color:#A87D3C"/>
				<stop  offset="0.8798" style="stop-color:#A17432"/>
				<stop  offset="1" style="stop-color:#9E712F"/>
			</radialGradient>
			<polygon fill="url(#SVGID_28_)" points="134.95,56.1 132.85,55.6 125.85,41.6 128.05,42.1 			"/>
			
				<radialGradient id="SVGID_29_" cx="-431.7129" cy="564.0566" r="36.2167" gradientTransform="matrix(1 0 0 -1 558 587)" gradientUnits="userSpaceOnUse">
				<stop  offset="0" style="stop-color:#FFEFC1"/>
				<stop  offset="1" style="stop-color:#9E712F"/>
			</radialGradient>
			<polygon fill="url(#SVGID_29_)" points="119.95,59.6 117.85,59 120.55,58.8 122.65,59.4 			"/>
			
				<radialGradient id="SVGID_30_" cx="-431.7134" cy="564.0449" r="36.2054" gradientTransform="matrix(1 0 0 -1 558 587)" gradientUnits="userSpaceOnUse">
				<stop  offset="0" style="stop-color:#FFEFC1"/>
				<stop  offset="1" style="stop-color:#9E712F"/>
			</radialGradient>
			<polygon fill="url(#SVGID_30_)" points="125.35,69.7 123.25,69.1 117.85,59 119.95,59.6 			"/>
			
				<radialGradient id="SVGID_31_" cx="-431.7153" cy="564.0459" r="36.2056" gradientTransform="matrix(1 0 0 -1 558 587)" gradientUnits="userSpaceOnUse">
				<stop  offset="0" style="stop-color:#FFEFC1"/>
				<stop  offset="0.1543" style="stop-color:#E1C794"/>
				<stop  offset="0.3537" style="stop-color:#C7A56C"/>
				<stop  offset="0.5441" style="stop-color:#B48D4F"/>
				<stop  offset="0.7205" style="stop-color:#A87D3C"/>
				<stop  offset="0.8778" style="stop-color:#A17432"/>
				<stop  offset="1" style="stop-color:#9E712F"/>
			</radialGradient>
			<polygon fill="url(#SVGID_31_)" points="122.65,59.4 120.55,58.8 120.65,41.9 122.75,42.5 			"/>
			
				<radialGradient id="SVGID_32_" cx="-431.7163" cy="564.0781" r="36.2365" gradientTransform="matrix(1 0 0 -1 558 587)" gradientUnits="userSpaceOnUse">
				<stop  offset="0" style="stop-color:#FFEFC1"/>
				<stop  offset="1" style="stop-color:#9E712F"/>
			</radialGradient>
			<polygon fill="url(#SVGID_32_)" points="115.95,59.8 113.85,59.2 116.65,59 118.75,59.6 			"/>
			
				<radialGradient id="SVGID_33_" cx="-431.7148" cy="564.0469" r="36.2057" gradientTransform="matrix(1 0 0 -1 558 587)" gradientUnits="userSpaceOnUse">
				<stop  offset="0" style="stop-color:#FFEFC1"/>
				<stop  offset="1" style="stop-color:#9E712F"/>
			</radialGradient>
			<polygon fill="url(#SVGID_33_)" points="119.75,37.2 117.65,36.6 123.35,24.6 125.45,25.1 			"/>
			
				<radialGradient id="SVGID_34_" cx="-431.7158" cy="564.0488" r="36.2089" gradientTransform="matrix(1 0 0 -1 558 587)" gradientUnits="userSpaceOnUse">
				<stop  offset="0" style="stop-color:#FFEFC1"/>
				<stop  offset="1" style="stop-color:#9E712F"/>
			</radialGradient>
			<polygon fill="url(#SVGID_34_)" points="110.75,60.1 108.65,59.6 108.65,55.3 110.75,55.8 			"/>
			
				<radialGradient id="SVGID_35_" cx="-431.7148" cy="564.0449" r="36.2052" gradientTransform="matrix(1 0 0 -1 558 587)" gradientUnits="userSpaceOnUse">
				<stop  offset="0" style="stop-color:#FFEFC1"/>
				<stop  offset="1" style="stop-color:#9E712F"/>
			</radialGradient>
			<polygon fill="url(#SVGID_35_)" points="110.75,55.8 108.65,55.3 117.65,36.6 119.75,37.2 			"/>
			
				<radialGradient id="SVGID_36_" cx="-460.9629" cy="531.8789" r="21.0942" gradientTransform="matrix(1 0 0 -1 558 587)" gradientUnits="userSpaceOnUse">
				<stop  offset="0" style="stop-color:#FFEFC1"/>
				<stop  offset="1" style="stop-color:#9E712F"/>
			</radialGradient>
			<polygon fill="url(#SVGID_36_)" points="108.05,60.3 105.95,59.8 108.65,59.6 110.75,60.1 			"/>
			
				<radialGradient id="SVGID_37_" cx="-436.4004" cy="554.7188" r="34.7837" gradientTransform="matrix(1 0 0 -1 558 587)" gradientUnits="userSpaceOnUse">
				<stop  offset="0.3297" style="stop-color:#EFE8B3"/>
				<stop  offset="1" style="stop-color:#D88429"/>
			</radialGradient>
			<polygon fill="url(#SVGID_37_)" points="140.15,58.2 142.95,58 137.65,68.8 132.25,58.7 134.95,58.5 134.95,56.1 128.05,42.1 
				127.95,59 130.65,58.8 125.35,69.7 119.95,59.6 122.65,59.4 122.75,42.5 116.05,57.4 115.95,59.8 118.75,59.6 113.25,70.5 
				108.05,60.3 110.75,60.1 110.75,55.8 119.75,37.2 125.45,25.1 131.45,36.4 140.25,53.8 			"/>
			
				<radialGradient id="SVGID_38_" cx="-431.7158" cy="564.0459" r="36.2059" gradientTransform="matrix(1 0 0 -1 558 587)" gradientUnits="userSpaceOnUse">
				<stop  offset="0" style="stop-color:#FFEFC1"/>
				<stop  offset="1" style="stop-color:#9E712F"/>
			</radialGradient>
			<polygon fill="url(#SVGID_38_)" points="113.25,70.5 111.15,69.9 105.95,59.8 108.05,60.3 			"/>
			
				<radialGradient id="SVGID_39_" cx="-437.3457" cy="560.7109" r="24.4023" gradientTransform="matrix(1 0 0 -1 558 587)" gradientUnits="userSpaceOnUse">
				<stop  offset="0" style="stop-color:#FFEFC1"/>
				<stop  offset="1" style="stop-color:#9E712F"/>
			</radialGradient>
			<path fill="url(#SVGID_39_)" d="M107.25,60.1l3.1-0.2V56l9-18l6.1-13l6.4,12.2l8.9,16.8l-0.1,3.9l3.1-0.2l-6.3,11.2l-6.1-10.1
				l-6.1,11l-6-9.9l-6.2,10.7L107.25,60.1L107.25,60.1z M120.35,38.4l-8.9,17.8v4.7l-2.3,0.2l4.2,7.3l4.6-8l-2.3,0.2v-3.1l6.8-16.6
				l1,0.2l-0.1,19.1l-2.3,0.2l4.4,7.3l4.4-8l-2.3,0.2V40.8l1-0.2l7,15.7l-0.1,3l-2.3,0.2l4.4,7.3l4.4-8l-1.8,0.1v-0.5v0.5h-0.6
				l0.1-4.8l-8.8-16.6l-5.5-10.4L120.35,38.4L120.35,38.4z M116.65,57.7v1.8l3.2-0.2v0.1l2.5-0.2l0.1-15.4L116.65,57.7L116.65,57.7z
				 M128.55,58.7l2.8-0.2l0,0l3.1-0.2l0.1-1.8l-5.9-13.3L128.55,58.7L128.55,58.7z"/>
		</g>
	</g>
</g>

<path id="Background" fill="none" d="M239.5,109.5c0,5.52-4.48,10-10,10H9.5c-5.52,0-10-4.48-10-10V9.5c0-5.52,4.48-10,10-10h220
	c5.52,0,10,4.48,10,10V109.5z"/>
</g>

</svg>
