<?xml version="1.0" encoding="utf-8"?>
<!DOCTYPE svg PUBLIC "-//W3C//DTD SVG 1.0//EN" "http://www.w3.org/TR/2001/REC-SVG-20010904/DTD/svg10.dtd" [
<!ENTITY ns_svg "http://www.w3.org/2000/svg">
<!ENTITY ns_xlink "http://www.w3.org/1999/xlink">
]>
<svg xmlns="&ns_svg;" xmlns:xlink="&ns_xlink;" width="240" height="120" viewBox="0 0 240 120" overflow="visible" enable-background="new 0 0 240 120" xml:space="preserve">

<g id="Layer_1">

<defs>
</defs>
<path id="Background_1_" fill="none" d="M240,110c0,5.523-4.478,10-10,10H10c-5.523,0-10-4.477-10-10V10C0,4.477,4.477,0,10,0h220
	c5.522,0,10,4.477,10,10V110z"/>
<path fill="#262626" d="M150.946,53.49c-0.677-1.733-1.979-2.912-3.288-3.817c-0.228-0.381-0.458-0.723-0.664-1.02
	c-0.991-1.439-2.252-2.632-3.636-3.586c-1.588-1.093-3.341-1.877-5.147-2.399c-0.065-0.019-0.145-0.044-0.238-0.069
	c-0.257-0.07-0.515-0.137-0.775-0.197c-0.109-0.939-0.764-1.637-1.224-1.906c-0.802-0.498-1.455-0.592-2.058-0.696
	c-0.599-0.088-1.106-0.106-1.436-0.106c-0.056,0-0.104,0.001-0.154,0.004c-0.394,0.012-1.068,0.039-1.841,0.224
	c-0.411,0.104-0.857,0.237-1.358,0.558c-0.426,0.263-0.976,0.799-1.194,1.571c-0.039,0.11-0.073,0.229-0.098,0.354
	c-4.167,0.967-8.098,3.293-10.417,7.244c-0.816,0.576-1.597,1.266-2.265,2.117c-0.438,0.557-0.784,1.129-1.031,1.719
	c-0.596,0.808-1.079,1.855-1.083,3.104c0,0.091,0.002,0.222,0.018,0.384c0.127,1.885,1.227,3.223,2.264,4.095
	c2.99,2.477,6.801,3.143,9.879,3.658c2.386,0.38,4.798,0.551,7.199,0.551c1.317,0,2.628-0.055,3.93-0.148
	c3.065-0.231,6.228-0.724,9.257-1.826c1.068-0.395,2.488-0.975,3.784-1.935c1.26-0.926,2.598-2.45,2.605-4.604
	c0-0.056,0-0.056,0-0.056C151.984,55.44,151.547,54.334,150.946,53.49z"/>
<path fill="#262626" d="M144.882,31.943l-0.167-0.036l-15.369-3.078l-0.148-0.031l-0.575-0.035l-0.213,0.018l-9.449,0.827
	l-1.331-0.349c-0.339-0.188-0.729-0.275-1.121-0.246l-0.233,0.018l-7.717,0.531l-0.263,0.021c-0.716,0.061-1.317,0.494-1.62,1.1
	l-16.256,1.426l-0.223,0.021c-1.024,0.087-1.809,0.928-1.827,1.954l-0.315,17.123c-0.02,0.109-0.028,0.221-0.028,0.336v0.533
	c0,0.941,0.658,1.756,1.578,1.955l0.169,0.035l15.353,3.075l0.104,0.023l0.611,0.044l0.225-0.019l13.704-1.197l1.003,0.263
	c0.182,0.049,0.368,0.07,0.552,0.066c0.06,0,0.12-0.002,0.18-0.006l0.233-0.019l7.712-0.549l0.268-0.022
	c0.554-0.05,1.038-0.32,1.369-0.723l12.968-1.132l0.077-0.009l0.224-0.028c0.957-0.122,1.693-0.917,1.743-1.878
	c0.014-0.088,0.021-0.176,0.022-0.266l0.325-17.758C146.463,32.983,145.806,32.149,144.882,31.943z"/>
<linearGradient id="SVGID_1_" gradientUnits="userSpaceOnUse" x1="-175.4502" y1="-408.2012" x2="-165.5103" y2="-390.9846" gradientTransform="matrix(1 0 0 -1 283 -358.7578)">
	<stop  offset="0.2247" style="stop-color:#EFE7B0"/>
	<stop  offset="0.3324" style="stop-color:#EEE2AA"/>
	<stop  offset="0.4779" style="stop-color:#EBD699"/>
	<stop  offset="0.645" style="stop-color:#E5C07C"/>
	<stop  offset="0.8268" style="stop-color:#DEA355"/>
	<stop  offset="1" style="stop-color:#D68229"/>
</linearGradient>
<polygon fill="url(#SVGID_1_)" points="116.201,31.482 116.127,49.678 108.847,50.191 108.913,31.994 "/>
<linearGradient id="SVGID_2_" gradientUnits="userSpaceOnUse" x1="-175.7959" y1="-408.8623" x2="-165.163" y2="-390.4458" gradientTransform="matrix(1 0 0 -1 283 -358.7578)">
	<stop  offset="0" style="stop-color:#EFE7B0"/>
	<stop  offset="0.1555" style="stop-color:#ECDCA2"/>
	<stop  offset="0.4498" style="stop-color:#E6C17D"/>
	<stop  offset="0.8489" style="stop-color:#DB9441"/>
	<stop  offset="1" style="stop-color:#D68229"/>
</linearGradient>
<path fill="url(#SVGID_2_)" d="M116.426,31.025l0.233-0.018v0.27l-0.073,18.652v0.271l-0.234,0.018l-7.729,0.551l-0.233,0.019v-0.27
	l0.075-18.673v-0.27l0.232-0.02L116.426,31.025z M116.089,49.696l0.076-18.103l-7.252,0.514l-0.075,18.103L116.089,49.696"/>
<linearGradient id="SVGID_3_" gradientUnits="userSpaceOnUse" x1="-173.6982" y1="-407.4272" x2="-154.5309" y2="-414.4037" gradientTransform="matrix(1 0 0 -1 283 -358.7578)">
	<stop  offset="0" style="stop-color:#EFE7B0"/>
	<stop  offset="0.1652" style="stop-color:#E6D79E"/>
	<stop  offset="0.4979" style="stop-color:#CEAE6E"/>
	<stop  offset="0.9639" style="stop-color:#A86B22"/>
	<stop  offset="1" style="stop-color:#A5661C"/>
</linearGradient>
<polygon fill="url(#SVGID_3_)" points="121.469,54.124 108.548,50.742 116.313,50.191 129.224,53.574 "/>
<polygon fill="#D68229" points="121.281,54.321 108.37,50.936 108.37,50.667 121.281,54.05 "/>
<polygon fill="#794917" points="143.684,33.859 143.348,51.616 128.349,48.624 128.683,30.867 "/>
<polygon fill="#C37625" points="128.683,30.867 128.349,48.624 90.808,51.907 91.134,34.138 "/>
<polygon fill="#93C792" points="90.537,34.158 90.211,51.907 90.043,51.878 90.369,34.121 "/>
<polygon fill="#4D3421" points="106.133,37.15 105.807,54.908 90.808,51.907 91.134,34.138 "/>
<polygon fill="#7D5536" points="143.684,33.859 143.348,51.616 105.807,54.908 106.133,37.15 "/>
<path fill="#93C792" d="M128.573,30.773l0.214-0.018l0.167,0.035l15.326,3.068l0.166,0.037l-0.212,0.02l-37.989,3.326l-0.223,0.02
	l-0.168-0.037l-15.317-3.066l-0.168-0.037l0.225-0.02L128.573,30.773z M143.684,33.859l-15.001-3.01l-37.549,3.289l14.999,3.012
	L143.684,33.859"/>
<linearGradient id="SVGID_4_" gradientUnits="userSpaceOnUse" x1="-447.2148" y1="560.626" x2="-427.7937" y2="541.2043" gradientTransform="matrix(1 0 0 -1 558 588)">
	<stop  offset="0.0056" style="stop-color:#FFFFFF"/>
	<stop  offset="1" style="stop-color:#E7F2E1"/>
</linearGradient>
<polygon fill="url(#SVGID_4_)" points="128.683,30.867 143.684,33.859 106.133,37.15 91.134,34.138 "/>
<linearGradient id="SVGID_5_" gradientUnits="userSpaceOnUse" x1="-473.6025" y1="557.0752" x2="-454.9589" y2="538.4316" gradientTransform="matrix(1 0 0 -1 558 588)">
	<stop  offset="0.2247" style="stop-color:#E7F2E1"/>
	<stop  offset="0.4075" style="stop-color:#E0EFDB"/>
	<stop  offset="0.6684" style="stop-color:#CDE5CA"/>
	<stop  offset="0.9751" style="stop-color:#AFD5AF"/>
	<stop  offset="1" style="stop-color:#ACD4AC"/>
</linearGradient>
<polygon fill="url(#SVGID_5_)" points="105.864,37.224 105.536,54.983 90.211,51.907 90.537,34.158 "/>
<linearGradient id="SVGID_6_" gradientUnits="userSpaceOnUse" x1="-177.2949" y1="-404.8882" x2="-176.7469" y2="-404.8882" gradientTransform="matrix(1 0 0 -1 283 -358.7578)">
	<stop  offset="0.0056" style="stop-color:#ACD4AC"/>
	<stop  offset="1" style="stop-color:#73B64A"/>
</linearGradient>
<polygon fill="url(#SVGID_6_)" points="106.245,37.242 105.919,55.001 105.694,55.019 106.031,37.261 "/>
<polygon fill="#93C792" points="106.031,37.261 105.694,55.019 105.536,54.983 105.864,37.224 "/>
<linearGradient id="SVGID_7_" gradientUnits="userSpaceOnUse" x1="-161.6387" y1="-394.4189" x2="-174.3351" y2="-389.7979" gradientTransform="matrix(1 0 0 -1 283 -358.7578)">
	<stop  offset="0" style="stop-color:#EFE7B0"/>
	<stop  offset="0.1354" style="stop-color:#EEE2A9"/>
	<stop  offset="0.3317" style="stop-color:#EAD396"/>
	<stop  offset="0.5651" style="stop-color:#E4BC76"/>
	<stop  offset="0.8247" style="stop-color:#DC9B4B"/>
	<stop  offset="1" style="stop-color:#D68229"/>
</linearGradient>
<polygon fill="url(#SVGID_7_)" points="121.356,35.052 108.437,31.667 108.679,31.65 121.59,35.033 "/>
<linearGradient id="SVGID_8_" gradientUnits="userSpaceOnUse" x1="-181.2827" y1="-401.8188" x2="-149.4056" y2="-383.4144" gradientTransform="matrix(1 0 0 -1 283 -358.7578)">
	<stop  offset="0.0056" style="stop-color:#ACD4AC"/>
	<stop  offset="1" style="stop-color:#93C792"/>
</linearGradient>
<path fill="url(#SVGID_8_)" d="M96.765,34.484l33.438-2.928l8.343,1.678l-33.429,2.928L96.765,34.484z M136.245,33.15l-6.358-1.277
	l-30.82,2.705l6.359,1.275L136.245,33.15"/>
<linearGradient id="SVGID_9_" gradientUnits="userSpaceOnUse" x1="-179.3696" y1="-393.6187" x2="-174.4583" y2="-393.6187" gradientTransform="matrix(1 0 0 -1 283 -358.7578)">
	<stop  offset="0.0056" style="stop-color:#E7F2E1"/>
	<stop  offset="1" style="stop-color:#93C792"/>
</linearGradient>
<path fill="url(#SVGID_9_)" d="M104.604,34.558c1.082-0.094,2.61-0.037,3.43,0.131c0.821,0.168,0.606,0.381-0.475,0.475
	c-1.062,0.094-2.592,0.037-3.432-0.131C103.309,34.867,103.524,34.669,104.604,34.558z"/>
<linearGradient id="SVGID_10_" gradientUnits="userSpaceOnUse" x1="-154.7627" y1="-391.6899" x2="-150.0897" y2="-391.6899" gradientTransform="matrix(1 0 0 -1 283 -358.7578)">
	<stop  offset="0.0056" style="stop-color:#ACD4AC"/>
	<stop  offset="1" style="stop-color:#93C792"/>
</linearGradient>
<polygon fill="url(#SVGID_10_)" points="132.245,32.695 132.899,32.814 128.899,33.169 128.247,33.039 "/>
<polygon fill="#D68229" points="129.373,34.484 116.463,31.099 116.695,31.082 129.615,34.464 "/>
<linearGradient id="SVGID_11_" gradientUnits="userSpaceOnUse" x1="-451.9868" y1="567.8193" x2="-434.7394" y2="550.5714" gradientTransform="matrix(1 0 0 -1 558 588)">
	<stop  offset="0.3876" style="stop-color:#EFE7B0"/>
	<stop  offset="0.6845" style="stop-color:#E3B56D"/>
	<stop  offset="1" style="stop-color:#D68229"/>
</linearGradient>
<polygon fill="url(#SVGID_11_)" points="121.552,35.136 108.492,31.667 116.352,31.099 129.412,34.578 "/>
<linearGradient id="SVGID_12_" gradientUnits="userSpaceOnUse" x1="-161.813" y1="-394.5449" x2="-174.3961" y2="-389.9651" gradientTransform="matrix(1 0 0 -1 283 -358.7578)">
	<stop  offset="0" style="stop-color:#EFE7B0"/>
	<stop  offset="0.2463" style="stop-color:#E8C988"/>
	<stop  offset="0.5927" style="stop-color:#DEA355"/>
	<stop  offset="0.8548" style="stop-color:#D88B35"/>
	<stop  offset="1" style="stop-color:#D68229"/>
</linearGradient>
<polygon fill="url(#SVGID_12_)" points="121.356,35.322 108.437,31.941 108.437,31.667 121.356,35.052 "/>
<linearGradient id="SVGID_13_" gradientUnits="userSpaceOnUse" x1="-139.0928" y1="-401.543" x2="-138.554" y2="-401.543" gradientTransform="matrix(1 0 0 -1 283 -358.7578)">
	<stop  offset="0.0056" style="stop-color:#ACD4AC"/>
	<stop  offset="1" style="stop-color:#73B64A"/>
</linearGradient>
<polygon fill="url(#SVGID_13_)" points="144.446,33.896 144.122,51.654 143.898,51.674 144.234,33.916 "/>
<polygon fill="#885311" points="143.954,51.291 144.122,51.309 144.103,51.85 143.935,51.823 "/>
<polygon fill="#5E983C" points="144.122,51.309 144.103,51.85 143.88,51.878 143.898,51.328 "/>
<polygon fill="#C67A26" points="90.025,51.542 90.25,51.524 90.25,52.055 90.025,52.075 "/>
<polygon fill="#66A241" points="90.193,51.56 90.193,52.111 90.025,52.075 90.025,51.542 "/>
<polygon fill="#4E8333" points="105.536,54.647 105.519,55.179 90.193,52.111 90.193,51.56 "/>
<polygon fill="#5A923A" points="143.898,51.328 143.88,51.878 105.9,55.197 105.919,54.647 "/>
<polygon fill="#639F40" points="105.919,54.647 105.9,55.197 105.677,55.215 105.694,54.665 "/>
<polygon fill="#589039" points="105.694,54.665 105.677,55.215 105.519,55.179 105.536,54.647 "/>
<linearGradient id="SVGID_14_" gradientUnits="userSpaceOnUse" x1="-462.6729" y1="573.292" x2="-434.2386" y2="544.8577" gradientTransform="matrix(1 0 0 -1 558 588)">
	<stop  offset="0.4157" style="stop-color:#E7F2E1"/>
	<stop  offset="0.5898" style="stop-color:#E4F0DE"/>
	<stop  offset="0.7297" style="stop-color:#DAEBD5"/>
	<stop  offset="0.8576" style="stop-color:#C9E3C6"/>
	<stop  offset="0.9777" style="stop-color:#B1D7B1"/>
	<stop  offset="1" style="stop-color:#ACD4AC"/>
</linearGradient>
<polygon fill="url(#SVGID_14_)" points="144.234,33.916 143.898,51.674 105.919,55.001 106.245,37.242 "/>
<linearGradient id="SVGID_15_" gradientUnits="userSpaceOnUse" x1="-451.499" y1="562.5566" x2="-430.8338" y2="541.8914" gradientTransform="matrix(1 0 0 -1 558 588)">
	<stop  offset="0.0506" style="stop-color:#EFE7B0"/>
	<stop  offset="0.2414" style="stop-color:#EEE4AD"/>
	<stop  offset="0.403" style="stop-color:#ECDDA2"/>
	<stop  offset="0.554" style="stop-color:#E9D091"/>
	<stop  offset="0.6985" style="stop-color:#E5BD78"/>
	<stop  offset="0.8384" style="stop-color:#DFA558"/>
	<stop  offset="0.973" style="stop-color:#D88832"/>
	<stop  offset="1" style="stop-color:#D68229"/>
</linearGradient>
<polygon fill="url(#SVGID_15_)" points="129.122,35.033 129.048,53.221 121.758,53.732 121.832,35.537 "/>
<linearGradient id="SVGID_16_" gradientUnits="userSpaceOnUse" x1="-438.5093" y1="549.5986" x2="-418.8576" y2="529.946" gradientTransform="matrix(1 0 0 -1 558 588)">
	<stop  offset="0" style="stop-color:#EFE7B0"/>
	<stop  offset="0.0741" style="stop-color:#EAD395"/>
	<stop  offset="0.2584" style="stop-color:#E4BA74"/>
	<stop  offset="0.3989" style="stop-color:#DFA659"/>
	<stop  offset="0.5056" style="stop-color:#DB9643"/>
	<stop  offset="0.6742" style="stop-color:#D88B35"/>
	<stop  offset="0.8258" style="stop-color:#D6842C"/>
	<stop  offset="1" style="stop-color:#D68229"/>
</linearGradient>
<path fill="url(#SVGID_16_)" d="M129.373,34.484l0.242-0.02v0.271l-0.073,18.728v0.269l-0.233,0.021l-7.728,0.55l-0.234,0.019V54.05
	l0.067-18.729v-0.27l0.232-0.02L129.373,34.484z M129.048,53.221l0.074-18.196l-7.252,0.512l-0.074,18.195L129.048,53.221"/>
<rect x="121.067" y="35.835" fill="#4D4D4D" width="0.289" height="17.833"/>
<path fill="#666666" d="M144.191,52.09l0.125-5.875c-0.391-0.337-1.1-1.033-1.521-1.322c-1.984-1.363-4.261-2.248-6.602-2.686
	c0.009-0.037,0.012-0.068,0.012-0.092c0.009-0.063,0.013-0.121,0.012-0.178c0-0.002,0-0.004,0-0.006V41.93c0-0.002,0-0.004,0-0.006
	c0-0.004,0-0.006,0-0.01c-0.001-0.002-0.001-0.004-0.001-0.006s0-0.002,0-0.004c0-0.008,0-0.016,0-0.023
	c-0.001-0.02-0.002-0.037-0.003-0.049c-0.001-0.006-0.001-0.01-0.001-0.014c0.003-0.047,0.003-0.088,0.003-0.123
	c0.006-0.654-0.431-1.148-0.787-1.365c-1.08-0.645-2.359-0.607-2.944-0.639c-0.054,0-0.101,0.002-0.146,0.008
	c-0.352,0.008-0.971,0.039-1.613,0.191c-0.343,0.086-0.697,0.201-1.05,0.428c-0.307,0.191-0.654,0.541-0.784,1.035
	c-0.057,0.145-0.095,0.314-0.095,0.496c-0.001,0.123,0.017,0.246,0.048,0.363c-4.313,0.814-8.406,3.115-10.669,7.131
	c-0.819,0.557-1.588,1.219-2.229,2.039c-0.746,0.947-1.313,2.136-1.378,3.082L144.191,52.09z"/>
<radialGradient id="SVGID_17_" cx="123.0342" cy="61.2881" r="21.183" fx="125.5669" fy="52.0013" gradientUnits="userSpaceOnUse">
	<stop  offset="0.1813" style="stop-color:#FFFFFF"/>
	<stop  offset="0.209" style="stop-color:#FBFBFB"/>
	<stop  offset="0.2366" style="stop-color:#EFEFEF"/>
	<stop  offset="0.2641" style="stop-color:#DBDBDB"/>
	<stop  offset="0.2917" style="stop-color:#BFBFBF"/>
	<stop  offset="0.3192" style="stop-color:#9B9B9B"/>
	<stop  offset="0.3464" style="stop-color:#6F6F6F"/>
	<stop  offset="0.3516" style="stop-color:#666666"/>
	<stop  offset="1" style="stop-color:#3D3D3D"/>
</radialGradient>
<path fill="url(#SVGID_17_)" d="M149.978,56.652c0-2.975-3.744-4.416-6.084-5.145c-3.16-0.982-6.511-1.375-9.81-1.475
	c-2.973-0.091-5.959,0.062-8.896,0.541c-2.945,0.479-6.348,1.236-8.663,3.244c-0.87,0.754-1.581,1.812-1.472,3.014
	c0.06,1.105,0.735,2.014,1.556,2.704c2.409,2.028,5.883,2.729,8.907,3.213c3.515,0.562,7.122,0.652,10.668,0.384
	c2.948-0.223,5.932-0.696,8.718-1.711C146.889,60.7,150.071,59.223,149.978,56.652"/>
<radialGradient id="SVGID_18_" cx="124.5693" cy="53.6899" r="18.2668" fx="125.0298" fy="52.6154" gradientUnits="userSpaceOnUse">
	<stop  offset="0.1978" style="stop-color:#BFCDE6"/>
	<stop  offset="0.2363" style="stop-color:#BAC8E2"/>
	<stop  offset="0.2829" style="stop-color:#ABBBD7"/>
	<stop  offset="0.3336" style="stop-color:#93A5C4"/>
	<stop  offset="0.3736" style="stop-color:#7A8FB1"/>
	<stop  offset="1" style="stop-color:#3B537A"/>
</radialGradient>
<path fill="url(#SVGID_18_)" d="M149.244,56.145c0.668-3.118-3.211-5.415-5.628-6.357c-2.774-1.102-5.81-1.552-8.774-1.724
	c-3.422-0.199-6.904,0.004-10.252,0.764c-2.859,0.646-5.992,1.786-7.861,4.171c-4.243,5.414,5.778,7.599,9.337,8.089
	c2.989,0.412,6.03,0.531,9.044,0.361c3.403-0.191,6.868-0.648,10.069-1.872C146.762,58.972,148.809,57.952,149.244,56.145"/>
<radialGradient id="SVGID_19_" cx="127.1797" cy="42.6372" r="22.8754" gradientUnits="userSpaceOnUse">
	<stop  offset="0" style="stop-color:#F0F0F0"/>
	<stop  offset="0.2912" style="stop-color:#EBEBEB"/>
	<stop  offset="0.7033" style="stop-color:#A6A6A6"/>
	<stop  offset="1" style="stop-color:#4D4D4D"/>
</radialGradient>
<path fill="url(#SVGID_19_)" d="M146.736,52.864c-0.054-1.095-0.782-2.197-1.388-3.077c-0.834-1.209-1.915-2.24-3.123-3.071
	c-2.485-1.71-5.498-2.632-8.497-2.806c-5.696-0.388-11.984,1.88-14.794,7.121c-0.621,1.157-0.994,2.408-0.006,3.501
	c0.927,1.02,2.334,1.569,3.61,1.989c2.92,0.971,6.069,1.268,9.129,1.341c3.096,0.065,6.233-0.175,9.249-0.9
	c1.418-0.341,2.869-0.795,4.112-1.574C145.925,54.827,146.81,54.008,146.736,52.864 M131.831,57.863
	c0.257,0.004,0.515,0.007,0.771,0.006C132.346,57.87,132.088,57.868,131.831,57.863"/>
<path fill="#EDEDED" d="M121.077,55.537c-0.987-1.093-0.614-2.344,0.006-3.501c2.81-5.241,9.099-7.509,14.794-7.121
	c1.781,0.103,3.565,0.478,5.243,1.117c-2.248-1.271-4.824-1.974-7.392-2.122c-5.696-0.388-11.984,1.88-14.794,7.121
	c-0.621,1.157-0.994,2.408-0.006,3.501c0.816,0.898,2.005,1.432,3.149,1.833C121.71,56.126,121.368,55.857,121.077,55.537z"/>
<linearGradient id="SVGID_20_" gradientUnits="userSpaceOnUse" x1="120.7173" y1="55.2676" x2="146.6581" y2="55.2676">
	<stop  offset="0" style="stop-color:#EDEDED"/>
	<stop  offset="1" style="stop-color:#808080"/>
</linearGradient>
<path fill="url(#SVGID_20_)" d="M145.029,54.735c-1.243,0.779-2.694,1.233-4.112,1.574c-3.016,0.726-6.153,0.966-9.249,0.9
	c-3.06-0.073-6.209-0.37-9.129-1.341c-1.276-0.42-2.684-0.97-3.61-1.989c-0.349-0.386-0.521-0.791-0.58-1.205
	c-0.081,0.639,0.05,1.271,0.58,1.857c0.927,1.02,2.334,1.569,3.61,1.989c2.92,0.971,6.069,1.268,9.129,1.341
	c3.096,0.065,6.233-0.175,9.249-0.9c1.418-0.341,2.869-0.795,4.112-1.574c0.896-0.561,1.78-1.379,1.707-2.523
	c-0.003-0.066-0.017-0.134-0.024-0.2C146.563,53.575,145.802,54.251,145.029,54.735z"/>
<linearGradient id="SVGID_21_" gradientUnits="userSpaceOnUse" x1="133.3799" y1="44.3638" x2="131.625" y2="44.3638">
	<stop  offset="0" style="stop-color:#262626"/>
	<stop  offset="0.1868" style="stop-color:#6B6B6B"/>
	<stop  offset="0.6099" style="stop-color:#CCCCCC"/>
	<stop  offset="0.8516" style="stop-color:#CCCCCC"/>
	<stop  offset="1" style="stop-color:#424242"/>
</linearGradient>
<path fill="url(#SVGID_21_)" d="M133.343,43.639c0-0.385-1.284-0.214-1.404-0.178c-0.461,0.138-0.345,1.275-0.088,1.58
	c0.311,0.379,0.961,0.39,1.292,0.037C133.447,44.762,133.388,44.039,133.343,43.639"/>
<linearGradient id="SVGID_22_" gradientUnits="userSpaceOnUse" x1="129.7939" y1="43.0078" x2="135.2158" y2="43.0078">
	<stop  offset="0" style="stop-color:#262626"/>
	<stop  offset="0.1868" style="stop-color:#303030"/>
	<stop  offset="0.6099" style="stop-color:#CCCCCC"/>
	<stop  offset="0.8516" style="stop-color:#808080"/>
	<stop  offset="1" style="stop-color:#424242"/>
</linearGradient>
<path fill="url(#SVGID_22_)" d="M135.216,42.928c0-1.063-2.508-0.981-3.183-0.944c-0.442,0.024-2.678,0.226-2.162,1.12
	c-0.098-0.172,0.143,0.259,0.236,0.338c0.189,0.16,0.427,0.267,0.658,0.35c0.474,0.171,0.989,0.233,1.489,0.254
	c0.594,0.022,1.197-0.025,1.771-0.181c0.23-0.063,0.461-0.147,0.669-0.268c0.141-0.081,0.286-0.185,0.382-0.316
	c-0.007,0.01,0.214-0.426,0.085-0.187C135.2,43.044,135.218,42.99,135.216,42.928 M134.938,43.323
	c-0.039,0.025-0.091,0.048-0.138,0.071C134.847,43.371,134.898,43.348,134.938,43.323z M134.676,43.457
	c-0.056,0.022-0.123,0.042-0.186,0.063C134.553,43.499,134.62,43.479,134.676,43.457z M129.908,43.17
	c0.024,0.028,0.063,0.056,0.096,0.082C129.971,43.226,129.933,43.199,129.908,43.17z M130.079,43.315
	c0.04,0.026,0.092,0.049,0.139,0.073C130.171,43.364,130.119,43.341,130.079,43.315z M130.652,43.56
	c0.067,0.017,0.134,0.033,0.2,0.05C130.786,43.593,130.72,43.577,130.652,43.56 M130.331,43.447c0.054,0.022,0.118,0.042,0.18,0.063
	C130.449,43.489,130.385,43.469,130.331,43.447z M134.203,43.604c0.044-0.018,0.09-0.028,0.137-0.033
	C134.295,43.583,134.249,43.593,134.203,43.604 M135.026,43.251c0.031-0.025,0.067-0.05,0.091-0.076
	C135.094,43.202,135.058,43.226,135.026,43.251z"/>
<radialGradient id="SVGID_23_" cx="131.3232" cy="41.9468" r="3.3988" gradientUnits="userSpaceOnUse">
	<stop  offset="0" style="stop-color:#FFFFFF"/>
	<stop  offset="0.2912" style="stop-color:#F3F4F5"/>
	<stop  offset="0.7033" style="stop-color:#DEDEDE"/>
	<stop  offset="1" style="stop-color:#C7C7C7"/>
</radialGradient>
<path fill="url(#SVGID_23_)" d="M135.21,42.771c0.124-0.985-2.239-1.085-2.792-1.076c-0.609,0.01-2.6,0.112-2.6,1.063
	c0.057,1,2.116,1.07,2.793,1.06C133.312,43.806,135.091,43.72,135.21,42.771"/>
</g>

</svg>
