<?xml version="1.0" encoding="utf-8"?>
<!DOCTYPE svg PUBLIC "-//W3C//DTD SVG 1.0//EN" "http://www.w3.org/TR/2001/REC-SVG-20010904/DTD/svg10.dtd" [
<!ENTITY ns_svg "http://www.w3.org/2000/svg">
<!ENTITY ns_xlink "http://www.w3.org/1999/xlink">
]>
<svg xmlns="&ns_svg;" xmlns:xlink="&ns_xlink;" width="240" height="120" viewBox="0 0 240 120" overflow="visible" enable-background="new 0 0 240 120" xml:space="preserve">

<g id="Layer_1">

<path id="Background" fill="none" d="M239.75,110c0,5.52-4.48,10-10,10h-220c-5.52,0-10-4.48-10-10V10c0-5.52,4.48-10,10-10h220
	c5.52,0,10,4.48,10,10V110z"/>
<g>
	<path fill="#262626" d="M145.23,21.66c-0.07-0.03-0.15-0.05-0.23-0.08c-0.03-0.01-0.06-0.02-0.09-0.02
		c-6.53-1.71-12.99-3.59-19.59-5.31c-0.18-0.05-0.34-0.07-0.46-0.09l-0.09-0.01c-0.04,0-0.07,0-0.08,0c-0.04,0-0.1-0.01-0.21-0.01h0
		c-0.02,0-0.05,0-0.09,0c0,0,0,0-0.01,0l0,0h-0.02l-0.05,0c-0.02,0-0.04,0-0.06,0l-29.03,2.03c-0.24,0.02-0.5,0.06-0.76,0.14
		c-0.2,0.06-0.41,0.15-0.61,0.25c-0.07,0.04-0.12,0.07-0.15,0.09c-0.01,0.01-0.02,0.01-0.03,0.02l-0.02,0.01
		c0,0-0.08,0.04-0.32,0.22l-0.01,0.01l0,0c-0.14,0.11-0.25,0.22-0.34,0.32c-0.03,0.03-0.08,0.07-0.12,0.13l-0.04,0.05l0,0
		c-0.13,0.15-0.21,0.27-0.26,0.35c-0.03,0.04-0.08,0.1-0.13,0.2L92.4,20c-0.12,0.21-0.21,0.42-0.29,0.63l0.01,0l-0.08,0.22
		l-0.01,0.04l-0.05,0.46v7.9v32.87v7.93c0,0.39,0.11,0.77,0.33,1.1c0.4,0.61,1.04,1.16,1.86,1.4L111,77.72
		c0.08,0.03,0.16,0.04,0.25,0.06c0.21,0.04,0.44,0.07,0.68,0.07c0.08,0,0.08,0,0.08,0l0.14,0l29.05-2.03
		c2.06-0.21,3.31-1.9,3.34-3.74l0.02-4.26c1.8-0.39,2.88-1.96,2.9-3.68l0.02-4.12c0.04-0.35-0.02-0.7-0.16-1.02
		c-0.03-0.07-0.07-0.15-0.11-0.21c0.18-0.3,0.28-0.65,0.28-1.02l0.05-32.75c0,0,0-0.01,0-0.01
		C147.54,23.57,146.67,22.16,145.23,21.66z"/>
	<radialGradient id="SVGID_1_" cx="126.9727" cy="56.8115" r="26.926" gradientUnits="userSpaceOnUse">
		<stop  offset="0.3401" style="stop-color:#6E6E6E"/>
		<stop  offset="0.5036" style="stop-color:#8B8B8B"/>
		<stop  offset="0.7044" style="stop-color:#A9A9A9"/>
		<stop  offset="0.877" style="stop-color:#BBBBBB"/>
		<stop  offset="1" style="stop-color:#C2C2C2"/>
	</radialGradient>
	<path fill="url(#SVGID_1_)" d="M141.25,31.24c0.81-0.06,1.46,0.64,1.46,1.55l-0.17,39.28c-0.01,0.91-0.67,1.7-1.48,1.76
		l-29.05,2.03c-0.81,0.06-1.47-0.64-1.46-1.55l0.17-39.28c0-0.91,0.67-1.7,1.48-1.75L141.25,31.24z"/>
	<linearGradient id="SVGID_2_" gradientUnits="userSpaceOnUse" x1="118.7266" y1="23.71" x2="99.8406" y2="71.8692">
		<stop  offset="0" style="stop-color:#F0F0F0"/>
		<stop  offset="0.0711" style="stop-color:#E0E0E0"/>
		<stop  offset="0.0981" style="stop-color:#CBCBCB"/>
		<stop  offset="0.134" style="stop-color:#B6B6B6"/>
		<stop  offset="0.1574" style="stop-color:#AEAEAE"/>
		<stop  offset="0.329" style="stop-color:#A9A9A9"/>
		<stop  offset="0.541" style="stop-color:#9A9A9A"/>
		<stop  offset="0.7733" style="stop-color:#818181"/>
		<stop  offset="1" style="stop-color:#616161"/>
	</linearGradient>
	<path fill="url(#SVGID_2_)" d="M124.82,18.19c-0.06-0.02-0.13-0.03-0.19-0.03c-0.02,0-0.04,0-0.06,0c-0.03,0-0.06,0-0.1,0
		c-0.02,0-0.04,0-0.07,0l-29.05,2.03c-0.1,0.01-0.2,0.02-0.29,0.05l0,0c-0.09,0.03-0.18,0.07-0.27,0.11
		c-0.03,0.01-0.05,0.03-0.08,0.05c-0.05,0.03-0.1,0.06-0.14,0.09c-0.01,0-0.01,0.01-0.02,0.02c-0.07,0.05-0.13,0.11-0.18,0.17
		c-0.02,0.02-0.03,0.03-0.05,0.04c0,0,0,0,0,0.01c-0.05,0.06-0.09,0.13-0.14,0.19c-0.01,0.02-0.03,0.04-0.05,0.06c0,0,0,0,0,0
		c-0.06,0.1-0.1,0.2-0.14,0.31c0,0-0.01,0.01-0.01,0.01c0,0.01-0.01,0.03-0.01,0.05v7.9v32.87v7.93c0.19,0.29,0.45,0.5,0.77,0.58
		l16.84,5.16c-0.61-0.16-1.05-0.76-1.05-1.51l0.03-7.44l3.94,1.03c-0.61-0.16-1.05-0.76-1.05-1.51l0.15-33.21l0.08-6.49
		c0,0,0-0.01,0-0.01c0.02-0.07,0.03-0.14,0.06-0.2c0.04-0.11,0.09-0.21,0.15-0.31c0.01-0.03,0.03-0.05,0.05-0.07
		c0.04-0.07,0.09-0.13,0.14-0.19c0.02-0.02,0.04-0.04,0.06-0.06c0.06-0.06,0.11-0.12,0.18-0.17c0.05-0.04,0.1-0.07,0.16-0.11
		c0.03-0.02,0.05-0.04,0.08-0.05c0.08-0.04,0.17-0.08,0.26-0.11c0.1-0.03,0.2-0.05,0.3-0.06l28.95-1.86c0.06,0,0.11,0,0.17,0
		c0.02,0,0.04,0,0.06,0c0.06,0.01,0.13,0.02,0.19,0.03C137.89,21.8,131.41,19.91,124.82,18.19z"/>
	<path fill="none" stroke="#E3E3E3" stroke-width="0.212" stroke-linecap="round" stroke-linejoin="round" d="M109.03,74.93
		c-0.23-0.28-0.37-0.65-0.37-1.07l0.03-9.68c0,0,2.85,0.84,2.89,0.77l0.15-32.2l0.08-6.49c0,0,0-0.01,0-0.01
		c0.02-0.07,0.03-0.14,0.05-0.2c0.04-0.11,0.09-0.21,0.15-0.31c0.01-0.02,0.03-0.05,0.05-0.07c0.04-0.07,0.08-0.13,0.13-0.19
		c0.02-0.02,0.04-0.04,0.06-0.06c0.06-0.06,0.12-0.12,0.18-0.17c0.05-0.04,0.1-0.07,0.16-0.11c0.03-0.02,0.05-0.04,0.08-0.05
		c0.08-0.04,0.17-0.08,0.26-0.11c0.1-0.03,0.2-0.05,0.3-0.05"/>
	<linearGradient id="SVGID_3_" gradientUnits="userSpaceOnUse" x1="114.022" y1="26.3062" x2="144.5557" y2="64.5778">
		<stop  offset="0" style="stop-color:#E0E0E0"/>
		<stop  offset="1" style="stop-color:#AEAEAE"/>
	</linearGradient>
	<path fill="url(#SVGID_3_)" d="M144.68,58.85c0-0.53,0.35-0.98,0.81-1.07l0.05-32.75c0-0.91-0.72-1.67-1.53-1.62l-28.95,1.86
		c-0.81,0.06-1.47,0.84-1.48,1.76l-0.1,39.35c0,0.91,0.65,1.61,1.46,1.55l29.05-2.03c0.81-0.06,1.47-0.84,1.48-1.75l0.02-4.34
		C145.02,59.78,144.67,59.37,144.68,58.85z"/>
	<linearGradient id="SVGID_4_" gradientUnits="userSpaceOnUse" x1="129.2529" y1="60.8203" x2="129.1039" y2="58.8309">
		<stop  offset="0" style="stop-color:#FFFFFF"/>
		<stop  offset="1" style="stop-color:#707070"/>
	</linearGradient>
	<path fill="url(#SVGID_4_)" d="M144.94,58.83c0-0.45,0.21-0.85,0.54-1.06l-31.75,2.22c-0.51,0.04-0.91,0.52-0.92,1.09
		c0,0.57,0.4,1,0.91,0.96l31.76-2.22C145.14,59.67,144.94,59.29,144.94,58.83z"/>
	<g>
		<g>
			<g>
				<linearGradient id="SVGID_5_" gradientUnits="userSpaceOnUse" x1="142.7021" y1="50.2998" x2="116.8535" y2="29.9559">
					<stop  offset="0" style="stop-color:#FFFFFF"/>
					<stop  offset="1" style="stop-color:#707070"/>
				</linearGradient>
				<path fill="url(#SVGID_5_)" d="M142.18,27.17c1.05-0.07,1.89,0.82,1.89,2l-0.1,20.13c0,1.18-0.86,2.19-1.91,2.27l-24.45,1.71
					c-1.05,0.07-1.89-0.82-1.89-2l0.1-20.13c0-1.18,0.86-2.19,1.91-2.27L142.18,27.17z"/>
			</g>
		</g>
	</g>
	<linearGradient id="SVGID_6_" gradientUnits="userSpaceOnUse" x1="130.0127" y1="29.8867" x2="130.0127" y2="51.176">
		<stop  offset="0" style="stop-color:#98CFE9"/>
		<stop  offset="0.4586" style="stop-color:#5EA9CC"/>
		<stop  offset="1" style="stop-color:#054D80"/>
	</linearGradient>
	<polygon fill="url(#SVGID_6_)" points="142.34,28.87 142.32,49.46 117.7,51.49 117.68,30.55 	"/>
	<linearGradient id="SVGID_7_" gradientUnits="userSpaceOnUse" x1="130.0186" y1="29.5679" x2="130.0186" y2="49.4322">
		<stop  offset="0" style="stop-color:#85B6CD"/>
		<stop  offset="0.4586" style="stop-color:#2E99CC"/>
		<stop  offset="1" style="stop-color:#054D80"/>
	</linearGradient>
	<polygon fill="url(#SVGID_7_)" points="131.41,29.61 117.7,44.18 117.7,51.49 142.32,49.46 142.34,28.87 	"/>
	<polygon fill="none" stroke="#262626" stroke-width="0.4242" stroke-linecap="round" stroke-linejoin="round" points="
		142.34,28.87 142.32,49.46 117.7,51.49 117.68,30.55 	"/>
	<g>
		<g>
			<g>
				<polygon fill="#404040" points="142.55,58.11 142.55,59.2 130.06,60.07 130.07,58.99 				"/>
			</g>
		</g>
	</g>
	<polygon fill="#404040" points="95.4,68.43 96.48,68.75 96.46,67.48 95.38,67.15 	"/>
	<polygon fill="#404040" points="95.37,66.73 96.45,67.06 96.43,65.78 95.34,65.46 	"/>
	<polygon fill="#404040" points="96.89,68.87 97.97,69.19 97.95,67.92 96.87,67.59 	"/>
	<polygon fill="#404040" points="96.86,67.17 97.94,67.5 97.92,66.22 96.84,65.89 	"/>
	<polygon fill="#404040" points="98.35,69.33 99.43,69.66 99.41,68.38 98.33,68.06 	"/>
	<polygon fill="#404040" points="98.32,67.63 99.4,67.96 99.38,66.69 98.3,66.36 	"/>
	<polygon fill="#404040" points="99.84,69.77 100.92,70.1 100.9,68.82 99.82,68.49 	"/>
	<polygon fill="#404040" points="99.81,68.07 100.89,68.4 100.87,67.13 99.79,66.8 	"/>
	<polygon fill="#404040" points="101.3,70.26 102.38,70.59 102.36,69.31 101.28,68.99 	"/>
	<polygon fill="#404040" points="101.27,68.57 102.35,68.89 102.33,67.62 101.25,67.29 	"/>
	<polygon fill="#404040" points="102.79,70.7 103.87,71.03 103.85,69.75 102.77,69.42 	"/>
	<polygon fill="#404040" points="102.76,69 103.84,69.33 103.82,68.05 102.74,67.73 	"/>
	<polygon fill="#404040" points="104.25,71.17 105.33,71.49 105.31,70.22 104.23,69.89 	"/>
	<polygon fill="#404040" points="104.22,69.47 105.3,69.8 105.28,68.52 104.2,68.2 	"/>
	<polygon fill="#404040" points="105.74,71.6 106.82,71.93 106.8,70.65 105.72,70.33 	"/>
	<polygon fill="#404040" points="105.71,69.91 106.79,70.23 106.77,68.96 105.69,68.63 	"/>
	<g>
		<g>
			<g>
				<linearGradient id="SVGID_8_" gradientUnits="userSpaceOnUse" x1="115.6841" y1="63.085" x2="117.9459" y2="66.4777">
					<stop  offset="0" style="stop-color:#FFFFFF"/>
					<stop  offset="1" style="stop-color:#B2B2B2"/>
				</linearGradient>
				<polygon fill="url(#SVGID_8_)" points="118.05,63.08 118.03,66.5 115.7,66.66 115.71,63.24 				"/>
			</g>
		</g>
	</g>
</g>
</g>

</svg>
