<?xml version="1.0" encoding="utf-8"?>
<!DOCTYPE svg PUBLIC "-//W3C//DTD SVG 1.0//EN" "http://www.w3.org/TR/2001/REC-SVG-20010904/DTD/svg10.dtd" [
<!ENTITY ns_svg "http://www.w3.org/2000/svg">
<!ENTITY ns_xlink "http://www.w3.org/1999/xlink">
]>
<svg xmlns="&ns_svg;" xmlns:xlink="&ns_xlink;" width="240" height="120" viewBox="0 0 240 120" overflow="visible" enable-background="new 0 0 240 120" xml:space="preserve">

<g id="Layer_1">

<g id="_x3C_ICON_x3E_">
	<g>
		<polygon fill="#262626" stroke="#262626" stroke-width="4" points="147.9,72 99.1,75.4 90.8,73.1 90.8,21.6 139.5,18.3 
			147.9,20.6 		"/>
		<polygon fill="#E2E2E2" points="136.3,72.9 127.7,70.6 127.7,64.2 136.3,66.4 		"/>
		<polygon fill="#E2E2E2" points="138.5,54.6 129.9,52.4 139.5,51.7 148.1,54 		"/>
		<polygon fill="#E2E2E2" points="138.6,36.6 130,34.4 139.6,33.7 148.2,36 		"/>
		<polygon fill="#E2E2E2" points="136.4,36.8 127.9,34.6 127.9,28.1 136.5,30.4 		"/>
		<polygon fill="#E2E2E2" points="136.5,30.4 127.9,28.1 130,28 138.6,30.2 		"/>
		<polygon fill="#E2E2E2" points="124.8,64.7 116.3,62.4 139.5,60.8 148.1,63 		"/>
		<polygon fill="#E2E2E2" points="122.5,64.8 113.9,62.6 113.9,56.2 122.5,58.4 		"/>
		<polygon fill="#E2E2E2" points="111.2,50.2 102.6,48 127.8,46.2 136.4,48.4 		"/>
		<polygon fill="#E2E2E2" points="124.9,46.7 116.3,44.4 139.5,42.8 148.1,45.1 		"/>
		<polygon fill="#E2E2E2" points="122.6,46.8 114,44.6 114,38.2 122.6,40.4 		"/>
		<polygon fill="#E2E2E2" points="108.8,74.8 100.2,72.5 100.2,66.1 108.8,68.4 		"/>
		<polygon fill="#E2E2E2" points="111.1,56.5 102.5,54.3 102.6,48 111.2,50.2 		"/>
		<polygon fill="#E2E2E2" points="136.4,48.4 136.4,54.8 111.1,56.5 111.2,50.2 		"/>
		<polygon fill="#E2E2E2" points="108.9,56.7 100.3,54.5 100.3,48.1 108.9,50.4 		"/>
		<polygon fill="#E2E2E2" points="111.2,38.6 102.6,36.3 127.9,34.6 136.4,36.8 		"/>
		<polygon fill="#E2E2E2" points="109,32.3 100.4,30 102.6,29.9 111.2,32.1 		"/>
		<polygon fill="#E2E2E2" points="109,38.7 100.4,36.5 100.4,30 109,32.3 		"/>
		<polygon fill="#E2E2E2" points="99.3,66.5 90.7,64.2 113.9,62.6 122.5,64.8 		"/>
		
			<linearGradient id="SVGID_1_" gradientUnits="userSpaceOnUse" x1="-463.5688" y1="567.5273" x2="-462.986" y2="519.199" gradientTransform="matrix(1 0 0 -1 558 587)">
			<stop  offset="0" style="stop-color:#FFFFFF"/>
			<stop  offset="0.0967" style="stop-color:#E7E7E7"/>
			<stop  offset="0.3167" style="stop-color:#B4B4B4"/>
			<stop  offset="0.5242" style="stop-color:#8D8D8D"/>
			<stop  offset="0.7134" style="stop-color:#717171"/>
			<stop  offset="0.8782" style="stop-color:#5F5F5F"/>
			<stop  offset="1" style="stop-color:#595959"/>
		</linearGradient>
		<polygon fill="url(#SVGID_1_)" points="99.3,69 90.7,66.8 90.7,64.2 99.3,66.5 		"/>
		<polygon fill="#E2E2E2" points="99.3,57.4 90.7,55.1 100.3,54.5 108.9,56.7 		"/>
		
			<linearGradient id="SVGID_2_" gradientUnits="userSpaceOnUse" x1="-463.4595" y1="567.5205" x2="-462.8767" y2="519.2063" gradientTransform="matrix(1 0 0 -1 558 587)">
			<stop  offset="0" style="stop-color:#FFFFFF"/>
			<stop  offset="0.0967" style="stop-color:#E7E7E7"/>
			<stop  offset="0.3167" style="stop-color:#B4B4B4"/>
			<stop  offset="0.5242" style="stop-color:#8D8D8D"/>
			<stop  offset="0.7134" style="stop-color:#717171"/>
			<stop  offset="0.8782" style="stop-color:#5F5F5F"/>
			<stop  offset="1" style="stop-color:#595959"/>
		</linearGradient>
		<polygon fill="url(#SVGID_2_)" points="99.3,60 90.7,57.8 90.7,55.1 99.3,57.4 		"/>
		
			<linearGradient id="SVGID_3_" gradientUnits="userSpaceOnUse" x1="-463.252" y1="567.5391" x2="-462.6689" y2="519.2013" gradientTransform="matrix(1 0 0 -1 558 587)">
			<stop  offset="0" style="stop-color:#FFFFFF"/>
			<stop  offset="0.0967" style="stop-color:#E7E7E7"/>
			<stop  offset="0.3167" style="stop-color:#B4B4B4"/>
			<stop  offset="0.5242" style="stop-color:#8D8D8D"/>
			<stop  offset="0.7134" style="stop-color:#717171"/>
			<stop  offset="0.8782" style="stop-color:#5F5F5F"/>
			<stop  offset="1" style="stop-color:#595959"/>
		</linearGradient>
		<polygon fill="url(#SVGID_3_)" points="99.4,51 90.8,48.8 90.8,46.2 99.4,48.5 		"/>
		<polygon fill="#E2E2E2" points="99.4,48.5 90.8,46.2 114,44.6 122.6,46.8 		"/>
		
			<linearGradient id="SVGID_4_" gradientUnits="userSpaceOnUse" x1="-463.1431" y1="567.54" x2="-462.56" y2="519.2023" gradientTransform="matrix(1 0 0 -1 558 587)">
			<stop  offset="0" style="stop-color:#FFFFFF"/>
			<stop  offset="0.0967" style="stop-color:#E7E7E7"/>
			<stop  offset="0.3167" style="stop-color:#B4B4B4"/>
			<stop  offset="0.5242" style="stop-color:#8D8D8D"/>
			<stop  offset="0.7134" style="stop-color:#717171"/>
			<stop  offset="0.8782" style="stop-color:#5F5F5F"/>
			<stop  offset="1" style="stop-color:#595959"/>
		</linearGradient>
		<polygon fill="url(#SVGID_4_)" points="99.4,42 90.8,39.8 90.8,37.1 99.4,39.4 		"/>
		
			<linearGradient id="SVGID_5_" gradientUnits="userSpaceOnUse" x1="-444.7803" y1="557.5957" x2="-413.0075" y2="487.9093" gradientTransform="matrix(1 0 0 -1 558 587)">
			<stop  offset="0" style="stop-color:#FFFFFF"/>
			<stop  offset="0.3416" style="stop-color:#9F9F9F"/>
			<stop  offset="0.7397" style="stop-color:#343434"/>
			<stop  offset="0.9176" style="stop-color:#090909"/>
		</linearGradient>
		<polygon fill="url(#SVGID_5_)" points="138.6,30.2 138.6,36.6 148.2,36 148.2,38.6 125,40.3 124.9,46.7 148.1,45.1 148.1,47.6 
			138.6,48.3 138.5,54.6 148.1,54 148.1,56.6 124.9,58.2 124.8,64.7 148.1,63 148,65.6 138.5,66.3 138.4,72.7 136.3,72.9 
			136.3,66.4 111.1,68.2 111,74.6 108.8,74.8 108.8,68.4 99.3,69 99.3,66.5 122.5,64.8 122.5,58.4 99.3,60 99.3,57.4 108.9,56.7 
			108.9,50.4 99.4,51 99.4,48.5 122.6,46.8 122.6,40.4 99.4,42 99.4,39.4 109,38.7 109,32.3 111.2,32.1 111.2,38.6 136.4,36.8 
			136.5,30.4 		"/>
		<polygon fill="#E2E2E2" points="99.4,39.4 90.8,37.1 100.4,36.5 109,38.7 		"/>
		<polygon fill="#E2E2E2" points="125,28.6 116.4,26.3 139.6,24.7 148.2,27 		"/>
		<polygon fill="#E2E2E2" points="122.7,28.7 114.1,26.5 114.1,20.1 122.7,22.3 		"/>
		<polygon fill="#F0F0F0" points="122.7,22.3 114.1,20.1 116.4,19.9 125,22.1 		"/>
		<polygon fill="#E2E2E2" points="99.5,30.4 90.9,28.1 114.1,26.5 122.7,28.7 		"/>
		
			<linearGradient id="SVGID_6_" gradientUnits="userSpaceOnUse" x1="-462.9834" y1="567.543" x2="-462.4003" y2="519.2004" gradientTransform="matrix(1 0 0 -1 558 587)">
			<stop  offset="0" style="stop-color:#FFFFFF"/>
			<stop  offset="0.0967" style="stop-color:#E7E7E7"/>
			<stop  offset="0.3167" style="stop-color:#B4B4B4"/>
			<stop  offset="0.5242" style="stop-color:#8D8D8D"/>
			<stop  offset="0.7134" style="stop-color:#717171"/>
			<stop  offset="0.8782" style="stop-color:#5F5F5F"/>
			<stop  offset="1" style="stop-color:#595959"/>
		</linearGradient>
		<polygon fill="url(#SVGID_6_)" points="99.4,32.9 90.8,30.7 90.9,28.1 99.5,30.4 		"/>
		
			<linearGradient id="SVGID_7_" gradientUnits="userSpaceOnUse" x1="-436.2266" y1="561.4941" x2="-404.453" y2="491.806" gradientTransform="matrix(1 0 0 -1 558 587)">
			<stop  offset="0" style="stop-color:#FFFFFF"/>
			<stop  offset="0.1169" style="stop-color:#E1E1E1"/>
			<stop  offset="0.332" style="stop-color:#AEAEAE"/>
			<stop  offset="0.5348" style="stop-color:#878787"/>
			<stop  offset="0.7198" style="stop-color:#6B6B6B"/>
			<stop  offset="0.8809" style="stop-color:#595959"/>
			<stop  offset="1" style="stop-color:#535353"/>
		</linearGradient>
		<polygon fill="url(#SVGID_7_)" points="125,28.6 148.2,27 148.2,29.5 138.6,30.2 136.5,30.3 111.2,32.1 109,32.3 99.4,32.9 
			99.5,30.4 122.7,28.7 122.7,22.3 125,22.1 		"/>
		
			<linearGradient id="SVGID_8_" gradientUnits="userSpaceOnUse" x1="-462.6177" y1="520.7363" x2="-463.1177" y2="514.4028" gradientTransform="matrix(1 0 0 -1 558 587)">
			<stop  offset="0" style="stop-color:#924E3A"/>
			<stop  offset="0.0378" style="stop-color:#8D4A37"/>
			<stop  offset="0.1918" style="stop-color:#773E2E"/>
			<stop  offset="0.3561" style="stop-color:#663426"/>
			<stop  offset="0.5332" style="stop-color:#5B2D21"/>
			<stop  offset="0.7325" style="stop-color:#55291E"/>
			<stop  offset="1" style="stop-color:#53281D"/>
		</linearGradient>
		<polygon fill="url(#SVGID_8_)" points="99.3,75.4 90.7,73.2 90.7,66.8 99.3,69 		"/>
		
			<linearGradient id="SVGID_9_" gradientUnits="userSpaceOnUse" x1="-454.3149" y1="519.791" x2="-453.6898" y2="512.7896" gradientTransform="matrix(1 0 0 -1 558 587)">
			<stop  offset="0" style="stop-color:#924E3A"/>
			<stop  offset="1" style="stop-color:#633524"/>
		</linearGradient>
		<polygon fill="url(#SVGID_9_)" points="108.9,68.3 108.8,74.8 99.3,75.4 99.3,69 		"/>
		
			<linearGradient id="SVGID_10_" gradientUnits="userSpaceOnUse" x1="-434.9878" y1="528.083" x2="-434.2379" y2="515.3348" gradientTransform="matrix(1 0 0 -1 558 587)">
			<stop  offset="0" style="stop-color:#7D4932"/>
			<stop  offset="0.3055" style="stop-color:#7B4831"/>
			<stop  offset="0.54" style="stop-color:#74442F"/>
			<stop  offset="0.7509" style="stop-color:#673D2C"/>
			<stop  offset="0.9468" style="stop-color:#573326"/>
			<stop  offset="1" style="stop-color:#533024"/>
		</linearGradient>
		<polygon fill="url(#SVGID_10_)" points="136.3,66.5 136.3,72.9 111.1,74.7 111.1,68.2 		"/>
		
			<linearGradient id="SVGID_11_" gradientUnits="userSpaceOnUse" x1="-415.1763" y1="523.2842" x2="-414.5514" y2="516.2857" gradientTransform="matrix(1 0 0 -1 558 587)">
			<stop  offset="0" style="stop-color:#924E3A"/>
			<stop  offset="1" style="stop-color:#633524"/>
		</linearGradient>
		<polygon fill="url(#SVGID_11_)" points="148.1,65.5 148.1,72 138.5,72.6 138.5,66.2 		"/>
		
			<linearGradient id="SVGID_12_" gradientUnits="userSpaceOnUse" x1="-463" y1="567.0186" x2="-463" y2="508.3936" gradientTransform="matrix(1 0 0 -1 558 587)">
			<stop  offset="0" style="stop-color:#924E3A"/>
			<stop  offset="1" style="stop-color:#53281D"/>
		</linearGradient>
		<polygon fill="url(#SVGID_12_)" points="99.3,57.5 90.7,55.2 90.7,48.8 99.3,51.1 		"/>
		
			<linearGradient id="SVGID_13_" gradientUnits="userSpaceOnUse" x1="-453.9004" y1="536.0332" x2="-453.9004" y2="530.6582" gradientTransform="matrix(1 0 0 -1 558 587)">
			<stop  offset="0" style="stop-color:#924E3A"/>
			<stop  offset="1" style="stop-color:#5D2F20"/>
		</linearGradient>
		<polygon fill="url(#SVGID_13_)" points="108.9,50.4 108.8,56.8 99.3,57.5 99.3,51.1 		"/>
		
			<linearGradient id="SVGID_14_" gradientUnits="userSpaceOnUse" x1="-434.6577" y1="542.8701" x2="-434.061" y2="528.7217" gradientTransform="matrix(1 0 0 -1 558 587)">
			<stop  offset="0" style="stop-color:#AA7360"/>
			<stop  offset="0.2301" style="stop-color:#A8715F"/>
			<stop  offset="0.4068" style="stop-color:#A06B59"/>
			<stop  offset="0.5657" style="stop-color:#946251"/>
			<stop  offset="0.7143" style="stop-color:#835545"/>
			<stop  offset="0.8554" style="stop-color:#6D4437"/>
			<stop  offset="0.9894" style="stop-color:#543226"/>
			<stop  offset="1" style="stop-color:#533024"/>
		</linearGradient>
		<polygon fill="url(#SVGID_14_)" points="136.3,48.5 136.3,54.9 111.1,56.7 111.1,50.3 		"/>
		
			<linearGradient id="SVGID_15_" gradientUnits="userSpaceOnUse" x1="-414.7598" y1="538.7666" x2="-414.6348" y2="532.6425" gradientTransform="matrix(1 0 0 -1 558 587)">
			<stop  offset="0" style="stop-color:#924E3A"/>
			<stop  offset="1" style="stop-color:#633524"/>
		</linearGradient>
		<polygon fill="url(#SVGID_15_)" points="148.1,47.6 148.1,54 138.5,54.7 138.5,48.3 		"/>
		
			<linearGradient id="SVGID_16_" gradientUnits="userSpaceOnUse" x1="-462.6914" y1="562.7324" x2="-463.0243" y2="545.567" gradientTransform="matrix(1 0 0 -1 558 587)">
			<stop  offset="0" style="stop-color:#924E3A"/>
			<stop  offset="1" style="stop-color:#53281D"/>
		</linearGradient>
		<polygon fill="url(#SVGID_16_)" points="99.4,39.4 90.8,37.1 90.8,30.7 99.4,33 		"/>
		
			<linearGradient id="SVGID_17_" gradientUnits="userSpaceOnUse" x1="-453.8701" y1="552.6904" x2="-453.6201" y2="547.1904" gradientTransform="matrix(1 0 0 -1 558 587)">
			<stop  offset="0" style="stop-color:#924E3A"/>
			<stop  offset="1" style="stop-color:#633524"/>
		</linearGradient>
		<polygon fill="url(#SVGID_17_)" points="109,32.3 108.9,38.7 99.4,39.4 99.4,33 		"/>
		
			<linearGradient id="SVGID_18_" gradientUnits="userSpaceOnUse" x1="-434.4023" y1="553.7852" x2="-434.0898" y2="549.8477" gradientTransform="matrix(1 0 0 -1 558 587)">
			<stop  offset="0" style="stop-color:#7D4932"/>
			<stop  offset="0.3339" style="stop-color:#7B4831"/>
			<stop  offset="0.5903" style="stop-color:#744430"/>
			<stop  offset="0.8201" style="stop-color:#673D2D"/>
			<stop  offset="1" style="stop-color:#593629"/>
		</linearGradient>
		<polygon fill="url(#SVGID_18_)" points="136.3,30.4 136.3,36.8 111.1,38.6 111.1,32.2 		"/>
		
			<linearGradient id="SVGID_19_" gradientUnits="userSpaceOnUse" x1="-414.9746" y1="559.376" x2="-414.4746" y2="549.5009" gradientTransform="matrix(1 0 0 -1 558 587)">
			<stop  offset="0" style="stop-color:#AA7360"/>
			<stop  offset="0.2301" style="stop-color:#A8715F"/>
			<stop  offset="0.4068" style="stop-color:#A06B59"/>
			<stop  offset="0.5657" style="stop-color:#946251"/>
			<stop  offset="0.7143" style="stop-color:#835545"/>
			<stop  offset="0.8554" style="stop-color:#6D4437"/>
			<stop  offset="0.9894" style="stop-color:#543226"/>
			<stop  offset="1" style="stop-color:#533024"/>
		</linearGradient>
		<polygon fill="url(#SVGID_19_)" points="148.1,29.5 148.1,35.9 138.5,36.6 138.5,30.2 		"/>
		
			<linearGradient id="SVGID_20_" gradientUnits="userSpaceOnUse" x1="-461.791" y1="531.8828" x2="-463.1247" y2="523.5483" gradientTransform="matrix(1 0 0 -1 558 587)">
			<stop  offset="0" style="stop-color:#7D4932"/>
			<stop  offset="1" style="stop-color:#5B3829"/>
		</linearGradient>
		<polygon fill="url(#SVGID_20_)" points="99.4,66.4 90.8,64.1 90.8,57.7 99.4,60 		"/>
		
			<linearGradient id="SVGID_21_" gradientUnits="userSpaceOnUse" x1="-447.3457" y1="529.6563" x2="-446.8456" y2="522.4051" gradientTransform="matrix(1 0 0 -1 558 587)">
			<stop  offset="0" style="stop-color:#7D4932"/>
			<stop  offset="0.3055" style="stop-color:#7B4831"/>
			<stop  offset="0.54" style="stop-color:#74442F"/>
			<stop  offset="0.7509" style="stop-color:#673D2C"/>
			<stop  offset="0.9468" style="stop-color:#573326"/>
			<stop  offset="1" style="stop-color:#533024"/>
		</linearGradient>
		<polygon fill="url(#SVGID_21_)" points="122.6,58.3 122.6,64.8 99.4,66.4 99.4,60 		"/>
		
			<linearGradient id="SVGID_22_" gradientUnits="userSpaceOnUse" x1="-421.9702" y1="532.8359" x2="-421.3452" y2="524.2103" gradientTransform="matrix(1 0 0 -1 558 587)">
			<stop  offset="0" style="stop-color:#924E3A"/>
			<stop  offset="1" style="stop-color:#633524"/>
		</linearGradient>
		<polygon fill="url(#SVGID_22_)" points="148.1,56.6 148.1,63 124.9,64.7 124.9,58.2 		"/>
		
			<linearGradient id="SVGID_23_" gradientUnits="userSpaceOnUse" x1="-462.9004" y1="557.0186" x2="-462.9004" y2="519.2664" gradientTransform="matrix(1 0 0 -1 558 587)">
			<stop  offset="0" style="stop-color:#7D4932"/>
			<stop  offset="1" style="stop-color:#5B3829"/>
		</linearGradient>
		<polygon fill="url(#SVGID_23_)" points="99.4,48.4 90.8,46.2 90.8,39.8 99.4,42 		"/>
		
			<linearGradient id="SVGID_24_" gradientUnits="userSpaceOnUse" x1="-447.1572" y1="544.5986" x2="-446.8232" y2="540.3486" gradientTransform="matrix(1 0 0 -1 558 587)">
			<stop  offset="0" style="stop-color:#7D4932"/>
			<stop  offset="0.3098" style="stop-color:#764631"/>
			<stop  offset="0.7924" style="stop-color:#653D2E"/>
			<stop  offset="1" style="stop-color:#5C392C"/>
		</linearGradient>
		<polygon fill="url(#SVGID_24_)" points="122.6,40.4 122.6,46.8 99.4,48.4 99.4,42 		"/>
		
			<linearGradient id="SVGID_25_" gradientUnits="userSpaceOnUse" x1="-421.7656" y1="546.4619" x2="-421.2656" y2="542.378" gradientTransform="matrix(1 0 0 -1 558 587)">
			<stop  offset="0" style="stop-color:#924E3A"/>
			<stop  offset="1" style="stop-color:#633524"/>
		</linearGradient>
		<polygon fill="url(#SVGID_25_)" points="148.1,38.7 148.1,45.1 124.9,46.7 124.9,40.3 		"/>
		<polygon fill="#916356" points="99.5,30.3 90.9,28 90.9,21.6 99.5,23.9 		"/>
		
			<linearGradient id="SVGID_26_" gradientUnits="userSpaceOnUse" x1="-467.1006" y1="565.0498" x2="-435.2998" y2="565.0498" gradientTransform="matrix(1 0 0 -1 558 587)">
			<stop  offset="0" style="stop-color:#FFFFFF"/>
			<stop  offset="0.14" style="stop-color:#F5EAE7"/>
			<stop  offset="0.3998" style="stop-color:#E5C8C0"/>
			<stop  offset="0.6384" style="stop-color:#D9AFA3"/>
			<stop  offset="0.8463" style="stop-color:#D2A092"/>
			<stop  offset="1" style="stop-color:#CF9B8C"/>
		</linearGradient>
		<polygon fill="url(#SVGID_26_)" points="99.5,23.9 90.9,21.6 114.1,20 122.7,22.2 		"/>
		
			<linearGradient id="SVGID_27_" gradientUnits="userSpaceOnUse" x1="-446.8999" y1="567.6582" x2="-446.8999" y2="553.4083" gradientTransform="matrix(1 0 0 -1 558 587)">
			<stop  offset="0" style="stop-color:#AA7360"/>
			<stop  offset="0.2301" style="stop-color:#A8715F"/>
			<stop  offset="0.4068" style="stop-color:#A06B59"/>
			<stop  offset="0.5657" style="stop-color:#946251"/>
			<stop  offset="0.7143" style="stop-color:#835545"/>
			<stop  offset="0.8554" style="stop-color:#6D4437"/>
			<stop  offset="0.9894" style="stop-color:#543226"/>
			<stop  offset="1" style="stop-color:#533024"/>
		</linearGradient>
		<polygon fill="url(#SVGID_27_)" points="122.7,22.2 122.7,28.7 99.5,30.3 99.5,23.9 		"/>
		
			<linearGradient id="SVGID_28_" gradientUnits="userSpaceOnUse" x1="-441.5" y1="566.8008" x2="-409.7002" y2="566.8008" gradientTransform="matrix(1 0 0 -1 558 587)">
			<stop  offset="0" style="stop-color:#FFFFFF"/>
			<stop  offset="0.0376" style="stop-color:#FAF7F6"/>
			<stop  offset="0.2721" style="stop-color:#DFC9C4"/>
			<stop  offset="0.4931" style="stop-color:#C9A59D"/>
			<stop  offset="0.6947" style="stop-color:#BA8B80"/>
			<stop  offset="0.8702" style="stop-color:#B07C6F"/>
			<stop  offset="1" style="stop-color:#AD7669"/>
		</linearGradient>
		<polygon fill="url(#SVGID_28_)" points="125.1,22.1 116.5,19.9 139.7,18.3 148.3,20.5 		"/>
		
			<linearGradient id="SVGID_29_" gradientUnits="userSpaceOnUse" x1="-421.4692" y1="564.4932" x2="-420.9693" y2="556.1592" gradientTransform="matrix(1 0 0 -1 558 587)">
			<stop  offset="0" style="stop-color:#924E3A"/>
			<stop  offset="1" style="stop-color:#5D2F20"/>
		</linearGradient>
		<polygon fill="url(#SVGID_29_)" points="148.3,20.5 148.2,26.9 125,28.5 125.1,22.1 		"/>
	</g>
</g>

<path id="Background" fill="none" d="M239.5,109.5c0,5.52-4.48,10-10,10H9.5c-5.52,0-10-4.48-10-10V9.5c0-5.52,4.48-10,10-10h220
	c5.52,0,10,4.48,10,10V109.5z"/>
</g>

</svg>
