<?xml version="1.0" encoding="utf-8"?>
<!DOCTYPE svg PUBLIC "-//W3C//DTD SVG 1.0//EN" "http://www.w3.org/TR/2001/REC-SVG-20010904/DTD/svg10.dtd" [
<!ENTITY ns_svg "http://www.w3.org/2000/svg">
<!ENTITY ns_xlink "http://www.w3.org/1999/xlink">
]>
<svg xmlns="&ns_svg;" xmlns:xlink="&ns_xlink;" width="240" height="120" viewBox="0 0 240 120" overflow="visible" enable-background="new 0 0 240 120" xml:space="preserve">

<g id="Layer_1">

<path id="template" fill="none" d="M239.5,109.5c0,5.5-4.5,10-10,10H9.5c-5.5,0-10-4.5-10-10V9.5c0-5.5,4.5-10,10-10h220
	c5.5,0,10,4.5,10,10V109.5z"/>
<path id="DECAL_AREA_2_" fill="#2E6399" d="M167.5,64c0,3.3-2.7,6-6,6h-84c-3.3,0-6-2.7-6-6V28c0-3.3,2.7-6,6-6h84c3.3,0,6,2.7,6,6
	V64z"/>
<path id="DecalBorder" fill="none" stroke="#2E6399" stroke-width="2" d="M167.5,64c0,3.3-2.7,6-6,6h-84c-3.3,0-6-2.7-6-6V28
	c0-3.3,2.7-6,6-6h84c3.3,0,6,2.7,6,6V64z"/>
<g id="Layer_2">
	<path fill="#FFFFFF" d="M77.85,30h16.8v2.5h-16.8V30L77.85,30z M124.75,30h13l0.8,2.5h-13.8V30L124.75,30z M139.35,34.1l0.8,2.8
		h-10.7h-4.7v-2.8H139.35L139.35,34.1z M140.75,38.6l1.1,2.5h-12.4v-2.5H140.75L140.75,38.6z M142.35,42.4l0.5,1.9l0.8-1.9h13v2.8
		h-6.9v-1.7l-0.6,1.7h-12.3l-0.6-1.7v1.7h-6.8v-2.8H142.35L142.35,42.4z M144.05,41l1.1-2.5h11.6V41H144.05L144.05,41z M145.65,36.9
		l0.8-2.8h14.6v2.8h-4.4H145.65L145.65,36.9z M147.35,32.5l0.8-2.5h13v2.5H147.35L147.35,32.5z M156.75,46.8v2.8h-6.9v-2.8H156.75
		L156.75,46.8z M156.75,51v2.8h-6.9V51H156.75L156.75,51z M156.75,55.1h4.4v2.8h-11.3v-2.8H156.75L156.75,55.1z M161.15,59.2v2.5
		h-11.3v-2.5H161.15L161.15,59.2z M148.75,46.8l-1.1,2.8h-9.1l-1.1-2.8H148.75L148.75,46.8z M147.05,51l-0.8,2.8h-6.3l-0.9-2.8
		H147.05L147.05,51z M145.65,55.1l-0.8,2.8h-3.3l-1.1-2.8H145.65L145.65,55.1z M144.35,59.2l-1.1,2.8l-1.1-2.8H144.35L144.35,59.2z
		 M136.35,46.8v2.8h-6.9v-2.8H136.35L136.35,46.8z M136.35,51v2.8h-6.9V51H136.35L136.35,51z M136.35,55.1v2.8h-11.6v-2.8h4.7
		H136.35L136.35,55.1z M136.35,59.2v2.5h-11.6v-2.5H136.35L136.35,59.2z M96.65,30h16.5c3,0,5.5,1.1,6.9,2.5h-23.4V30L96.65,30z
		 M121.45,34.1c0.6,0.8,0.8,1.7,0.8,2.8h-21h-4.7v-2.8H121.45L121.45,34.1z M122.55,38.6c0,0.8-0.3,1.7-0.3,2.5h-7.2v-2.5H122.55
		L122.55,38.6z M108.45,41h-7.2v-2.5h7.2V41L108.45,41z M121.45,42.4c-0.6,1.1-1.4,1.9-2.2,2.8h-18v-2.8H121.45L121.45,42.4z
		 M119.45,46.8c0.8,0.8,1.7,1.7,2.2,2.8h-20.4v-2.8H119.45L119.45,46.8z M122.25,51c0.3,0.8,0.6,1.7,0.6,2.8h-7.7V51H122.25
		L122.25,51z M108.45,53.7h-7.2V51h7.2V53.7L108.45,53.7z M122.85,55.1c-0.3,0.8-0.6,1.9-1.1,2.8h-25.1v-2.8h4.7H122.85L122.85,55.1
		z M120.65,59.2c-1.7,1.7-3.9,2.5-6.3,2.5h-17.7v-2.5H120.65L120.65,59.2z M94.65,34.1v2.8h-4.7h-7.4h-4.7v-2.8H94.65L94.65,34.1z
		 M89.95,38.6V41h-7.4v-2.5h7.4V38.6z M89.95,42.4v2.8h-7.4v-2.8H89.95L89.95,42.4z M89.95,46.8v2.8h-7.4v-2.8H89.95L89.95,46.8z
		 M89.95,51v2.8h-7.4V51H89.95L89.95,51z M89.95,55.1h4.7v2.8h-16.8v-2.8h4.7H89.95L89.95,55.1z M94.65,59.2v2.5h-16.8v-2.5H94.65
		L94.65,59.2z"/>
</g>
</g>

</svg>
