<?xml version="1.0" encoding="utf-8"?>
<!DOCTYPE svg PUBLIC "-//W3C//DTD SVG 1.0//EN" "http://www.w3.org/TR/2001/REC-SVG-20010904/DTD/svg10.dtd" [
<!ENTITY ns_svg "http://www.w3.org/2000/svg">
<!ENTITY ns_xlink "http://www.w3.org/1999/xlink">
]>
<svg xmlns="&ns_svg;" xmlns:xlink="&ns_xlink;" width="240" height="120" viewBox="0 0 240 120" overflow="visible" enable-background="new 0 0 240 120" xml:space="preserve">

<g id="Layer_1">

<path id="template" fill="none" d="M239.5,109.5c0,5.5-4.5,10-10,10H9.5c-5.5,0-10-4.5-10-10V9.5c0-5.5,4.5-10,10-10h220
	c5.5,0,10,4.5,10,10V109.5z"/>
<linearGradient id="DECAL_AREA_1_" gradientUnits="userSpaceOnUse" x1="57.7998" y1="-450" x2="57.7998" y2="-402" gradientTransform="matrix(1 0 0 -1 12 -380)">
	<stop  offset="0" style="stop-color:#47B149"/>
	<stop  offset="1" style="stop-color:#21813F"/>
</linearGradient>
<path id="DECAL_AREA_2_" fill="url(#DECAL_AREA_1_)" d="M117.8,64c0,3.3-2.7,6-6,6h-84c-3.3,0-6-2.7-6-6V28c0-3.3,2.7-6,6-6h84
	c3.3,0,6,2.7,6,6V64z"/>
<linearGradient id="Reflection_2_" gradientUnits="userSpaceOnUse" x1="57.7998" y1="-425.75" x2="57.7998" y2="-401.75" gradientTransform="matrix(1 0 0 -1 12 -380)">
	<stop  offset="0" style="stop-color:#3C9946"/>
	<stop  offset="1" style="stop-color:#88C985"/>
</linearGradient>
<path id="Reflection_1_" fill="url(#Reflection_2_)" d="M117.8,39.8c0,3.3-2.7,6-6,6h-84c-3.3,0-6-2.7-6-6v-12c0-3.3,2.7-6,6-6h84
	c3.3,0,6,2.7,6,6V39.8z"/>
<path id="DecalBorder" fill="none" stroke="#1B6634" stroke-width="2" d="M117.8,64c0,3.3-2.7,6-6,6h-84c-3.3,0-6-2.7-6-6V28
	c0-3.3,2.7-6,6-6h84c3.3,0,6,2.7,6,6V64z"/>
<g>
	<path fill="#F2FFF2" d="M48.4,49.8v0.5c0,2.4,1.1,3.7,3.3,3.7c2,0,3-1.4,3-2.9c0-2.1-1.1-3-2.9-3.6l-2.2-0.8
		c-2.9-1.1-4.2-2.6-4.2-5.5c0-3.6,2.5-5.7,6.2-5.7c5.1,0,5.7,3.2,5.7,5.3v0.4h-3.2v-0.4c0-1.8-0.8-2.9-2.8-2.9
		c-1.4,0-2.7,0.8-2.7,2.9c0,1.7,0.9,2.6,3,3.4l2.2,0.8c2.8,1,4.1,2.5,4.1,5.3c0,4.3-2.6,6-6.6,6c-5,0-6.1-3.3-6.1-6.1v-0.5H48.4z"/>
	<path fill="#F2FFF2" d="M61.2,36h5l3.5,14.8h0.1L73.2,36h4.9v20h-3V39.4H75L71,56h-2.7l-4-16.6h-0.1V56h-3V36z"/>
	<path fill="#F2FFF2" d="M84.5,49.8v0.5c0,2.4,1.1,3.7,3.3,3.7c2,0,3-1.4,3-2.9c0-2.1-1.1-3-2.9-3.6l-2.2-0.8
		c-2.9-1.1-4.2-2.6-4.2-5.5c0-3.6,2.5-5.7,6.2-5.7c5.1,0,5.7,3.2,5.7,5.3v0.4h-3.2v-0.4c0-1.8-0.8-2.9-2.8-2.9
		c-1.4,0-2.7,0.8-2.7,2.9c0,1.7,0.9,2.6,3,3.4l2.2,0.8c2.8,1,4.1,2.5,4.1,5.3c0,4.3-2.6,6-6.6,6c-5,0-6.1-3.3-6.1-6.1v-0.5H84.5z"/>
</g>

<path id="Background" fill="none" d="M239.75,110c0,5.52-4.48,10-10,10h-220c-5.52,0-10-4.48-10-10V10c0-5.52,4.48-10,10-10h220
	c5.52,0,10,4.48,10,10V110z"/>
<path fill="#262626" d="M224.26,34.16c0.02-2.56-1.51-4.88-3.87-5.62c-0.08-0.03-0.17-0.06-0.25-0.08c-0.01,0-0.01,0-0.02,0
	l-11.14-2.91c-0.78-0.16-1.21-0.14-1.54-0.16h0c-0.04,0.01-0.06,0.01-0.1,0c-0.04,0-0.1-0.01-0.19,0.01l-3.12,0.22l0-0.52
	c0-0.01,0-0.02,0-0.02c0.01-1.76-1.04-3.39-2.71-3.96c-0.09-0.04-0.18-0.07-0.27-0.09l-1.12-0.29c-0.3-0.08-0.62-0.12-0.95-0.12
	c0,0,0,0-0.01,0c-0.01,0-0.05,0-0.12,0c-0.05,0-0.11,0-0.19,0.01l-11.95,0.84c-0.32,0.02-0.65,0.09-0.93,0.18
	c-0.21,0.06-0.44,0.16-0.64,0.27l-0.07,0.04c-0.11,0.06-0.17,0.11-0.2,0.13v0c-0.01,0.01-0.01,0.01-0.07,0.04
	c-0.06,0.04-0.15,0.1-0.28,0.2l-0.09,0.07c-0.13,0.1-0.26,0.23-0.37,0.35c-0.04,0.04-0.09,0.09-0.15,0.16l-0.05,0.06
	c-0.13,0.16-0.23,0.3-0.3,0.42c-0.02,0.02-0.04,0.05-0.06,0.09l-0.1,0.16l0,0c-0.13,0.22-0.24,0.46-0.33,0.72l-0.02,0.04
	c-0.08,0.23-0.11,0.38-0.13,0.45c0,0,0,0.01-0.01,0.03c-0.01,0.04-0.04,0.13-0.07,0.28c-0.04,0.23-0.07,0.51-0.07,0.8l0,1.18
	l-13.66,0.96c-0.41,0.03-0.8,0.1-1.18,0.22l0,0l-0.02,0c-0.35,0.11-0.68,0.25-1.01,0.42c-0.15,0.08-0.23,0.14-0.27,0.17
	c-0.02,0.01-0.03,0.02-0.04,0.03c-0.06,0.04-0.24,0.13-0.5,0.33c-0.06,0.05-0.11,0.09-0.15,0.12c-0.23,0.19-0.41,0.38-0.55,0.53
	c-0.04,0.03-0.1,0.09-0.19,0.19l-0.05,0.07l0,0c-0.22,0.26-0.37,0.48-0.47,0.65c-0.03,0.03-0.09,0.11-0.19,0.29l-0.01,0.02
	c-0.2,0.35-0.37,0.72-0.5,1.08l-0.04,0.08c-0.11,0.33-0.15,0.54-0.17,0.62c-0.01,0.04-0.01,0.04-0.02,0.08
	c-0.02,0.06-0.05,0.17-0.08,0.32c-0.07,0.39-0.11,0.78-0.11,1.19l-0.13,30.07c0,0.03,0,0.06,0,0.09c-0.01,2.65,1.61,5.04,4.12,5.71
	l11.17,2.92v0c0.01,0,0.03,0.01,0.04,0.01c0.07,0.02,0.13,0.03,0.2,0.04c0.35,0.08,0.71,0.12,1.09,0.12c0.13,0,0.22,0,0.29-0.01
	l2.94-0.2c0.11,0.01,0.21,0.01,0.32,0l5.86-0.41c0.11-0.01,0.22-0.02,0.33-0.05l20.17-1.41c0.07,0,0.13,0,0.2,0l5.86-0.41
	c0.07,0,0.13-0.01,0.2-0.02l2.36-0.17c3.29-0.29,5.53-3.17,5.56-6.38l0.13-30.15C224.26,34.18,224.26,34.16,224.26,34.16z
	 M190.12,26.22L190.12,26.22L190.12,26.22L190.12,26.22z M209.4,27.72l-0.01,0c0.03-0.17,0.05-0.34,0.04-0.51
	C209.45,27.37,209.43,27.55,209.4,27.72z"/>
<radialGradient id="SVGID_1_" cx="162.1748" cy="25.8169" r="51.4318" gradientUnits="userSpaceOnUse">
	<stop  offset="0" style="stop-color:#E2BD80"/>
	<stop  offset="0.2893" style="stop-color:#B8914F"/>
	<stop  offset="0.5635" style="stop-color:#8B6628"/>
	<stop  offset="1" style="stop-color:#5C431A"/>
</radialGradient>
<path fill="url(#SVGID_1_)" d="M219.64,30.39l-11.17-2.92c-0.25-0.06-0.51-0.09-0.79-0.09c-0.03,0-0.05-0.01-0.09-0.01
	c-0.06,0-0.12,0.01-0.17,0.01l-38.19,2.67c-0.25,0.02-0.51,0.06-0.75,0.14c0,0,0,0,0,0c-0.23,0.07-0.45,0.16-0.66,0.28
	c-0.07,0.04-0.13,0.08-0.19,0.13c-0.12,0.07-0.24,0.14-0.36,0.23c-0.02,0.01-0.03,0.03-0.05,0.04c-0.16,0.13-0.31,0.28-0.45,0.43
	c-0.04,0.04-0.09,0.08-0.13,0.12c0,0.01-0.01,0.01-0.01,0.02c-0.13,0.15-0.23,0.31-0.34,0.48c-0.04,0.06-0.08,0.11-0.12,0.17
	c0,0,0,0.01-0.01,0.01c-0.14,0.25-0.26,0.51-0.36,0.78c0,0.01-0.01,0.02-0.02,0.04c-0.05,0.15-0.08,0.31-0.12,0.46
	c-0.02,0.09-0.05,0.18-0.07,0.27c-0.05,0.27-0.07,0.54-0.07,0.82l-0.13,30.15c-0.01,1.88,1.1,3.39,2.63,3.79l11.17,2.92
	c-1.52-0.4-2.63-1.9-2.63-3.79l0.13-30.15c0-0.28,0.03-0.55,0.08-0.82c0.02-0.09,0.05-0.18,0.07-0.26c0.04-0.17,0.08-0.35,0.14-0.51
	c0.1-0.28,0.22-0.54,0.36-0.78c0.03-0.05,0.07-0.1,0.1-0.14c0.11-0.18,0.23-0.35,0.36-0.51c0.04-0.05,0.09-0.09,0.13-0.13
	c0.14-0.15,0.29-0.31,0.46-0.44c0.12-0.1,0.26-0.18,0.39-0.27c0.07-0.04,0.13-0.09,0.2-0.13c0.21-0.11,0.43-0.21,0.66-0.28
	c0.24-0.07,0.49-0.12,0.74-0.14l38.19-2.67c0.09,0,0.17,0,0.26,0C219.13,30.3,219.39,30.33,219.64,30.39z"/>
<path fill="none" stroke="#6E501F" stroke-width="0.53" stroke-linecap="round" stroke-linejoin="round" d="M211.98,28.63
	l-38.19,2.65c-0.26,0.02-0.51,0.06-0.75,0.14h0c-0.23,0.07-0.45,0.16-0.66,0.27c-0.07,0.04-0.13,0.08-0.19,0.12
	c-0.12,0.07-0.25,0.14-0.36,0.22c-0.02,0.01-0.03,0.03-0.05,0.05c-0.16,0.13-0.3,0.27-0.45,0.42c-0.04,0.04-0.09,0.07-0.13,0.12
	c0,0.01-0.01,0.01-0.01,0.02c-0.13,0.14-0.23,0.31-0.34,0.47c-0.04,0.06-0.09,0.11-0.12,0.17c0,0,0,0.01,0,0.01
	c-0.14,0.24-0.26,0.5-0.36,0.78c-0.01,0.01-0.01,0.02-0.02,0.03c-0.05,0.15-0.08,0.3-0.12,0.46c-0.02,0.09-0.05,0.17-0.07,0.27
	c-0.05,0.26-0.08,0.54-0.08,0.81l-0.13,29.9c-0.01,1.87,1.1,3.36,2.63,3.76"/>
<radialGradient id="SVGID_2_" cx="179.4258" cy="35.0146" r="50.7729" gradientUnits="userSpaceOnUse">
	<stop  offset="0" style="stop-color:#C4A773"/>
	<stop  offset="0.5" style="stop-color:#AA863B"/>
	<stop  offset="1" style="stop-color:#8B702D"/>
</radialGradient>
<path fill="url(#SVGID_2_)" d="M218.6,30.3c2.04-0.14,3.67,1.59,3.66,3.88l-0.13,30.15c-0.01,2.29-1.67,4.26-3.7,4.4l-38.19,2.67
	c-2.03,0.14-3.67-1.59-3.66-3.88l0.13-30.15c0.01-2.29,1.67-4.26,3.7-4.4L218.6,30.3z"/>
<linearGradient id="SVGID_3_" gradientUnits="userSpaceOnUse" x1="172.4453" y1="31.126" x2="189.4727" y2="31.126">
	<stop  offset="0" style="stop-color:#E6CA9B"/>
	<stop  offset="0.5" style="stop-color:#DEBE85"/>
	<stop  offset="1" style="stop-color:#8B6B2C"/>
</linearGradient>
<polygon fill="url(#SVGID_3_)" points="183.61,32.79 172.45,29.87 178.31,29.46 189.47,32.38 "/>
<linearGradient id="SVGID_4_" gradientUnits="userSpaceOnUse" x1="199.0098" y1="29.2529" x2="216.0371" y2="29.2529">
	<stop  offset="0" style="stop-color:#E6CA9B"/>
	<stop  offset="0.5" style="stop-color:#DEBE85"/>
	<stop  offset="1" style="stop-color:#8B6B2C"/>
</linearGradient>
<polygon fill="url(#SVGID_4_)" points="210.18,30.92 199.01,28 204.87,27.59 216.04,30.51 "/>
<linearGradient id="SVGID_5_" gradientUnits="userSpaceOnUse" x1="184.0381" y1="33.2012" x2="188.843" y2="70.1113">
	<stop  offset="0" style="stop-color:#B8914F"/>
	<stop  offset="0.2843" style="stop-color:#8B6628"/>
	<stop  offset="0.9442" style="stop-color:#5C431A"/>
</linearGradient>
<polygon fill="url(#SVGID_5_)" points="189.47,32.38 189.31,70.79 183.44,71.2 183.61,32.79 "/>
<linearGradient id="SVGID_6_" gradientUnits="userSpaceOnUse" x1="210.3906" y1="30.8374" x2="215.6322" y2="68.8383">
	<stop  offset="0" style="stop-color:#B8914F"/>
	<stop  offset="0.2843" style="stop-color:#8B6628"/>
	<stop  offset="0.9442" style="stop-color:#5C431A"/>
</linearGradient>
<polygon fill="url(#SVGID_6_)" points="216.04,30.51 215.87,68.92 210.01,69.33 210.18,30.92 "/>
<polyline fill="none" stroke="#F2F2F2" stroke-width="0.5322" stroke-linecap="round" stroke-linejoin="round" points="
	189.31,70.72 189.47,32.38 178.36,29.48 "/>
<polyline fill="none" stroke="#F2F2F2" stroke-width="0.5322" stroke-linecap="round" stroke-linejoin="round" points="
	172.53,29.89 183.61,32.79 183.44,71.17 "/>
<polyline fill="none" stroke="#F2F2F2" stroke-width="0.5322" stroke-linecap="round" stroke-linejoin="round" points="215.87,68.8 
	216.04,30.45 204.92,27.55 "/>
<polyline fill="none" stroke="#F2F2F2" stroke-width="0.5322" stroke-linecap="round" stroke-linejoin="round" points="
	199.09,27.97 210.18,30.87 210.01,69.24 "/>
<linearGradient id="SVGID_7_" gradientUnits="userSpaceOnUse" x1="198.082" y1="23.272" x2="198.082" y2="29.9155">
	<stop  offset="0.2538" style="stop-color:#B8914F"/>
	<stop  offset="0.665" style="stop-color:#8B6628"/>
</linearGradient>
<path fill="url(#SVGID_7_)" d="M198.17,25.72l-1.12-0.29c0.54,0.14,0.95,0.68,0.94,1.37l-0.01,3.04l1.12,0.29l0.01-3.04
	C199.11,26.4,198.72,25.86,198.17,25.72z"/>
<linearGradient id="SVGID_8_" gradientUnits="userSpaceOnUse" x1="183.6611" y1="28.8794" x2="197.871" y2="20.667">
	<stop  offset="0.0863" style="stop-color:#A57B31"/>
	<stop  offset="0.269" style="stop-color:#EBE3D6"/>
	<stop  offset="0.7817" style="stop-color:#9F732A"/>
</linearGradient>
<path fill="url(#SVGID_8_)" d="M199.43,22.65c-0.16-0.04-0.32-0.06-0.48-0.06c-0.03,0-0.06,0-0.1,0l-11.99,0.84
	c-0.15,0.01-0.3,0.04-0.44,0.09c-0.12,0.04-0.24,0.09-0.35,0.14c-0.04,0.02-0.08,0.05-0.12,0.08c-0.06,0.04-0.13,0.07-0.18,0.12
	c-0.01,0.01-0.02,0.02-0.03,0.02c-0.1,0.08-0.18,0.16-0.27,0.26c-0.02,0.02-0.04,0.04-0.06,0.06c0,0,0,0.01-0.01,0.01
	c-0.08,0.09-0.14,0.19-0.21,0.29c-0.02,0.03-0.04,0.05-0.05,0.07c0,0,0,0,0,0c-0.08,0.14-0.15,0.29-0.2,0.44
	c0,0.01-0.01,0.01-0.01,0.02c-0.03,0.08-0.05,0.17-0.07,0.25c-0.01,0.05-0.03,0.11-0.04,0.16c-0.03,0.15-0.04,0.3-0.04,0.46
	l-0.02,4.83l1.12,0.29l0.02-4.83c0-0.16,0.02-0.31,0.04-0.46c0.01-0.06,0.03-0.11,0.04-0.16c0.02-0.09,0.04-0.18,0.07-0.27
	c0.06-0.16,0.13-0.3,0.21-0.45c0.01-0.01,0.02-0.02,0.03-0.04c0.07-0.12,0.15-0.23,0.23-0.33c0.03-0.03,0.06-0.05,0.08-0.08
	c0.08-0.09,0.16-0.17,0.25-0.24c0.07-0.06,0.15-0.11,0.23-0.16c0.04-0.02,0.07-0.05,0.11-0.07c0.24-0.13,0.51-0.21,0.79-0.23
	l11.99-0.84c0.2-0.01,0.4,0,0.58,0.05L199.43,22.65z"/>
<linearGradient id="SVGID_9_" gradientUnits="userSpaceOnUse" x1="186.6875" y1="24.6709" x2="202.1904" y2="30.1904">
	<stop  offset="0.2538" style="stop-color:#B8914F"/>
	<stop  offset="0.868" style="stop-color:#8B6628"/>
</linearGradient>
<path fill="url(#SVGID_9_)" d="M199.96,22.89c1.14-0.08,2.07,0.91,2.06,2.19l-0.02,4.84l-2.91,0.21l0.01-3.04
	c0.01-0.83-0.59-1.45-1.32-1.4l-7.68,0.54c-0.73,0.05-1.33,0.76-1.33,1.59l-0.01,3.04l-2.91,0.2l0.02-4.83
	c0-1.28,0.94-2.4,2.08-2.48L199.96,22.89z"/>
</g>

</svg>
