<?xml version="1.0" encoding="utf-8"?>
<!DOCTYPE svg PUBLIC "-//W3C//DTD SVG 1.0//EN" "http://www.w3.org/TR/2001/REC-SVG-20010904/DTD/svg10.dtd" [
<!ENTITY ns_svg "http://www.w3.org/2000/svg">
<!ENTITY ns_xlink "http://www.w3.org/1999/xlink">
]>
<svg xmlns="&ns_svg;" xmlns:xlink="&ns_xlink;" width="240" height="120" viewBox="0 0 240 120" overflow="visible" enable-background="new 0 0 240 120" xml:space="preserve">

<g id="Layer_1">

<defs>
</defs>
<path id="Background_1_" fill="none" d="M240,110c0,5.523-4.478,10-10,10H10c-5.523,0-10-4.477-10-10V10C0,4.477,4.477,0,10,0h220
	c5.522,0,10,4.477,10,10V110z"/>
<path fill="#262626" d="M131.075,17.683c-3.556-1.348-7.268-1.992-10.944-1.992c-9.521,0.003-18.858,4.312-24.906,12.062
	c-4.366,5.599-6.553,12.443-6.553,19.285c0,6.309,1.861,12.635,5.628,17.993c5.965,8.476,15.769,13.313,25.833,13.315
	c0.007,0,0.014,0,0.021,0c3.151,0,6.33-0.479,9.423-1.474c12.815-4.132,21.693-16.305,21.749-29.755
	c0.001-0.032,0.002-0.065,0.002-0.099C151.315,34.095,143.16,22.273,131.075,17.683z"/>
<radialGradient id="SVGID_1_" cx="211.4199" cy="-735.7563" r="29.2017" fx="210.4147" fy="-764.0827" gradientTransform="matrix(0.7071 -0.7071 0.7071 0.7071 490.8244 716.7756)" gradientUnits="userSpaceOnUse">
	<stop  offset="0" style="stop-color:#85B6CD"/>
	<stop  offset="0.4586" style="stop-color:#2D9ACD"/>
	<stop  offset="1" style="stop-color:#044C80"/>
</radialGradient>
<path fill="url(#SVGID_1_)" d="M140.704,26.357c9.357,9.357,11.229,24.312,4.427,35.676c-6.851,11.443-21.006,16.863-33.746,12.933
	c-12.777-3.943-21.394-16.512-20.531-29.84c0.864-13.333,11.067-24.678,24.249-26.92C124.385,16.628,134.045,19.699,140.704,26.357"
	/>
<linearGradient id="SVGID_2_" gradientUnits="userSpaceOnUse" x1="83.7842" y1="19.356" x2="156.6592" y2="88.731">
	<stop  offset="0.1044" style="stop-color:#FFFFFF"/>
	<stop  offset="0.2039" style="stop-color:#F1FBFE"/>
	<stop  offset="0.3906" style="stop-color:#CDF0FB"/>
	<stop  offset="0.4231" style="stop-color:#C6EEFB"/>
	<stop  offset="0.6633" style="stop-color:#E9F9FD"/>
	<stop  offset="0.8407" style="stop-color:#FFFFFF"/>
</linearGradient>
<path fill="url(#SVGID_2_)" d="M108.825,41.723c-1.488-0.172-2.601-0.138-2.541,0.524c0.944,0.706,1.886,0.546,2.827,0.524
	C108.507,42.312,108.367,41.953,108.825,41.723z"/>
<linearGradient id="SVGID_3_" gradientUnits="userSpaceOnUse" x1="84.7876" y1="18.3037" x2="157.6626" y2="87.6787">
	<stop  offset="0.1044" style="stop-color:#FFFFFF"/>
	<stop  offset="0.2039" style="stop-color:#F1FBFE"/>
	<stop  offset="0.3906" style="stop-color:#CDF0FB"/>
	<stop  offset="0.4231" style="stop-color:#C6EEFB"/>
	<stop  offset="0.6633" style="stop-color:#E9F9FD"/>
	<stop  offset="0.8407" style="stop-color:#FFFFFF"/>
</linearGradient>
<path fill="url(#SVGID_3_)" d="M109.636,42.247c-0.402,0.612,0.008,0.802,0.315,1.046c0.211-0.387,0.587-0.735,1.126-1.046
	C110.811,42.099,109.814,42.171,109.636,42.247z"/>
<linearGradient id="SVGID_4_" gradientUnits="userSpaceOnUse" x1="84.9268" y1="18.1572" x2="157.8018" y2="87.5322">
	<stop  offset="0.1044" style="stop-color:#FFFFFF"/>
	<stop  offset="0.2039" style="stop-color:#F1FBFE"/>
	<stop  offset="0.3906" style="stop-color:#CDF0FB"/>
	<stop  offset="0.4231" style="stop-color:#C6EEFB"/>
	<stop  offset="0.6633" style="stop-color:#E9F9FD"/>
	<stop  offset="0.8407" style="stop-color:#FFFFFF"/>
</linearGradient>
<path fill="url(#SVGID_4_)" d="M112.204,43.293c0.749,0.655,0.425,1.674,0.321,2.617c0.392-0.459,1.195-0.097,1.076-1.569
	C113.085,43.181,112.636,43.093,112.204,43.293z"/>
<linearGradient id="SVGID_5_" gradientUnits="userSpaceOnUse" x1="103.0269" y1="-0.856" x2="175.9019" y2="68.519">
	<stop  offset="0.1044" style="stop-color:#FFFFFF"/>
	<stop  offset="0.2039" style="stop-color:#F1FBFE"/>
	<stop  offset="0.3906" style="stop-color:#CDF0FB"/>
	<stop  offset="0.4231" style="stop-color:#C6EEFB"/>
	<stop  offset="0.6633" style="stop-color:#E9F9FD"/>
	<stop  offset="0.8407" style="stop-color:#FFFFFF"/>
</linearGradient>
<path fill="url(#SVGID_5_)" d="M125.113,20.731c-0.29,0.349,0.491,0.436,1.449,0.785c0.197-0.199,0.319-0.399-0.003-0.785
	C126.185,20.583,125.702,20.583,125.113,20.731z"/>
<linearGradient id="SVGID_6_" gradientUnits="userSpaceOnUse" x1="104.5688" y1="-2.4771" x2="177.4438" y2="66.8979">
	<stop  offset="0.1044" style="stop-color:#FFFFFF"/>
	<stop  offset="0.2039" style="stop-color:#F1FBFE"/>
	<stop  offset="0.3906" style="stop-color:#CDF0FB"/>
	<stop  offset="0.4231" style="stop-color:#C6EEFB"/>
	<stop  offset="0.6633" style="stop-color:#E9F9FD"/>
	<stop  offset="0.8407" style="stop-color:#FFFFFF"/>
</linearGradient>
<path fill="url(#SVGID_6_)" d="M132.996,23.349c-0.983-0.197-1.996-0.44-2.255,0.524c0.663,0.124,1.245,0.552,1.692,1.568
	c0.185-0.174,0.694,0.136,0.563-0.523c-0.276-0.349-0.552-0.697-0.824-1.045c0.628,0.296,1.217,0.081,1.95,1.568
	c0.083-0.174,0.165-0.347,0.253-0.523C134.034,23.985,133.695,23.76,132.996,23.349z"/>
<linearGradient id="SVGID_7_" gradientUnits="userSpaceOnUse" x1="105.2759" y1="-3.2241" x2="178.1573" y2="66.1569">
	<stop  offset="0.1044" style="stop-color:#FFFFFF"/>
	<stop  offset="0.2039" style="stop-color:#F1FBFE"/>
	<stop  offset="0.3906" style="stop-color:#CDF0FB"/>
	<stop  offset="0.4231" style="stop-color:#C6EEFB"/>
	<stop  offset="0.6633" style="stop-color:#E9F9FD"/>
	<stop  offset="0.8407" style="stop-color:#FFFFFF"/>
</linearGradient>
<path fill="url(#SVGID_7_)" d="M137.179,31.2c0.68-0.201,2.304,0.696,1.443-1.296c-0.417-0.982-0.434-1.782,0-2.368
	c0.391-0.126,0.537-0.55,0.563-1.046c0.955,1.059,2.631,1.743,3.941,2.617c-2.305-3.052-6.273-5.929-8.443-7.329
	c1.788,1.444,1.538,2.161,0.564,2.617c-0.164,0.556-0.213,1.147,0.889,2.095c1.251,0.998,1.1,1.463,0,1.57
	c-1.507-0.316-1.734,0.069-0.889,1.047C136.053,29.655,136.536,30.501,137.179,31.2z"/>
<linearGradient id="SVGID_8_" gradientUnits="userSpaceOnUse" x1="98.5791" y1="3.812" x2="171.4569" y2="73.1897">
	<stop  offset="0.1044" style="stop-color:#FFFFFF"/>
	<stop  offset="0.2039" style="stop-color:#F1FBFE"/>
	<stop  offset="0.3906" style="stop-color:#CDF0FB"/>
	<stop  offset="0.4231" style="stop-color:#C6EEFB"/>
	<stop  offset="0.6633" style="stop-color:#E9F9FD"/>
	<stop  offset="0.8407" style="stop-color:#FFFFFF"/>
</linearGradient>
<path fill="url(#SVGID_8_)" d="M144.646,33.297c-3.014-3.168-4.939-2.639-6.938-0.2c-0.078,0.635,0.069,1.246,0.564,1.822
	c-1.306,0.738-0.703,2.328-1.379,2.89c0.057,0.69,0.13,1.39-0.31,1.791c0.644,0.081,0.996,0.56,1.124,1.35c0,1.146,0,2.293,0,3.441
	c1.864,2.312,3.814,5.105,5.067,3.885c0.582-0.721,1.257-0.628,2.087-0.545c-0.539-0.849,0.587-0.908,1.737-1.117
	c0.888,0.578,1.594,1.629,1.243,4.802c0.368,4.013-1.61,8.027-3.69,12.041c0.916-1.349,1.853-2.853,2.702-4.506
	c3.787-8.583,3.171-18.582-1.434-26.63c-0.089-0.142-0.168-0.283-0.26-0.427C144.974,32.245,144.832,32.949,144.646,33.297z"/>
<linearGradient id="SVGID_9_" gradientUnits="userSpaceOnUse" x1="82.6841" y1="20.5029" x2="155.576" y2="89.894">
	<stop  offset="0.1044" style="stop-color:#FFFFFF"/>
	<stop  offset="0.2039" style="stop-color:#F1FBFE"/>
	<stop  offset="0.3906" style="stop-color:#CDF0FB"/>
	<stop  offset="0.4231" style="stop-color:#C6EEFB"/>
	<stop  offset="0.6633" style="stop-color:#E9F9FD"/>
	<stop  offset="0.8407" style="stop-color:#FFFFFF"/>
</linearGradient>
<path fill="url(#SVGID_9_)" d="M102.632,39.105l-1.125,0.667c1.237,0.459,2.465,1.011,3.624,2.294l0.571-0.867
	C105.033,40.245,104.035,39.528,102.632,39.105z"/>
<linearGradient id="SVGID_10_" gradientUnits="userSpaceOnUse" x1="85.8672" y1="17.168" x2="158.7438" y2="86.5445">
	<stop  offset="0.1044" style="stop-color:#FFFFFF"/>
	<stop  offset="0.2039" style="stop-color:#F1FBFE"/>
	<stop  offset="0.3906" style="stop-color:#CDF0FB"/>
	<stop  offset="0.4231" style="stop-color:#C6EEFB"/>
	<stop  offset="0.6633" style="stop-color:#E9F9FD"/>
	<stop  offset="0.8407" style="stop-color:#FFFFFF"/>
</linearGradient>
<path fill="url(#SVGID_10_)" d="M92.974,39.459c-0.128,1.193,0.272,2.142,1.69,2.616c0.806,1.018,1.679,1.779,2.813,1.572
	c0.657,1.577,1.011,3.296,3.145,4.188c1.317-0.68,1.705,0.311,1.358,2.617c-0.756,0.604-1.373,1.397-1.688,2.616
	c-0.948,1.501,1.095,3.665,2.814,5.76c1.242,2.113,4.673,3.521,4.504,6.282c-0.073,2.572,0.116,5.045,1.357,7.111
	c1.7,2.231,2.992,3.105,3.146,0.217c0.936-1.372,1.628-2.951,3.938-3.141c2.191,0.053,3.275-1.944,4.504-3.669
	c2.078-0.563,4.077-1.27,5.068-3.661c-0.881-1.104,0.033-2.355,1.687-3.664c2.17-1.724,1.346-2.699-0.562-3.399
	c-1.185-0.266-3.36-0.767-6.755-1.551c-1.747-0.12-1.502-1.936-2.25-2.9c-0.32-0.951-2.207-1.336-4.505-1.572
	c-1.616-2.413-3.341-2.513-5.065-2.617c-1.533-1.015-3.2-1.146-5.068,0c-0.111,0.58-0.512,0.966-1.456,0
	c-1.547,0.884-2.068,0.224-2.185-1.047c0.857-3.023-0.572-2.808-1.988-2.617c0.769-0.682,1.017-1.847,1.127-3.14
	c-5.467,3.967-3.523-0.824-3.377-3.665c1.794,0.088,4.182-3.14,6.753,0.524c-0.373,0.622-0.312,1.154,0.313,1.569
	c0.194-2.782,0.859-4.296,1.941-4.71c1.263-0.07,2.245-0.988,3.065-2.396c0.431-0.62,1.481-0.951,2.563-1.268
	c-0.136-0.851,0.386-1.227,1.688-1.047c0.976,0.405,1.947,0.783,2.813-0.523c-1.057-0.209-1.859-0.616-2.251-1.339
	c-0.807-1.351,0.442-0.791,1.688-0.231c0.655-0.485,1.376-0.754,2.251-0.522c-0.934,0.684-1.351,1.293,0.565,1.57
	c1.348,0.354,0.611-1.059-0.565-2.847c-1.116-1.239-2.135-2.045-2.813-1.341c-0.73-1.134-1.439-2.374-2.814,0
	c-1.75,1.817-2.941,2.504-2.815,0.524c-0.907-0.453-1.698-0.915,0-1.571c0.62-0.536,1.224-1.091,2.815-0.522
	c1.19-0.74,2.254-0.463,3.334,0.33c1.508-0.434,2.88-0.757,2.858-1.901c-0.861-0.995-2.219-0.446-3.378-0.522
	c1.257-0.311,2.204-0.793,4.505-0.524c0.9,0.032,1.208,0.622,0.563,2.094c1.34,2.324,2.338,1.736,3.566-0.154
	c0.667-0.249,1.71-0.343,2.376-0.589c-1.334-1.11-3.434-2.403-4.029-2.72c-1.705-0.016-3.422,0.113-5.126,0.403
	c-10.634,1.81-19.328,9.521-22.789,19.426C91.992,39.823,91.972,41.431,92.974,39.459z"/>
</g>

</svg>
