<?xml version="1.0" encoding="utf-8"?>
<!-- Generator: Adobe Illustrator 11.0, SVG Export Plug-In  -->
<!DOCTYPE svg PUBLIC "-//W3C//DTD SVG 1.0//EN"    "http://www.w3.org/TR/2001/REC-SVG-20010904/DTD/svg10.dtd" [
	<!ENTITY ns_flows "http://ns.adobe.com/Flows/1.0/">
	<!ENTITY ns_svg "http://www.w3.org/2000/svg">
	<!ENTITY ns_xlink "http://www.w3.org/1999/xlink">
]>
<svg  xmlns="&ns_svg;" xmlns:xlink="&ns_xlink;" xmlns:a="http://ns.adobe.com/AdobeSVGViewerExtensions/3.0/"
	 width="16" height="16" viewBox="0.39258 0 16 16" xml:space="preserve">
	<defs>
	</defs>
	<g>
		<rect x="0.39697" y="0.00391" fill="none" width="16" height="16"/> 
		<path opacity="0.6" fill="#FFFFFF" d="M16.40088,13.7207c0,1.25781-1.0293,2.28613-2.28711,2.28613H2.67969
			c-1.25781,0-2.28711-1.02832-2.28711-2.28613V2.28613C0.39258,1.02734,1.42188,0,2.67969,0h11.43408
			c1.25781,0,2.28711,1.02734,2.28711,2.28613V13.7207z"/>
		<linearGradient id="XMLID_1_" gradientUnits="userSpaceOnUse" x1="1.51465" y1="1.12109" x2="14.80934" y2="14.41579">
			<stop  offset="0" style="stop-color:#7B85A2"/>
			<stop  offset="0.23262" style="stop-color:#757F9C"/>
			<stop  offset="0.55129" style="stop-color:#636D8A"/>
			<stop  offset="0.91829" style="stop-color:#46506D"/>
			<stop  offset="1" style="stop-color:#3F4966"/>
			<a:midPointStop  offset="0" style="stop-color:#7B85A2"/>
			<a:midPointStop  offset="0.63971" style="stop-color:#7B85A2"/>
			<a:midPointStop  offset="1" style="stop-color:#3F4966"/>
		</linearGradient>
		<path fill="url(#XMLID_1_)" d="M16.01953,13.44727c0,1.19922-0.98047,2.17773-2.17773,2.17773H2.95117
			c-1.19727,0-2.17773-0.97852-2.17773-2.17773V2.55957c0-1.19922,0.98047-2.17871,2.17773-2.17871H13.8418
			c1.19727,0,2.17773,0.97949,2.17773,2.17871V13.44727z"/>
		<linearGradient id="XMLID_2_" gradientUnits="userSpaceOnUse" x1="14.67432" y1="14.28125" x2="2.18599" y2="1.79337">
			<stop  offset="0" style="stop-color:#FFFFFF"/>
			<stop  offset="0.25506" style="stop-color:#F9FCFD"/>
			<stop  offset="0.60447" style="stop-color:#E7F5F9"/>
			<stop  offset="1" style="stop-color:#CBE9F2"/>
			<a:midPointStop  offset="0" style="stop-color:#FFFFFF"/>
			<a:midPointStop  offset="0.63971" style="stop-color:#FFFFFF"/>
			<a:midPointStop  offset="1" style="stop-color:#CBE9F2"/>
		</linearGradient>
		<path fill="url(#XMLID_2_)" d="M15.32617,12.95313c0,1.08887-0.89063,1.98047-1.97949,1.98047h-9.8999
			c-1.08936,0-1.97949-0.8916-1.97949-1.98047V3.05371c0-1.08887,0.89014-1.98047,1.97949-1.98047h9.8999
			c1.08887,0,1.97949,0.8916,1.97949,1.98047V12.95313z"/>
		<linearGradient id="XMLID_3_" gradientUnits="userSpaceOnUse" x1="2.57764" y1="2.18457" x2="14.23429" y2="13.84081">
			<stop  offset="0" style="stop-color:#FFFFFF"/>
			<stop  offset="0.25506" style="stop-color:#F9FCFD"/>
			<stop  offset="0.60447" style="stop-color:#E7F5F9"/>
			<stop  offset="1" style="stop-color:#CBE9F2"/>
			<a:midPointStop  offset="0" style="stop-color:#FFFFFF"/>
			<a:midPointStop  offset="0.63971" style="stop-color:#FFFFFF"/>
			<a:midPointStop  offset="1" style="stop-color:#CBE9F2"/>
		</linearGradient>
		<path fill="url(#XMLID_3_)" d="M14.8418,12.60547c0,1.01465-0.8291,1.84277-1.84229,1.84277H3.79346
			c-1.0127,0-1.8418-0.82813-1.8418-1.84277V3.40039c0-1.0127,0.8291-1.8418,1.8418-1.8418h9.20605
			c1.01318,0,1.84229,0.8291,1.84229,1.8418V12.60547z"/>
		<g>
			
			<g>
				
					<linearGradient id="XMLID_5_" gradientUnits="userSpaceOnUse" x1="0.06836" y1="13.66602" x2="3.11213" y2="16.71022" gradientTransform="matrix(-8.979319e-011 1 1 8.979319e-011 -5.7041 5.7041)">
					<stop  offset="0" style="stop-color:#FF9900"/>
					<stop  offset="0.26158" style="stop-color:#F99300"/>
					<stop  offset="0.61994" style="stop-color:#E78100"/>
					<stop  offset="1" style="stop-color:#CD6700"/>
					<a:midPointStop  offset="0" style="stop-color:#FF9900"/>
					<a:midPointStop  offset="0.63971" style="stop-color:#FF9900"/>
					<a:midPointStop  offset="1" style="stop-color:#CD6700"/>
				</linearGradient>
				<polygon fill="url(#XMLID_5_)" points="8.39648,5.93555 3,5.93555 5.69775,8.90723 8.39648,11.875 11.09473,8.90723 
					13.79248,5.93555 "/>
			</g>
		</g>
		<linearGradient id="XMLID_6_" gradientUnits="userSpaceOnUse" x1="4.77051" y1="7.24414" x2="8.09419" y2="3.41374">
			<stop  offset="0" style="stop-color:#FFFFFF"/>
			<stop  offset="1" style="stop-color:#ADB7D4"/>
			<a:midPointStop  offset="0" style="stop-color:#FFFFFF"/>
			<a:midPointStop  offset="0.5" style="stop-color:#FFFFFF"/>
			<a:midPointStop  offset="1" style="stop-color:#ADB7D4"/>
		</linearGradient>
		<path opacity="0.35" fill="url(#XMLID_6_)" enable-background="new    " d="M15.31494,3.82031c0-0.0918,0-0.43848,0-0.87988
			c-0.05957-1.03613-0.91846-1.86719-1.96826-1.86719h-9.8999c-1.07715,0-1.95752,0.87207-1.97607,1.94531v9.7002
			C1.4707,12.71875,3.94971,3.82031,15.31494,3.82031z"/>
		<rect id="_x3C_Slice_x3E__27_" x="0.39258" fill="none" width="16" height="16"/> 
	</g>
</svg>
