<?xml version="1.0" encoding="utf-8"?>
<!-- Generator: Adobe Illustrator 11.0, SVG Export Plug-In  -->
<!DOCTYPE svg PUBLIC "-//W3C//DTD SVG 1.0//EN"    "http://www.w3.org/TR/2001/REC-SVG-20010904/DTD/svg10.dtd" [
	<!ENTITY ns_flows "http://ns.adobe.com/Flows/1.0/">
	<!ENTITY ns_svg "http://www.w3.org/2000/svg">
	<!ENTITY ns_xlink "http://www.w3.org/1999/xlink">
]>
<svg  xmlns="&ns_svg;" xmlns:xlink="&ns_xlink;" xmlns:a="http://ns.adobe.com/AdobeSVGViewerExtensions/3.0/"
	 width="51" height="51" viewBox="-0.435547 -0.179688 51 51" xml:space="preserve">
	<defs>
	</defs>
	<g>
		<rect x="0.013672" y="0.041992" fill="none" width="50" height="50.000977"/> 
		<linearGradient id="XMLID_2_" gradientUnits="userSpaceOnUse" x1="39.458008" y1="50.0625" x2="10.56738" y2="0.022471">
			<stop  offset="0.003663" style="stop-color:#173673"/>
			<stop  offset="1" style="stop-color:#003BB1"/>
			<a:midPointStop  offset="0.003663" style="stop-color:#173673"/>
			<a:midPointStop  offset="0.5" style="stop-color:#173673"/>
			<a:midPointStop  offset="1" style="stop-color:#003BB1"/>
		</linearGradient>
		<path fill="url(#XMLID_2_)" d="M47.013672,43.875c0,1.742188-1.427734,3.167969-3.171875,3.167969H6.179688
			c-1.744141,0-3.166016-1.425781-3.166016-3.167969V6.210938c0-1.742188,1.421875-3.168945,3.166016-3.168945h37.662109
			c1.744141,0,3.171875,1.426758,3.171875,3.168945V43.875z"/>
		<linearGradient id="XMLID_3_" gradientUnits="userSpaceOnUse" x1="38.853516" y1="49.013184" x2="11.17529" y2="1.073097">
			<stop  offset="0" style="stop-color:#99BBFF"/>
			<stop  offset="0.070004" style="stop-color:#82A8F2"/>
			<stop  offset="0.183218" style="stop-color:#648EE2"/>
			<stop  offset="0.294376" style="stop-color:#4E7CD6"/>
			<stop  offset="0.401488" style="stop-color:#4171CE"/>
			<stop  offset="0.5" style="stop-color:#3D6DCC"/>
			<stop  offset="0.613835" style="stop-color:#4170CE"/>
			<stop  offset="0.7154" style="stop-color:#4B79D4"/>
			<stop  offset="0.812267" style="stop-color:#5E89DE"/>
			<stop  offset="0.90611" style="stop-color:#779EEC"/>
			<stop  offset="0.997277" style="stop-color:#98BAFE"/>
			<stop  offset="1" style="stop-color:#99BBFF"/>
			<a:midPointStop  offset="0" style="stop-color:#99BBFF"/>
			<a:midPointStop  offset="0.31" style="stop-color:#99BBFF"/>
			<a:midPointStop  offset="0.5" style="stop-color:#3D6DCC"/>
			<a:midPointStop  offset="0.73" style="stop-color:#3D6DCC"/>
			<a:midPointStop  offset="1" style="stop-color:#99BBFF"/>
		</linearGradient>
		<path fill="url(#XMLID_3_)" d="M45.914063,43.566406c0,1.308594-1.069336,2.375-2.375977,2.375H6.489258
			c-1.304688,0-2.375-1.066406-2.375-2.375V6.517578c0-1.305664,1.070313-2.375,2.375-2.375h37.048828
			c1.306641,0,2.375977,1.069336,2.375977,2.375V43.566406z"/>
		<rect id="_x3C_Slice_x3E__3_" x="0.013672" y="0.015625" fill="none" width="50" height="50"/> 
		<path opacity="0.3" fill="#FFFFFF" d="M43.538086,4.142578H6.489258c-1.304688,0-2.375,1.069336-2.375,2.375v37.048828
			c0,1.308594,1.070313,2.375,2.375,2.375h37.048828c1.306641,0,2.375977-1.066406,2.375977-2.375V6.517578
			C45.914063,5.211914,44.844727,4.142578,43.538086,4.142578z M45.287109,43.011719
			c0,1.267578-1.036133,2.302734-2.303711,2.302734H7.043945c-1.267578,0-2.302734-1.035156-2.302734-2.302734v-35.9375
			c0-1.267578,1.035156-2.304688,2.302734-2.304688h35.939453c1.267578,0,2.303711,1.037109,2.303711,2.304688V43.011719z"/>
		<g>
			<g>
				<path d="M28.506836,10.723633c-0.119141-0.086914-0.214844-0.038086-0.214844,0.108398v10.688477
					c0,0.145508-0.120117,0.265625-0.265625,0.265625h-6.024414c-0.145508,0-0.264648-0.120117-0.264648-0.265625V10.832031
					c0-0.146484-0.09668-0.195313-0.21582-0.108398c0,0-7.223633,2.418945-7.223633,10.036133
					c0,7.708008,7.47168,10.113281,7.47168,10.113281c0.118164,0.083984,0.217773,0.273438,0.217773,0.418945v14.438477
					c0,0.146484,0.119141,0.265625,0.264648,0.265625h5.523438c0.145508,0,0.264648-0.119141,0.264648-0.265625V31.291992
					c0-0.145508,0.097656-0.334961,0.217773-0.418945c0,0,7.472656-2.392578,7.472656-10.113281
					C35.730469,13.142578,28.506836,10.723633,28.506836,10.723633z"/>
			</g>
		</g>
		<path opacity="0.1" fill="#FFFFFF" d="M45.914063,12.867188c0,0-28.694336-4.994141-41.799805,25.300781
			c0-9.488281,0-31.72168,0-31.72168c0-1.305664,1.070313-2.375977,2.375-2.375977h37.048828
			c1.306641,0,2.375977,1.070313,2.375977,2.375977V12.867188z"/>
		<rect y="0.026367" fill="none" width="50" height="50.000977"/> 
		<rect id="_x3C_Slice_x3E__1_" fill="none" width="50" height="50"/> 
	</g>
</svg>
