<?xml version="1.0" encoding="utf-8"?>
<!-- Generator: Adobe Illustrator 13.0.1, SVG Export Plug-In . SVG Version: 6.00 Build 14948)  -->
<!DOCTYPE svg PUBLIC "-//W3C//DTD SVG 1.0//EN" "http://www.w3.org/TR/2001/REC-SVG-20010904/DTD/svg10.dtd">
<svg version="1.0" id="Layer_1" xmlns="http://www.w3.org/2000/svg" xmlns:xlink="http://www.w3.org/1999/xlink" x="0px" y="0px"
	 width="51px" height="51px" viewBox="-0.436 -0.18 51 51" enable-background="new -0.436 -0.18 51 51" xml:space="preserve">
<g id="Layer_1_1_">
	<rect x="0.014" y="0.042" fill="none" width="50" height="50.001"/>
	<rect id="_x3C_Slice_x3E__3_" x="0.014" y="0.016" fill="none" width="50" height="50"/>
	<rect y="0.026" fill="none" width="50" height="50.001"/>
	<rect id="_x3C_Slice_x3E__1_" fill="none" width="50" height="50"/>
</g>
<g>
	
	<g>
		<path fill="#231F20" d="M25.363,2.849c-12.153,0-22,9.848-22,22c0,12.147,9.848,22,22,22c12.151,0,22-9.854,22-22
			C47.363,12.696,37.514,2.849,25.363,2.849L25.363,2.849z M25.363,43.802c-10.452,0-18.954-8.5-18.954-18.953
			c0-5.065,1.971-9.823,5.549-13.405c3.58-3.574,8.34-5.548,13.405-5.548c10.452,0,18.954,8.503,18.954,18.953
			C44.316,35.302,35.814,43.802,25.363,43.802L25.363,43.802z"/>
	</g>
</g>
<g>
	<linearGradient id="SVGID_1_" gradientUnits="userSpaceOnUse" x1="41.1592" y1="46.0352" x2="10.3838" y2="4.9341">
		<stop  offset="0" style="stop-color:#231F20"/>
		<stop  offset="1" style="stop-color:#404041"/>
	</linearGradient>
	<path fill="url(#SVGID_1_)" d="M25.277,2.826c-12.152,0-22,9.848-22,22c0,12.147,9.848,22,22,22c12.15,0,22-9.853,22-22
		C47.277,12.674,37.428,2.826,25.277,2.826L25.277,2.826z M25.277,43.779c-10.451,0-18.953-8.5-18.953-18.953
		c0-5.065,1.971-9.823,5.549-13.405c3.58-3.574,8.34-5.548,13.404-5.548c10.451,0,18.953,8.503,18.953,18.953
		C44.23,35.279,35.729,43.779,25.277,43.779L25.277,43.779z"/>
	<g>
		<circle fill="#231F20" cx="25.277" cy="24.826" r="20.162"/>
		<linearGradient id="SVGID_2_" gradientUnits="userSpaceOnUse" x1="18.4902" y1="9.0283" x2="32.7747" y2="42.432">
			<stop  offset="0" style="stop-color:#231F20"/>
			<stop  offset="1" style="stop-color:#272425"/>
		</linearGradient>
		<circle fill="url(#SVGID_2_)" cx="25.301" cy="24.956" r="19.625"/>
		<linearGradient id="SVGID_3_" gradientUnits="userSpaceOnUse" x1="18.7002" y1="9.5928" x2="32.5942" y2="42.0833">
			<stop  offset="0" style="stop-color:#231F20"/>
			<stop  offset="0.0298" style="stop-color:#231F20"/>
			<stop  offset="1" style="stop-color:#2C292A"/>
		</linearGradient>
		<circle fill="url(#SVGID_3_)" cx="25.326" cy="25.086" r="19.088"/>
		<linearGradient id="SVGID_4_" gradientUnits="userSpaceOnUse" x1="18.9111" y1="10.1592" x2="32.4146" y2="41.7365">
			<stop  offset="0" style="stop-color:#231F20"/>
			<stop  offset="0.319" style="stop-color:#292526"/>
			<stop  offset="1" style="stop-color:#312F30"/>
		</linearGradient>
		<circle fill="url(#SVGID_4_)" cx="25.35" cy="25.216" r="18.552"/>
		<linearGradient id="SVGID_5_" gradientUnits="userSpaceOnUse" x1="19.1221" y1="10.7246" x2="32.2347" y2="41.388">
			<stop  offset="0" style="stop-color:#231F20"/>
			<stop  offset="0.4244" style="stop-color:#2C292A"/>
			<stop  offset="1" style="stop-color:#343334"/>
		</linearGradient>
		<circle fill="url(#SVGID_5_)" cx="25.374" cy="25.346" r="18.016"/>
		<linearGradient id="SVGID_6_" gradientUnits="userSpaceOnUse" x1="19.332" y1="11.29" x2="32.0542" y2="41.0402">
			<stop  offset="0" style="stop-color:#231F20"/>
			<stop  offset="0.5129" style="stop-color:#312E2F"/>
			<stop  offset="1" style="stop-color:#393839"/>
		</linearGradient>
		<circle fill="url(#SVGID_6_)" cx="25.398" cy="25.477" r="17.479"/>
		<linearGradient id="SVGID_7_" gradientUnits="userSpaceOnUse" x1="19.5425" y1="11.8555" x2="31.8741" y2="40.6925">
			<stop  offset="0" style="stop-color:#231F20"/>
			<stop  offset="0.5753" style="stop-color:#353334"/>
			<stop  offset="1" style="stop-color:#3D3C3E"/>
		</linearGradient>
		<circle fill="url(#SVGID_7_)" cx="25.422" cy="25.605" r="16.942"/>
		<linearGradient id="SVGID_8_" gradientUnits="userSpaceOnUse" x1="19.7529" y1="12.4204" x2="31.6937" y2="40.3434">
			<stop  offset="0" style="stop-color:#231F20"/>
			<stop  offset="0.6135" style="stop-color:#393738"/>
			<stop  offset="1" style="stop-color:#414142"/>
		</linearGradient>
		<circle fill="url(#SVGID_8_)" cx="25.447" cy="25.736" r="16.406"/>
		<linearGradient id="SVGID_9_" gradientUnits="userSpaceOnUse" x1="19.9634" y1="12.9868" x2="31.5129" y2="39.995">
			<stop  offset="0" style="stop-color:#231F20"/>
			<stop  offset="0.0499" style="stop-color:#252122"/>
			<stop  offset="0.6445" style="stop-color:#3C3B3C"/>
			<stop  offset="1" style="stop-color:#444446"/>
		</linearGradient>
		<circle fill="url(#SVGID_9_)" cx="25.471" cy="25.865" r="15.869"/>
		<linearGradient id="SVGID_10_" gradientUnits="userSpaceOnUse" x1="20.1738" y1="13.5522" x2="31.3332" y2="39.648">
			<stop  offset="0" style="stop-color:#231F20"/>
			<stop  offset="0.1189" style="stop-color:#292526"/>
			<stop  offset="0.6703" style="stop-color:#403F40"/>
			<stop  offset="1" style="stop-color:#48484A"/>
		</linearGradient>
		<circle fill="url(#SVGID_10_)" cx="25.495" cy="25.996" r="15.332"/>
		<linearGradient id="SVGID_11_" gradientUnits="userSpaceOnUse" x1="20.3843" y1="14.1187" x2="31.1528" y2="39.3004">
			<stop  offset="0" style="stop-color:#231F20"/>
			<stop  offset="0.1773" style="stop-color:#2C292B"/>
			<stop  offset="0.6922" style="stop-color:#434344"/>
			<stop  offset="1" style="stop-color:#4C4C4E"/>
		</linearGradient>
		<circle fill="url(#SVGID_11_)" cx="25.519" cy="26.126" r="14.795"/>
		<linearGradient id="SVGID_12_" gradientUnits="userSpaceOnUse" x1="20.5947" y1="14.6826" x2="30.9728" y2="38.9512">
			<stop  offset="0" style="stop-color:#231F20"/>
			<stop  offset="0.2274" style="stop-color:#302D2F"/>
			<stop  offset="0.7108" style="stop-color:#474748"/>
			<stop  offset="1" style="stop-color:#4F5052"/>
		</linearGradient>
		<circle fill="url(#SVGID_12_)" cx="25.543" cy="26.256" r="14.259"/>
		<linearGradient id="SVGID_13_" gradientUnits="userSpaceOnUse" x1="20.8057" y1="15.249" x2="30.7925" y2="38.6028">
			<stop  offset="0" style="stop-color:#231F20"/>
			<stop  offset="0.2605" style="stop-color:#333031"/>
			<stop  offset="0.7232" style="stop-color:#49494B"/>
			<stop  offset="1" style="stop-color:#525255"/>
		</linearGradient>
		<circle fill="url(#SVGID_13_)" cx="25.568" cy="26.386" r="13.722"/>
		<linearGradient id="SVGID_14_" gradientUnits="userSpaceOnUse" x1="21.0161" y1="15.8145" x2="30.6128" y2="38.2559">
			<stop  offset="0" style="stop-color:#231F20"/>
			<stop  offset="0.2906" style="stop-color:#353335"/>
			<stop  offset="0.7344" style="stop-color:#4C4D4E"/>
			<stop  offset="1" style="stop-color:#555658"/>
		</linearGradient>
		<circle fill="url(#SVGID_14_)" cx="25.592" cy="26.516" r="13.186"/>
	</g>
	<g opacity="0.29">
		<path opacity="0.01" fill="#FFFFFF" d="M38.42,10.709c2.65,5.496-3.037,9.645-11.994,13.965s-18.248,5.74-20.178-0.049
			c-1.859-5.58,1.721-13.867,10.678-18.188C25.885,2.117,35.77,5.211,38.42,10.709z"/>
		<path opacity="0.029" fill="#FFFFFF" d="M37.844,10.771c2.573,5.338-2.947,9.378-11.645,13.573
			c-8.698,4.195-17.721,5.566-19.597-0.055c-1.808-5.418,1.674-13.465,10.371-17.66C25.673,2.436,35.271,5.433,37.844,10.771z"/>
		<path opacity="0.0481" fill="#FFFFFF" d="M37.268,10.832c2.497,5.179-2.857,9.111-11.296,13.182S8.78,29.406,6.957,23.953
			C5.2,18.697,8.583,10.893,17.021,6.822C25.462,2.753,34.771,5.653,37.268,10.832z"/>
		<path opacity="0.0671" fill="#FFFFFF" d="M36.691,10.895c2.42,5.02-2.768,8.844-10.946,12.789
			c-8.179,3.944-16.664,5.219-18.434-0.065C5.606,18.523,8.891,10.96,17.069,7.015C25.25,3.07,34.271,5.875,36.691,10.895z"/>
		<path opacity="0.0861" fill="#FFFFFF" d="M36.115,10.956c2.343,4.86-2.678,8.577-10.598,12.397
			c-7.919,3.819-16.136,5.045-17.851-0.07c-1.655-4.934,1.531-12.256,9.45-16.076C25.038,3.389,33.771,6.096,36.115,10.956z"/>
		<path opacity="0.1052" fill="#FFFFFF" d="M35.539,11.018c2.267,4.701-2.588,8.311-10.248,12.006
			c-7.66,3.694-15.607,4.87-17.27-0.076C6.418,18.176,9.505,11.095,17.165,7.4C24.826,3.706,33.272,6.316,35.539,11.018z"/>
		<path opacity="0.1242" fill="#FFFFFF" d="M34.963,11.08c2.189,4.541-2.498,8.043-9.898,11.613
			c-7.401,3.569-15.08,4.696-16.688-0.082c-1.552-4.608,1.437-11.449,8.837-15.019C24.615,4.023,32.772,6.537,34.963,11.08z"/>
		<path opacity="0.1432" fill="#FFFFFF" d="M34.387,11.142c2.112,4.382-2.408,7.776-9.55,11.222
			c-7.141,3.444-14.552,4.521-16.106-0.088c-1.501-4.446,1.39-11.046,8.53-14.49C24.403,4.342,32.273,6.759,34.387,11.142z"/>
		<path opacity="0.1623" fill="#FFFFFF" d="M33.81,11.203c2.037,4.224-2.317,7.511-9.199,10.83
			c-6.882,3.318-14.023,4.348-15.525-0.093c-1.449-4.284,1.342-10.644,8.224-13.962C24.191,4.659,31.774,6.98,33.81,11.203z"/>
		<path opacity="0.1813" fill="#FFFFFF" d="M33.233,11.266c1.96,4.063-2.228,7.243-8.85,10.438
			c-6.623,3.193-13.496,4.174-14.944-0.098c-1.397-4.123,1.295-10.24,7.917-13.436C23.98,4.977,31.274,7.201,33.233,11.266z"/>
		<path opacity="0.2003" fill="#FFFFFF" d="M32.657,11.326c1.884,3.906-2.138,6.978-8.501,10.047
			c-6.363,3.068-12.968,4-14.361-0.104c-1.348-3.961,1.246-9.838,7.609-12.906C23.769,5.295,30.775,7.422,32.657,11.326z"/>
		<path opacity="0.2194" fill="#FFFFFF" d="M32.081,11.389c1.807,3.746-2.048,6.711-8.151,9.654
			c-6.104,2.943-12.439,3.826-13.78-0.109c-1.296-3.799,1.199-9.434,7.303-12.378C23.557,5.612,30.275,7.643,32.081,11.389z"/>
		<path opacity="0.2384" fill="#FFFFFF" d="M31.505,11.451c1.729,3.586-1.958,6.443-7.803,9.262
			c-5.844,2.818-11.911,3.652-13.198-0.114c-1.245-3.638,1.152-9.032,6.996-11.851C23.345,5.93,29.776,7.864,31.505,11.451z"/>
		<path opacity="0.2574" fill="#FFFFFF" d="M30.929,11.512c1.653,3.428-1.868,6.178-7.453,8.871s-11.384,3.478-12.617-0.119
			c-1.193-3.477,1.104-8.629,6.689-11.322C23.134,6.248,29.277,8.085,30.929,11.512z"/>
		<path opacity="0.2765" fill="#FFFFFF" d="M30.353,11.574c1.576,3.268-1.778,5.91-7.104,8.479
			c-5.326,2.568-10.855,3.304-12.036-0.125c-1.142-3.314,1.058-8.226,6.383-10.795C22.922,6.565,28.777,8.307,30.353,11.574z"/>
		<path opacity="0.2955" fill="#FFFFFF" d="M29.776,11.637c1.499,3.108-1.688,5.643-6.755,8.086s-10.327,3.129-11.454-0.131
			c-1.091-3.151,1.011-7.822,6.076-10.266C22.71,6.883,28.278,8.527,29.776,11.637z"/>
		<path opacity="0.3145" fill="#FFFFFF" d="M29.2,11.697c1.423,2.95-1.599,5.377-6.405,7.695s-9.8,2.955-10.872-0.137
			c-1.04-2.989,0.962-7.419,5.768-9.737C22.499,7.201,27.778,8.748,29.2,11.697z"/>
		<path opacity="0.3335" fill="#FFFFFF" d="M28.624,11.76c1.346,2.791-1.509,5.109-6.057,7.303
			c-4.547,2.193-9.271,2.781-10.29-0.142c-0.989-2.827,0.915-7.017,5.461-9.21C22.287,7.519,27.279,8.969,28.624,11.76z"/>
		<path opacity="0.3526" fill="#FFFFFF" d="M28.048,11.822c1.269,2.631-1.419,4.842-5.707,6.91s-8.743,2.607-9.709-0.146
			c-0.938-2.666,0.868-6.614,5.154-8.682C22.075,7.836,26.779,9.19,28.048,11.822z"/>
		<path opacity="0.3716" fill="#FFFFFF" d="M27.472,11.883c1.192,2.473-1.329,4.576-5.357,6.52
			c-4.029,1.943-8.216,2.434-9.128-0.152c-0.886-2.504,0.82-6.211,4.848-8.153C21.864,8.154,26.28,9.411,27.472,11.883z"/>
		<path opacity="0.3906" fill="#FFFFFF" d="M26.896,11.945c1.115,2.313-1.239,4.309-5.009,6.127
			c-3.769,1.818-7.688,2.26-8.546-0.158c-0.835-2.342,0.773-5.807,4.541-7.625C21.652,8.472,25.781,9.633,26.896,11.945z"/>
		<path opacity="0.4097" fill="#FFFFFF" d="M26.319,12.008c1.038,2.152-1.149,4.042-4.659,5.734
			c-3.51,1.693-7.159,2.085-7.965-0.163c-0.783-2.181,0.727-5.405,4.234-7.098C21.44,8.789,25.281,9.854,26.319,12.008z"/>
		<path opacity="0.4287" fill="#FFFFFF" d="M25.743,12.068c0.962,1.995-1.06,3.776-4.311,5.344c-3.25,1.568-6.631,1.911-7.382-0.168
			c-0.733-2.02,0.678-5.002,3.927-6.57C21.229,9.107,24.782,10.074,25.743,12.068z"/>
		<path opacity="0.4477" fill="#FFFFFF" d="M25.167,12.131c0.885,1.835-0.97,3.509-3.961,4.951
			c-2.991,1.443-6.104,1.736-6.801-0.174c-0.682-1.857,0.631-4.6,3.62-6.041C21.018,9.425,24.282,10.295,25.167,12.131z"/>
		<path opacity="0.4668" fill="#FFFFFF" d="M24.59,12.192c0.81,1.677-0.879,3.243-3.61,4.56c-2.732,1.317-5.575,1.563-6.22-0.18
			c-0.63-1.694,0.583-4.195,3.313-5.513C20.806,9.742,23.783,10.517,24.59,12.192z"/>
		<path opacity="0.4858" fill="#FFFFFF" d="M24.014,12.254c0.732,1.518-0.789,2.977-3.262,4.168
			c-2.472,1.192-5.047,1.389-5.638-0.185c-0.579-1.533,0.536-3.793,3.007-4.985C20.594,10.061,23.284,10.738,24.014,12.254z"/>
		<path opacity="0.5048" fill="#FFFFFF" d="M23.438,12.316c0.655,1.357-0.699,2.709-2.912,3.775c-2.213,1.067-4.52,1.215-5.057-0.19
			c-0.527-1.37,0.489-3.39,2.7-4.456C20.383,10.378,22.784,10.959,23.438,12.316z"/>
		<path opacity="0.5239" fill="#FFFFFF" d="M22.861,12.378c0.579,1.198-0.609,2.442-2.563,3.384
			c-1.954,0.942-3.991,1.041-4.476-0.195c-0.476-1.209,0.441-2.987,2.394-3.93C20.171,10.695,22.285,11.18,22.861,12.378z"/>
		<path opacity="0.5429" fill="#FFFFFF" d="M22.285,12.439c0.502,1.039-0.52,2.176-2.214,2.992
			c-1.694,0.817-3.463,0.867-3.893-0.201c-0.426-1.047,0.394-2.584,2.086-3.4C19.959,11.014,21.785,11.4,22.285,12.439z"/>
		<path opacity="0.5619" fill="#FFFFFF" d="M21.709,12.502c0.425,0.88-0.43,1.908-1.864,2.6s-2.936,0.692-3.312-0.207
			c-0.374-0.885,0.347-2.18,1.779-2.872C19.747,11.331,21.286,11.622,21.709,12.502z"/>
		<path opacity="0.581" fill="#FFFFFF" d="M21.133,12.563c0.349,0.721-0.34,1.642-1.516,2.208c-1.175,0.566-2.406,0.519-2.729-0.212
			c-0.323-0.724,0.299-1.778,1.473-2.345C19.536,11.648,20.786,11.843,21.133,12.563z"/>
		
			<ellipse transform="matrix(0.9006 -0.4346 0.4346 0.9006 -3.9565 9.5489)" opacity="0.6" fill="#FFFFFF" cx="18.899" cy="13.425" rx="1.84" ry="1.129"/>
	</g>
</g>
<g>
	<g>
		
			<linearGradient id="SVGID_15_" gradientUnits="userSpaceOnUse" x1="133.2627" y1="718.7168" x2="156.9642" y2="747.0842" gradientTransform="matrix(-1 0 0 -1 162.9766 743.75)">
			<stop  offset="0" style="stop-color:#F7C630"/>
			<stop  offset="0.1747" style="stop-color:#F9CB27"/>
			<stop  offset="0.4607" style="stop-color:#FDD70E"/>
			<stop  offset="0.5989" style="stop-color:#FFDE00"/>
			<stop  offset="0.989" style="stop-color:#FFF100"/>
		</linearGradient>
		<path fill="url(#SVGID_15_)" d="M25.278,42.527c3.358,0,15.12-25.201,15.12-27.722c0-0.928-0.753-1.68-1.68-1.68H11.837
			c-0.927,0-1.68,0.752-1.68,1.68C10.157,16.485,21.919,42.527,25.278,42.527z"/>
		
			<linearGradient id="SVGID_16_" gradientUnits="userSpaceOnUse" x1="132.7988" y1="717.9063" x2="154.001" y2="746.2356" gradientTransform="matrix(-1 0 0 -1 162.9766 743.75)">
			<stop  offset="0" style="stop-color:#F6C72E"/>
			<stop  offset="0.0056" style="stop-color:#F6C72E"/>
			<stop  offset="0.5989" style="stop-color:#FFE000"/>
			<stop  offset="0.989" style="stop-color:#FFF100"/>
			<stop  offset="1" style="stop-color:#FFF100"/>
		</linearGradient>
		<path fill="url(#SVGID_16_)" d="M24.938,41.491c3.211,0,14.452-24.107,14.452-26.519c0-0.888-0.719-1.607-1.605-1.607H12.092
			c-0.886,0-1.604,0.72-1.604,1.607C10.487,16.58,21.729,41.491,24.938,41.491z"/>
		
			<linearGradient id="SVGID_17_" gradientUnits="userSpaceOnUse" x1="132.5518" y1="717.0674" x2="151.2805" y2="745.1032" gradientTransform="matrix(-1 0 0 -1 162.9766 743.75)">
			<stop  offset="0" style="stop-color:#F6C92D"/>
			<stop  offset="0.0056" style="stop-color:#F6C92D"/>
			<stop  offset="0.5989" style="stop-color:#FFE007"/>
			<stop  offset="0.989" style="stop-color:#FFF109"/>
			<stop  offset="1" style="stop-color:#FFF109"/>
		</linearGradient>
		<path fill="url(#SVGID_17_)" d="M24.6,40.453c3.063,0,13.784-23.013,13.784-25.313c0-0.849-0.687-1.534-1.531-1.534H12.348
			c-0.846,0-1.531,0.686-1.531,1.534C10.816,16.674,21.538,40.453,24.6,40.453z"/>
		
			<linearGradient id="SVGID_18_" gradientUnits="userSpaceOnUse" x1="132.542" y1="716.2305" x2="148.8532" y2="743.7274" gradientTransform="matrix(-1 0 0 -1 162.9766 743.75)">
			<stop  offset="0" style="stop-color:#F7CB2B"/>
			<stop  offset="0.0056" style="stop-color:#F7CB2B"/>
			<stop  offset="0.5989" style="stop-color:#FFE015"/>
			<stop  offset="0.989" style="stop-color:#FFF121"/>
			<stop  offset="1" style="stop-color:#FFF121"/>
		</linearGradient>
		<path fill="url(#SVGID_18_)" d="M24.261,39.416c2.913,0,13.114-21.918,13.114-24.109c0-0.808-0.652-1.461-1.456-1.461H12.603
			c-0.804,0-1.457,0.653-1.457,1.461C11.146,16.768,21.347,39.416,24.261,39.416z"/>
		
			<linearGradient id="SVGID_19_" gradientUnits="userSpaceOnUse" x1="132.79" y1="715.4111" x2="146.7692" y2="742.1408" gradientTransform="matrix(-1 0 0 -1 162.9766 743.75)">
			<stop  offset="0" style="stop-color:#F6CB29"/>
			<stop  offset="0.0056" style="stop-color:#F6CB29"/>
			<stop  offset="0.5989" style="stop-color:#FFE120"/>
			<stop  offset="0.989" style="stop-color:#FFF22E"/>
			<stop  offset="1" style="stop-color:#FFF22E"/>
		</linearGradient>
		<path fill="url(#SVGID_19_)" d="M23.922,38.38c2.765,0,12.446-20.824,12.446-22.906c0-0.767-0.62-1.389-1.383-1.389H12.858
			c-0.764,0-1.383,0.622-1.383,1.389C11.476,16.861,21.156,38.38,23.922,38.38z"/>
		
			<linearGradient id="SVGID_20_" gradientUnits="userSpaceOnUse" x1="133.3535" y1="714.624" x2="145.1103" y2="740.3729" gradientTransform="matrix(-1 0 0 -1 162.9766 743.75)">
			<stop  offset="0" style="stop-color:#F7CD27"/>
			<stop  offset="0.0056" style="stop-color:#F7CD27"/>
			<stop  offset="0.5989" style="stop-color:#FFE229"/>
			<stop  offset="0.989" style="stop-color:#FFF23A"/>
			<stop  offset="1" style="stop-color:#FFF23A"/>
		</linearGradient>
		<path fill="url(#SVGID_20_)" d="M23.582,37.343c2.617,0,11.778-19.73,11.778-21.703c0-0.727-0.587-1.315-1.309-1.315H13.113
			c-0.723,0-1.309,0.589-1.309,1.315C11.805,16.955,20.966,37.343,23.582,37.343z"/>
		
			<linearGradient id="SVGID_21_" gradientUnits="userSpaceOnUse" x1="134.2246" y1="713.9121" x2="143.8922" y2="738.488" gradientTransform="matrix(-1 0 0 -1 162.9766 743.75)">
			<stop  offset="0" style="stop-color:#F6CE25"/>
			<stop  offset="0.0056" style="stop-color:#F6CE25"/>
			<stop  offset="0.5989" style="stop-color:#FFE22F"/>
			<stop  offset="0.989" style="stop-color:#FFF244"/>
			<stop  offset="1" style="stop-color:#FFF244"/>
		</linearGradient>
		<path fill="url(#SVGID_21_)" d="M23.243,36.306c2.469,0,11.109-18.636,11.109-20.499c0-0.687-0.554-1.242-1.234-1.242H13.369
			c-0.683,0-1.235,0.556-1.235,1.242C12.134,17.049,20.775,36.306,23.243,36.306z"/>
		
			<linearGradient id="SVGID_22_" gradientUnits="userSpaceOnUse" x1="135.2666" y1="713.3604" x2="142.9995" y2="736.5983" gradientTransform="matrix(-1 0 0 -1 162.9766 743.75)">
			<stop  offset="0" style="stop-color:#F6D023"/>
			<stop  offset="0.0056" style="stop-color:#F6D023"/>
			<stop  offset="0.5989" style="stop-color:#FFE336"/>
			<stop  offset="0.989" style="stop-color:#FFF24D"/>
			<stop  offset="1" style="stop-color:#FFF24D"/>
		</linearGradient>
		<path fill="url(#SVGID_22_)" d="M22.904,35.269c2.319,0,10.44-17.541,10.44-19.295c0-0.646-0.52-1.169-1.16-1.169H13.623
			c-0.64,0-1.159,0.523-1.159,1.169C12.464,17.143,20.585,35.269,22.904,35.269z"/>
		
			<linearGradient id="SVGID_23_" gradientUnits="userSpaceOnUse" x1="136.3975" y1="713.0098" x2="142.3654" y2="734.7678" gradientTransform="matrix(-1 0 0 -1 162.9766 743.75)">
			<stop  offset="0" style="stop-color:#F6D121"/>
			<stop  offset="0.0056" style="stop-color:#F6D121"/>
			<stop  offset="0.5989" style="stop-color:#FFE33D"/>
			<stop  offset="0.989" style="stop-color:#FFF356"/>
			<stop  offset="1" style="stop-color:#FFF356"/>
		</linearGradient>
		<path fill="url(#SVGID_23_)" d="M22.564,34.23c2.172,0,9.772-16.446,9.772-18.09c0-0.605-0.487-1.097-1.085-1.097H13.879
			c-0.6,0-1.086,0.491-1.086,1.097C12.793,17.237,20.395,34.23,22.564,34.23z"/>
		
			<linearGradient id="SVGID_24_" gradientUnits="userSpaceOnUse" x1="137.5732" y1="712.8643" x2="141.959" y2="733.0287" gradientTransform="matrix(-1 0 0 -1 162.9766 743.75)">
			<stop  offset="0" style="stop-color:#F6D31F"/>
			<stop  offset="0.0056" style="stop-color:#F6D31F"/>
			<stop  offset="0.5989" style="stop-color:#FFE442"/>
			<stop  offset="0.989" style="stop-color:#FFF35F"/>
			<stop  offset="1" style="stop-color:#FFF35F"/>
		</linearGradient>
		<path fill="url(#SVGID_24_)" d="M22.226,33.194c2.022,0,9.104-15.353,9.104-16.887c0-0.565-0.453-1.023-1.011-1.023H14.134
			c-0.559,0-1.011,0.458-1.011,1.023C13.123,17.331,20.204,33.194,22.226,33.194z"/>
		
			<linearGradient id="SVGID_25_" gradientUnits="userSpaceOnUse" x1="138.7607" y1="712.9287" x2="141.7556" y2="731.4139" gradientTransform="matrix(-1 0 0 -1 162.9766 743.75)">
			<stop  offset="0" style="stop-color:#F6D41C"/>
			<stop  offset="0.0056" style="stop-color:#F6D41C"/>
			<stop  offset="0.5989" style="stop-color:#FFE549"/>
			<stop  offset="0.989" style="stop-color:#FFF366"/>
			<stop  offset="1" style="stop-color:#FFF366"/>
		</linearGradient>
		<path fill="url(#SVGID_25_)" d="M21.887,32.157c1.874,0,8.436-14.258,8.436-15.683c0-0.525-0.421-0.95-0.938-0.95H14.39
			c-0.518,0-0.938,0.425-0.938,0.95C13.452,17.424,20.014,32.157,21.887,32.157z"/>
		
			<linearGradient id="SVGID_26_" gradientUnits="userSpaceOnUse" x1="139.9307" y1="713.1963" x2="141.7311" y2="729.9456" gradientTransform="matrix(-1 0 0 -1 162.9766 743.75)">
			<stop  offset="0" style="stop-color:#F6D519"/>
			<stop  offset="0.0056" style="stop-color:#F6D519"/>
			<stop  offset="0.5989" style="stop-color:#FFE54D"/>
			<stop  offset="0.989" style="stop-color:#FFF46E"/>
			<stop  offset="1" style="stop-color:#FFF46E"/>
		</linearGradient>
		<path fill="url(#SVGID_26_)" d="M21.547,31.12c1.727,0,7.768-13.164,7.768-14.479c0-0.483-0.388-0.877-0.863-0.877H14.645
			c-0.477,0-0.862,0.394-0.862,0.877C13.782,17.519,19.822,31.12,21.547,31.12z"/>
		
			<linearGradient id="SVGID_27_" gradientUnits="userSpaceOnUse" x1="141.0557" y1="713.6563" x2="141.8586" y2="728.6382" gradientTransform="matrix(-1 0 0 -1 162.9766 743.75)">
			<stop  offset="0" style="stop-color:#F6D716"/>
			<stop  offset="0.0056" style="stop-color:#F6D716"/>
			<stop  offset="0.5989" style="stop-color:#FFE653"/>
			<stop  offset="0.989" style="stop-color:#FFF475"/>
			<stop  offset="1" style="stop-color:#FFF476"/>
		</linearGradient>
		<path fill="url(#SVGID_27_)" d="M21.209,30.083c1.577,0,7.098-12.069,7.098-13.275c0-0.443-0.354-0.805-0.789-0.805H14.9
			c-0.436,0-0.789,0.361-0.789,0.805C14.111,17.612,19.632,30.083,21.209,30.083z"/>
		
			<linearGradient id="SVGID_28_" gradientUnits="userSpaceOnUse" x1="142.1074" y1="714.293" x2="142.1074" y2="727.5065" gradientTransform="matrix(-1 0 0 -1 162.9766 743.75)">
			<stop  offset="0.0056" style="stop-color:#F6D913"/>
			<stop  offset="1" style="stop-color:#FFF47C"/>
		</linearGradient>
		<path fill="url(#SVGID_28_)" d="M20.869,29.046c1.429,0,6.43-10.975,6.43-12.071c0-0.403-0.321-0.731-0.715-0.731H15.155
			c-0.395,0-0.715,0.328-0.715,0.731C14.44,17.706,19.441,29.046,20.869,29.046z"/>
	</g>
	<g>
		
			<linearGradient id="SVGID_29_" gradientUnits="userSpaceOnUse" x1="137.6992" y1="731.9824" x2="137.6992" y2="700.6871" gradientTransform="matrix(-1 0 0 -1 162.9766 743.75)">
			<stop  offset="0" style="stop-color:#CCA706"/>
			<stop  offset="1" style="stop-color:#E4A01B"/>
		</linearGradient>
		<path fill="url(#SVGID_29_)" d="M25.278,43.063c0.788,0,1.926-0.509,4.395-4.271c1.818-2.772,3.716-6.339,4.987-8.842
			c3.014-5.934,6.266-13.313,6.266-14.889c0-1.362-1.107-2.471-2.471-2.471H12.101c-1.363,0-2.471,1.108-2.471,2.471
			c0,1.268,3.648,9.344,6.264,14.575c1.846,3.693,3.569,6.815,4.983,9.029C23.352,42.54,24.489,43.063,25.278,43.063L25.278,43.063z
			 M40.102,15.062c0,2.471-11.529,27.178-14.823,27.178S10.454,16.708,10.454,15.062l0,0l0,0c0-0.909,0.738-1.647,0.994-1.647
			h26.355C39.366,13.414,40.102,14.152,40.102,15.062L40.102,15.062L40.102,15.062z"/>
	</g>
	<g opacity="0.6">
		<path fill="#FFFFFF" d="M25.253,42.091c0.748,0,1.831-0.483,4.175-4.058c1.727-2.633,3.529-6.021,4.738-8.399
			c2.863-5.637,5.952-12.647,5.952-14.144c0-1.294-1.053-2.348-2.348-2.348H12.734c-1.294,0-2.348,1.054-2.348,2.348
			c0,1.203,3.466,8.877,5.951,13.846c1.753,3.509,3.392,6.474,4.734,8.579C23.422,41.594,24.504,42.091,25.253,42.091L25.253,42.091
			z M39.335,15.49c0,2.347-10.953,25.818-14.082,25.818S11.17,17.055,11.17,15.49l0,0l0,0c0-0.864,0.701-1.565,0.945-1.565h25.036
			C38.636,13.925,39.335,14.626,39.335,15.49L39.335,15.49L39.335,15.49z"/>
	</g>
	<linearGradient id="SVGID_30_" gradientUnits="userSpaceOnUse" x1="21.707" y1="13.1914" x2="34.2988" y2="30.016">
		<stop  offset="0" style="stop-color:#FFFFFF"/>
		<stop  offset="1" style="stop-color:#FCEC76"/>
	</linearGradient>
	<path opacity="0.65" fill="url(#SVGID_30_)" d="M38.839,15.519c0.234,0,0.467,0.008,0.699,0.014c0.035-0.165,0.06-0.309,0.06-0.406
		c0-0.888-0.719-1.606-1.605-1.606H12.299c-0.886,0-1.604,0.719-1.604,1.606c0,0.809,2.846,7.517,6.083,13.983
		C19.176,21.313,28.14,15.519,38.839,15.519z"/>
</g>
</svg>
