<?xml version="1.0" encoding="utf-8"?>
<!-- Generator: Adobe Illustrator 13.0.1, SVG Export Plug-In  -->
<!DOCTYPE svg PUBLIC "-//W3C//DTD SVG 1.1//EN" "http://www.w3.org/Graphics/SVG/1.1/DTD/svg11.dtd" [
	<!ENTITY ns_flows "http://ns.adobe.com/Flows/1.0/">
]>
<svg version="1.1"
	 xmlns="http://www.w3.org/2000/svg" xmlns:xlink="http://www.w3.org/1999/xlink" xmlns:a="http://ns.adobe.com/AdobeSVGViewerExtensions/3.0/"
	 x="0px" y="0px" width="257px" height="125px" viewBox="0 0 257 125" enable-background="new 0 0 257 125" xml:space="preserve">
<defs>
</defs>
<g>
	<path fill="#7F7F7F" d="M256.512,116.978c0,3.96-3.24,7.2-7.2,7.2H8.105c-3.96,0-7.2-3.24-7.2-7.2V7.771c0-3.96,3.24-7.2,7.2-7.2
		h241.207c3.96,0,7.2,3.24,7.2,7.2V116.978z"/>
</g>
<g>
	<path fill="#FFFFFF" d="M254.539,116.445c0,3.168-2.592,5.76-5.76,5.76H8.638c-3.168,0-5.76-2.592-5.76-5.76V8.305
		c0-3.168,2.592-5.76,5.76-5.76h240.141c3.168,0,5.76,2.592,5.76,5.76V116.445z"/>
</g>
<g>
	<g>
		<linearGradient id="SVGID_1_" gradientUnits="userSpaceOnUse" x1="181.6289" y1="154.0352" x2="75.7886" y2="-29.2857">
			<stop  offset="0" style="stop-color:#CCA706"/>
			<stop  offset="1" style="stop-color:#E4A01B"/>
		</linearGradient>
		<path fill="url(#SVGID_1_)" d="M248.998,113.064c0,1.979-1.62,3.6-3.6,3.6H12.019c-1.98,0-3.6-1.62-3.6-3.6V11.685
			c0-1.979,1.62-3.6,3.6-3.6h233.378c1.98,0,3.6,1.62,3.6,3.6V113.064z"/>
	</g>
</g>
<g>
	<path fill="#FDD70E" d="M246.284,111.989c0,1.188-0.972,2.16-2.16,2.16H13.293c-1.188,0-2.16-0.972-2.16-2.16V13.16
		c0-1.188,0.972-2.16,2.16-2.16h230.831c1.188,0,2.16,0.972,2.16,2.16V111.989z"/>
</g>
<g>
	<path fill="#FEE357" d="M245.284,110.989c0,1.188-0.972,2.16-2.16,2.16H14.293c-1.188,0-2.16-0.972-2.16-2.16V14.16
		c0-1.188,0.972-2.16,2.16-2.16h228.831c1.188,0,2.16,0.972,2.16,2.16V110.989z"/>
</g>
<g>
	<path fill="#FEE76E" d="M244.284,109.989c0,1.188-0.972,2.16-2.16,2.16H15.293c-1.188,0-2.16-0.972-2.16-2.16V15.16
		c0-1.188,0.972-2.16,2.16-2.16h226.831c1.188,0,2.16,0.972,2.16,2.16V109.989z"/>
</g>
<g>
	<path fill="#FEEB86" d="M243.284,108.989c0,1.188-0.972,2.16-2.16,2.16H16.293c-1.188,0-2.16-0.972-2.16-2.16V16.16
		c0-1.188,0.972-2.16,2.16-2.16h224.831c1.188,0,2.16,0.972,2.16,2.16V108.989z"/>
</g>
<g>
	<path fill="#FEED92" d="M242.284,107.989c0,1.188-0.972,2.16-2.16,2.16H17.293c-1.188,0-2.16-0.972-2.16-2.16V17.16
		c0-1.188,0.972-2.16,2.16-2.16h222.831c1.188,0,2.16,0.972,2.16,2.16V107.989z"/>
</g>
<g>
	<path fill="#FEEF9F" d="M241.284,106.989c0,1.188-0.972,2.16-2.16,2.16H18.293c-1.188,0-2.16-0.972-2.16-2.16V18.16
		c0-1.188,0.972-2.16,2.16-2.16h220.831c1.188,0,2.16,0.972,2.16,2.16V106.989z"/>
</g>
<g>
	<path fill="#FEF1AB" d="M240.284,105.989c0,1.188-0.972,2.16-2.16,2.16H19.293c-1.188,0-2.16-0.972-2.16-2.16V19.16
		c0-1.188,0.972-2.16,2.16-2.16h218.831c1.188,0,2.16,0.972,2.16,2.16V105.989z"/>
</g>
<g>
	<path fill="#FEF3B6" d="M239.284,104.989c0,1.188-0.972,2.16-2.16,2.16H20.293c-1.188,0-2.16-0.972-2.16-2.16V20.16
		c0-1.188,0.972-2.16,2.16-2.16h216.831c1.188,0,2.16,0.972,2.16,2.16V104.989z"/>
</g>
<g>
	<path fill="#FEF5C3" d="M238.284,103.989c0,1.188-0.972,2.16-2.16,2.16H21.293c-1.188,0-2.16-0.972-2.16-2.16V21.16
		c0-1.188,0.972-2.16,2.16-2.16h214.831c1.188,0,2.16,0.972,2.16,2.16V103.989z"/>
</g>
<rect id="_x3C_Slice_x3E__10_" fill="none" width="257" height="125"/>
</svg>
