<?xml version="1.0" encoding="utf-8"?>
<!-- Generator: Adobe Illustrator 11.0, SVG Export Plug-In  -->
<!DOCTYPE svg PUBLIC "-//W3C//DTD SVG 1.0//EN"    "http://www.w3.org/TR/2001/REC-SVG-20010904/DTD/svg10.dtd" [
	<!ENTITY ns_flows "http://ns.adobe.com/Flows/1.0/">
	<!ENTITY ns_svg "http://www.w3.org/2000/svg">
	<!ENTITY ns_xlink "http://www.w3.org/1999/xlink">
]>
<svg  xmlns="&ns_svg;" xmlns:xlink="&ns_xlink;" xmlns:a="http://ns.adobe.com/AdobeSVGViewerExtensions/3.0/"
	 width="257" height="125" viewBox="0 0 257 125" xml:space="preserve">
	<defs>
	</defs>
	<g>
		<g>
			<path fill="#7F7F7F" d="M256.512207,116.977539c0,3.959961-3.239746,7.200195-7.200195,7.200195H8.10498
				c-3.960449,0-7.200195-3.240234-7.200195-7.200195V7.771484c0-3.959961,3.239746-7.200195,7.200195-7.200195h241.207031
				c3.960449,0,7.200195,3.240234,7.200195,7.200195V116.977539z"/>
		</g>
		<g>
			<path fill="#FFFFFF" d="M254.538574,116.445313c0,3.167969-2.591797,5.759766-5.759766,5.759766H8.637695
				c-3.167969,0-5.759766-2.591797-5.759766-5.759766V8.304688c0-3.167969,2.591797-5.759766,5.759766-5.759766h240.141113
				c3.167969,0,5.759766,2.591797,5.759766,5.759766V116.445313z"/>
		</g>
		<g>
			
			<g>
				<path fill="#7F7F7F" d="M248.997559,113.064453c0,1.979492-1.620117,3.599609-3.600098,3.599609H12.019043
					c-1.97998,0-3.600098-1.620117-3.600098-3.599609V11.68457c0-1.979492,1.620117-3.599609,3.600098-3.599609h233.378418
					c1.97998,0,3.600098,1.620117,3.600098,3.599609V113.064453z"/>
			</g>
		</g>
		<g>
			<path fill="#FFFFFF" d="M246.283691,111.789063c0,1.188477-0.972168,2.160156-2.160156,2.160156H13.292969
				c-1.187988,0-2.160156-0.97168-2.160156-2.160156V12.959961c0-1.188477,0.972168-2.160156,2.160156-2.160156h230.830566
				c1.187988,0,2.160156,0.97168,2.160156,2.160156V111.789063z"/>
		</g>
		<rect id="_x3C_Slice_x3E__2_" fill="none" width="257" height="125"/> 
	</g>
</svg>
