<?xml version="1.0" encoding="utf-8"?>
<!-- Generator: Adobe Illustrator 11.0, SVG Export Plug-In  -->
<!DOCTYPE svg PUBLIC "-//W3C//DTD SVG 1.0//EN"    "http://www.w3.org/TR/2001/REC-SVG-20010904/DTD/svg10.dtd" [
	<!ENTITY ns_flows "http://ns.adobe.com/Flows/1.0/">
	<!ENTITY ns_svg "http://www.w3.org/2000/svg">
	<!ENTITY ns_xlink "http://www.w3.org/1999/xlink">
]>
<svg  xmlns="&ns_svg;" xmlns:xlink="&ns_xlink;" xmlns:a="http://ns.adobe.com/AdobeSVGViewerExtensions/3.0/"
	 width="51" height="51" viewBox="-0.435547 -0.179688 51 51" xml:space="preserve">
	<defs>
	</defs>
	<g>
		<g>
			
			<g>
				<path fill="#F03FFF" d="M47,43.865234c0,1.742188-1.427734,3.166016-3.171875,3.166016H6.166016
					C4.421875,47.03125,3,45.607422,3,43.865234V6.201172C3,4.458008,4.421875,3.03125,6.166016,3.03125h37.662109
					C45.572266,3.03125,47,4.458008,47,6.201172V43.865234z"/>
			</g>
		</g>
		<rect y="0.026367" fill="none" width="50" height="50.000977"/> 
		<linearGradient id="XMLID_2_" gradientUnits="userSpaceOnUse" x1="39.444336" y1="50.046875" x2="10.553708" y2="0.006846">
			<stop  offset="0.003663" style="stop-color:#154A97"/>
			<stop  offset="1" style="stop-color:#0078B1"/>
			<a:midPointStop  offset="0.003663" style="stop-color:#154A97"/>
			<a:midPointStop  offset="0.5" style="stop-color:#154A97"/>
			<a:midPointStop  offset="1" style="stop-color:#0078B1"/>
		</linearGradient>
		<path fill="url(#XMLID_2_)" d="M47,43.859375c0,1.742188-1.427734,3.167969-3.171875,3.167969H6.166016
			C4.421875,47.027344,3,45.601563,3,43.859375V6.195313c0-1.742188,1.421875-3.168945,3.166016-3.168945h37.662109
			C45.572266,3.026367,47,4.453125,47,6.195313V43.859375z"/>
		<linearGradient id="XMLID_3_" gradientUnits="userSpaceOnUse" x1="38.839844" y1="48.99707" x2="11.161618" y2="1.056984">
			<stop  offset="0" style="stop-color:#6AE4FF"/>
			<stop  offset="0.102417" style="stop-color:#55CFF6"/>
			<stop  offset="0.241583" style="stop-color:#3FB9ED"/>
			<stop  offset="0.37619" style="stop-color:#32ACE7"/>
			<stop  offset="0.5" style="stop-color:#2EA8E5"/>
			<stop  offset="0.638198" style="stop-color:#32ACE7"/>
			<stop  offset="0.761477" style="stop-color:#3CB6EB"/>
			<stop  offset="0.879071" style="stop-color:#4FC9F3"/>
			<stop  offset="0.992525" style="stop-color:#68E2FE"/>
			<stop  offset="1" style="stop-color:#6AE4FF"/>
			<a:midPointStop  offset="0" style="stop-color:#6AE4FF"/>
			<a:midPointStop  offset="0.31" style="stop-color:#6AE4FF"/>
			<a:midPointStop  offset="0.5" style="stop-color:#2EA8E5"/>
			<a:midPointStop  offset="0.73" style="stop-color:#2EA8E5"/>
			<a:midPointStop  offset="1" style="stop-color:#6AE4FF"/>
		</linearGradient>
		<path fill="url(#XMLID_3_)" d="M45.899414,43.550781c0,1.308594-1.068359,2.375-2.375,2.375H6.475586
			c-1.304688,0-2.375-1.066406-2.375-2.375V6.501953c0-1.305664,1.070313-2.375,2.375-2.375h37.048828
			c1.306641,0,2.375,1.069336,2.375,2.375V43.550781z"/>
		<rect id="_x3C_Slice_x3E__1_" fill="none" width="50" height="50"/> 
		<path opacity="0.3" fill="#FFFFFF" d="M43.524414,4.126953H6.475586c-1.304688,0-2.375,1.069336-2.375,2.375v37.048828
			c0,1.308594,1.070313,2.375,2.375,2.375h37.048828c1.306641,0,2.375-1.066406,2.375-2.375V6.501953
			C45.899414,5.196289,44.831055,4.126953,43.524414,4.126953z M45.272461,42.996094
			c0,1.267578-1.035156,2.302734-2.302734,2.302734H7.030273c-1.267578,0-2.302734-1.035156-2.302734-2.302734v-35.9375
			c0-1.267578,1.035156-2.304688,2.302734-2.304688h35.939453c1.267578,0,2.302734,1.037109,2.302734,2.304688V42.996094z"/>
		<path opacity="0.2" fill="#FFFFFF" d="M45.899414,12.851563c0,0-28.693359-4.994141-41.798828,25.300781
			c0-9.488281,0-31.72168,0-31.72168c0-1.305664,1.070313-2.375977,2.375-2.375977h37.048828
			c1.306641,0,2.375,1.070313,2.375,2.375977V12.851563z"/>
		<g>
			
			<g>
				<g>
					<path fill="#FFFFFF" d="M35.061523,22.262695c0,0-1.746094-0.083008-3.626953-0.083008
						c-1.873047,0-3.665039,0.083008-3.665039,0.083008c0,0.542969,1.212891,0.993164,2.836914,1.109375v6.802734
						c-0.46875,0.041016-0.969727,0.130859-1.485352,0.283203c0,0-0.085938-0.464844-1.222656-0.505859
						c0,0-6.635742,0-7.508789-0.017578c0,0-3.973633,0.189453-3.973633-3.361328V15.621094
						c0,0-0.391602-4.104492,4.583008-4.104492c3.145508,0,7.03125,0,7.03125,0s0.789063,0.189453,0.961914,1.047852
						c0.061523,0.30957,4.058594,0.4375,5.413086,0.12793v-1.306641l-0.959961-0.133789
						C31.350586,9.551758,10.43457,0.107422,10.43457,15.679688l0.045898,12.944336c0,0-0.87793,9.954102,18.772461,6.551758
						c0,0,0.583008,0.121094,1.353516,0.1875v4.182617H18.988281v1.37793h11.618164v0.25
						c-0.161133,0.1875-0.262695,0.432617-0.262695,0.699219c0,0.594727,0.480469,1.070313,1.070313,1.070313
						c0.588867,0,1.073242-0.475586,1.073242-1.070313c0-0.266602-0.099609-0.511719-0.264648-0.699219v-0.25h3.774414v-1.37793
						h-3.774414v-4.160156c0.540039-0.042969,1.053711-0.152344,1.443359-0.373047v-4.538086
						c0,0-0.569336-0.196289-1.443359-0.288086V23.37207C33.847656,23.255859,35.061523,22.805664,35.061523,22.262695z"/>
					<rect x="24.710938" y="14.449219" fill="#FFFFFF" width="14.854492" height="6.1875"/> 
				</g>
			</g>
		</g>
	</g>
</svg>
