<?xml version="1.0" encoding="utf-8"?>
<!-- Generator: Adobe Illustrator 11.0, SVG Export Plug-In  -->
<!DOCTYPE svg PUBLIC "-//W3C//DTD SVG 1.0//EN"    "http://www.w3.org/TR/2001/REC-SVG-20010904/DTD/svg10.dtd" [
	<!ENTITY ns_flows "http://ns.adobe.com/Flows/1.0/">
	<!ENTITY ns_svg "http://www.w3.org/2000/svg">
	<!ENTITY ns_xlink "http://www.w3.org/1999/xlink">
]>
<svg  xmlns="&ns_svg;" xmlns:xlink="&ns_xlink;" xmlns:a="http://ns.adobe.com/AdobeSVGViewerExtensions/3.0/"
	 width="51" height="51" viewBox="-0.435547 -0.179688 51 51" xml:space="preserve">
	<defs>
	</defs>
	<g>
		<g>
			
			<g>
				<path fill="#F03FFF" d="M47,43.865234c0,1.742188-1.427734,3.166016-3.171875,3.166016H6.166016
					C4.421875,47.03125,3,45.607422,3,43.865234V6.201172C3,4.458008,4.421875,3.03125,6.166016,3.03125h37.662109
					C45.572266,3.03125,47,4.458008,47,6.201172V43.865234z"/>
			</g>
		</g>
		<rect y="0.026367" fill="none" width="50" height="50.000977"/> 
		<linearGradient id="XMLID_2_" gradientUnits="userSpaceOnUse" x1="39.444336" y1="50.046875" x2="10.553708" y2="0.006846">
			<stop  offset="0.003663" style="stop-color:#154A97"/>
			<stop  offset="1" style="stop-color:#0078B1"/>
			<a:midPointStop  offset="0.003663" style="stop-color:#154A97"/>
			<a:midPointStop  offset="0.5" style="stop-color:#154A97"/>
			<a:midPointStop  offset="1" style="stop-color:#0078B1"/>
		</linearGradient>
		<path fill="url(#XMLID_2_)" d="M47,43.859375c0,1.742188-1.427734,3.167969-3.171875,3.167969H6.166016
			C4.421875,47.027344,3,45.601563,3,43.859375V6.195313c0-1.742188,1.421875-3.168945,3.166016-3.168945h37.662109
			C45.572266,3.026367,47,4.453125,47,6.195313V43.859375z"/>
		<linearGradient id="XMLID_3_" gradientUnits="userSpaceOnUse" x1="38.838867" y1="48.99707" x2="11.16113" y2="1.05783">
			<stop  offset="0" style="stop-color:#6AE4FF"/>
			<stop  offset="0.102417" style="stop-color:#55CFF6"/>
			<stop  offset="0.241583" style="stop-color:#3FB9ED"/>
			<stop  offset="0.37619" style="stop-color:#32ACE7"/>
			<stop  offset="0.5" style="stop-color:#2EA8E5"/>
			<stop  offset="0.638198" style="stop-color:#32ACE7"/>
			<stop  offset="0.761477" style="stop-color:#3CB6EB"/>
			<stop  offset="0.879071" style="stop-color:#4FC9F3"/>
			<stop  offset="0.992525" style="stop-color:#68E2FE"/>
			<stop  offset="1" style="stop-color:#6AE4FF"/>
			<a:midPointStop  offset="0" style="stop-color:#6AE4FF"/>
			<a:midPointStop  offset="0.31" style="stop-color:#6AE4FF"/>
			<a:midPointStop  offset="0.5" style="stop-color:#2EA8E5"/>
			<a:midPointStop  offset="0.73" style="stop-color:#2EA8E5"/>
			<a:midPointStop  offset="1" style="stop-color:#6AE4FF"/>
		</linearGradient>
		<path fill="url(#XMLID_3_)" d="M45.899414,43.550781c0,1.308594-1.068359,2.375-2.375,2.375H6.475586
			c-1.304688,0-2.375-1.066406-2.375-2.375V6.501953c0-1.305664,1.070313-2.375,2.375-2.375h37.048828
			c1.306641,0,2.375,1.069336,2.375,2.375V43.550781z"/>
		<rect id="_x3C_Slice_x3E__1_" fill="none" width="50" height="50"/> 
		<path opacity="0.3" fill="#FFFFFF" d="M43.524414,4.126953H6.475586c-1.304688,0-2.375,1.069336-2.375,2.375v37.048828
			c0,1.308594,1.070313,2.375,2.375,2.375h37.048828c1.306641,0,2.375-1.066406,2.375-2.375V6.501953
			C45.899414,5.196289,44.831055,4.126953,43.524414,4.126953z M45.272461,42.996094
			c0,1.267578-1.035156,2.302734-2.302734,2.302734H7.030273c-1.267578,0-2.302734-1.035156-2.302734-2.302734v-35.9375
			c0-1.267578,1.035156-2.304688,2.302734-2.304688h35.939453c1.267578,0,2.302734,1.037109,2.302734,2.304688V42.996094z"/>
		<path opacity="0.2" fill="#FFFFFF" d="M45.899414,12.851563c0,0-28.693359-4.994141-41.798828,25.300781
			c0-9.488281,0-31.72168,0-31.72168c0-1.305664,1.070313-2.375977,2.375-2.375977h37.048828
			c1.306641,0,2.375,1.070313,2.375,2.375977V12.851563z"/>
		<g>
			
			<g>
				<g>
					<path fill="#FFFFFF" d="M33.288086,36.452148l5.708008,5.050781l-0.798828-7.577148
						c-1.023438-0.359375-2.099609-0.344727-3.03418,0.136719C34.229492,34.544922,33.591797,35.411133,33.288086,36.452148z"/>
					<path fill="#FFFFFF" d="M36.200195,19.128906L30.100586,7.290039c-0.008789,0.008789-0.014648,0.016602-0.026367,0.024414
						c-8.256836,6.699219-10.576172-1.740234-17.464844-0.097656l9.80957,19.017578
						c0.845703-0.400391,1.90332,0.586914,3.02832,1.631836c1.115234,1.033203,2.270508,2.107422,3.02832,1.717773
						c0.725586-0.373047,0.505859-1.873047,0.291992-3.321289c-0.222656-1.508789-0.453125-3.073242,0.470703-3.548828
						c0.951172-0.489258,2.160156,0.652344,3.332031,1.756836c0.941406,0.890625,2.009766,1.897461,2.557617,1.618164
						c0.52832-0.276367,0.408203-1.62207,0.293945-2.928711C35.272461,21.455078,35.116211,19.695313,36.200195,19.128906z"/>
					<path fill="#FFFFFF" d="M36.34082,23.270508c0.144531,1.618164,0.292969,3.293945-0.705078,3.807617
						c-1.041992,0.537109-2.321289-0.670898-3.556641-1.834961c-0.87793-0.834961-1.876953-1.774414-2.333008-1.540039
						c-0.419922,0.21582-0.239258,1.425781-0.067383,2.599609c0.248047,1.704102,0.533203,3.636719-0.697266,4.270508
						c-1.245117,0.641602-2.71875-0.725586-4.017578-1.93457c-0.791992-0.733398-1.686523-1.563477-2.049805-1.402344
						l0.035156,0.06543l9.729492,8.612305c0.370117-1.125,1.082031-2.053711,2.109375-2.580078
						c1.024414-0.529297,2.192383-0.572266,3.323242-0.217773l-1.363281-12.922852l-0.040039-0.075195
						C36.09375,20.450195,36.21875,21.880859,36.34082,23.270508z"/>
					<g>
						<path fill="#FFFFFF" d="M11.515625,38.349609c-0.423828,0.181641-0.624023,0.670898-0.444336,1.094727
							c0.182617,0.425781,0.671875,0.62207,1.095703,0.446289c4.092773-1.732422,9.324219-0.116211,13.946289,1.306641
							c4.276367,1.322266,7.973633,2.463867,10.56543,1.106445c0.408203-0.21582,0.566406-0.717773,0.352539-1.126953
							c-0.213867-0.411133-0.71875-0.568359-1.126953-0.352539c-1.984375,1.037109-5.537109-0.061523-9.298828-1.222656
							C21.713867,38.09375,16.169922,36.382813,11.515625,38.349609z"/>
					</g>
				</g>
			</g>
		</g>
	</g>
</svg>
