<?xml version="1.0" encoding="utf-8"?>
<!-- Generator: Adobe Illustrator 11.0, SVG Export Plug-In  -->
<!DOCTYPE svg PUBLIC "-//W3C//DTD SVG 1.0//EN"    "http://www.w3.org/TR/2001/REC-SVG-20010904/DTD/svg10.dtd" [
	<!ENTITY ns_flows "http://ns.adobe.com/Flows/1.0/">
	<!ENTITY ns_svg "http://www.w3.org/2000/svg">
	<!ENTITY ns_xlink "http://www.w3.org/1999/xlink">
]>
<svg  xmlns="&ns_svg;" xmlns:xlink="&ns_xlink;" xmlns:a="http://ns.adobe.com/AdobeSVGViewerExtensions/3.0/"
	 width="51" height="51" viewBox="-0.435547 -0.179688 51 51" xml:space="preserve">
	<defs>
	</defs>
	<g>
		<g>
			
			<g>
				<path fill="#F03FFF" d="M47,43.865234c0,1.742188-1.427734,3.166016-3.171875,3.166016H6.166016
					C4.421875,47.03125,3,45.607422,3,43.865234V6.201172C3,4.458008,4.421875,3.03125,6.166016,3.03125h37.662109
					C45.572266,3.03125,47,4.458008,47,6.201172V43.865234z"/>
			</g>
		</g>
		<rect y="0.026367" fill="none" width="50" height="50.000977"/> 
		<linearGradient id="XMLID_2_" gradientUnits="userSpaceOnUse" x1="39.444336" y1="50.046875" x2="10.55322" y2="0.006001">
			<stop  offset="0.003663" style="stop-color:#154A97"/>
			<stop  offset="1" style="stop-color:#0078B1"/>
			<a:midPointStop  offset="0.003663" style="stop-color:#154A97"/>
			<a:midPointStop  offset="0.5" style="stop-color:#154A97"/>
			<a:midPointStop  offset="1" style="stop-color:#0078B1"/>
		</linearGradient>
		<path fill="url(#XMLID_2_)" d="M47,43.859375c0,1.742188-1.427734,3.167969-3.171875,3.167969H6.166016
			C4.421875,47.027344,3,45.601563,3,43.859375V6.195313c0-1.742188,1.421875-3.168945,3.166016-3.168945h37.662109
			C45.572266,3.026367,47,4.453125,47,6.195313V43.859375z"/>
		<linearGradient id="XMLID_3_" gradientUnits="userSpaceOnUse" x1="38.839844" y1="48.99707" x2="11.161618" y2="1.056984">
			<stop  offset="0" style="stop-color:#6AE4FF"/>
			<stop  offset="0.102417" style="stop-color:#55CFF6"/>
			<stop  offset="0.241583" style="stop-color:#3FB9ED"/>
			<stop  offset="0.37619" style="stop-color:#32ACE7"/>
			<stop  offset="0.5" style="stop-color:#2EA8E5"/>
			<stop  offset="0.638198" style="stop-color:#32ACE7"/>
			<stop  offset="0.761477" style="stop-color:#3CB6EB"/>
			<stop  offset="0.879071" style="stop-color:#4FC9F3"/>
			<stop  offset="0.992525" style="stop-color:#68E2FE"/>
			<stop  offset="1" style="stop-color:#6AE4FF"/>
			<a:midPointStop  offset="0" style="stop-color:#6AE4FF"/>
			<a:midPointStop  offset="0.31" style="stop-color:#6AE4FF"/>
			<a:midPointStop  offset="0.5" style="stop-color:#2EA8E5"/>
			<a:midPointStop  offset="0.73" style="stop-color:#2EA8E5"/>
			<a:midPointStop  offset="1" style="stop-color:#6AE4FF"/>
		</linearGradient>
		<path fill="url(#XMLID_3_)" d="M45.899414,43.550781c0,1.308594-1.068359,2.375-2.375,2.375H6.475586
			c-1.304688,0-2.375-1.066406-2.375-2.375V6.501953c0-1.305664,1.070313-2.375,2.375-2.375h37.048828
			c1.306641,0,2.375,1.069336,2.375,2.375V43.550781z"/>
		<rect id="_x3C_Slice_x3E__1_" fill="none" width="50" height="50"/> 
		<path opacity="0.3" fill="#FFFFFF" d="M43.524414,4.126953H6.475586c-1.304688,0-2.375,1.069336-2.375,2.375v37.048828
			c0,1.308594,1.070313,2.375,2.375,2.375h37.048828c1.306641,0,2.375-1.066406,2.375-2.375V6.501953
			C45.899414,5.196289,44.831055,4.126953,43.524414,4.126953z M45.272461,42.996094
			c0,1.267578-1.035156,2.302734-2.302734,2.302734H7.030273c-1.267578,0-2.302734-1.035156-2.302734-2.302734v-35.9375
			c0-1.267578,1.035156-2.304688,2.302734-2.304688h35.939453c1.267578,0,2.302734,1.037109,2.302734,2.304688V42.996094z"/>
		<path opacity="0.2" fill="#FFFFFF" d="M45.899414,12.851563c0,0-28.693359-4.994141-41.798828,25.300781
			c0-9.488281,0-31.72168,0-31.72168c0-1.305664,1.070313-2.375977,2.375-2.375977h37.048828
			c1.306641,0,2.375,1.070313,2.375,2.375977V12.851563z"/>
		<g>
			
			<g>
				<g>
					<path fill="#FFFFFF" d="M36.024414,28.435059l-5.805664-10.09668v2.568848c0,0.162109-0.132813,0.294434-0.295898,0.294434
						H29.50293c1.37207,2.388672,2.849609,4.95752,4.160156,7.233398H36.024414z"/>
					<path fill="#FFFFFF" d="M32.908203,34.845703c-4.487305,0-11.160156,0-15.748047,0v2.048828h15.748047V34.845703z"/>
					<path fill="#FFFFFF" d="M13.71875,28.435059h2.364258c1.30957-2.275879,2.788086-4.844727,4.161133-7.233398h-0.419922
						c-0.165039,0-0.296875-0.132324-0.296875-0.294434v-2.570801L13.71875,28.435059z"/>
					<g>
						<path fill="#FFFFFF" d="M20.623047,16.478516v3.708496c0,0.131348,0.120117,0.242188,0.267578,0.242188h7.963867
							c0.147461,0,0.267578-0.11084,0.267578-0.242188v-3.708496H20.623047z"/>
						<rect x="20.623047" y="12.148926" fill="#FFFFFF" width="8.499023" height="3.676758"/> 
						<path fill="#FFFFFF" d="M29.12207,11.496582V7.76709c0-0.132324-0.120117-0.247559-0.267578-0.247559h-7.963867
							c-0.147461,0-0.267578,0.115234-0.267578,0.247559v3.729492H29.12207z M21.676758,9.148926
							c0-0.044922,0.035156-0.077637,0.083984-0.077637h1.165039c0.046875,0,0.085938,0.032715,0.085938,0.077637v1.064941
							c0,0.039551-0.039063,0.071289-0.085938,0.071289h-1.165039c-0.048828,0-0.083984-0.031738-0.083984-0.071289V9.148926z"/>
					</g>
					<g>
						<path fill="#FFFFFF" d="M7.618164,38.333496v3.708496c0,0.131348,0.118164,0.242188,0.265625,0.242188h7.964844
							c0.150391,0,0.268555-0.11084,0.268555-0.242188v-3.708496H7.618164z"/>
						<rect x="7.618164" y="34.00293" fill="#FFFFFF" width="8.499023" height="3.678223"/> 
						<path fill="#FFFFFF" d="M16.117188,33.351563V29.62207c0-0.132324-0.118164-0.247559-0.268555-0.247559H7.883789
							c-0.147461,0-0.265625,0.115234-0.265625,0.247559v3.729492H16.117188z M8.667969,31.003906
							c0-0.045898,0.039063-0.077637,0.087891-0.077637h1.164063c0.046875,0,0.084961,0.031738,0.084961,0.077637v1.064941
							c0,0.039551-0.038086,0.071289-0.084961,0.071289H8.755859c-0.048828,0-0.087891-0.031738-0.087891-0.071289V31.003906z"/>
					</g>
					<g>
						<path fill="#FFFFFF" d="M33.888672,38.286621v3.708496c0,0.133301,0.118164,0.243164,0.263672,0.243164h7.96582
							c0.147461,0,0.267578-0.109863,0.267578-0.243164v-3.708496H33.888672z"/>
						<rect x="33.888672" y="33.957031" fill="#FFFFFF" width="8.49707" height="3.677246"/> 
						<path fill="#FFFFFF" d="M42.385742,33.304688v-3.728516c0-0.132324-0.120117-0.248535-0.267578-0.248535h-7.96582
							c-0.145508,0-0.263672,0.116211-0.263672,0.248535v3.728516H42.385742z M34.938477,30.958008
							c0-0.045898,0.037109-0.077637,0.085938-0.077637h1.165039c0.046875,0,0.083984,0.031738,0.083984,0.077637v1.063965
							c0,0.040527-0.037109,0.073242-0.083984,0.073242h-1.165039c-0.048828,0-0.085938-0.032715-0.085938-0.073242V30.958008z"/>
					</g>
					<path fill="#FFFFFF" d="M7.614258,7.555176c0-0.027832,0.022461-0.040039,0.044922-0.026367l10.455078,6.037598
						c0.026367,0.015137,0.026367,0.038574,0,0.053711L7.65918,19.656738c-0.022461,0.014648-0.044922,0.001465-0.044922-0.026367
						V7.555176z"/>
				</g>
			</g>
		</g>
	</g>
</svg>
