<?xml version="1.0" encoding="utf-8"?>
<!-- Generator: Adobe Illustrator 11.0, SVG Export Plug-In  -->
<!DOCTYPE svg PUBLIC "-//W3C//DTD SVG 1.0//EN"    "http://www.w3.org/TR/2001/REC-SVG-20010904/DTD/svg10.dtd" [
	<!ENTITY ns_flows "http://ns.adobe.com/Flows/1.0/">
	<!ENTITY ns_svg "http://www.w3.org/2000/svg">
	<!ENTITY ns_xlink "http://www.w3.org/1999/xlink">
]>
<svg  xmlns="&ns_svg;" xmlns:xlink="&ns_xlink;" xmlns:a="http://ns.adobe.com/AdobeSVGViewerExtensions/3.0/"
	 width="50" height="50" viewBox="0 0 50 50" xml:space="preserve">
	<defs>
	</defs>
	<g>
		<g>
			
			<g>
				<path fill="#F03FFF" d="M47.117188,43.865234c0,1.742676-1.427734,3.166992-3.171875,3.166992H6.283203
					c-1.744141,0-3.166016-1.424316-3.166016-3.166992V6.201172c0-1.742676,1.421875-3.168945,3.166016-3.168945h37.662109
					c1.744141,0,3.171875,1.42627,3.171875,3.168945V43.865234z"/>
				<path fill="none" stroke="#FFFFFF" d="M47.117188,43.865234c0,1.742676-1.427734,3.166992-3.171875,3.166992H6.283203
					c-1.744141,0-3.166016-1.424316-3.166016-3.166992V6.201172c0-1.742676,1.421875-3.168945,3.166016-3.168945h37.662109
					c1.744141,0,3.171875,1.42627,3.171875,3.168945V43.865234z"/>
			</g>
		</g>
		<rect x="0.117188" y="0.081543" fill="none" width="50" height="49.999512"/> 
		<linearGradient id="XMLID_2_" gradientUnits="userSpaceOnUse" x1="39.561523" y1="50.101563" x2="10.670896" y2="0.061534">
			<stop  offset="0.003663" style="stop-color:#173059"/>
			<stop  offset="1" style="stop-color:#274280"/>
			<a:midPointStop  offset="0.003663" style="stop-color:#173059"/>
			<a:midPointStop  offset="0.5" style="stop-color:#173059"/>
			<a:midPointStop  offset="1" style="stop-color:#274280"/>
		</linearGradient>
		<path fill="url(#XMLID_2_)" d="M47.117188,43.914551c0,1.742188-1.427734,3.166992-3.169922,3.166992H6.283203
			c-1.742188,0-3.166016-1.424805-3.166016-3.166992V6.250488c0-1.743164,1.423828-3.168945,3.166016-3.168945h37.664063
			c1.742188,0,3.169922,1.425781,3.169922,3.168945V43.914551z"/>
		<linearGradient id="XMLID_3_" gradientUnits="userSpaceOnUse" x1="38.957031" y1="49.052734" x2="11.278317" y2="1.111802">
			<stop  offset="0" style="stop-color:#3154A4"/>
			<stop  offset="0.050469" style="stop-color:#2E509B"/>
			<stop  offset="0.210615" style="stop-color:#254685"/>
			<stop  offset="0.363445" style="stop-color:#204078"/>
			<stop  offset="0.5" style="stop-color:#1E3E73"/>
			<stop  offset="1" style="stop-color:#365BB2"/>
			<a:midPointStop  offset="0" style="stop-color:#3154A4"/>
			<a:midPointStop  offset="0.316176" style="stop-color:#3154A4"/>
			<a:midPointStop  offset="0.5" style="stop-color:#1E3E73"/>
			<a:midPointStop  offset="0.5" style="stop-color:#1E3E73"/>
			<a:midPointStop  offset="1" style="stop-color:#365BB2"/>
		</linearGradient>
		<path fill="url(#XMLID_3_)" d="M46.016602,43.605957c0,1.306641-1.067383,2.375-2.375977,2.375H6.592773
			c-1.307617,0-2.375977-1.068359-2.375977-2.375V6.557129c0-1.306641,1.068359-2.375,2.375977-2.375h37.047852
			c1.308594,0,2.375977,1.068359,2.375977,2.375V43.605957z"/>
		<path opacity="0.2" fill="#FFFFFF" d="M43.640625,4.182129H6.592773c-1.307617,0-2.375977,1.068359-2.375977,2.375v37.048828
			c0,1.306641,1.068359,2.375,2.375977,2.375h37.047852c1.308594,0,2.375977-1.068359,2.375977-2.375V6.557129
			C46.016602,5.250488,44.949219,4.182129,43.640625,4.182129z M45.389648,43.049316
			c0,1.267578-1.038086,2.304688-2.305664,2.304688H7.149414c-1.267578,0-2.304688-1.037109-2.304688-2.304688V7.11377
			c0-1.267578,1.037109-2.304688,2.304688-2.304688h35.93457c1.267578,0,2.305664,1.037109,2.305664,2.304688V43.049316z"/>
		<path fill="#FFFFFF" d="M36.599609,28.762207l-6.046875-10.517578v2.675781c0,0.168945-0.138672,0.306641-0.308594,0.306641
			h-0.4375c1.429688,2.488281,2.96875,5.164063,4.333984,7.535156H36.599609z"/>
		<path fill="#FFFFFF" d="M33.353516,35.439941c-4.673828,0-11.625,0-16.404297,0v2.133789h16.404297V35.439941z"/>
		<path fill="#FFFFFF" d="M13.365234,28.762207h2.462891c1.363281-2.371094,2.904297-5.046875,4.333984-7.535156h-0.4375
			c-0.171875,0-0.308594-0.137695-0.308594-0.306641v-2.677734L13.365234,28.762207z"/>
		<path fill="#FFFFFF" d="M20.556641,16.307129v3.863281c0,0.136719,0.125,0.251953,0.279297,0.251953h8.294922
			c0.154297,0,0.279297-0.115234,0.279297-0.251953v-3.863281H20.556641z"/>
		<rect x="20.556641" y="11.797363" fill="#FFFFFF" width="8.853516" height="3.830078"/> 
		<path fill="#FFFFFF" d="M29.410156,11.117676V7.23291c0-0.137695-0.125-0.257813-0.279297-0.257813h-8.294922
			c-0.154297,0-0.279297,0.120117-0.279297,0.257813v3.884766H29.410156z M21.654297,8.672363
			c0-0.046875,0.037109-0.081055,0.087891-0.081055h1.212891c0.048828,0,0.089844,0.03418,0.089844,0.081055v1.109375
			c0,0.041016-0.041016,0.074219-0.089844,0.074219h-1.212891c-0.050781,0-0.087891-0.033203-0.087891-0.074219V8.672363z"/>
		<path fill="#FFFFFF" d="M7.009766,39.072754v3.863281c0,0.136719,0.123047,0.251953,0.277344,0.251953h8.296875
			c0.15625,0,0.279297-0.115234,0.279297-0.251953v-3.863281H7.009766z"/>
		<rect x="7.009766" y="34.562012" fill="#FFFFFF" width="8.853516" height="3.831055"/> 
		<path fill="#FFFFFF" d="M15.863281,33.883301v-3.884766c0-0.137695-0.123047-0.257813-0.279297-0.257813H7.287109
			c-0.154297,0-0.277344,0.120117-0.277344,0.257813v3.884766H15.863281z M8.103516,31.437988
			c0-0.047852,0.041016-0.081055,0.091797-0.081055h1.212891c0.048828,0,0.087891,0.033203,0.087891,0.081055v1.109375
			c0,0.041016-0.039063,0.074219-0.087891,0.074219H8.195313c-0.050781,0-0.091797-0.033203-0.091797-0.074219V31.437988z"/>
		<path fill="#FFFFFF" d="M34.375,39.023926v3.863281c0,0.138672,0.123047,0.25293,0.275391,0.25293h8.296875
			c0.154297,0,0.279297-0.114258,0.279297-0.25293v-3.863281H34.375z"/>
		<rect x="34.375" y="34.51416" fill="#FFFFFF" width="8.851563" height="3.830078"/> 
		<path fill="#FFFFFF" d="M43.226563,33.834473v-3.883789c0-0.137695-0.125-0.258789-0.279297-0.258789h-8.296875
			c-0.152344,0-0.275391,0.121094-0.275391,0.258789v3.883789H43.226563z M35.46875,31.390137
			c0-0.047852,0.039063-0.081055,0.089844-0.081055h1.212891c0.048828,0,0.087891,0.033203,0.087891,0.081055v1.108398
			c0,0.041992-0.039063,0.076172-0.087891,0.076172h-1.212891c-0.050781,0-0.089844-0.03418-0.089844-0.076172V31.390137z"/>
		<path fill="#FFFFFF" d="M7.005859,7.012207c0-0.029297,0.023438-0.041992,0.046875-0.027344l10.890625,6.289063
			c0.027344,0.015625,0.027344,0.040039,0,0.055664L7.052734,19.617676c-0.023438,0.015625-0.046875,0.001953-0.046875-0.027344
			V7.012207z"/>
		<rect id="_x3C_Slice_x3E__2_" fill="none" width="50" height="50"/> 
	</g>
</svg>
