<?xml version="1.0" encoding="utf-8"?>
<!-- Generator: Adobe Illustrator 11.0, SVG Export Plug-In  -->
<!DOCTYPE svg PUBLIC "-//W3C//DTD SVG 1.0//EN"    "http://www.w3.org/TR/2001/REC-SVG-20010904/DTD/svg10.dtd" [
	<!ENTITY ns_flows "http://ns.adobe.com/Flows/1.0/">
	<!ENTITY ns_svg "http://www.w3.org/2000/svg">
	<!ENTITY ns_xlink "http://www.w3.org/1999/xlink">
]>
<svg  xmlns="&ns_svg;" xmlns:xlink="&ns_xlink;" xmlns:a="http://ns.adobe.com/AdobeSVGViewerExtensions/3.0/"
	 width="51" height="51" viewBox="-0.478516 -0.179688 51 51" xml:space="preserve">
	<defs>
	</defs>
	<g>
		<g>
			
			<g>
				<path fill="#F03FFF" d="M47,43.865234c0,1.742188-1.427734,3.166016-3.171875,3.166016H6.166016
					C4.421875,47.03125,3,45.607422,3,43.865234V6.201172C3,4.458008,4.421875,3.03125,6.166016,3.03125h37.662109
					C45.572266,3.03125,47,4.458008,47,6.201172V43.865234z"/>
			</g>
		</g>
		<rect y="0.026367" fill="none" width="50" height="50.000977"/> 
		<linearGradient id="XMLID_2_" gradientUnits="userSpaceOnUse" x1="39.444336" y1="50.046875" x2="10.55322" y2="0.006001">
			<stop  offset="0.003663" style="stop-color:#406E37"/>
			<stop  offset="1" style="stop-color:#319341"/>
			<a:midPointStop  offset="0.003663" style="stop-color:#406E37"/>
			<a:midPointStop  offset="0.5" style="stop-color:#406E37"/>
			<a:midPointStop  offset="1" style="stop-color:#319341"/>
		</linearGradient>
		<path fill="url(#XMLID_2_)" d="M47,43.859375c0,1.742188-1.427734,3.167969-3.171875,3.167969H6.166016
			C4.421875,47.027344,3,45.601563,3,43.859375V6.195313c0-1.742188,1.421875-3.168945,3.166016-3.168945h37.662109
			C45.572266,3.026367,47,4.453125,47,6.195313V43.859375z"/>
		<linearGradient id="XMLID_3_" gradientUnits="userSpaceOnUse" x1="38.839844" y1="48.99707" x2="11.161618" y2="1.056984">
			<stop  offset="0" style="stop-color:#80FF66"/>
			<stop  offset="0.042745" style="stop-color:#74F759"/>
			<stop  offset="0.163171" style="stop-color:#58E43B"/>
			<stop  offset="0.281347" style="stop-color:#43D725"/>
			<stop  offset="0.395237" style="stop-color:#37CF18"/>
			<stop  offset="0.5" style="stop-color:#33CC14"/>
			<stop  offset="0.619935" style="stop-color:#36CE18"/>
			<stop  offset="0.726931" style="stop-color:#41D522"/>
			<stop  offset="0.829013" style="stop-color:#52E035"/>
			<stop  offset="0.927432" style="stop-color:#6AF04E"/>
			<stop  offset="1" style="stop-color:#80FF66"/>
			<a:midPointStop  offset="0" style="stop-color:#80FF66"/>
			<a:midPointStop  offset="0.31" style="stop-color:#80FF66"/>
			<a:midPointStop  offset="0.5" style="stop-color:#33CC14"/>
			<a:midPointStop  offset="0.73" style="stop-color:#33CC14"/>
			<a:midPointStop  offset="1" style="stop-color:#80FF66"/>
		</linearGradient>
		<path fill="url(#XMLID_3_)" d="M45.899414,43.550781c0,1.308594-1.068359,2.375-2.375,2.375H6.475586
			c-1.304688,0-2.375-1.066406-2.375-2.375V6.501953c0-1.305664,1.070313-2.375,2.375-2.375h37.048828
			c1.306641,0,2.375,1.069336,2.375,2.375V43.550781z"/>
		<rect id="_x3C_Slice_x3E__1_" fill="none" width="50" height="50"/> 
		<path opacity="0.3" fill="#FFFFFF" d="M43.524414,4.126953H6.475586c-1.304688,0-2.375,1.069336-2.375,2.375v37.048828
			c0,1.308594,1.070313,2.375,2.375,2.375h37.048828c1.306641,0,2.375-1.066406,2.375-2.375V6.501953
			C45.899414,5.196289,44.831055,4.126953,43.524414,4.126953z M45.272461,42.996094
			c0,1.267578-1.035156,2.302734-2.302734,2.302734H7.030273c-1.267578,0-2.302734-1.035156-2.302734-2.302734v-35.9375
			c0-1.267578,1.035156-2.304688,2.302734-2.304688h35.939453c1.267578,0,2.302734,1.037109,2.302734,2.304688V42.996094z"/>
		<path opacity="0.2" fill="#FFFFFF" d="M45.899414,12.851563c0,0-28.693359-4.994141-41.798828,25.300781
			c0-9.488281,0-31.72168,0-31.72168c0-1.305664,1.070313-2.375977,2.375-2.375977h37.048828
			c1.306641,0,2.375,1.070313,2.375,2.375977V12.851563z"/>
		<g>
			
			<g>
				<g>
					<path fill="#FFFFFF" d="M35.981445,28.424805l-5.805664-10.097656v2.569336c0,0.162109-0.132813,0.293945-0.295898,0.293945
						h-0.419922c1.37207,2.388672,2.849609,4.958008,4.160156,7.234375H35.981445z"/>
					<path fill="#FFFFFF" d="M32.865234,34.834961c-4.487305,0-11.160156,0-15.748047,0v2.048828h15.748047V34.834961z"/>
					<path fill="#FFFFFF" d="M13.675781,28.424805h2.364258c1.30957-2.276367,2.788086-4.845703,4.161133-7.234375H19.78125
						c-0.165039,0-0.296875-0.131836-0.296875-0.293945v-2.571289L13.675781,28.424805z"/>
					<g>
						<path fill="#FFFFFF" d="M20.580078,16.467773v3.708984c0,0.130859,0.120117,0.242188,0.267578,0.242188h7.963867
							c0.147461,0,0.267578-0.111328,0.267578-0.242188v-3.708984H20.580078z"/>
						<rect x="20.580078" y="12.137695" fill="#FFFFFF" width="8.499023" height="3.677734"/> 
						<path fill="#FFFFFF" d="M29.079102,11.485352V7.756836c0-0.132813-0.120117-0.248047-0.267578-0.248047h-7.963867
							c-0.147461,0-0.267578,0.115234-0.267578,0.248047v3.728516H29.079102z M21.633789,9.137695
							c0-0.044922,0.035156-0.077148,0.083984-0.077148h1.165039c0.046875,0,0.085938,0.032227,0.085938,0.077148v1.06543
							c0,0.040039-0.039063,0.071289-0.085938,0.071289h-1.165039c-0.048828,0-0.083984-0.03125-0.083984-0.071289V9.137695z"/>
					</g>
					<g>
						<path fill="#FFFFFF" d="M7.575195,38.323242v3.708008c0,0.131836,0.118164,0.242188,0.265625,0.242188h7.964844
							c0.150391,0,0.268555-0.110352,0.268555-0.242188v-3.708008H7.575195z"/>
						<rect x="7.575195" y="33.992188" fill="#FFFFFF" width="8.499023" height="3.678711"/> 
						<path fill="#FFFFFF" d="M16.074219,33.34082v-3.729492c0-0.131836-0.118164-0.24707-0.268555-0.24707H7.84082
							c-0.147461,0-0.265625,0.115234-0.265625,0.24707v3.729492H16.074219z M8.625,30.993164
							c0-0.045898,0.039063-0.078125,0.087891-0.078125h1.164063c0.046875,0,0.084961,0.032227,0.084961,0.078125v1.064453
							c0,0.040039-0.038086,0.072266-0.084961,0.072266H8.712891c-0.048828,0-0.087891-0.032227-0.087891-0.072266V30.993164z"/>
					</g>
					<g>
						<path fill="#FFFFFF" d="M33.845703,38.276367v3.708008c0,0.133789,0.118164,0.243164,0.263672,0.243164h7.96582
							c0.147461,0,0.267578-0.109375,0.267578-0.243164v-3.708008H33.845703z"/>
						<rect x="33.845703" y="33.946289" fill="#FFFFFF" width="8.49707" height="3.677734"/> 
						<path fill="#FFFFFF" d="M42.342773,33.293945V29.56543c0-0.132813-0.120117-0.248047-0.267578-0.248047h-7.96582
							c-0.145508,0-0.263672,0.115234-0.263672,0.248047v3.728516H42.342773z M34.895508,30.947266
							c0-0.045898,0.037109-0.077148,0.085938-0.077148h1.165039c0.046875,0,0.083984,0.03125,0.083984,0.077148v1.063477
							c0,0.041016-0.037109,0.074219-0.083984,0.074219h-1.165039c-0.048828,0-0.085938-0.033203-0.085938-0.074219V30.947266z"/>
					</g>
				</g>
			</g>
		</g>
	</g>
</svg>
