<?xml version="1.0" encoding="utf-8"?>
<!-- Generator: Adobe Illustrator 11.0, SVG Export Plug-In  -->
<!DOCTYPE svg PUBLIC "-//W3C//DTD SVG 1.0//EN"    "http://www.w3.org/TR/2001/REC-SVG-20010904/DTD/svg10.dtd" [
	<!ENTITY ns_flows "http://ns.adobe.com/Flows/1.0/">
	<!ENTITY ns_svg "http://www.w3.org/2000/svg">
	<!ENTITY ns_xlink "http://www.w3.org/1999/xlink">
]>
<svg  xmlns="&ns_svg;" xmlns:xlink="&ns_xlink;" xmlns:a="http://ns.adobe.com/AdobeSVGViewerExtensions/3.0/"
	 width="51" height="51" viewBox="-0.435547 -0.179688 51 51" xml:space="preserve">
	<defs>
	</defs>
	<g>
		<g>
			
			<g>
				<path fill="#F03FFF" d="M47,43.865234c0,1.742188-1.427734,3.166016-3.171875,3.166016H6.166016
					C4.421875,47.03125,3,45.607422,3,43.865234V6.201172C3,4.458008,4.421875,3.03125,6.166016,3.03125h37.662109
					C45.572266,3.03125,47,4.458008,47,6.201172V43.865234z"/>
			</g>
		</g>
		<rect y="0.026367" fill="none" width="50" height="50.000977"/> 
		<linearGradient id="XMLID_2_" gradientUnits="userSpaceOnUse" x1="39.444336" y1="50.047363" x2="10.55322" y2="0.006489">
			<stop  offset="0.003663" style="stop-color:#154A97"/>
			<stop  offset="1" style="stop-color:#0078B1"/>
			<a:midPointStop  offset="0.003663" style="stop-color:#154A97"/>
			<a:midPointStop  offset="0.5" style="stop-color:#154A97"/>
			<a:midPointStop  offset="1" style="stop-color:#0078B1"/>
		</linearGradient>
		<path fill="url(#XMLID_2_)" d="M47,43.859375c0,1.742188-1.427734,3.167969-3.171875,3.167969H6.166016
			C4.421875,47.027344,3,45.601563,3,43.859375V6.195313c0-1.742188,1.421875-3.168945,3.166016-3.168945h37.662109
			C45.572266,3.026367,47,4.453125,47,6.195313V43.859375z"/>
		<linearGradient id="XMLID_3_" gradientUnits="userSpaceOnUse" x1="38.839844" y1="48.99707" x2="11.161618" y2="1.056984">
			<stop  offset="0" style="stop-color:#6AE4FF"/>
			<stop  offset="0.102417" style="stop-color:#55CFF6"/>
			<stop  offset="0.241583" style="stop-color:#3FB9ED"/>
			<stop  offset="0.37619" style="stop-color:#32ACE7"/>
			<stop  offset="0.5" style="stop-color:#2EA8E5"/>
			<stop  offset="0.638198" style="stop-color:#32ACE7"/>
			<stop  offset="0.761477" style="stop-color:#3CB6EB"/>
			<stop  offset="0.879071" style="stop-color:#4FC9F3"/>
			<stop  offset="0.992525" style="stop-color:#68E2FE"/>
			<stop  offset="1" style="stop-color:#6AE4FF"/>
			<a:midPointStop  offset="0" style="stop-color:#6AE4FF"/>
			<a:midPointStop  offset="0.31" style="stop-color:#6AE4FF"/>
			<a:midPointStop  offset="0.5" style="stop-color:#2EA8E5"/>
			<a:midPointStop  offset="0.73" style="stop-color:#2EA8E5"/>
			<a:midPointStop  offset="1" style="stop-color:#6AE4FF"/>
		</linearGradient>
		<path fill="url(#XMLID_3_)" d="M45.899414,43.550781c0,1.308594-1.068359,2.375-2.375,2.375H6.475586
			c-1.304688,0-2.375-1.066406-2.375-2.375V6.501953c0-1.305664,1.070313-2.375,2.375-2.375h37.048828
			c1.306641,0,2.375,1.069336,2.375,2.375V43.550781z"/>
		<rect id="_x3C_Slice_x3E__1_" fill="none" width="50" height="50"/> 
		<path opacity="0.3" fill="#FFFFFF" d="M43.524414,4.126953H6.475586c-1.304688,0-2.375,1.069336-2.375,2.375v37.048828
			c0,1.308594,1.070313,2.375,2.375,2.375h37.048828c1.306641,0,2.375-1.066406,2.375-2.375V6.501953
			C45.899414,5.196289,44.831055,4.126953,43.524414,4.126953z M45.272461,42.996094
			c0,1.267578-1.035156,2.302734-2.302734,2.302734H7.030273c-1.267578,0-2.302734-1.035156-2.302734-2.302734v-35.9375
			c0-1.267578,1.035156-2.304688,2.302734-2.304688h35.939453c1.267578,0,2.302734,1.037109,2.302734,2.304688V42.996094z"/>
		<path opacity="0.2" fill="#FFFFFF" d="M45.899414,12.851563c0,0-28.693359-4.994141-41.798828,25.300781
			c0-9.488281,0-31.72168,0-31.72168c0-1.305664,1.070313-2.375977,2.375-2.375977h37.048828
			c1.306641,0,2.375,1.070313,2.375,2.375977V12.851563z"/>
		<g>
			
			<g>
				<g>
					<path fill="#FFFFFF" d="M36.014648,28.881348L30.208008,18.78418v2.568848c0,0.162109-0.133789,0.293945-0.294922,0.293945
						h-0.423828c1.376953,2.38916,2.852539,4.95752,4.163086,7.234375H36.014648z"/>
					<path fill="#FFFFFF" d="M32.896484,35.291016c-4.488281,0-11.158203,0-15.74707,0v2.049316h15.74707V35.291016z"/>
					<path fill="#FFFFFF" d="M13.708008,28.881348h2.364258c1.308594-2.276855,2.788086-4.845215,4.161133-7.234375h-0.421875
						c-0.162109,0-0.293945-0.131836-0.293945-0.293945v-2.571289L13.708008,28.881348z"/>
					<g>
						<path fill="#FFFFFF" d="M20.613281,16.923828v3.708496c0,0.132324,0.119141,0.242676,0.264648,0.242676h7.966797
							c0.148438,0,0.268555-0.110352,0.268555-0.242676v-3.708496H20.613281z"/>
						<rect x="20.613281" y="12.59375" fill="#FFFFFF" width="8.5" height="3.677246"/> 
						<path fill="#FFFFFF" d="M29.113281,11.941895V8.212891c0-0.132324-0.120117-0.248047-0.268555-0.248047H20.87793
							c-0.145508,0-0.264648,0.115723-0.264648,0.248047v3.729004H29.113281z M21.664063,9.595215
							c0-0.046387,0.039063-0.078125,0.086914-0.078125h1.164063c0.047852,0,0.083008,0.031738,0.083008,0.078125v1.063965
							c0,0.040039-0.035156,0.072266-0.083008,0.072266h-1.164063c-0.047852,0-0.086914-0.032227-0.086914-0.072266V9.595215z"/>
					</g>
					<g>
						<path fill="#FFFFFF" d="M7.606445,38.777832v3.708496c0,0.132324,0.120117,0.242188,0.267578,0.242188h7.961914
							c0.150391,0,0.268555-0.109863,0.268555-0.242188v-3.708496H7.606445z"/>
						<rect x="7.606445" y="34.44873" fill="#FFFFFF" width="8.498047" height="3.676758"/> 
						<path fill="#FFFFFF" d="M16.104492,33.796387v-3.728516c0-0.132813-0.118164-0.248535-0.268555-0.248535H7.874023
							c-0.147461,0-0.267578,0.115723-0.267578,0.248535v3.728516H16.104492z M8.658203,31.449707
							c0-0.045898,0.039063-0.077637,0.086914-0.077637h1.166016c0.042969,0,0.083008,0.031738,0.083008,0.077637v1.064453
							c0,0.040039-0.040039,0.071777-0.083008,0.071777H8.745117c-0.047852,0-0.086914-0.031738-0.086914-0.071777V31.449707z"/>
					</g>
					<g>
						<path fill="#FFFFFF" d="M33.875,38.731934v3.709473c0,0.131348,0.118164,0.242188,0.266602,0.242188h7.964844
							c0.150391,0,0.268555-0.11084,0.268555-0.242188v-3.709473H33.875z"/>
						<rect x="33.875" y="34.402832" fill="#FFFFFF" width="8.5" height="3.677246"/> 
						<path fill="#FFFFFF" d="M42.375,33.750977v-3.729004c0-0.132813-0.118164-0.248535-0.268555-0.248535h-7.964844
							c-0.148438,0-0.266602,0.115723-0.266602,0.248535v3.729004H42.375z M34.926758,31.403809
							c0-0.045898,0.040039-0.077637,0.088867-0.077637h1.162109c0.046875,0,0.083984,0.031738,0.083984,0.077637v1.064453
							c0,0.040039-0.037109,0.071777-0.083984,0.071777h-1.162109c-0.048828,0-0.088867-0.031738-0.088867-0.071777V31.403809z"/>
					</g>
					<path fill="#FFFFFF" d="M31.873047,8.080566c0-0.028809,0.020508-0.040527,0.046875-0.026855L42.375,14.09082
						c0.026367,0.014648,0.026367,0.038574,0,0.053711l-10.455078,6.036133c-0.026367,0.015137-0.046875,0.003418-0.046875-0.025879
						V8.080566z"/>
				</g>
			</g>
		</g>
	</g>
</svg>
