<?xml version="1.0" encoding="utf-8"?>
<!-- Generator: Adobe Illustrator 11.0, SVG Export Plug-In  -->
<!DOCTYPE svg PUBLIC "-//W3C//DTD SVG 1.0//EN"    "http://www.w3.org/TR/2001/REC-SVG-20010904/DTD/svg10.dtd" [
	<!ENTITY ns_flows "http://ns.adobe.com/Flows/1.0/">
	<!ENTITY ns_svg "http://www.w3.org/2000/svg">
	<!ENTITY ns_xlink "http://www.w3.org/1999/xlink">
]>
<svg  xmlns="&ns_svg;" xmlns:xlink="&ns_xlink;" xmlns:a="http://ns.adobe.com/AdobeSVGViewerExtensions/3.0/"
	 width="50" height="50" viewBox="0 0 50 50" xml:space="preserve">
	<defs>
	</defs>
	<g>
		<g>
			
			<g>
				<path fill="#F03FFF" d="M47.117188,43.865234c0,1.742188-1.427734,3.166992-3.171875,3.166992H6.283203
					c-1.744141,0-3.166016-1.424805-3.166016-3.166992V6.201172c0-1.742188,1.421875-3.168945,3.166016-3.168945h37.662109
					c1.744141,0,3.171875,1.426758,3.171875,3.168945V43.865234z"/>
				<path fill="none" stroke="#FFFFFF" d="M47.117188,43.865234c0,1.742188-1.427734,3.166992-3.171875,3.166992H6.283203
					c-1.744141,0-3.166016-1.424805-3.166016-3.166992V6.201172c0-1.742188,1.421875-3.168945,3.166016-3.168945h37.662109
					c1.744141,0,3.171875,1.426758,3.171875,3.168945V43.865234z"/>
			</g>
		</g>
		<rect x="0.117188" y="0.052734" fill="none" width="50" height="50"/> 
		<linearGradient id="XMLID_2_" gradientUnits="userSpaceOnUse" x1="39.561523" y1="50.073242" x2="10.670896" y2="0.033214">
			<stop  offset="0.003663" style="stop-color:#173059"/>
			<stop  offset="1" style="stop-color:#274280"/>
			<a:midPointStop  offset="0.003663" style="stop-color:#173059"/>
			<a:midPointStop  offset="0.5" style="stop-color:#173059"/>
			<a:midPointStop  offset="1" style="stop-color:#274280"/>
		</linearGradient>
		<path fill="url(#XMLID_2_)" d="M47.117188,43.886719c0,1.744141-1.427734,3.166016-3.169922,3.166016H6.283203
			c-1.742188,0-3.166016-1.421875-3.166016-3.166016V6.224609c0-1.744141,1.423828-3.171875,3.166016-3.171875h37.664063
			c1.742188,0,3.169922,1.427734,3.169922,3.171875V43.886719z"/>
		<linearGradient id="XMLID_3_" gradientUnits="userSpaceOnUse" x1="38.956055" y1="49.023438" x2="11.277341" y2="1.082505">
			<stop  offset="0" style="stop-color:#3154A4"/>
			<stop  offset="0.050469" style="stop-color:#2E509B"/>
			<stop  offset="0.210615" style="stop-color:#254685"/>
			<stop  offset="0.363445" style="stop-color:#204078"/>
			<stop  offset="0.5" style="stop-color:#1E3E73"/>
			<stop  offset="1" style="stop-color:#365BB2"/>
			<a:midPointStop  offset="0" style="stop-color:#3154A4"/>
			<a:midPointStop  offset="0.316176" style="stop-color:#3154A4"/>
			<a:midPointStop  offset="0.5" style="stop-color:#1E3E73"/>
			<a:midPointStop  offset="0.5" style="stop-color:#1E3E73"/>
			<a:midPointStop  offset="1" style="stop-color:#365BB2"/>
		</linearGradient>
		<path fill="url(#XMLID_3_)" d="M46.016602,43.576172c0,1.308594-1.070313,2.376953-2.375977,2.376953H6.592773
			c-1.306641,0-2.375977-1.068359-2.375977-2.376953V6.529297c0-1.306641,1.069336-2.376953,2.375977-2.376953h37.047852
			c1.305664,0,2.375977,1.070313,2.375977,2.376953V43.576172z"/>
		<path opacity="0.2" fill="#FFFFFF" d="M43.640625,4.152344H6.592773c-1.306641,0-2.375977,1.070313-2.375977,2.376953v37.046875
			c0,1.308594,1.069336,2.376953,2.375977,2.376953h37.047852c1.305664,0,2.375977-1.068359,2.375977-2.376953V6.529297
			C46.016602,5.222656,44.946289,4.152344,43.640625,4.152344z M45.388672,43.023438
			c0,1.267578-1.035156,2.302734-2.302734,2.302734H7.146484c-1.267578,0-2.302734-1.035156-2.302734-2.302734v-35.9375
			c0-1.267578,1.035156-2.304688,2.302734-2.304688h35.939453c1.267578,0,2.302734,1.037109,2.302734,2.304688V43.023438z"/>
		<line fill="#FFFFFF" enable-background="new    " x1="32.333984" y1="31.69043" x2="17.899414" y2="17.249023"/>
		<path fill="#FFFFFF" d="M25.115234,6.974609c-9.964844,0-18.076172,8.111328-18.076172,18.080078
			s8.111328,18.076172,18.076172,18.076172c9.96875,0,18.080078-8.107422,18.080078-18.076172
			S35.083984,6.974609,25.115234,6.974609z M25.119141,40.371094c-8.462891,0-15.322266-6.859375-15.322266-15.318359
			S16.65625,9.732422,25.119141,9.732422c8.457031,0,15.318359,6.861328,15.318359,15.320313
			S33.576172,40.371094,25.119141,40.371094z"/>
		<path fill="#FFFFFF" d="M27.443359,25.052734L33.5,18.998047c0.640625-0.644531,0.640625-1.683594,0-2.326172
			c-0.644531-0.640625-1.683594-0.640625-2.326172,0l-6.056641,6.054688L19.0625,16.669922
			c-0.644531-0.640625-1.681641-0.640625-2.326172,0c-0.642578,0.642578-0.642578,1.681641,0,2.326172l6.054688,6.056641
			l-6.056641,6.054688c-0.642578,0.644531-0.642578,1.681641,0,2.326172c0.640625,0.642578,1.681641,0.642578,2.326172,0
			l6.056641-6.054688l6.054688,6.056641c0.644531,0.642578,1.683594,0.642578,2.326172,0
			c0.640625-0.642578,0.640625-1.683594,0-2.324219L27.443359,25.052734z"/>
		<rect id="_x3C_Slice_x3E__2_" fill="none" width="50" height="50"/> 
	</g>
</svg>
