<?xml version="1.0" encoding="utf-8"?>
<!-- Generator: Adobe Illustrator 13.0.1, SVG Export Plug-In . SVG Version: 6.00 Build 14948)  -->
<!DOCTYPE svg PUBLIC "-//W3C//DTD SVG 1.1//EN" "http://www.w3.org/Graphics/SVG/1.1/DTD/svg11.dtd">
<svg version="1.1" id="Layer_1" xmlns="http://www.w3.org/2000/svg" xmlns:xlink="http://www.w3.org/1999/xlink" x="0px" y="0px"
	 width="50px" height="50px" viewBox="0 0 50 50" enable-background="new 0 0 50 50" xml:space="preserve">
<rect fill="none" width="50" height="50"/>
<rect id="_x3C_Slice_x3E__28_" y="0" fill="none" width="50" height="50"/>
<linearGradient id="SVGID_1_" gradientUnits="userSpaceOnUse" x1="41.3223" y1="53.2744" x2="8.6748" y2="-3.2726">
	<stop  offset="3.663000e-003" style="stop-color:#154A97"/>
	<stop  offset="1" style="stop-color:#0078B1"/>
</linearGradient>
<path fill="url(#SVGID_1_)" d="M49.86,46.28c0,1.97-1.61,3.58-3.58,3.58H3.72c-1.97,0-3.58-1.61-3.58-3.58V3.72
	c0-1.97,1.61-3.58,3.58-3.58h42.56c1.97,0,3.58,1.61,3.58,3.58V46.28z"/>
<linearGradient id="SVGID_2_" gradientUnits="userSpaceOnUse" x1="40.6377" y1="52.0879" x2="9.3613" y2="-2.0844">
	<stop  offset="0" style="stop-color:#6AE4FF"/>
	<stop  offset="0.1024" style="stop-color:#55CFF6"/>
	<stop  offset="0.2416" style="stop-color:#3FB9ED"/>
	<stop  offset="0.3762" style="stop-color:#32ACE7"/>
	<stop  offset="0.5" style="stop-color:#2EA8E5"/>
	<stop  offset="0.6382" style="stop-color:#32ACE7"/>
	<stop  offset="0.7615" style="stop-color:#3CB6EB"/>
	<stop  offset="0.8791" style="stop-color:#4FC9F3"/>
	<stop  offset="0.9925" style="stop-color:#68E2FE"/>
	<stop  offset="1" style="stop-color:#6AE4FF"/>
</linearGradient>
<path fill="url(#SVGID_2_)" d="M48.62,45.93c0,1.48-1.21,2.68-2.68,2.68H4.07c-1.47,0-2.68-1.21-2.68-2.68V4.07
	c0-1.48,1.21-2.68,2.68-2.68h41.87c1.48,0,2.68,1.21,2.68,2.68V45.93z"/>
<linearGradient id="SVGID_3_" gradientUnits="userSpaceOnUse" x1="12.189" y1="-2.3804" x2="34.0612" y2="38.5238">
	<stop  offset="0" style="stop-color:#9CE9FC"/>
	<stop  offset="1" style="stop-color:#3CB5F0"/>
</linearGradient>
<path fill="url(#SVGID_3_)" d="M48.62,11.24c0,0-32.42-5.64-47.23,28.59c0-10.72,0-35.85,0-35.85c0-1.47,1.21-2.68,2.68-2.68h41.87
	c1.48,0,2.68,1.21,2.68,2.68V11.24z"/>
<linearGradient id="SVGID_4_" gradientUnits="userSpaceOnUse" x1="2.7783" y1="2.7808" x2="47.2002" y2="47.2021">
	<stop  offset="0" style="stop-color:#BCEEFC"/>
	<stop  offset="1" style="stop-color:#95E9FC"/>
</linearGradient>
<path fill="url(#SVGID_4_)" d="M45.93,1.38H4.07c-1.47,0-2.68,1.21-2.68,2.68v41.87c0,1.48,1.21,2.68,2.68,2.68h41.87
	c1.48,0,2.68-1.21,2.68-2.68V4.07C48.62,2.59,47.41,1.38,45.93,1.38z M47.91,45.31c0,1.43-1.17,2.6-2.6,2.6H4.69
	c-1.43,0-2.6-1.17-2.6-2.6V4.7c0-1.43,1.17-2.6,2.6-2.6H45.3c1.43,0,2.6,1.17,2.6,2.6V45.31z"/>
<linearGradient id="SVGID_5_" gradientUnits="userSpaceOnUse" x1="29.6143" y1="25.1606" x2="18.124" y2="5.259">
	<stop  offset="3.663000e-003" style="stop-color:#154A97"/>
	<stop  offset="1" style="stop-color:#0078B1"/>
</linearGradient>
<rect x="6.48" y="11.98" fill="url(#SVGID_5_)" width="34.77" height="6.46"/>
<path fill="#FFFFFF" d="M41.3,7.91h-2.15V5.78c0-0.31-0.25-0.57-0.56-0.57c-0.31,0-0.57,0.25-0.57,0.57v2.13h-3.04V5.78
	c0-0.31-0.25-0.56-0.57-0.56c-0.31,0-0.56,0.25-0.56,0.56v2.13h-3.04V5.78c0-0.31-0.25-0.57-0.57-0.57s-0.57,0.25-0.57,0.57v2.13
	h-3.04V5.78c0-0.31-0.25-0.57-0.57-0.57c-0.31,0-0.56,0.25-0.56,0.57v2.13h-3.04V5.78c0-0.31-0.25-0.57-0.56-0.57
	s-0.56,0.25-0.56,0.57v2.13h-3.04V5.78c0-0.31-0.25-0.56-0.56-0.56c-0.31,0-0.56,0.25-0.56,0.56v2.13h-3.04V5.78
	c0-0.31-0.25-0.57-0.57-0.57s-0.56,0.25-0.56,0.57v2.13H9.98V5.78c0-0.31-0.25-0.57-0.57-0.57c-0.31,0-0.56,0.25-0.56,0.57v2.13H6.7
	c-0.62,0-1.13,0.51-1.13,1.13v30.65c0,0.62,0.51,1.13,1.13,1.13H41.3c0.62,0,1.13-0.51,1.13-1.13V9.04
	C42.44,8.42,41.93,7.91,41.3,7.91z M12.84,38.8c0,0.19-0.16,0.35-0.35,0.35H7.4c-0.19,0-0.35-0.16-0.35-0.35v-5.08
	c0-0.19,0.16-0.35,0.35-0.35h5.08c0.19,0,0.35,0.16,0.35,0.35V38.8z M12.84,31.78c0,0.19-0.16,0.35-0.35,0.35H7.4
	c-0.19,0-0.35-0.16-0.35-0.35v-5.08c0-0.19,0.16-0.35,0.35-0.35h5.08c0.19,0,0.35,0.16,0.35,0.35V31.78z M12.84,24.75
	c0,0.19-0.16,0.35-0.35,0.35H7.4c-0.19,0-0.35-0.16-0.35-0.35v-5.08c0-0.19,0.16-0.35,0.35-0.35h5.08c0.19,0,0.35,0.16,0.35,0.35
	V24.75z M12.84,17.72c0,0.19-0.16,0.35-0.35,0.35H7.4c-0.19,0-0.35-0.16-0.35-0.35v-5.08c0-0.19,0.16-0.35,0.35-0.35h5.08
	c0.19,0,0.35,0.16,0.35,0.35V17.72z M19.87,38.8c0,0.19-0.16,0.35-0.35,0.35h-5.08c-0.19,0-0.35-0.16-0.35-0.35v-5.08
	c0-0.19,0.16-0.35,0.35-0.35h5.08c0.19,0,0.35,0.16,0.35,0.35V38.8z M19.87,31.78c0,0.19-0.16,0.35-0.35,0.35h-5.08
	c-0.19,0-0.35-0.16-0.35-0.35v-5.08c0-0.19,0.16-0.35,0.35-0.35h5.08c0.19,0,0.35,0.16,0.35,0.35V31.78z M19.87,24.75
	c0,0.19-0.16,0.35-0.35,0.35h-5.08c-0.19,0-0.35-0.16-0.35-0.35v-5.08c0-0.19,0.16-0.35,0.35-0.35h5.08c0.19,0,0.35,0.16,0.35,0.35
	V24.75z M19.87,17.72c0,0.19-0.16,0.35-0.35,0.35h-5.08c-0.19,0-0.35-0.16-0.35-0.35v-5.08c0-0.19,0.16-0.35,0.35-0.35h5.08
	c0.19,0,0.35,0.16,0.35,0.35V17.72z M26.89,38.8c0,0.19-0.16,0.35-0.35,0.35h-5.08c-0.19,0-0.35-0.16-0.35-0.35v-5.08
	c0-0.19,0.16-0.35,0.35-0.35h5.08c0.19,0,0.35,0.16,0.35,0.35V38.8z M26.89,31.78c0,0.19-0.16,0.35-0.35,0.35h-5.08
	c-0.19,0-0.35-0.16-0.35-0.35v-5.08c0-0.19,0.16-0.35,0.35-0.35h5.08c0.19,0,0.35,0.16,0.35,0.35V31.78z M26.89,24.75
	c0,0.19-0.16,0.35-0.35,0.35h-5.08c-0.19,0-0.35-0.16-0.35-0.35v-5.08c0-0.19,0.16-0.35,0.35-0.35h5.08c0.19,0,0.35,0.16,0.35,0.35
	V24.75z M26.89,17.72c0,0.19-0.16,0.35-0.35,0.35h-5.08c-0.19,0-0.35-0.16-0.35-0.35v-5.08c0-0.19,0.16-0.35,0.35-0.35h5.08
	c0.19,0,0.35,0.16,0.35,0.35V17.72z M33.92,38.8c0,0.19-0.16,0.35-0.35,0.35h-5.08c-0.19,0-0.35-0.16-0.35-0.35v-5.08
	c0-0.19,0.16-0.35,0.35-0.35h5.08c0.19,0,0.35,0.16,0.35,0.35V38.8z M33.92,31.78c0,0.19-0.16,0.35-0.35,0.35h-5.08
	c-0.19,0-0.35-0.16-0.35-0.35v-5.08c0-0.19,0.16-0.35,0.35-0.35h5.08c0.19,0,0.35,0.16,0.35,0.35V31.78z M33.92,24.75
	c0,0.19-0.16,0.35-0.35,0.35h-5.08c-0.19,0-0.35-0.16-0.35-0.35v-5.08c0-0.19,0.16-0.35,0.35-0.35h5.08c0.19,0,0.35,0.16,0.35,0.35
	V24.75z M33.92,17.72c0,0.19-0.16,0.35-0.35,0.35h-5.08c-0.19,0-0.35-0.16-0.35-0.35v-5.08c0-0.19,0.16-0.35,0.35-0.35h5.08
	c0.19,0,0.35,0.16,0.35,0.35V17.72z M40.95,38.8c0,0.19-0.16,0.35-0.35,0.35h-5.08c-0.19,0-0.35-0.16-0.35-0.35v-5.08
	c0-0.19,0.16-0.35,0.35-0.35h5.08c0.19,0,0.35,0.16,0.35,0.35V38.8z M40.95,31.78c0,0.19-0.16,0.35-0.35,0.35h-5.08
	c-0.19,0-0.35-0.16-0.35-0.35v-5.08c0-0.19,0.16-0.35,0.35-0.35h5.08c0.19,0,0.35,0.16,0.35,0.35V31.78z M40.95,24.75
	c0,0.19-0.16,0.35-0.35,0.35h-5.08c-0.19,0-0.35-0.16-0.35-0.35v-5.08c0-0.19,0.16-0.35,0.35-0.35h5.08c0.19,0,0.35,0.16,0.35,0.35
	V24.75z M40.95,17.72c0,0.19-0.16,0.35-0.35,0.35h-5.08c-0.19,0-0.35-0.16-0.35-0.35v-5.08c0-0.19,0.16-0.35,0.35-0.35h5.08
	c0.19,0,0.35,0.16,0.35,0.35V17.72z"/>
<path fill="#FFFFFF" d="M39.36,21.66l-0.27,0.75c-0.37,1.01-1.03,1.9-2.07,2.72c-1.11,0.87-2.11,1.43-2.95,1.7l-0.78,0.26v5.9
	l1.48-0.49c1.27-0.42,2.45-0.98,3.52-1.69v13.42h6.13V21.66H39.36z"/>
<linearGradient id="SVGID_6_" gradientUnits="userSpaceOnUse" x1="46.2432" y1="41.3916" x2="36.6646" y2="24.801">
	<stop  offset="3.663000e-003" style="stop-color:#154A97"/>
	<stop  offset="1" style="stop-color:#0078B1"/>
</linearGradient>
<path fill="url(#SVGID_6_)" d="M43.3,43.09h-3.88V28.48c-1.42,1.32-3.08,2.3-5.01,2.94V27.9c1.01-0.33,2.11-0.96,3.3-1.88
	c1.19-0.92,2-2,2.44-3.23h3.15V43.09z"/>
</svg>
