<?xml version="1.0" encoding="utf-8"?>
<!-- Generator: Adobe Illustrator 13.0.1, SVG Export Plug-In . SVG Version: 6.00 Build 14948)  -->
<!DOCTYPE svg PUBLIC "-//W3C//DTD SVG 1.1//EN" "http://www.w3.org/Graphics/SVG/1.1/DTD/svg11.dtd">
<svg version="1.1" id="Layer_1" xmlns="http://www.w3.org/2000/svg" xmlns:xlink="http://www.w3.org/1999/xlink" x="0px" y="0px"
	 width="50px" height="50px" viewBox="0 0 50 50" enable-background="new 0 0 50 50" xml:space="preserve">
<g>
	<rect fill="none" width="50" height="50"/>
	<rect id="_x3C_Slice_x3E__27_" y="0" fill="none" width="50" height="50"/>
	<linearGradient id="SVGID_1_" gradientUnits="userSpaceOnUse" x1="41.3228" y1="53.2744" x2="8.6753" y2="-3.2726">
		<stop  offset="3.663000e-003" style="stop-color:#154A97"/>
		<stop  offset="1" style="stop-color:#0078B1"/>
	</linearGradient>
	<path fill="url(#SVGID_1_)" d="M49.86,46.28c0,1.97-1.61,3.58-3.58,3.58H3.72c-1.97,0-3.58-1.61-3.58-3.58V3.72
		c0-1.97,1.61-3.58,3.58-3.58h42.56c1.97,0,3.58,1.61,3.58,3.58V46.28z"/>
	<linearGradient id="SVGID_2_" gradientUnits="userSpaceOnUse" x1="40.6382" y1="52.0879" x2="9.3618" y2="-2.0844">
		<stop  offset="0" style="stop-color:#6AE4FF"/>
		<stop  offset="0.1024" style="stop-color:#55CFF6"/>
		<stop  offset="0.2416" style="stop-color:#3FB9ED"/>
		<stop  offset="0.3762" style="stop-color:#32ACE7"/>
		<stop  offset="0.5" style="stop-color:#2EA8E5"/>
		<stop  offset="0.6382" style="stop-color:#32ACE7"/>
		<stop  offset="0.7615" style="stop-color:#3CB6EB"/>
		<stop  offset="0.8791" style="stop-color:#4FC9F3"/>
		<stop  offset="0.9925" style="stop-color:#68E2FE"/>
		<stop  offset="1" style="stop-color:#6AE4FF"/>
	</linearGradient>
	<path fill="url(#SVGID_2_)" d="M48.62,45.93c0,1.48-1.21,2.68-2.68,2.68H4.07c-1.47,0-2.68-1.21-2.68-2.68V4.07
		c0-1.48,1.21-2.68,2.68-2.68h41.86c1.48,0,2.68,1.21,2.68,2.68V45.93z"/>
	<linearGradient id="SVGID_3_" gradientUnits="userSpaceOnUse" x1="12.1899" y1="-2.3804" x2="34.0622" y2="38.5238">
		<stop  offset="0" style="stop-color:#9CE9FC"/>
		<stop  offset="1" style="stop-color:#3CB5F0"/>
	</linearGradient>
	<path fill="url(#SVGID_3_)" d="M48.62,11.24c0,0-32.42-5.64-47.23,28.59c0-10.72,0-35.85,0-35.85c0-1.47,1.21-2.68,2.68-2.68h41.86
		c1.48,0,2.68,1.21,2.68,2.68V11.24z"/>
	<linearGradient id="SVGID_4_" gradientUnits="userSpaceOnUse" x1="2.7798" y1="2.7813" x2="47.201" y2="47.2019">
		<stop  offset="0" style="stop-color:#BCEEFC"/>
		<stop  offset="1" style="stop-color:#95E9FC"/>
	</linearGradient>
	<path fill="url(#SVGID_4_)" d="M45.93,1.38H4.07c-1.47,0-2.68,1.21-2.68,2.68v41.87c0,1.48,1.21,2.68,2.68,2.68h41.86
		c1.48,0,2.68-1.21,2.68-2.68V4.07C48.62,2.59,47.41,1.38,45.93,1.38z M47.91,45.31c0,1.43-1.17,2.6-2.6,2.6H4.69
		c-1.43,0-2.6-1.17-2.6-2.6V4.7c0-1.43,1.17-2.6,2.6-2.6h40.61c1.43,0,2.6,1.17,2.6,2.6V45.31z"/>
	<linearGradient id="SVGID_5_" gradientUnits="userSpaceOnUse" x1="29.146" y1="32.2217" x2="17.6553" y2="12.3192">
		<stop  offset="3.663000e-003" style="stop-color:#154A97"/>
		<stop  offset="1" style="stop-color:#0078B1"/>
	</linearGradient>
	<rect x="6.01" y="19.04" fill="url(#SVGID_5_)" width="34.77" height="6.46"/>
	<path fill="#FFFFFF" d="M40.84,7.91h-2.15V5.78c0-0.31-0.25-0.57-0.56-0.57s-0.57,0.25-0.57,0.57v2.13h-3.04V5.78
		c0-0.31-0.25-0.56-0.56-0.56s-0.56,0.25-0.56,0.56v2.13h-3.04V5.78c0-0.31-0.25-0.57-0.57-0.57s-0.56,0.25-0.56,0.57v2.13h-3.04
		V5.78c0-0.31-0.25-0.57-0.57-0.57s-0.57,0.25-0.57,0.57v2.13h-3.04V5.78c0-0.31-0.25-0.56-0.56-0.56c-0.31,0-0.57,0.25-0.57,0.56
		v2.13h-3.04V5.78c0-0.31-0.25-0.56-0.56-0.56c-0.31,0-0.57,0.25-0.57,0.56v2.13h-3.04V5.78c0-0.31-0.25-0.57-0.56-0.57
		c-0.31,0-0.57,0.25-0.57,0.57v2.13H9.51V5.78c0-0.31-0.25-0.56-0.57-0.56S8.38,5.47,8.38,5.78v2.13H6.23
		c-0.62,0-1.13,0.51-1.13,1.13v30.65c0,0.62,0.51,1.13,1.13,1.13h34.61c0.62,0,1.13-0.51,1.13-1.13V9.04
		C41.97,8.42,41.46,7.91,40.84,7.91z M12.37,38.8c0,0.19-0.16,0.35-0.35,0.35H6.93c-0.19,0-0.35-0.16-0.35-0.35v-5.08
		c0-0.19,0.16-0.35,0.35-0.35h5.08c0.19,0,0.35,0.16,0.35,0.35V38.8z M12.37,31.77c0,0.19-0.16,0.35-0.35,0.35H6.93
		c-0.19,0-0.35-0.16-0.35-0.35v-5.08c0-0.19,0.16-0.35,0.35-0.35h5.08c0.19,0,0.35,0.16,0.35,0.35V31.77z M12.37,24.75
		c0,0.19-0.16,0.35-0.35,0.35H6.93c-0.19,0-0.35-0.16-0.35-0.35v-5.08c0-0.19,0.16-0.35,0.35-0.35h5.08c0.19,0,0.35,0.16,0.35,0.35
		V24.75z M12.37,17.72c0,0.19-0.16,0.35-0.35,0.35H6.93c-0.19,0-0.35-0.16-0.35-0.35v-5.08c0-0.19,0.16-0.35,0.35-0.35h5.08
		c0.19,0,0.35,0.16,0.35,0.35V17.72z M19.4,38.8c0,0.19-0.16,0.35-0.35,0.35h-5.08c-0.19,0-0.35-0.16-0.35-0.35v-5.08
		c0-0.19,0.16-0.35,0.35-0.35h5.08c0.19,0,0.35,0.16,0.35,0.35V38.8z M19.4,31.77c0,0.19-0.16,0.35-0.35,0.35h-5.08
		c-0.19,0-0.35-0.16-0.35-0.35v-5.08c0-0.19,0.16-0.35,0.35-0.35h5.08c0.19,0,0.35,0.16,0.35,0.35V31.77z M19.4,24.75
		c0,0.19-0.16,0.35-0.35,0.35h-5.08c-0.19,0-0.35-0.16-0.35-0.35v-5.08c0-0.19,0.16-0.35,0.35-0.35h5.08c0.19,0,0.35,0.16,0.35,0.35
		V24.75z M19.4,17.72c0,0.19-0.16,0.35-0.35,0.35h-5.08c-0.19,0-0.35-0.16-0.35-0.35v-5.08c0-0.19,0.16-0.35,0.35-0.35h5.08
		c0.19,0,0.35,0.16,0.35,0.35V17.72z M26.43,38.8c0,0.19-0.16,0.35-0.35,0.35h-5.08c-0.19,0-0.35-0.16-0.35-0.35v-5.08
		c0-0.19,0.16-0.35,0.35-0.35h5.08c0.19,0,0.35,0.16,0.35,0.35V38.8z M26.43,31.77c0,0.19-0.16,0.35-0.35,0.35h-5.08
		c-0.19,0-0.35-0.16-0.35-0.35v-5.08c0-0.19,0.16-0.35,0.35-0.35h5.08c0.19,0,0.35,0.16,0.35,0.35V31.77z M26.43,24.75
		c0,0.19-0.16,0.35-0.35,0.35h-5.08c-0.19,0-0.35-0.16-0.35-0.35v-5.08c0-0.19,0.16-0.35,0.35-0.35h5.08c0.19,0,0.35,0.16,0.35,0.35
		V24.75z M26.43,17.72c0,0.19-0.16,0.35-0.35,0.35h-5.08c-0.19,0-0.35-0.16-0.35-0.35v-5.08c0-0.19,0.16-0.35,0.35-0.35h5.08
		c0.19,0,0.35,0.16,0.35,0.35V17.72z M33.46,38.8c0,0.19-0.16,0.35-0.35,0.35h-5.08c-0.19,0-0.35-0.16-0.35-0.35v-5.08
		c0-0.19,0.16-0.35,0.35-0.35h5.08c0.19,0,0.35,0.16,0.35,0.35V38.8z M33.46,31.77c0,0.19-0.16,0.35-0.35,0.35h-5.08
		c-0.19,0-0.35-0.16-0.35-0.35v-5.08c0-0.19,0.16-0.35,0.35-0.35h5.08c0.19,0,0.35,0.16,0.35,0.35V31.77z M33.46,24.75
		c0,0.19-0.16,0.35-0.35,0.35h-5.08c-0.19,0-0.35-0.16-0.35-0.35v-5.08c0-0.19,0.16-0.35,0.35-0.35h5.08c0.19,0,0.35,0.16,0.35,0.35
		V24.75z M33.46,17.72c0,0.19-0.16,0.35-0.35,0.35h-5.08c-0.19,0-0.35-0.16-0.35-0.35v-5.08c0-0.19,0.16-0.35,0.35-0.35h5.08
		c0.19,0,0.35,0.16,0.35,0.35V17.72z M40.48,38.8c0,0.19-0.16,0.35-0.35,0.35h-5.08c-0.19,0-0.35-0.16-0.35-0.35v-5.08
		c0-0.19,0.16-0.35,0.35-0.35h5.08c0.19,0,0.35,0.16,0.35,0.35V38.8z M40.48,31.77c0,0.19-0.16,0.35-0.35,0.35h-5.08
		c-0.19,0-0.35-0.16-0.35-0.35v-5.08c0-0.19,0.16-0.35,0.35-0.35h5.08c0.19,0,0.35,0.16,0.35,0.35V31.77z M40.48,24.75
		c0,0.19-0.16,0.35-0.35,0.35h-5.08c-0.19,0-0.35-0.16-0.35-0.35v-5.08c0-0.19,0.16-0.35,0.35-0.35h5.08c0.19,0,0.35,0.16,0.35,0.35
		V24.75z M40.48,17.72c0,0.19-0.16,0.35-0.35,0.35h-5.08c-0.19,0-0.35-0.16-0.35-0.35v-5.08c0-0.19,0.16-0.35,0.35-0.35h5.08
		c0.19,0,0.35,0.16,0.35,0.35V17.72z"/>
	<path fill="#FFFFFF" d="M38.51,38.36c0.37-0.36,0.86-0.81,1.44-1.34c1.25-1.15,2.12-2.02,2.66-2.72c0.76-0.96,1.34-1.92,1.71-2.87
		c0.38-0.96,0.57-1.97,0.57-3.02l0-0.03c0.01-1.87-0.71-3.55-2.06-4.81c-1.38-1.31-3.27-1.92-5.46-1.92c-0.01,0-0.02,0-0.05,0
		c-2,0-3.79,0.53-5.21,1.63c-1.54,1.17-2.36,3.06-2.6,5.37l-0.06,0.57l-0.06,0.56l6.16,0.62l0.08-1.16c0.05-0.99,0.32-1.55,0.5-1.71
		c0.27-0.26,0.53-0.38,1.14-0.4c0.62,0.01,0.89,0.15,1.12,0.37c0.2,0.21,0.36,0.51,0.36,1.19c0,0.52-0.17,1.08-0.61,1.75
		c-0.24,0.37-1.33,1.52-3.04,3.11c-2.21,2.05-3.71,3.7-4.55,5.09c-0.82,1.35-1.32,2.81-1.48,4.33l-0.07,0.63l-0.07,0.63H44.9v-5.86
		H38.51z"/>
	<linearGradient id="SVGID_6_" gradientUnits="userSpaceOnUse" x1="42.1851" y1="44.0107" x2="31.2275" y2="25.0318">
		<stop  offset="3.663000e-003" style="stop-color:#154A97"/>
		<stop  offset="1" style="stop-color:#0078B1"/>
	</linearGradient>
	<path fill="url(#SVGID_6_)" d="M43.77,39.49v3.6H30.18c0.15-1.36,0.59-2.65,1.32-3.87s2.19-2.83,4.36-4.85
		c1.75-1.63,2.82-2.73,3.21-3.31c0.53-0.8,0.8-1.59,0.8-2.37c0-0.87-0.23-1.53-0.7-1.99c-0.47-0.46-1.11-0.7-1.93-0.7
		c-0.81,0-1.45,0.24-1.93,0.73c-0.48,0.49-0.76,1.3-0.83,2.43l-3.86-0.39c0.23-2.13,0.95-3.66,2.17-4.59
		c1.21-0.93,2.73-1.39,4.55-1.39c2,0,3.56,0.54,4.71,1.61c1.14,1.08,1.71,2.41,1.71,4.01c0,0.91-0.16,1.78-0.49,2.6
		c-0.33,0.82-0.84,1.68-1.55,2.59c-0.47,0.6-1.32,1.46-2.54,2.58c-1.22,1.12-2,1.87-2.32,2.23c-0.33,0.37-0.59,0.73-0.79,1.08H43.77
		z"/>
</g>
</svg>
