<?xml version="1.0" encoding="utf-8"?>
<!-- Generator: Adobe Illustrator 13.0.1, SVG Export Plug-In . SVG Version: 6.00 Build 14948)  -->
<!DOCTYPE svg PUBLIC "-//W3C//DTD SVG 1.1//EN" "http://www.w3.org/Graphics/SVG/1.1/DTD/svg11.dtd">
<svg version="1.1" id="Layer_1" xmlns="http://www.w3.org/2000/svg" xmlns:xlink="http://www.w3.org/1999/xlink" x="0px" y="0px"
	 width="50px" height="50px" viewBox="0 0 50 50" enable-background="new 0 0 50 50" xml:space="preserve">
<g>
	<rect fill="none" width="50" height="50"/>
	<rect id="_x3C_Slice_x3E__26_" y="0" fill="none" width="50" height="50"/>
	<linearGradient id="SVGID_1_" gradientUnits="userSpaceOnUse" x1="41.3228" y1="53.2744" x2="8.6753" y2="-3.2726">
		<stop  offset="3.663000e-003" style="stop-color:#154A97"/>
		<stop  offset="1" style="stop-color:#0078B1"/>
	</linearGradient>
	<path fill="url(#SVGID_1_)" d="M49.86,46.28c0,1.97-1.61,3.58-3.58,3.58H3.72c-1.97,0-3.58-1.61-3.58-3.58V3.72
		c0-1.97,1.61-3.58,3.58-3.58h42.56c1.97,0,3.58,1.61,3.58,3.58V46.28z"/>
	<linearGradient id="SVGID_2_" gradientUnits="userSpaceOnUse" x1="40.6382" y1="52.0869" x2="9.3623" y2="-2.0845">
		<stop  offset="0" style="stop-color:#6AE4FF"/>
		<stop  offset="0.1024" style="stop-color:#55CFF6"/>
		<stop  offset="0.2416" style="stop-color:#3FB9ED"/>
		<stop  offset="0.3762" style="stop-color:#32ACE7"/>
		<stop  offset="0.5" style="stop-color:#2EA8E5"/>
		<stop  offset="0.6382" style="stop-color:#32ACE7"/>
		<stop  offset="0.7615" style="stop-color:#3CB6EB"/>
		<stop  offset="0.8791" style="stop-color:#4FC9F3"/>
		<stop  offset="0.9925" style="stop-color:#68E2FE"/>
		<stop  offset="1" style="stop-color:#6AE4FF"/>
	</linearGradient>
	<path fill="url(#SVGID_2_)" d="M48.62,45.93c0,1.48-1.21,2.68-2.68,2.68H4.07c-1.47,0-2.68-1.21-2.68-2.68V4.07
		c0-1.48,1.21-2.68,2.68-2.68h41.86c1.48,0,2.68,1.21,2.68,2.68V45.93z"/>
	<linearGradient id="SVGID_3_" gradientUnits="userSpaceOnUse" x1="12.1899" y1="-2.3804" x2="34.0622" y2="38.5238">
		<stop  offset="0" style="stop-color:#9CE9FC"/>
		<stop  offset="1" style="stop-color:#3CB5F0"/>
	</linearGradient>
	<path fill="url(#SVGID_3_)" d="M48.62,11.24c0,0-32.42-5.64-47.23,28.59c0-10.72,0-35.85,0-35.85c0-1.47,1.21-2.68,2.68-2.68h41.86
		c1.48,0,2.68,1.21,2.68,2.68V11.24z"/>
	<linearGradient id="SVGID_4_" gradientUnits="userSpaceOnUse" x1="2.7803" y1="2.7813" x2="47.2008" y2="47.2012">
		<stop  offset="0" style="stop-color:#BCEEFC"/>
		<stop  offset="1" style="stop-color:#95E9FC"/>
	</linearGradient>
	<path fill="url(#SVGID_4_)" d="M45.93,1.38H4.07c-1.47,0-2.68,1.21-2.68,2.68v41.86c0,1.48,1.21,2.68,2.68,2.68h41.86
		c1.48,0,2.68-1.21,2.68-2.68V4.07C48.62,2.59,47.41,1.38,45.93,1.38z M47.91,45.31c0,1.43-1.17,2.6-2.6,2.6H4.69
		c-1.43,0-2.6-1.17-2.6-2.6V4.7c0-1.43,1.17-2.6,2.6-2.6h40.61c1.43,0,2.6,1.17,2.6,2.6V45.31z"/>
	<linearGradient id="SVGID_5_" gradientUnits="userSpaceOnUse" x1="28.9097" y1="39.083" x2="17.5122" y2="19.342">
		<stop  offset="3.663000e-003" style="stop-color:#154A97"/>
		<stop  offset="1" style="stop-color:#0078B1"/>
	</linearGradient>
	<rect x="6.01" y="25.98" fill="url(#SVGID_5_)" width="34.4" height="6.46"/>
	<path fill="#FFFFFF" d="M40.83,7.94h-2.15V5.81c0-0.31-0.25-0.57-0.56-0.57c-0.31,0-0.57,0.25-0.57,0.57v2.13h-3.04V5.81
		c0-0.31-0.25-0.56-0.57-0.56c-0.31,0-0.56,0.25-0.56,0.56v2.13h-3.04V5.81c0-0.31-0.25-0.56-0.56-0.56s-0.57,0.25-0.57,0.56v2.13
		h-3.04V5.81c0-0.31-0.25-0.56-0.56-0.56s-0.57,0.25-0.57,0.56v2.13h-3.04V5.81c0-0.31-0.25-0.57-0.56-0.57
		c-0.31,0-0.57,0.25-0.57,0.57v2.13h-3.04V5.81c0-0.31-0.25-0.56-0.57-0.56c-0.31,0-0.56,0.25-0.56,0.56v2.13h-3.04V5.81
		c0-0.31-0.25-0.56-0.56-0.56c-0.31,0-0.57,0.25-0.57,0.56v2.13H9.51V5.81c0-0.31-0.25-0.57-0.57-0.57S8.38,5.49,8.38,5.81v2.13
		H6.23C5.6,7.94,5.1,8.44,5.1,9.07v30.65c0,0.62,0.51,1.13,1.13,1.13h34.61c0.62,0,1.13-0.51,1.13-1.13V9.07
		C41.96,8.44,41.45,7.94,40.83,7.94z M12.37,38.83c0,0.19-0.16,0.35-0.35,0.35H6.93c-0.19,0-0.35-0.16-0.35-0.35v-5.08
		c0-0.19,0.16-0.35,0.35-0.35h5.08c0.19,0,0.35,0.16,0.35,0.35V38.83z M12.37,31.8c0,0.19-0.16,0.35-0.35,0.35H6.93
		c-0.19,0-0.35-0.16-0.35-0.35v-5.08c0-0.19,0.16-0.35,0.35-0.35h5.08c0.19,0,0.35,0.16,0.35,0.35V31.8z M12.37,24.77
		c0,0.19-0.16,0.35-0.35,0.35H6.93c-0.19,0-0.35-0.16-0.35-0.35v-5.08c0-0.19,0.16-0.35,0.35-0.35h5.08c0.19,0,0.35,0.16,0.35,0.35
		V24.77z M12.37,17.74c0,0.19-0.16,0.35-0.35,0.35H6.93c-0.19,0-0.35-0.16-0.35-0.35v-5.08c0-0.19,0.16-0.35,0.35-0.35h5.08
		c0.19,0,0.35,0.16,0.35,0.35V17.74z M19.39,38.83c0,0.19-0.16,0.35-0.35,0.35h-5.08c-0.19,0-0.35-0.16-0.35-0.35v-5.08
		c0-0.19,0.16-0.35,0.35-0.35h5.08c0.19,0,0.35,0.16,0.35,0.35V38.83z M19.39,31.8c0,0.19-0.16,0.35-0.35,0.35h-5.08
		c-0.19,0-0.35-0.16-0.35-0.35v-5.08c0-0.19,0.16-0.35,0.35-0.35h5.08c0.19,0,0.35,0.16,0.35,0.35V31.8z M19.39,24.77
		c0,0.19-0.16,0.35-0.35,0.35h-5.08c-0.19,0-0.35-0.16-0.35-0.35v-5.08c0-0.19,0.16-0.35,0.35-0.35h5.08c0.19,0,0.35,0.16,0.35,0.35
		V24.77z M19.39,17.74c0,0.19-0.16,0.35-0.35,0.35h-5.08c-0.19,0-0.35-0.16-0.35-0.35v-5.08c0-0.19,0.16-0.35,0.35-0.35h5.08
		c0.19,0,0.35,0.16,0.35,0.35V17.74z M26.42,38.83c0,0.19-0.16,0.35-0.35,0.35h-5.08c-0.19,0-0.35-0.16-0.35-0.35v-5.08
		c0-0.19,0.16-0.35,0.35-0.35h5.08c0.19,0,0.35,0.16,0.35,0.35V38.83z M26.42,31.8c0,0.19-0.16,0.35-0.35,0.35h-5.08
		c-0.19,0-0.35-0.16-0.35-0.35v-5.08c0-0.19,0.16-0.35,0.35-0.35h5.08c0.19,0,0.35,0.16,0.35,0.35V31.8z M26.42,24.77
		c0,0.19-0.16,0.35-0.35,0.35h-5.08c-0.19,0-0.35-0.16-0.35-0.35v-5.08c0-0.19,0.16-0.35,0.35-0.35h5.08c0.19,0,0.35,0.16,0.35,0.35
		V24.77z M26.42,17.74c0,0.19-0.16,0.35-0.35,0.35h-5.08c-0.19,0-0.35-0.16-0.35-0.35v-5.08c0-0.19,0.16-0.35,0.35-0.35h5.08
		c0.19,0,0.35,0.16,0.35,0.35V17.74z M33.45,38.83c0,0.19-0.16,0.35-0.35,0.35h-5.08c-0.19,0-0.35-0.16-0.35-0.35v-5.08
		c0-0.19,0.16-0.35,0.35-0.35h5.08c0.19,0,0.35,0.16,0.35,0.35V38.83z M33.45,31.8c0,0.19-0.16,0.35-0.35,0.35h-5.08
		c-0.19,0-0.35-0.16-0.35-0.35v-5.08c0-0.19,0.16-0.35,0.35-0.35h5.08c0.19,0,0.35,0.16,0.35,0.35V31.8z M33.45,24.77
		c0,0.19-0.16,0.35-0.35,0.35h-5.08c-0.19,0-0.35-0.16-0.35-0.35v-5.08c0-0.19,0.16-0.35,0.35-0.35h5.08c0.19,0,0.35,0.16,0.35,0.35
		V24.77z M33.45,17.74c0,0.19-0.16,0.35-0.35,0.35h-5.08c-0.19,0-0.35-0.16-0.35-0.35v-5.08c0-0.19,0.16-0.35,0.35-0.35h5.08
		c0.19,0,0.35,0.16,0.35,0.35V17.74z M40.48,38.83c0,0.19-0.16,0.35-0.35,0.35h-5.08c-0.19,0-0.35-0.16-0.35-0.35v-5.08
		c0-0.19,0.16-0.35,0.35-0.35h5.08c0.19,0,0.35,0.16,0.35,0.35V38.83z M40.48,31.8c0,0.19-0.16,0.35-0.35,0.35h-5.08
		c-0.19,0-0.35-0.16-0.35-0.35v-5.08c0-0.19,0.16-0.35,0.35-0.35h5.08c0.19,0,0.35,0.16,0.35,0.35V31.8z M40.48,24.77
		c0,0.19-0.16,0.35-0.35,0.35h-5.08c-0.19,0-0.35-0.16-0.35-0.35v-5.08c0-0.19,0.16-0.35,0.35-0.35h5.08c0.19,0,0.35,0.16,0.35,0.35
		V24.77z M40.48,17.74c0,0.19-0.16,0.35-0.35,0.35h-5.08c-0.19,0-0.35-0.16-0.35-0.35v-5.08c0-0.19,0.16-0.35,0.35-0.35h5.08
		c0.19,0,0.35,0.16,0.35,0.35V17.74z"/>
	<path fill="#FFFFFF" d="M43.62,32.81c-0.39-0.48-0.84-0.9-1.36-1.23c1.11-1.08,1.76-2.45,1.74-3.98c0.01-1.54-0.62-2.99-1.73-4.15
		c-1.36-1.45-3.26-2.18-5.4-2.17c-1.25,0-2.43,0.24-3.49,0.73c-1.05,0.49-1.93,1.2-2.55,2.11c-0.62,0.91-1.03,2.02-1.3,3.35
		l-0.23,1.14l5.44,0.92l-0.76,5.61l1.66-0.46c0.62-0.18,1.13-0.25,1.48-0.25c0.46,0.01,0.73,0.13,1.08,0.49
		c0.29,0.33,0.48,0.77,0.49,1.55c-0.01,0.84-0.21,1.33-0.53,1.7c-0.38,0.39-0.67,0.52-1.18,0.54c-0.49-0.01-0.78-0.13-1.12-0.44
		c-0.29-0.28-0.53-0.73-0.63-1.52l-0.14-1.12l-5.99,0.73l0.13,1.12c0.21,1.93,1.06,3.63,2.48,4.85c1.42,1.25,3.25,1.87,5.29,1.86
		c0.01,0,0.03,0,0.04,0c2.16,0,4.1-0.74,5.59-2.19c1.5-1.43,2.3-3.3,2.29-5.35C44.91,35.22,44.48,33.88,43.62,32.81z M35.32,28.43
		c0.08-0.72,0.29-1.11,0.52-1.34c0.29-0.26,0.51-0.36,0.91-0.37c0.45,0.01,0.63,0.1,0.82,0.28c0.17,0.18,0.27,0.36,0.28,0.83
		c-0.01,0.55-0.14,0.79-0.44,1.07c-0.25,0.22-0.69,0.4-1.49,0.41c-0.06,0-0.1,0-0.15,0l-0.54-0.01L35.32,28.43z"/>
	<linearGradient id="SVGID_6_" gradientUnits="userSpaceOnUse" x1="41.7388" y1="41.4424" x2="31.7734" y2="24.1819">
		<stop  offset="3.663000e-003" style="stop-color:#154A97"/>
		<stop  offset="1" style="stop-color:#0078B1"/>
	</linearGradient>
	<path fill="url(#SVGID_6_)" d="M30.28,37.35l3.75-0.46c0.12,0.96,0.44,1.69,0.97,2.19c0.52,0.51,1.16,0.76,1.9,0.76
		c0.8,0,1.47-0.3,2.02-0.91c0.55-0.61,0.82-1.42,0.82-2.46c0-0.97-0.26-1.75-0.79-2.32c-0.53-0.57-1.16-0.86-1.92-0.86
		c-0.5,0-1.09,0.1-1.78,0.29l0.43-3.16c1.05,0.03,1.85-0.2,2.4-0.68c0.55-0.48,0.83-1.13,0.83-1.92c0-0.68-0.2-1.22-0.61-1.63
		c-0.41-0.4-0.94-0.61-1.61-0.61c-0.66,0-1.23,0.23-1.7,0.69c-0.47,0.46-0.75,1.13-0.86,2.01l-3.57-0.61
		c0.25-1.22,0.62-2.2,1.13-2.93c0.5-0.73,1.2-1.31,2.1-1.72c0.9-0.42,1.9-0.63,3.01-0.63c1.9,0,3.43,0.61,4.58,1.82
		c0.95,0.99,1.42,2.12,1.42,3.37c0,1.77-0.97,3.19-2.91,4.25c1.16,0.25,2.08,0.8,2.78,1.67c0.7,0.86,1.04,1.91,1.04,3.13
		c0,1.78-0.65,3.29-1.95,4.54c-1.3,1.25-2.91,1.88-4.84,1.88c-1.83,0-3.35-0.53-4.55-1.58S30.48,39.06,30.28,37.35z"/>
</g>
</svg>
