<?xml version="1.0" encoding="utf-8"?>
<!-- Generator: Adobe Illustrator 13.0.1, SVG Export Plug-In . SVG Version: 6.00 Build 14948)  -->
<!DOCTYPE svg PUBLIC "-//W3C//DTD SVG 1.1//EN" "http://www.w3.org/Graphics/SVG/1.1/DTD/svg11.dtd">
<svg version="1.1" id="Layer_1" xmlns="http://www.w3.org/2000/svg" xmlns:xlink="http://www.w3.org/1999/xlink" x="0px" y="0px"
	 width="50px" height="50px" viewBox="0 0 50 50" enable-background="new 0 0 50 50" xml:space="preserve">
<rect fill="none" width="50" height="50"/>
<rect id="_x3C_Slice_x3E__25_" y="0" fill="none" width="50" height="50"/>
<g>
	<linearGradient id="SVGID_1_" gradientUnits="userSpaceOnUse" x1="41.3228" y1="53.2744" x2="8.6753" y2="-3.2726">
		<stop  offset="3.663000e-003" style="stop-color:#154A97"/>
		<stop  offset="1" style="stop-color:#0078B1"/>
	</linearGradient>
	<path fill="url(#SVGID_1_)" d="M49.86,46.28c0,1.97-1.61,3.58-3.59,3.58H3.72c-1.97,0-3.58-1.61-3.58-3.58V3.72
		c0-1.97,1.61-3.58,3.58-3.58h42.56c1.97,0,3.59,1.61,3.59,3.58V46.28z"/>
	<linearGradient id="SVGID_2_" gradientUnits="userSpaceOnUse" x1="40.6382" y1="52.0869" x2="9.3623" y2="-2.0845">
		<stop  offset="0" style="stop-color:#6AE4FF"/>
		<stop  offset="0.1024" style="stop-color:#55CFF6"/>
		<stop  offset="0.2416" style="stop-color:#3FB9ED"/>
		<stop  offset="0.3762" style="stop-color:#32ACE7"/>
		<stop  offset="0.5" style="stop-color:#2EA8E5"/>
		<stop  offset="0.6382" style="stop-color:#32ACE7"/>
		<stop  offset="0.7615" style="stop-color:#3CB6EB"/>
		<stop  offset="0.8791" style="stop-color:#4FC9F3"/>
		<stop  offset="0.9925" style="stop-color:#68E2FE"/>
		<stop  offset="1" style="stop-color:#6AE4FF"/>
	</linearGradient>
	<path fill="url(#SVGID_2_)" d="M48.62,45.93c0,1.48-1.21,2.68-2.68,2.68H4.07c-1.47,0-2.68-1.21-2.68-2.68V4.07
		c0-1.48,1.21-2.68,2.68-2.68h41.87c1.48,0,2.68,1.21,2.68,2.68V45.93z"/>
	<linearGradient id="SVGID_3_" gradientUnits="userSpaceOnUse" x1="12.1895" y1="-2.3804" x2="34.0617" y2="38.5238">
		<stop  offset="0" style="stop-color:#9CE9FC"/>
		<stop  offset="1" style="stop-color:#3CB5F0"/>
	</linearGradient>
	<path fill="url(#SVGID_3_)" d="M48.62,11.24c0,0-32.42-5.64-47.23,28.59c0-10.72,0-35.85,0-35.85c0-1.47,1.21-2.68,2.68-2.68h41.87
		c1.48,0,2.68,1.21,2.68,2.68V11.24z"/>
	<linearGradient id="SVGID_4_" gradientUnits="userSpaceOnUse" x1="2.7793" y1="2.7803" x2="47.2005" y2="47.2009">
		<stop  offset="0" style="stop-color:#BCEEFC"/>
		<stop  offset="1" style="stop-color:#95E9FC"/>
	</linearGradient>
	<path fill="url(#SVGID_4_)" d="M45.93,1.38H4.07c-1.47,0-2.68,1.21-2.68,2.68v41.86c0,1.48,1.21,2.68,2.68,2.68h41.87
		c1.48,0,2.68-1.21,2.68-2.68V4.07C48.62,2.59,47.41,1.38,45.93,1.38z M47.91,45.31c0,1.43-1.17,2.6-2.6,2.6H4.69
		c-1.43,0-2.6-1.17-2.6-2.6V4.7c0-1.43,1.17-2.6,2.6-2.6h40.61c1.43,0,2.6,1.17,2.6,2.6V45.31z"/>
</g>
<linearGradient id="SVGID_5_" gradientUnits="userSpaceOnUse" x1="29.3315" y1="46.2422" x2="17.8403" y2="26.3388">
	<stop  offset="3.663000e-003" style="stop-color:#154A97"/>
	<stop  offset="1" style="stop-color:#0078B1"/>
</linearGradient>
<rect x="6.2" y="33.06" fill="url(#SVGID_5_)" width="34.77" height="6.46"/>
<path fill="#FFFFFF" d="M41.02,7.92h-2.15V5.78c0-0.31-0.25-0.56-0.56-0.56c-0.31,0-0.57,0.25-0.57,0.56v2.13H34.7V5.78
	c0-0.31-0.25-0.57-0.57-0.57s-0.56,0.25-0.56,0.57v2.13h-3.04V5.78c0-0.31-0.25-0.56-0.57-0.56S29.4,5.47,29.4,5.78v2.13h-3.04V5.78
	c0-0.31-0.25-0.57-0.56-0.57c-0.31,0-0.57,0.25-0.57,0.57v2.13H22.2V5.78c0-0.31-0.25-0.57-0.57-0.57c-0.31,0-0.56,0.25-0.56,0.57
	v2.13h-3.04V5.79c0-0.31-0.25-0.56-0.56-0.56c-0.31,0-0.56,0.25-0.56,0.56v2.13h-3.04V5.79c0-0.31-0.25-0.56-0.56-0.56
	s-0.56,0.25-0.56,0.56v2.13H9.7V5.79c0-0.31-0.25-0.57-0.57-0.57c-0.31,0-0.56,0.25-0.56,0.57v2.13H6.42
	c-0.62,0-1.13,0.51-1.13,1.13V39.7c0,0.62,0.51,1.13,1.13,1.13h34.61c0.62,0,1.13-0.51,1.13-1.13V9.04
	C42.15,8.42,41.64,7.92,41.02,7.92z M12.55,38.81c0,0.19-0.16,0.35-0.35,0.35H7.12c-0.19,0-0.35-0.16-0.35-0.35v-5.08
	c0-0.19,0.16-0.35,0.35-0.35h5.08c0.19,0,0.35,0.16,0.35,0.35V38.81z M12.55,31.78c0,0.19-0.16,0.35-0.35,0.35H7.12
	c-0.19,0-0.35-0.16-0.35-0.35V26.7c0-0.19,0.16-0.35,0.35-0.35h5.08c0.19,0,0.35,0.16,0.35,0.35V31.78z M12.55,24.75
	c0,0.19-0.16,0.35-0.35,0.35H7.12c-0.19,0-0.35-0.16-0.35-0.35v-5.08c0-0.19,0.16-0.35,0.35-0.35h5.08c0.19,0,0.35,0.16,0.35,0.35
	V24.75z M12.55,17.72c0,0.19-0.16,0.35-0.35,0.35H7.12c-0.19,0-0.35-0.16-0.35-0.35v-5.08c0-0.19,0.16-0.35,0.35-0.35h5.08
	c0.19,0,0.35,0.16,0.35,0.35V17.72z M19.58,38.81c0,0.19-0.16,0.35-0.35,0.35h-5.08c-0.19,0-0.35-0.16-0.35-0.35v-5.08
	c0-0.19,0.16-0.35,0.35-0.35h5.08c0.19,0,0.35,0.16,0.35,0.35V38.81z M19.58,31.78c0,0.19-0.16,0.35-0.35,0.35h-5.08
	c-0.19,0-0.35-0.16-0.35-0.35V26.7c0-0.19,0.16-0.35,0.35-0.35h5.08c0.19,0,0.35,0.16,0.35,0.35V31.78z M19.58,24.75
	c0,0.19-0.16,0.35-0.35,0.35h-5.08c-0.19,0-0.35-0.16-0.35-0.35v-5.08c0-0.19,0.16-0.35,0.35-0.35h5.08c0.19,0,0.35,0.16,0.35,0.35
	V24.75z M19.58,17.72c0,0.19-0.16,0.35-0.35,0.35h-5.08c-0.19,0-0.35-0.16-0.35-0.35v-5.08c0-0.19,0.16-0.35,0.35-0.35h5.08
	c0.19,0,0.35,0.16,0.35,0.35V17.72z M26.61,38.81c0,0.19-0.16,0.35-0.35,0.35h-5.08c-0.19,0-0.35-0.16-0.35-0.35v-5.08
	c0-0.19,0.16-0.35,0.35-0.35h5.08c0.19,0,0.35,0.16,0.35,0.35V38.81z M26.61,31.78c0,0.19-0.16,0.35-0.35,0.35h-5.08
	c-0.19,0-0.35-0.16-0.35-0.35V26.7c0-0.19,0.16-0.35,0.35-0.35h5.08c0.19,0,0.35,0.16,0.35,0.35V31.78z M26.61,24.75
	c0,0.19-0.16,0.35-0.35,0.35h-5.08c-0.19,0-0.35-0.16-0.35-0.35v-5.08c0-0.19,0.16-0.35,0.35-0.35h5.08c0.19,0,0.35,0.16,0.35,0.35
	V24.75z M26.61,17.72c0,0.19-0.16,0.35-0.35,0.35h-5.08c-0.19,0-0.35-0.16-0.35-0.35v-5.08c0-0.19,0.16-0.35,0.35-0.35h5.08
	c0.19,0,0.35,0.16,0.35,0.35V17.72z M33.64,38.81c0,0.19-0.16,0.35-0.35,0.35h-5.08c-0.19,0-0.35-0.16-0.35-0.35v-5.08
	c0-0.19,0.16-0.35,0.35-0.35h5.08c0.19,0,0.35,0.16,0.35,0.35V38.81z M33.64,31.78c0,0.19-0.16,0.35-0.35,0.35h-5.08
	c-0.19,0-0.35-0.16-0.35-0.35V26.7c0-0.19,0.16-0.35,0.35-0.35h5.08c0.19,0,0.35,0.16,0.35,0.35V31.78z M33.64,24.75
	c0,0.19-0.16,0.35-0.35,0.35h-5.08c-0.19,0-0.35-0.16-0.35-0.35v-5.08c0-0.19,0.16-0.35,0.35-0.35h5.08c0.19,0,0.35,0.16,0.35,0.35
	V24.75z M33.64,17.72c0,0.19-0.16,0.35-0.35,0.35h-5.08c-0.19,0-0.35-0.16-0.35-0.35v-5.08c0-0.19,0.16-0.35,0.35-0.35h5.08
	c0.19,0,0.35,0.16,0.35,0.35V17.72z M40.67,38.81c0,0.19-0.16,0.35-0.35,0.35h-5.08c-0.19,0-0.35-0.16-0.35-0.35v-5.08
	c0-0.19,0.16-0.35,0.35-0.35h5.08c0.19,0,0.35,0.16,0.35,0.35V38.81z M40.67,31.78c0,0.19-0.16,0.35-0.35,0.35h-5.08
	c-0.19,0-0.35-0.16-0.35-0.35V26.7c0-0.19,0.16-0.35,0.35-0.35h5.08c0.19,0,0.35,0.16,0.35,0.35V31.78z M40.67,24.75
	c0,0.19-0.16,0.35-0.35,0.35h-5.08c-0.19,0-0.35-0.16-0.35-0.35v-5.08c0-0.19,0.16-0.35,0.35-0.35h5.08c0.19,0,0.35,0.16,0.35,0.35
	V24.75z M40.67,17.72c0,0.19-0.16,0.35-0.35,0.35h-5.08c-0.19,0-0.35-0.16-0.35-0.35v-5.08c0-0.19,0.16-0.35,0.35-0.35h5.08
	c0.19,0,0.35,0.16,0.35,0.35V17.72z"/>
<g>
	<path fill="#FFFFFF" d="M33.96,34.48V21.65h-4.98l-9.31,13.62v4.87h8.28v4.07h6.01v-4.07l2.51,0v-5.67H33.96z"/>
	<linearGradient id="SVGID_6_" gradientUnits="userSpaceOnUse" x1="33.5962" y1="42.6445" x2="23.9907" y2="26.0074">
		<stop  offset="3.663000e-003" style="stop-color:#154A97"/>
		<stop  offset="1" style="stop-color:#0078B1"/>
	</linearGradient>
	<path fill="url(#SVGID_6_)" d="M29.08,43.09v-4.07H20.8v-3.39l8.77-12.84h3.25v12.83h2.51v3.41h-2.51v4.07H29.08z M29.08,35.61
		V28.7l-4.65,6.91H29.08z"/>
</g>
<g>
	<polygon fill="#FFFFFF" points="41.53,24.79 41.54,21.65 36.83,21.65 36.83,24.79 33.67,24.79 33.67,29.56 36.83,29.56 36.83,32.7 
		41.54,32.7 41.54,29.56 44.71,29.56 44.71,24.79 	"/>
	<linearGradient id="SVGID_7_" gradientUnits="userSpaceOnUse" x1="41.5435" y1="31.2471" x2="36.8389" y2="23.0985">
		<stop  offset="3.663000e-003" style="stop-color:#154A97"/>
		<stop  offset="1" style="stop-color:#0078B1"/>
	</linearGradient>
	<path fill="url(#SVGID_7_)" d="M37.75,31.78v-3.13h-3.17V25.7h3.17v-3.13h2.87v3.13h3.18v2.94h-3.18v3.13H37.75z"/>
</g>
</svg>
