<?xml version="1.0" encoding="utf-8"?>
<!-- Generator: Adobe Illustrator 13.0.1, SVG Export Plug-In . SVG Version: 6.00 Build 14948)  -->
<!DOCTYPE svg PUBLIC "-//W3C//DTD SVG 1.1//EN" "http://www.w3.org/Graphics/SVG/1.1/DTD/svg11.dtd">
<svg version="1.1" id="Layer_1" xmlns="http://www.w3.org/2000/svg" xmlns:xlink="http://www.w3.org/1999/xlink" x="0px" y="0px"
	 width="50px" height="50px" viewBox="0 0 50 50" enable-background="new 0 0 50 50" xml:space="preserve">
<g>
	<rect fill="none" width="50" height="50"/>
	<rect id="_x3C_Slice_x3E__18_" y="0" fill="none" width="50" height="50"/>
	<linearGradient id="SVGID_1_" gradientUnits="userSpaceOnUse" x1="41.3228" y1="53.2744" x2="8.6758" y2="-3.2718">
		<stop  offset="3.663000e-003" style="stop-color:#154A97"/>
		<stop  offset="1" style="stop-color:#0078B1"/>
	</linearGradient>
	<path fill="url(#SVGID_1_)" d="M49.86,46.28c0,1.97-1.61,3.58-3.59,3.58H3.72c-1.97,0-3.58-1.61-3.58-3.58V3.72
		c0-1.97,1.61-3.58,3.58-3.58h42.56c1.97,0,3.59,1.61,3.59,3.58V46.28z"/>
	<linearGradient id="SVGID_2_" gradientUnits="userSpaceOnUse" x1="40.6382" y1="52.0869" x2="9.3623" y2="-2.0845">
		<stop  offset="0" style="stop-color:#6AE4FF"/>
		<stop  offset="0.1024" style="stop-color:#55CFF6"/>
		<stop  offset="0.2416" style="stop-color:#3FB9ED"/>
		<stop  offset="0.3762" style="stop-color:#32ACE7"/>
		<stop  offset="0.5" style="stop-color:#2EA8E5"/>
		<stop  offset="0.6382" style="stop-color:#32ACE7"/>
		<stop  offset="0.7615" style="stop-color:#3CB6EB"/>
		<stop  offset="0.8791" style="stop-color:#4FC9F3"/>
		<stop  offset="0.9925" style="stop-color:#68E2FE"/>
		<stop  offset="1" style="stop-color:#6AE4FF"/>
	</linearGradient>
	<path fill="url(#SVGID_2_)" d="M48.62,45.93c0,1.48-1.21,2.68-2.68,2.68H4.07c-1.47,0-2.68-1.21-2.68-2.68V4.07
		c0-1.48,1.21-2.68,2.68-2.68h41.86c1.48,0,2.68,1.21,2.68,2.68V45.93z"/>
	<linearGradient id="SVGID_3_" gradientUnits="userSpaceOnUse" x1="12.1899" y1="-2.3794" x2="34.0616" y2="38.5236">
		<stop  offset="0" style="stop-color:#9CE9FC"/>
		<stop  offset="1" style="stop-color:#3CB5F0"/>
	</linearGradient>
	<path fill="url(#SVGID_3_)" d="M48.62,11.24c0,0-32.42-5.64-47.23,28.59c0-10.72,0-35.85,0-35.85c0-1.47,1.21-2.68,2.68-2.68h41.86
		c1.48,0,2.68,1.21,2.68,2.68V11.24z"/>
	<linearGradient id="SVGID_4_" gradientUnits="userSpaceOnUse" x1="2.7803" y1="2.7813" x2="47.2008" y2="47.2012">
		<stop  offset="0" style="stop-color:#BCEEFC"/>
		<stop  offset="1" style="stop-color:#95E9FC"/>
	</linearGradient>
	<path fill="url(#SVGID_4_)" d="M45.93,1.38H4.07c-1.47,0-2.68,1.21-2.68,2.68v41.86c0,1.48,1.21,2.68,2.68,2.68h41.86
		c1.48,0,2.68-1.21,2.68-2.68V4.07C48.62,2.59,47.41,1.38,45.93,1.38z M47.91,45.31c0,1.43-1.17,2.6-2.6,2.6H4.69
		c-1.43,0-2.6-1.17-2.6-2.6V4.7c0-1.43,1.17-2.6,2.6-2.6h40.61c1.43,0,2.6,1.17,2.6,2.6V45.31z"/>
	<path fill="#FFFFFF" d="M40.81,7.85h-2.15V5.72c0-0.31-0.25-0.57-0.56-0.57c-0.31,0-0.57,0.25-0.57,0.57v2.13h-3.04V5.72
		c0-0.31-0.25-0.57-0.57-0.57c-0.31,0-0.56,0.25-0.56,0.57v2.13h-3.04V5.72c0-0.31-0.25-0.57-0.56-0.57s-0.57,0.25-0.57,0.57v2.13
		h-3.04V5.72c0-0.31-0.25-0.57-0.56-0.57s-0.57,0.25-0.57,0.57v2.13h-3.04V5.72c0-0.31-0.25-0.57-0.56-0.57s-0.57,0.25-0.57,0.57
		v2.13h-3.04V5.72c0-0.31-0.25-0.56-0.57-0.56c-0.31,0-0.56,0.25-0.56,0.56v2.13h-3.04V5.72c0-0.31-0.25-0.57-0.56-0.57
		c-0.31,0-0.57,0.25-0.57,0.57v2.13H9.49V5.72c0-0.31-0.25-0.56-0.56-0.56S8.36,5.41,8.36,5.72v2.13H6.21
		c-0.62,0-1.13,0.51-1.13,1.13v30.65c0,0.62,0.51,1.13,1.13,1.13h34.61c0.62,0,1.13-0.51,1.13-1.13V8.98
		C41.94,8.36,41.43,7.85,40.81,7.85z M12.34,38.74c0,0.19-0.16,0.35-0.35,0.35H6.91c-0.19,0-0.35-0.16-0.35-0.35v-5.08
		c0-0.19,0.16-0.35,0.35-0.35h5.08c0.19,0,0.35,0.16,0.35,0.35V38.74z M12.34,31.71c0,0.19-0.16,0.35-0.35,0.35H6.91
		c-0.19,0-0.35-0.16-0.35-0.35v-5.08c0-0.19,0.16-0.35,0.35-0.35h5.08c0.19,0,0.35,0.16,0.35,0.35V31.71z M12.34,24.68
		c0,0.19-0.16,0.35-0.35,0.35H6.91c-0.19,0-0.35-0.16-0.35-0.35V19.6c0-0.19,0.16-0.35,0.35-0.35h5.08c0.19,0,0.35,0.16,0.35,0.35
		V24.68z M12.34,17.66c0,0.19-0.16,0.35-0.35,0.35H6.91c-0.19,0-0.35-0.16-0.35-0.35v-5.08c0-0.19,0.16-0.35,0.35-0.35h5.08
		c0.19,0,0.35,0.16,0.35,0.35V17.66z M19.37,38.74c0,0.19-0.16,0.35-0.35,0.35h-5.08c-0.19,0-0.35-0.16-0.35-0.35v-5.08
		c0-0.19,0.16-0.35,0.35-0.35h5.08c0.19,0,0.35,0.16,0.35,0.35V38.74z M19.37,31.71c0,0.19-0.16,0.35-0.35,0.35h-5.08
		c-0.19,0-0.35-0.16-0.35-0.35v-5.08c0-0.19,0.16-0.35,0.35-0.35h5.08c0.19,0,0.35,0.16,0.35,0.35V31.71z M19.37,24.68
		c0,0.19-0.16,0.35-0.35,0.35h-5.08c-0.19,0-0.35-0.16-0.35-0.35V19.6c0-0.19,0.16-0.35,0.35-0.35h5.08c0.19,0,0.35,0.16,0.35,0.35
		V24.68z M19.37,17.66c0,0.19-0.16,0.35-0.35,0.35h-5.08c-0.19,0-0.35-0.16-0.35-0.35v-5.08c0-0.19,0.16-0.35,0.35-0.35h5.08
		c0.19,0,0.35,0.16,0.35,0.35V17.66z M26.4,38.74c0,0.19-0.16,0.35-0.35,0.35h-5.08c-0.19,0-0.35-0.16-0.35-0.35v-5.08
		c0-0.19,0.16-0.35,0.35-0.35h5.08c0.19,0,0.35,0.16,0.35,0.35V38.74z M26.4,31.71c0,0.19-0.16,0.35-0.35,0.35h-5.08
		c-0.19,0-0.35-0.16-0.35-0.35v-5.08c0-0.19,0.16-0.35,0.35-0.35h5.08c0.19,0,0.35,0.16,0.35,0.35V31.71z M26.4,24.68
		c0,0.19-0.16,0.35-0.35,0.35h-5.08c-0.19,0-0.35-0.16-0.35-0.35V19.6c0-0.19,0.16-0.35,0.35-0.35h5.08c0.19,0,0.35,0.16,0.35,0.35
		V24.68z M26.4,17.66c0,0.19-0.16,0.35-0.35,0.35h-5.08c-0.19,0-0.35-0.16-0.35-0.35v-5.08c0-0.19,0.16-0.35,0.35-0.35h5.08
		c0.19,0,0.35,0.16,0.35,0.35V17.66z M33.43,38.74c0,0.19-0.16,0.35-0.35,0.35H28c-0.19,0-0.35-0.16-0.35-0.35v-5.08
		c0-0.19,0.16-0.35,0.35-0.35h5.08c0.19,0,0.35,0.16,0.35,0.35V38.74z M33.43,31.71c0,0.19-0.16,0.35-0.35,0.35H28
		c-0.19,0-0.35-0.16-0.35-0.35v-5.08c0-0.19,0.16-0.35,0.35-0.35h5.08c0.19,0,0.35,0.16,0.35,0.35V31.71z M33.43,24.68
		c0,0.19-0.16,0.35-0.35,0.35H28c-0.19,0-0.35-0.16-0.35-0.35V19.6c0-0.19,0.16-0.35,0.35-0.35h5.08c0.19,0,0.35,0.16,0.35,0.35
		V24.68z M33.43,17.66c0,0.19-0.16,0.35-0.35,0.35H28c-0.19,0-0.35-0.16-0.35-0.35v-5.08c0-0.19,0.16-0.35,0.35-0.35h5.08
		c0.19,0,0.35,0.16,0.35,0.35V17.66z M40.46,38.74c0,0.19-0.16,0.35-0.35,0.35h-5.08c-0.19,0-0.35-0.16-0.35-0.35v-5.08
		c0-0.19,0.16-0.35,0.35-0.35h5.08c0.19,0,0.35,0.16,0.35,0.35V38.74z M40.46,31.71c0,0.19-0.16,0.35-0.35,0.35h-5.08
		c-0.19,0-0.35-0.16-0.35-0.35v-5.08c0-0.19,0.16-0.35,0.35-0.35h5.08c0.19,0,0.35,0.16,0.35,0.35V31.71z M40.46,24.68
		c0,0.19-0.16,0.35-0.35,0.35h-5.08c-0.19,0-0.35-0.16-0.35-0.35V19.6c0-0.19,0.16-0.35,0.35-0.35h5.08c0.19,0,0.35,0.16,0.35,0.35
		V24.68z M40.46,17.66c0,0.19-0.16,0.35-0.35,0.35h-5.08c-0.19,0-0.35-0.16-0.35-0.35v-5.08c0-0.19,0.16-0.35,0.35-0.35h5.08
		c0.19,0,0.35,0.16,0.35,0.35V17.66z"/>
	<path fill="#FFFFFF" d="M43.32,40.2c0.01-0.08,0.03-0.16,0.02-0.23c0-0.35-0.12-0.6-0.26-0.81l-4.25-6.19l4.25-6.19
		c0.14-0.22,0.26-0.48,0.26-0.81c0-0.05-0.01-0.11-0.02-0.17c0.91-0.22,1.59-1.03,1.6-2.01c0-1.15-0.93-2.07-2.07-2.07H30.69
		c-1.15,0-2.07,0.93-2.07,2.07c0,0.98,0.68,1.79,1.59,2.01c-0.01,0.05-0.02,0.11-0.02,0.17c0,0.32,0.12,0.62,0.28,0.83l4.24,6.17
		l-4.25,6.2c-0.12,0.17-0.26,0.44-0.26,0.8c0,0.07,0.01,0.15,0.02,0.23c-0.91,0.21-1.6,1.03-1.6,2.01c0,1.15,0.93,2.07,2.07,2.07
		h12.17c1.14,0,2.07-0.93,2.07-2.07C44.92,41.23,44.24,40.41,43.32,40.2z"/>
	<linearGradient id="SVGID_5_" gradientUnits="userSpaceOnUse" x1="41.2026" y1="40.6543" x2="32.3354" y2="25.2959">
		<stop  offset="3.663000e-003" style="stop-color:#154A97"/>
		<stop  offset="1" style="stop-color:#0078B1"/>
	</linearGradient>
	<path fill="url(#SVGID_5_)" d="M37.47,32.97l4.69-6.83c0.13-0.19,0.05-0.34-0.18-0.34H31.56c-0.23,0-0.31,0.15-0.18,0.34l4.69,6.83
		l-4.69,6.84c-0.13,0.19-0.05,0.35,0.18,0.35h10.42c0.23,0,0.31-0.16,0.18-0.35L37.47,32.97z"/>
	<g>
		<linearGradient id="SVGID_6_" gradientUnits="userSpaceOnUse" x1="38.7612" y1="27.249" x2="34.7764" y2="20.347">
			<stop  offset="3.663000e-003" style="stop-color:#154A97"/>
			<stop  offset="1" style="stop-color:#0078B1"/>
		</linearGradient>
		<path fill="url(#SVGID_6_)" d="M30.68,22.85c-0.52,0-0.94,0.42-0.94,0.94c0,0.52,0.42,0.94,0.94,0.94h12.17
			c0.52,0,0.94-0.42,0.94-0.94c0-0.52-0.42-0.94-0.94-0.94H30.68z"/>
	</g>
	<g>
		<linearGradient id="SVGID_7_" gradientUnits="userSpaceOnUse" x1="38.811" y1="45.7881" x2="34.8262" y2="38.8861">
			<stop  offset="3.663000e-003" style="stop-color:#154A97"/>
			<stop  offset="1" style="stop-color:#0078B1"/>
		</linearGradient>
		<path fill="url(#SVGID_7_)" d="M30.73,41.4c-0.52,0-0.94,0.42-0.94,0.94c0,0.52,0.42,0.94,0.94,0.94H42.9
			c0.52,0,0.94-0.42,0.94-0.94c0-0.52-0.42-0.94-0.94-0.94H30.73z"/>
	</g>
</g>
</svg>
