<?xml version="1.0" encoding="utf-8"?>
<!-- Generator: Adobe Illustrator 13.0.1, SVG Export Plug-In . SVG Version: 6.00 Build 14948)  -->
<!DOCTYPE svg PUBLIC "-//W3C//DTD SVG 1.1//EN" "http://www.w3.org/Graphics/SVG/1.1/DTD/svg11.dtd">
<svg version="1.1" id="Layer_1" xmlns="http://www.w3.org/2000/svg" xmlns:xlink="http://www.w3.org/1999/xlink" x="0px" y="0px"
	 width="50px" height="50px" viewBox="0 0 50 50" enable-background="new 0 0 50 50" xml:space="preserve">
<g>
	<rect fill="none" width="50" height="50"/>
	<rect id="_x3C_Slice_x3E__13_" y="0" fill="none" width="50" height="50"/>
	<linearGradient id="SVGID_1_" gradientUnits="userSpaceOnUse" x1="41.3237" y1="53.2744" x2="8.6763" y2="-3.2726">
		<stop  offset="3.663000e-003" style="stop-color:#154A97"/>
		<stop  offset="1" style="stop-color:#0078B1"/>
	</linearGradient>
	<path fill="url(#SVGID_1_)" d="M49.86,46.28c0,1.97-1.61,3.58-3.58,3.58H3.72c-1.97,0-3.58-1.61-3.58-3.58V3.72
		c0-1.97,1.61-3.58,3.58-3.58h42.56c1.97,0,3.58,1.61,3.58,3.58V46.28z"/>
	<linearGradient id="SVGID_2_" gradientUnits="userSpaceOnUse" x1="40.6382" y1="52.0869" x2="9.3623" y2="-2.0845">
		<stop  offset="0" style="stop-color:#6AE4FF"/>
		<stop  offset="0.1024" style="stop-color:#55CFF6"/>
		<stop  offset="0.2416" style="stop-color:#3FB9ED"/>
		<stop  offset="0.3762" style="stop-color:#32ACE7"/>
		<stop  offset="0.5" style="stop-color:#2EA8E5"/>
		<stop  offset="0.6382" style="stop-color:#32ACE7"/>
		<stop  offset="0.7615" style="stop-color:#3CB6EB"/>
		<stop  offset="0.8791" style="stop-color:#4FC9F3"/>
		<stop  offset="0.9925" style="stop-color:#68E2FE"/>
		<stop  offset="1" style="stop-color:#6AE4FF"/>
	</linearGradient>
	<path fill="url(#SVGID_2_)" d="M48.62,45.93c0,1.48-1.21,2.68-2.68,2.68H4.07c-1.47,0-2.68-1.21-2.68-2.68V4.07
		c0-1.48,1.21-2.68,2.68-2.68h41.86c1.48,0,2.68,1.21,2.68,2.68V45.93z"/>
	<linearGradient id="SVGID_3_" gradientUnits="userSpaceOnUse" x1="12.1899" y1="-2.3804" x2="34.0622" y2="38.5238">
		<stop  offset="0" style="stop-color:#9CE9FC"/>
		<stop  offset="1" style="stop-color:#3CB5F0"/>
	</linearGradient>
	<path fill="url(#SVGID_3_)" d="M48.62,11.24c0,0-32.42-5.64-47.23,28.59c0-10.72,0-35.85,0-35.85c0-1.47,1.21-2.68,2.68-2.68h41.86
		c1.48,0,2.68,1.21,2.68,2.68V11.24z"/>
	<linearGradient id="SVGID_4_" gradientUnits="userSpaceOnUse" x1="2.7803" y1="2.7813" x2="47.2008" y2="47.2012">
		<stop  offset="0" style="stop-color:#BCEEFC"/>
		<stop  offset="1" style="stop-color:#95E9FC"/>
	</linearGradient>
	<path fill="url(#SVGID_4_)" d="M45.93,1.38H4.07c-1.47,0-2.68,1.21-2.68,2.68v41.86c0,1.48,1.21,2.68,2.68,2.68h41.86
		c1.48,0,2.68-1.21,2.68-2.68V4.07C48.62,2.59,47.41,1.38,45.93,1.38z M47.91,45.31c0,1.43-1.17,2.6-2.6,2.6H4.69
		c-1.43,0-2.6-1.17-2.6-2.6V4.7c0-1.43,1.17-2.6,2.6-2.6h40.61c1.43,0,2.6,1.17,2.6,2.6V45.31z"/>
	<path fill="#FFFFFF" d="M40.74,7.71h-2.15V5.58c0-0.31-0.25-0.56-0.56-0.56c-0.31,0-0.57,0.25-0.57,0.56v2.13h-3.04V5.59
		c0-0.31-0.25-0.57-0.57-0.57c-0.31,0-0.56,0.25-0.56,0.57v2.13h-3.04V5.58c0-0.31-0.25-0.57-0.56-0.57s-0.56,0.25-0.56,0.57v2.13
		h-3.04V5.59c0-0.31-0.25-0.57-0.56-0.57s-0.57,0.25-0.57,0.57v2.13h-3.03V5.58c0-0.31-0.25-0.57-0.56-0.57s-0.57,0.25-0.57,0.57
		v2.13h-3.04V5.59c0-0.31-0.25-0.57-0.56-0.57c-0.31,0-0.57,0.25-0.57,0.57v2.13h-3.04V5.58c0-0.31-0.25-0.56-0.57-0.56
		c-0.31,0-0.56,0.25-0.56,0.56v2.13H9.42V5.58c0-0.31-0.25-0.56-0.56-0.56S8.29,5.27,8.29,5.58v2.13H6.13C5.51,7.71,5,8.22,5,8.84
		V39.5c0,0.62,0.51,1.13,1.13,1.13h34.61c0.62,0,1.13-0.51,1.13-1.13V8.84C41.87,8.22,41.36,7.71,40.74,7.71z M12.27,38.61
		c0,0.19-0.16,0.35-0.35,0.35H6.84c-0.19,0-0.35-0.16-0.35-0.35v-5.08c0-0.19,0.16-0.35,0.35-0.35h5.08c0.19,0,0.35,0.16,0.35,0.35
		V38.61z M12.27,31.58c0,0.19-0.16,0.35-0.35,0.35H6.84c-0.19,0-0.35-0.16-0.35-0.35V26.5c0-0.19,0.16-0.35,0.35-0.35h5.08
		c0.19,0,0.35,0.16,0.35,0.35V31.58z M12.27,24.55c0,0.19-0.16,0.35-0.35,0.35H6.84c-0.19,0-0.35-0.16-0.35-0.35v-5.08
		c0-0.19,0.16-0.35,0.35-0.35h5.08c0.19,0,0.35,0.16,0.35,0.35V24.55z M12.27,17.52c0,0.19-0.16,0.35-0.35,0.35H6.84
		c-0.19,0-0.35-0.16-0.35-0.35v-5.08c0-0.19,0.16-0.35,0.35-0.35h5.08c0.19,0,0.35,0.16,0.35,0.35V17.52z M19.3,38.61
		c0,0.19-0.16,0.35-0.35,0.35h-5.08c-0.19,0-0.35-0.16-0.35-0.35v-5.08c0-0.19,0.16-0.35,0.35-0.35h5.08c0.19,0,0.35,0.16,0.35,0.35
		V38.61z M19.3,31.58c0,0.19-0.16,0.35-0.35,0.35h-5.08c-0.19,0-0.35-0.16-0.35-0.35V26.5c0-0.19,0.16-0.35,0.35-0.35h5.08
		c0.19,0,0.35,0.16,0.35,0.35V31.58z M19.3,24.55c0,0.19-0.16,0.35-0.35,0.35h-5.08c-0.19,0-0.35-0.16-0.35-0.35v-5.08
		c0-0.19,0.16-0.35,0.35-0.35h5.08c0.19,0,0.35,0.16,0.35,0.35V24.55z M19.3,17.52c0,0.19-0.16,0.35-0.35,0.35h-5.08
		c-0.19,0-0.35-0.16-0.35-0.35v-5.08c0-0.19,0.16-0.35,0.35-0.35h5.08c0.19,0,0.35,0.16,0.35,0.35V17.52z M26.33,38.61
		c0,0.19-0.16,0.35-0.35,0.35H20.9c-0.19,0-0.35-0.16-0.35-0.35v-5.08c0-0.19,0.16-0.35,0.35-0.35h5.08c0.19,0,0.35,0.16,0.35,0.35
		V38.61z M26.33,31.58c0,0.19-0.16,0.35-0.35,0.35H20.9c-0.19,0-0.35-0.16-0.35-0.35V26.5c0-0.19,0.16-0.35,0.35-0.35h5.08
		c0.19,0,0.35,0.16,0.35,0.35V31.58z M26.33,24.55c0,0.19-0.16,0.35-0.35,0.35H20.9c-0.19,0-0.35-0.16-0.35-0.35v-5.08
		c0-0.19,0.16-0.35,0.35-0.35h5.08c0.19,0,0.35,0.16,0.35,0.35V24.55z M26.33,17.52c0,0.19-0.16,0.35-0.35,0.35H20.9
		c-0.19,0-0.35-0.16-0.35-0.35v-5.08c0-0.19,0.16-0.35,0.35-0.35h5.08c0.19,0,0.35,0.16,0.35,0.35V17.52z M33.36,38.61
		c0,0.19-0.16,0.35-0.35,0.35h-5.08c-0.19,0-0.35-0.16-0.35-0.35v-5.08c0-0.19,0.16-0.35,0.35-0.35h5.08c0.19,0,0.35,0.16,0.35,0.35
		V38.61z M33.36,31.58c0,0.19-0.16,0.35-0.35,0.35h-5.08c-0.19,0-0.35-0.16-0.35-0.35V26.5c0-0.19,0.16-0.35,0.35-0.35h5.08
		c0.19,0,0.35,0.16,0.35,0.35V31.58z M33.36,24.55c0,0.19-0.16,0.35-0.35,0.35h-5.08c-0.19,0-0.35-0.16-0.35-0.35v-5.08
		c0-0.19,0.16-0.35,0.35-0.35h5.08c0.19,0,0.35,0.16,0.35,0.35V24.55z M33.36,17.52c0,0.19-0.16,0.35-0.35,0.35h-5.08
		c-0.19,0-0.35-0.16-0.35-0.35v-5.08c0-0.19,0.16-0.35,0.35-0.35h5.08c0.19,0,0.35,0.16,0.35,0.35V17.52z M40.39,38.61
		c0,0.19-0.16,0.35-0.35,0.35h-5.08c-0.19,0-0.35-0.16-0.35-0.35v-5.08c0-0.19,0.16-0.35,0.35-0.35h5.08c0.19,0,0.35,0.16,0.35,0.35
		V38.61z M40.39,31.58c0,0.19-0.16,0.35-0.35,0.35h-5.08c-0.19,0-0.35-0.16-0.35-0.35V26.5c0-0.19,0.16-0.35,0.35-0.35h5.08
		c0.19,0,0.35,0.16,0.35,0.35V31.58z M40.39,24.55c0,0.19-0.16,0.35-0.35,0.35h-5.08c-0.19,0-0.35-0.16-0.35-0.35v-5.08
		c0-0.19,0.16-0.35,0.35-0.35h5.08c0.19,0,0.35,0.16,0.35,0.35V24.55z M40.39,17.52c0,0.19-0.16,0.35-0.35,0.35h-5.08
		c-0.19,0-0.35-0.16-0.35-0.35v-5.08c0-0.19,0.16-0.35,0.35-0.35h5.08c0.19,0,0.35,0.16,0.35,0.35V17.52z"/>
	<g>
		<linearGradient id="SVGID_5_" gradientUnits="userSpaceOnUse" x1="29.9956" y1="35.125" x2="47.6977" y2="56.312">
			<stop  offset="0" style="stop-color:#F7C630"/>
			<stop  offset="0.1747" style="stop-color:#F9CB27"/>
			<stop  offset="0.4607" style="stop-color:#FDD70E"/>
			<stop  offset="0.5989" style="stop-color:#FFDE00"/>
			<stop  offset="0.989" style="stop-color:#FFF100"/>
		</linearGradient>
		<path fill="url(#SVGID_5_)" d="M33.31,22.06c-2.51,0-11.29,18.82-11.29,20.71c0,0.69,0.56,1.25,1.25,1.25h20.08
			c0.69,0,1.25-0.56,1.25-1.25C44.6,41.51,35.82,22.06,33.31,22.06z"/>
		<linearGradient id="SVGID_6_" gradientUnits="userSpaceOnUse" x1="29.6489" y1="34.5195" x2="45.4839" y2="55.6774">
			<stop  offset="0" style="stop-color:#F6C72E"/>
			<stop  offset="5.617980e-003" style="stop-color:#F6C72E"/>
			<stop  offset="0.5989" style="stop-color:#FFE000"/>
			<stop  offset="0.989" style="stop-color:#FFF100"/>
			<stop  offset="1" style="stop-color:#FFF100"/>
		</linearGradient>
		<path fill="url(#SVGID_6_)" d="M33.56,22.83c-2.4,0-10.8,18.01-10.8,19.8c0,0.66,0.54,1.2,1.2,1.2h19.19c0.66,0,1.2-0.54,1.2-1.2
			C44.36,41.44,35.96,22.83,33.56,22.83z"/>
		<linearGradient id="SVGID_7_" gradientUnits="userSpaceOnUse" x1="29.4653" y1="33.8936" x2="43.4539" y2="54.8336">
			<stop  offset="0" style="stop-color:#F6C92D"/>
			<stop  offset="5.617980e-003" style="stop-color:#F6C92D"/>
			<stop  offset="0.5989" style="stop-color:#FFE007"/>
			<stop  offset="0.989" style="stop-color:#FFF109"/>
			<stop  offset="1" style="stop-color:#FFF109"/>
		</linearGradient>
		<path fill="url(#SVGID_7_)" d="M33.81,23.61c-2.29,0-10.29,17.19-10.29,18.91c0,0.63,0.51,1.14,1.14,1.14h18.3
			c0.63,0,1.14-0.51,1.14-1.14C44.11,41.37,36.1,23.61,33.81,23.61z"/>
		<linearGradient id="SVGID_8_" gradientUnits="userSpaceOnUse" x1="29.4575" y1="33.2676" x2="41.6395" y2="53.8036">
			<stop  offset="0" style="stop-color:#F7CB2B"/>
			<stop  offset="5.617980e-003" style="stop-color:#F7CB2B"/>
			<stop  offset="0.5989" style="stop-color:#FFE015"/>
			<stop  offset="0.989" style="stop-color:#FFF121"/>
			<stop  offset="1" style="stop-color:#FFF121"/>
		</linearGradient>
		<path fill="url(#SVGID_8_)" d="M34.07,24.38c-2.18,0-9.8,16.37-9.8,18.01c0,0.61,0.49,1.09,1.09,1.09h17.41
			c0.6,0,1.09-0.49,1.09-1.09C43.86,41.3,36.24,24.38,34.07,24.38z"/>
		<linearGradient id="SVGID_9_" gradientUnits="userSpaceOnUse" x1="29.6421" y1="32.6563" x2="40.0826" y2="52.6195">
			<stop  offset="0" style="stop-color:#F6CB29"/>
			<stop  offset="5.617980e-003" style="stop-color:#F6CB29"/>
			<stop  offset="0.5989" style="stop-color:#FFE120"/>
			<stop  offset="0.989" style="stop-color:#FFF22E"/>
			<stop  offset="1" style="stop-color:#FFF22E"/>
		</linearGradient>
		<path fill="url(#SVGID_9_)" d="M34.32,25.16c-2.06,0-9.3,15.55-9.3,17.11c0,0.57,0.46,1.04,1.03,1.04h16.53
			c0.57,0,1.03-0.46,1.03-1.04C43.62,41.23,36.39,25.16,34.32,25.16z"/>
		<linearGradient id="SVGID_10_" gradientUnits="userSpaceOnUse" x1="30.063" y1="32.0664" x2="38.8441" y2="51.2981">
			<stop  offset="0" style="stop-color:#F7CD27"/>
			<stop  offset="5.617980e-003" style="stop-color:#F7CD27"/>
			<stop  offset="0.5989" style="stop-color:#FFE229"/>
			<stop  offset="0.989" style="stop-color:#FFF23A"/>
			<stop  offset="1" style="stop-color:#FFF23A"/>
		</linearGradient>
		<path fill="url(#SVGID_10_)" d="M34.57,25.93c-1.96,0-8.8,14.74-8.8,16.21c0,0.54,0.44,0.98,0.98,0.98H42.4
			c0.54,0,0.98-0.44,0.98-0.98C43.37,41.16,36.53,25.93,34.57,25.93z"/>
		<linearGradient id="SVGID_11_" gradientUnits="userSpaceOnUse" x1="30.7134" y1="31.5352" x2="37.9345" y2="49.892">
			<stop  offset="0" style="stop-color:#F6CE25"/>
			<stop  offset="5.617980e-003" style="stop-color:#F6CE25"/>
			<stop  offset="0.5989" style="stop-color:#FFE22F"/>
			<stop  offset="0.989" style="stop-color:#FFF244"/>
			<stop  offset="1" style="stop-color:#FFF244"/>
		</linearGradient>
		<path fill="url(#SVGID_11_)" d="M34.83,26.71c-1.84,0-8.3,13.92-8.3,15.31c0,0.51,0.41,0.93,0.92,0.93H42.2
			c0.51,0,0.92-0.42,0.92-0.93C43.13,41.09,36.67,26.71,34.83,26.71z"/>
		<linearGradient id="SVGID_12_" gradientUnits="userSpaceOnUse" x1="31.4917" y1="31.123" x2="37.2675" y2="48.4796">
			<stop  offset="0" style="stop-color:#F6D023"/>
			<stop  offset="5.617980e-003" style="stop-color:#F6D023"/>
			<stop  offset="0.5989" style="stop-color:#FFE336"/>
			<stop  offset="0.989" style="stop-color:#FFF24D"/>
			<stop  offset="1" style="stop-color:#FFF24D"/>
		</linearGradient>
		<path fill="url(#SVGID_12_)" d="M35.08,27.48c-1.73,0-7.8,13.1-7.8,14.41c0,0.48,0.39,0.87,0.87,0.87h13.86
			c0.48,0,0.87-0.39,0.87-0.87C42.88,41.02,36.81,27.48,35.08,27.48z"/>
		<linearGradient id="SVGID_13_" gradientUnits="userSpaceOnUse" x1="32.3364" y1="30.8613" x2="36.7937" y2="47.1119">
			<stop  offset="0" style="stop-color:#F6D121"/>
			<stop  offset="5.617980e-003" style="stop-color:#F6D121"/>
			<stop  offset="0.5989" style="stop-color:#FFE33D"/>
			<stop  offset="0.989" style="stop-color:#FFF356"/>
			<stop  offset="1" style="stop-color:#FFF356"/>
		</linearGradient>
		<path fill="url(#SVGID_13_)" d="M35.34,28.25c-1.63,0-7.3,12.28-7.3,13.51c0,0.45,0.37,0.82,0.81,0.82h12.98
			c0.45,0,0.81-0.37,0.81-0.82C42.63,40.95,36.96,28.25,35.34,28.25z"/>
		<linearGradient id="SVGID_14_" gradientUnits="userSpaceOnUse" x1="33.2134" y1="30.752" x2="36.4893" y2="45.8137">
			<stop  offset="0" style="stop-color:#F6D31F"/>
			<stop  offset="5.617980e-003" style="stop-color:#F6D31F"/>
			<stop  offset="0.5989" style="stop-color:#FFE442"/>
			<stop  offset="0.989" style="stop-color:#FFF35F"/>
			<stop  offset="1" style="stop-color:#FFF35F"/>
		</linearGradient>
		<path fill="url(#SVGID_14_)" d="M35.59,29.03c-1.51,0-6.8,11.47-6.8,12.61c0,0.42,0.34,0.76,0.76,0.76h12.09
			c0.42,0,0.76-0.34,0.76-0.76C42.39,40.88,37.1,29.03,35.59,29.03z"/>
		<linearGradient id="SVGID_15_" gradientUnits="userSpaceOnUse" x1="34.1021" y1="30.8018" x2="36.3387" y2="44.6068">
			<stop  offset="0" style="stop-color:#F6D41C"/>
			<stop  offset="5.617980e-003" style="stop-color:#F6D41C"/>
			<stop  offset="0.5989" style="stop-color:#FFE549"/>
			<stop  offset="0.989" style="stop-color:#FFF366"/>
			<stop  offset="1" style="stop-color:#FFF366"/>
		</linearGradient>
		<path fill="url(#SVGID_15_)" d="M35.84,29.8c-1.4,0-6.3,10.65-6.3,11.71c0,0.39,0.31,0.71,0.7,0.71h11.2c0.38,0,0.7-0.32,0.7-0.71
			C42.14,40.81,37.24,29.8,35.84,29.8z"/>
		<linearGradient id="SVGID_16_" gradientUnits="userSpaceOnUse" x1="34.9751" y1="30.999" x2="36.32" y2="43.5104">
			<stop  offset="0" style="stop-color:#F6D519"/>
			<stop  offset="5.617980e-003" style="stop-color:#F6D519"/>
			<stop  offset="0.5989" style="stop-color:#FFE54D"/>
			<stop  offset="0.989" style="stop-color:#FFF46E"/>
			<stop  offset="1" style="stop-color:#FFF46E"/>
		</linearGradient>
		<path fill="url(#SVGID_16_)" d="M36.09,30.58c-1.29,0-5.8,9.83-5.8,10.81c0,0.36,0.29,0.66,0.64,0.66h10.31
			c0.36,0,0.64-0.29,0.64-0.66C41.89,40.74,37.38,30.58,36.09,30.58z"/>
		<linearGradient id="SVGID_17_" gradientUnits="userSpaceOnUse" x1="35.8149" y1="31.3438" x2="36.4146" y2="42.5335">
			<stop  offset="0" style="stop-color:#F6D716"/>
			<stop  offset="5.617980e-003" style="stop-color:#F6D716"/>
			<stop  offset="0.5989" style="stop-color:#FFE653"/>
			<stop  offset="0.989" style="stop-color:#FFF475"/>
			<stop  offset="1" style="stop-color:#FFF476"/>
		</linearGradient>
		<path fill="url(#SVGID_17_)" d="M36.35,31.35c-1.18,0-5.3,9.01-5.3,9.92c0,0.33,0.27,0.6,0.59,0.6h9.42c0.33,0,0.59-0.27,0.59-0.6
			C41.65,40.67,37.53,31.35,36.35,31.35z"/>
		<linearGradient id="SVGID_18_" gradientUnits="userSpaceOnUse" x1="36.6011" y1="31.8193" x2="36.6011" y2="41.6907">
			<stop  offset="5.617980e-003" style="stop-color:#F6D913"/>
			<stop  offset="1" style="stop-color:#FFF47C"/>
		</linearGradient>
		<path fill="url(#SVGID_18_)" d="M36.6,32.13c-1.07,0-4.8,8.2-4.8,9.02c0,0.3,0.24,0.55,0.53,0.55h8.54c0.29,0,0.53-0.25,0.53-0.55
			C41.4,40.6,37.67,32.13,36.6,32.13z"/>
	</g>
	<linearGradient id="SVGID_19_" gradientUnits="userSpaceOnUse" x1="30.7935" y1="26.2871" x2="31.9509" y2="33.0391">
		<stop  offset="0" style="stop-color:#FFFFFF"/>
		<stop  offset="1" style="stop-color:#FCEC76"/>
	</linearGradient>
	<path opacity="0.65" fill="url(#SVGID_19_)" d="M33.14,22.34c-0.66,0.13-1.59,0.83-3.53,3.96c-2,3.22-5.28,9.04-5.69,10.34
		c-0.15,0.47,5.72-0.64,8.73-2.08c3.01-1.45,7.93,0.05,7.98-1.4C40.08,31.87,34.94,22.17,33.14,22.34z"/>
	<g>
		<linearGradient id="SVGID_20_" gradientUnits="userSpaceOnUse" x1="33.3091" y1="45.0322" x2="33.3091" y2="21.6588">
			<stop  offset="0" style="stop-color:#CCA706"/>
			<stop  offset="1" style="stop-color:#E4A01B"/>
		</linearGradient>
		<path fill="url(#SVGID_20_)" d="M33.31,21.66c-0.59,0-1.44,0.38-3.28,3.19c-1.36,2.07-2.78,4.74-3.72,6.6
			c-2.25,4.43-4.68,9.95-4.68,11.12c0,1.02,0.83,1.85,1.84,1.85h19.69c1.02,0,1.85-0.83,1.85-1.85c0-0.95-2.72-6.98-4.68-10.88
			c-1.38-2.76-2.67-5.09-3.72-6.74C34.75,22.05,33.9,21.66,33.31,21.66L33.31,21.66z M22.24,42.57c0-1.84,8.61-20.3,11.07-20.3
			c2.46,0,11.07,19.07,11.07,20.3l0,0l0,0c0,0.68-0.55,1.23-0.74,1.23H23.95C22.79,43.8,22.24,43.25,22.24,42.57L22.24,42.57
			L22.24,42.57z"/>
	</g>
	<g>
	</g>
	<g opacity="0.6">
		<path fill="#FFFFFF" d="M33.33,22.38c-0.56,0-1.37,0.36-3.12,3.03c-1.29,1.97-2.64,4.5-3.54,6.27c-2.14,4.21-4.45,9.45-4.45,10.56
			c0,0.97,0.79,1.75,1.75,1.75h18.7c0.96,0,1.75-0.79,1.75-1.75c0-0.9-2.59-6.63-4.45-10.34c-1.31-2.62-2.53-4.84-3.54-6.41
			C34.69,22.75,33.89,22.38,33.33,22.38L33.33,22.38z M22.81,42.25c0-1.75,8.18-19.28,10.52-19.28c2.34,0,10.52,18.12,10.52,19.28
			l0,0l0,0c0,0.64-0.53,1.17-0.71,1.17h-18.7C23.33,43.42,22.81,42.9,22.81,42.25L22.81,42.25L22.81,42.25z"/>
	</g>
	<g>
		<g>
			<g>
				<linearGradient id="SVGID_21_" gradientUnits="userSpaceOnUse" x1="32.2856" y1="39.9697" x2="34.3306" y2="39.9697">
					<stop  offset="0" style="stop-color:#231F20"/>
					<stop  offset="0.319" style="stop-color:#292526"/>
					<stop  offset="1" style="stop-color:#312F30"/>
				</linearGradient>
				<path fill="url(#SVGID_21_)" d="M33.84,39.01h-1.07c-0.27,0-0.49,0.22-0.49,0.49v0.94c0,0.27,0.22,0.49,0.49,0.49h1.07
					c0.27,0,0.49-0.22,0.49-0.49V39.5C34.33,39.23,34.11,39.01,33.84,39.01z"/>
			</g>
		</g>
		<g>
			<g>
				<linearGradient id="SVGID_22_" gradientUnits="userSpaceOnUse" x1="32.2856" y1="32.5879" x2="34.3306" y2="32.5879">
					<stop  offset="0" style="stop-color:#231F20"/>
					<stop  offset="0.319" style="stop-color:#292526"/>
					<stop  offset="1" style="stop-color:#312F30"/>
				</linearGradient>
				<path fill="url(#SVGID_22_)" d="M33.84,27.49l-1.07,0c-0.27,0-0.49,0.22-0.49,0.49v9.21c0,0.27,0.22,0.49,0.49,0.49h1.07
					c0.27,0,0.49-0.22,0.49-0.49v-9.21C34.33,27.71,34.11,27.49,33.84,27.49z"/>
			</g>
		</g>
	</g>
</g>
</svg>
